<?xml version="1.0" encoding="UTF-8" standalone="no"?>
<!-- Created with Inkscape (http://www.inkscape.org/) -->

<svg
   id="svg2"
   version="1.1"
   inkscape:version="1.2 (dc2aeda, 2022-05-15)"
   xml:space="preserve"
   width="2.49in"
   height="3.74in"
   viewBox="0 0 224.10001 336.60001"
   sodipodi:docname="tapestry-template.svg"
   inkscape:export-filename="/Users/garykac/projects/github/woven/components/tapestry-cards/template-mpc.png"
   inkscape:export-xdpi="300"
   inkscape:export-ydpi="300"
   xmlns:inkscape="http://www.inkscape.org/namespaces/inkscape"
   xmlns:sodipodi="http://sodipodi.sourceforge.net/DTD/sodipodi-0.dtd"
   xmlns:xlink="http://www.w3.org/1999/xlink"
   xmlns="http://www.w3.org/2000/svg"
   xmlns:svg="http://www.w3.org/2000/svg"
   xmlns:rdf="http://www.w3.org/1999/02/22-rdf-syntax-ns#"
   xmlns:cc="http://creativecommons.org/ns#"
   xmlns:dc="http://purl.org/dc/elements/1.1/"><defs
     id="defs11"><linearGradient
       inkscape:collect="always"
       id="linearGradient4591"><stop
         style="stop-color:#ffffff;stop-opacity:0.5"
         offset="0"
         id="stop4593" /><stop
         id="stop4599"
         offset="0.78054917"
         style="stop-color:#ffffff;stop-opacity:0.50476193" /><stop
         style="stop-color:#ffffff;stop-opacity:0.081"
         offset="1"
         id="stop4595" /></linearGradient><filter
       inkscape:label="Element Fuzz"
       inkscape:menu="Textures"
       inkscape:menu-tooltip="Wax print on tissue texture"
       height="2.1983979"
       y="-0.59919895"
       width="3.6877513"
       x="-1.3438756"
       style="color-interpolation-filters:sRGB"
       id="filter9446"><feGaussianBlur
         result="result1"
         in="SourceGraphic"
         stdDeviation="0.39999999999999991"
         id="feGaussianBlur9448" /><feTurbulence
         result="result0"
         numOctaves="3"
         baseFrequency="0.16434540389972144"
         type="fractalNoise"
         id="feTurbulence9450"
         stdDeviation="1.3999999999999999" /><feDisplacementMap
         result="result2"
         scale="2"
         yChannelSelector="G"
         xChannelSelector="R"
         in="result1"
         in2="result0"
         id="feDisplacementMap9452" /><feColorMatrix
         values="1 0 0 0 0 0 1 0 0 0 0 0 1 0 0 0 0 0 10 0 "
         result="result3"
         id="feColorMatrix9454" /><feBlend
         mode="multiply"
         in="result2"
         result="result5"
         in2="result3"
         id="feBlend9456"
         baseFrequency="0.16400000000000001" /><feGaussianBlur
         result="result4"
         in="result3"
         stdDeviation="2"
         id="feGaussianBlur9458" /><feComposite
         k4="0"
         k1="0.5"
         k3="1.5"
         k2="0.15"
         in="result4"
         in2="result5"
         operator="arithmetic"
         result="result6"
         id="feComposite9460" /><feComposite
         operator="in"
         in="result6"
         in2="result4"
         id="feComposite9462" /></filter><filter
       inkscape:label="Fuzzy Box"
       inkscape:menu="Textures"
       inkscape:menu-tooltip="Wax print on tissue texture"
       height="1.2840882"
       y="-0.14204412"
       width="1.2243417"
       x="-0.11218481"
       style="color-interpolation-filters:sRGB"
       id="filter9118"><feGaussianBlur
         result="result1"
         in="SourceGraphic"
         stdDeviation="1.2"
         id="feGaussianBlur9120" /><feTurbulence
         result="result0"
         numOctaves="5"
         baseFrequency="0.066000000000000017"
         type="fractalNoise"
         id="feTurbulence9122"
         stdDeviation="1"
         seed="0" /><feDisplacementMap
         result="result2"
         scale="4"
         yChannelSelector="G"
         xChannelSelector="R"
         in2="result0"
         id="feDisplacementMap9124"
         in="result1" /><feColorMatrix
         values="1 0 0 0 0 0 1 0 0 0 0 0 1 0 0 0 0 0 10 0 "
         result="result3"
         id="feColorMatrix9126" /><feBlend
         mode="multiply"
         in="result2"
         result="result5"
         in2="result3"
         id="feBlend9128" /><feGaussianBlur
         result="result4"
         in="result3"
         stdDeviation="2"
         id="feGaussianBlur9130" /><feComposite
         k4="0"
         k1="0.5"
         k3="1.5"
         k2="0.15"
         in="result4"
         in2="result5"
         operator="arithmetic"
         result="result6"
         id="feComposite9132" /><feComposite
         operator="in"
         in="result6"
         in2="result4"
         id="feComposite9134" /></filter><filter
       inkscape:collect="always"
       style="color-interpolation-filters:sRGB"
       id="filter4430"
       x="-0.055873429"
       width="1.1117469"
       y="-0.013446545"
       height="1.0268931"
       inkscape:label="Rift Inner Blur"><feGaussianBlur
         inkscape:collect="always"
         stdDeviation="0.64361428"
         id="feGaussianBlur4432" /></filter><linearGradient
       inkscape:collect="always"
       xlink:href="#linearGradient4591"
       id="linearGradient4597"
       x1="24.298424"
       y1="168.3"
       x2="80.83062"
       y2="168.12172"
       gradientUnits="userSpaceOnUse" /><linearGradient
       inkscape:collect="always"
       xlink:href="#linearGradient4591"
       id="linearGradient4607"
       x1="165.0909"
       y1="-198.07341"
       x2="172.57883"
       y2="-144.40996"
       gradientUnits="userSpaceOnUse" /><linearGradient
       inkscape:collect="always"
       xlink:href="#linearGradient4591"
       id="linearGradient4637"
       x1="298.40561"
       y1="-192.03818"
       x2="247.61092"
       y2="-147.28893"
       gradientUnits="userSpaceOnUse" /><linearGradient
       inkscape:collect="always"
       xlink:href="#linearGradient4591"
       id="linearGradient4645"
       x1="290.02628"
       y1="-44.096035"
       x2="239.76643"
       y2="-91.519554"
       gradientUnits="userSpaceOnUse" /><linearGradient
       inkscape:collect="always"
       xlink:href="#linearGradient4591"
       id="linearGradient4653"
       x1="32.294891"
       y1="-182.41083"
       x2="97.02816"
       y2="-133.9176"
       gradientUnits="userSpaceOnUse" /><linearGradient
       inkscape:collect="always"
       xlink:href="#linearGradient4591"
       id="linearGradient4661"
       x1="32.116531"
       y1="-39.906368"
       x2="93.462402"
       y2="-77.702553"
       gradientUnits="userSpaceOnUse" /><filter
       inkscape:collect="always"
       style="color-interpolation-filters:sRGB"
       id="filter4797"
       x="-0.15161721"
       width="1.2956712"
       y="-0.056474327"
       height="1.1124348"><feGaussianBlur
         inkscape:collect="always"
         stdDeviation="3.0226253"
         id="feGaussianBlur4799" /></filter><filter
       inkscape:collect="always"
       style="color-interpolation-filters:sRGB"
       id="filter4837"
       x="-0.66322086"
       width="2.3188785"
       y="-0.2499777"
       height="1.4994416"><feGaussianBlur
         inkscape:collect="always"
         stdDeviation="14.810864"
         id="feGaussianBlur4839" /></filter></defs><metadata
     id="metadata8"><rdf:RDF><cc:Work
         rdf:about=""><dc:format>image/svg+xml</dc:format><dc:type
           rdf:resource="http://purl.org/dc/dcmitype/StillImage" /><dc:title /></cc:Work></rdf:RDF></metadata><sodipodi:namedview
     pagecolor="#ffffff"
     bordercolor="#666666"
     borderopacity="1"
     objecttolerance="10"
     gridtolerance="10"
     guidetolerance="10"
     inkscape:pageopacity="0"
     inkscape:pageshadow="2"
     inkscape:window-width="1728"
     inkscape:window-height="1007"
     id="namedview4"
     showgrid="false"
     inkscape:zoom="1.9830921"
     inkscape:cx="-152.0353"
     inkscape:cy="188.34224"
     inkscape:window-x="0"
     inkscape:window-y="82"
     inkscape:window-maximized="0"
     inkscape:current-layer="g4446"
     inkscape:snap-page="true"
     units="in"
     inkscape:showpageshadow="2"
     inkscape:pagecheckerboard="0"
     inkscape:deskcolor="#d1d1d1"
     inkscape:document-units="in" /><g
     inkscape:groupmode="layer"
     id="layer2"
     inkscape:label="Bleed Area"
     style="display:none"><rect
       style="fill:#ffe8cf;fill-opacity:1;stroke:none;stroke-width:1;stroke-linecap:round;stroke-miterlimit:4;stroke-dasharray:none;stroke-opacity:1"
       id="rect4580"
       width="224.10001"
       height="336.60001"
       x="0"
       y="1.25e-05" /></g><g
     inkscape:groupmode="layer"
     id="layer8"
     inkscape:label="Background Paper Texture"
     style="display:inline;opacity:1"><image
       xlink:href="../card-background.jpg"
       width="224.10001"
       height="336.60001"
       preserveAspectRatio="none"
       id="image4444"
       x="0"
       y="0" /></g><g
     inkscape:groupmode="layer"
     id="layer9"
     inkscape:label="Background Fabric Texture"
     style="display:inline;opacity:0.15"><image
       xlink:href="../denim_by_titelgestalten.jpg"
       y="0"
       x="0"
       id="image4349"
       preserveAspectRatio="none"
       height="336.60001"
       width="224.10001" /></g><g
     inkscape:groupmode="layer"
     id="layer3"
     inkscape:label="Icons - Master"
     style="display:inline"><g
       id="g4391"
       inkscape:label="Water"
       inkscape:groupmode="layer"
       style="display:inline"><path
         sodipodi:nodetypes="ccccccccccc"
         inkscape:connector-curvature="0"
         id="path8407"
         d="m 308.93911,255.68307 c -1.5117,0.24564 -3.1675,1.50034 -4.62784,1.9552 -4.49775,1.92512 -9.05232,1.67481 -13.80832,0.54082 -2.12278,-0.37527 -5.32978,-1.19167 -7.43587,-1.59148 -5.85396,-0.50668 -10.5059,2.58512 -14.99395,6.01454 -1.4384,1.3551 -0.024,2.90199 1.93712,2.65801 2.26464,-0.6657 5.0678,-1.0141 7.29982,-2.39671 2.81804,-1.39804 6.96422,-2.08651 10.03167,-0.83072 5.22123,1.56023 9.98052,2.19481 15.34157,0.80682 3.14588,-0.71865 5.14146,-2.09422 7.64699,-4.1673 1.25145,-1.41686 0.49345,-3.14775 -1.39119,-2.98918 z"
         style="color:#000000;font-style:normal;font-variant:normal;font-weight:normal;font-stretch:normal;font-size:medium;line-height:normal;font-family:sans-serif;text-indent:0;text-align:start;text-decoration:none;text-decoration-line:none;text-decoration-style:solid;text-decoration-color:#000000;letter-spacing:normal;word-spacing:normal;text-transform:none;writing-mode:lr-tb;direction:ltr;baseline-shift:baseline;text-anchor:start;white-space:normal;clip-rule:nonzero;display:inline;overflow:visible;visibility:visible;opacity:1;isolation:auto;mix-blend-mode:normal;color-interpolation:sRGB;color-interpolation-filters:linearRGB;solid-color:#000000;solid-opacity:1;fill:#00007e;fill-opacity:1;fill-rule:evenodd;stroke:none;stroke-width:4.5;stroke-linecap:round;stroke-linejoin:miter;stroke-miterlimit:4;stroke-dasharray:none;stroke-dashoffset:0;stroke-opacity:1;filter:url(#filter9446);color-rendering:auto;image-rendering:auto;shape-rendering:auto;text-rendering:auto;enable-background:accumulate" /><path
         sodipodi:nodetypes="cccccccccc"
         inkscape:connector-curvature="0"
         id="path8409"
         d="m 316.97093,268.28576 c -3.1227,-0.0842 -3.51029,1.88359 -7.8845,1.95694 -5.33479,0.4441 -8.88016,-0.97477 -14.18696,-1.28054 -7.0195,-0.677 -14.71166,3.56757 -21.10816,5.40969 -1.68954,1.02507 0.1228,3.23143 2.09161,3.4021 1.75092,-0.006 2.3243,0.41259 4.03219,0.0778 5.28968,-1.69109 8.684,-5.97441 14.1641,-5.29184 5.52858,0.54407 12.97732,3.07802 18.50994,1.86961 1.75091,-0.74805 3.3381,-1.8414 4.59247,-3.21858 0.89156,-1.44352 1.48689,-2.97777 -0.21068,-2.9252 z"
         style="color:#000000;font-style:normal;font-variant:normal;font-weight:normal;font-stretch:normal;font-size:medium;line-height:normal;font-family:sans-serif;text-indent:0;text-align:start;text-decoration:none;text-decoration-line:none;text-decoration-style:solid;text-decoration-color:#000000;letter-spacing:normal;word-spacing:normal;text-transform:none;writing-mode:lr-tb;direction:ltr;baseline-shift:baseline;text-anchor:start;white-space:normal;clip-rule:nonzero;display:inline;overflow:visible;visibility:visible;opacity:1;isolation:auto;mix-blend-mode:normal;color-interpolation:sRGB;color-interpolation-filters:linearRGB;solid-color:#000000;solid-opacity:1;fill:#00007e;fill-opacity:1;fill-rule:evenodd;stroke:none;stroke-width:4.5;stroke-linecap:round;stroke-linejoin:miter;stroke-miterlimit:4;stroke-dasharray:none;stroke-dashoffset:0;stroke-opacity:1;filter:url(#filter9446);color-rendering:auto;image-rendering:auto;shape-rendering:auto;text-rendering:auto;enable-background:accumulate" /><path
         sodipodi:nodetypes="cccccccccc"
         inkscape:connector-curvature="0"
         id="path8411"
         d="m 320.69947,279.30578 c -2.30667,0.25193 -5.55002,2.74835 -7.90913,2.88438 -4.39755,0.64283 -9.96593,-0.89292 -14.3607,-1.02911 -7.44153,-0.19768 -11.58941,3.36702 -18.49293,5.78217 -1.74597,0.9257 0.05,2.18028 2.0056,2.46446 1.59957,0.1379 4.15708,-0.89902 5.67568,-1.26964 4.12399,-1.46838 7.77184,-2.63303 12.1793,-2.02329 5.82477,1.08834 9.57118,1.6276 15.28231,0.65896 1.86369,-0.57465 3.65164,-2.55073 5.32809,-3.48469 1.51675,-1.31848 2.30214,-4.04311 0.29178,-3.98324 z"
         style="color:#000000;font-style:normal;font-variant:normal;font-weight:normal;font-stretch:normal;font-size:medium;line-height:normal;font-family:sans-serif;text-indent:0;text-align:start;text-decoration:none;text-decoration-line:none;text-decoration-style:solid;text-decoration-color:#000000;letter-spacing:normal;word-spacing:normal;text-transform:none;writing-mode:lr-tb;direction:ltr;baseline-shift:baseline;text-anchor:start;white-space:normal;clip-rule:nonzero;display:inline;overflow:visible;visibility:visible;opacity:1;isolation:auto;mix-blend-mode:normal;color-interpolation:sRGB;color-interpolation-filters:linearRGB;solid-color:#000000;solid-opacity:1;fill:#00007e;fill-opacity:1;fill-rule:evenodd;stroke:none;stroke-width:4.5;stroke-linecap:round;stroke-linejoin:miter;stroke-miterlimit:4;stroke-dasharray:none;stroke-dashoffset:0;stroke-opacity:1;filter:url(#filter9446);color-rendering:auto;image-rendering:auto;shape-rendering:auto;text-rendering:auto;enable-background:accumulate" /></g><g
       id="g4397"
       inkscape:label="Earth"
       inkscape:groupmode="layer"
       style="display:inline"><path
         sodipodi:nodetypes="ccccc"
         inkscape:connector-curvature="0"
         id="path9283"
         d="m 292.03928,206.99016 c -1.76614,1.2025 -3.89969,5.27677 -5.24414,9.6875 -1.04233,2.81351 3.17744,4.37762 4.22071,1.56446 0.53628,-3.64672 2.38966,-8.29867 2.38966,-8.29867 0.55702,-1.43946 0.17605,-2.89237 -1.36623,-2.95329 z"
         style="color:#000000;font-style:normal;font-variant:normal;font-weight:normal;font-stretch:normal;font-size:medium;line-height:normal;font-family:sans-serif;text-indent:0;text-align:start;text-decoration:none;text-decoration-line:none;text-decoration-style:solid;text-decoration-color:#000000;letter-spacing:normal;word-spacing:normal;text-transform:none;writing-mode:lr-tb;direction:ltr;baseline-shift:baseline;text-anchor:start;white-space:normal;clip-rule:nonzero;display:inline;overflow:visible;visibility:visible;opacity:1;isolation:auto;mix-blend-mode:normal;color-interpolation:sRGB;color-interpolation-filters:linearRGB;solid-color:#000000;solid-opacity:1;fill:#004c00;fill-opacity:1;fill-rule:evenodd;stroke:none;stroke-width:4.5;stroke-linecap:round;stroke-linejoin:round;stroke-miterlimit:4;stroke-dasharray:none;stroke-dashoffset:0;stroke-opacity:1;filter:url(#filter9446);color-rendering:auto;image-rendering:auto;shape-rendering:auto;text-rendering:auto;enable-background:accumulate" /><path
         sodipodi:nodetypes="ccccc"
         inkscape:connector-curvature="0"
         id="path9285"
         d="m 299.69122,208.50447 c -1.24188,0.0183 -2.23406,1.25387 -2.2168,2.49576 l -0.64354,11.39006 c -0.043,3.04273 4.32852,0.68309 4.28548,-2.35964 -0.29494,-2.45976 0.61166,-7.70971 -1.42514,-11.52618 z"
         style="color:#000000;font-style:normal;font-variant:normal;font-weight:normal;font-stretch:normal;font-size:medium;line-height:normal;font-family:sans-serif;text-indent:0;text-align:start;text-decoration:none;text-decoration-line:none;text-decoration-style:solid;text-decoration-color:#000000;letter-spacing:normal;word-spacing:normal;text-transform:none;writing-mode:lr-tb;direction:ltr;baseline-shift:baseline;text-anchor:start;white-space:normal;clip-rule:nonzero;display:inline;overflow:visible;visibility:visible;opacity:1;isolation:auto;mix-blend-mode:normal;color-interpolation:sRGB;color-interpolation-filters:linearRGB;solid-color:#000000;solid-opacity:1;fill:#004c00;fill-opacity:1;fill-rule:evenodd;stroke:none;stroke-width:4.5;stroke-linecap:round;stroke-linejoin:round;stroke-miterlimit:4;stroke-dasharray:none;stroke-dashoffset:0;stroke-opacity:1;filter:url(#filter9446);color-rendering:auto;image-rendering:auto;shape-rendering:auto;text-rendering:auto;enable-background:accumulate" /><path
         sodipodi:nodetypes="cccscc"
         inkscape:connector-curvature="0"
         id="path9287"
         d="m 305.30937,207.14581 c -1.70622,0.0862 -1.73256,0.89494 -0.83938,2.35126 0,0 3.40403,6.16758 4.58385,10.02881 1.50948,2.66303 6.25738,2.19611 4.72719,-1.22432 -1.82336,-4.07574 -6.40721,-10.03075 -6.40721,-10.03075 -0.42196,-0.73326 -1.21953,-1.1679 -2.06445,-1.125 z"
         style="color:#000000;font-style:normal;font-variant:normal;font-weight:normal;font-stretch:normal;font-size:medium;line-height:normal;font-family:sans-serif;text-indent:0;text-align:start;text-decoration:none;text-decoration-line:none;text-decoration-style:solid;text-decoration-color:#000000;letter-spacing:normal;word-spacing:normal;text-transform:none;writing-mode:lr-tb;direction:ltr;baseline-shift:baseline;text-anchor:start;white-space:normal;clip-rule:nonzero;display:inline;overflow:visible;visibility:visible;opacity:1;isolation:auto;mix-blend-mode:normal;color-interpolation:sRGB;color-interpolation-filters:linearRGB;solid-color:#000000;solid-opacity:1;fill:#004c00;fill-opacity:1;fill-rule:evenodd;stroke:none;stroke-width:4.5;stroke-linecap:round;stroke-linejoin:round;stroke-miterlimit:4;stroke-dasharray:none;stroke-dashoffset:0;stroke-opacity:1;filter:url(#filter9446);color-rendering:auto;image-rendering:auto;shape-rendering:auto;text-rendering:auto;enable-background:accumulate" /><path
         sodipodi:nodetypes="ccccccccc"
         inkscape:connector-curvature="0"
         id="path9237"
         d="m 278.58841,188.40003 c -0.7353,0.0173 -4.2044,3.28883 -4.61093,3.90178 -2.30582,3.47722 -3.83023,5.43548 -6.3757,9.2489 -1.66453,2.49592 1.43507,3.06269 3.1006,0.56744 1.9411,-2.908 6.43135,-8.02229 7.85383,-8.52656 0,0 4.67526,3.61461 6.2249,4.50133 2.60888,1.51447 5.6142,-0.0586 2.98907,-1.54466 0.35219,0.202 -2.26884,-1.88692 -3.32123,-3.25973 -1.48005,-1.84578 -4.05702,-4.20408 -5.86054,-4.8885 z"
         style="color:#000000;font-style:normal;font-variant:normal;font-weight:normal;font-stretch:normal;font-size:medium;line-height:normal;font-family:sans-serif;text-indent:0;text-align:start;text-decoration:none;text-decoration-line:none;text-decoration-style:solid;text-decoration-color:#000000;letter-spacing:normal;word-spacing:normal;text-transform:none;writing-mode:lr-tb;direction:ltr;baseline-shift:baseline;text-anchor:start;white-space:normal;clip-rule:nonzero;display:inline;overflow:visible;visibility:visible;opacity:1;isolation:auto;mix-blend-mode:normal;color-interpolation:sRGB;color-interpolation-filters:linearRGB;solid-color:#000000;solid-opacity:1;fill:#004c00;fill-opacity:1;fill-rule:evenodd;stroke:none;stroke-width:4.5;stroke-linecap:round;stroke-linejoin:round;stroke-miterlimit:4;stroke-dasharray:none;stroke-dashoffset:0;stroke-opacity:1;filter:url(#filter9446);color-rendering:auto;image-rendering:auto;shape-rendering:auto;text-rendering:auto;enable-background:accumulate" /><path
         sodipodi:nodetypes="ccscccccscccccsccccc"
         inkscape:connector-curvature="0"
         id="path9239"
         d="m 299.40257,181.66595 c -0.50305,0.0252 -0.98309,0.21846 -1.36329,0.54882 -2.42687,2.10718 -4.33784,5.49414 -6.32862,8.70899 -1.98533,3.20605 -5.75777,8.47897 -6.28787,9.27599 -5.32818,5.98219 -7.41497,11.69385 -13.75049,18.4131 -1.96094,2.27083 2.08885,2.53082 4.04979,0.25999 6.29262,-7.29089 7.89517,-9.709 12.80292,-15.14496 0.0733,-0.0816 2.60744,-2.95705 3.63339,-4.44276 0.91183,-1.36599 1.14455,-2.9044 3.05667,-5.99222 1.30051,-2.10017 2.81587,-4.68505 4.01367,-5.31886 1.54953,1.70978 3.96352,4.03035 6.13378,8.89088 1.82198,2.59687 5.06443,6.47082 5.6005,7.2741 1.66466,2.55908 5.31742,7.21734 5.65912,7.8935 1.35263,2.67911 1.93897,-1.17403 1.01441,-4.38894 -0.71242,-1.40972 -1.23105,-3.38885 -2.90205,-5.95769 -1.671,-2.56883 -3.78371,-4.55609 -4.2171,-5.33305 l -1.73355,-2.93075 c -1.49462,-3.57419 -4.04795,-4.91858 -7.31691,-10.62724 -0.42092,-0.73477 -1.21871,-1.17102 -2.06445,-1.1289 z"
         style="color:#000000;font-style:normal;font-variant:normal;font-weight:normal;font-stretch:normal;font-size:medium;line-height:normal;font-family:sans-serif;text-indent:0;text-align:start;text-decoration:none;text-decoration-line:none;text-decoration-style:solid;text-decoration-color:#000000;letter-spacing:normal;word-spacing:normal;text-transform:none;writing-mode:lr-tb;direction:ltr;baseline-shift:baseline;text-anchor:start;white-space:normal;clip-rule:nonzero;display:inline;overflow:visible;visibility:visible;opacity:1;isolation:auto;mix-blend-mode:normal;color-interpolation:sRGB;color-interpolation-filters:linearRGB;solid-color:#000000;solid-opacity:1;fill:#004c00;fill-opacity:1;fill-rule:evenodd;stroke:none;stroke-width:4.5;stroke-linecap:round;stroke-linejoin:round;stroke-miterlimit:4;stroke-dasharray:none;stroke-dashoffset:0;stroke-opacity:1;filter:url(#filter9446);color-rendering:auto;image-rendering:auto;shape-rendering:auto;text-rendering:auto;enable-background:accumulate" /></g><g
       id="g4380"
       inkscape:groupmode="layer"
       inkscape:label="Fire"
       style="display:inline"><path
         sodipodi:nodetypes="ccssssccsscccssscssscccssssccssccccsscsccsssscssscccscscssscccssccc"
         inkscape:connector-curvature="0"
         id="path9250"
         d="m 287.24901,101.06958 c -0.64354,0.69716 0.0714,2.14763 0.0714,2.14763 0,0 0.55185,2.37214 0.75843,4.54618 0.20659,2.17404 -0.0378,3.98798 -0.17022,5.27121 -0.21324,2.06596 -1.95026,5.96682 -3.28642,8.1392 -1.33616,2.17237 -2.19347,4.3801 -2.30243,7.06973 -0.0223,0.55126 0.17044,1.61314 0.25358,2.13246 -1.50437,1.76498 -3.13649,2.63382 -4.67579,3.09375 -2.07253,0.61947 -5.30101,2.30797 -8.08852,5.06277 -2.22249,2.19641 -3.11159,4.23435 -3.85907,7.06451 -0.74749,2.83017 -1.21306,5.15441 -0.93594,7.23275 0,0 0.0289,2.43353 0.77968,3.1307 1.01893,0.21451 2.55503,-0.95753 2.55503,-0.95753 3.1676,-2.40708 6.08306,-4.67688 8.56877,-5.48761 2.70803,-0.88325 5.56997,-0.59913 7.42537,0.003 2.43757,0.79138 5.07675,0.43601 7.63086,-0.15625 1.75956,-0.40802 2.93739,-1.34497 4.23186,-2.5433 1.72356,1.41363 2.77621,1.68436 4.00821,2.68074 1.51302,1.22367 3.25735,2.36974 5.94352,3.11842 2.80535,0.78189 6.01463,0.84546 8.99219,0.42773 2.97755,-0.41773 5.70224,-1.19564 7.63867,-2.9707 0,0 1.66343,-1.23799 1.50254,-1.93515 -0.37564,-0.63882 -2.02436,-1.32074 -2.02436,-1.32074 0,0 -1.83025,-0.75564 -3.88996,-1.97265 -2.05971,-1.21704 -3.65008,-3.3477 -5.02999,-4.65331 -1.6333,-1.54536 -2.06831,-3.62018 -2.78284,-5.72362 -0.71077,-2.09239 -1.60086,-4.78144 -4.34961,-6.69727 -1.31692,-0.91786 -2.59747,-1.70064 -3.96875,-2.23828 -0.32734,-1.50008 -0.31121,-2.89988 -0.13507,-4.43879 0.53962,-2.8161 -0.28736,-6.5882 -1.27327,-9.29702 -1.04011,-2.85773 -3.1895,-4.33553 -4.58319,-5.89194 -1.48506,-1.65845 -3.56485,-3.46995 -5.66733,-4.31095 0,0 -1.29946,-0.5793 -3.33733,-0.52567 z m 4.47715,5.8549 c 0.49831,0.41112 2.0104,1.44244 2.76207,2.24067 1.75757,1.86644 3.23372,4.53046 3.54048,6.51195 0.29872,1.92953 -0.0507,3.63254 -0.25797,5.44286 -0.13334,1.16501 0.018,2.45375 0.46432,3.68571 -0.35581,0.0206 -1.24569,0.0523 -1.61292,0.10547 -1.22544,0.17753 -2.52004,0.53511 -3.91601,1.0586 -2.89087,1.01546 -0.65882,1.6327 2.26266,1.3309 2.28051,-0.12522 4.42276,1.08875 5.83067,1.76026 1.15057,0.54878 3.03142,1.93023 3.60063,2.93387 1.1089,1.95521 2.59211,4.33643 2.8076,5.40292 0.39023,1.93127 1.10468,3.78826 3.15006,6.35682 1.84431,2.31606 4.20223,3.10458 6.46617,4.44765 -0.20222,0.66695 -2.03074,1.21656 -2.6028,1.29682 -2.44038,0.34237 -5.07212,-0.23197 -6.85484,-1.21479 -1.94759,-1.07371 -3.25658,-1.07108 -4.89236,-2.17717 -1.07414,-0.72632 -2.53248,-1.23412 -3.28269,-2.75364 0.98947,-2.31732 2.06345,-4.4314 2.4563,-6.69028 0.62494,-3.03096 -2.32705,-0.0432 -3.59738,2.26218 -1.34951,3.05746 -3.53484,5.4073 -6.82388,6.57601 -2.1296,0.75672 -3.95716,0.0463 -5.93421,-0.38116 -1.97703,-0.42738 -4.74167,-0.90022 -8.32812,0.26953 -2.4664,0.80443 -5.70038,1.727 -8.04512,4.49157 -0.25626,-1.42864 0.43116,-2.88637 0.64648,-3.58163 0.70802,-2.2861 2.74177,-4.59831 4.09035,-5.93107 2.05301,-2.02892 4.61944,-2.63372 6.74442,-3.26887 1.57061,-0.46945 2.24348,-0.43339 3.87832,-1.88578 1.19767,2.07265 2.88979,3.78446 4.89649,5.16406 2.47255,1.69995 1.89499,-1.16784 -0.48289,-3.93651 -1.55071,-1.80557 -2.11148,-3.38258 -2.33316,-7.31418 -0.11303,-2.00463 0.81831,-4.20231 2.09537,-6.27861 1.65628,-2.4555 3.0526,-4.61973 3.40006,-7.986 0.20849,-2.6641 0.40821,-6.10123 -0.1281,-7.93816 z"
         style="color:#000000;font-style:normal;font-variant:normal;font-weight:normal;font-stretch:normal;font-size:medium;line-height:normal;font-family:sans-serif;text-indent:0;text-align:start;text-decoration:none;text-decoration-line:none;text-decoration-style:solid;text-decoration-color:#000000;letter-spacing:normal;word-spacing:normal;text-transform:none;writing-mode:lr-tb;direction:ltr;baseline-shift:baseline;text-anchor:start;white-space:normal;clip-rule:nonzero;display:inline;overflow:visible;visibility:visible;opacity:0.69899998;isolation:auto;mix-blend-mode:normal;color-interpolation:sRGB;color-interpolation-filters:linearRGB;solid-color:#000000;solid-opacity:1;fill:#860000;fill-opacity:0.9745098;fill-rule:evenodd;stroke:none;stroke-width:4.5;stroke-linecap:round;stroke-linejoin:miter;stroke-miterlimit:4;stroke-dasharray:none;stroke-dashoffset:0;stroke-opacity:1;filter:url(#filter9446);color-rendering:auto;image-rendering:auto;shape-rendering:auto;text-rendering:auto;enable-background:accumulate" /></g><g
       id="g4377"
       inkscape:groupmode="layer"
       inkscape:label="Air"
       style="display:inline"><path
         sodipodi:nodetypes="csssssssccsssccssscccccsccscscccsccsccsssssssccsc"
         inkscape:connector-curvature="0"
         id="path8439"
         d="m 302.97105,34.952429 c -2.16402,-0.8284 -3.9519,-0.99856 -5.87013,-0.70145 -3.36627,0.52139 -8.04819,1.60863 -11.79423,3.41656 -4.04421,1.95184 -4.97919,3.43786 -8.29607,5.40439 -3.09009,1.83206 -6.21891,3.10498 -8.67834,5.89178 -1.22481,1.38784 -0.14531,2.45627 0.58855,2.20785 4.04323,-1.36867 5.96167,-3.07787 8.41835,-4.65429 2.26034,-1.45044 1.4983,0.1591 5.6097,-2.75252 3.60063,-2.54991 4.31189,-2.96395 6.19587,-3.35206 1.03959,-0.46928 2.11768,-0.9525 3.39564,-1.38115 2.99741,-0.81841 3.38181,-0.58783 7.11477,-0.27515 3.05917,0.25624 6.21552,1.46472 7.57776,2.84244 1.53658,1.55403 4.78665,1.8127 7.75363,8.15531 1.21998,2.60799 1.59561,5.29271 1.34571,7.95703 0.2661,2.05534 1.43491,2.82674 -0.012,9.04492 -1.07426,3.88605 -4.08337,7.53559 -7.94532,9.23828 -4.51384,1.99011 -9.72023,2.33631 -14.19921,1.19727 -4.31442,-1.0972 -8.99174,-5.00508 -9.89255,-9.17996 -0.87827,-4.07043 -1.564,-7.60679 -1.72857,-10.84153 0.35166,-3.99309 4.22352,-3.90769 7.63791,-6.6723 2.33727,-1.00332 3.9923,-2.663 7.20288,-2.663 2.74945,0.40006 5.69059,2.15451 6.7562,4.08005 2.28373,2.31721 3.32408,5.31496 2.61025,9.13339 0.10873,1.92351 -3.15649,5.13369 -5.04286,5.48368 -2.3545,0.43684 -5.31298,-1.52296 -6.77567,-2.25803 -1.39611,-0.4218 -1.30359,-1.00344 -0.72586,-3.17402 0.69608,-1.05513 2.00902,-1.71771 2.80422,-2.24703 0.9617,-0.64015 1.03664,-1.9396 0.76954,-2.98852 -0.58508,-0.87154 -1.16457,-1.48311 -2.57907,-1.0196 -0.96592,0.31652 -2.75435,0.51256 -3.16951,0.92221 -0.67499,0.65674 -2.52925,1.72885 -3.04126,2.48143 -0.48514,1.75438 0.50199,3.68043 0.68579,5.1875 0.23726,1.7865 1.20702,3.84658 3.24415,4.86328 3.07144,1.53291 6.88351,2.30295 9.25093,2.18613 2.89121,-0.3233 8.55766,-2.89879 8.61644,-9.00849 -0.15355,-2.8792 -1.67895,-8.6497 -3.74823,-12.44325 -2.10401,-3.85721 -5.08264,-5.50215 -9.30932,-5.47107 -2.15208,0.19742 -5.2721,0.46643 -9.80439,3.24208 -5.2349,2.09616 -6.0427,2.96843 -9.65488,7.17711 -2.35407,2.74279 -0.29937,7.74981 -0.29937,7.74981 1.66337,3.75798 0.85898,4.20056 2.50553,8.56764 2.1542,5.71353 6.96147,9.97412 12.49609,11.24024 4.47407,1.0235 15.01795,-0.8329 17.30471,-1.39255 6.49182,-1.58879 8.63642,-4.62508 10.53125,-12.54688 1.25967,-5.26636 0.30251,-9.82479 0.0778,-11.65157 -0.2849,-2.31648 -1.0879,-6.15195 -1.72646,-7.85819 -1.46974,-3.56177 -6.22726,-7.07122 -10.05997,-10.5856 -3.56795,-3.18868 -2.76595,-1.2604 -6.14044,-2.55217 z"
         style="color:#000000;font-style:normal;font-variant:normal;font-weight:normal;font-stretch:normal;font-size:medium;line-height:normal;font-family:sans-serif;text-indent:0;text-align:start;text-decoration:none;text-decoration-line:none;text-decoration-style:solid;text-decoration-color:#000000;letter-spacing:normal;word-spacing:normal;text-transform:none;writing-mode:lr-tb;direction:ltr;baseline-shift:baseline;text-anchor:start;white-space:normal;clip-rule:nonzero;display:inline;overflow:visible;visibility:visible;opacity:1;isolation:auto;mix-blend-mode:normal;color-interpolation:sRGB;color-interpolation-filters:linearRGB;solid-color:#000000;solid-opacity:1;fill:#303030;fill-opacity:1;fill-rule:evenodd;stroke:none;stroke-width:4.5;stroke-linecap:round;stroke-linejoin:miter;stroke-miterlimit:4;stroke-dasharray:none;stroke-dashoffset:0;stroke-opacity:1;filter:url(#filter9446);color-rendering:auto;image-rendering:auto;shape-rendering:auto;text-rendering:auto;enable-background:accumulate" /></g></g><g
     inkscape:groupmode="layer"
     id="layer4"
     inkscape:label="Boxes - Master"
     style="display:inline"><g
       id="g4458"
       inkscape:groupmode="layer"
       inkscape:label="Box6"
       style="display:inline"><rect
         y="40.198402"
         x="229.05318"
         height="76.5"
         width="76.5"
         id="rect4581-2"
         style="display:inline;fill:#ffffff;fill-opacity:0.50476194;stroke:none;stroke-width:1.79999995;stroke-linecap:round;stroke-miterlimit:4;stroke-dasharray:none;stroke-opacity:1"
         transform="rotate(90)" /><rect
         transform="rotate(90,105.15123,26.866605)"
         y="172.21623"
         x="307.3378"
         height="76.5"
         width="76.5"
         id="rect8400"
         style="display:inline;fill:none;fill-opacity:1;stroke:#000000;stroke-width:1.79999995;stroke-linecap:round;stroke-miterlimit:4;stroke-dasharray:none;stroke-opacity:1;filter:url(#filter9118)" /></g><g
       id="g4455"
       inkscape:groupmode="layer"
       inkscape:label="Box5"
       style="display:inline"><rect
         y="139.20158"
         x="229.05318"
         height="76.5"
         width="76.5"
         id="rect4581-39"
         style="display:inline;fill:#ffffff;fill-opacity:0.50476194;stroke:none;stroke-width:1.79999995;stroke-linecap:round;stroke-miterlimit:4;stroke-dasharray:none;stroke-opacity:1"
         transform="rotate(90)" /><rect
         transform="rotate(90,105.15123,26.866605)"
         y="271.21942"
         x="307.3378"
         height="76.5"
         width="76.5"
         id="rect8404"
         style="display:inline;fill:none;fill-opacity:1;stroke:#000000;stroke-width:1.79999995;stroke-linecap:round;stroke-miterlimit:4;stroke-dasharray:none;stroke-opacity:1;filter:url(#filter9118)" /></g><g
       id="g4449"
       inkscape:groupmode="layer"
       inkscape:label="Box4"
       style="display:inline"><rect
         y="40.198402"
         x="130.05"
         height="76.5"
         width="76.5"
         id="rect4581-4"
         style="display:inline;fill:#ffffff;fill-opacity:0.50476194;stroke:none;stroke-width:1.79999995;stroke-linecap:round;stroke-miterlimit:4;stroke-dasharray:none;stroke-opacity:1"
         transform="rotate(90)" /><rect
         transform="rotate(90,105.15123,26.866605)"
         style="display:inline;fill:none;fill-opacity:1;stroke:#000000;stroke-width:1.79999995;stroke-linecap:round;stroke-miterlimit:4;stroke-dasharray:none;stroke-opacity:1;filter:url(#filter9118)"
         id="rect8398"
         width="76.5"
         height="76.5"
         x="208.33463"
         y="172.21623" /></g><g
       id="g4452"
       inkscape:groupmode="layer"
       inkscape:label="Box3"
       style="display:inline"><rect
         y="139.20158"
         x="130.05"
         height="76.5"
         width="76.5"
         id="rect4581-3"
         style="display:inline;fill:#ffffff;fill-opacity:0.50476194;stroke:none;stroke-width:1.79999995;stroke-linecap:round;stroke-miterlimit:4;stroke-dasharray:none;stroke-opacity:1"
         transform="rotate(90)" /><rect
         transform="rotate(90,105.15123,26.866605)"
         style="display:inline;fill:none;fill-opacity:1;stroke:#000000;stroke-width:1.79999995;stroke-linecap:round;stroke-miterlimit:4;stroke-dasharray:none;stroke-opacity:1;filter:url(#filter9118)"
         id="rect8402"
         width="76.5"
         height="76.5"
         x="208.33463"
         y="271.21942" /></g><g
       id="g4446"
       inkscape:groupmode="layer"
       inkscape:label="Box2"
       style="display:inline"><rect
         y="40.198402"
         x="31.046906"
         height="76.5"
         width="76.5"
         id="rect4581"
         style="display:inline;fill:#ffffff;fill-opacity:0.50476194;stroke:none;stroke-width:1.79999995;stroke-linecap:round;stroke-miterlimit:4;stroke-dasharray:none;stroke-opacity:1"
         transform="rotate(90)" /><rect
         transform="rotate(90,105.15123,26.866605)"
         y="172.21623"
         x="109.33153"
         height="76.5"
         width="76.5"
         id="rect9396"
         style="display:inline;fill:none;fill-opacity:1;stroke:#000000;stroke-width:1.79999995;stroke-linecap:round;stroke-miterlimit:4;stroke-dasharray:none;stroke-opacity:1;filter:url(#filter9118)" /></g><g
       id="g4443"
       inkscape:groupmode="layer"
       inkscape:label="Box1"
       style="display:inline"><rect
         transform="rotate(90)"
         style="display:inline;fill:#ffffff;fill-opacity:0.50476194;stroke:none;stroke-width:1.79999995;stroke-linecap:round;stroke-miterlimit:4;stroke-dasharray:none;stroke-opacity:1"
         id="rect4583"
         width="76.5"
         height="76.5"
         x="31.046829"
         y="139.20158" /><rect
         transform="rotate(90,105.15123,26.866605)"
         style="display:inline;fill:none;fill-opacity:1;stroke:#000000;stroke-width:1.79999995;stroke-linecap:round;stroke-miterlimit:4;stroke-dasharray:none;stroke-opacity:1;filter:url(#filter9118)"
         id="rect8396"
         width="76.5"
         height="76.5"
         x="109.33145"
         y="271.21942" /></g></g><g
     inkscape:groupmode="layer"
     id="layer7"
     inkscape:label="Rift"
     style="display:none"><path
       transform="rotate(90)"
       style="display:inline;fill:url(#linearGradient4661);fill-opacity:1;stroke:none;stroke-width:1.79999995;stroke-linecap:round;stroke-miterlimit:4;stroke-dasharray:none;stroke-opacity:1"
       d="m 31.046829,-100.79842 37.002013,1.247987 17.925636,1.247988 3.298253,20.996979 18.630669,19.214141 -0.35657,33.792901 H 31.046829 Z"
       id="rect4452"
       inkscape:connector-curvature="0"
       sodipodi:nodetypes="cccccccc" /><path
       transform="rotate(90,225.15123,146.8666)"
       style="display:inline;fill:none;fill-opacity:1;stroke:#000000;stroke-width:1.79999995;stroke-linecap:round;stroke-miterlimit:4;stroke-dasharray:none;stroke-opacity:1;filter:url(#filter9118)"
       d="m 179.60726,304.60394 c 7.31181,-4.28624 7.23272,19.16299 6.22419,43.11548 h -76.5 v -76.5 c 29.75152,-3.02558 45.14303,6.74638 54.21976,1.95588"
       id="rect4208"
       inkscape:connector-curvature="0"
       sodipodi:nodetypes="ccccc" /><path
       transform="rotate(90)"
       style="display:inline;fill:url(#linearGradient4653);fill-opacity:1;stroke:none;stroke-width:1.79999995;stroke-linecap:round;stroke-miterlimit:4;stroke-dasharray:none;stroke-opacity:1"
       d="m 31.046906,-199.80161 h 76.500004 l -0.71314,35.75403 1.96113,28.2661 -13.642772,1.0697 -10.077095,8.91419 -54.028127,2.49598 z"
       id="rect4458"
       inkscape:connector-curvature="0"
       sodipodi:nodetypes="cccccccc" /><path
       transform="rotate(90,225.15123,146.8666)"
       style="display:inline;fill:none;fill-opacity:1;stroke:#000000;stroke-width:1.79999995;stroke-linecap:round;stroke-miterlimit:4;stroke-dasharray:none;stroke-opacity:1;filter:url(#filter9118)"
       d="m 167.1738,247.70771 c -7.56394,-5.04263 -57.84227,1.00852 -57.84227,1.00852 v -76.5 h 76.5 c 0,0 -3.27771,54.81669 2.01705,65.15409"
       id="rect4212"
       inkscape:connector-curvature="0"
       sodipodi:nodetypes="ccccc" /><path
       style="display:inline;fill:url(#linearGradient4597);fill-opacity:1;stroke:none;stroke-width:1.79999995;stroke-linecap:round;stroke-miterlimit:4;stroke-dasharray:none;stroke-opacity:1"
       d="m 80.295772,145.73898 -2.674259,29.51409 6.239936,26.66155 -27.909531,3.92224 -31.653494,0.71314 v -76.5 l 45.737922,2.13941 z"
       id="rect4463"
       inkscape:connector-curvature="0"
       sodipodi:nodetypes="cccccccc" /><path
       transform="rotate(90,225.15123,146.8666)"
       style="display:inline;fill:none;fill-opacity:1;stroke:#000000;stroke-width:1.79999995;stroke-linecap:round;stroke-miterlimit:4;stroke-dasharray:none;stroke-opacity:1;filter:url(#filter9118)"
       d="m 278.76555,287.31565 c 6.80755,2.01705 6.06908,60.40377 6.06908,60.40377 h -76.5 c 0,0 -1.15488,-47.55256 5.16776,-53.05687 4.07242,-3.54532 12.16442,-5.34098 12.79475,-0.92868"
       id="rect4222"
       inkscape:connector-curvature="0"
       sodipodi:nodetypes="cccsc" /><path
       transform="rotate(90)"
       style="display:inline;fill:url(#linearGradient4607);fill-opacity:1;stroke:none;stroke-width:1.79999995;stroke-linecap:round;stroke-miterlimit:4;stroke-dasharray:none;stroke-opacity:1"
       d="m 130.05,-199.80161 h 76.5 v 35.93231 l -9.80561,16.85593 -27.46382,3.56568 -24.78957,6.59651 -13.19301,-18.10393 z"
       id="rect4469"
       inkscape:connector-curvature="0"
       sodipodi:nodetypes="cccccccc" /><path
       transform="rotate(90,225.15123,146.8666)"
       style="display:inline;fill:none;fill-opacity:1;stroke:#000000;stroke-width:1.79999995;stroke-linecap:round;stroke-miterlimit:4;stroke-dasharray:none;stroke-opacity:1;filter:url(#filter9118)"
       d="m 221.44547,233.3362 c -5.29476,0.7564 -11.47198,-5.95112 -11.66108,-12.15438 -0.44274,-14.52356 -1.44976,-48.96559 -1.44976,-48.96559 h 76.5 c 0.75639,40.34104 0,45.73995 -9.581,52.79964"
       id="rect4229"
       inkscape:connector-curvature="0"
       sodipodi:nodetypes="csccc" /><path
       transform="rotate(90)"
       style="display:inline;fill:url(#linearGradient4645);fill-opacity:1;stroke:none;stroke-width:1.79999995;stroke-linecap:round;stroke-miterlimit:4;stroke-dasharray:none;stroke-opacity:1"
       d="m 247.05985,-102.75954 58.49333,1.96112 v 76.499996 h -76.5 l -1.42627,-62.853176 11.67759,-4.060008 z"
       id="rect4476"
       inkscape:connector-curvature="0"
       sodipodi:nodetypes="ccccccc" /><path
       transform="rotate(90,225.15123,146.8666)"
       style="display:inline;fill:none;fill-opacity:1;stroke:#000000;stroke-width:1.79999995;stroke-linecap:round;stroke-miterlimit:4;stroke-dasharray:none;stroke-opacity:1;filter:url(#filter9118)"
       d="m 325.7434,268.6981 c 7.81607,6.80756 58.0944,2.52132 58.0944,2.52132 v 76.5 h -76.5 c 0,0 4.7905,-47.50487 -6.05116,-65.91047"
       id="rect4236"
       inkscape:connector-curvature="0"
       sodipodi:nodetypes="ccccc" /><path
       transform="rotate(90)"
       style="display:inline;fill:url(#linearGradient4637);fill-opacity:1;stroke:none;stroke-width:1.79999995;stroke-linecap:round;stroke-miterlimit:4;stroke-dasharray:none;stroke-opacity:1"
       d="m 229.05318,-199.80161 h 76.5 v 76.5 l -48.33114,1.42627 -7.93364,-27.4152 -19.87865,-18.50101 z"
       id="rect4484"
       inkscape:connector-curvature="0"
       sodipodi:nodetypes="ccccccc" /><path
       sodipodi:nodetypes="cccccccscccccscsccc"
       inkscape:connector-curvature="0"
       id="path4438"
       d="m 91.85947,95.998009 c 5.3308,3.167026 14.28455,9.564961 18.74368,7.122021 -0.53282,3.79699 6.74292,13.31077 11.75331,12.71905 -3.19547,7.45674 -1.58605,17.10102 3.94075,22.27126 -2.31769,2.49597 -0.59916,13.75494 0.44999,20.14304 -3.57813,4.47599 -2.2079,17.65663 1.66124,17.57512 -2.27772,4.61588 -2.74912,24.46928 2.92982,29.78522 -3.64728,2.90108 -0.28446,13.12712 1.51311,17.3818 2.26544,5.36211 7.2236,13.59029 8.43771,19.21066 -10.26182,-5.26887 -21.16146,-12.35926 -24.97292,-13.17057 1.28067,-5.02391 -6.47401,-17.13933 -12.82403,-21.2359 4.55622,-3.82463 -4.17473,-15.85918 -7.24977,-22.72139 1.0255,-5.61423 3.24982,-14.61374 -1.30481,-17.71682 4.77958,-2.81788 4.24381,-10.84371 4.35209,-14.02397 0.10828,-3.18025 -0.11453,-10.18909 -4.7658,-12.57058 3.72808,-0.0638 6.4151,-3.8796 5.92483,-7.092 -0.49027,-3.21239 -1.12702,-8.85221 -4.75961,-9.8898 -1.7758,-8.04417 -3.8653,-9.53641 -9.70016,-13.26998 6.11806,-2.17068 6.69012,-10.38944 5.87057,-14.517161 z"
       style="fill:#000000;fill-opacity:1;fill-rule:evenodd;stroke:#000000;stroke-width:1px;stroke-linecap:butt;stroke-linejoin:miter;stroke-opacity:1;filter:url(#filter4837)" /><path
       transform="rotate(90,225.15123,146.8666)"
       style="display:inline;fill:none;fill-opacity:1;stroke:#000000;stroke-width:1.79999995;stroke-linecap:round;stroke-miterlimit:4;stroke-dasharray:none;stroke-opacity:1;filter:url(#filter9118)"
       d="m 316.41453,207.36666 c -15.38002,3.78198 -10.33739,-21.2832 -9.07673,-35.15043 h 76.5 v 76.5 c 0,0 -42.46225,-6.05116 -50.02619,3.27771"
       id="rect4244"
       inkscape:connector-curvature="0"
       sodipodi:nodetypes="ccccc" /><path
       style="fill:#000000;fill-opacity:0.44761909;fill-rule:evenodd;stroke:#000000;stroke-width:1px;stroke-linecap:butt;stroke-linejoin:miter;stroke-opacity:1;filter:url(#filter4797)"
       d="m 91.85947,95.998009 c 5.3308,3.167026 14.28455,9.564961 18.74368,7.122021 -0.53282,3.79699 6.74292,13.31077 11.75331,12.71905 -3.19547,7.45674 -1.58605,17.10102 3.94075,22.27126 -2.31769,2.49597 -0.59916,13.75494 0.44999,20.14304 -3.57813,4.47599 -2.2079,17.65663 1.66124,17.57512 -2.27772,4.61588 -2.74912,24.46928 2.92982,29.78522 -3.64728,2.90108 -0.28446,13.12712 1.51311,17.3818 2.26544,5.36211 7.2236,13.59029 8.43771,19.21066 -10.26182,-5.26887 -21.16146,-12.35926 -24.97292,-13.17057 1.28067,-5.02391 -6.47401,-17.13933 -12.82403,-21.2359 4.55622,-3.82463 -4.17473,-15.85918 -7.24977,-22.72139 1.0255,-5.61423 3.24982,-14.61374 -1.30481,-17.71682 4.77958,-2.81788 4.24381,-10.84371 4.35209,-14.02397 0.10828,-3.18025 -0.11453,-10.18909 -4.7658,-12.57058 3.72808,-0.0638 6.4151,-3.8796 5.92483,-7.092 -0.49027,-3.21239 -1.12702,-8.85221 -4.75961,-9.8898 -1.7758,-8.04417 -3.8653,-9.53641 -9.70016,-13.26998 6.11806,-2.17068 6.69012,-10.38944 5.87057,-14.517161 z"
       id="path4711"
       inkscape:connector-curvature="0"
       sodipodi:nodetypes="cccccccscccccscsccc" /><path
       style="fill:#ff0a0f;fill-opacity:1;fill-rule:evenodd;stroke:none;stroke-width:1px;stroke-linecap:butt;stroke-linejoin:miter;stroke-opacity:1;filter:url(#filter4430)"
       d="m 98.709515,110.31232 7.118525,10.27059 3.96688,11.65732 -0.14062,4.36915 -4.01172,-1.08399 3.93164,3.59375 1.38601,9.60688 -2.14382,13.89312 -2.79493,-0.99805 3.0918,3.79102 2.60121,18.22123 -6.31836,2.00391 6.70313,0.15625 2.89097,12.66353 -4.05273,3.50391 4.54492,-1.51367 10.87305,24.74023 -7.22656,-21.84428 2.77681,-0.75125 -4.03037,-1.78977 -0.6566,-4.03072 -3.32999,-12.59162 -0.80868,-10.32244 4.53906,-1.89844 -4.82617,0.31446 -0.96875,-5.36328 1.08863,-16.41655 4.83203,-3.49609 -4.82227,1.36328 -0.92453,-18.49361 3.35156,-2.66211 -3.73438,1.34961 -4.87705,-9.81455 z"
       id="path4299"
       inkscape:connector-curvature="0"
       sodipodi:nodetypes="cccccccccccccccccccccccccccccccccc" /></g><g
     inkscape:groupmode="layer"
     id="layer5"
     inkscape:label="Card: Master"
     style="display:none"><use
       style="display:inline"
       x="0"
       y="0"
       xlink:href="#g4455"
       id="use4469"
       transform="translate(240)"
       width="100%"
       height="100%" /><use
       style="display:inline"
       x="0"
       y="0"
       xlink:href="#g4452"
       id="use4467"
       transform="translate(240)"
       width="100%"
       height="100%" /><use
       style="display:inline"
       x="0"
       y="0"
       xlink:href="#g4377"
       id="use4389"
       transform="rotate(90,123.42212,-2.895325)"
       width="100%"
       height="100%" /><use
       style="display:inline"
       x="0"
       y="0"
       xlink:href="#g4391"
       id="use4433"
       transform="rotate(90,181.22975,153.91549)"
       width="100%"
       height="100%" /><use
       style="display:inline"
       x="0"
       y="0"
       xlink:href="#g4458"
       id="use4465"
       transform="translate(240)"
       width="100%"
       height="100%" /><use
       style="display:inline"
       x="0"
       y="0"
       xlink:href="#g4449"
       id="use4463"
       transform="translate(240)"
       width="100%"
       height="100%" /><use
       style="display:inline"
       x="0"
       y="0"
       xlink:href="#g4380"
       id="use4387"
       transform="rotate(90,208.69345,82.37601)"
       width="100%"
       height="100%" /><use
       style="display:inline"
       x="0"
       y="0"
       xlink:href="#g4397"
       id="use4435"
       transform="rotate(90,194.9616,167.64734)"
       width="100%"
       height="100%" /><use
       style="display:inline"
       x="0"
       y="0"
       xlink:href="#g4446"
       id="use4471"
       transform="translate(240)"
       width="100%"
       height="100%" /><use
       style="display:inline"
       x="0"
       y="0"
       xlink:href="#g4443"
       id="use4461"
       transform="translate(240)"
       width="100%"
       height="100%" /></g><g
     style="display:none"
     inkscape:label="Blank - 6 boxes"
     id="g4239"
     inkscape:groupmode="layer"><use
       height="100%"
       width="100%"
       transform="translate(240)"
       id="use4241"
       xlink:href="#g4455"
       y="0"
       x="0"
       style="display:inline" /><use
       height="100%"
       width="100%"
       transform="translate(240)"
       id="use4243"
       xlink:href="#g4452"
       y="0"
       x="0"
       style="display:inline" /><use
       height="100%"
       width="100%"
       transform="translate(240)"
       id="use4249"
       xlink:href="#g4458"
       y="0"
       x="0"
       style="display:inline" /><use
       height="100%"
       width="100%"
       transform="translate(240)"
       id="use4251"
       xlink:href="#g4449"
       y="0"
       x="0"
       style="display:inline" /><use
       height="100%"
       width="100%"
       transform="translate(240)"
       id="use4257"
       xlink:href="#g4446"
       y="0"
       x="0"
       style="display:inline" /><use
       height="100%"
       width="100%"
       transform="translate(240)"
       id="use4259"
       xlink:href="#g4443"
       y="0"
       x="0"
       style="display:inline" /></g><g
     inkscape:groupmode="layer"
     id="layer10"
inkscape:label="Inserted Card" style="display:inline">
<use style="display:inline" x="0" y="0" xlink:href="#g4443" id="use4461" transform="translate(240,0)" width="100%" height="100%" />
<use style="display:inline" x="0" y="0" xlink:href="#g4452" id="use4467" transform="translate(240,0)" width="100%" height="100%" />
<use style="display:inline" x="0" y="0" xlink:href="#g4455" id="use4469" transform="translate(240,0)" width="100%" height="100%" />
<use style="display:inline" x="0" y="0" xlink:href="#g4380" id="use4387" transform="matrix(0,1,-1,0,290.077980,-225.320540)" width="100%" height="100%" />
<use style="display:inline" x="0" y="0" xlink:href="#g4449" id="use4463" transform="translate(240,0)" width="100%" height="100%" />
<use style="display:inline" x="0" y="0" xlink:href="#g4377" id="use4389" transform="matrix(0,1,-1,0,219.529980,-27.314263)" width="100%" height="100%" />
</g><g inkscape:groupmode="layer" id="layer6"
     inkscape:label="CARD INSERT BEGIN" /><g
     style="display:none"
     inkscape:label="Cut Line"
     id="g4582"
     inkscape:groupmode="layer"><rect
       rx="13.5"
       y="10.800006"
       x="10.8"
       height="315"
       width="202.5"
       id="cut-line"
       style="fill:none;fill-opacity:0.62085308;stroke:#000000;stroke-width:1;stroke-linecap:round;stroke-miterlimit:4;stroke-dasharray:none;stroke-opacity:1" /></g><g
     inkscape:groupmode="layer"
     id="layer1"
     inkscape:label="Safe Area"
     style="display:none"><rect
       style="fill:#ffffd8;fill-opacity:0.62085308;stroke:none;stroke-width:1;stroke-linecap:round;stroke-miterlimit:4;stroke-dasharray:none;stroke-opacity:1"
       id="rect4577"
       width="180.89999"
       height="293.39999"
       x="21.600002"
       y="21.60001"
       rx="13.5" /></g></svg>
