<?xml version='1.0' encoding='UTF-8'?>
<svg xmlns:ns0="http://www.w3.org/2000/svg" xmlns:ns1="http://sodipodi.sourceforge.net/DTD/sodipodi-0.dtd" xmlns:ns2="http://www.inkscape.org/namespaces/inkscape" xmlns:ns3="http://www.w3.org/1999/xlink" version="1.1" id="svg_root" xmlns="http://www.w3.org/2000/svg" xmlns:sodipodi="http://sodipodi.sourceforge.net/DTD/sodipodi-0.dtd" xmlns:inkscape="http://www.inkscape.org/namespaces/inkscape" xmlns:xlink="http://www.w3.org/1999/xlink" width="63.5mm" height="88.9mm" viewBox="0 0 63.5 88.9"><defs /><g id="card00" inkscape:label="Card 0" inkscape:groupmode="layer"><rect id="rect1375" x="0" y="0" width="63.5" height="88.9" rx="3" ry="3" style="fill:#ffffff;stroke:none;stroke-width:0" /><g id="masters" style="display:none"><ns0:g style="display:inline" id="op-tapestry">
        <ns0:rect transform="rotate(90)" rx="0.92500007" y="-36.125" x="80.171509" height="8.750001" width="5.6250005" id="rect1740-6" style="fill:#ffffff;fill-opacity:1;fill-rule:nonzero;stroke:#000000;stroke-width:0.35277781;stroke-linecap:round;stroke-miterlimit:4;stroke-dasharray:none;stroke-opacity:1" />
        <ns0:rect transform="rotate(90)" style="fill:#000000;fill-opacity:1;fill-rule:nonzero;stroke:none;stroke-width:0.13405555;stroke-linecap:round;stroke-miterlimit:4;stroke-dasharray:none;stroke-opacity:1" id="rect1742-5" width="1.9868948" height="1.9868948" x="80.717033" y="-35.357529" />
        <ns0:rect transform="rotate(90)" y="-35.357529" x="83.264084" height="1.9868948" width="1.9868948" id="rect1744-3" style="fill:#000000;fill-opacity:1;fill-rule:nonzero;stroke:none;stroke-width:0.13405555;stroke-linecap:round;stroke-miterlimit:4;stroke-dasharray:none;stroke-opacity:1" />
        <ns0:rect transform="rotate(90)" y="-32.743439" x="80.717033" height="1.9868948" width="1.9868948" id="rect1746-5" style="fill:#000000;fill-opacity:1;fill-rule:nonzero;stroke:none;stroke-width:0.13405555;stroke-linecap:round;stroke-miterlimit:4;stroke-dasharray:none;stroke-opacity:1" />
        <ns0:rect transform="rotate(90)" style="fill:#000000;fill-opacity:1;fill-rule:nonzero;stroke:none;stroke-width:0.13405555;stroke-linecap:round;stroke-miterlimit:4;stroke-dasharray:none;stroke-opacity:1" id="rect1748-6" width="1.9868948" height="1.9868948" x="83.264084" y="-32.743439" />
        <ns0:rect transform="rotate(90)" style="fill:#000000;fill-opacity:1;fill-rule:nonzero;stroke:none;stroke-width:0.13405555;stroke-linecap:round;stroke-miterlimit:4;stroke-dasharray:none;stroke-opacity:1" id="rect1750-2" width="1.9868948" height="1.9868948" x="80.717033" y="-30.129356" />
        <ns0:rect transform="rotate(90)" y="-30.129356" x="83.264084" height="1.9868948" width="1.9868948" id="rect1752-9" style="fill:#000000;fill-opacity:1;fill-rule:nonzero;stroke:none;stroke-width:0.13405555;stroke-linecap:round;stroke-miterlimit:4;stroke-dasharray:none;stroke-opacity:1" />
      </ns0:g>
    <ns0:g style="display:inline" id="op-eye">
        <ns0:g id="g1847">
          <ns0:path ns1:type="star" style="fill:#e0e0e0;fill-opacity:1;fill-rule:nonzero;stroke:#000000;stroke-width:0.25;stroke-linecap:round;stroke-linejoin:round;stroke-miterlimit:4;stroke-dasharray:none;stroke-dashoffset:0;stroke-opacity:1" id="path999-4" ns1:sides="6" ns1:cx="36.075249" ns1:cy="82.984009" ns1:r1="3.1134067" ns1:r2="2.6962891" ns1:arg1="0.52359878" ns1:arg2="1.0471976" ns2:flatsided="true" ns2:rounded="0" ns2:randomized="0" d="m 38.771538,84.540712 -2.696289,1.556703 -2.69629,-1.556703 0,-3.113407 2.69629,-1.556703 2.696289,1.556703 z" />
          <ns0:g id="g949">
            <ns0:circle style="fill:#ffffff;fill-opacity:1;fill-rule:nonzero;stroke:#000000;stroke-width:0.45000002;stroke-linecap:round;stroke-linejoin:round;stroke-miterlimit:4;stroke-dasharray:none;stroke-dashoffset:0;stroke-opacity:1" id="circle1001-7" cx="36.075249" cy="82.984009" r="1.9513654" />
            <ns0:g id="g1853">
              <ns0:path id="path1003-3" d="m 36.075251,82.27533 a 1.3701636,1.3701636 0 0 0 -1.198894,0.70745 1.3701636,1.3701636 0 0 0 1.198894,0.709905 1.3701636,1.3701636 0 0 0 1.198894,-0.70745 1.3701636,1.3701636 0 0 0 -1.198894,-0.709905 z" style="fill:none;fill-opacity:1;stroke:#000000;stroke-width:0.28125;stroke-linecap:round;stroke-linejoin:round;stroke-miterlimit:4;stroke-dasharray:none;stroke-dashoffset:0;stroke-opacity:1;paint-order:markers fill stroke" ns2:connector-curvature="0" />
              <ns0:path id="path1005-9" d="m 36.074736,82.308532 a 1.3701636,1.3701636 0 0 0 -0.179063,0.675411 1.3701636,1.3701636 0 0 0 0.179966,0.67541 1.3701636,1.3701636 0 0 0 0.17919,-0.67541 1.3701636,1.3701636 0 0 0 -0.180093,-0.675411 z" style="fill:#000000;fill-opacity:1;stroke:none;stroke-width:0.28125;stroke-linecap:round;stroke-linejoin:round;stroke-miterlimit:4;stroke-dasharray:none;stroke-dashoffset:0;stroke-opacity:1;paint-order:markers fill stroke" ns2:connector-curvature="0" />
            </ns0:g>
          </ns0:g>
        </ns0:g>
        <ns0:circle r="1.9513655" cy="82.984009" cx="26.779827" id="circle1011-2" style="fill:#ffffff;fill-opacity:1;fill-rule:nonzero;stroke:#000000;stroke-width:0.45000005;stroke-linecap:round;stroke-linejoin:round;stroke-miterlimit:4;stroke-dasharray:none;stroke-dashoffset:0;stroke-opacity:1" />
        <ns0:path ns1:nodetypes="cccccccc" style="color:#000000;clip-rule:nonzero;display:inline;overflow:visible;visibility:visible;opacity:1;isolation:auto;mix-blend-mode:normal;color-interpolation:sRGB;color-interpolation-filters:linearRGB;solid-color:#000000;solid-opacity:1;fill:#000000;fill-opacity:1;fill-rule:evenodd;stroke:none;stroke-width:0.35277781;stroke-linecap:butt;stroke-linejoin:miter;stroke-miterlimit:4;stroke-dasharray:none;stroke-dashoffset:0;stroke-opacity:1;color-rendering:auto;image-rendering:auto;shape-rendering:auto;text-rendering:auto;enable-background:accumulate" d="m 30.969755,81.355441 v 0.860999 h -1.377626 v 1.535135 h 1.377626 v 0.860998 l 1.76403,-1.628566 z" id="path1013-8" ns2:connector-curvature="0" />
      </ns0:g>
    <ns0:g style="display:inline" id="op-mmove">
        <ns0:path ns1:type="star" style="fill:#e0e0e0;fill-opacity:1;fill-rule:nonzero;stroke:#000000;stroke-width:0.25003126;stroke-linecap:round;stroke-linejoin:round;stroke-miterlimit:4;stroke-dasharray:none;stroke-dashoffset:0;stroke-opacity:1" id="path1786-9" ns1:sides="6" ns1:cx="26.357418" ns1:cy="82.984009" ns1:r1="3.1134067" ns1:r2="2.6962891" ns1:arg1="0.52359878" ns1:arg2="1.0471976" ns2:flatsided="true" ns2:rounded="0" ns2:randomized="0" d="m 29.053707,84.540712 -2.696289,1.556703 -2.696289,-1.556703 0,-3.113407 2.696289,-1.556703 2.696289,1.556703 z" />
        <ns0:path style="color:#000000;clip-rule:nonzero;display:inline;overflow:visible;visibility:visible;opacity:1;isolation:auto;mix-blend-mode:normal;color-interpolation:sRGB;color-interpolation-filters:linearRGB;solid-color:#000000;solid-opacity:1;fill:#000000;fill-opacity:1;fill-rule:evenodd;stroke:none;stroke-width:0.35277781;stroke-linecap:butt;stroke-linejoin:miter;stroke-miterlimit:4;stroke-dasharray:none;stroke-dashoffset:0;stroke-opacity:1;color-rendering:auto;image-rendering:auto;shape-rendering:auto;text-rendering:auto;enable-background:accumulate" d="m 26.357415,80.855917 c -0.346026,0.01235 -0.51718,0.267674 -0.553008,0.438694 -0.03629,0.173178 0.04941,0.506652 0.04941,0.506652 0,0 -0.481506,0.177751 -0.685863,0.327498 -0.174258,0.127691 -0.420977,0.314784 -0.451069,0.549952 -0.01872,0.146255 0.117405,0.263554 0.259539,0.302782 0.186288,0.05143 0.539806,-0.174018 0.642606,-0.01854 0.10119,0.1213 -0.09392,0.461137 -0.222455,0.661155 -0.201852,0.314121 -0.4855,0.953961 -0.315115,0.957729 0.17648,0.0039 0.640002,-0.0032 0.920693,-0.01233 0.107838,-0.0035 0.219322,-0.543786 0.355262,-0.543786 0.135939,0 0.247466,0.5403 0.355303,0.543786 0.280692,0.0091 0.744213,0.01623 0.920694,0.01233 0.170392,-0.0037 -0.113305,-0.643608 -0.315165,-0.957729 -0.128531,-0.200018 -0.323596,-0.539855 -0.222405,-0.661155 0.1028,-0.155476 0.456318,0.06997 0.642613,0.01854 0.142134,-0.03923 0.278208,-0.156527 0.259489,-0.302782 -0.03009,-0.235168 -0.276817,-0.422261 -0.451075,-0.549952 -0.204357,-0.149747 -0.685864,-0.327498 -0.685864,-0.327498 0,0 0.08575,-0.333474 0.04947,-0.506652 -0.03584,-0.17102 -0.207032,-0.426339 -0.553057,-0.438694 z" id="path1788-1" ns2:connector-curvature="0" />
        <ns0:path d="m 34.446291,84.540712 -2.696289,1.556703 -2.696289,-1.556703 0,-3.113407 2.696289,-1.556703 2.696289,1.556703 z" ns2:randomized="0" ns2:rounded="0" ns2:flatsided="true" ns1:arg2="1.0471976" ns1:arg1="0.52359878" ns1:r2="2.6962891" ns1:r1="3.1134067" ns1:cy="82.984009" ns1:cx="31.750002" ns1:sides="6" id="path1865-2" style="fill:#e0e0e0;fill-opacity:1;fill-rule:nonzero;stroke:#000000;stroke-width:0.25003126;stroke-linecap:round;stroke-linejoin:round;stroke-miterlimit:4;stroke-dasharray:none;stroke-dashoffset:0;stroke-opacity:1" ns1:type="star" />
        <ns0:path ns1:nodetypes="cccccccc" style="color:#000000;clip-rule:nonzero;display:inline;overflow:visible;visibility:visible;opacity:1;isolation:auto;mix-blend-mode:normal;color-interpolation:sRGB;color-interpolation-filters:linearRGB;solid-color:#000000;solid-opacity:1;fill:#000000;fill-opacity:1;fill-rule:evenodd;stroke:none;stroke-width:0.35277781;stroke-linecap:butt;stroke-linejoin:miter;stroke-miterlimit:4;stroke-dasharray:none;stroke-dashoffset:0;stroke-opacity:1;color-rendering:auto;image-rendering:auto;shape-rendering:auto;text-rendering:auto;enable-background:accumulate" d="m 29.896263,81.355437 v 0.861003 h -1.377626 v 1.535134 h 1.377626 v 0.860997 l 1.76403,-1.628564 z" id="path1867-7" ns2:connector-curvature="0" />
        <ns0:path d="m 39.838871,84.540712 -2.696289,1.556703 -2.696289,-1.556703 0,-3.113407 2.696289,-1.556703 2.696289,1.556703 z" ns2:randomized="0" ns2:rounded="0" ns2:flatsided="true" ns1:arg2="1.0471976" ns1:arg1="0.52359878" ns1:r2="2.6962891" ns1:r1="3.1134067" ns1:cy="82.984009" ns1:cx="37.142582" ns1:sides="6" id="path1865-2-6" style="display:inline;fill:#e0e0e0;fill-opacity:1;fill-rule:nonzero;stroke:#000000;stroke-width:0.25003126;stroke-linecap:round;stroke-linejoin:round;stroke-miterlimit:4;stroke-dasharray:none;stroke-dashoffset:0;stroke-opacity:1" ns1:type="star" />
      </ns0:g>
    <ns0:g style="display:inline" id="op-thread">
        <ns0:g id="g1942">
          <ns0:rect y="80.266769" x="24.717987" height="5.4344807" width="5.4344807" id="rect1710" style="fill:#e0e0e0;fill-opacity:1;fill-rule:nonzero;stroke:#000000;stroke-width:0.25;stroke-linecap:round;stroke-linejoin:round;stroke-miterlimit:4;stroke-dasharray:none;stroke-dashoffset:0;stroke-opacity:1" />
          <ns0:g id="g1932">
            <ns0:circle r="1.9513654" cy="82.984009" cx="27.435228" id="circle1712" style="fill:#ffffff;fill-opacity:1;fill-rule:nonzero;stroke:#000000;stroke-width:0.45000002;stroke-linecap:round;stroke-linejoin:round;stroke-miterlimit:4;stroke-dasharray:none;stroke-dashoffset:0;stroke-opacity:1" />
            <ns0:g id="g1924">
              <ns0:path style="color:#000000;clip-rule:nonzero;display:inline;overflow:visible;visibility:visible;opacity:1;isolation:auto;mix-blend-mode:normal;color-interpolation:sRGB;color-interpolation-filters:linearRGB;solid-color:#000000;solid-opacity:1;fill:#000000;fill-opacity:1;fill-rule:evenodd;stroke:#000000;stroke-width:0.28222221;stroke-linecap:round;stroke-linejoin:round;stroke-miterlimit:4;stroke-dasharray:none;stroke-dashoffset:0;stroke-opacity:1;color-rendering:auto;image-rendering:auto;shape-rendering:auto;text-rendering:auto;enable-background:accumulate" d="m 26.512222,83.308323 1.247317,-1.247318" id="path1714" ns2:connector-curvature="0" />
              <ns0:path ns2:connector-curvature="0" id="path1716" d="m 27.110905,83.907006 1.247318,-1.247317" style="color:#000000;clip-rule:nonzero;display:inline;overflow:visible;visibility:visible;opacity:1;isolation:auto;mix-blend-mode:normal;color-interpolation:sRGB;color-interpolation-filters:linearRGB;solid-color:#000000;solid-opacity:1;fill:#000000;fill-opacity:1;fill-rule:evenodd;stroke:#000000;stroke-width:0.28222221;stroke-linecap:round;stroke-linejoin:round;stroke-miterlimit:4;stroke-dasharray:none;stroke-dashoffset:0;stroke-opacity:1;color-rendering:auto;image-rendering:auto;shape-rendering:auto;text-rendering:auto;enable-background:accumulate" />
              <ns0:path ns2:connector-curvature="0" id="path1720" d="m 27.110911,82.060996 1.247317,1.247317" style="color:#000000;clip-rule:nonzero;display:inline;overflow:visible;visibility:visible;opacity:1;isolation:auto;mix-blend-mode:normal;color-interpolation:sRGB;color-interpolation-filters:linearRGB;solid-color:#000000;solid-opacity:1;fill:#000000;fill-opacity:1;fill-rule:evenodd;stroke:#000000;stroke-width:0.28124997;stroke-linecap:round;stroke-linejoin:round;stroke-miterlimit:4;stroke-dasharray:none;stroke-dashoffset:0;stroke-opacity:1;color-rendering:auto;image-rendering:auto;shape-rendering:auto;text-rendering:auto;enable-background:accumulate" />
              <ns0:path style="color:#000000;clip-rule:nonzero;display:inline;overflow:visible;visibility:visible;opacity:1;isolation:auto;mix-blend-mode:normal;color-interpolation:sRGB;color-interpolation-filters:linearRGB;solid-color:#000000;solid-opacity:1;fill:#000000;fill-opacity:1;fill-rule:evenodd;stroke:#000000;stroke-width:0.28124997;stroke-linecap:round;stroke-linejoin:round;stroke-miterlimit:4;stroke-dasharray:none;stroke-dashoffset:0;stroke-opacity:1;color-rendering:auto;image-rendering:auto;shape-rendering:auto;text-rendering:auto;enable-background:accumulate" d="m 26.512227,82.659679 1.247318,1.247318" id="path1722" ns2:connector-curvature="0" />
            </ns0:g>
          </ns0:g>
        </ns0:g>
        <ns0:circle style="fill:#ffffff;fill-opacity:1;fill-rule:nonzero;stroke:#000000;stroke-width:0.45000005;stroke-linecap:round;stroke-linejoin:round;stroke-miterlimit:4;stroke-dasharray:none;stroke-dashoffset:0;stroke-opacity:1" id="circle1730" cx="36.730648" cy="82.984009" r="1.9513655" />
        <ns0:path ns2:connector-curvature="0" id="path1732" d="m 32.286614,81.355442 v 0.860998 h -1.377625 v 1.535137 h 1.377625 v 0.860997 l 1.76403,-1.628566 z" style="color:#000000;clip-rule:nonzero;display:inline;overflow:visible;visibility:visible;opacity:1;isolation:auto;mix-blend-mode:normal;color-interpolation:sRGB;color-interpolation-filters:linearRGB;solid-color:#000000;solid-opacity:1;fill:#000000;fill-opacity:1;fill-rule:evenodd;stroke:none;stroke-width:0.35277781;stroke-linecap:butt;stroke-linejoin:miter;stroke-miterlimit:4;stroke-dasharray:none;stroke-dashoffset:0;stroke-opacity:1;color-rendering:auto;image-rendering:auto;shape-rendering:auto;text-rendering:auto;enable-background:accumulate" ns1:nodetypes="cccccccc" />
      </ns0:g>
    <ns0:g id="op-action">
        <ns0:path ns2:connector-curvature="0" id="circle5502-7-8" d="m 29.570203,80.803595 c -0.757226,0.757226 -1.036381,1.816023 -0.838507,2.796156 l 0.925972,0.177618 c -0.303793,-0.797352 -0.133885,-1.729986 0.511219,-2.37509 0.877145,-0.877145 2.286408,-0.877262 3.163552,-8.5e-5 l -0.335706,0.335708 1.571194,0.301095 -0.301096,-1.571194 -0.335708,0.335708 c -1.200697,-1.200697 -3.160222,-1.20058 -4.36092,8.4e-5 z m -0.636919,3.125199 0.301212,1.571311 0.335707,-0.335707 c 1.200698,1.200697 3.160223,1.200814 4.36092,8.5e-5 0.757393,-0.757393 1.035025,-1.816481 0.836872,-2.796859 l -0.925153,-0.177266 c 0.303954,0.797487 0.134785,1.730255 -0.510403,2.375442 -0.877144,0.877144 -2.286407,0.877027 -3.163552,-8.5e-5 l 0.335591,-0.335591 -1.571194,-0.301329 z" style="color:#000000;font-style:normal;font-variant:normal;font-weight:normal;font-stretch:normal;font-size:medium;line-height:normal;font-family:sans-serif;text-indent:0;text-align:start;text-decoration:none;text-decoration-line:none;text-decoration-style:solid;text-decoration-color:#000000;letter-spacing:normal;word-spacing:normal;text-transform:none;writing-mode:lr-tb;direction:ltr;baseline-shift:baseline;text-anchor:start;white-space:normal;clip-rule:nonzero;display:inline;overflow:visible;visibility:visible;opacity:1;isolation:auto;mix-blend-mode:normal;color-interpolation:sRGB;color-interpolation-filters:linearRGB;solid-color:#000000;solid-opacity:1;fill:#000000;fill-opacity:1;fill-rule:nonzero;stroke:none;stroke-width:0.84666669;stroke-linecap:round;stroke-linejoin:round;stroke-miterlimit:4;stroke-dasharray:none;stroke-dashoffset:0;stroke-opacity:1;color-rendering:auto;image-rendering:auto;shape-rendering:auto;text-rendering:auto;enable-background:accumulate" />
        <ns0:g transform="matrix(0.08466667,0,0,0.08466667,-7.5065499,22.96293)" id="g5969-0-1-1-8">
          <ns0:rect style="fill:#000000;fill-opacity:1;fill-rule:nonzero;stroke:none;stroke-width:5;stroke-linecap:round;stroke-linejoin:round;stroke-miterlimit:4;stroke-dasharray:none;stroke-dashoffset:0;stroke-opacity:1" id="rect5289-2-3-8-6-6" width="34.178364" height="9.3438864" x="446.57083" y="704.2384" />
          <ns0:rect y="-468.33197" x="691.82117" height="9.3438864" width="34.178364" id="rect5295-2-6-8-1-5" style="fill:#000000;fill-opacity:1;fill-rule:nonzero;stroke:none;stroke-width:5;stroke-linecap:round;stroke-linejoin:round;stroke-miterlimit:4;stroke-dasharray:none;stroke-dashoffset:0;stroke-opacity:1" transform="rotate(90)" />
        </ns0:g>
      </ns0:g>
    <ns0:path style="color:#000000;font-style:normal;font-variant:normal;font-weight:normal;font-stretch:normal;font-size:medium;line-height:normal;font-family:sans-serif;text-indent:0;text-align:start;text-decoration:none;text-decoration-line:none;text-decoration-style:solid;text-decoration-color:#000000;letter-spacing:normal;word-spacing:normal;text-transform:none;writing-mode:lr-tb;direction:ltr;baseline-shift:baseline;text-anchor:start;white-space:normal;clip-rule:nonzero;display:inline;overflow:visible;visibility:visible;opacity:1;isolation:auto;mix-blend-mode:normal;color-interpolation:sRGB;color-interpolation-filters:linearRGB;solid-color:#000000;solid-opacity:1;fill:#303030;fill-opacity:1;fill-rule:evenodd;stroke:none;stroke-width:0.38623711;stroke-linecap:round;stroke-linejoin:miter;stroke-miterlimit:4;stroke-dasharray:none;stroke-dashoffset:0;stroke-opacity:1;filter:url(#filter9446);color-rendering:auto;image-rendering:auto;shape-rendering:auto;text-rendering:auto;enable-background:accumulate" d="m 3.2390738,0.89696167 c -0.1922034,-0.0687 -0.3509989,-0.0828 -0.5213718,-0.0582 -0.2989846,0.0433 -0.7148222,0.13343 -1.0475371,0.28338003 -0.3591976,0.1619 -0.4422405,0.28515 -0.73683825,0.44826 -0.27445487,0.15196 -0.5523497,0.25754 -0.7707908,0.48869 -0.1087848,0.11511 -0.012906,0.20373 0.052274,0.18313 0.35911073,-0.11352 0.5295022,-0.25529 0.747699,-0.38605 0.20075835,-0.1203 0.13307565,0.0132 0.49824095,-0.2283 0.3197999,-0.2115 0.3829724,-0.24584 0.5503033,-0.27803 0.092334,-0.0389 0.1880876,-0.079 0.3015931,-0.11456 0.2662233,-0.0679 0.3003648,-0.0488 0.6319178,-0.0228 0.2717089,0.0213 0.5520487,0.12149 0.6730397,0.23576 0.1364758,0.1289 0.4251396,0.15035 0.6886601,0.67643 0.1083559,0.21632 0.1417186,0.439 0.1195229,0.65999 0.023635,0.17047 0.1274456,0.23446 -0.00106,0.75022 -0.095413,0.32232 -0.3626758,0.62503 -0.7056856,0.76625 -0.4009091,0.16507 -0.863329,0.19378 -1.2611419,0.0993 -0.3832045,-0.091 -0.7986336,-0.41514 -0.8786415,-0.76142 -0.078006,-0.33762 -0.138911,-0.63094 -0.1535277,-0.89924 0.031234,-0.3312 0.3751235,-0.32412 0.678382,-0.55342 0.2075911,-0.0832 0.3545871,-0.22088 0.6397438,-0.22088 0.2441998,0.0332 0.5054253,0.1787 0.6000705,0.33841 0.2028356,0.1922 0.2952371,0.44085 0.2318363,0.75756 0.00966,0.15954 -0.2803522,0.42581 -0.4478954,0.45484 -0.2091213,0.0362 -0.471887,-0.12632 -0.6017998,-0.18729 -0.1239994,-0.035 -0.115782,-0.0832 -0.064469,-0.26327 0.061824,-0.0875 0.1784367,-0.14247 0.2490646,-0.18637 0.085416,-0.0531 0.092072,-0.16088 0.068349,-0.24788 -0.051966,-0.0723 -0.1034345,-0.12302 -0.2290672,-0.0846 -0.085791,0.0263 -0.2446352,0.0425 -0.2815088,0.0765 -0.059951,0.0545 -0.2246423,0.1434 -0.2701179,0.20582 -0.043089,0.14551 0.044586,0.30527 0.06091,0.43027 0.021073,0.14818 0.1072048,0.31905 0.2881381,0.40338 0.2727985,0.12714 0.611378,0.19101 0.8216469,0.18132 0.2567908,-0.0268 0.7600722,-0.24043 0.765293,-0.7472 -0.013638,-0.23881 -0.1491208,-0.71743 -0.3329096,-1.03208 -0.1868734,-0.31994 -0.4514287,-0.45637 -0.8268327,-0.45379 -0.191143,0.0164 -0.4682562,0.0387 -0.8708041,0.26891 -0.464952,0.17386 -0.536699,0.24621 -0.8575247,0.59529 -0.2090832,0.2275 -0.026589,0.6428 -0.026589,0.6428 0.1477368,0.3117 0.076293,0.34841 0.2225356,0.71063 0.1913312,0.4739 0.6183021,0.82729 1.1098746,0.93231 0.3973768,0.0849 1.3338608,-0.0691 1.5369655,-0.11551 0.576589,-0.13178 0.7670676,-0.38362 0.9353622,-1.04068 0.1118809,-0.43681 0.026868,-0.8149 0.00691,-0.96642 -0.025304,-0.19214 -0.096625,-0.51027 -0.1533403,-0.65179 -0.1305388,-0.29543 -0.5530911,-0.58651 -0.893504,-0.87801 C 3.4675523,0.84414167 3.5387842,1.0040817 3.2390695,0.89693167 Z" id="element-air" ns2:connector-curvature="0" ns1:nodetypes="csssssssccsssccssscccccsccscscccsccsccsssssssccsc" />
  <ns0:path id="element-earth" style="color:#000000;font-style:normal;font-variant:normal;font-weight:normal;font-stretch:normal;font-size:medium;line-height:normal;font-family:sans-serif;text-indent:0;text-align:start;text-decoration:none;text-decoration-line:none;text-decoration-style:solid;text-decoration-color:#000000;letter-spacing:normal;word-spacing:normal;text-transform:none;writing-mode:lr-tb;direction:ltr;baseline-shift:baseline;text-anchor:start;white-space:normal;clip-rule:nonzero;display:inline;overflow:visible;visibility:visible;opacity:1;isolation:auto;mix-blend-mode:normal;color-interpolation:sRGB;color-interpolation-filters:linearRGB;solid-color:#000000;solid-opacity:1;fill:#004c00;fill-opacity:1;fill-rule:nonzero;stroke:none;stroke-width:0.38623711;stroke-linecap:round;stroke-linejoin:round;stroke-miterlimit:4;stroke-dasharray:none;stroke-dashoffset:0;stroke-opacity:1;color-rendering:auto;image-rendering:auto;shape-rendering:auto;text-rendering:auto;enable-background:accumulate" d="m 3.3347217,1.0592573 c -0.04468,0.00209 -0.087316,0.01812 -0.1210844,0.045521 C 2.9980882,1.2795556 2.8283601,1.5604825 2.6515435,1.8271339 2.4752109,2.0930554 2.1401512,2.5304107 2.0930689,2.5965185 1.6198319,3.0927032 1.4344879,3.5664492 0.87178127,4.1237684 0.69761497,4.3121193 1.0573083,4.3336839 1.2314745,4.1453324 1.7903709,3.5405993 1.9327058,3.3400324 2.3686012,2.889154 2.3751112,2.882384 2.6001882,2.6438855 2.6913107,2.5206552 2.7722977,2.407355 2.7929671,2.2797537 2.9627973,2.0236386 3.0783057,1.8494428 3.2128966,1.6350434 3.3192825,1.5824729 3.4569083,1.7242883 3.6713135,1.9167648 3.8640711,2.319915 4.0258953,2.5353089 4.3138824,2.8566285 4.361495,2.9232555 4.5093463,3.1355149 4.8337763,3.5218881 4.8641253,3.5779712 4.9842629,3.8001864 5.0363403,3.4805932 4.9542229,3.2139365 4.8909474,3.0970092 4.8448838,2.9328529 4.6964694,2.7197839 4.5480549,2.5067157 4.3604087,2.3418851 4.321916,2.2774412 L 4.167946,2.0343546 C 4.0351972,1.7378982 3.8084161,1.6263895 3.5180744,1.1528924 3.4806892,1.0919479 3.4098313,1.0557637 3.3347146,1.0592573 Z M 1.4860546,1.6178065 C 1.4207466,1.6192365 1.1126292,1.8905941 1.0765222,1.9414344 0.87172447,2.2298478 0.73632977,2.392273 0.51024687,2.7085721 0.36240697,2.9155928 0.63770657,2.9626028 0.78563517,2.7556371 0.95803937,2.5144369 1.3568532,2.090239 1.4831947,2.048413 c 0,0 0.4152461,0.299809 0.5528817,0.3733568 C 2.2677912,2.5473855 2.534717,2.4169098 2.3015589,2.29365 2.3328399,2.310405 2.1000456,2.137142 2.0065747,2.0232761 1.8751199,1.8701809 1.6462392,1.6745748 1.4860546,1.6178065 Z m 2.3732958,1.5548436 c -0.1515426,0.00715 -0.1538821,0.07423 -0.074552,0.1950221 0,0 0.3023383,0.5115617 0.4071273,0.8318262 C 4.3259945,4.4203799 4.7476923,4.3816518 4.6117843,4.0979489 4.4498375,3.7598921 4.0427103,3.2659617 4.0427103,3.2659617 4.0052323,3.2051427 3.9343943,3.1690917 3.8593504,3.1726501 Z M 3.3603589,3.2853424 C 3.2500579,3.2868624 3.1619347,3.3893429 3.1634677,3.4923498 L 3.1063097,4.4370831 C 3.1024897,4.6894583 3.4907592,4.4937411 3.4869365,4.2413659 3.4607405,4.0373444 3.5412625,3.6018943 3.3603589,3.2853424 Z M 2.6807308,3.1597399 C 2.5238662,3.2594799 2.334369,3.5974146 2.214958,3.9632567 2.122381,4.1966195 2.4971711,4.3263525 2.589832,4.0930187 2.637463,3.7905464 2.8020763,3.4046966 2.8020763,3.4046966 2.8515493,3.2853025 2.8177123,3.1647929 2.6807308,3.1597399 Z" ns2:connector-curvature="0" />
    <ns0:path style="color:#000000;font-style:normal;font-variant:normal;font-weight:normal;font-stretch:normal;font-size:medium;line-height:normal;font-family:sans-serif;text-indent:0;text-align:start;text-decoration:none;text-decoration-line:none;text-decoration-style:solid;text-decoration-color:#000000;letter-spacing:normal;word-spacing:normal;text-transform:none;writing-mode:lr-tb;direction:ltr;baseline-shift:baseline;text-anchor:start;white-space:normal;clip-rule:nonzero;display:inline;overflow:visible;visibility:visible;opacity:1;isolation:auto;mix-blend-mode:normal;color-interpolation:sRGB;color-interpolation-filters:linearRGB;solid-color:#000000;solid-opacity:1;fill:#860000;fill-opacity:0.9745098;fill-rule:evenodd;stroke:none;stroke-width:0.38623711;stroke-linecap:round;stroke-linejoin:miter;stroke-miterlimit:4;stroke-dasharray:none;stroke-dashoffset:0;stroke-opacity:1;filter:url(#filter9446);color-rendering:auto;image-rendering:auto;shape-rendering:auto;text-rendering:auto;enable-background:accumulate" d="m 2.1237845,0.45858111 c -0.057158,0.0578 0.00634,0.17813 0.00634,0.17813 0,0 0.049014,0.19676 0.067362,0.37707979 0.018349,0.18032 -0.00336,0.33078 -0.015119,0.43721 -0.018939,0.17136 -0.1732176,0.49491 -0.2918924,0.6751 -0.1186747,0.18018 -0.194819,0.3633 -0.2044966,0.58639 -0.00198,0.0457 0.015138,0.1338 0.022522,0.17687 -0.1336148,0.1464 -0.278576,0.21846 -0.4152932,0.25661 -0.1840774,0.0514 -0.47082401,0.19143 -0.71840431,0.41992 -0.1973966,0.18218 -0.2763645,0.35122 -0.342754,0.58596 -0.06639,0.23474 -0.1077413,0.42753 -0.083128,0.59991 0,0 0.00257,0.20185 0.069249,0.25967 0.090499,0.0178 0.226932,-0.0794 0.226932,-0.0794 0.28133943,-0.19965 0.540284,-0.38792 0.76105941,-0.45516 0.2405211,-0.0733 0.4947122,-0.0497 0.6595047,2.5e-4 0.2164995,0.0656 0.4509055,0.0362 0.6777558,-0.013 0.1562802,-0.0338 0.2608925,-0.11156 0.3758642,-0.21095 0.1530829,0.11725 0.2465769,0.1397 0.3560003,0.22235 0.134383,0.10149 0.2893105,0.19655 0.5278901,0.25865 0.249165,0.0649 0.5342059,0.0701 0.7986662,0.0355 0.2644593,-0.0346 0.5064601,-0.0992 0.6784496,-0.2464 0,0 0.147742,-0.10269 0.1334522,-0.16051 -0.033364,-0.053 -0.1797992,-0.10955 -0.1797992,-0.10955 0,0 -0.1625587,-0.0627 -0.3454974,-0.16362 -0.1829388,-0.10094 -0.3241919,-0.27767 -0.4467524,-0.38596 -0.1450661,-0.12818 -0.1837026,-0.30027 -0.2471656,-0.47474 -0.063129,-0.17355 -0.142185,-0.39659 -0.3863226,-0.55549 -0.116966,-0.0761 -0.2307016,-0.14106 -0.3524957,-0.18565 -0.029073,-0.12443 -0.027641,-0.24053 -0.011996,-0.36817 0.047928,-0.23358 -0.025523,-0.54645 -0.113089,-0.77113 -0.09238,-0.23703 -0.2832844,-0.35960996 -0.4070686,-0.48869979 -0.1318999,-0.13756 -0.3166221,-0.28781 -0.5033597,-0.35757 0,0 -0.1154151,-0.048 -0.2964138,-0.0436 z M 2.5214349,0.9442111 c 0.044259,0.0341 0.1785592,0.1196398 0.2453209,0.1858498 0.1561034,0.15481 0.2872118,0.37577 0.3144576,0.54012 0.026532,0.16004 -0.0045,0.3013 -0.022913,0.45145 -0.011843,0.0966 0.00159,0.20353 0.04124,0.30571 -0.031602,0.002 -0.1106395,0.004 -0.143256,0.009 -0.1088409,0.0147 -0.2238243,0.0444 -0.3478112,0.0878 -0.2567606,0.0842 -0.058515,0.13542 0.2009645,0.11039 0.2025497,-0.0104 0.3928195,0.0903 0.5178668,0.146 0.1021911,0.0455 0.269244,0.1601 0.3198001,0.24335 0.09849,0.16217 0.2302253,0.35968 0.2493647,0.44814 0.034659,0.16018 0.098115,0.31421 0.2797813,0.52725 0.1638075,0.19211 0.3732326,0.25751 0.5743107,0.36891 -0.01796,0.0553 -0.1803657,0.10091 -0.231175,0.10756 -0.216749,0.0284 -0.4504944,-0.0192 -0.6088313,-0.10076 -0.1729807,-0.089 -0.2892423,-0.0888 -0.4345287,-0.18058 -0.095403,-0.0602 -0.2249292,-0.10236 -0.291561,-0.2284 0.087882,-0.1922 0.183271,-0.36755 0.2181629,-0.55491 0.055506,-0.2514 -0.2066832,-0.004 -0.3195111,0.18763 -0.1198604,0.2536 -0.3139565,0.4485 -0.6060817,0.54544 -0.1891463,0.0628 -0.3514661,0.004 -0.5270632,-0.0316 -0.1755949,-0.0354 -0.421144,-0.0747 -0.7396844,0.0224 -0.21906031,0.0667 -0.50629508,0.14324 -0.71454971,0.37255 -0.02276,-0.1185 0.038295,-0.23941 0.057419,-0.29708 0.062885,-0.18961 0.2435178,-0.3814 0.36329575,-0.49194 0.18234386,-0.16829 0.41028836,-0.21845 0.59902436,-0.27113 0.1394981,-0.0389 0.1992609,-0.036 0.3444637,-0.15642 0.1063744,0.17192 0.2566647,0.3139 0.4348953,0.42833 0.2196063,0.141 0.1683087,-0.0969 -0.042889,-0.32651 -0.1377306,-0.14976 -0.187537,-0.28056 -0.2072261,-0.60666 -0.010039,-0.16627 0.07268,-0.34856 0.1861061,-0.52077 0.1471071,-0.20367 0.2711251,-0.38318 0.3019857,-0.66239 0.018518,-0.22097 0.036256,-0.50606 -0.011378,-0.6584198 z" id="element-fire" ns2:connector-curvature="0" ns1:nodetypes="ccssssccsscccssscssscccssssccssccccsscsccsssscssscccscscssscccssccc" />
    <ns0:path id="element-water" style="color:#000000;font-style:normal;font-variant:normal;font-weight:normal;font-stretch:normal;font-size:medium;line-height:normal;font-family:sans-serif;text-indent:0;text-align:start;text-decoration:none;text-decoration-line:none;text-decoration-style:solid;text-decoration-color:#000000;letter-spacing:normal;word-spacing:normal;text-transform:none;writing-mode:lr-tb;direction:ltr;baseline-shift:baseline;text-anchor:start;white-space:normal;clip-rule:nonzero;display:inline;overflow:visible;visibility:visible;opacity:1;isolation:auto;mix-blend-mode:normal;color-interpolation:sRGB;color-interpolation-filters:linearRGB;solid-color:#000000;solid-opacity:1;fill:#00007e;fill-opacity:1;fill-rule:evenodd;stroke:none;stroke-width:0.38623711;stroke-linecap:round;stroke-linejoin:miter;stroke-miterlimit:4;stroke-dasharray:none;stroke-dashoffset:0;stroke-opacity:1;color-rendering:auto;image-rendering:auto;shape-rendering:auto;text-rendering:auto;enable-background:accumulate" d="M 5.04059,3.3674585 C 4.8357167,3.3883545 4.5476496,3.5954163 4.3381188,3.6066998 3.9475382,3.6600184 3.4529663,3.5326377 3.0626336,3.5213417 2.4016926,3.5049447 2.0332881,3.8006142 1.4201321,4.0009353 1.2650598,4.0777165 1.4245729,4.1817762 1.598265,4.2053471 1.7403352,4.2167851 1.9674875,4.1307791 2.1023661,4.1000381 2.4686497,3.9782454 2.7926444,3.8816448 3.1841043,3.9322195 3.7014473,4.0224901 4.0341951,4.0672185 4.5414448,3.9868757 4.7069736,3.9392123 4.8657753,3.775309 5.0146738,3.6978428 5.1493891,3.5884829 5.2191448,3.3624926 5.04059,3.3674585 Z M 4.7094294,2.4534175 C 4.4320773,2.4464328 4.3976524,2.6096498 4.0091449,2.6157334 3.5353217,2.6525682 3.2204299,2.5348823 2.7490909,2.509521 2.1256355,2.4533678 1.4424351,2.8054283 0.8743124,2.9582199 c -0.15006125,0.085023 0.010907,0.2680267 0.1857712,0.2821826 0.1555136,-5.226e-4 0.206439,0.034222 0.35813,0.00645 C 1.8880311,3.1065923 2.189507,2.7513182 2.6762372,2.8079329 3.1672733,2.8530601 3.8288537,3.0632354 4.3202486,2.9630055 4.4757605,2.9009595 4.6167312,2.8102723 4.7281415,2.6960447 4.8073279,2.5763136 4.8602038,2.4490573 4.7094294,2.4534174 Z M 3.9960603,1.4081046 C 3.8617945,1.4284783 3.71473,1.5325479 3.5850259,1.5702761 3.1855458,1.7299523 2.7810191,1.7091904 2.3586018,1.6151338 2.1700613,1.5840071 1.8852227,1.5162922 1.6981645,1.4831301 1.1782289,1.4411047 0.76505405,1.6975493 0.36643555,1.9819983 0.23868005,2.0943955 0.36430385,2.2226997 0.53848615,2.2024634 0.73962645,2.1472479 0.98859685,2.1183501 1.1868398,2.0036715 1.4371318,1.8877127 1.8053862,1.8306087 2.0778302,1.9347687 2.5415682,2.0641793 2.9642777,2.1168138 3.4404341,2.0016894 3.7198441,1.9420817 3.8970871,1.8279871 4.1196226,1.6560379 4.2307736,1.5385183 4.1634498,1.394952 3.9960603,1.4081046 Z" ns2:connector-curvature="0" />
    </g><ns0:text id="spell-title" xml:space="preserve" style="font-style:normal;font-weight:normal;font-size:3.17499995px;line-height:125%;font-family:'Arial Narrow';text-align:center;letter-spacing:0px;word-spacing:0px;text-anchor:middle;display:inline;fill:#000000;fill-opacity:1;stroke:none;stroke-width:0.26458332" x="31.8081" y="7.5253239"><ns0:tspan x="31.8081" y="7.5253239" style="font-style:normal;font-variant:normal;font-weight:bold;font-stretch:normal;font-size:4.76249981px;font-family:CCTreasureTrove;-inkscape-font-specification:'CCTreasureTrove Bold';fill:#000000;fill-opacity:1;stroke-width:0.26458332" id="tspan64-5">Shield</ns0:tspan></ns0:text>
    <use id="use1376" xlink:href="#element-earth" width="100%" height="100%" x="4" y="4" /><use id="use1377" xlink:href="#element-earth" width="100%" height="100%" x="54" y="4" /><ns0:text id="spell-id" xml:space="preserve" style="font-style:normal;font-weight:normal;font-size:3.17499995px;line-height:125%;font-family:Georgia;text-align:end;letter-spacing:0px;word-spacing:0px;text-anchor:end;display:inline;fill:#000000;fill-opacity:1;stroke:none;stroke-width:0.26458332" x="62.42297" y="86.322617"><ns0:tspan x="61.29707" y="86.322617" style="font-style:italic;font-variant:normal;font-weight:normal;font-stretch:normal;font-size:2.11666656px;font-family:Georgia;text-align:end;text-anchor:end;fill:#000000;fill-opacity:1;stroke-width:0.26458332" id="tspan71">8/38</ns0:tspan></ns0:text>
    <ns0:path style="display:inline;fill:none;stroke:#000000;stroke-width:0.26458332px;stroke-linecap:butt;stroke-linejoin:miter;stroke-opacity:1" id="separator" d="M 4.2333332,77.396668 H 59.266667" ns2:connector-curvature="0" />
    <ns0:g style="display:inline" id="op-eye-mmove">
        <ns0:use x="0" y="0" ns3:href="#op-eye" id="use2488" transform="translate(-11.353245)" width="100%" height="100%" />
        <ns0:path ns1:nodetypes="cc" ns2:connector-curvature="0" id="path2454-7" d="m 31.497368,79.935741 -1.601519,6.09654" style="color:#000000;clip-rule:nonzero;display:inline;overflow:visible;visibility:visible;opacity:1;isolation:auto;mix-blend-mode:normal;color-interpolation:sRGB;color-interpolation-filters:linearRGB;solid-color:#000000;solid-opacity:1;fill:none;fill-opacity:1;fill-rule:evenodd;stroke:#898989;stroke-width:0.35277778;stroke-linecap:butt;stroke-linejoin:miter;stroke-miterlimit:4;stroke-dasharray:none;stroke-dashoffset:0;stroke-opacity:1;color-rendering:auto;image-rendering:auto;shape-rendering:auto;text-rendering:auto;enable-background:accumulate" />
        <ns0:use x="0" y="0" ns3:href="#op-mmove" id="use2505" transform="translate(10.285894)" width="100%" height="100%" />
      </ns0:g>
    <use id="use1378" xlink:href="#element-earth" width="100%" height="100%" x="22.0" y="19.65" /><circle id="circle1379" cx="31.75" cy="22.4" r="0.8" style="fill:#c0c0c0;stroke:none;stroke-width:0" /><rect id="rect1380" x="36.0" y="19.65" width="5.5" height="5.5" style="fill:none;stroke:#000000;stroke-width:0.5;stroke-linecap:round;stroke-miterlimit:2" /><ns0:path ns2:connector-curvature="0" id="spell-pattern-border" d="m 51.88389,9.7089196 c -0.626594,-0.002 -2.045861,-0.0671 -2.57607,0.003 -0.330325,0.0434 -0.468956,0.1023 -0.908474,0.13229 L 48.395246,10.3155 47.508995,9.8932996 c -0.736266,0.0445 -1.27876,0.0185 -1.899626,0.0398 L 45.487414,10.22146 45.362872,10.00028 c -0.736867,0.0214 -1.546338,0.0239 -2.72438,-5.304e-4 L 42.025609,9.9248496 41.825621,10.21683 41.614263,9.9765296 41.131089,10.63437 40.46203,9.9568396 c -1.349751,-0.0373 -2.221273,-0.0716 -3.387546,-0.14618 -0.226075,-0.0145 -0.696629,0.005 -1.000455,0.004 L 36.193401,10.05599 35.036367,10.00839 34.82346,10.2921 34.528386,9.9727396 33.713451,10.54014 33.300039,10.16239 32.744517,10.70499 32.496471,10.04353 30.819569,10.505 30.116862,9.9317596 c -0.950498,0.0496 -2.758521,0.0256 -3.078246,0.0377 -0.269232,0.0102 -3.142514,0.2345104 -3.950978,0.2425304 l -0.22996,0.27802 -0.09405,-0.27751 c -1.285783,0.0104 -1.840675,0.13842 -2.297363,0.12834 -0.626928,-0.0235 -1.117913,-0.30583 -2.445101,-0.3678304 l -0.238745,0.3545004 -0.143144,-0.29559 -0.308508,0.0827 -0.206189,-0.3467504 c -0.973081,-0.0416 -1.641922,0.0551 -2.613277,0.0372 L 13.290703,10.2562 12.58222,9.8231496 c -1.259778,-0.008 -1.698601,0.2142404 -2.465483,0.2486404 l -0.7121012,-0.016 0.2157119,1.68547 c 0.05761,0.1097 0.11214,0.35319 0.168465,0.46767 -0.131051,0.18009 -0.4028499,0.76181 -0.4433839,0.82372 -0.137748,0.21038 0.0566,2.31165 0.03964,2.52727 l 0.2557989,1.20458 -0.3457159,0.0124 c 0.08572,0.560425 0.09601,0.989375 0.139527,1.713595 0.01987,0.33068 -0.01,1.2024 -0.04393,1.90841 l 0.474389,0.31109 -0.38964,0.40153 0.365869,0.36638 -0.541052,0.22273 c 0.02176,0.55707 0.09588,0.93603 0.177767,1.46916 0.05642,0.36731 0.06026,0.87311 0.1012859,1.45211 l 0.3565671,0.19844 -0.1415931,0.46095 -0.3265949,0.26252 c 0.0027,0.56365 0.1511209,1.01373 0.03617,1.53944 -0.0906,0.41436 -0.136585,0.90193 -0.210323,1.50326 l 0.170016,0.26149 0.3545,0.2129 -0.410311,0.31368 c -0.02396,0.11198 -0.461679,1.18981 -0.492148,1.28737 -0.06251,0.20014 0.121921,1.05468 0.247855,1.99254 0.125933,0.93786 0.14326,1.54142 0.130753,2.04143 0.3617309,-0.0235 0.9133022,-0.21787 1.2267982,-0.22634 0.468024,-0.0127 0.805357,-0.0274 1.3224,-0.001 l -0.01757,-0.6258 0.534334,0.54002 c 0.238101,-0.0359 0.485089,-0.069 0.746725,-0.0971 1.372285,-0.14758 2.716816,-0.0471 4.152718,0.12402 l 0.03566,-0.3545 0.192753,0.38499 c 0.398104,0.0485 0.796503,0.0991 1.19476,0.15141 0.307847,0.0405 0.612124,0.0664 0.914672,0.0868 l 0.378272,-0.56431 0.744657,0.51987 0.283187,-0.4961 0.128674,0.58446 c 1.070516,-0.004 2.113789,-0.0574 3.13831,-0.0305 0.146503,0.004 0.240935,0.0513 0.383439,0.0522 l 0.03514,-0.18139 0.147795,0.13539 c 0.05692,3e-5 0.102615,0.0711 0.159163,0.0708 l 0.129708,-0.27698 0.19482,0.216 c 1.425841,-0.0158 2.447911,-0.21676 4.606437,-0.1111 0.676662,0.0331 1.881332,0.20397 2.973979,0.2744 l 0.363286,-0.19014 1.062985,0.0238 0.389639,-0.24805 0.372589,0.4253 c 0.485028,-0.003 1.284345,-0.10576 1.668113,-0.1602 1.434105,-0.0462 2.74238,-0.17882 4.104142,-0.16226 1.195314,0.0145 2.223363,0.0221 3.80132,0.0863 l 0.672827,-0.55552 0.850593,0.47232 0.141595,-0.30696 0.588594,0.58859 0.785482,-0.0398 c 0.325564,0.11037 1.116232,0.26521 1.951818,0.37156 l 0.714168,-0.37672 0.526585,0.38137 c 0.190674,0.0301 0.72794,-0.003 0.918289,-0.009 0.233802,-0.008 0.764487,-0.0201 1.411282,-0.0765 l 0.970484,-0.34313 0.402042,-0.5824 c -0.0824,-0.38722 -0.07318,-0.80122 -0.125574,-1.13068 -0.04992,-0.31387 -0.120009,-0.4703 -0.163295,-0.89813 l -0.326081,0.0248 0.344168,-0.5333 c -0.03332,-0.3622 0.09888,-1.31945 0.07079,-1.73065 -0.04236,-0.62017 -0.224097,-1.34155 -0.140263,-2.10323 l -0.227375,-0.14262 c 0.124828,-0.12807 0.2257,-0.22992 0.289388,-0.37207 l -0.241848,-0.31316 0.322461,-0.19896 c -0.0026,-0.217 -0.156276,-0.3354 -0.195337,-0.5364 -0.07308,-0.37618 -0.225858,-1.35219 -0.363802,-1.68465 0.283351,-0.31209 0.391621,-0.22312 0.618567,-0.68265 -0.186126,-0.10876 -0.330097,-0.25852 -0.552421,-0.39119 0.285134,-0.17551 0.377836,-0.13617 0.493512,-0.29042 -0.08513,-0.69759 -0.104111,-1.43754 -0.05478,-1.91151 0.06849,-0.65799 -0.335989,-2.06331 -0.14056,-3.13934 -0.101547,-0.0323 -0.159459,0.0123 -0.303342,0.009 0.08311,-0.16457 0.23214,-0.36388 0.35605,-0.43822 -0.09751,-0.722245 0.01876,-1.734735 0.113569,-2.347645 -0.0227,-0.34426 -0.304281,-1.48773 -0.298569,-1.74565 0.0078,-0.35104 0.37877,-0.72984 0.349552,-1.09605 l -0.179832,-0.23978 0.154511,-0.009 c -0.05839,-0.52303 -0.22661,-0.97146 -0.352949,-1.30432 -0.20361,-0.53643 -0.492987,-1.2528404 -0.633555,-1.2438504 -0.05277,0.003 -1.436492,-0.01 -1.526003,-0.01 z M 51.521639,10.04068 c 0.242435,-0.007 1.502769,0.017 1.661914,0.0811 0.17051,0.0687 0.330943,0.56911 0.475421,1.02526 0.08229,0.25981 0.162415,0.62151 0.209807,0.85524 h -0.470773 l 0.571542,0.62839 c 0.02432,0.20386 -0.33152,0.4208 -0.310279,0.67541 0.04718,0.56562 0.389035,1.82281 0.390009,2.05281 -0.03825,0.21082 -0.251926,1.64099 -0.232397,2.304035 -0.136186,0.17493 -0.326842,0.43773 -0.534334,0.70332 0.171948,-0.0238 0.315243,0.029 0.47439,-0.0191 -0.143605,0.54383 0.211495,2.01374 0.220657,2.48977 0.01352,0.70185 0.01249,1.63782 0.05374,2.28461 -0.313087,0.17432 -0.453935,0.28392 -0.883668,0.44287 0.219678,0.11709 0.573746,0.26341 0.742074,0.34726 -0.213331,0.32661 -0.311465,0.38743 -0.422712,0.55036 0.0034,0.42762 0.130178,1.25906 0.505394,2.13992 -0.190979,0.10326 -0.415099,0.21266 -0.529167,0.35088 0.0021,0.0703 0.210048,0.19076 0.378272,0.2434 -0.141761,0.27033 -0.456467,0.2999 -0.374136,0.39636 0.09436,0.11055 0.263064,0.18511 0.399976,0.30231 0.07785,0.66054 -0.07155,1.99468 -0.05094,2.50837 0.01701,0.42394 -0.134966,1.35598 -0.188102,1.65571 l -0.677995,0.41755 h 0.733806 c 0.261654,0.46353 0.277884,1.57541 0.279569,1.86086 7.94e-4,0.15143 -1.461164,0.40018 -2.824633,0.4129 l -0.370004,-0.40359 0.02066,-0.51728 -0.283705,-0.70177 v 0.65164 l -0.05839,0.27595 -1.127061,0.46509 c -0.507595,0.20946 -1.075079,-0.16076 -1.544092,-0.21601 -0.259366,-0.0306 -0.509355,-0.054 -0.75706,-0.076 l -0.349851,-0.41548 -0.53485,-0.76843 0.03359,0.73484 -0.601512,-0.30076 -0.434083,-0.90175 0.03307,1.00201 -0.72657,0.53123 c -0.805526,0.58896 -1.868191,0.0129 -2.621547,-0.0134 -1.525466,-0.0533 -3.986469,0.0797 -5.858555,0.24288 -0.282054,0.0246 -0.574648,0.0412 -0.871265,0.0537 l -0.479041,-0.68058 -0.234096,0.53434 -1.403014,-0.0331 -0.626835,0.16072 c -0.811307,0.20801 -1.669875,-0.10163 -2.456698,-0.17725 -0.863284,-0.083 -2.521335,0.14006 -4.450891,0.18965 l -0.189136,-0.73225 -0.294555,0.663 -0.601514,-0.37155 0.02894,0.4284 c -0.0014,-10e-6 -0.0027,1e-5 -0.0041,0 -0.880708,-0.006 -1.890517,0.0303 -2.892329,0.0165 l -0.540019,-1.07952 -0.233577,0.80202 -0.768429,-0.40101 -0.151412,-0.75034 -0.106454,0.83458 -0.293005,0.44855 c -0.156326,0.23931 -0.558723,-0.0902 -0.817521,-0.15658 -0.361582,-0.0927 -0.704473,-0.15973 -1.038696,-0.21653 l -0.399459,-0.82785 -0.181901,0.84077 c -1.336521,-0.18061 -2.135442,-0.19698 -3.098002,-0.14779 -0.349858,0.0179 -1.024661,0.12047 -1.359607,0.15709 l -0.874882,-0.77773 -0.274402,-0.26716 -0.141593,-0.56689 0.01188,0.72037 0.263549,0.29868 0.08733,0.79737 c -0.638171,-0.0254 -1.325896,-0.0279 -1.8655193,0.0977 0.03418,-0.66294 -0.4838129,-3.22821 -0.4752159,-3.42524 0.100736,-0.26537 0.4803009,-0.96554 0.5184759,-1.26307 l 1.0309453,-0.51521 -0.701766,-0.0667 -0.2547653,-0.33177 c -0.214819,-0.27974 0.03725,-0.69488 0.08888,-0.98857 0.1238073,-0.70426 0.1684293,-1.3536 0.1705323,-1.99781 l 0.5302,-0.22324 -0.367936,-0.10025 0.100252,-0.60152 -0.294555,-0.13591 c -0.04551,-0.84319 -0.1284703,-1.72124 -0.1829353,-2.74505 l 0.6779953,-0.22582 -0.434082,-0.30076 0.300756,-0.50126 -0.5911774,-0.46767 c -0.0026,-0.31304 -0.0019,-0.6349 0.0062,-0.9772 0.0043,-0.18067 -0.140288,-1.13283 -0.139527,-2.214345 L 9.8744267,17.04866 10.228927,17.248655 9.9741627,16.72878 9.8046646,15.51232 c -0.03152,-0.2262 -0.16783,-2.24477 -0.0081,-2.38982 0.05765,-0.0524 0.2560454,-0.43572 0.3600294,-0.72996 l 0.248467,0.073 0.483639,-0.16138 -0.435329,-0.04 -0.187585,-0.17829 c -9.8e-5,-8.4e-4 6.35e-4,-0.003 5.29e-4,-0.004 -0.02241,-0.14693 -0.2664413,-0.94493 -0.3066633,-1.48186 0.4685873,0.0338 1.4839373,-0.21568 2.6623703,-0.23677 l 0.604614,0.21498 1.508952,-0.25167 c 0.80418,-0.0121 1.467945,-0.11172 2.306319,-0.11007 l 0.1757,0.47801 0.236162,-0.094 0.130741,0.30231 0.251664,0.59324 0.0072,-0.77876 0.256315,-0.38034 c 0.750567,-0.11775 1.95144,0.33873 2.338454,0.37078 0.47388,0.002 0.487713,-0.059 2.149245,-0.10856 l 0.19017,0.50902 0.35605,-0.53434 c 0.854762,-0.0293 3.438733,-0.35096 3.679094,-0.33394 0.305535,0.0216 2.664869,0.0247 3.067072,0.086 l 0.903084,0.55602 1.551327,-0.43925 0.266131,0.55242 0.03566,0.66611 0.230994,-0.70487 0.393774,-0.32091 0.307475,0.3483 0.953948,-0.58808 0.200504,0.50126 0.267165,-0.40101 1.485699,-0.108 -0.05426,-0.23099 c 0.63827,-0.0137 1.286642,-0.064 1.771468,-0.0403 0.787315,0.0385 1.433724,0.0865 2.191236,0.10225 l 0.776542,0.95143 0.477491,-0.77463 0.227893,0.58859 0.274402,-0.68936 c 1.129459,0.003 2.090598,-0.0255 3.111437,-0.0579 l 0.310576,0.4377 0.161748,-0.45268 c 0.502896,-0.0184 0.99211,0.0314 1.460891,0.007 l 0.825791,0.18087 0.769461,0.51521 -0.148828,-0.73639 c -0.08085,-0.4000604 0.668168,-0.16073 1.038696,-0.1891304 0.210635,-0.0161 1.124259,0.061 1.851567,0.0404 z" style="color:#000000;display:inline;overflow:visible;visibility:visible;opacity:1;solid-color:#000000;solid-opacity:1;fill:#808080;fill-opacity:1;fill-rule:nonzero;stroke:none;stroke-width:0.26458332" />
    <ns0:flowRoot transform="matrix(0.26458333,0,0,0.26458333,0.40268899,-0.29262208)" xml:space="preserve" id="spell-description" style="font-style:normal;font-weight:normal;font-size:10px;line-height:125%;font-family:sans-serif;letter-spacing:0px;word-spacing:0px;display:inline;fill:#000000;fill-opacity:1;stroke:none;stroke-width:1px;stroke-linecap:butt;stroke-linejoin:miter;stroke-opacity:1"><ns0:flowRegion id="flowRegion4270"><ns0:rect x="28.799999" y="146" width="180.10165" height="149.34264" id="rect88" /></ns0:flowRegion><ns0:flowPara id="flowPara91" style="font-style:normal;font-variant:normal;font-weight:normal;font-stretch:normal;font-family:Arial;-inkscape-font-specification:Arial">Place a Charge on this spell.</ns0:flowPara><ns0:flowPara id="flowPara91" style="font-style:normal;font-variant:normal;font-weight:normal;font-stretch:normal;font-family:Arial;-inkscape-font-specification:Arial"> </ns0:flowPara><ns0:flowPara id="flowPara91" style="font-style:normal;font-variant:normal;font-weight:normal;font-stretch:normal;font-family:Arial;-inkscape-font-specification:Arial">Sacrifice charge: Remove a charge to cancel an attack of 1 damage.</ns0:flowPara></ns0:flowRoot>    <ns0:path ns2:connector-curvature="0" id="icon-star-1" d="m 5.4649462,14.111423 -0.743117,1.32116 -1.486234,0.298556 1.026873,1.115105 -0.17532,1.505874 1.377798,-0.632122 1.377796,0.632122 -0.175316,-1.505874 1.026863,-1.115105 -1.486232,-0.298556 z" style="display:inline;fill:#000000;fill-opacity:1;fill-rule:nonzero;stroke:none;stroke-width:0.40801734;stroke-linecap:round;stroke-miterlimit:4;stroke-dasharray:none;stroke-dashoffset:0;stroke-opacity:1" ns1:nodetypes="ccccccccccc" />
    </g></svg>