<?xml version="1.0" encoding="UTF-8" standalone="no"?>
<!-- Created with Inkscape (http://www.inkscape.org/) -->

<svg
   xmlns:dc="http://purl.org/dc/elements/1.1/"
   xmlns:cc="http://creativecommons.org/ns#"
   xmlns:rdf="http://www.w3.org/1999/02/22-rdf-syntax-ns#"
   xmlns:svg="http://www.w3.org/2000/svg"
   xmlns="http://www.w3.org/2000/svg"
   xmlns:sodipodi="http://sodipodi.sourceforge.net/DTD/sodipodi-0.dtd"
   xmlns:inkscape="http://www.inkscape.org/namespaces/inkscape"
   width="85"
   height="200"
   viewBox="0 0 85 200"
   id="svg4516"
   version="1.1"
   inkscape:version="0.91 r13725"
   sodipodi:docname="add-action.svg">
  <defs
     id="defs4518" />
  <sodipodi:namedview
     id="base"
     pagecolor="#ffffff"
     bordercolor="#666666"
     borderopacity="1.0"
     inkscape:pageopacity="0.0"
     inkscape:pageshadow="2"
     inkscape:zoom="1.979899"
     inkscape:cx="69.300436"
     inkscape:cy="63.628895"
     inkscape:document-units="px"
     inkscape:current-layer="svg4516"
     showgrid="false"
     units="px"
     inkscape:window-width="1680"
     inkscape:window-height="1005"
     inkscape:window-x="0"
     inkscape:window-y="1"
     inkscape:window-maximized="1" />
  <metadata
     id="metadata4521">
    <rdf:RDF>
      <cc:Work
         rdf:about="">
        <dc:format>image/svg+xml</dc:format>
        <dc:type
           rdf:resource="http://purl.org/dc/dcmitype/StillImage" />
        <dc:title />
      </cc:Work>
    </rdf:RDF>
  </metadata>
  <g
     inkscape:label="Layer 1"
     inkscape:groupmode="layer"
     id="layer1">
    <path
       inkscape:connector-curvature="0"
       id="circle5502-7"
       d="M 16.75437,74.24708 C 7.81075,83.1907 4.51365,95.69617 6.85074,107.27255 l 10.93668,2.09785 C 14.19931,99.95285 16.2061,88.93749 23.82544,81.31815 34.18542,70.95817 50.83026,70.95679 61.19023,81.31715 L 57.22519,85.2822 75.7826,88.83845 72.22635,70.28104 68.2613,74.24609 C 54.07984,60.06463 30.93584,60.06601 16.75437,74.24709 Z m -7.52267,36.9118 3.55763,18.55879 3.96504,-3.96504 c 14.18147,14.18146 37.32547,14.18284 51.50693,0.001 8.94558,-8.94558 12.2247,-21.4545 9.88431,-33.03376 L 67.2186,90.62617 c 3.59001,9.41914 1.59195,20.43608 -6.02837,28.0564 -10.35997,10.35997 -27.00481,10.35859 -37.36479,-0.001 L 27.78911,114.7179 9.2317,111.15889 Z"
       style="color:#000000;font-style:normal;font-variant:normal;font-weight:normal;font-stretch:normal;font-size:medium;line-height:normal;font-family:sans-serif;text-indent:0;text-align:start;text-decoration:none;text-decoration-line:none;text-decoration-style:solid;text-decoration-color:#000000;letter-spacing:normal;word-spacing:normal;text-transform:none;direction:ltr;block-progression:tb;writing-mode:lr-tb;baseline-shift:baseline;text-anchor:start;white-space:normal;clip-rule:nonzero;display:inline;overflow:visible;visibility:visible;opacity:1;isolation:auto;mix-blend-mode:normal;color-interpolation:sRGB;color-interpolation-filters:linearRGB;solid-color:#000000;solid-opacity:1;fill:#000000;fill-opacity:1;fill-rule:nonzero;stroke:none;stroke-width:10;stroke-linecap:round;stroke-linejoin:round;stroke-miterlimit:4;stroke-dasharray:none;stroke-dashoffset:0;stroke-opacity:1;color-rendering:auto;image-rendering:auto;shape-rendering:auto;text-rendering:auto;enable-background:accumulate" />
    <path
       style="fill:#000000;fill-opacity:1;fill-rule:nonzero;stroke:none;stroke-width:5;stroke-linecap:round;stroke-linejoin:round;stroke-miterlimit:4;stroke-dasharray:none;stroke-dashoffset:0;stroke-opacity:1"
       d="M 37.828125 82.910156 L 37.828125 95.328125 L 25.410156 95.328125 L 25.410156 104.67188 L 37.828125 104.67188 L 37.828125 117.08984 L 47.171875 117.08984 L 47.171875 104.67188 L 59.589844 104.67188 L 59.589844 95.328125 L 47.171875 95.328125 L 47.171875 82.910156 L 37.828125 82.910156 z "
       id="rect5289-2-3-8-6" />
  </g>
</svg>
