<?xml version="1.0" encoding="UTF-8" standalone="no"?>
<!-- Created with Inkscape (http://www.inkscape.org/) -->

<svg
   xmlns:dc="http://purl.org/dc/elements/1.1/"
   xmlns:cc="http://creativecommons.org/ns#"
   xmlns:rdf="http://www.w3.org/1999/02/22-rdf-syntax-ns#"
   xmlns:svg="http://www.w3.org/2000/svg"
   xmlns="http://www.w3.org/2000/svg"
   xmlns:sodipodi="http://sodipodi.sourceforge.net/DTD/sodipodi-0.dtd"
   xmlns:inkscape="http://www.inkscape.org/namespaces/inkscape"
   width="90"
   height="200"
   viewBox="0 0 90 200"
   id="svg4516"
   version="1.1"
   inkscape:version="0.91 r13725"
   sodipodi:docname="hex-river.svg">
  <defs
     id="defs4518" />
  <sodipodi:namedview
     id="base"
     pagecolor="#ffffff"
     bordercolor="#666666"
     borderopacity="1.0"
     inkscape:pageopacity="0.0"
     inkscape:pageshadow="2"
     inkscape:zoom="1.979899"
     inkscape:cx="-98.889962"
     inkscape:cy="83.831946"
     inkscape:document-units="px"
     inkscape:current-layer="svg4516"
     showgrid="false"
     units="px"
     inkscape:window-width="1680"
     inkscape:window-height="1005"
     inkscape:window-x="0"
     inkscape:window-y="1"
     inkscape:window-maximized="1" />
  <metadata
     id="metadata4521">
    <rdf:RDF>
      <cc:Work
         rdf:about="">
        <dc:format>image/svg+xml</dc:format>
        <dc:type
           rdf:resource="http://purl.org/dc/dcmitype/StillImage" />
        <dc:title />
      </cc:Work>
    </rdf:RDF>
  </metadata>
  <g
     inkscape:label="Layer 1"
     inkscape:groupmode="layer"
     id="layer1">
    <path
       sodipodi:type="star"
       style="fill:#ffffff;fill-opacity:1;fill-rule:nonzero;stroke:#000000;stroke-width:8;stroke-linecap:round;stroke-linejoin:round;stroke-miterlimit:4;stroke-dasharray:none;stroke-dashoffset:0;stroke-opacity:1"
       id="path4991-3"
       sodipodi:sides="6"
       sodipodi:cx="46.874537"
       sodipodi:cy="99.17366"
       sodipodi:r1="44.127022"
       sodipodi:r2="38.215118"
       sodipodi:arg1="0.52359878"
       sodipodi:arg2="1.0471976"
       inkscape:flatsided="true"
       inkscape:rounded="0"
       inkscape:randomized="0"
       d="M 85.08966,121.23717 46.874538,143.30068 8.6594165,121.23717 8.6594167,77.110149 46.874539,55.046638 85.08966,77.11015 Z" />
    <path
       sodipodi:nodetypes="cssssssssssscssssssscccccccc"
       inkscape:connector-curvature="0"
       id="path4593-8"
       d="m 48.29365,78.04462 c -1.4868,-0.0174 -2.9735,0.24989 -4.3379,0.78516 -2.015,0.79051 -4.1659,0.45972 -5.9297,-0.46485 -2.0499,-1.07454 -3.6957,0.77266 -3.0801,2.75 0.8538,2.74248 0.4818,5.67942 -0.2832,8.35743 -0.4493,1.57288 -0.2201,5.40303 1.9609,4.02539 1.4032,-0.88634 1.2972,-2.9789 1.7032,-4.51368 0.8074,-3.05213 3.4716,-6.24876 6.8242,-5.92578 2.5976,0.25024 4.4551,2.63614 5.584,4.83985 0.9491,1.85276 2.5379,4.2656 1.125,6.19336 -1.4638,1.99721 -3.838,3.13889 -5.8184,4.61718 -1.617,1.20704 -4.0288,1.72136 -4.9102,3.20508 -1.0442,1.75766 -1.2448,3.91195 1.0175,5.4648 2.2264,1.2095 4.0252,1.58369 5.6524,0.80078 0.8497,-0.40882 0.9836,-1.20175 0.164,-1.66797 -2.1823,-1.24138 -4.4008,-1.88931 -3,-3.12695 2.2452,-1.98373 9.0078,-3.57795 12.0703,-7.00391 1.7527,-1.96078 3.8647,-4.32693 3.2715,-7.17774 -0.6945,-3.33782 -2.5648,-6.36742 -5.1308,-8.62109 -1.9209,-1.68707 -4.401,-2.50804 -6.8789,-2.53711 z m -1.084,34.50977 c -0.2037,0.0107 -0.4116,0.0418 -0.6192,0.0937 -2.5306,0.52908 -5.2986,2.31758 -5.459,5.14257 -0.2649,2.20797 1.8432,4.13163 3.9981,3.90235 3.2397,-0.11042 5.5303,-3.65202 4.7246,-6.69141 0.029,-1.60905 -1.2191,-2.52243 -2.6445,-2.44726 z"
       style="font-style:normal;font-variant:normal;font-weight:normal;font-stretch:normal;font-size:50px;line-height:125%;font-family:CCTreasureTrove;-inkscape-font-specification:CCTreasureTrove;letter-spacing:0px;word-spacing:0px;fill:#000000;fill-opacity:1;stroke:none;stroke-width:1px;stroke-linecap:butt;stroke-linejoin:miter;stroke-opacity:1" />
    <path
       inkscape:connector-curvature="0"
       id="path4630"
       d="m 6.51315,49.8293 a 4.50045,4.50045 0 0 0 -4.29102,6.15039 l 3.46875,9.16992 -3.40234,8.01563 a 4.50045,4.50045 0 0 0 -0.043,3.41015 l 3.44727,8.73633 -3.43165,8.45703 a 4.50045,4.50045 0 0 0 0.01,3.40625 l 3.42188,8.29883 -3.45508,8.89258 a 4.50045,4.50045 0 0 0 0.0625,3.41211 l 3.39062,7.85742 -3.47656,9.32227 a 4.50045,4.50045 0 0 0 0.11719,3.42773 l 4.10742,9.07227 a 4.50045,4.50045 0 1 0 8.19922,-3.71289 l -3.3418,-7.38086 3.45899,-9.2793 a 4.50045,4.50045 0 0 0 -0.084,-3.35547 l -3.37695,-7.82422 3.43945,-8.85156 a 4.50045,4.50045 0 0 0 -0.0352,-3.3457 l -3.40625,-8.26172 3.41602,-8.41992 a 4.50045,4.50045 0 0 0 0.0156,-3.34375 l -3.42968,-8.69727 3.38672,-7.98242 a 4.50045,4.50045 0 0 0 0.0664,-3.34961 L 10.64023,52.7961 A 4.50045,4.50045 0 0 0 6.51328,49.8293 Z"
       style="color:#000000;font-style:normal;font-variant:normal;font-weight:normal;font-stretch:normal;font-size:medium;line-height:normal;font-family:sans-serif;text-indent:0;text-align:start;text-decoration:none;text-decoration-line:none;text-decoration-style:solid;text-decoration-color:#000000;letter-spacing:normal;word-spacing:normal;text-transform:none;direction:ltr;block-progression:tb;writing-mode:lr-tb;baseline-shift:baseline;text-anchor:start;white-space:normal;clip-rule:nonzero;display:inline;overflow:visible;visibility:visible;opacity:1;isolation:auto;mix-blend-mode:normal;color-interpolation:sRGB;color-interpolation-filters:linearRGB;solid-color:#000000;solid-opacity:1;fill:#68a2ff;fill-opacity:1;fill-rule:evenodd;stroke:#000000;stroke-width:2;stroke-linecap:round;stroke-linejoin:round;stroke-miterlimit:4;stroke-dasharray:none;stroke-dashoffset:0;stroke-opacity:1;color-rendering:auto;image-rendering:auto;shape-rendering:auto;text-rendering:auto;enable-background:accumulate" />
  </g>
</svg>
