<?xml version="1.0" encoding="UTF-8" standalone="no"?>
<!-- Created with Inkscape (http://www.inkscape.org/) -->

<svg
   xmlns:dc="http://purl.org/dc/elements/1.1/"
   xmlns:cc="http://creativecommons.org/ns#"
   xmlns:rdf="http://www.w3.org/1999/02/22-rdf-syntax-ns#"
   xmlns:svg="http://www.w3.org/2000/svg"
   xmlns="http://www.w3.org/2000/svg"
   xmlns:sodipodi="http://sodipodi.sourceforge.net/DTD/sodipodi-0.dtd"
   xmlns:inkscape="http://www.inkscape.org/namespaces/inkscape"
   width="55"
   height="200"
   viewBox="0 0 55 200"
   id="svg4516"
   version="1.1"
   inkscape:version="0.91 r13725"
   sodipodi:docname="if-then.svg">
  <defs
     id="defs4518" />
  <sodipodi:namedview
     id="base"
     pagecolor="#ffffff"
     bordercolor="#666666"
     borderopacity="1.0"
     inkscape:pageopacity="0.0"
     inkscape:pageshadow="2"
     inkscape:zoom="1.979899"
     inkscape:cx="-139.29606"
     inkscape:cy="184.8472"
     inkscape:document-units="px"
     inkscape:current-layer="layer1"
     showgrid="false"
     units="px"
     inkscape:window-width="1680"
     inkscape:window-height="1005"
     inkscape:window-x="0"
     inkscape:window-y="1"
     inkscape:window-maximized="1" />
  <metadata
     id="metadata4521">
    <rdf:RDF>
      <cc:Work
         rdf:about="">
        <dc:format>image/svg+xml</dc:format>
        <dc:type
           rdf:resource="http://purl.org/dc/dcmitype/StillImage" />
        <dc:title />
      </cc:Work>
    </rdf:RDF>
  </metadata>
  <g
     inkscape:label="Layer 1"
     inkscape:groupmode="layer"
     id="layer1">
    <path
       inkscape:connector-curvature="0"
       id="path4143"
       style="font-style:normal;font-variant:normal;font-weight:normal;font-stretch:normal;font-size:60px;line-height:125%;font-family:CCTreasureTrove;-inkscape-font-specification:CCTreasureTrove;letter-spacing:0px;word-spacing:0px;fill:#000000;fill-opacity:1;stroke:none;stroke-width:1px;stroke-linecap:butt;stroke-linejoin:miter;stroke-opacity:1"
       d="m 33.980001,108.25214 q 0,1.68 -0.66,3.06 -0.6,1.38 -1.74,2.34 -1.08,0.96 -2.58,1.5 -1.44,0.48 -3.18,0.48 -1.92,0 -3.36,-1.08 -1.44,-1.08 -1.44,-3.24 0,-2.22 1.08,-3.84 1.14,-1.62 3.06,-2.64 1.44,-0.78 2.82,-0.72 1.44,0.06 2.58,0.06 0.66,0 1.26,0.42 0.66,0.36 1.14,1.02 0.48,0.6 0.72,1.32 0.3,0.66 0.3,1.32 z m 0,-19.740004 q 0,1.68 -0.66,3.06 -0.6,1.38 -1.74,2.34 -1.08,0.96 -2.58,1.5 -1.44,0.48 -3.18,0.48 -1.92,0 -3.36,-1.08 -1.44,-1.08 -1.44,-3.24 0,-2.22 1.08,-3.84 1.14,-1.62 3.06,-2.64 1.44,-0.78 2.82,-0.72 1.44,0.06 2.58,0.06 0.66,0 1.26,0.42 0.66,0.36 1.14,1.02 0.48,0.6 0.72,1.32 0.3,0.66 0.3,1.32 z" />
  </g>
</svg>
