<?xml version="1.0" encoding="UTF-8" standalone="no"?>
<!-- Created with Inkscape (http://www.inkscape.org/) -->

<svg
   xmlns:dc="http://purl.org/dc/elements/1.1/"
   xmlns:cc="http://creativecommons.org/ns#"
   xmlns:rdf="http://www.w3.org/1999/02/22-rdf-syntax-ns#"
   xmlns:svg="http://www.w3.org/2000/svg"
   xmlns="http://www.w3.org/2000/svg"
   xmlns:sodipodi="http://sodipodi.sourceforge.net/DTD/sodipodi-0.dtd"
   xmlns:inkscape="http://www.inkscape.org/namespaces/inkscape"
   width="85"
   height="200"
   viewBox="0 0 85 200"
   id="svg4516"
   version="1.1"
   inkscape:version="0.91 r13725"
   sodipodi:docname="mage-adjacent.svg">
  <defs
     id="defs4518" />
  <sodipodi:namedview
     id="base"
     pagecolor="#ffffff"
     bordercolor="#666666"
     borderopacity="1.0"
     inkscape:pageopacity="0.0"
     inkscape:pageshadow="2"
     inkscape:zoom="1.979899"
     inkscape:cx="8.6912837"
     inkscape:cy="124.23805"
     inkscape:document-units="px"
     inkscape:current-layer="layer1"
     showgrid="false"
     units="px"
     inkscape:window-width="1680"
     inkscape:window-height="1005"
     inkscape:window-x="0"
     inkscape:window-y="1"
     inkscape:window-maximized="1" />
  <metadata
     id="metadata4521">
    <rdf:RDF>
      <cc:Work
         rdf:about="">
        <dc:format>image/svg+xml</dc:format>
        <dc:type
           rdf:resource="http://purl.org/dc/dcmitype/StillImage" />
        <dc:title />
      </cc:Work>
    </rdf:RDF>
  </metadata>
  <g
     inkscape:label="Layer 1"
     inkscape:groupmode="layer"
     id="layer1">
    <path
       d="m 1145.9559,907.74317 -22.929,13.23811 -22.9291,-13.23811 0,-26.47621 22.9291,-13.23811 22.929,13.23811 z"
       inkscape:randomized="0"
       inkscape:rounded="0"
       inkscape:flatsided="true"
       sodipodi:arg2="1.0471976"
       sodipodi:arg1="0.52359878"
       sodipodi:r2="22.929071"
       sodipodi:r1="26.476213"
       sodipodi:cy="894.50507"
       sodipodi:cx="1123.0269"
       sodipodi:sides="6"
       id="path4921"
       style="fill:none;fill-opacity:1;fill-rule:nonzero;stroke:#000000;stroke-width:4.80000019;stroke-linecap:round;stroke-linejoin:round;stroke-miterlimit:4;stroke-dasharray:none;stroke-dashoffset:0;stroke-opacity:1"
       sodipodi:type="star"
       transform="matrix(-0.5,-0.8660254,0.8660254,-0.5,-159.18618,1539.6794)" />
    <path
       sodipodi:type="star"
       style="fill:none;fill-opacity:1;fill-rule:nonzero;stroke:#000000;stroke-width:4.80000019;stroke-linecap:round;stroke-linejoin:round;stroke-miterlimit:4;stroke-dasharray:none;stroke-dashoffset:0;stroke-opacity:1"
       id="path4927"
       sodipodi:sides="6"
       sodipodi:cx="1168.8849"
       sodipodi:cy="894.50507"
       sodipodi:r1="26.476213"
       sodipodi:r2="22.929071"
       sodipodi:arg1="0.52359878"
       sodipodi:arg2="1.0471976"
       inkscape:flatsided="true"
       inkscape:rounded="0"
       inkscape:randomized="0"
       d="m 1191.814,907.74317 -22.9291,13.23811 -22.9291,-13.23811 0,-26.47621 22.9291,-13.23811 22.9291,13.23811 z"
       transform="matrix(-0.5,-0.8660254,0.8660254,-0.5,-159.18618,1539.6794)" />
    <path
       style="color:#000000;clip-rule:nonzero;display:inline;overflow:visible;visibility:visible;opacity:1;isolation:auto;mix-blend-mode:normal;color-interpolation:sRGB;color-interpolation-filters:linearRGB;solid-color:#000000;solid-opacity:1;fill:#000000;fill-opacity:1;fill-rule:evenodd;stroke:none;stroke-width:5;stroke-linecap:butt;stroke-linejoin:miter;stroke-miterlimit:4;stroke-dasharray:none;stroke-dashoffset:0;stroke-opacity:1;color-rendering:auto;image-rendering:auto;shape-rendering:auto;text-rendering:auto;enable-background:accumulate"
       d="m 31.0354,62.29575 c -2.9425,0.10509 -4.398,2.2763 -4.7027,3.73066 -0.3086,1.47272 0.4202,4.30855 0.4202,4.30855 0,0 -4.0947,1.51154 -5.8325,2.785 -1.4819,1.08591 -3.58,2.67687 -3.8359,4.67673 -0.1592,1.24377 0.9984,2.24124 2.2071,2.57489 1.5842,0.4373 4.5905,-1.47983 5.4647,-0.15768 0.8605,1.03148 -0.7987,3.92147 -1.8917,5.62241 -1.7166,2.67123 -4.1287,8.11241 -2.6798,8.14446 1.5008,0.0332 5.4426,-0.0277 7.8295,-0.10485 0.9171,-0.0296 1.8651,-4.62431 3.0211,-4.62431 1.1561,0 2.1045,4.59467 3.0215,4.62431 2.387,0.0772 6.3288,0.13806 7.8296,0.10485 1.4489,-0.032 -0.9636,-5.47323 -2.6802,-8.14446 -1.093,-1.70094 -2.7518,-4.59093 -1.8913,-5.62241 0.8742,-1.32215 3.8805,0.59498 5.4647,0.15768 1.2087,-0.33365 2.3659,-1.33112 2.2067,-2.57489 -0.2559,-1.99986 -2.354,-3.59082 -3.8359,-4.67673 -1.7378,-1.27346 -5.8325,-2.785 -5.8325,-2.785 0,0 0.7292,-2.83583 0.4206,-4.30855 -0.3047,-1.45436 -1.7606,-3.62557 -4.7032,-3.73066 z"
       id="path4923"
       inkscape:connector-curvature="0" />
    <circle
       style="fill:#000000;fill-opacity:1;fill-rule:evenodd;stroke:none;stroke-width:1;stroke-linecap:butt;stroke-linejoin:miter;stroke-miterlimit:4;stroke-dasharray:none;stroke-dashoffset:0;stroke-opacity:1"
       id="path4935"
       cx="53.96452"
       cy="119.85711"
       r="4.6428571" />
  </g>
</svg>
