<?xml version="1.0" encoding="UTF-8" standalone="no"?>
<!-- Created with Inkscape (http://www.inkscape.org/) -->

<svg
   xmlns:dc="http://purl.org/dc/elements/1.1/"
   xmlns:cc="http://creativecommons.org/ns#"
   xmlns:rdf="http://www.w3.org/1999/02/22-rdf-syntax-ns#"
   xmlns:svg="http://www.w3.org/2000/svg"
   xmlns="http://www.w3.org/2000/svg"
   xmlns:sodipodi="http://sodipodi.sourceforge.net/DTD/sodipodi-0.dtd"
   xmlns:inkscape="http://www.inkscape.org/namespaces/inkscape"
   width="85"
   height="200"
   viewBox="0 0 85 200"
   id="svg4516"
   version="1.1"
   inkscape:version="0.91 r13725"
   sodipodi:docname="spell.svg">
  <defs
     id="defs4518" />
  <sodipodi:namedview
     id="base"
     pagecolor="#ffffff"
     bordercolor="#666666"
     borderopacity="1.0"
     inkscape:pageopacity="0.0"
     inkscape:pageshadow="2"
     inkscape:zoom="1.979899"
     inkscape:cx="-38.28081"
     inkscape:cy="83.831946"
     inkscape:document-units="px"
     inkscape:current-layer="layer1"
     showgrid="false"
     units="px"
     inkscape:window-width="1680"
     inkscape:window-height="1005"
     inkscape:window-x="0"
     inkscape:window-y="1"
     inkscape:window-maximized="1" />
  <metadata
     id="metadata4521">
    <rdf:RDF>
      <cc:Work
         rdf:about="">
        <dc:format>image/svg+xml</dc:format>
        <dc:type
           rdf:resource="http://purl.org/dc/dcmitype/StillImage" />
        <dc:title />
      </cc:Work>
    </rdf:RDF>
  </metadata>
  <g
     inkscape:label="Layer 1"
     inkscape:groupmode="layer"
     id="layer1">
    <path
       sodipodi:nodetypes="cccccccccccccc"
       style="color:#000000;clip-rule:nonzero;display:inline;overflow:visible;visibility:visible;opacity:1;isolation:auto;mix-blend-mode:normal;color-interpolation:sRGB;color-interpolation-filters:linearRGB;solid-color:#000000;solid-opacity:1;fill:#ffffff;fill-opacity:1;fill-rule:evenodd;stroke:none;stroke-width:5;stroke-linecap:butt;stroke-linejoin:miter;stroke-miterlimit:4;stroke-dasharray:none;stroke-dashoffset:0;stroke-opacity:1;color-rendering:auto;image-rendering:auto;shape-rendering:auto;text-rendering:auto;enable-background:accumulate"
       d="m 18.80739,73.21864 -8.3929,-0.53571 1.0714,-6.07143 5.5358,-3.21428 53.75,1.25 3.9285,4.82142 -6.1785,57.67858 6.0714,0.71428 -0.8929,5.17857 -5,3.21429 -49.4643,0.17857 -4.8214,-3.92857 -0.8928,-7.32143 z"
       id="path4433"
       inkscape:connector-curvature="0" />
    <path
       sodipodi:nodetypes="ccccccccsccccccsccscsccsccccssccscccccsccccccccccccccccccccc"
       style="color:#000000;font-style:normal;font-variant:normal;font-weight:normal;font-stretch:normal;font-size:medium;line-height:normal;font-family:sans-serif;text-indent:0;text-align:start;text-decoration:none;text-decoration-line:none;text-decoration-style:solid;text-decoration-color:#000000;letter-spacing:normal;word-spacing:normal;text-transform:none;direction:ltr;block-progression:tb;writing-mode:lr-tb;baseline-shift:baseline;text-anchor:start;white-space:normal;clip-rule:nonzero;display:inline;overflow:visible;visibility:visible;opacity:1;isolation:auto;mix-blend-mode:normal;color-interpolation:sRGB;color-interpolation-filters:linearRGB;solid-color:#000000;solid-opacity:1;fill:#000000;fill-opacity:1;fill-rule:evenodd;stroke:none;stroke-width:6;stroke-linecap:round;stroke-linejoin:miter;stroke-miterlimit:4;stroke-dasharray:none;stroke-dashoffset:0;stroke-opacity:1;color-rendering:auto;image-rendering:auto;shape-rendering:auto;text-rendering:auto;enable-background:accumulate"
       d="m 15.06079,60.82923 -0.1036,0.008 c 0,0 -2.4915,0.26708 -4.4433,2.15039 -1.9519,1.8833 -3.4501,5.24258 -3.3496,10.36523 l 0.057,2.94141 9.7559,0 c 0,20.72221 -6.3496,33.23571 -6.3496,51.16992 l 0,0.0644 c 0.11,2.9706 1.0049,5.70994 2.5371,7.87305 1.4868,2.09905 3.8171,3.78492 6.6289,3.73633 0.093,0.005 0.1784,-0.0325 0.2715,-0.0312 0.20812,0.0432 0.42025,0.0641 0.6328,0.0625 l 48.7852,0 -0.1192,-0.004 c 3.3575,0.1343 6.1061,-2.17629 7.2032,-4.58984 1.097,-2.41355 1.2734,-4.96471 1.2734,-7.15625 l 0,-3 -6.0176,0 c 0,-13.01123 6,-28.07236 6,-53.71484 0,-2.62338 -0.8482,-4.96074 -2.2012,-6.73243 -1.3529,-1.77168 -3.279,-3.14257 -5.7089,-3.14257 l -53.8946,0 c -0.18986,-0.002 -0.37951,0.0134 -0.5664,0.0469 -0.1001,-0.003 -0.1884,-0.0469 -0.289,-0.0469 l -0.1035,0 z m 7.6601,6 47.1934,0 c -0.1086,0 0.4193,0.10148 0.9414,0.78515 0.5221,0.68368 0.9687,1.78466 0.9687,3.08985 0,22.72891 -6,41.33983 -6,53.71484 l -43.4101,0 0,3 c 0,0.99107 -0.3082,3.04757 -0.8946,4.34375 -0.2931,0.64809 -0.6392,1.08467 -0.8515,1.25586 -0.2124,0.17118 -0.2033,0.1883 -0.541,0.16015 l -0.2071,-0.0176 -0.209,0.0117 c -0.2861,0.0159 -0.9038,-0.18711 -1.6484,-1.23829 -0.7424,-1.04806 -1.3639,-2.76672 -1.4355,-4.61132 0,-17.9325 6.3574,-27.78859 6.3574,-51.91011 0.087,-2.45299 0.4504,-5.4414 -0.2031,-8.41211 -0.013,-0.0569 -0.047,-0.1147 -0.061,-0.17187 z m -7.4101,0.0332 c 0.6767,0.0324 0.9799,0.15074 1.0976,0.25781 0.1334,0.12134 0.3489,0.43001 0.5117,1.16992 0.094,0.42649 -0.01,1.3971 0.02,2.00391 l -3.4258,0 c 0.3212,-1.5643 0.7784,-2.61433 1.166,-2.98828 0.5425,-0.5235 0.6131,-0.45226 0.6309,-0.44336 z m 12.8222,63.55664 43.2363,0 c -0.1131,0.5458 -0.097,1.30712 -0.2636,1.67383 -0.4655,1.02394 -0.3932,1.1224 -1.5,1.07812 l -0.061,-0.002 -42.2265,0 c 0.3393,-0.93779 0.6599,-1.86627 0.8144,-2.75 z"
       id="path6156-4"
       inkscape:connector-curvature="0" />
    <rect
       y="79.182121"
       x="62.745064"
       height="9.1589251"
       width="9.1071424"
       id="rect6159-66"
       style="fill:#000000;fill-opacity:1;fill-rule:nonzero;stroke:none;stroke-width:4;stroke-linecap:round;stroke-linejoin:miter;stroke-miterlimit:4;stroke-dasharray:none;stroke-dashoffset:0;stroke-opacity:1"
       transform="matrix(1,0,-0.10618691,0.99434619,0,0)" />
    <rect
       style="fill:#000000;fill-opacity:1;fill-rule:nonzero;stroke:none;stroke-width:4;stroke-linecap:round;stroke-linejoin:miter;stroke-miterlimit:4;stroke-dasharray:none;stroke-dashoffset:0;stroke-opacity:1"
       id="rect6161-5"
       width="9.1071424"
       height="9.1589251"
       x="38.745064"
       y="91.250351"
       transform="matrix(1,0,-0.10618691,0.99434619,0,0)" />
    <rect
       y="91.250351"
       x="62.745064"
       height="9.1589251"
       width="9.1071424"
       id="rect6163-9"
       style="fill:#000000;fill-opacity:1;fill-rule:nonzero;stroke:none;stroke-width:4;stroke-linecap:round;stroke-linejoin:miter;stroke-miterlimit:4;stroke-dasharray:none;stroke-dashoffset:0;stroke-opacity:1"
       transform="matrix(1,0,-0.10618691,0.99434619,0,0)" />
    <rect
       style="fill:#000000;fill-opacity:1;fill-rule:nonzero;stroke:none;stroke-width:4;stroke-linecap:round;stroke-linejoin:miter;stroke-miterlimit:4;stroke-dasharray:none;stroke-dashoffset:0;stroke-opacity:1"
       id="rect6165-0"
       width="9.1071424"
       height="9.1589251"
       x="50.745064"
       y="103.31859"
       transform="matrix(1,0,-0.10618691,0.99434619,0,0)" />
    <rect
       y="79.182121"
       x="50.745064"
       height="9.1589251"
       width="9.1071424"
       id="rect6167-8"
       style="fill:#000000;fill-opacity:1;fill-rule:nonzero;stroke:none;stroke-width:4;stroke-linecap:round;stroke-linejoin:miter;stroke-miterlimit:4;stroke-dasharray:none;stroke-dashoffset:0;stroke-opacity:1"
       transform="matrix(1,0,-0.10618691,0.99434619,0,0)" />
  </g>
</svg>
