<?xml version="1.0" encoding="UTF-8" standalone="no"?>
<svg
   version="1.1"
   id="svg_root"
   width="63.5mm"
   height="88.9mm"
   viewBox="0 0 63.5 88.9"
   sodipodi:docname="formation-template.svg"
   inkscape:version="1.3.2 (091e20e, 2023-11-25)"
   inkscape:export-filename="png/formation-you.png"
   inkscape:export-xdpi="300"
   inkscape:export-ydpi="300"
   xmlns:inkscape="http://www.inkscape.org/namespaces/inkscape"
   xmlns:sodipodi="http://sodipodi.sourceforge.net/DTD/sodipodi-0.dtd"
   xmlns="http://www.w3.org/2000/svg"
   xmlns:svg="http://www.w3.org/2000/svg">
  <sodipodi:namedview
     id="namedview200"
     pagecolor="#ffffff"
     bordercolor="#666666"
     borderopacity="1.0"
     inkscape:showpageshadow="2"
     inkscape:pageopacity="0.0"
     inkscape:pagecheckerboard="0"
     inkscape:deskcolor="#d1d1d1"
     inkscape:document-units="mm"
     showgrid="false"
     inkscape:zoom="3.516207"
     inkscape:cx="129.1164"
     inkscape:cy="182.01431"
     inkscape:window-width="1656"
     inkscape:window-height="982"
     inkscape:window-x="14"
     inkscape:window-y="38"
     inkscape:window-maximized="0"
     inkscape:current-layer="g87" />
  <defs
     id="defs132">
    <marker
       style="overflow:visible"
       id="ArrowWideHeavy"
       refX="0"
       refY="0"
       orient="auto-start-reverse"
       inkscape:stockid="Wide, heavy arrow"
       markerWidth="0.5"
       markerHeight="0.5"
       viewBox="0 0 1 1"
       inkscape:isstock="true"
       inkscape:collect="always"
       preserveAspectRatio="xMidYMid">
      <path
         style="fill:context-stroke;fill-rule:evenodd;stroke:none"
         d="m 1,0 -3,3 h -2 l 3,-3 -3,-3 h 2 z"
         id="path3" />
    </marker>
  </defs>
  <g
     id="card00"
     inkscape:label="Base"
     inkscape:groupmode="layer"
     style="display:inline">
    <rect
       id="rect1001"
       x="0"
       y="0"
       width="63.5"
       height="88.900002"
       rx="3"
       ry="3"
       style="display:inline;fill:#ffffff;stroke:none;stroke-width:0"
       sodipodi:insensitive="true" />
  </g>
  <g
     inkscape:groupmode="layer"
     id="layer7"
     inkscape:label="Monster Under"
     style="display:none">
    <g
       id="g1">
      <path
         id="path104"
         style="fill:none;fill-rule:evenodd;stroke:#000000;stroke-width:0.325001;stroke-linecap:round;stroke-dasharray:0.0325001, 0.975003;stroke-dashoffset:0;marker-end:url(#ArrowWideHeavy)"
         d="m 26.458328,54.755015 7.367121,6.611082" />
      <path
         id="path103"
         style="fill:none;fill-rule:evenodd;stroke:#000000;stroke-width:0.325;stroke-linecap:round;stroke-dasharray:0.0325, 0.975;stroke-dashoffset:0;marker-end:url(#ArrowWideHeavy)"
         d="M 26.458328,54.755015 19.091221,61.36609" />
      <path
         id="path94"
         style="fill:none;fill-rule:evenodd;stroke:#000000;stroke-width:0.325001;stroke-linecap:round;stroke-dasharray:0.0325001, 0.975003;stroke-dashoffset:0.585002;marker-end:url(#ArrowWideHeavy)"
         d="m 26.458328,54.755017 2e-6,6.109982" />
    </g>
    <circle
       style="fill:none;fill-opacity:1;fill-rule:evenodd;stroke:#000000;stroke-width:0.2;stroke-linecap:round;stroke-dasharray:none;stroke-dashoffset:0;stroke-opacity:1"
       id="circle100"
       cx="26.458326"
       cy="107.67166"
       r="11.356412" />
    <circle
       style="fill:none;fill-opacity:1;fill-rule:evenodd;stroke:#000000;stroke-width:0.2;stroke-linecap:round;stroke-dasharray:none;stroke-dashoffset:0;stroke-opacity:1"
       id="circle101"
       cx="26.458326"
       cy="107.67166"
       r="6.1101942" />
    <g
       id="g15">
      <path
         id="path15"
         style="fill:none;fill-rule:evenodd;stroke:#000000;stroke-width:0.325001;stroke-linecap:round;stroke-dasharray:0.0325001, 0.975003;stroke-dashoffset:0"
         d="m 37.041661,54.755015 3.251606,2.917915" />
      <path
         id="path13"
         style="fill:none;fill-rule:evenodd;stroke:#000000;stroke-width:0.325;stroke-linecap:round;stroke-dasharray:0.0325, 0.975;stroke-dashoffset:0"
         d="m 37.041661,54.755015 -3.2516,2.917912" />
      <path
         id="path14"
         style="fill:none;fill-rule:evenodd;stroke:#000000;stroke-width:0.325001;stroke-linecap:round;stroke-dasharray:0.0325001, 0.975003;stroke-dashoffset:0"
         d="m 37.041661,54.755017 1e-6,4.373722" />
    </g>
    <circle
       style="fill:none;fill-opacity:1;fill-rule:evenodd;stroke:#000000;stroke-width:0.2;stroke-linecap:round;stroke-dasharray:none;stroke-dashoffset:0;stroke-opacity:1"
       id="circle11"
       cx="37.04166"
       cy="97.088333"
       r="4.3736849" />
    <g
       id="g18"
       transform="translate(10.583333)">
      <path
         id="path16"
         style="fill:none;fill-rule:evenodd;stroke:#000000;stroke-width:0.325001;stroke-linecap:round;stroke-dasharray:0.0325001, 0.975003;stroke-dashoffset:0"
         d="m 37.041661,54.755015 3.251606,2.917915" />
      <path
         id="path17"
         style="fill:none;fill-rule:evenodd;stroke:#000000;stroke-width:0.325;stroke-linecap:round;stroke-dasharray:0.0325, 0.975;stroke-dashoffset:0"
         d="m 37.041661,54.755015 -3.2516,2.917912" />
      <path
         id="path18"
         style="fill:none;fill-rule:evenodd;stroke:#000000;stroke-width:0.325001;stroke-linecap:round;stroke-dasharray:0.0325001, 0.975003;stroke-dashoffset:0"
         d="m 37.041661,54.755017 1e-6,4.373722" />
    </g>
    <g
       id="g21"
       transform="translate(-21.166667)">
      <path
         id="path19"
         style="fill:none;fill-rule:evenodd;stroke:#000000;stroke-width:0.325001;stroke-linecap:round;stroke-dasharray:0.0325001, 0.975003;stroke-dashoffset:0"
         d="m 37.041661,54.755015 3.251606,2.917915" />
      <path
         id="path20"
         style="fill:none;fill-rule:evenodd;stroke:#000000;stroke-width:0.325;stroke-linecap:round;stroke-dasharray:0.0325, 0.975;stroke-dashoffset:0"
         d="m 37.041661,54.755015 -3.2516,2.917912" />
      <path
         id="path21"
         style="fill:none;fill-rule:evenodd;stroke:#000000;stroke-width:0.325001;stroke-linecap:round;stroke-dasharray:0.0325001, 0.975003;stroke-dashoffset:0"
         d="m 37.041661,54.755017 1e-6,4.373722" />
    </g>
  </g>
  <g
     inkscape:groupmode="layer"
     id="layer2"
     inkscape:label="Player Under"
     style="display:inline">
    <text
       id="spell-title"
       xml:space="preserve"
       style="font-style:normal;font-weight:normal;font-size:3.52778px;line-height:125%;font-family:'Arial Narrow';text-align:center;letter-spacing:0px;word-spacing:0px;text-anchor:middle;display:inline;fill:#000000;fill-opacity:1;stroke:none;stroke-width:0.264583"
       x="31.711782"
       y="6.4669905"
       inkscape:label="title"><tspan
         x="31.711782"
         y="6.4669905"
         style="font-style:normal;font-variant:normal;font-weight:bold;font-stretch:normal;font-size:3.52778px;font-family:CCTreasureTrove;-inkscape-font-specification:'CCTreasureTrove Bold';fill:#000000;fill-opacity:1;stroke-width:0.264583"
         id="tspan64-5">Your Attacks</tspan></text>
    <flowRoot
       transform="matrix(0.26458333,0,0,0.26458333,-25.751392,-25.825894)"
       xml:space="preserve"
       id="flowRoot1036"
       style="font-style:normal;font-weight:normal;font-size:10px;line-height:125%;font-family:sans-serif;letter-spacing:0px;word-spacing:0px;display:inline;fill:#000000;fill-opacity:1;stroke:none;stroke-width:1px;stroke-linecap:butt;stroke-linejoin:miter;stroke-opacity:1"><flowRegion
         id="flowRegion1026"><rect
           x="28.799999"
           y="146"
           width="180.10165"
           height="149.34264"
           id="rect1024"
           style="stroke-width:1px" /></flowRegion><flowPara
         style="font-style:normal;font-variant:normal;font-weight:normal;font-stretch:normal;font-size:9.33333px;font-family:Arial;-inkscape-font-specification:Arial"
         id="flowPara1049">Recover</flowPara></flowRoot>
    <flowRoot
       transform="matrix(0.26458333,0,0,0.26458333,-28.397226,-29.530059)"
       xml:space="preserve"
       id="flowRoot1152"
       style="font-style:normal;font-weight:normal;font-size:10px;line-height:125%;font-family:sans-serif;letter-spacing:0px;word-spacing:0px;display:inline;fill:#000000;fill-opacity:1;stroke:none;stroke-width:1px;stroke-linecap:butt;stroke-linejoin:miter;stroke-opacity:1"><flowRegion
         id="flowRegion1148"><rect
           x="28.799999"
           y="146"
           width="180.10165"
           height="149.34264"
           id="rect1146"
           style="stroke-width:1px" /></flowRegion><flowPara
         style="font-style:normal;font-variant:normal;font-weight:bold;font-stretch:normal;font-size:10.6667px;font-family:Arial;-inkscape-font-specification:'Arial Bold'"
         id="flowPara1150">Choose one:</flowPara></flowRoot>
    <g
       id="g52"
       style="display:inline">
      <path
         id="path51"
         style="fill:none;fill-rule:evenodd;stroke:#000000;stroke-width:0.325001;stroke-linecap:round;stroke-dasharray:0.0325001, 0.975003;stroke-dashoffset:0"
         d="m 37.041671,64.252235 3.373471,-5.347968" />
      <path
         id="path52"
         style="fill:none;fill-rule:evenodd;stroke:#000000;stroke-width:0.325001;stroke-linecap:round;stroke-dasharray:0.0325001, 0.975003;stroke-dashoffset:0"
         d="m 37.041671,64.252235 -3.369875,-5.34227" />
      <path
         id="path47"
         style="fill:none;fill-rule:evenodd;stroke:#000000;stroke-width:0.325001;stroke-linecap:round;stroke-dasharray:0.0325001, 0.975003;stroke-dashoffset:0"
         d="m 37.041669,57.978718 2e-6,6.273515" />
    </g>
    <path
       id="path50"
       style="fill:none;fill-rule:evenodd;stroke:#000000;stroke-width:0.2;stroke-linecap:round"
       d="m 43.500001,101.2939 a 6.4583292,6.2735147 0 0 1 -6.458329,6.27351 6.4583292,6.2735147 0 0 1 -6.458329,-6.27351 6.4583292,6.2735147 0 0 1 6.458329,-6.273518 6.4583292,6.2735147 0 0 1 6.458329,6.273518 z" />
    <g
       id="g55"
       transform="translate(10.583333)">
      <path
         id="path54"
         style="fill:none;fill-rule:evenodd;stroke:#000000;stroke-width:0.325001;stroke-linecap:round;stroke-dasharray:0.0325001, 0.975003;stroke-dashoffset:0"
         d="m 37.041671,64.252235 -3.369875,-5.34227" />
      <path
         id="path55"
         style="fill:none;fill-rule:evenodd;stroke:#000000;stroke-width:0.325001;stroke-linecap:round;stroke-dasharray:0.0325001, 0.975003;stroke-dashoffset:0"
         d="m 37.041669,57.978718 2e-6,6.273515" />
    </g>
    <g
       id="g58"
       transform="translate(21.166667)">
      <path
         id="path57"
         style="fill:none;fill-rule:evenodd;stroke:#000000;stroke-width:0.325001;stroke-linecap:round;stroke-dasharray:0.0325001, 0.975003;stroke-dashoffset:0"
         d="m 37.041671,64.252235 -3.369875,-5.34227" />
    </g>
    <g
       id="g60"
       transform="translate(-21.166667)"
       style="display:inline">
      <path
         id="path58"
         style="fill:none;fill-rule:evenodd;stroke:#000000;stroke-width:0.325001;stroke-linecap:round;stroke-dasharray:0.0325001, 0.975003;stroke-dashoffset:0"
         d="m 37.041671,64.252235 3.373471,-5.347968" />
      <path
         id="path60"
         style="fill:none;fill-rule:evenodd;stroke:#000000;stroke-width:0.325001;stroke-linecap:round;stroke-dasharray:0.0325001, 0.975003;stroke-dashoffset:0"
         d="m 37.041669,57.978718 2e-6,6.273515" />
    </g>
    <g
       id="g88"
       transform="translate(-31.750001)"
       style="display:inline">
      <path
         id="path87"
         style="fill:none;fill-rule:evenodd;stroke:#000000;stroke-width:0.325001;stroke-linecap:round;stroke-dasharray:0.0325001, 0.975003;stroke-dashoffset:0"
         d="m 37.041671,64.252235 3.373471,-5.347968" />
    </g>
  </g>
  <g
     inkscape:groupmode="layer"
     id="layer5"
     inkscape:label="Shared"
     style="display:inline">
    <path
       style="color:#000000;clip-rule:nonzero;display:inline;overflow:visible;visibility:visible;isolation:auto;mix-blend-mode:normal;color-interpolation:sRGB;color-interpolation-filters:linearRGB;solid-color:#000000;solid-opacity:1;fill:#ffffff;fill-opacity:1;fill-rule:evenodd;stroke:#000000;stroke-width:0.2;stroke-linecap:butt;stroke-linejoin:miter;stroke-miterlimit:4;stroke-dasharray:none;stroke-dashoffset:0;stroke-opacity:1;color-rendering:auto;image-rendering:auto;shape-rendering:auto;text-rendering:auto;enable-background:accumulate"
       d="m 37.041661,61.854777 c -0.445173,0.01589 -0.665368,0.344371 -0.711461,0.564393 -0.04669,0.222799 0.06357,0.651824 0.06357,0.651824 0,0 -0.619472,0.228682 -0.882384,0.421336 -0.224188,0.164278 -0.5416,0.404979 -0.580314,0.70753 -0.02408,0.188162 0.151045,0.33907 0.333905,0.389538 0.239665,0.06617 0.694477,-0.223879 0.826732,-0.02385 0.130184,0.156056 -0.120831,0.593267 -0.286195,0.850596 -0.259689,0.404127 -0.62461,1.2273 -0.405405,1.232148 0.227047,0.005 0.823382,-0.0041 1.1845,-0.01586 0.138737,-0.0045 0.282164,-0.699597 0.457055,-0.699597 0.17489,0 0.318373,0.695112 0.457109,0.699597 0.361119,0.01171 0.957453,0.02088 1.184501,0.01586 0.219214,-0.0048 -0.145771,-0.828021 -0.40547,-1.232148 -0.165359,-0.257329 -0.416316,-0.69454 -0.286131,-0.850596 0.132256,-0.200025 0.587068,0.09002 0.826742,0.02385 0.18286,-0.05047 0.357923,-0.201376 0.33384,-0.389538 -0.03871,-0.302551 -0.356133,-0.543252 -0.580321,-0.70753 -0.262912,-0.192654 -0.882386,-0.421336 -0.882386,-0.421336 0,0 0.11032,-0.429025 0.06365,-0.651824 -0.04611,-0.220022 -0.266353,-0.548498 -0.711525,-0.564393 z"
       id="path42"
       inkscape:connector-curvature="0"
       inkscape:label="ref-mage" />
    <path
       style="color:#000000;clip-rule:nonzero;display:inline;overflow:visible;visibility:visible;isolation:auto;mix-blend-mode:normal;color-interpolation:sRGB;color-interpolation-filters:linearRGB;solid-color:#000000;solid-opacity:1;fill:#ffffff;fill-opacity:1;fill-rule:evenodd;stroke:#000000;stroke-width:0.2;stroke-linecap:butt;stroke-linejoin:miter;stroke-miterlimit:4;stroke-dasharray:none;stroke-dashoffset:0;stroke-opacity:1;color-rendering:auto;image-rendering:auto;shape-rendering:auto;text-rendering:auto;enable-background:accumulate"
       d="m 47.624997,61.854777 c -0.445173,0.01589 -0.665368,0.344371 -0.711461,0.564393 -0.04669,0.222799 0.06357,0.651824 0.06357,0.651824 0,0 -0.619472,0.228682 -0.882384,0.421336 -0.224188,0.164278 -0.5416,0.404979 -0.580314,0.70753 -0.02408,0.188162 0.151045,0.33907 0.333905,0.389538 0.239665,0.06617 0.694477,-0.223879 0.826732,-0.02385 0.130184,0.156056 -0.120831,0.593267 -0.286195,0.850596 -0.259689,0.404127 -0.62461,1.2273 -0.405405,1.232148 0.227047,0.005 0.823382,-0.0041 1.1845,-0.01586 0.138737,-0.0045 0.282164,-0.699597 0.457055,-0.699597 0.17489,0 0.318373,0.695112 0.457109,0.699597 0.361119,0.01171 0.957453,0.02088 1.184501,0.01586 0.219214,-0.0048 -0.145771,-0.828021 -0.40547,-1.232148 -0.165359,-0.257329 -0.416316,-0.69454 -0.286131,-0.850596 0.132256,-0.200025 0.587068,0.09002 0.826742,0.02385 0.18286,-0.05047 0.357923,-0.201376 0.33384,-0.389538 -0.03871,-0.302551 -0.356133,-0.543252 -0.580321,-0.70753 -0.262912,-0.192654 -0.882386,-0.421336 -0.882386,-0.421336 0,0 0.11032,-0.429025 0.06365,-0.651824 -0.04611,-0.220022 -0.266353,-0.548498 -0.711525,-0.564393 z"
       id="path43"
       inkscape:connector-curvature="0"
       inkscape:label="ref-mage" />
    <path
       style="color:#000000;clip-rule:nonzero;display:inline;overflow:visible;visibility:visible;isolation:auto;mix-blend-mode:normal;color-interpolation:sRGB;color-interpolation-filters:linearRGB;solid-color:#000000;solid-opacity:1;fill:#ffffff;fill-opacity:1;fill-rule:evenodd;stroke:#000000;stroke-width:0.2;stroke-linecap:butt;stroke-linejoin:miter;stroke-miterlimit:4;stroke-dasharray:none;stroke-dashoffset:0;stroke-opacity:1;color-rendering:auto;image-rendering:auto;shape-rendering:auto;text-rendering:auto;enable-background:accumulate"
       d="m 58.208335,61.854777 c -0.445173,0.01589 -0.665368,0.344371 -0.711461,0.564393 -0.04669,0.222799 0.06357,0.651824 0.06357,0.651824 0,0 -0.619472,0.228682 -0.882384,0.421336 -0.224188,0.164278 -0.5416,0.404979 -0.580314,0.70753 -0.02408,0.188162 0.151045,0.33907 0.333905,0.389538 0.239665,0.06617 0.694477,-0.223879 0.826732,-0.02385 0.130184,0.156056 -0.120831,0.593267 -0.286195,0.850596 -0.259689,0.404127 -0.62461,1.2273 -0.405405,1.232148 0.227047,0.005 0.823382,-0.0041 1.1845,-0.01586 0.138737,-0.0045 0.282164,-0.699597 0.457055,-0.699597 0.17489,0 0.318373,0.695112 0.457109,0.699597 0.361119,0.01171 0.957453,0.02088 1.184501,0.01586 0.219214,-0.0048 -0.145771,-0.828021 -0.40547,-1.232148 -0.165359,-0.257329 -0.416316,-0.69454 -0.286131,-0.850596 0.132256,-0.200025 0.587068,0.09002 0.826742,0.02385 0.18286,-0.05047 0.357923,-0.201376 0.33384,-0.389538 -0.03871,-0.302551 -0.356133,-0.543252 -0.580321,-0.70753 -0.262912,-0.192654 -0.882386,-0.421336 -0.882386,-0.421336 0,0 0.11032,-0.429025 0.06365,-0.651824 -0.04611,-0.220022 -0.266353,-0.548498 -0.711525,-0.564393 z"
       id="path44"
       inkscape:connector-curvature="0"
       inkscape:label="ref-mage" />
    <path
       style="color:#000000;clip-rule:nonzero;display:inline;overflow:visible;visibility:visible;isolation:auto;mix-blend-mode:normal;color-interpolation:sRGB;color-interpolation-filters:linearRGB;solid-color:#000000;solid-opacity:1;fill:#ffffff;fill-opacity:1;fill-rule:evenodd;stroke:#000000;stroke-width:0.2;stroke-linecap:butt;stroke-linejoin:miter;stroke-miterlimit:4;stroke-dasharray:none;stroke-dashoffset:0;stroke-opacity:1;color-rendering:auto;image-rendering:auto;shape-rendering:auto;text-rendering:auto;enable-background:accumulate"
       d="m 15.874999,61.854777 c -0.445173,0.01589 -0.665368,0.344371 -0.711461,0.564393 -0.04669,0.222799 0.06357,0.651824 0.06357,0.651824 0,0 -0.619472,0.228682 -0.882384,0.421336 -0.224188,0.164278 -0.5416,0.404979 -0.580314,0.70753 -0.02408,0.188162 0.151045,0.33907 0.333905,0.389538 0.239665,0.06617 0.694477,-0.223879 0.826732,-0.02385 0.130184,0.156056 -0.120831,0.593267 -0.286195,0.850596 -0.259689,0.404127 -0.62461,1.2273 -0.405405,1.232148 0.227047,0.005 0.823382,-0.0041 1.1845,-0.01586 0.138737,-0.0045 0.282164,-0.699597 0.457055,-0.699597 0.17489,0 0.318373,0.695112 0.457109,0.699597 0.361119,0.01171 0.957453,0.02088 1.184501,0.01586 0.219214,-0.0048 -0.145771,-0.828021 -0.40547,-1.232148 -0.165359,-0.257329 -0.416316,-0.69454 -0.286131,-0.850596 0.132256,-0.200025 0.587068,0.09002 0.826742,0.02385 0.18286,-0.05047 0.357923,-0.201376 0.33384,-0.389538 -0.03871,-0.302551 -0.356133,-0.543252 -0.580321,-0.70753 -0.262912,-0.192654 -0.882386,-0.421336 -0.882386,-0.421336 0,0 0.11032,-0.429025 0.06365,-0.651824 -0.04611,-0.220022 -0.266353,-0.548498 -0.711525,-0.564393 z"
       id="path41"
       inkscape:connector-curvature="0"
       inkscape:label="ref-mage" />
    <path
       style="color:#000000;clip-rule:nonzero;display:inline;overflow:visible;visibility:visible;isolation:auto;mix-blend-mode:normal;color-interpolation:sRGB;color-interpolation-filters:linearRGB;solid-color:#000000;solid-opacity:1;fill:#ffffff;fill-opacity:1;fill-rule:evenodd;stroke:#000000;stroke-width:0.2;stroke-linecap:butt;stroke-linejoin:miter;stroke-miterlimit:4;stroke-dasharray:none;stroke-dashoffset:0;stroke-opacity:1;color-rendering:auto;image-rendering:auto;shape-rendering:auto;text-rendering:auto;enable-background:accumulate"
       d="m 5.2916733,61.854777 c -0.445173,0.01589 -0.6653687,0.344371 -0.7114617,0.564393 -0.04669,0.222799 0.06357,0.651824 0.06357,0.651824 0,0 -0.619472,0.228682 -0.882384,0.421336 -0.224188,0.164278 -0.5416,0.404979 -0.580314,0.70753 -0.02408,0.188162 0.151045,0.33907 0.333905,0.389538 0.239665,0.06617 0.694477,-0.223879 0.826732,-0.02385 0.130184,0.156056 -0.120831,0.593267 -0.286195,0.850596 -0.259689,0.404127 -0.62461,1.2273 -0.405405,1.232148 0.227047,0.005 0.823382,-0.0041 1.1845007,-0.01586 0.138737,-0.0045 0.282164,-0.699597 0.457055,-0.699597 0.17489,0 0.318373,0.695112 0.457109,0.699597 0.361119,0.01171 0.957453,0.02088 1.184501,0.01586 0.219214,-0.0048 -0.145771,-0.828021 -0.40547,-1.232148 -0.165359,-0.257329 -0.416316,-0.69454 -0.286131,-0.850596 0.132256,-0.200025 0.587068,0.09002 0.826742,0.02385 0.18286,-0.05047 0.357923,-0.201376 0.33384,-0.389538 -0.03871,-0.302551 -0.356133,-0.543252 -0.580321,-0.70753 -0.262912,-0.192654 -0.882386,-0.421336 -0.882386,-0.421336 0,0 0.11032,-0.429025 0.06365,-0.651824 -0.04611,-0.220022 -0.266353,-0.548498 -0.711525,-0.564393 z"
       id="path40"
       inkscape:connector-curvature="0"
       inkscape:label="ref-mage" />
    <rect
       style="display:inline;fill:none;fill-rule:evenodd;stroke:#000000;stroke-width:0.325001;stroke-linecap:round"
       id="rect28"
       width="8.25"
       height="14.25"
       x="11.750002"
       y="40.505016"
       rx="0.85100001" />
    <rect
       style="display:inline;fill:none;fill-rule:evenodd;stroke:#000000;stroke-width:0.325001;stroke-linecap:round"
       id="rect29"
       width="8.25"
       height="14.25"
       x="22.333328"
       y="40.505016"
       rx="0.85100001" />
    <rect
       style="display:inline;fill:none;fill-rule:evenodd;stroke:#000000;stroke-width:0.325001;stroke-linecap:round"
       id="rect30"
       width="8.25"
       height="14.25"
       x="32.916664"
       y="40.505016"
       rx="0.85100001" />
    <rect
       style="display:inline;fill:none;fill-rule:evenodd;stroke:#000000;stroke-width:0.325001;stroke-linecap:round"
       id="rect31"
       width="8.25"
       height="14.25"
       x="43.5"
       y="40.505016"
       rx="0.85100001" />
    <rect
       style="display:inline;fill:none;fill-rule:evenodd;stroke:#000000;stroke-width:0.325001;stroke-linecap:round"
       id="rect32"
       width="8.25"
       height="14.25"
       x="11.750002"
       y="23.571682"
       rx="0.85100001" />
    <rect
       style="display:inline;fill:none;fill-rule:evenodd;stroke:#000000;stroke-width:0.325001;stroke-linecap:round"
       id="rect33"
       width="8.25"
       height="14.25"
       x="22.333328"
       y="23.571682"
       rx="0.85100001" />
    <rect
       style="display:inline;fill:none;fill-rule:evenodd;stroke:#000000;stroke-width:0.325001;stroke-linecap:round"
       id="rect34"
       width="8.25"
       height="14.25"
       x="32.916664"
       y="23.571682"
       rx="0.85100001" />
    <rect
       style="display:inline;fill:none;fill-rule:evenodd;stroke:#000000;stroke-width:0.325001;stroke-linecap:round"
       id="rect35"
       width="8.25"
       height="14.25"
       x="43.5"
       y="23.571682"
       rx="0.85100001" />
    <path
       style="color:#000000;clip-rule:nonzero;display:inline;overflow:visible;visibility:visible;isolation:auto;mix-blend-mode:normal;color-interpolation:sRGB;color-interpolation-filters:linearRGB;solid-color:#000000;solid-opacity:1;fill:#ffffff;fill-opacity:1;fill-rule:evenodd;stroke:#000000;stroke-width:0.2;stroke-linecap:butt;stroke-linejoin:miter;stroke-miterlimit:4;stroke-dasharray:none;stroke-dashoffset:0;stroke-opacity:1;color-rendering:auto;image-rendering:auto;shape-rendering:auto;text-rendering:auto;enable-background:accumulate"
       d="m 26.458327,61.854777 c -0.445173,0.01589 -0.665368,0.344371 -0.711461,0.564393 -0.04669,0.222799 0.06357,0.651824 0.06357,0.651824 0,0 -0.619472,0.228682 -0.882384,0.421336 -0.224188,0.164278 -0.5416,0.404979 -0.580314,0.70753 -0.02408,0.188162 0.151045,0.33907 0.333905,0.389538 0.239665,0.06617 0.694477,-0.223879 0.826732,-0.02385 0.130184,0.156056 -0.120831,0.593267 -0.286195,0.850596 -0.259689,0.404127 -0.62461,1.2273 -0.405405,1.232148 0.227047,0.005 0.823382,-0.0041 1.1845,-0.01586 0.138737,-0.0045 0.282164,-0.699597 0.457055,-0.699597 0.17489,0 0.318373,0.695112 0.457109,0.699597 0.361119,0.01171 0.957453,0.02088 1.184501,0.01586 0.219214,-0.0048 -0.145771,-0.828021 -0.40547,-1.232148 -0.165359,-0.257329 -0.416316,-0.69454 -0.286131,-0.850596 0.132256,-0.200025 0.587068,0.09002 0.826742,0.02385 0.18286,-0.05047 0.357923,-0.201376 0.33384,-0.389538 -0.03871,-0.302551 -0.356133,-0.543252 -0.580321,-0.70753 -0.262912,-0.192654 -0.882386,-0.421336 -0.882386,-0.421336 0,0 0.11032,-0.429025 0.06365,-0.651824 -0.04611,-0.220022 -0.266353,-0.548498 -0.711525,-0.564393 z"
       id="path67"
       inkscape:connector-curvature="0"
       inkscape:label="ref-mage" />
  </g>
  <g
     inkscape:groupmode="layer"
     id="layer6"
     inkscape:label="Monster Over"
     style="display:none">
    <path
       id="rect94"
       style="display:inline;fill:#808080;fill-opacity:1;fill-rule:evenodd;stroke:none;stroke-width:0.325001;stroke-linecap:round"
       d="m 23.113281,41.044922 c -0.507979,0.286496 -0.136314,1.056087 -0.25,1.537891 0.01692,3.814602 -0.03384,7.636341 0.02539,11.446484 0.390885,0.423331 1.110075,0.09253 1.630078,0.197266 1.778577,-0.01843 3.564836,0.03673 5.338672,-0.02734 0.424181,-0.390139 0.09196,-1.110316 0.197265,-1.630078 -0.01828,-3.778557 0.03653,-7.565078 -0.02734,-11.338672 -0.388035,-0.418136 -1.10505,-0.09201 -1.622266,-0.195313 -1.763749,0.0065 -3.528868,-0.01302 -5.291797,0.0098 z" />
    <flowRoot
       transform="matrix(0.26458333,0,0,0.26458333,16.704225,29.386418)"
       xml:space="preserve"
       id="flowRoot8"
       style="font-style:normal;font-weight:normal;font-size:10px;line-height:125%;font-family:sans-serif;letter-spacing:0px;word-spacing:0px;display:inline;fill:#000000;fill-opacity:1;stroke:none;stroke-width:1px;stroke-linecap:butt;stroke-linejoin:miter;stroke-opacity:1"><flowRegion
         id="flowRegion7"><rect
           x="28.799999"
           y="146"
           width="180.10165"
           height="149.34264"
           id="rect7"
           style="stroke-width:1px" /></flowRegion><flowPara
         style="font-style:normal;font-variant:normal;font-weight:normal;font-stretch:normal;font-size:10.6667px;font-family:Arial;-inkscape-font-specification:Arial"
         id="flowPara8"><flowSpan
           style="font-style:normal;font-variant:normal;font-weight:bold;font-stretch:normal;font-family:Arial;-inkscape-font-specification:'Arial Bold'"
           id="flowSpan7">1st</flowSpan></flowPara></flowRoot>
    <text
       id="text91"
       xml:space="preserve"
       style="font-style:normal;font-weight:normal;font-size:3.52778px;line-height:125%;font-family:'Arial Narrow';text-align:center;letter-spacing:0px;word-spacing:0px;text-anchor:middle;display:inline;fill:#000000;fill-opacity:1;stroke:none;stroke-width:0.264583"
       x="31.711782"
       y="6.4669905"
       inkscape:label="title"><tspan
         x="31.711782"
         y="6.4669905"
         style="font-style:normal;font-variant:normal;font-weight:bold;font-stretch:normal;font-size:3.52778px;font-family:CCTreasureTrove;-inkscape-font-specification:'CCTreasureTrove Bold';fill:#000000;fill-opacity:1;stroke-width:0.264583"
         id="tspan91">Their Attacks</tspan></text>
    <flowRoot
       transform="matrix(0.26458333,0,0,0.26458333,5.8005017,29.386418)"
       xml:space="preserve"
       id="flowRoot104"
       style="font-style:normal;font-weight:normal;font-size:10px;line-height:125%;font-family:sans-serif;letter-spacing:0px;word-spacing:0px;display:inline;fill:#000000;fill-opacity:1;stroke:none;stroke-width:1px;stroke-linecap:butt;stroke-linejoin:miter;stroke-opacity:1"><flowRegion
         id="flowRegion104"><rect
           x="28.799999"
           y="146"
           width="180.10165"
           height="149.34264"
           id="rect104"
           style="stroke-width:1px" /></flowRegion><flowPara
         style="font-style:normal;font-variant:normal;font-weight:normal;font-stretch:normal;font-size:10.6667px;font-family:Arial;-inkscape-font-specification:Arial"
         id="flowPara104"><flowSpan
           style="font-style:normal;font-variant:normal;font-weight:bold;font-stretch:normal;font-family:Arial;-inkscape-font-specification:'Arial Bold'"
           id="flowSpan104">2nd</flowSpan></flowPara></flowRoot>
    <flowRoot
       transform="matrix(0.26458333,0,0,0.26458333,27.262065,29.386418)"
       xml:space="preserve"
       id="flowRoot105"
       style="font-style:normal;font-weight:normal;font-size:10px;line-height:125%;font-family:sans-serif;letter-spacing:0px;word-spacing:0px;display:inline;fill:#000000;fill-opacity:1;stroke:none;stroke-width:1px;stroke-linecap:butt;stroke-linejoin:miter;stroke-opacity:1"><flowRegion
         id="flowRegion105"><rect
           x="28.799999"
           y="146"
           width="180.10165"
           height="149.34264"
           id="rect105"
           style="stroke-width:1px" /></flowRegion><flowPara
         style="font-style:normal;font-variant:normal;font-weight:normal;font-stretch:normal;font-size:10.6667px;font-family:Arial;-inkscape-font-specification:Arial"
         id="flowPara105"><flowSpan
           style="font-style:normal;font-variant:normal;font-weight:bold;font-stretch:normal;font-family:Arial;-inkscape-font-specification:'Arial Bold'"
           id="flowSpan105">3rd</flowSpan></flowPara></flowRoot>
    <flowRoot
       transform="matrix(0.26458333,0,0,0.26458333,-5.0842746,34.148918)"
       xml:space="preserve"
       id="flowRoot21"
       style="font-style:normal;font-weight:normal;font-size:8px;line-height:125%;font-family:sans-serif;letter-spacing:0px;word-spacing:0px;display:inline;fill:#000000;fill-opacity:1;stroke:none;stroke-width:1px;stroke-linecap:butt;stroke-linejoin:miter;stroke-opacity:1"><flowRegion
         id="flowRegion21"><rect
           x="28.799999"
           y="146"
           width="180.10165"
           height="149.34264"
           id="rect21"
           style="stroke-width:1px" /></flowRegion><flowPara
         style="font-style:normal;font-variant:normal;font-weight:bold;font-stretch:normal;font-size:8px;font-family:Arial;-inkscape-font-specification:'Arial Bold';text-align:center;text-anchor:middle"
         id="flowPara21">Primary</flowPara><flowPara
         style="font-style:normal;font-variant:normal;font-weight:bold;font-stretch:normal;font-size:8px;font-family:Arial;-inkscape-font-specification:'Arial Bold';text-align:center;text-anchor:middle"
         id="flowPara22">Target</flowPara></flowRoot>
  </g>
  <g
     inkscape:groupmode="layer"
     id="g87"
     inkscape:label="Player Over"
     style="display:inline">
    <text
       id="text67"
       xml:space="preserve"
       style="font-style:normal;font-weight:normal;font-size:3.52778px;line-height:125%;font-family:'Arial Narrow';text-align:center;letter-spacing:0px;word-spacing:0px;text-anchor:middle;display:inline;fill:#000000;fill-opacity:1;stroke:none;stroke-width:0.264583"
       x="31.711782"
       y="6.4669905"
       inkscape:label="title"><tspan
         x="31.711782"
         y="6.4669905"
         style="font-style:normal;font-variant:normal;font-weight:bold;font-stretch:normal;font-size:3.52778px;font-family:CCTreasureTrove;-inkscape-font-specification:'CCTreasureTrove Bold';fill:#000000;fill-opacity:1;stroke-width:0.264583"
         id="tspan67">Your Attacks</tspan></text>
    <flowRoot
       transform="matrix(0.26458333,0,0,0.26458333,-25.751392,-25.825894)"
       xml:space="preserve"
       id="flowRoot67"
       style="font-style:normal;font-weight:normal;font-size:10px;line-height:125%;font-family:sans-serif;letter-spacing:0px;word-spacing:0px;display:inline;fill:#000000;fill-opacity:1;stroke:none;stroke-width:1px;stroke-linecap:butt;stroke-linejoin:miter;stroke-opacity:1"><flowRegion
         id="flowRegion67"><rect
           x="28.799999"
           y="146"
           width="180.10165"
           height="149.34264"
           id="rect67"
           style="stroke-width:1px" /></flowRegion><flowPara
         style="font-style:normal;font-variant:normal;font-weight:normal;font-stretch:normal;font-size:9.33333px;font-family:Arial;-inkscape-font-specification:Arial"
         id="flowPara67">Recover</flowPara></flowRoot>
    <flowRoot
       transform="matrix(0.26458333,0,0,0.26458333,-28.397226,-29.530059)"
       xml:space="preserve"
       id="flowRoot68"
       style="font-style:normal;font-weight:normal;font-size:10px;line-height:125%;font-family:sans-serif;letter-spacing:0px;word-spacing:0px;display:inline;fill:#000000;fill-opacity:1;stroke:none;stroke-width:1px;stroke-linecap:butt;stroke-linejoin:miter;stroke-opacity:1"><flowRegion
         id="flowRegion68"><rect
           x="28.799999"
           y="146"
           width="180.10165"
           height="149.34264"
           id="rect68"
           style="stroke-width:1px" /></flowRegion><flowPara
         style="font-style:normal;font-variant:normal;font-weight:bold;font-stretch:normal;font-size:10.6667px;font-family:Arial;-inkscape-font-specification:'Arial Bold'"
         id="flowPara68">Choose one:</flowPara></flowRoot>
    <path
       style="color:#000000;clip-rule:nonzero;display:inline;overflow:visible;visibility:visible;isolation:auto;mix-blend-mode:normal;color-interpolation:sRGB;color-interpolation-filters:linearRGB;solid-color:#000000;solid-opacity:1;fill:#000000;fill-opacity:1;fill-rule:evenodd;stroke:none;stroke-width:0.45386;stroke-linecap:butt;stroke-linejoin:miter;stroke-miterlimit:4;stroke-dasharray:none;stroke-dashoffset:0;stroke-opacity:1;color-rendering:auto;image-rendering:auto;shape-rendering:auto;text-rendering:auto;enable-background:accumulate"
       d="m 26.458325,61.854777 c -0.445173,0.01589 -0.665368,0.344371 -0.711461,0.564393 -0.04669,0.222799 0.06357,0.651824 0.06357,0.651824 0,0 -0.619472,0.228682 -0.882384,0.421336 -0.224188,0.164278 -0.5416,0.404979 -0.580314,0.70753 -0.02408,0.188162 0.151045,0.33907 0.333905,0.389538 0.239665,0.06617 0.694477,-0.223879 0.826732,-0.02385 0.130184,0.156056 -0.120831,0.593267 -0.286195,0.850596 -0.259689,0.404127 -0.62461,1.2273 -0.405405,1.232148 0.227047,0.005 0.823382,-0.0041 1.1845,-0.01586 0.138737,-0.0045 0.282164,-0.699597 0.457055,-0.699597 0.17489,0 0.318373,0.695112 0.457109,0.699597 0.361119,0.01171 0.957453,0.02088 1.184501,0.01586 0.219214,-0.0048 -0.145771,-0.828021 -0.40547,-1.232148 -0.165359,-0.257329 -0.416316,-0.69454 -0.286131,-0.850596 0.132256,-0.200025 0.587068,0.09002 0.826742,0.02385 0.18286,-0.05047 0.357923,-0.201376 0.33384,-0.389538 -0.03871,-0.302551 -0.356133,-0.543252 -0.580321,-0.70753 -0.262912,-0.192654 -0.882386,-0.421336 -0.882386,-0.421336 0,0 0.11032,-0.429025 0.06365,-0.651824 -0.04611,-0.220022 -0.266353,-0.548498 -0.711525,-0.564393 z"
       id="path68"
       inkscape:connector-curvature="0"
       inkscape:label="ref-mage" />
    <g
       id="g71">
      <path
         style="fill:none;fill-rule:evenodd;stroke:#000000;stroke-width:0.325001;stroke-linecap:round;stroke-dasharray:0.0325001, 0.975003;stroke-dashoffset:0"
         d="M 26.458338,64.252235 47.625,30.696682"
         id="path69" />
      <path
         style="fill:none;fill-rule:evenodd;stroke:#000000;stroke-width:0.325001;stroke-linecap:round;stroke-dasharray:0.0325001, 0.975003;stroke-dashoffset:0"
         d="M 26.458338,64.252235 5.291676,30.696682"
         id="path70" />
      <path
         style="fill:none;fill-rule:evenodd;stroke:#000000;stroke-width:0.325001;stroke-linecap:round;stroke-dasharray:0.0325001, 0.975003;stroke-dashoffset:0"
         d="m 26.458328,30.696683 10e-6,33.55555"
         id="path71" />
    </g>
    <path
       style="color:#000000;clip-rule:nonzero;display:inline;overflow:visible;visibility:visible;isolation:auto;mix-blend-mode:normal;color-interpolation:sRGB;color-interpolation-filters:linearRGB;solid-color:#000000;solid-opacity:1;fill:#000000;fill-opacity:1;fill-rule:evenodd;stroke:none;stroke-width:0.516008;stroke-linecap:butt;stroke-linejoin:miter;stroke-miterlimit:4;stroke-dasharray:none;stroke-dashoffset:0;stroke-opacity:1;color-rendering:auto;image-rendering:auto;shape-rendering:auto;text-rendering:auto;enable-background:accumulate"
       d="m 47.278276,29.636266 1.327243,-1.363396 0.0239,1.403299 1.370896,0.119929 -0.774256,0.921234 0.645241,0.825428 -1.01133,-0.03893 -0.05809,2.102675 -0.92025,-1.114065 -0.833526,0.681198 -0.184916,-1.023974 -1.531912,0.259387 1.32724,-1.363375 -1.336517,-0.943371 1.223517,-0.06441 -0.12466,-1.123741 z"
       id="path5451"
       inkscape:connector-curvature="0"
       sodipodi:nodetypes="ccccccccccccccccc" />
    <path
       id="path75"
       style="fill:none;fill-rule:evenodd;stroke:#000000;stroke-width:0.2;stroke-linecap:round"
       d="m 43.500001,101.2939 a 6.4583292,6.2735147 0 0 1 -6.458329,6.27351 6.4583292,6.2735147 0 0 1 -6.458329,-6.27351 6.4583292,6.2735147 0 0 1 6.458329,-6.273518 6.4583292,6.2735147 0 0 1 6.458329,6.273518 z" />
    <path
       style="color:#000000;clip-rule:nonzero;display:inline;overflow:visible;visibility:visible;isolation:auto;mix-blend-mode:normal;color-interpolation:sRGB;color-interpolation-filters:linearRGB;solid-color:#000000;solid-opacity:1;fill:#000000;fill-opacity:1;fill-rule:evenodd;stroke:none;stroke-width:0.516008;stroke-linecap:butt;stroke-linejoin:miter;stroke-miterlimit:4;stroke-dasharray:none;stroke-dashoffset:0;stroke-opacity:1;color-rendering:auto;image-rendering:auto;shape-rendering:auto;text-rendering:auto;enable-background:accumulate"
       d="m 27.453652,31.200695 0.02679,1.902552 -1.009812,-0.97473 -1.053601,0.885249 -0.104704,-1.198825 -1.040002,-0.12674 0.742198,-0.688073 -1.446725,-1.526959 1.438566,0.136118 0.10702,-1.071142 0.855197,0.592751 0.898992,-1.26722 0.02678,1.902535 1.611944,-0.279038 -0.819021,0.911234 0.883208,0.705886 z"
       id="path88"
       inkscape:connector-curvature="0"
       sodipodi:nodetypes="ccccccccccccccccc" />
    <path
       style="color:#000000;clip-rule:nonzero;display:inline;overflow:visible;visibility:visible;isolation:auto;mix-blend-mode:normal;color-interpolation:sRGB;color-interpolation-filters:linearRGB;solid-color:#000000;solid-opacity:1;fill:#000000;fill-opacity:1;fill-rule:evenodd;stroke:none;stroke-width:0.516008;stroke-linecap:butt;stroke-linejoin:miter;stroke-miterlimit:4;stroke-dasharray:none;stroke-dashoffset:0;stroke-opacity:1;color-rendering:auto;image-rendering:auto;shape-rendering:auto;text-rendering:auto;enable-background:accumulate"
       d="m 25.664698,46.845892 0.556027,-1.819686 0.663544,1.236741 1.273763,-0.520835 -0.266743,1.173454 0.951488,0.438563 -0.916994,0.42828 0.91075,1.896088 -1.328109,-0.569319 -0.429305,0.987165 -0.633087,-0.825783 -1.243308,0.931783 0.556034,-1.819666 -1.620089,-0.227027 1.058354,-0.617278 -0.625176,-0.942066 z"
       id="path89"
       inkscape:connector-curvature="0"
       sodipodi:nodetypes="ccccccccccccccccc" />
    <path
       style="color:#000000;clip-rule:nonzero;display:inline;overflow:visible;visibility:visible;isolation:auto;mix-blend-mode:normal;color-interpolation:sRGB;color-interpolation-filters:linearRGB;solid-color:#000000;solid-opacity:1;fill:#000000;fill-opacity:1;fill-rule:evenodd;stroke:none;stroke-width:0.516008;stroke-linecap:butt;stroke-linejoin:miter;stroke-miterlimit:4;stroke-dasharray:none;stroke-dashoffset:0;stroke-opacity:1;color-rendering:auto;image-rendering:auto;shape-rendering:auto;text-rendering:auto;enable-background:accumulate"
       d="m 37.244667,46.16958 1.445087,-1.237799 -0.103086,1.399711 1.354436,0.243396 -0.854384,0.847451 0.567962,0.880391 -1.003668,-0.130212 -0.247982,2.088808 -0.815745,-1.192711 -0.891706,0.603039 -0.09157,-1.0365 -1.54909,0.119807 1.445081,-1.23778 -1.245742,-1.060356 1.22433,0.04648 -0.02254,-1.130409 z"
       id="path90"
       inkscape:connector-curvature="0"
       sodipodi:nodetypes="ccccccccccccccccc" />
    <path
       style="color:#000000;clip-rule:nonzero;display:inline;overflow:visible;visibility:visible;isolation:auto;mix-blend-mode:normal;color-interpolation:sRGB;color-interpolation-filters:linearRGB;solid-color:#000000;solid-opacity:1;fill:#000000;fill-opacity:1;fill-rule:evenodd;stroke:none;stroke-width:0.516008;stroke-linecap:butt;stroke-linejoin:miter;stroke-miterlimit:4;stroke-dasharray:none;stroke-dashoffset:0;stroke-opacity:1;color-rendering:auto;image-rendering:auto;shape-rendering:auto;text-rendering:auto;enable-background:accumulate"
       d="m 17.346674,47.935223 1.0304,1.599594 -1.372803,-0.29194 -0.424819,1.308917 -0.723763,-0.961412 -0.949277,0.443327 0.265117,-0.976736 -2.035885,-0.528951 1.292314,-0.646469 -0.476546,-0.965246 1.039343,0.04983 0.09137,-1.551028 1.030381,1.599585 1.219493,-1.090442 -0.212085,1.206716 1.123025,0.130962 z"
       id="path91"
       inkscape:connector-curvature="0"
       sodipodi:nodetypes="ccccccccccccccccc" />
  </g>
</svg>
