<?xml version='1.0' encoding='UTF-8'?>
<svg xmlns:ns0="http://www.w3.org/2000/svg" xmlns:ns1="http://www.inkscape.org/namespaces/inkscape" xmlns:ns2="http://sodipodi.sourceforge.net/DTD/sodipodi-0.dtd" xmlns:ns3="http://www.w3.org/1999/xlink" version="1.1" id="svg_root" xmlns="http://www.w3.org/2000/svg" xmlns:sodipodi="http://sodipodi.sourceforge.net/DTD/sodipodi-0.dtd" xmlns:inkscape="http://www.inkscape.org/namespaces/inkscape" xmlns:xlink="http://www.w3.org/1999/xlink" width="69.85mm" height="120.65mm" viewBox="0 0 69.85 120.65"><defs><clipPath id="clippath--1"><ns0:rect style="display:inline;fill:#f56363;fill-opacity:0.562327;stroke:#ed5f5f;stroke-width:0.799999;stroke-linecap:round;stroke-linejoin:round;stroke-opacity:0.501385" id="clip-image" width="62.340614" height="42.722939" x="3.5747764" y="13.25283" /></clipPath></defs><g id="card00" inkscape:label="Card 0" inkscape:groupmode="layer"><rect id="rect1232" x="0" y="0" width="69.85" height="120.65" rx="3" ry="3" style="fill:#ffffff;stroke:none;stroke-width:0" /><g id="masters" style="display:none"><ns0:path style="color:#000000;font-style:normal;font-variant:normal;font-weight:normal;font-stretch:normal;font-size:medium;line-height:normal;font-family:sans-serif;text-indent:0;text-align:start;text-decoration:none;text-decoration-line:none;text-decoration-style:solid;text-decoration-color:#000000;letter-spacing:normal;word-spacing:normal;text-transform:none;writing-mode:lr-tb;direction:ltr;baseline-shift:baseline;text-anchor:start;white-space:normal;clip-rule:nonzero;display:inline;overflow:visible;visibility:visible;isolation:auto;mix-blend-mode:normal;color-interpolation:sRGB;color-interpolation-filters:linearRGB;solid-color:#000000;solid-opacity:1;fill:#303030;fill-opacity:1;fill-rule:evenodd;stroke:none;stroke-width:0.386237;stroke-linecap:round;stroke-linejoin:miter;stroke-miterlimit:4;stroke-dasharray:none;stroke-dashoffset:0;stroke-opacity:1;color-rendering:auto;image-rendering:auto;shape-rendering:auto;text-rendering:auto;enable-background:accumulate" d="m 3.4829283,0.56120395 c -0.1922034,-0.0687 -0.3509989,-0.0828 -0.5213718,-0.0582 -0.2989846,0.0433 -0.7148222,0.13342993 -1.0475371,0.28337992 C 1.5548218,0.948284 1.4717789,1.071534 1.1771811,1.234644 c -0.27445479,0.15196 -0.55234969,0.25754 -0.77079079,0.48869 -0.1087848,0.11511 -0.012906,0.20373 0.052274,0.18313 0.3591108,-0.11352 0.5295022,-0.25529 0.74769899,-0.38605 0.2007584,-0.1203 0.1330757,0.0132 0.498241,-0.2283 0.3197999,-0.2115 0.3829724,-0.24584 0.5503033,-0.27803 0.092334,-0.0389 0.1880876,-0.079 0.3015931,-0.11456013 0.2662233,-0.0679 0.3003648,-0.0488 0.6319178,-0.0228 0.2717089,0.0213 0.5520487,0.12149013 0.6730397,0.23576013 0.1364758,0.1289 0.4251396,0.15035 0.6886601,0.67643 0.1083559,0.21632 0.1417186,0.439 0.1195229,0.65999 0.023635,0.17047 0.1274456,0.23446 -0.00106,0.75022 -0.095413,0.32232 -0.3626758,0.62503 -0.7056856,0.76625 -0.4009091,0.16507 -0.863329,0.19378 -1.2611419,0.0993 -0.3832045,-0.091 -0.7986336,-0.41514 -0.8786415,-0.76142 -0.078006,-0.33762 -0.138911,-0.63094 -0.1535277,-0.89924 0.031234,-0.3312 0.3751235,-0.32412 0.678382,-0.55342 0.2075911,-0.0832 0.3545871,-0.22088 0.6397438,-0.22088 0.2441998,0.0332 0.5054253,0.1787 0.6000705,0.33841 0.2028356,0.1922 0.2952371,0.44085 0.2318363,0.75756 0.00966,0.15954 -0.2803522,0.42581 -0.4478954,0.45484 -0.2091213,0.0362 -0.471887,-0.12632 -0.6017998,-0.18729 -0.1239994,-0.035 -0.115782,-0.0832 -0.064469,-0.26327 0.061824,-0.0875 0.1784367,-0.14247 0.2490646,-0.18637 0.085416,-0.0531 0.092072,-0.16088 0.068349,-0.24788 -0.051966,-0.0723 -0.1034345,-0.12302 -0.2290672,-0.0846 -0.085791,0.0263 -0.2446352,0.0425 -0.2815088,0.0765 -0.059951,0.0545 -0.2246423,0.1434 -0.2701179,0.20582 -0.043089,0.14551 0.044586,0.30527 0.06091,0.43027 0.021073,0.14818 0.1072048,0.31905 0.2881381,0.40338 0.2727985,0.12714 0.611378,0.19101 0.8216469,0.18132 0.2567908,-0.0268 0.7600722,-0.24043 0.765293,-0.7472 C 4.1645226,2.522394 4.0290398,2.043774 3.845251,1.729124 3.6583776,1.409184 3.3938223,1.272754 3.0184183,1.275334 c -0.191143,0.0164 -0.4682562,0.0387 -0.8708041,0.26891 -0.464952,0.17386 -0.536699,0.24621 -0.8575247,0.59529 -0.2090832,0.2275 -0.026589,0.6428 -0.026589,0.6428 0.1477368,0.3117 0.076293,0.34841 0.2225356,0.71063 0.1913312,0.4739 0.6183021,0.82729 1.1098746,0.93231 0.3973768,0.0849 1.3338608,-0.0691 1.5369655,-0.11551 0.576589,-0.13178 0.7670676,-0.38362 0.9353622,-1.04068 0.1118809,-0.43681 0.026868,-0.8149 0.00691,-0.96642 C 5.0498444,2.110524 4.9785234,1.792394 4.9218081,1.650874 4.7912693,1.355444 4.368717,1.064364 4.0283041,0.77286387 3.7114068,0.50838399 3.7826387,0.66832387 3.482924,0.56117395 Z" id="element-air" ns1:connector-curvature="0" ns2:nodetypes="csssssssccsssccssscccccsccscscccsccsccsssssssccsc" ns1:label="#element-air" /><ns0:path id="element-earth" style="color:#000000;font-style:normal;font-variant:normal;font-weight:normal;font-stretch:normal;font-size:medium;line-height:normal;font-family:sans-serif;text-indent:0;text-align:start;text-decoration:none;text-decoration-line:none;text-decoration-style:solid;text-decoration-color:#000000;letter-spacing:normal;word-spacing:normal;text-transform:none;writing-mode:lr-tb;direction:ltr;baseline-shift:baseline;text-anchor:start;white-space:normal;clip-rule:nonzero;display:inline;overflow:visible;visibility:visible;isolation:auto;mix-blend-mode:normal;color-interpolation:sRGB;color-interpolation-filters:linearRGB;solid-color:#000000;solid-opacity:1;fill:#004c00;fill-opacity:1;fill-rule:nonzero;stroke:none;stroke-width:0.386237;stroke-linecap:round;stroke-linejoin:round;stroke-miterlimit:4;stroke-dasharray:none;stroke-dashoffset:0;stroke-opacity:1;color-rendering:auto;image-rendering:auto;shape-rendering:auto;text-rendering:auto;enable-background:accumulate" d="m 3.3447067,0.9573539 c -0.04468,0.00209 -0.087316,0.01812 -0.1210844,0.045521 C 3.0080732,1.1776523 2.8383451,1.4585792 2.6615285,1.7252306 2.4851959,1.9911521 2.1501362,2.4285074 2.1030539,2.4946152 1.6298169,2.9907999 1.4444729,3.4645459 0.88176631,4.0218651 0.70760001,4.210216 1.0672933,4.2317806 1.2414595,4.0434291 1.8003559,3.438696 1.9426908,3.2381291 2.3785862,2.7872507 2.3850962,2.7804807 2.6101732,2.5419822 2.7012957,2.4187519 2.7822827,2.3054517 2.8029521,2.1778504 2.9727823,1.9217353 3.0882907,1.7475395 3.2228816,1.5331401 3.3292675,1.4805696 3.4668933,1.622385 3.6812985,1.8148615 3.8740561,2.2180117 4.0358803,2.4334056 4.3238674,2.7547252 4.37148,2.8213522 4.5193313,3.0336116 4.8437613,3.4199848 4.8741103,3.4760679 4.9942479,3.6982831 5.0463253,3.3786899 4.9642083,3.1120332 4.9009324,2.9951059 4.8548688,2.8309496 4.7064544,2.6178806 4.5580399,2.4048124 4.3703937,2.2399818 4.331901,2.1755379 L 4.177931,1.9324513 C 4.0451822,1.6359949 3.8184011,1.5244862 3.5280594,1.050989 3.4906742,0.9900445 3.4198163,0.9538603 3.3446996,0.9573539 Z M 1.4960396,1.5159032 C 1.4307316,1.5173332 1.1226142,1.7886908 1.0865072,1.8395311 0.88170951,2.1279445 0.74631481,2.2903697 0.52023191,2.6066688 0.37239201,2.8136895 0.64769161,2.8606995 0.79562021,2.6537338 0.96802441,2.4125336 1.3668382,1.9883357 1.4931797,1.9465097 c 0,0 0.4152461,0.299809 0.5528817,0.3733568 C 2.2777762,2.4454822 2.544702,2.3150065 2.3115439,2.1917467 2.3428249,2.2085017 2.1100306,2.0352387 2.0165597,1.9213728 1.8851049,1.7682776 1.6562242,1.5726715 1.4960396,1.5159032 Z m 2.3732958,1.5548436 c -0.1515426,0.00715 -0.1538821,0.07423 -0.074552,0.1950221 0,0 0.3023383,0.5115617 0.4071273,0.8318262 C 4.3359795,4.3184766 4.7576773,4.2797485 4.6217693,3.9960456 4.4598225,3.6579888 4.0526953,3.1640584 4.0526953,3.1640584 4.0152173,3.1032394 3.9443793,3.0671884 3.8693354,3.0707468 Z M 3.3703439,3.1834391 C 3.2600429,3.1849591 3.1719197,3.2874396 3.1734527,3.3904465 L 3.1162947,4.3351798 C 3.1124747,4.587555 3.5007442,4.3918378 3.4969215,4.1394626 3.4707255,3.9354411 3.5512475,3.499991 3.3703439,3.1834391 Z M 2.6907158,3.0578366 C 2.5338512,3.1575766 2.344354,3.4955113 2.224943,3.8613534 2.132366,4.0947162 2.5071561,4.2244492 2.599817,3.9911154 2.647448,3.6886431 2.8120613,3.3027933 2.8120613,3.3027933 2.8615343,3.1833992 2.8276973,3.0628896 2.6907158,3.0578366 Z" ns1:connector-curvature="0" /><ns0:path style="color:#000000;font-style:normal;font-variant:normal;font-weight:normal;font-stretch:normal;font-size:medium;line-height:normal;font-family:sans-serif;text-indent:0;text-align:start;text-decoration:none;text-decoration-line:none;text-decoration-style:solid;text-decoration-color:#000000;letter-spacing:normal;word-spacing:normal;text-transform:none;writing-mode:lr-tb;direction:ltr;baseline-shift:baseline;text-anchor:start;white-space:normal;clip-rule:nonzero;display:inline;overflow:visible;visibility:visible;isolation:auto;mix-blend-mode:normal;color-interpolation:sRGB;color-interpolation-filters:linearRGB;solid-color:#000000;solid-opacity:1;fill:#860000;fill-opacity:0.97451;fill-rule:evenodd;stroke:none;stroke-width:0.386237;stroke-linecap:round;stroke-linejoin:miter;stroke-miterlimit:4;stroke-dasharray:none;stroke-dashoffset:0;stroke-opacity:1;color-rendering:auto;image-rendering:auto;shape-rendering:auto;text-rendering:auto;enable-background:accumulate" d="m 2.1573924,0.47478708 c -0.057158,0.0578 0.00634,0.17813 0.00634,0.17813 0,0 0.049014,0.19675984 0.067362,0.37707952 0.018349,0.18032 -0.00336,0.3307801 -0.015119,0.4372101 -0.018939,0.17136 -0.1732176,0.49491 -0.2918924,0.6751 -0.1186747,0.18018 -0.194819,0.3633 -0.2044966,0.58639 -0.00198,0.0457 0.015138,0.1338 0.022522,0.17687 -0.1336148,0.1464 -0.278576,0.21846 -0.4152932,0.25661 -0.1840774,0.0514 -0.47082399,0.19143 -0.71840429,0.41992 -0.1973966,0.18218 -0.2763645,0.35122 -0.342754,0.58596 -0.06639,0.23474 -0.1077413,0.42753 -0.083128,0.59991 0,0 0.00257,0.20185 0.069249,0.25967 0.090499,0.0178 0.226932,-0.0794 0.226932,-0.0794 0.2813394,-0.19965 0.54028399,-0.38792 0.76105939,-0.45516 0.2405211,-0.0733 0.4947122,-0.0497 0.6595047,2.5e-4 0.2164995,0.0656 0.4509055,0.0362 0.6777558,-0.013 0.1562802,-0.0338 0.2608925,-0.11156 0.3758642,-0.21095 0.1530829,0.11725 0.2465769,0.1397 0.3560003,0.22235 0.134383,0.10149 0.2893105,0.19655 0.5278901,0.25865 0.249165,0.0649 0.5342059,0.0701 0.7986662,0.0355 0.2644593,-0.0346 0.5064601,-0.0992 0.6784496,-0.2464 0,0 0.147742,-0.10269 0.1334522,-0.16051 -0.033364,-0.053 -0.1797992,-0.10955 -0.1797992,-0.10955 0,0 -0.1625587,-0.0627 -0.3454974,-0.16362 -0.1829388,-0.10094 -0.3241919,-0.27767 -0.4467524,-0.38596 -0.1450661,-0.12818 -0.1837026,-0.30027 -0.2471656,-0.47474 -0.063129,-0.17355 -0.142185,-0.39659 -0.3863226,-0.55549 -0.116966,-0.0761 -0.2307016,-0.14106 -0.3524957,-0.18565 -0.029073,-0.12443 -0.027641,-0.24053 -0.011996,-0.36817 0.047928,-0.23358 -0.025523,-0.54645 -0.113089,-0.77113 C 3.2718545,1.1276266 3.0809501,1.0050466 2.9571659,0.8759569 2.825266,0.73839708 2.6405438,0.58814708 2.4538062,0.51838708 c 0,0 -0.1154151,-0.048 -0.2964138,-0.0436 z M 2.5550428,0.9604168 c 0.044259,0.0341 0.1785592,0.1196398 0.2453209,0.1858498 0.1561034,0.1548101 0.2872118,0.3757701 0.3144576,0.5401201 0.026532,0.16004 -0.0045,0.3013 -0.022913,0.45145 -0.011843,0.0966 0.00159,0.20353 0.04124,0.30571 -0.031602,0.002 -0.1106395,0.004 -0.143256,0.009 -0.1088409,0.0147 -0.2238243,0.0444 -0.3478112,0.0878 -0.2567606,0.0842 -0.058515,0.13542 0.2009645,0.11039 0.2025497,-0.0104 0.3928195,0.0903 0.5178668,0.146 0.1021911,0.0455 0.269244,0.1601 0.3198001,0.24335 0.09849,0.16217 0.2302253,0.35968 0.2493647,0.44814 0.034659,0.16018 0.098115,0.31421 0.2797813,0.52725 0.1638075,0.19211 0.3732326,0.25751 0.5743107,0.36891 -0.01796,0.0553 -0.1803657,0.10091 -0.231175,0.10756 -0.216749,0.0284 -0.4504944,-0.0192 -0.6088313,-0.10076 -0.1729807,-0.089 -0.2892423,-0.0888 -0.4345287,-0.18058 -0.095403,-0.0602 -0.2249292,-0.10236 -0.291561,-0.2284 0.087882,-0.1922 0.183271,-0.36755 0.2181629,-0.55491 0.055506,-0.2514 -0.2066832,-0.004 -0.3195111,0.18763 -0.1198604,0.2536 -0.3139565,0.4485 -0.6060817,0.54544 -0.1891463,0.0628 -0.3514661,0.004 -0.5270632,-0.0316 -0.1755949,-0.0354 -0.421144,-0.0747 -0.7396844,0.0224 -0.2190603,0.0667 -0.50629509,0.14324 -0.71454969,0.37255 -0.02276,-0.1185 0.038295,-0.23941 0.057419,-0.29708 0.062885,-0.18961 0.2435178,-0.3814 0.3632957,-0.49194 0.18234389,-0.16829 0.41028839,-0.21845 0.59902439,-0.27113 0.1394981,-0.0389 0.1992609,-0.036 0.3444637,-0.15642 0.1063744,0.17192 0.2566647,0.3139 0.4348953,0.42833 0.2196063,0.141 0.1683087,-0.0969 -0.042889,-0.32651 -0.1377306,-0.14976 -0.187537,-0.28056 -0.2072261,-0.60666 -0.010039,-0.16627 0.07268,-0.34856 0.1861061,-0.52077 0.1471071,-0.20367 0.2711251,-0.38318 0.3019857,-0.66239 0.018518,-0.22097 0.036256,-0.5060601 -0.011378,-0.6584199 z" id="element-fire" ns1:connector-curvature="0" ns2:nodetypes="ccssssccsscccssscssscccssssccssccccsscsccsssscssscccscscssscccssccc" /><ns0:path id="element-water" style="color:#000000;font-style:normal;font-variant:normal;font-weight:normal;font-stretch:normal;font-size:medium;line-height:normal;font-family:sans-serif;text-indent:0;text-align:start;text-decoration:none;text-decoration-line:none;text-decoration-style:solid;text-decoration-color:#000000;letter-spacing:normal;word-spacing:normal;text-transform:none;writing-mode:lr-tb;direction:ltr;baseline-shift:baseline;text-anchor:start;white-space:normal;clip-rule:nonzero;display:inline;overflow:visible;visibility:visible;isolation:auto;mix-blend-mode:normal;color-interpolation:sRGB;color-interpolation-filters:linearRGB;solid-color:#000000;solid-opacity:1;fill:#00007e;fill-opacity:1;fill-rule:evenodd;stroke:none;stroke-width:0.386237;stroke-linecap:round;stroke-linejoin:miter;stroke-miterlimit:4;stroke-dasharray:none;stroke-dashoffset:0;stroke-opacity:1;color-rendering:auto;image-rendering:auto;shape-rendering:auto;text-rendering:auto;enable-background:accumulate" d="M 5.0505663,3.2655499 C 4.845693,3.2864459 4.5576259,3.4935077 4.3480951,3.5047912 3.9575145,3.5581102 3.4629426,3.4307292 3.0726099,3.4194332 2.4116689,3.4030362 2.0432644,3.6987057 1.4301084,3.8990268 1.2750361,3.9758078 1.4345484,4.0798677 1.6082413,4.1034386 1.7503115,4.1148766 1.9774638,4.0288706 2.1123424,3.9981296 2.478626,3.8763369 2.8026207,3.7797363 3.1940806,3.830311 3.7114236,3.920582 4.0441714,3.96531 4.5514211,3.884967 4.7169499,3.837304 4.8757516,3.6734003 5.0246501,3.5959341 5.1593654,3.4865742 5.2291211,3.2605839 5.0505663,3.2655499 Z M 4.7194057,2.3515089 C 4.4420536,2.3445289 4.4076287,2.5077412 4.0191212,2.5138248 3.545298,2.5506598 3.2304062,2.4329738 2.7590672,2.4076124 2.1356118,2.3514594 1.4524114,2.7035197 0.88428871,2.8563113 c -0.1500613,0.085023 0.010907,0.2680267 0.18577119,0.2821826 0.1555136,-5.226e-4 0.206439,0.034222 0.35813,0.00645 C 1.8980074,3.0046837 2.1994833,2.6494096 2.6862135,2.7060243 3.1772496,2.7511513 3.83883,2.9613268 4.3302249,2.8610969 4.4857368,2.7990509 4.6267075,2.7083637 4.7381178,2.5941361 4.8173038,2.474405 4.8701801,2.3471487 4.7194057,2.3515089 Z M 4.0060366,1.306196 C 3.8717708,1.32657 3.7247063,1.4306393 3.5950022,1.4683675 3.1955221,1.6280437 2.7909954,1.6072818 2.3685781,1.5132255 2.1800376,1.4820985 1.895199,1.4143835 1.7081408,1.3812218 1.1882052,1.3391968 0.77503031,1.595641 0.37641181,1.88009 0.24865631,1.9924872 0.37428181,2.1207914 0.54846241,2.1005551 0.74960271,2.0453391 0.99857311,2.0164421 1.1968161,1.9017632 1.4471081,1.7858044 1.8153625,1.7287004 2.0878065,1.8328602 2.5515445,1.962271 2.974254,2.0149055 3.4504104,1.8997812 3.7298204,1.8401732 3.9070634,1.7260789 4.1295989,1.5541297 4.2407499,1.4366101 4.1734259,1.2930438 4.0060366,1.306196 Z" ns1:connector-curvature="0" /></g><ns0:text xml:space="preserve" style="font-style:normal;font-weight:normal;font-size:4.93889px;line-height:1.25;font-family:sans-serif;display:inline;fill:#000000;fill-opacity:1;stroke:none;stroke-width:0.264583" x="34.925701" y="10.823263" id="monster-name" ns1:label="monster-name"><ns0:tspan ns2:role="line" id="tspan1" style="font-style:normal;font-variant:normal;font-weight:normal;font-stretch:normal;font-size:4.93889px;font-family:CCTreasureTrove;-inkscape-font-specification:CCTreasureTrove;text-align:center;text-anchor:middle;stroke-width:0.264583" x="34.925701" y="10.823263">DRUMMER</ns0:tspan></ns0:text><ns0:image width="62.386841" height="40.978691" preserveAspectRatio="none" ns3:href="../images/catoblepas.png" id="image-catoblepas" x="3.4912426" y="14.149352" ns1:svg-dpi="1" style="display:inline" ns1:label="image-catoblepas" clip-path="url(#clippath--1)" /><g id="attack-hex"><ns0:path id="hex-center" style="display:inline;fill:#cccccc;fill-rule:evenodd;stroke:#000000;stroke-width:0.3;stroke-linecap:round;stroke-linejoin:round" ns1:label="hex-center" d="m 16.157434,103.33519 1.412526,2.44656 -1.412525,2.44657 h -2.825052 l -1.412526,-2.44657 1.412526,-2.44656 z" /><ns0:path id="hex-top" style="display:inline;fill:none;fill-rule:evenodd;stroke:#000000;stroke-width:0.3;stroke-linecap:round;stroke-linejoin:round" ns1:label="hex-top" d="m 16.157433,98.035982 1.412526,2.446568 -1.412525,2.44657 h -2.825052 l -1.412526,-2.44657 1.412526,-2.446568 z" /><ns0:path id="hex-bottom" style="display:inline;fill:none;fill-rule:evenodd;stroke:#000000;stroke-width:0.3;stroke-linecap:round;stroke-linejoin:round" ns1:label="hex-bottom" d="m 16.157436,108.63438 1.412526,2.44656 -1.412526,2.44657 h -2.825052 l -1.412526,-2.44657 1.412526,-2.44656 z" /><ns0:path id="hex-top-left" style="display:inline;fill:none;fill-rule:evenodd;stroke:#000000;stroke-width:0.3;stroke-linecap:round;stroke-linejoin:round" ns1:label="hex-top-left" d="m 11.568195,100.68559 1.412526,2.44656 -1.412526,2.44657 H 8.7431435 l -1.4125258,-2.44657 1.4125257,-2.44656 z" /><ns0:path id="hex-top-right" style="display:inline;fill:none;fill-rule:evenodd;stroke:#000000;stroke-width:0.3;stroke-linecap:round;stroke-linejoin:round" ns1:label="hex-top-right" d="m 20.746675,100.68559 1.412526,2.44656 -1.412526,2.44657 h -2.825052 l -1.412526,-2.44657 1.412526,-2.44656 z" /><ns0:path id="hex-bottom-left" style="display:inline;fill:none;fill-rule:evenodd;stroke:#000000;stroke-width:0.3;stroke-linecap:round;stroke-linejoin:round" ns1:label="hex-bottom-left" d="m 11.568195,105.98478 1.412526,2.44656 -1.412525,2.44657 H 8.7431443 l -1.4125258,-2.44657 1.4125257,-2.44656 z" /><ns0:path id="hex-bottom-right" style="display:inline;fill:none;fill-rule:evenodd;stroke:#000000;stroke-width:0.3;stroke-linecap:round;stroke-linejoin:round" ns1:label="hex-bottom-right" d="m 20.746676,105.98479 1.412526,2.44656 -1.412526,2.44657 h -2.825052 l -1.412526,-2.44657 1.412526,-2.44656 z" /><ns0:path id="hex-center-triangle" style="fill-rule:evenodd;stroke:#000000;stroke-width:0.0999998;stroke-linejoin:round" ns1:label="hex-center-triangle" ns1:transform-center-x="1.5077654e-06" d="m 14.042646,104.24705 0.616957,-0.58534 0.616957,0.58534 z" /></g><g id="pattern_translate" transform="translate(47 78.7)"><use id="use1234" xlink:href="#element-earth" width="100%" height="100%" x="-9.75" y="-16.75" /><use id="use1235" xlink:href="#element-earth" width="100%" height="100%" x="-2.75" y="-16.75" /><use id="use1236" xlink:href="#element-earth" width="100%" height="100%" x="4.25" y="-16.75" /><circle id="circle1237" cx="-7.0" cy="-7.0" r="0.8" style="fill:#c0c0c0;stroke:none;stroke-width:0" /><circle id="circle1238" cx="0.0" cy="-7.0" r="0.8" style="fill:#c0c0c0;stroke:none;stroke-width:0" /><circle id="circle1239" cx="7.0" cy="-7.0" r="0.8" style="fill:#c0c0c0;stroke:none;stroke-width:0" /><circle id="circle1240" cx="-7.0" cy="0.0" r="0.8" style="fill:#c0c0c0;stroke:none;stroke-width:0" /><circle id="circle1241" cx="0.0" cy="0.0" r="0.8" style="fill:#c0c0c0;stroke:none;stroke-width:0" /><circle id="circle1242" cx="7.0" cy="0.0" r="0.8" style="fill:#c0c0c0;stroke:none;stroke-width:0" /><circle id="circle1243" cx="-7.0" cy="7.0" r="0.8" style="fill:#c0c0c0;stroke:none;stroke-width:0" /><rect id="rect1244" x="-2.75" y="4.25" width="5.5" height="5.5" style="fill:none;stroke:#000000;stroke-width:0.5;stroke-linecap:round;stroke-miterlimit:2" /><circle id="circle1245" cx="7.0" cy="7.0" r="0.8" style="fill:#c0c0c0;stroke:none;stroke-width:0" /><circle id="circle1246" cx="-7.0" cy="14.0" r="0.8" style="fill:#c0c0c0;stroke:none;stroke-width:0" /><rect id="rect1247" x="-2.75" y="11.25" width="5.5" height="5.5" style="fill:none;stroke:#000000;stroke-width:0.5;stroke-linecap:round;stroke-miterlimit:2" /><circle id="circle1248" cx="7.0" cy="14.0" r="0.8" style="fill:#c0c0c0;stroke:none;stroke-width:0" /></g><g id="actions"><ns0:path id="attack-base3" style="color:#000000;clip-rule:nonzero;display:inline;overflow:visible;visibility:visible;isolation:auto;mix-blend-mode:normal;color-interpolation:sRGB;color-interpolation-filters:linearRGB;solid-color:#000000;solid-opacity:1;fill:#000000;fill-opacity:1;fill-rule:evenodd;stroke:none;stroke-width:0.670362;stroke-linecap:butt;stroke-linejoin:miter;stroke-miterlimit:4;stroke-dasharray:none;stroke-dashoffset:0;stroke-opacity:1;color-rendering:auto;image-rendering:auto;shape-rendering:auto;text-rendering:auto;enable-background:accumulate" d="m 10.230117,123.71609 2.025299,-1.41722 -0.310708,1.79668 1.720341,0.48638 -1.212078,0.98739 0.62274,1.21027 -1.281164,-0.29556 -0.585394,2.66924 -0.903521,-1.6455 -1.2293543,0.66667 0.012999,-1.35174 -2.0180559,-0.0415 2.0252862,-1.41719 -1.4762502,-1.52886 1.5770819,0.21528 0.1141514,-1.4644 z m 3.079498,4.32348 1.797724,-1.69661 -0.04618,1.82274 1.772776,0.23109 -1.055636,1.15313 0.792087,1.10687 -1.310529,-0.10605 -0.191084,2.726 -1.133157,-1.49665 -1.119367,0.83832 -0.183679,-1.33926 -2.002638,0.25241 1.797717,-1.6966 -1.68285,-1.29799 1.591625,-0.0163 -0.09997,-1.46543 z m -5.8445296,1.38785 1.2928439,-2.10686 0.4309454,1.77167 1.7716703,-0.23941 -0.718244,1.38859 1.053428,0.86189 -1.292841,0.23943 0.526711,2.68144 -1.4843724,-1.14918 -0.8618959,1.10131 -0.5267137,-1.24496 -1.867439,0.76611 1.2928404,-2.10683 -1.9631974,-0.81401 1.5322546,-0.43096 -0.4788315,-1.3886 z" /><ns0:path style="color:#000000;clip-rule:nonzero;display:inline;overflow:visible;visibility:visible;isolation:auto;mix-blend-mode:normal;color-interpolation:sRGB;color-interpolation-filters:linearRGB;solid-color:#000000;solid-opacity:1;fill:#000000;fill-opacity:1;fill-rule:evenodd;stroke:none;stroke-width:0.381;stroke-linecap:butt;stroke-linejoin:miter;stroke-miterlimit:4;stroke-dasharray:none;stroke-dashoffset:0;stroke-opacity:1;color-rendering:auto;image-rendering:auto;shape-rendering:auto;text-rendering:auto;enable-background:accumulate" d="m 18.937869,127.49298 v 0.65216 h -0.65164 v 0.57567 h 0.65164 v 0.64958 h 0.576192 v -0.64958 h 0.608232 c -0.01199,-0.0952 -0.01809,-0.19209 -0.01809,-0.29042 0,-0.0966 0.0066,-0.19165 0.01809,-0.28525 h -0.608232 v -0.65216 z" id="action-plus" /><ns0:path ns2:nodetypes="csssssssccsssccssscccccsccscscccsccsccsssssssccsc" ns1:connector-curvature="0" id="action-air" d="m 10.005588,60.821426 c -0.2442927,-0.0935 -0.4461247,-0.11273 -0.6626717,-0.0792 -0.380015,0.0589 -0.908552,0.1816 -1.331438,0.38569 -0.456547,0.22034 -0.562095,0.38809 -0.936534,0.61009 -0.348837,0.20683 -0.702046,0.35052 -0.979689,0.66512 -0.138267,0.15668 -0.0164,0.27728 0.06644,0.24924 0.456436,-0.15451 0.673007,-0.34745 0.950339,-0.52541 0.255167,-0.16375 0.169141,0.018 0.633272,-0.31073 0.406472,-0.28786 0.486765,-0.3346 0.699445,-0.37842 0.117359,-0.053 0.239063,-0.10752 0.383331,-0.15591 0.338374,-0.0924 0.381768,-0.0664 0.803178,-0.0311 0.345346,0.0289 0.7016627,0.16535 0.8554457,0.32088 0.173462,0.17543 0.540359,0.20463 0.875298,0.92065 0.137722,0.2944 0.180126,0.59748 0.151916,0.89825 0.03004,0.23203 0.161985,0.31911 -0.0014,1.02107 -0.121272,0.43869 -0.460967,0.85069 -0.896938,1.0429 -0.509563,0.224657 -1.0973057,0.263737 -1.6029327,0.13516 -0.487051,-0.12386 -1.015068,-0.56502 -1.116759,-1.03631 -0.09915,-0.45951 -0.176559,-0.85873 -0.195137,-1.22389 0.0397,-0.45078 0.476789,-0.44114 0.862235,-0.75323 0.263852,-0.11327 0.450686,-0.30063 0.813126,-0.30063 0.310382,0.0452 0.6424037,0.24323 0.7626997,0.4606 0.257808,0.26159 0.375252,0.6 0.294668,1.03106 0.01227,0.21714 -0.356333,0.57954 -0.5692827,0.61904 -0.265797,0.0494 -0.599777,-0.17192 -0.764898,-0.2549 -0.157605,-0.0476 -0.147161,-0.11328 -0.08194,-0.35832 0.07858,-0.11911 0.226796,-0.19391 0.316566,-0.25366 0.108565,-0.0722 0.117025,-0.21896 0.08687,-0.33737 -0.06605,-0.0984 -0.131468,-0.16743 -0.291149,-0.1151 -0.109042,0.0358 -0.310935,0.0578 -0.357803,0.1041 -0.0762,0.0742 -0.285524,0.19517 -0.343324,0.28013 -0.05477,0.19805 0.05667,0.41548 0.07742,0.58562 0.02678,0.20167 0.136259,0.43423 0.366228,0.549 0.346732,0.17305 0.777072,0.25998 1.044328,0.2468 0.3263847,-0.0365 0.9660637,-0.32725 0.9726997,-1.01696 -0.01734,-0.32504 -0.189535,-0.97646 -0.423134,-1.40471 -0.237519,-0.43544 -0.5737737,-0.62113 -1.0509177,-0.61762 -0.242947,0.0223 -0.595162,0.0526 -1.106808,0.36599 -0.590961,0.23663 -0.682153,0.3351 -1.089928,0.81022 -0.265749,0.30963 -0.03379,0.87487 -0.03379,0.87487 0.187776,0.42423 0.09697,0.47419 0.282846,0.96719 0.243185,0.64499 0.785873,1.125957 1.41067,1.268897 0.505072,0.11554 1.6953597,-0.094 1.9535087,-0.15721 0.732855,-0.17935 0.974956,-0.522117 1.188862,-1.416397 0.142202,-0.59451 0.03415,-1.10911 0.0088,-1.31534 -0.03216,-0.2615 -0.122811,-0.69449 -0.194898,-0.8871 -0.165917,-0.40208 -0.702989,-0.79826 -1.135659,-1.195 -0.402782,-0.35996 -0.312245,-0.14228 -0.693187,-0.28811 z" style="color:#000000;font-style:normal;font-variant:normal;font-weight:normal;font-stretch:normal;font-size:medium;line-height:normal;font-family:sans-serif;text-indent:0;text-align:start;text-decoration:none;text-decoration-line:none;text-decoration-style:solid;text-decoration-color:#000000;letter-spacing:normal;word-spacing:normal;text-transform:none;writing-mode:lr-tb;direction:ltr;baseline-shift:baseline;text-anchor:start;white-space:normal;clip-rule:nonzero;display:inline;overflow:visible;visibility:visible;isolation:auto;mix-blend-mode:normal;color-interpolation:sRGB;color-interpolation-filters:linearRGB;solid-color:#000000;solid-opacity:1;fill:#303030;fill-opacity:1;fill-rule:evenodd;stroke:none;stroke-width:0.508;stroke-linecap:round;stroke-linejoin:miter;stroke-miterlimit:4;stroke-dasharray:none;stroke-dashoffset:0;stroke-opacity:1;color-rendering:auto;image-rendering:auto;shape-rendering:auto;text-rendering:auto;enable-background:accumulate" /><ns0:path id="action-earth" style="color:#000000;font-style:normal;font-variant:normal;font-weight:normal;font-stretch:normal;font-size:medium;line-height:normal;font-family:sans-serif;text-indent:0;text-align:start;text-decoration:none;text-decoration-line:none;text-decoration-style:solid;text-decoration-color:#000000;letter-spacing:normal;word-spacing:normal;text-transform:none;writing-mode:lr-tb;direction:ltr;baseline-shift:baseline;text-anchor:start;white-space:normal;clip-rule:nonzero;display:inline;overflow:visible;visibility:visible;isolation:auto;mix-blend-mode:normal;color-interpolation:sRGB;color-interpolation-filters:linearRGB;solid-color:#000000;solid-opacity:1;fill:#004c00;fill-opacity:1;fill-rule:evenodd;stroke:none;stroke-width:0.508;stroke-linecap:round;stroke-linejoin:round;stroke-miterlimit:4;stroke-dasharray:none;stroke-dashoffset:0;stroke-opacity:1;color-rendering:auto;image-rendering:auto;shape-rendering:auto;text-rendering:auto;enable-background:accumulate" d="m 9.8299685,78.681056 c -0.05679,0.003 -0.111076,0.0247 -0.153997,0.062 -0.273966,0.23788 -0.489638,0.62017 -0.714374,0.98309 -0.117052,0.18903 -0.283308,0.43321 -0.429535,0.64431 -0.005,-0.003 -0.0098,-0.006 -0.0153,-0.009 0.03976,0.0228 -0.256162,-0.21317 -0.374965,-0.36815 -0.16708,-0.20836 -0.458067,-0.47443 -0.661664,-0.55169 -0.08301,0.002 -0.474593,0.37109 -0.520486,0.44029 -0.2603007,0.39253 -0.4323937,0.61378 -0.7197497,1.04427 -0.187906,0.28176 0.162141,0.34556 0.35016,0.0638 0.2191287,-0.32828 0.7259787,-0.9055 0.8865607,-0.96243 0,0 0.527656,0.40799 0.702594,0.50809 0.06453,0.0374 0.130978,0.0574 0.192649,0.0651 -0.0381,0.0545 -0.107838,0.15438 -0.120096,0.17281 -0.601492,0.67532 -0.837151,1.3201 -1.5523607,2.07863 -0.221367,0.25635 0.2358647,0.28571 0.4572337,0.0294 0.710366,-0.82306 0.891257,-1.09601 1.445287,-1.70966 0.0083,-0.009 0.294286,-0.33396 0.410103,-0.50168 0.102936,-0.1542 0.129343,-0.32776 0.3452,-0.67634 0.146812,-0.23709 0.317881,-0.52893 0.453098,-0.60048 0.174925,0.19302 0.4474665,0.45486 0.6924635,1.00355 0.205682,0.29316 0.571591,0.73056 0.632107,0.82125 0.187922,0.28889 0.600353,0.81478 0.638928,0.89111 0.152696,0.30244 0.218887,-0.13255 0.114514,-0.49548 -0.08042,-0.15914 -0.138991,-0.38262 -0.327628,-0.67262 -0.188638,-0.28999 -0.427118,-0.51422 -0.476044,-0.60193 l -0.19575,-0.33093 c -0.168726,-0.40348 -0.456968,-0.55528 -0.825996,-1.19972 -0.04752,-0.0829 -0.1374825,-0.13209 -0.2329565,-0.12733 z m -0.831371,2.85875 c -0.199377,0.13574 -0.440232,0.59575 -0.592005,1.09368 -0.117667,0.3176 0.358683,0.49409 0.476457,0.17652 0.06054,-0.41168 0.269956,-0.93679 0.269956,-0.93679 0.06288,-0.1625 0.0197,-0.32654 -0.154408,-0.33341 z m 1.5159795,0.0174 c -0.0059,-1.2e-4 -0.01182,-10e-5 -0.01778,2.2e-4 -0.192613,0.01 -0.195708,0.10101 -0.09488,0.26542 0,0 0.384402,0.69623 0.51759,1.13212 0.170404,0.300627 0.706249,0.24805 0.533508,-0.13808 -0.205837,-0.46011 -0.723264,-1.13233 -0.723264,-1.13233 -0.04466,-0.0776 -0.126522,-0.12563 -0.215181,-0.12733 z m -0.6521565,0.15358 c -0.140194,0.002 -0.252062,0.14154 -0.250114,0.28174 l -0.07276,1.285917 c -0.0049,0.34348 0.4887565,0.077 0.4838985,-0.266447 -0.0333,-0.27767 0.0689,-0.87037 -0.1610245,-1.30121 z" /><ns0:path ns2:nodetypes="ccssssccsscccssscssscccssssccssccccsscsccsssscssscccscscssscccssccc" ns1:connector-curvature="0" id="action-fire" d="m 8.2306933,69.140663 c -0.07265,0.0787 0.0081,0.24245 0.0081,0.24245 0,0 0.0623,0.26779 0.08562,0.51321 0.02332,0.24543 -0.0042,0.45021 -0.01922,0.59506 -0.02407,0.23323 -0.220163,0.67359 -0.371001,0.91883 -0.150837,0.24524 -0.247618,0.49447 -0.259918,0.79809 -0.0025,0.0622 0.01924,0.18211 0.02862,0.24074 -0.169827,0.19924 -0.354075,0.29733 -0.527845,0.34925 -0.233965,0.0699 -0.598425,0.26054 -0.913104,0.57152 -0.250895,0.24796 -0.351264,0.47802 -0.435646,0.79751 -0.08438,0.319487 -0.136941,0.581877 -0.105658,0.816487 0,0 0.0033,0.27472 0.08802,0.35343 0.115025,0.0242 0.288434,-0.1081 0.288434,-0.1081 0.357587,-0.27173 0.68671,-0.52797 0.967319,-0.61949 0.305707,-0.0997 0.628788,-0.0676 0.838242,3.4e-4 0.275174,0.0893 0.573109,0.0492 0.861439,-0.0177 0.198635,-0.0461 0.331599,-0.15183 0.477731,-0.287097 0.19457,0.159577 0.313403,0.190137 0.452482,0.302617 0.170803,0.13814 0.3677177,0.26752 0.6709577,0.35203 0.316692,0.0883 0.678984,0.0954 1.015118,0.0483 0.336132,-0.0471 0.643719,-0.13497 0.862321,-0.33536 0,0 0.187783,-0.13975 0.16962,-0.21845 -0.04241,-0.0721 -0.228527,-0.149097 -0.228527,-0.149097 0,0 -0.206616,-0.0853 -0.439134,-0.22269 -0.232518,-0.13739 -0.412054,-0.37792 -0.56783,-0.52531 -0.184381,-0.17446 -0.233489,-0.40868 -0.314152,-0.64613 -0.08024,-0.23621 -0.180719,-0.53977 -0.491023,-0.75605 -0.148665,-0.10361 -0.293225,-0.19198 -0.4480267,-0.25268 -0.03695,-0.16934 -0.03514,-0.32736 -0.01525,-0.50108 0.06092,-0.31791 -0.03244,-0.74374 -0.143738,-1.04953 -0.117417,-0.32261 -0.36006,-0.48944 -0.517392,-0.66514 -0.167647,-0.18722 -0.402432,-0.39172 -0.639778,-0.48666 0,0 -0.146695,-0.0654 -0.376748,-0.0593 z m 0.505421,0.66096 c 0.05626,0.0464 0.226952,0.16284 0.311807,0.25295 0.19841,0.2107 0.365051,0.51144 0.399681,0.73512 0.03372,0.21783 -0.0058,0.41008 -0.02912,0.61444 -0.01506,0.13152 0.002,0.277 0.05242,0.41608 -0.04017,0.002 -0.140624,0.006 -0.182081,0.0119 -0.138339,0.0201 -0.284484,0.0604 -0.442074,0.1195 -0.326347,0.11463 -0.07438,0.18431 0.255429,0.15024 0.257445,-0.0142 0.499281,0.12291 0.658218,0.19871 0.129887,0.0619 0.3422137,0.21791 0.4064717,0.3312 0.125182,0.22073 0.29262,0.48954 0.316946,0.60994 0.04406,0.21801 0.124706,0.42765 0.355607,0.71761 0.208202,0.26146 0.474385,0.35047 0.729959,0.502087 -0.02283,0.0753 -0.229248,0.13734 -0.293828,0.14639 -0.275491,0.0386 -0.572585,-0.0262 -0.773835,-0.13713 -0.219861,-0.121207 -0.367632,-0.120907 -0.5522927,-0.245777 -0.121258,-0.082 -0.285888,-0.13932 -0.370579,-0.31085 0.1117,-0.2616 0.23294,-0.50026 0.277289,-0.75526 0.07055,-0.34216 -0.262698,-0.005 -0.406105,0.25538 -0.152344,0.34515 -0.399044,0.61042 -0.77034,0.74235 -0.240408,0.0854 -0.446719,0.006 -0.669906,-0.043 -0.223185,-0.0482 -0.535282,-0.10163 -0.940152,0.0304 -0.27843,0.0908 -0.643511,0.19496 -0.908205,0.507047 -0.02893,-0.16128 0.04867,-0.325837 0.07298,-0.404327 0.07993,-0.25807 0.309515,-0.5191 0.461755,-0.66955 0.231763,-0.22904 0.521483,-0.29732 0.761371,-0.36902 0.177304,-0.053 0.253264,-0.049 0.437819,-0.21288 0.135203,0.23398 0.326225,0.42722 0.552759,0.58296 0.279123,0.1919 0.213923,-0.13183 -0.05451,-0.44438 -0.175058,-0.20384 -0.238362,-0.38186 -0.263388,-0.82569 -0.01276,-0.22631 0.09238,-0.4744 0.236544,-0.70879 0.186976,-0.2772 0.344605,-0.52152 0.383829,-0.90153 0.02354,-0.30075 0.04608,-0.68876 -0.01446,-0.89613 z" style="color:#000000;font-style:normal;font-variant:normal;font-weight:normal;font-stretch:normal;font-size:medium;line-height:normal;font-family:sans-serif;text-indent:0;text-align:start;text-decoration:none;text-decoration-line:none;text-decoration-style:solid;text-decoration-color:#000000;letter-spacing:normal;word-spacing:normal;text-transform:none;writing-mode:lr-tb;direction:ltr;baseline-shift:baseline;text-anchor:start;white-space:normal;clip-rule:nonzero;display:inline;overflow:visible;visibility:visible;opacity:0.699;isolation:auto;mix-blend-mode:normal;color-interpolation:sRGB;color-interpolation-filters:linearRGB;solid-color:#000000;solid-opacity:1;fill:#860000;fill-opacity:0.97451;fill-rule:evenodd;stroke:none;stroke-width:0.508;stroke-linecap:round;stroke-linejoin:miter;stroke-miterlimit:4;stroke-dasharray:none;stroke-dashoffset:0;stroke-opacity:1;color-rendering:auto;image-rendering:auto;shape-rendering:auto;text-rendering:auto;enable-background:accumulate" /><ns0:path id="action-water" style="color:#000000;font-style:normal;font-variant:normal;font-weight:normal;font-stretch:normal;font-size:medium;line-height:normal;font-family:sans-serif;text-indent:0;text-align:start;text-decoration:none;text-decoration-line:none;text-decoration-style:solid;text-decoration-color:#000000;letter-spacing:normal;word-spacing:normal;text-transform:none;writing-mode:lr-tb;direction:ltr;baseline-shift:baseline;text-anchor:start;white-space:normal;clip-rule:nonzero;display:inline;overflow:visible;visibility:visible;isolation:auto;mix-blend-mode:normal;color-interpolation:sRGB;color-interpolation-filters:linearRGB;solid-color:#000000;solid-opacity:1;fill:#00007e;fill-opacity:1;fill-rule:evenodd;stroke:none;stroke-width:0.508;stroke-linecap:round;stroke-linejoin:miter;stroke-miterlimit:4;stroke-dasharray:none;stroke-dashoffset:0;stroke-opacity:1;color-rendering:auto;image-rendering:auto;shape-rendering:auto;text-rendering:auto;enable-background:accumulate" d="m 10.708885,87.974591 c -0.01228,-4.6e-4 -0.02515,-3.4e-4 -0.03845,7.9e-4 -0.170654,0.0278 -0.357489,0.16941 -0.522344,0.22076 -0.5077472,0.21732 -1.0220762,0.18899 -1.5589762,0.061 -0.239638,-0.0423 -0.601677,-0.13449 -0.8394317,-0.17962 -0.660846,-0.0572 -1.185856,0.29188 -1.692506,0.67902 -0.16238,0.15298 -0.0027,0.32747 0.218695,0.29993 0.255652,-0.0751 0.571958,-0.1145 0.823928,-0.27058 0.318126,-0.15782 0.7862597,-0.2354 1.1325407,-0.0936 0.589419,0.17613 1.126578,0.24763 1.731782,0.0909 0.3551332,-0.0811 0.5805632,-0.23622 0.8634082,-0.47025 0.132446,-0.14995 0.06554,-0.33107 -0.118648,-0.33838 z m 0.868165,1.42358 c -0.352518,-0.01 -0.396277,0.21269 -0.890075,0.22097 -0.602238,0.0502 -1.0024782,-0.11018 -1.6015572,-0.1447 -0.792422,-0.0764 -1.6606027,0.40287 -2.3826957,0.61082 -0.19073,0.11572 0.0138,0.36479 0.236058,0.38406 0.197659,-6.8e-4 0.262364,0.0465 0.455165,0.009 0.5971467,-0.19091 0.9802277,-0.67444 1.5988687,-0.59739 0.624115,0.0614 1.4650182,0.34747 2.0895882,0.21105 0.197659,-0.0845 0.376815,-0.20792 0.518419,-0.36339 0.100647,-0.16295 0.167866,-0.33604 -0.02377,-0.33011 z m 0.421059,1.24395 c -0.260396,0.0285 -0.626652,0.31021 -0.892968,0.32556 -0.496435,0.0726 -1.1250742,-0.10079 -1.6211932,-0.11616 -0.840067,-0.0223 -1.308191,0.38013 -2.0875207,0.65277 -0.197101,0.10451 0.0056,0.24615 0.226342,0.27823 0.1805727,0.0156 0.4693547,-0.1014 0.6407877,-0.14324 0.465552,-0.16577 0.877247,-0.29725 1.3748,-0.22842 0.6575512,0.12286 1.0804432,0.18377 1.7251662,0.0744 0.21039,-0.0649 0.412261,-0.28793 0.601514,-0.39336 0.171224,-0.14884 0.260019,-0.45655 0.03307,-0.44979 z" /><g id="action0" transform="translate(0.0 0)" /><g id="action1" transform="translate(10.8 0)"><ns0:path style="color:#000000;clip-rule:nonzero;display:inline;overflow:visible;visibility:visible;isolation:auto;mix-blend-mode:normal;color-interpolation:sRGB;color-interpolation-filters:linearRGB;solid-color:#000000;solid-opacity:1;fill:#000000;fill-opacity:1;fill-rule:evenodd;stroke:none;stroke-width:0.526534;stroke-linecap:butt;stroke-linejoin:miter;stroke-miterlimit:4;stroke-dasharray:none;stroke-dashoffset:0;stroke-opacity:1;color-rendering:auto;image-rendering:auto;shape-rendering:auto;text-rendering:auto;enable-background:accumulate" d="m 29.24069,151.85502 1.015461,-1.65483 0.338486,1.39155 1.391554,-0.18804 -0.564143,1.09067 0.827411,0.67698 -1.015459,0.18805 0.413704,2.10613 -1.165895,-0.90262 -0.676975,0.86502 -0.413705,-0.97785 -1.466776,0.60175 1.015459,-1.65482 -1.541991,-0.63936 1.203507,-0.3385 -0.376097,-1.09068 z" id="action-attack1" ns1:connector-curvature="0" ns2:nodetypes="ccccccccccccccccc" /></g><g id="action2" transform="translate(21.6 0)" /><g id="action3" transform="translate(32.400000000000006 0)" /></g><g id="borders"><ns0:rect style="display:inline;fill:none;stroke:#000000;stroke-width:0.799999;stroke-linecap:round;stroke-linejoin:round" id="outer-border" width="62.411285" height="111.65322" x="3.626344" y="4.3897848" rx="0" ry="0" /><ns0:path style="display:inline;fill:none;stroke:#000000;stroke-width:0.799999;stroke-linecap:round;stroke-linejoin:round" d="M 2.0388439,-14.763754 H 64.450129" id="title-border" transform="translate(1.5875,28.045836)" /><ns0:path style="display:inline;fill:none;stroke:#000000;stroke-width:0.799999;stroke-linecap:round;stroke-linejoin:round" d="M 2.0388439,28.098751 H 64.450129" id="image-border" transform="translate(1.5875,28.045836)" /><ns0:path style="display:inline;fill:none;stroke:#000000;stroke-width:0.799999;stroke-linecap:round;stroke-linejoin:round" d="m 27.952816,56.144587 0,59.702253" id="vertical-border" ns2:nodetypes="cc" ns1:label="vertical-border" /><ns0:path style="display:inline;fill:none;stroke:#000000;stroke-width:0.799999;stroke-linecap:round;stroke-linejoin:round" d="m 28.039856,101.12379 37.997773,0" id="action-border" ns2:nodetypes="cc" /></g></g></svg>