<?xml version='1.0' encoding='UTF-8'?>
<svg xmlns:ns0="http://www.w3.org/2000/svg" xmlns:ns1="http://www.inkscape.org/namespaces/inkscape" xmlns:ns2="http://sodipodi.sourceforge.net/DTD/sodipodi-0.dtd" version="1.1" id="svg_root" xmlns="http://www.w3.org/2000/svg" xmlns:sodipodi="http://sodipodi.sourceforge.net/DTD/sodipodi-0.dtd" xmlns:inkscape="http://www.inkscape.org/namespaces/inkscape" xmlns:xlink="http://www.w3.org/1999/xlink" width="63.5mm" height="88.9mm" viewBox="0 0 63.5 88.9"><defs /><g id="card00" inkscape:label="Card 0" inkscape:groupmode="layer"><rect id="rect1001" x="0" y="0" width="63.5" height="88.9" rx="3" ry="3" style="fill:#ffffff;stroke:none;stroke-width:0" /><ns0:flowRoot transform="matrix(0.26458333,0,0,0.26458333,-0.20615133,-10.634229)" style="font-style:normal;font-variant:normal;font-weight:normal;font-stretch:normal;font-size:18px;line-height:1.25;font-family:Lato;-inkscape-font-specification:Lato;text-align:center;letter-spacing:0px;word-spacing:0px;text-anchor:middle;display:inline;fill:#000000;fill-opacity:1;stroke:none" id="watcher-title" xml:space="preserve"><ns0:flowRegion id="flowRegion1084"><ns0:rect y="51.894604" x="34.092648" height="48.739853" width="174.25131" id="rect1082" /></ns0:flowRegion><ns0:flowPara style="font-style:normal;font-variant:normal;font-weight:normal;font-stretch:normal;font-size:18px;font-family:CCTreasureTrove;-inkscape-font-specification:CCTreasureTrove" id="flowPara1086">Watcher</ns0:flowPara></ns0:flowRoot>    <ns0:g style="display:inline" id="watcher-image" transform="translate(-1.0583333)">
      <ns0:path ns1:connector-curvature="0" id="path4149" d="m 46.182098,10.084493 c -0.03397,-0.004 -0.0725,-0.0019 -0.115755,0.0066 -5.034476,2.607096 -8.845075,4.227594 -14.616025,5.764058 -0.03871,-0.04912 -0.07901,-0.09637 -0.120716,-0.141111 -0.698191,-0.749134 -1.789642,-1.470892 -3.068065,-0.838399 0.890899,0.605811 1.339986,0.748623 1.695538,1.672388 0.04976,0.129273 0.0886,0.295506 0.120717,0.47184 -0.282297,3.089349 -1.394773,5.432787 -3.903707,6.858221 -0.583276,-0.685762 -1.161481,-1.200364 -1.31079,-2.098477 -0.114519,-0.688849 -0.303154,-1.171577 -0.581532,-1.479462 0.122865,-0.675029 0.168399,-1.375347 -0.0055,-1.880195 -0.470479,-1.365749 -1.443712,-2.509211 -2.955617,-2.610005 0.604762,1.007937 1.296169,2.374447 1.140465,3.634714 -0.02265,0.183328 -0.104057,0.390849 -0.207809,0.601376 -0.115205,0.03385 -0.233777,0.07175 -0.357738,0.115204 -0.701847,0.246034 -1.081982,0.08546 -1.914371,0.951397 -0.319672,0.332555 -0.1078,1.157565 -0.512079,1.379692 -0.753629,0.414075 -1.776255,0.575255 -2.258329,0.749102 -0.380831,0.137336 0.296582,2.209528 0.725951,2.293607 1.420881,0.278236 2.635617,0.0565 4.048676,0.558932 0.299209,0.106387 0.571926,0.470691 0.751306,0.751858 0.139674,0.817453 0.458,2.50377 0.910608,3.797873 -0.188991,0.867477 -0.563545,1.585432 -1.091958,1.627739 -0.617973,0.04948 -1.750663,-1.932068 -3.716293,-2.045009 -1.049238,-0.06029 -1.876045,0.202938 -2.940734,1.010378 -0.909816,0.689987 -1.413871,2.017369 -1.378038,3.582899 0.03135,1.369864 0.584682,2.197144 1.441428,2.549921 -0.06348,-1.92193 0.100643,-4.006038 1.91437,-4.715095 0,0 0.896197,1.105187 0.08985,2.869076 1.17914,0.02164 2.234215,-0.956969 2.500864,-2.15911 1.347003,0.571658 2.055202,2.170588 2.72135,2.059891 0.475663,-0.07904 1.298814,-1.088663 1.935868,-1.964531 0.426675,0.630241 0.902747,1.224175 1.425994,1.740187 0.472346,0.465814 1.146589,1.022054 1.817909,1.546157 -0.74186,0.951585 -1.647484,2.238682 -1.936971,3.208626 -0.330778,1.10829 -0.222817,2.340727 0.02756,3.4699 0.267538,1.206563 0.614054,2.445742 0.614054,2.445744 -1.713493,1.71349 -2.134421,0.771443 -3.38777,1.170229 -0.03152,0.01003 -0.06035,0.02143 -0.09095,0.03197 -0.476819,-0.176374 -0.985183,-0.296 -1.347721,-0.185208 -0.979336,0.299289 -1.661075,0.988608 -1.93201,2.388965 0,0 0.761363,-0.230518 1.488282,-0.323561 -0.0664,0.240183 -0.116428,0.493326 -0.146624,0.765087 1.567982,-0.285086 2.291461,-0.405931 3.349735,-0.42609 0.987908,-0.01881 1.985399,0.274902 2.942939,0.42609 1.043499,-1.375518 2.405446,-2.15165 3.514549,-2.590162 0.113948,-0.04505 0.151714,-0.194014 0.07276,-0.316947 -0.490972,-0.764455 -1.044479,-1.162542 -1.184562,-2.579688 -0.09021,-0.912598 0.241701,-1.897374 0.783828,-2.637014 0.245733,-0.335259 0.721412,-0.678691 1.187318,-0.96683 0.439605,0.483018 0.85995,0.946311 1.368116,1.499854 0.934378,1.017812 2.010836,3.744523 3.028377,5.078346 0.63484,0.83217 2.149661,2.436844 3.812757,2.512441 h 2.985379 c 1.663097,0 2.940336,-1.13412 3.265951,-1.935869 0.630706,-1.552964 0.724975,-2.949334 0.673584,-4.624697 -0.03772,-1.229704 0.486857,-3.191256 1.611754,-3.990247 0.739352,-0.525145 1.930123,-0.56216 3.038851,-0.461365 0.115816,0.04301 0.0398,-0.187653 -0.06449,-0.335139 -0.841195,-1.189607 -2.725809,-1.244172 -3.743304,-0.962422 -1.648815,0.456565 -2.645526,2.139534 -3.118776,3.665029 -0.407482,1.313506 -0.246962,2.68959 -0.72209,4.069623 -0.636794,1.849598 -2.334329,1.385255 -3.345326,0.227652 -1.740293,-1.992646 -2.169251,-4.836308 -3.4925,-7.127216 -0.3035,-0.525441 -0.755159,-1.208937 -1.207712,-1.877437 0.686529,-0.558733 1.635083,-0.991823 3.111059,-1.28819 0.14758,-0.02963 0.225631,-0.0825 0.234818,-0.184106 -0.769413,-3.941956 0.789743,-7.557667 5.222213,-9.848564 0.160107,-0.08275 0.261226,-0.226636 0.265686,-0.343407 -2.462656,-3.942505 -1.780595,-7.928316 1.041231,-13.960626 0.146902,-0.314037 0.131977,-0.628468 -0.105833,-0.656497 z" style="color:#000000;clip-rule:nonzero;display:inline;overflow:visible;visibility:visible;opacity:1;isolation:auto;mix-blend-mode:normal;color-interpolation:sRGB;color-interpolation-filters:linearRGB;solid-color:#000000;solid-opacity:1;fill:#000000;fill-opacity:1;fill-rule:evenodd;stroke:none;stroke-width:1.41111112;stroke-linecap:butt;stroke-linejoin:miter;stroke-miterlimit:4;stroke-dasharray:none;stroke-dashoffset:0;stroke-opacity:1;color-rendering:auto;image-rendering:auto;shape-rendering:auto;text-rendering:auto;enable-background:accumulate" />
    </ns0:g>
  <ns0:g id="attack-2" transform="translate(35.930327,-48.619598)">
      <ns0:g id="g8739" transform="translate(-0.06663296,5.2916668)">
        <ns0:text id="text8737" y="72.981346" x="16.899426" style="font-style:normal;font-variant:normal;font-weight:normal;font-stretch:normal;font-size:2.82222223px;line-height:1.25;font-family:Lato;-inkscape-font-specification:Lato;text-align:center;letter-spacing:0px;word-spacing:0px;text-anchor:middle;fill:#000000;fill-opacity:1;stroke:none;stroke-width:0.26458332" xml:space="preserve"><ns0:tspan id="tspan8735" style="font-style:normal;font-variant:normal;font-weight:normal;font-stretch:normal;font-family:CCTreasureTrove;-inkscape-font-specification:CCTreasureTrove;stroke-width:0.26458332" y="72.981346" x="16.899426" ns2:role="line">Attack</ns0:tspan></ns0:text>
      </ns0:g>
      <ns0:text xml:space="preserve" style="font-style:normal;font-variant:normal;font-weight:normal;font-stretch:normal;font-size:8.46666622px;line-height:1.25;font-family:Lato;-inkscape-font-specification:Lato;text-align:center;letter-spacing:0px;word-spacing:0px;text-anchor:middle;fill:#000000;fill-opacity:1;stroke:none;stroke-width:0.26458332" x="16.832607" y="72.714073" id="text8743"><ns0:tspan ns2:role="line" x="16.832607" y="72.714073" style="font-style:normal;font-variant:normal;font-weight:normal;font-stretch:normal;font-family:CCTreasureTrove;-inkscape-font-specification:CCTreasureTrove;stroke-width:0.26458332" id="tspan8741">2</ns0:tspan></ns0:text>
    </ns0:g>
    <ns0:g id="detect-yes">
      <ns0:text id="text8448" y="61.622395" x="16.364887" style="font-style:normal;font-variant:normal;font-weight:normal;font-stretch:normal;font-size:4.23333311px;line-height:1.25;font-family:Lato;-inkscape-font-specification:Lato;text-align:center;letter-spacing:0px;word-spacing:0px;text-anchor:middle;fill:#000000;fill-opacity:1;stroke:none;stroke-width:0.26458332" xml:space="preserve"><ns0:tspan style="font-style:normal;font-variant:normal;font-weight:normal;font-stretch:normal;font-family:CCTreasureTrove;-inkscape-font-specification:CCTreasureTrove;stroke-width:0.26458332" y="61.622395" x="16.364887" id="tspan8446" ns2:role="line">Detect</ns0:tspan><ns0:tspan id="tspan8450" style="font-style:normal;font-variant:normal;font-weight:normal;font-stretch:normal;font-family:CCTreasureTrove;-inkscape-font-specification:CCTreasureTrove;stroke-width:0.26458332" y="66.935226" x="16.364887" ns2:role="line">Yes</ns0:tspan></ns0:text>
    </ns0:g>
    <ns0:g id="pursuit-1">
      <ns0:text id="text8480" y="61.622395" x="46.527386" style="font-style:normal;font-variant:normal;font-weight:normal;font-stretch:normal;font-size:4.23333311px;line-height:1.25;font-family:Lato;-inkscape-font-specification:Lato;text-align:center;letter-spacing:0px;word-spacing:0px;text-anchor:middle;fill:#000000;fill-opacity:1;stroke:none;stroke-width:0.26458332" xml:space="preserve"><ns0:tspan style="font-style:normal;font-variant:normal;font-weight:normal;font-stretch:normal;font-family:CCTreasureTrove;-inkscape-font-specification:CCTreasureTrove;stroke-width:0.26458332" y="61.622395" x="46.527386" id="tspan8476" ns2:role="line">Pursuit</ns0:tspan><ns0:tspan id="tspan8478" style="font-style:normal;font-variant:normal;font-weight:normal;font-stretch:normal;font-family:CCTreasureTrove;-inkscape-font-specification:CCTreasureTrove;stroke-width:0.26458332" y="66.935226" x="46.527386" ns2:role="line">1</ns0:tspan></ns0:text>
    </ns0:g>
    <ns0:g id="target-next">
      <ns0:g transform="matrix(0.33486681,0,0,0.33486681,148.34129,-104.15673)" style="display:inline" id="g1140">
        <ns0:path ns1:connector-curvature="0" style="fill:#000000;fill-opacity:1;stroke:none;stroke-width:8.84478855;stroke-linecap:round;stroke-linejoin:round;stroke-miterlimit:4;stroke-dasharray:none;stroke-dashoffset:0;stroke-opacity:1;paint-order:markers fill stroke" d="m -375.82617,249.07812 a 9.5061579,9.5061579 0 0 0 -9.50586,9.50782 9.5061579,9.5061579 0 0 0 9.50586,9.50586 9.5061579,9.5061579 0 0 0 9.50586,-9.50586 9.5061579,9.5061579 0 0 0 -9.50586,-9.50782 z m 0,3.07813 a 6.4298806,6.4298806 0 0 1 6.42969,6.42969 6.4298806,6.4298806 0 0 1 -6.42969,6.42968 6.4298806,6.4298806 0 0 1 -6.42969,-6.42968 6.4298806,6.4298806 0 0 1 6.42969,-6.42969 z" transform="translate(0,295.98423)" id="path1136" />
        <ns0:path ns1:connector-curvature="0" style="fill:#000000;fill-opacity:1;stroke:none;stroke-width:2.54783297;stroke-linecap:round;stroke-linejoin:round;stroke-miterlimit:4;stroke-dasharray:none;stroke-dashoffset:0;stroke-opacity:1;paint-order:markers fill stroke" d="m -373.08767,554.5694 a 2.7383475,2.7383475 0 0 1 -2.73835,2.73834 2.7383475,2.7383475 0 0 1 -2.73835,-2.73834 2.7383475,2.7383475 0 0 1 2.73835,-2.73835 2.7383475,2.7383475 0 0 1 2.73835,2.73835 z" id="path1138" />
      </ns0:g>
      <ns0:g id="g1146" style="display:inline" transform="matrix(0.33486681,0,0,0.33486681,166.86214,-104.15673)">
        <ns0:path id="path1142" transform="translate(0,295.98423)" d="m -375.82617,249.07812 a 9.5061579,9.5061579 0 0 0 -9.50586,9.50782 9.5061579,9.5061579 0 0 0 9.50586,9.50586 9.5061579,9.5061579 0 0 0 9.50586,-9.50586 9.5061579,9.5061579 0 0 0 -9.50586,-9.50782 z m 0,3.07813 a 6.4298806,6.4298806 0 0 1 6.42969,6.42969 6.4298806,6.4298806 0 0 1 -6.42969,6.42968 6.4298806,6.4298806 0 0 1 -6.42969,-6.42968 6.4298806,6.4298806 0 0 1 6.42969,-6.42969 z" style="fill:#000000;fill-opacity:1;stroke:none;stroke-width:8.84478855;stroke-linecap:round;stroke-linejoin:round;stroke-miterlimit:4;stroke-dasharray:none;stroke-dashoffset:0;stroke-opacity:1;paint-order:markers fill stroke" ns1:connector-curvature="0" />
        <ns0:path id="path1144" d="m -373.08767,554.5694 a 2.7383475,2.7383475 0 0 1 -2.73835,2.73834 2.7383475,2.7383475 0 0 1 -2.73835,-2.73834 2.7383475,2.7383475 0 0 1 2.73835,-2.73835 2.7383475,2.7383475 0 0 1 2.73835,2.73835 z" style="fill:#000000;fill-opacity:1;stroke:none;stroke-width:2.54783297;stroke-linecap:round;stroke-linejoin:round;stroke-miterlimit:4;stroke-dasharray:none;stroke-dashoffset:0;stroke-opacity:1;paint-order:markers fill stroke" ns1:connector-curvature="0" />
      </ns0:g>
      <ns0:g id="g8597">
        <ns0:path style="color:#000000;font-style:normal;font-variant:normal;font-weight:normal;font-stretch:normal;font-size:medium;line-height:normal;font-family:sans-serif;font-variant-ligatures:normal;font-variant-position:normal;font-variant-caps:normal;font-variant-numeric:normal;font-variant-alternates:normal;font-feature-settings:normal;text-indent:0;text-align:start;text-decoration:none;text-decoration-line:none;text-decoration-style:solid;text-decoration-color:#000000;letter-spacing:normal;word-spacing:normal;text-transform:none;writing-mode:lr-tb;direction:ltr;text-orientation:mixed;dominant-baseline:auto;baseline-shift:baseline;text-anchor:start;white-space:normal;shape-padding:0;clip-rule:nonzero;display:inline;overflow:visible;visibility:visible;opacity:1;isolation:auto;mix-blend-mode:normal;color-interpolation:sRGB;color-interpolation-filters:linearRGB;solid-color:#000000;solid-opacity:1;vector-effect:none;fill:#000000;fill-opacity:1;fill-rule:nonzero;stroke:none;stroke-width:0.5;stroke-linecap:butt;stroke-linejoin:miter;stroke-miterlimit:4;stroke-dasharray:none;stroke-dashoffset:0;stroke-opacity:1;color-rendering:auto;image-rendering:auto;shape-rendering:auto;text-rendering:auto;enable-background:accumulate" d="m 25.390625,81.304688 v 0.5 h 11.892578 v -0.5 z" id="path1711" ns1:connector-curvature="0" />
        <ns0:path id="path8603" style="fill:#000000;fill-opacity:1;fill-rule:evenodd;stroke:#000000;stroke-width:0.1875;stroke-linejoin:round;stroke-opacity:1" d="m 34.668522,80.344769 3.277763,1.205317 -3.277764,1.205316 c 0.52365,-0.711618 0.520633,-1.685235 1e-6,-2.410633 z" ns1:connector-curvature="0" />
      </ns0:g>
    </ns0:g>
    <ns0:flowRoot transform="matrix(0.26458333,0,0,0.26458333,2.1270026,32.515712)" xml:space="preserve" id="watcher-flavor" style="font-style:normal;font-weight:normal;font-size:10px;line-height:125%;font-family:sans-serif;text-align:center;letter-spacing:0px;word-spacing:0px;text-anchor:middle;display:inline;fill:#000000;fill-opacity:1;stroke:none;stroke-width:1px;stroke-linecap:butt;stroke-linejoin:miter;stroke-opacity:1"><ns0:flowRegion style="text-align:center;text-anchor:middle" id="flowRegion8489"><ns0:rect style="text-align:center;text-anchor:middle" x="28.799999" y="146" width="165.45445" height="25.598965" id="rect8487" /></ns0:flowRegion><ns0:flowPara style="font-style:italic;font-variant:normal;font-weight:normal;font-stretch:normal;font-size:8px;font-family:'Arial Narrow';-inkscape-font-specification:'Arial Narrow Italic';text-align:center;text-anchor:middle" id="flowPara8491">Detect Range = 3</ns0:flowPara></ns0:flowRoot>    <ns0:path ns1:connector-curvature="0" id="icon-star-1" d="m 5.4649462,14.111423 -0.743117,1.32116 -1.486234,0.298556 1.026873,1.115105 -0.17532,1.505874 1.377798,-0.632122 1.377796,0.632122 -0.175316,-1.505874 1.026863,-1.115105 -1.486232,-0.298556 z" style="display:inline;fill:#000000;fill-opacity:1;fill-rule:nonzero;stroke:none;stroke-width:0.40801734;stroke-linecap:round;stroke-miterlimit:4;stroke-dasharray:none;stroke-dashoffset:0;stroke-opacity:1" ns2:nodetypes="ccccccccccc" />
    <ns0:path ns2:nodetypes="ccccccccccc" style="display:inline;fill:#000000;fill-opacity:1;fill-rule:nonzero;stroke:none;stroke-width:0.40801734;stroke-linecap:round;stroke-miterlimit:4;stroke-dasharray:none;stroke-dashoffset:0;stroke-opacity:1" d="m 5.4649468,19.40309 -0.7431167,1.321159 -1.486235,0.298556 1.026873,1.115105 -0.175319,1.505874 1.3777977,-0.632122 1.3777955,0.632122 -0.175317,-1.505874 1.026864,-1.115105 -1.486232,-0.298556 z" id="icon-star-2" ns1:connector-curvature="0" />
    </g></svg>