<?xml version='1.0' encoding='UTF-8'?>
<svg xmlns:ns0="http://www.w3.org/2000/svg" xmlns:ns1="http://www.inkscape.org/namespaces/inkscape" xmlns:ns2="http://sodipodi.sourceforge.net/DTD/sodipodi-0.dtd" version="1.1" id="svg_root" xmlns="http://www.w3.org/2000/svg" xmlns:sodipodi="http://sodipodi.sourceforge.net/DTD/sodipodi-0.dtd" xmlns:inkscape="http://www.inkscape.org/namespaces/inkscape" xmlns:xlink="http://www.w3.org/1999/xlink" width="63.5mm" height="88.9mm" viewBox="0 0 63.5 88.9"><defs><clipPath id="clippath-1187"><ns0:rect id="graybar-clip" x="0" y="0" width="63.5" height="88.900002" rx="3" ry="3" style="fill:#ffffff;stroke:none;stroke-width:0.2;stroke-miterlimit:4;stroke-dasharray:none;stroke-opacity:1;fill-opacity:1" />
    </clipPath></defs><g id="card00" inkscape:label="Card 0" inkscape:groupmode="layer"><rect id="rect1185" x="0" y="0" width="63.5" height="88.9" rx="3" ry="3" style="fill:#ffffff;stroke:none;stroke-width:0" /><g id="masters" style="display:none"><ns0:path style="color:#000000;font-style:normal;font-variant:normal;font-weight:normal;font-stretch:normal;font-size:medium;line-height:normal;font-family:sans-serif;text-indent:0;text-align:start;text-decoration:none;text-decoration-line:none;text-decoration-style:solid;text-decoration-color:#000000;letter-spacing:normal;word-spacing:normal;text-transform:none;writing-mode:lr-tb;direction:ltr;baseline-shift:baseline;text-anchor:start;white-space:normal;clip-rule:nonzero;display:inline;overflow:visible;visibility:visible;opacity:1;isolation:auto;mix-blend-mode:normal;color-interpolation:sRGB;color-interpolation-filters:linearRGB;solid-color:#000000;solid-opacity:1;fill:#303030;fill-opacity:1;fill-rule:evenodd;stroke:none;stroke-width:0.386237;stroke-linecap:round;stroke-linejoin:miter;stroke-miterlimit:4;stroke-dasharray:none;stroke-dashoffset:0;stroke-opacity:1;filter:url(#filter9446);color-rendering:auto;image-rendering:auto;shape-rendering:auto;text-rendering:auto;enable-background:accumulate" d="m 3.2390738,0.89696167 c -0.1922034,-0.0687 -0.3509989,-0.0828 -0.5213718,-0.0582 -0.2989846,0.0433 -0.7148222,0.13343 -1.0475371,0.28338003 -0.3591976,0.1619 -0.4422405,0.28515 -0.73683825,0.44826 -0.27445487,0.15196 -0.5523497,0.25754 -0.7707908,0.48869 -0.1087848,0.11511 -0.012906,0.20373 0.052274,0.18313 0.35911073,-0.11352 0.5295022,-0.25529 0.747699,-0.38605 0.20075835,-0.1203 0.13307565,0.0132 0.49824095,-0.2283 0.3197999,-0.2115 0.3829724,-0.24584 0.5503033,-0.27803 0.092334,-0.0389 0.1880876,-0.079 0.3015931,-0.11456 0.2662233,-0.0679 0.3003648,-0.0488 0.6319178,-0.0228 0.2717089,0.0213 0.5520487,0.12149 0.6730397,0.23576 0.1364758,0.1289 0.4251396,0.15035 0.6886601,0.67643 0.1083559,0.21632 0.1417186,0.439 0.1195229,0.65999 0.023635,0.17047 0.1274456,0.23446 -0.00106,0.75022 -0.095413,0.32232 -0.3626758,0.62503 -0.7056856,0.76625 -0.4009091,0.16507 -0.863329,0.19378 -1.2611419,0.0993 -0.3832045,-0.091 -0.7986336,-0.41514 -0.8786415,-0.76142 -0.078006,-0.33762 -0.138911,-0.63094 -0.1535277,-0.89924 0.031234,-0.3312 0.3751235,-0.32412 0.678382,-0.55342 0.2075911,-0.0832 0.3545871,-0.22088 0.6397438,-0.22088 0.2441998,0.0332 0.5054253,0.1787 0.6000705,0.33841 0.2028356,0.1922 0.2952371,0.44085 0.2318363,0.75756 0.00966,0.15954 -0.2803522,0.42581 -0.4478954,0.45484 -0.2091213,0.0362 -0.471887,-0.12632 -0.6017998,-0.18729 -0.1239994,-0.035 -0.115782,-0.0832 -0.064469,-0.26327 0.061824,-0.0875 0.1784367,-0.14247 0.2490646,-0.18637 0.085416,-0.0531 0.092072,-0.16088 0.068349,-0.24788 -0.051966,-0.0723 -0.1034345,-0.12302 -0.2290672,-0.0846 -0.085791,0.0263 -0.2446352,0.0425 -0.2815088,0.0765 -0.059951,0.0545 -0.2246423,0.1434 -0.2701179,0.20582 -0.043089,0.14551 0.044586,0.30527 0.06091,0.43027 0.021073,0.14818 0.1072048,0.31905 0.2881381,0.40338 0.2727985,0.12714 0.611378,0.19101 0.8216469,0.18132 0.2567908,-0.0268 0.7600722,-0.24043 0.765293,-0.7472 -0.013638,-0.23881 -0.1491208,-0.71743 -0.3329096,-1.03208 -0.1868734,-0.31994 -0.4514287,-0.45637 -0.8268327,-0.45379 -0.191143,0.0164 -0.4682562,0.0387 -0.8708041,0.26891 -0.464952,0.17386 -0.536699,0.24621 -0.8575247,0.59529 -0.2090832,0.2275 -0.026589,0.6428 -0.026589,0.6428 0.1477368,0.3117 0.076293,0.34841 0.2225356,0.71063 0.1913312,0.4739 0.6183021,0.82729 1.1098746,0.93231 0.3973768,0.0849 1.3338608,-0.0691 1.5369655,-0.11551 0.576589,-0.13178 0.7670676,-0.38362 0.9353622,-1.04068 0.1118809,-0.43681 0.026868,-0.8149 0.00691,-0.96642 -0.025304,-0.19214 -0.096625,-0.51027 -0.1533403,-0.65179 -0.1305388,-0.29543 -0.5530911,-0.58651 -0.893504,-0.87801 C 3.4675523,0.84414167 3.5387842,1.0040817 3.2390695,0.89693167 Z" id="element-air" ns1:connector-curvature="0" ns2:nodetypes="csssssssccsssccssscccccsccscscccsccsccsssssssccsc" />
  <ns0:path id="element-earth" style="color:#000000;font-style:normal;font-variant:normal;font-weight:normal;font-stretch:normal;font-size:medium;line-height:normal;font-family:sans-serif;text-indent:0;text-align:start;text-decoration:none;text-decoration-line:none;text-decoration-style:solid;text-decoration-color:#000000;letter-spacing:normal;word-spacing:normal;text-transform:none;writing-mode:lr-tb;direction:ltr;baseline-shift:baseline;text-anchor:start;white-space:normal;clip-rule:nonzero;display:inline;overflow:visible;visibility:visible;opacity:1;isolation:auto;mix-blend-mode:normal;color-interpolation:sRGB;color-interpolation-filters:linearRGB;solid-color:#000000;solid-opacity:1;fill:#004c00;fill-opacity:1;fill-rule:nonzero;stroke:none;stroke-width:0.386237;stroke-linecap:round;stroke-linejoin:round;stroke-miterlimit:4;stroke-dasharray:none;stroke-dashoffset:0;stroke-opacity:1;color-rendering:auto;image-rendering:auto;shape-rendering:auto;text-rendering:auto;enable-background:accumulate" d="m 3.3347217,1.0592573 c -0.04468,0.00209 -0.087316,0.01812 -0.1210844,0.045521 C 2.9980882,1.2795556 2.8283601,1.5604825 2.6515435,1.8271339 2.4752109,2.0930554 2.1401512,2.5304107 2.0930689,2.5965185 1.6198319,3.0927032 1.4344879,3.5664492 0.87178127,4.1237684 0.69761497,4.3121193 1.0573083,4.3336839 1.2314745,4.1453324 1.7903709,3.5405993 1.9327058,3.3400324 2.3686012,2.889154 2.3751112,2.882384 2.6001882,2.6438855 2.6913107,2.5206552 2.7722977,2.407355 2.7929671,2.2797537 2.9627973,2.0236386 3.0783057,1.8494428 3.2128966,1.6350434 3.3192825,1.5824729 3.4569083,1.7242883 3.6713135,1.9167648 3.8640711,2.319915 4.0258953,2.5353089 4.3138824,2.8566285 4.361495,2.9232555 4.5093463,3.1355149 4.8337763,3.5218881 4.8641253,3.5779712 4.9842629,3.8001864 5.0363403,3.4805932 4.9542229,3.2139365 4.8909474,3.0970092 4.8448838,2.9328529 4.6964694,2.7197839 4.5480549,2.5067157 4.3604087,2.3418851 4.321916,2.2774412 L 4.167946,2.0343546 C 4.0351972,1.7378982 3.8084161,1.6263895 3.5180744,1.1528924 3.4806892,1.0919479 3.4098313,1.0557637 3.3347146,1.0592573 Z M 1.4860546,1.6178065 C 1.4207466,1.6192365 1.1126292,1.8905941 1.0765222,1.9414344 0.87172447,2.2298478 0.73632977,2.392273 0.51024687,2.7085721 0.36240697,2.9155928 0.63770657,2.9626028 0.78563517,2.7556371 0.95803937,2.5144369 1.3568532,2.090239 1.4831947,2.048413 c 0,0 0.4152461,0.299809 0.5528817,0.3733568 C 2.2677912,2.5473855 2.534717,2.4169098 2.3015589,2.29365 2.3328399,2.310405 2.1000456,2.137142 2.0065747,2.0232761 1.8751199,1.8701809 1.6462392,1.6745748 1.4860546,1.6178065 Z m 2.3732958,1.5548436 c -0.1515426,0.00715 -0.1538821,0.07423 -0.074552,0.1950221 0,0 0.3023383,0.5115617 0.4071273,0.8318262 C 4.3259945,4.4203799 4.7476923,4.3816518 4.6117843,4.0979489 4.4498375,3.7598921 4.0427103,3.2659617 4.0427103,3.2659617 4.0052323,3.2051427 3.9343943,3.1690917 3.8593504,3.1726501 Z M 3.3603589,3.2853424 C 3.2500579,3.2868624 3.1619347,3.3893429 3.1634677,3.4923498 L 3.1063097,4.4370831 C 3.1024897,4.6894583 3.4907592,4.4937411 3.4869365,4.2413659 3.4607405,4.0373444 3.5412625,3.6018943 3.3603589,3.2853424 Z M 2.6807308,3.1597399 C 2.5238662,3.2594799 2.334369,3.5974146 2.214958,3.9632567 2.122381,4.1966195 2.4971711,4.3263525 2.589832,4.0930187 2.637463,3.7905464 2.8020763,3.4046966 2.8020763,3.4046966 2.8515493,3.2853025 2.8177123,3.1647929 2.6807308,3.1597399 Z" ns1:connector-curvature="0" />
    <ns0:path style="color:#000000;font-style:normal;font-variant:normal;font-weight:normal;font-stretch:normal;font-size:medium;line-height:normal;font-family:sans-serif;text-indent:0;text-align:start;text-decoration:none;text-decoration-line:none;text-decoration-style:solid;text-decoration-color:#000000;letter-spacing:normal;word-spacing:normal;text-transform:none;writing-mode:lr-tb;direction:ltr;baseline-shift:baseline;text-anchor:start;white-space:normal;clip-rule:nonzero;display:inline;overflow:visible;visibility:visible;opacity:1;isolation:auto;mix-blend-mode:normal;color-interpolation:sRGB;color-interpolation-filters:linearRGB;solid-color:#000000;solid-opacity:1;fill:#860000;fill-opacity:0.97451;fill-rule:evenodd;stroke:none;stroke-width:0.386237;stroke-linecap:round;stroke-linejoin:miter;stroke-miterlimit:4;stroke-dasharray:none;stroke-dashoffset:0;stroke-opacity:1;filter:url(#filter9446);color-rendering:auto;image-rendering:auto;shape-rendering:auto;text-rendering:auto;enable-background:accumulate" d="m 2.1237845,0.45858111 c -0.057158,0.0578 0.00634,0.17813 0.00634,0.17813 0,0 0.049014,0.19676 0.067362,0.37707979 0.018349,0.18032 -0.00336,0.33078 -0.015119,0.43721 -0.018939,0.17136 -0.1732176,0.49491 -0.2918924,0.6751 -0.1186747,0.18018 -0.194819,0.3633 -0.2044966,0.58639 -0.00198,0.0457 0.015138,0.1338 0.022522,0.17687 -0.1336148,0.1464 -0.278576,0.21846 -0.4152932,0.25661 -0.1840774,0.0514 -0.47082401,0.19143 -0.71840431,0.41992 -0.1973966,0.18218 -0.2763645,0.35122 -0.342754,0.58596 -0.06639,0.23474 -0.1077413,0.42753 -0.083128,0.59991 0,0 0.00257,0.20185 0.069249,0.25967 0.090499,0.0178 0.226932,-0.0794 0.226932,-0.0794 0.28133943,-0.19965 0.540284,-0.38792 0.76105941,-0.45516 0.2405211,-0.0733 0.4947122,-0.0497 0.6595047,2.5e-4 0.2164995,0.0656 0.4509055,0.0362 0.6777558,-0.013 0.1562802,-0.0338 0.2608925,-0.11156 0.3758642,-0.21095 0.1530829,0.11725 0.2465769,0.1397 0.3560003,0.22235 0.134383,0.10149 0.2893105,0.19655 0.5278901,0.25865 0.249165,0.0649 0.5342059,0.0701 0.7986662,0.0355 0.2644593,-0.0346 0.5064601,-0.0992 0.6784496,-0.2464 0,0 0.147742,-0.10269 0.1334522,-0.16051 -0.033364,-0.053 -0.1797992,-0.10955 -0.1797992,-0.10955 0,0 -0.1625587,-0.0627 -0.3454974,-0.16362 -0.1829388,-0.10094 -0.3241919,-0.27767 -0.4467524,-0.38596 -0.1450661,-0.12818 -0.1837026,-0.30027 -0.2471656,-0.47474 -0.063129,-0.17355 -0.142185,-0.39659 -0.3863226,-0.55549 -0.116966,-0.0761 -0.2307016,-0.14106 -0.3524957,-0.18565 -0.029073,-0.12443 -0.027641,-0.24053 -0.011996,-0.36817 0.047928,-0.23358 -0.025523,-0.54645 -0.113089,-0.77113 -0.09238,-0.23703 -0.2832844,-0.35960996 -0.4070686,-0.48869979 -0.1318999,-0.13756 -0.3166221,-0.28781 -0.5033597,-0.35757 0,0 -0.1154151,-0.048 -0.2964138,-0.0436 z M 2.5214349,0.9442111 c 0.044259,0.0341 0.1785592,0.1196398 0.2453209,0.1858498 0.1561034,0.15481 0.2872118,0.37577 0.3144576,0.54012 0.026532,0.16004 -0.0045,0.3013 -0.022913,0.45145 -0.011843,0.0966 0.00159,0.20353 0.04124,0.30571 -0.031602,0.002 -0.1106395,0.004 -0.143256,0.009 -0.1088409,0.0147 -0.2238243,0.0444 -0.3478112,0.0878 -0.2567606,0.0842 -0.058515,0.13542 0.2009645,0.11039 0.2025497,-0.0104 0.3928195,0.0903 0.5178668,0.146 0.1021911,0.0455 0.269244,0.1601 0.3198001,0.24335 0.09849,0.16217 0.2302253,0.35968 0.2493647,0.44814 0.034659,0.16018 0.098115,0.31421 0.2797813,0.52725 0.1638075,0.19211 0.3732326,0.25751 0.5743107,0.36891 -0.01796,0.0553 -0.1803657,0.10091 -0.231175,0.10756 -0.216749,0.0284 -0.4504944,-0.0192 -0.6088313,-0.10076 -0.1729807,-0.089 -0.2892423,-0.0888 -0.4345287,-0.18058 -0.095403,-0.0602 -0.2249292,-0.10236 -0.291561,-0.2284 0.087882,-0.1922 0.183271,-0.36755 0.2181629,-0.55491 0.055506,-0.2514 -0.2066832,-0.004 -0.3195111,0.18763 -0.1198604,0.2536 -0.3139565,0.4485 -0.6060817,0.54544 -0.1891463,0.0628 -0.3514661,0.004 -0.5270632,-0.0316 -0.1755949,-0.0354 -0.421144,-0.0747 -0.7396844,0.0224 -0.21906031,0.0667 -0.50629508,0.14324 -0.71454971,0.37255 -0.02276,-0.1185 0.038295,-0.23941 0.057419,-0.29708 0.062885,-0.18961 0.2435178,-0.3814 0.36329575,-0.49194 0.18234386,-0.16829 0.41028836,-0.21845 0.59902436,-0.27113 0.1394981,-0.0389 0.1992609,-0.036 0.3444637,-0.15642 0.1063744,0.17192 0.2566647,0.3139 0.4348953,0.42833 0.2196063,0.141 0.1683087,-0.0969 -0.042889,-0.32651 -0.1377306,-0.14976 -0.187537,-0.28056 -0.2072261,-0.60666 -0.010039,-0.16627 0.07268,-0.34856 0.1861061,-0.52077 0.1471071,-0.20367 0.2711251,-0.38318 0.3019857,-0.66239 0.018518,-0.22097 0.036256,-0.50606 -0.011378,-0.6584198 z" id="element-fire" ns1:connector-curvature="0" ns2:nodetypes="ccssssccsscccssscssscccssssccssccccsscsccsssscssscccscscssscccssccc" />
    <ns0:path id="element-water" style="color:#000000;font-style:normal;font-variant:normal;font-weight:normal;font-stretch:normal;font-size:medium;line-height:normal;font-family:sans-serif;text-indent:0;text-align:start;text-decoration:none;text-decoration-line:none;text-decoration-style:solid;text-decoration-color:#000000;letter-spacing:normal;word-spacing:normal;text-transform:none;writing-mode:lr-tb;direction:ltr;baseline-shift:baseline;text-anchor:start;white-space:normal;clip-rule:nonzero;display:inline;overflow:visible;visibility:visible;opacity:1;isolation:auto;mix-blend-mode:normal;color-interpolation:sRGB;color-interpolation-filters:linearRGB;solid-color:#000000;solid-opacity:1;fill:#00007e;fill-opacity:1;fill-rule:evenodd;stroke:none;stroke-width:0.386237;stroke-linecap:round;stroke-linejoin:miter;stroke-miterlimit:4;stroke-dasharray:none;stroke-dashoffset:0;stroke-opacity:1;color-rendering:auto;image-rendering:auto;shape-rendering:auto;text-rendering:auto;enable-background:accumulate" d="M 5.04059,3.3674585 C 4.8357167,3.3883545 4.5476496,3.5954163 4.3381188,3.6066998 3.9475382,3.6600184 3.4529663,3.5326377 3.0626336,3.5213417 2.4016926,3.5049447 2.0332881,3.8006142 1.4201321,4.0009353 1.2650598,4.0777165 1.4245729,4.1817762 1.598265,4.2053471 1.7403352,4.2167851 1.9674875,4.1307791 2.1023661,4.1000381 2.4686497,3.9782454 2.7926444,3.8816448 3.1841043,3.9322195 3.7014473,4.0224901 4.0341951,4.0672185 4.5414448,3.9868757 4.7069736,3.9392123 4.8657753,3.775309 5.0146738,3.6978428 5.1493891,3.5884829 5.2191448,3.3624926 5.04059,3.3674585 Z M 4.7094294,2.4534175 C 4.4320773,2.4464328 4.3976524,2.6096498 4.0091449,2.6157334 3.5353217,2.6525682 3.2204299,2.5348823 2.7490909,2.509521 2.1256355,2.4533678 1.4424351,2.8054283 0.8743124,2.9582199 c -0.15006125,0.085023 0.010907,0.2680267 0.1857712,0.2821826 0.1555136,-5.226e-4 0.206439,0.034222 0.35813,0.00645 C 1.8880311,3.1065923 2.189507,2.7513182 2.6762372,2.8079329 3.1672733,2.8530601 3.8288537,3.0632354 4.3202486,2.9630055 4.4757605,2.9009595 4.6167312,2.8102723 4.7281415,2.6960447 4.8073279,2.5763136 4.8602038,2.4490573 4.7094294,2.4534174 Z M 3.9960603,1.4081046 C 3.8617945,1.4284783 3.71473,1.5325479 3.5850259,1.5702761 3.1855458,1.7299523 2.7810191,1.7091904 2.3586018,1.6151338 2.1700613,1.5840071 1.8852227,1.5162922 1.6981645,1.4831301 1.1782289,1.4411047 0.76505405,1.6975493 0.36643555,1.9819983 0.23868005,2.0943955 0.36430385,2.2226997 0.53848615,2.2024634 0.73962645,2.1472479 0.98859685,2.1183501 1.1868398,2.0036715 1.4371318,1.8877127 1.8053862,1.8306087 2.0778302,1.9347687 2.5415682,2.0641793 2.9642777,2.1168138 3.4404341,2.0016894 3.7198441,1.9420817 3.8970871,1.8279871 4.1196226,1.6560379 4.2307736,1.5385183 4.1634498,1.394952 3.9960603,1.4081046 Z" ns1:connector-curvature="0" />
    <ns0:path id="cat-eye-other-move" style="color:#000000;display:inline;fill:#000000;stroke-width:0.972;stroke-linecap:round;stroke-linejoin:round" d="m 7.1328858,11.94785 c -0.6351457,0 -1.2068967,0.282259 -1.5955597,0.727398 l 0.31998,0.295176 c 0.307512,-0.358932 0.764191,-0.586012 1.2755797,-0.586012 0.9293361,0 1.6761771,0.749322 1.6761771,1.678658 0,0.929336 -0.746841,1.678038 -1.6761771,1.678038 -0.5082277,0 -0.9625567,-0.22365 -1.2699987,-0.57857 l -0.319981,0.295175 c 0.388546,0.441352 0.957817,0.719957 1.5899797,0.719957 1.1657221,0 2.1146011,-0.948878 2.1146011,-2.1146 0,-1.165722 -0.948879,-2.11522 -2.1146011,-2.11522 z m -2.3086946,0.362149 v 0.929555 h -1.487662 v 1.658194 h 1.487662 v 0.929556 l 1.9049999,-1.758653 z m 2.3086946,0.927075 c -0.2718337,6.7e-5 -0.5327527,0.07601 -0.7577827,0.21146 l 0.21084,0.194717 c 0.1504,-0.07742 0.317763,-0.123475 0.4917527,-0.131465 a 1.331799,1.331799 0 0 0 -0.1203017,0.550664 1.331799,1.331799 0 0 0 0.1209217,0.551284 c -0.1706337,-0.008 -0.3349707,-0.05208 -0.4830697,-0.127124 l -0.212081,0.195957 c 0.222409,0.132457 0.479576,0.205547 0.7478607,0.205879 a 0.13670117,0.13670117 0 0 0 0.0018,0 c 0.5272621,-1.29e-4 1.0122151,-0.284028 1.2731011,-0.74104 a 0.1366875,0.1366875 0 0 0 0.02604,-0.06635 0.1366875,0.1366875 0 0 0 6.2e-4,-0.0037 0.1366875,0.1366875 0 0 0 6.21e-4,-0.0062 0.1366875,0.1366875 0 0 0 0,-6.2e-4 0.1366875,0.1366875 0 0 0 0,-6.2e-4 0.1366875,0.1366875 0 0 0 0,-6.2e-4 0.1366875,0.1366875 0 0 0 0,-6.21e-4 0.1366875,0.1366875 0 0 0 0,-6.2e-4 0.1366875,0.1366875 0 0 0 0,-6.19e-4 0.1366875,0.1366875 0 0 0 0,-6.21e-4 0.1366875,0.1366875 0 0 0 0,-6.2e-4 0.1366875,0.1366875 0 0 0 0,-6.21e-4 0.1366875,0.1366875 0 0 0 0,-6.19e-4 0.1366875,0.1366875 0 0 0 0,-6.2e-4 0.1366875,0.1366875 0 0 0 0,-6.21e-4 0.1366875,0.1366875 0 0 0 0,-6.2e-4 0.1366875,0.1366875 0 0 0 0,-6.19e-4 0.1366875,0.1366875 0 0 0 0,-6.21e-4 0.1366875,0.1366875 0 0 0 0,-6.2e-4 0.1366875,0.1366875 0 0 0 0,-6.2e-4 0.1366875,0.1366875 0 0 0 0,-6.2e-4 0.1366875,0.1366875 0 0 0 0,-6.2e-4 0.1366875,0.1366875 0 0 0 0,-6.2e-4 0.1366875,0.1366875 0 0 0 0,-6.21e-4 0.1366875,0.1366875 0 0 0 0,-6.19e-4 0.1366875,0.1366875 0 0 0 0,-6.2e-4 0.1366875,0.1366875 0 0 0 -6.21e-4,-0.0062 0.1366875,0.1366875 0 0 0 -6.2e-4,-0.0037 0.1366875,0.1366875 0 0 0 -0.01116,-0.03968 0.1366875,0.1366875 0 0 0 -0.01674,-0.02915 c -0.260475,-0.456357 -0.744399,-0.74032 -1.2711811,-0.74097 z m 0.05209,0.274712 c 0.3889951,0.01805 0.7440181,0.224134 0.9525001,0.551904 -0.208942,0.327422 -0.562902,0.532778 -0.9518791,0.550044 a 1.331799,1.331799 0 0 0 0.120923,-0.551284 1.331799,1.331799 0 0 0 -0.121544,-0.550664 z" ns1:label="cat-eye-other-move" />
    <ns0:path id="cat-thread-recover" style="color:#000000;display:inline;fill:#000000;stroke-width:1.2;stroke-linecap:round;stroke-linejoin:round;-inkscape-stroke:none" d="m 5.3838958,11.947459 c -1.1657239,0 -2.1161499,0.950425 -2.1161499,2.11615 0,1.165724 0.950426,2.114084 2.1161499,2.114084 0.38507,0 0.746546,-0.103622 1.0578171,-0.28422 0.311059,0.180557 0.672125,0.28422 1.056783,0.28422 1.165722,0 2.1161499,-0.950429 2.1161499,-2.116151 0,-1.165721 -0.9504279,-2.114083 -2.1161499,-2.114083 -0.385069,0 -0.746532,0.103607 -1.057817,0.284221 C 6.1296348,12.051078 5.7685538,11.947459 5.3838958,11.947459 Z m 2.1146001,0.435632 c 0.929334,0 1.67845,0.749117 1.67845,1.678451 0,0.929333 -0.749116,1.677935 -1.67845,1.677935 -0.237138,0 -0.462409,-0.04889 -0.666626,-0.136943 0.409805,-0.385793 0.666109,-0.932965 0.666109,-1.538925 0,-0.607279 -0.257326,-1.155969 -0.668693,-1.542541 0.204859,-0.08876 0.43113,-0.137977 0.66921,-0.137977 z m -2.1580081,0.0026 c 0.01443,-3.64e-4 0.028888,0 0.043408,0 0.9293381,0 1.6784511,0.748597 1.6784511,1.677934 0,0.929336 -0.749113,1.678452 -1.6784511,1.678452 -0.929337,0 -1.6779339,-0.749116 -1.6779339,-1.678452 0,-0.914817 0.7254029,-1.655037 1.6345259,-1.677934 z m 0.358634,0.643372 a 0.13716,0.13716 0 0 0 -0.097151,0.04082 l -0.218592,0.218075 -0.217557,-0.218075 a 0.1366872,0.1366872 0 0 0 -0.109038,-0.04031 0.1366872,0.1366872 0 0 0 -0.085266,0.04031 0.1366872,0.1366872 0 0 0 0,0.192237 l 0.219108,0.218591 -0.388606,0.389123 -0.219625,-0.219108 a 0.1366872,0.1366872 0 0 0 -0.096118,-0.03979 0.1366872,0.1366872 0 0 0 -0.096119,0.03979 0.1366872,0.1366872 0 0 0 0,0.194821 l 0.218075,0.217557 -0.218075,0.218592 a 0.13716,0.13716 0 0 0 0,0.194303 0.13716,0.13716 0 0 0 0.192237,0 l 0.219625,-0.219108 0.387573,0.38809 -0.218075,0.217558 a 0.13716,0.13716 0 0 0 0,0.19482 0.13716,0.13716 0 0 0 0.194304,0 l 0.218074,-0.218591 0.218075,0.218591 a 0.1366872,0.1366872 0 0 0 0.194303,0 0.1366872,0.1366872 0 0 0 0,-0.19482 l -0.218074,-0.217558 0.387056,-0.387057 0.218075,0.218075 a 0.1366872,0.1366872 0 0 0 0.1943031,0 0.1366872,0.1366872 0 0 0 0,-0.194303 L 6.1590428,14.063621 6.3776339,13.845547 a 0.13716,0.13716 0 0 0 0,-0.194821 0.13716,0.13716 0 0 0 -0.096118,-0.03979 0.13716,0.13716 0 0 0 -0.098185,0.03979 l -0.218075,0.218592 -0.38809,-0.387574 0.219108,-0.219624 a 0.13716,0.13716 0 0 0 0,-0.192237 0.13716,0.13716 0 0 0 -0.097152,-0.04082 z m -0.315743,0.645955 0.387574,0.38809 -0.387574,0.387574 -0.38809,-0.387574 z" />
  <ns0:path id="cat-mage-defend" style="color:#000000;clip-rule:nonzero;display:inline;overflow:visible;visibility:visible;isolation:auto;mix-blend-mode:normal;color-interpolation:sRGB;color-interpolation-filters:linearRGB;solid-color:#000000;solid-opacity:1;fill:#000000;fill-opacity:1;fill-rule:evenodd;stroke:none;stroke-width:0.423334;stroke-linecap:butt;stroke-linejoin:miter;stroke-miterlimit:4;stroke-dasharray:none;stroke-dashoffset:0;stroke-opacity:1;color-rendering:auto;image-rendering:auto;shape-rendering:auto;text-rendering:auto;enable-background:accumulate" d="M 5.6353259,11.808244 C 5.220094,11.823064 5.014794,12.1295 4.9718,12.334724 c -0.04355,0.207811 0.05891,0.607715 0.05891,0.607715 0,0 -0.577667,0.213457 -0.822895,0.393153 -0.20911,0.15323 -0.505252,0.377606 -0.541362,0.659805 -0.02246,0.175506 0.141357,0.316315 0.311918,0.363389 0.223546,0.06172 0.647446,-0.208901 0.770806,-0.02232 0.121428,0.14556 -0.112404,0.553728 -0.26665,0.793749 -0.242222,0.376945 -0.582732,1.144555 -0.378272,1.149077 0.211776,0.0047 0.7676,-0.004 1.104429,-0.01488 0.129406,-0.0042 0.263513,-0.652363 0.4266409,-0.652363 0.163125,0 0.296616,0.64818 0.426021,0.652363 0.310792,0.01008 0.805324,0.01799 1.046758,0.0155 -0.826734,-0.46364 -1.31837,-1.187219 -1.31837,-2.063137 V 12.70989 h 0.497335 c 0.01973,-0.124666 0.03319,-0.273108 0.01176,-0.37517 -0.04301,-0.205224 -0.248298,-0.511654 -0.663525,-0.52648 z m 0.370209,1.118072 v 1.289223 c 0,0.885226 0.531252,1.583801 1.4746387,2.0098 0.9433891,-0.425999 1.4746401,-1.124574 1.4746401,-2.0098 V 12.926316 H 7.4801736 Z" ns1:label="cat-mage-defend" />
    <ns0:path id="cat-mage-other-attack" style="color:#000000;clip-rule:nonzero;display:inline;overflow:visible;visibility:visible;isolation:auto;mix-blend-mode:normal;color-interpolation:sRGB;color-interpolation-filters:linearRGB;solid-color:#000000;solid-opacity:1;fill:#000000;fill-opacity:1;fill-rule:evenodd;stroke:none;stroke-width:0.423334;stroke-linecap:butt;stroke-linejoin:miter;stroke-miterlimit:4;stroke-dasharray:none;stroke-dashoffset:0;stroke-opacity:1;color-rendering:auto;image-rendering:auto;shape-rendering:auto;text-rendering:auto;enable-background:accumulate" d="m 5.6246277,11.808244 c -0.4152288,0.01482 -0.620532,0.321257 -0.6635256,0.526479 -0.043548,0.207813 0.058912,0.607715 0.058912,0.607715 0,0 -0.5776668,0.213458 -0.8228952,0.393154 -0.2091096,0.15323 -0.505254,0.377606 -0.541362,0.659805 -0.022464,0.175506 0.1413576,0.316315 0.3119184,0.363389 0.2235456,0.06172 0.6474456,-0.208898 0.7708056,-0.02232 0.1214292,0.14556 -0.1124088,0.553728 -0.2666508,0.793749 -0.24222,0.376945 -0.5827332,1.144555 -0.3782712,1.149077 0.211776,0.0047 0.7676016,-0.004 1.1044284,-0.01488 0.1285692,-0.0042 0.2618448,-0.644088 0.42354,-0.652363 L 6.1771521,14.444368 5.0869869,13.698987 6.3718689,13.39885 6.3414837,12.986473 c -0.067559,-0.02675 -0.1128612,-0.04403 -0.1128612,-0.04403 0,0 0.1030668,-0.399901 0.059531,-0.607715 C 6.2451455,12.129506 6.0398579,11.823076 5.6246279,11.80825 Z m 2.4414017,0.68833 -0.7441409,0.68895 -0.7949904,-0.628799 0.075035,1.011412 -0.9878472,0.229442 0.8371584,0.571749 -0.435942,0.915913 0.9692424,-0.298277 0.4433843,0.911573 0.3714502,-0.943818 0.9890869,0.221382 -0.5060156,-0.878087 0.7900293,-0.63562 -1.0027295,-0.151928 z m -1.2141893,2.757041 -1.193106,0.368349 c 0.147882,0.07909 0.2716452,0.638554 0.391914,0.642442 0.3368304,0.01092 0.893274,0.01956 1.1050488,0.01488 0.1842028,-0.004 -0.073789,-0.62649 -0.3038568,-1.025674 z" ns1:label="cat-mage-other-attack" />
    <ns0:path id="cat-thread-block" style="color:#000000;display:inline;fill:#000000;stroke-width:1.2;stroke-linecap:round;stroke-linejoin:round;-inkscape-stroke:none" d="m 5.7381428,11.920002 c -1.1657233,0 -2.1161498,0.950426 -2.1161498,2.11615 0,1.165723 0.9504265,2.114083 2.1161498,2.114083 0.5253326,0 1.0065389,-0.192809 1.3766601,-0.51108 l -0.058394,-0.119889 -1.2634887,0.38654 0.094568,-0.197921 c -0.04914,0.0043 -0.099057,0.0067 -0.1493448,0.0067 -0.9293357,0 -1.6779338,-0.749116 -1.6779338,-1.678451 0,-0.914816 0.7254023,-1.655036 1.6345256,-1.677933 0.01443,-3.64e-4 0.028887,0 0.043408,0 0.2634265,0 0.512344,0.06057 0.7338054,0.167948 l -0.012919,-0.173116 1.0366292,0.818555 0.1183391,-0.109554 C 7.2611686,12.384522 6.5527861,11.919984 5.7381433,11.919984 Z m 2.5125081,0.847494 -0.7441406,0.688847 -0.7953003,-0.628902 0.074931,1.011307 -0.9875366,0.22996 0.837675,0.571542 -0.4361491,0.915189 0.9689331,-0.298173 0.4439005,0.911573 0.3710368,-0.943095 0.9896038,0.221175 L 8.4671753,14.56842 9.257308,13.932799 8.2547852,13.781387 Z M 5.4260171,13.00159 c -0.00503,-1.3e-4 -0.00992,8.4e-5 -0.014986,5.17e-4 -0.032304,0.0029 -0.062526,0.01718 -0.085266,0.04031 -0.052671,0.05326 -0.052671,0.138981 0,0.192236 L 5.5448732,13.453244 5.1562664,13.842368 4.9366416,13.62326 c -0.025543,-0.02541 -0.060087,-0.03972 -0.096118,-0.03979 -0.036032,7.7e-5 -0.070576,0.01438 -0.096118,0.03979 -0.054398,0.05355 -0.054398,0.141272 0,0.19482 l 0.2180745,0.217558 -0.2180745,0.218591 c -0.053784,0.0536 -0.053784,0.140701 0,0.194303 0.05336,0.05242 0.1388767,0.05242 0.1922363,0 l 0.2196248,-0.219108 0.3875733,0.38809 -0.2180746,0.217558 c -0.054131,0.05366 -0.054131,0.14116 0,0.19482 0.053602,0.05378 0.1407017,0.05378 0.1943034,0 l 0.2180746,-0.218591 0.2180745,0.218591 c 0.053492,0.05405 0.1408115,0.05405 0.1943034,0 0.054398,-0.05355 0.054398,-0.141272 0,-0.19482 l -0.2180746,-0.217558 0.1167888,-0.116789 -0.2315104,-0.157613 -0.080099,0.0801 -0.38809,-0.387573 0.38809,-0.38809 0.1725993,0.173116 0.3141927,-0.0739 -0.2930054,-0.292488 0.2191081,-0.219625 c 0.052416,-0.05336 0.052416,-0.138877 0,-0.192236 -0.025656,-0.026 -0.060623,-0.04071 -0.097152,-0.04082 -0.036528,1.29e-4 -0.071496,0.01483 -0.097152,0.04082 L 5.7376255,13.26049 5.5200677,13.042416 c -0.02497,-0.02537 -0.058857,-0.03992 -0.094051,-0.04082 z" />
    <ns0:path id="cat-eye-create" style="color:#000000;clip-rule:nonzero;display:inline;overflow:visible;visibility:visible;isolation:auto;mix-blend-mode:normal;color-interpolation:sRGB;color-interpolation-filters:linearRGB;solid-color:#000000;solid-opacity:1;fill:#000000;fill-opacity:1;fill-rule:evenodd;stroke:none;stroke-width:0.381;stroke-linecap:butt;stroke-linejoin:miter;stroke-miterlimit:4;stroke-dasharray:none;stroke-dashoffset:0;stroke-opacity:1;color-rendering:auto;image-rendering:auto;shape-rendering:auto;text-rendering:auto;enable-background:accumulate" ns1:label="cat-eye-create" d="m 5.2889165,11.94754 c -1.165722,0 -2.11398,0.94826 -2.11398,2.11398 0,1.165722 0.948258,2.11646 2.11398,2.11646 1.1657209,0 2.1164607,-0.950738 2.1164607,-2.11646 0,-1.16572 -0.9507398,-2.11398 -2.1164607,-2.11398 z m 0,0.435942 c 0.9293319,0 1.6786566,0.748702 1.6786566,1.678038 0,0.929334 -0.7493247,1.678037 -1.6786566,1.678037 -0.929334,0 -1.678037,-0.748703 -1.678037,-1.678037 0,-0.929336 0.748703,-1.678038 1.678037,-1.678038 z m 2.9237567,0.741041 v 0.651743 h -0.608239 c 0.01152,0.0936 0.01799,0.188628 0.01799,0.285254 0,0.09833 -0.006,0.195627 -0.01799,0.290835 h 0.608239 v 0.649262 h 0.576089 v -0.649262 h 0.651743 v -0.576089 h -0.651743 v -0.651743 z m -2.9485617,0.112236 c -0.524425,0.0091 -1.005155,0.298842 -1.259457,0.759024 -0.0084,0.01577 -0.01372,0.03305 -0.0155,0.05084 -4.77e-4,0.0049 -6.84e-4,0.01 -6.2e-4,0.01488 -2.54e-4,0.01319 0.0014,0.02635 0.0049,0.03907 0.0019,0.0058 0.0042,0.01128 0.0068,0.01674 0.0012,0.0028 0.0024,0.0054 0.0037,0.008 2.02e-4,6.42e-4 4.09e-4,0.0013 6.2e-4,0.0019 0.257651,0.468497 0.749589,0.758983 1.284263,0.759643 0.5274389,-1.3e-4 1.0141139,-0.282568 1.2749609,-0.7398 0.03306,-0.0429 0.03769,-0.101268 0.01176,-0.148827 -0.25765,-0.468501 -0.752074,-0.760845 -1.2867429,-0.761505 -0.0083,3e-6 -0.01648,-1.44e-4 -0.02481,0 z m -0.02915,0.275332 c -0.07864,0.172725 -0.119424,0.360264 -0.119688,0.550044 2.65e-4,0.190244 0.04129,0.378224 0.120303,0.551285 -0.389183,-0.01784 -0.743979,-0.223978 -0.952501,-0.551904 0.208844,-0.326705 0.563558,-0.531767 0.95188,-0.549425 z m 0.108516,0 c 0.3888819,0.0181 0.7435069,0.224181 0.9518799,0.551905 -0.208727,0.326545 -0.563168,0.531575 -0.9512599,0.549424 0.07902,-0.173061 0.1200379,-0.361041 0.1203029,-0.551285 -6.37e-4,-0.18987 -0.04187,-0.377412 -0.1209229,-0.550044 z" ns2:nodetypes="sssssssssscccsccccccccccccccccccccccccccccscccccc" />
    <ns0:path id="cat-thread-move" style="color:#000000;clip-rule:nonzero;display:inline;overflow:visible;visibility:visible;isolation:auto;mix-blend-mode:normal;color-interpolation:sRGB;color-interpolation-filters:linearRGB;solid-color:#000000;solid-opacity:1;fill:#000000;fill-opacity:1;fill-rule:evenodd;stroke:none;stroke-width:0.381;stroke-linecap:butt;stroke-linejoin:miter;stroke-miterlimit:4;stroke-dasharray:none;stroke-dashoffset:0;stroke-opacity:1;color-rendering:auto;image-rendering:auto;shape-rendering:auto;text-rendering:auto;enable-background:accumulate" d="m 5.262043,11.947356 c -1.1657249,0 -2.1139799,0.948256 -2.1139799,2.11398 0,1.165725 0.948255,2.11646 2.1139799,2.11646 1.1657248,0 2.1164598,-0.950735 2.1164598,-2.11646 0,-1.165724 -0.950735,-2.11398 -2.1164598,-2.11398 z m 2.5666648,0.355948 v 0.929555 h -0.387574 c 0.09894,0.258019 0.15317,0.537888 0.15317,0.829717 0,0.291533 -0.05442,0.570676 -0.15317,0.828476 h 0.387574 v 0.929556 l 1.9056209,-1.758652 z m -2.5666648,0.07999 c 0.9293357,0 1.6786568,0.7487 1.6786568,1.678038 0,0.929336 -0.7493211,1.678037 -1.6786568,1.678037 -0.929336,0 -1.6780369,-0.748701 -1.6780369,-1.678037 0,-0.929338 0.7487009,-1.678038 1.6780369,-1.678038 z m -0.324941,0.646163 c -0.0322,0.003 -0.06229,0.01724 -0.08496,0.04031 -0.05267,0.05326 -0.05267,0.138981 0,0.192236 l 0.218901,0.218902 -0.388813,0.388813 -0.219522,-0.2189 c -0.02556,-0.02538 -0.06011,-0.03964 -0.09612,-0.03968 -0.03601,4.8e-5 -0.07056,0.0143 -0.09612,0.03968 -0.05432,0.05353 -0.05432,0.14118 0,0.194716 l 0.218281,0.217661 -0.218281,0.218281 c -0.05406,0.05365 -0.05406,0.141069 0,0.194717 0.05336,0.05242 0.138877,0.05242 0.192236,0 L 4.682226,14.256671 5.0698,14.644865 4.852138,14.862526 c -0.05406,0.05365 -0.05406,0.141068 0,0.194717 0.05358,0.05365 0.140519,0.05365 0.194098,0 l 0.218281,-0.218281 0.217659,0.218281 c 0.05353,0.05432 0.141181,0.05432 0.194717,0 0.05432,-0.05353 0.05432,-0.14118 0,-0.194717 l -0.218281,-0.217661 0.386953,-0.386953 0.2182827,0.218281 c 0.05347,0.0539 0.140628,0.0539 0.194096,0 0.05432,-0.05353 0.05432,-0.14118 0,-0.194717 l -0.218281,-0.217659 0.218282,-0.218281 c 0.05406,-0.05365 0.05406,-0.141069 0,-0.194717 -0.02558,-0.02533 -0.06011,-0.03959 -0.09612,-0.03968 -0.03665,-3.95e-4 -0.07193,0.0139 -0.09798,0.03968 L 5.845563,13.8691 5.45737,13.481526 5.676891,13.262004 c 0.05242,-0.05336 0.05242,-0.138877 0,-0.192236 -0.05365,-0.05406 -0.141068,-0.05406 -0.194717,0 L 5.263894,13.28805 5.046233,13.069768 c -0.02856,-0.02902 -0.06858,-0.0438 -0.10914,-0.04031 z m 0.326802,0.645541 0.387572,0.388194 -0.387572,0.387574 -0.388193,-0.387574 z" />
    <ns0:path id="cat-other" style="font-weight:bold;font-stretch:condensed;font-size:3.175px;line-height:1.25;font-family:'Arial Narrow';-inkscape-font-specification:'Arial Narrow Bold Condensed';display:inline;stroke-width:0.264583" d="m 6.3620484,11.929304 c -1.165722,0 -2.114083,0.948361 -2.114083,2.114083 0,1.165723 0.948361,2.11615 2.114083,2.11615 1.165723,0 2.11615,-0.950427 2.11615,-2.11615 0,-1.165722 -0.950427,-2.114083 -2.11615,-2.114083 z m 0,0.435632 c 0.929335,0 1.67845,0.749116 1.67845,1.678451 0,0.929334 -0.749115,1.677934 -1.67845,1.677934 -0.929334,0 -1.678451,-0.7486 -1.678451,-1.677934 0,-0.929335 0.749117,-1.678451 1.678451,-1.678451 z m 0.00155,0.531234 c -0.188102,0 -0.344682,0.06253 -0.469739,0.187586 -0.124025,0.124023 -0.190688,0.283187 -0.199988,0.47749 l 0.327112,0.04961 c 0.044442,-0.255281 0.162265,-0.382922 0.353467,-0.382922 0.088881,0 0.162262,0.02894 0.220142,0.08682 0.058913,0.05788 0.088366,0.131776 0.088366,0.221692 0,0.05478 -0.011366,0.102837 -0.034106,0.144177 -0.022737,0.04134 -0.090434,0.117823 -0.203088,0.229444 -0.101286,0.09922 -0.169499,0.190169 -0.204639,0.272851 -0.03514,0.08268 -0.05271,0.191203 -0.05271,0.324528 l 0.00207,0.09922 h 0.324011 l -5.17e-4,-5.17e-4 c -0.00207,-0.119891 0.00568,-0.20309 0.023255,-0.249597 0.018603,-0.04651 0.065629,-0.108003 0.141077,-0.184485 0.146762,-0.147794 0.242364,-0.264066 0.286804,-0.348816 0.04444,-0.08578 0.066662,-0.176216 0.066662,-0.271301 0,-0.187068 -0.063562,-0.343132 -0.190686,-0.468188 -0.127124,-0.125058 -0.286287,-0.187586 -0.47749,-0.187586 z m -0.173116,1.860869 v 0.435632 h 0.358118 v -0.435632 z" />
    <ns0:path id="cat-mage-move" style="color:#000000;clip-rule:nonzero;display:inline;overflow:visible;visibility:visible;isolation:auto;mix-blend-mode:normal;color-interpolation:sRGB;color-interpolation-filters:linearRGB;solid-color:#000000;solid-opacity:1;fill:#000000;fill-opacity:1;fill-rule:evenodd;stroke:none;stroke-width:0.381;stroke-linecap:butt;stroke-linejoin:miter;stroke-miterlimit:4;stroke-dasharray:none;stroke-dashoffset:0;stroke-opacity:1;color-rendering:auto;image-rendering:auto;shape-rendering:auto;text-rendering:auto;enable-background:accumulate" d="m 5.3151243,11.808242 c -0.41523,0.01482 -0.6205318,0.321256 -0.6635248,0.52648 -0.04355,0.207813 0.05891,0.607715 0.05891,0.607715 0,0 -0.5776668,0.213458 -0.8228958,0.393153 -0.209109,0.153229 -0.505252,0.377604 -0.541362,0.659806 -0.02246,0.175505 0.141358,0.316315 0.311919,0.363389 0.223545,0.06172 0.647445,-0.208899 0.770805,-0.02232 0.121428,0.14556 -0.112404,0.553729 -0.26665,0.793749 -0.242222,0.376945 -0.582734,1.144557 -0.378272,1.149078 0.211776,0.0047 0.767601,-0.004 1.1044288,-0.01488 0.129405,-0.0042 0.263513,-0.652363 0.426641,-0.652363 0.163126,0 0.296616,0.64818 0.42602,0.652363 0.336832,0.01092 0.893274,0.01956 1.10505,0.01488 0.20447,-0.0044 -0.136039,-0.772133 -0.378271,-1.149078 -0.154237,-0.24002 -0.388079,-0.648189 -0.266651,-0.793749 0.12336,-0.186572 0.547253,0.08404 0.770806,0.02232 0.17056,-0.04708 0.334382,-0.187884 0.311919,-0.363389 -0.03611,-0.282202 -0.332252,-0.506577 -0.541362,-0.659806 -0.245228,-0.179695 -0.823515,-0.393153 -0.823515,-0.393153 0,0 0.103068,-0.399902 0.05953,-0.607715 -0.04301,-0.205224 -0.248297,-0.511654 -0.663528,-0.52648 z m 2.339083,0.523999 v 0.929555 h -0.653602 c 0.204174,0.153399 0.448975,0.37198 0.491752,0.706314 0.02034,0.158885 -0.04702,0.306153 -0.138286,0.403077 -0.09127,0.09694 -0.204827,0.158912 -0.325562,0.192236 -0.221358,0.06112 -0.391011,-0.0225 -0.52958,-0.05644 -0.05191,-0.01276 -0.08376,-0.01572 -0.11286,-0.0186 0.0064,0.03268 0.01798,0.07543 0.04031,0.128984 0.03973,0.09526 0.10074,0.205196 0.15999,0.302618 h 1.067842 v 0.929556 l 1.90562,-1.758653 z" ns1:label="cat-mage-move" />
    <ns0:path id="cat-eye-other-attack" style="color:#000000;display:inline;fill:#000000;stroke-width:0.972;stroke-linecap:round;stroke-linejoin:round" d="m 5.584821,11.947851 c -1.165725,0 -2.117081,0.949498 -2.117081,2.11522 0,1.165723 0.951356,2.1146 2.117081,2.1146 0.5440549,0 1.0405569,-0.206754 1.4157259,-0.545703 l -0.06511,-0.133325 -1.261938,0.388193 0.07318,-0.153789 c -0.05329,0.005 -0.107172,0.008 -0.1618499,0.008 -0.929336,0 -1.678657,-0.7487 -1.678657,-1.678038 0,-0.929335 0.749321,-1.678657 1.678657,-1.678657 0.2786619,0 0.5407949,0.06726 0.7714249,0.186655 l -0.01736,-0.237504 1.0349756,0.819795 0.08124,-0.07565 C 7.1001479,12.406591 6.3949809,11.947794 5.584837,11.947794 Z m 2.5449593,0.800572 -0.74352,0.68895 -0.7956104,-0.628799 0.07504,1.011412 -0.987227,0.229442 0.837159,0.571749 -0.435944,0.915913 0.969244,-0.298277 0.443384,0.911573 0.3714492,-0.943818 0.989088,0.221382 -0.506016,-0.878087 0.7900296,-0.63562 -1.0027296,-0.151928 z M 5.584821,13.237075 c -0.534119,1.31e-4 -1.027164,0.290299 -1.285504,0.757783 a 0.1366875,0.1366875 0 0 0 -0.0031,0.008 0.1366875,0.1366875 0 0 0 -0.0056,0.01241 0.1366875,0.1366875 0 0 0 -0.0043,0.01427 0.1366875,0.1366875 0 0 0 -0.0031,0.0186 0.1366875,0.1366875 0 0 0 0,0.01302 0.1366875,0.1366875 0 0 0 0,0.01302 0.1366875,0.1366875 0 0 0 0.0031,0.0186 0.1366875,0.1366875 0 0 0 0.0037,0.01302 0.1366875,0.1366875 0 0 0 0.0062,0.01364 0.1366875,0.1366875 0 0 0 0.0031,0.008 c 0.257651,0.468499 0.748969,0.760224 1.283643,0.760884 a 0.13670117,0.13670117 0 0 0 0.0019,0 c 0.2230619,-5.5e-5 0.4383629,-0.05124 0.6325179,-0.144487 l 0.02294,-0.04837 -0.231922,-0.158751 c -0.117108,0.04456 -0.242086,0.07116 -0.370832,0.0769 a 1.331799,1.331799 0 0 0 0.08868,-0.269131 L 5.412465,14.129923 a 1.331799,1.331799 0 0 0 0.117828,0.483691 C 5.141788,14.595384 4.786956,14.38835 4.578413,14.06109 4.787292,13.734812 5.141722,13.529483 5.529672,13.511666 a 1.331799,1.331799 0 0 0 -0.10728,0.375791 l 0.3112999,-0.07255 a 1.331799,1.331799 0 0 0 -0.09674,-0.303237 c 0.21344,0.01 0.416582,0.07634 0.590971,0.188515 l 0.208359,-0.04837 -0.01116,-0.147588 C 6.1831589,13.33376 5.8914619,13.237335 5.584864,13.236956 Z" ns1:label="cat-eye-other-attack" />
    <ns0:path id="cat-eye-move" style="color:#000000;clip-rule:nonzero;display:inline;overflow:visible;visibility:visible;isolation:auto;mix-blend-mode:normal;color-interpolation:sRGB;color-interpolation-filters:linearRGB;solid-color:#000000;solid-opacity:1;fill:#000000;fill-opacity:1;fill-rule:evenodd;stroke:none;stroke-width:0.381;stroke-linecap:butt;stroke-linejoin:miter;stroke-miterlimit:4;stroke-dasharray:none;stroke-dashoffset:0;stroke-opacity:1;color-rendering:auto;image-rendering:auto;shape-rendering:auto;text-rendering:auto;enable-background:accumulate" d="m 5.2622255,11.94754 c -1.165725,0 -2.113978,0.948254 -2.113978,2.113979 0,1.165726 0.948253,2.116461 2.113978,2.116461 1.1657259,0 2.1164607,-0.950735 2.1164607,-2.116461 0,-1.165725 -0.9507348,-2.113979 -2.1164607,-2.113979 z m 2.5662467,0.355948 v 0.929555 h -0.387155 c 0.09894,0.258019 0.153169,0.537888 0.153169,0.829717 0,0.291533 -0.05442,0.570676 -0.153169,0.828476 h 0.387155 v 0.929556 l 1.90562,-1.758652 z m -2.5662467,0.07999 c 0.9293369,0 1.6786566,0.748699 1.6786566,1.678037 0,0.929337 -0.7493197,1.678038 -1.6786566,1.678038 -0.929337,0 -1.678037,-0.748701 -1.678037,-1.678038 0,-0.929338 0.7487,-1.678037 1.678037,-1.678037 z m -0.0248,0.853282 c -0.52443,0.0091 -1.005156,0.29884 -1.259459,0.759022 -0.0084,0.01577 -0.01372,0.03305 -0.0155,0.05084 -4.77e-4,0.0049 -6.84e-4,0.01 -6.2e-4,0.01488 -2.54e-4,0.01319 0.0014,0.02635 0.0049,0.03907 0.0019,0.0058 0.0042,0.01128 0.0068,0.01674 0.0012,0.0028 0.0024,0.0054 0.0037,0.008 2.02e-4,6.42e-4 4.08e-4,0.0013 6.19e-4,0.0019 0.257651,0.468502 0.749589,0.758985 1.284263,0.759645 0.5274429,-1.31e-4 1.0141139,-0.282569 1.2749619,-0.7398 0.03306,-0.0429 0.03767,-0.101268 0.01176,-0.148829 -0.25765,-0.4685 -0.752069,-0.760843 -1.2867439,-0.761503 -0.0083,2e-6 -0.01648,-1.44e-4 -0.0248,0 z m -0.02915,0.275331 c -0.07864,0.172726 -0.119436,0.360263 -0.119688,0.550044 2.66e-4,0.190245 0.04129,0.378225 0.120303,0.551285 -0.389183,-0.01784 -0.743979,-0.223974 -0.9525,-0.551905 0.208843,-0.326705 0.563553,-0.531766 0.95188,-0.549424 z m 0.108516,0 c 0.3888819,0.0181 0.7435069,0.224181 0.9518809,0.551904 -0.208728,0.326549 -0.563166,0.531576 -0.9512599,0.549425 0.07902,-0.173059 0.1200369,-0.36104 0.1203029,-0.551285 -6.37e-4,-0.189871 -0.04187,-0.377412 -0.1209239,-0.550044 z" ns1:label="cat-eye-move" ns2:nodetypes="ssssscccscccccsssssccccccccccccccscccssccccc" />
    <ns0:path id="cat-eye-defend" style="color:#000000;display:inline;fill:#000000;stroke-width:0.972;stroke-linecap:round;stroke-linejoin:round" d="m 5.4885431,11.94785 c -1.1657229,0 -2.1170809,0.949498 -2.1170809,2.11522 0,1.165722 0.951358,2.114599 2.1170809,2.114599 0.414732,0 0.80174,-0.12018 1.128614,-0.327422 -0.122468,-0.09552 -0.234422,-0.198714 -0.334244,-0.308198 -0.236121,0.126857 -0.50642,0.199058 -0.79437,0.199058 -0.9293339,0 -1.6786569,-0.748702 -1.6786569,-1.678037 0,-0.929338 0.749323,-1.678657 1.6786569,-1.678657 0.259172,0 0.503892,0.05826 0.722436,0.16247 h 0.749722 C 6.5796411,12.176512 6.0603491,11.94785 5.4885431,11.94785 Z m 0.4254,0.814213 v 1.289224 c 0,0.885226 0.531252,1.583802 1.4746397,2.0098 0.9433871,-0.425998 1.4746381,-1.124574 1.4746381,-2.0098 V 12.762063 H 7.3885828 Z m -0.4254,0.475011 c -0.5341199,1.31e-4 -1.0271649,0.290297 -1.2855029,0.757783 a 0.1366875,0.1366875 0 0 0 -0.0031,0.008 0.1366875,0.1366875 0 0 0 -0.0056,0.01241 0.1366875,0.1366875 0 0 0 -0.0043,0.01426 0.1366875,0.1366875 0 0 0 -0.0031,0.0186 0.1366875,0.1366875 0 0 0 0,0.01302 0.1366875,0.1366875 0 0 0 0,0.01302 0.1366875,0.1366875 0 0 0 0.0031,0.0186 0.1366875,0.1366875 0 0 0 0.0037,0.01302 0.1366875,0.1366875 0 0 0 0.0062,0.01364 0.1366875,0.1366875 0 0 0 0.0031,0.008 c 0.257649,0.468501 0.748968,0.760223 1.2836429,0.760884 a 0.13670117,0.13670117 0 0 0 0.0019,0 c 0.121691,-3e-5 0.240999,-0.01513 0.355948,-0.04403 -0.03313,-0.08484 -0.06098,-0.171805 -0.0831,-0.26107 -0.0715,0.01679 -0.145267,0.02706 -0.220141,0.03038 a 1.331799,1.331799 0 0 0 0.120923,-0.551283 1.331799,1.331799 0 0 0 -0.121544,-0.550665 c 0.05311,0.0025 0.105324,0.0086 0.15689,0.01799 v -0.277812 c -0.06857,-0.01 -0.138442,-0.0148 -0.208979,-0.01488 z m -0.05519,0.274711 a 1.331799,1.331799 0 0 0 -0.120302,0.550664 1.331799,1.331799 0 0 0 0.120923,0.551284 c -0.388506,-0.01823 -0.743338,-0.225264 -0.951881,-0.552524 0.208879,-0.326276 0.563307,-0.531609 0.95126,-0.549424 z" ns1:label="cat-eye-defend" />
    <ns0:path id="cat-mage-other-move" style="color:#000000;clip-rule:nonzero;display:inline;overflow:visible;visibility:visible;isolation:auto;mix-blend-mode:normal;color-interpolation:sRGB;color-interpolation-filters:linearRGB;solid-color:#000000;solid-opacity:1;fill:#000000;fill-opacity:1;fill-rule:evenodd;stroke:none;stroke-width:0.423334;stroke-linecap:butt;stroke-linejoin:miter;stroke-miterlimit:4;stroke-dasharray:none;stroke-dashoffset:0;stroke-opacity:1;color-rendering:auto;image-rendering:auto;shape-rendering:auto;text-rendering:auto;enable-background:accumulate" d="m 7.0156999,11.808249 c -0.415229,0.01482 -0.620532,0.321256 -0.663526,0.52648 -0.04355,0.207812 0.05891,0.607715 0.05891,0.607715 0,0 -0.08208,0.03061 -0.197818,0.07813 l 1.1589996,1.069703 -1.8473275,1.704702 c -0.103524,0.261798 -0.149435,0.481898 -0.04031,0.484311 0.2117749,0.0047 0.7675999,-0.004 1.1044269,-0.01488 0.129406,-0.0042 0.263513,-0.652363 0.426641,-0.652363 0.1631269,0 0.2966161,0.64818 0.42602,0.652363 0.3368302,0.01092 0.8932733,0.01956 1.1050481,0.01488 0.2044705,-0.0044 -0.1360392,-0.772134 -0.3782712,-1.149077 -0.1542369,-0.240021 -0.3880771,-0.64819 -0.2666505,-0.79375 0.12336,-0.186569 0.5472537,0.08404 0.7708053,0.02232 C 8.843209,14.311703 9.0070297,14.1709 8.9845672,13.995394 8.9484592,13.713192 8.6523148,13.488819 8.4432052,13.335589 8.1979768,13.155893 7.6196901,12.942435 7.6196901,12.942435 c 0,0 0.103068,-0.399903 0.059532,-0.607715 -0.043008,-0.205224 -0.2482954,-0.511654 -0.6635252,-0.52648 z m -1.8665519,0.524 v 0.929556 H 3.661487 v 1.658193 h 1.487661 v 0.929555 l 1.9049999,-1.758652 z" ns1:label="cat-mage-other-move" />
    </g><ns0:rect style="fill:#cef4ce;stroke:none;stroke-width:0" id="graybar" width="19.21283" height="94.620415" x="-8.3292618" y="-3.4427614" clip-path="url(#clippath-1187)" />
    <ns0:rect id="card-border" x="0" y="0" width="63.5" height="88.900002" rx="3" ry="3" style="fill:none;stroke:#000000;stroke-width:0.2;stroke-miterlimit:4;stroke-dasharray:none;stroke-opacity:1;fill-opacity:1" />
  <ns0:text id="spell-title" xml:space="preserve" style="font-style:normal;font-variant:normal;font-weight:bold;font-stretch:normal;font-size:3.175px;line-height:125%;font-family:Lato;-inkscape-font-specification:'Lato Bold';text-align:center;letter-spacing:0px;word-spacing:0px;text-anchor:middle;display:inline;fill:#000000;fill-opacity:1;stroke:none;stroke-width:0.264583" x="34.382748" y="7.5253239"><ns0:tspan x="34.382748" y="7.5253239" style="font-style:normal;font-variant:normal;font-weight:900;font-stretch:normal;font-size:4.7625px;font-family:'Fira Sans';-inkscape-font-specification:'Fira Sans Heavy';fill:#000000;fill-opacity:1;stroke-width:0.264583" id="tspan64-5">Deflect</ns0:tspan></ns0:text>
    <use id="use1189" xlink:href="#element-earth" width="100%" height="100%" x="3" y="3" /><ns0:text id="rev-id" xml:space="preserve" style="font-style:normal;font-weight:normal;font-size:1.76389px;line-height:125%;font-family:Georgia;text-align:end;letter-spacing:0px;word-spacing:0px;text-anchor:end;display:inline;fill:#000000;fill-opacity:1;stroke:none;stroke-width:0.264583" x="57.537178" y="86.014236"><ns0:tspan x="56.411278" y="86.014236" style="font-style:italic;font-variant:normal;font-weight:normal;font-stretch:normal;font-size:1.76389px;font-family:Georgia;text-align:end;text-anchor:end;fill:#000000;fill-opacity:1;stroke-width:0.264583" id="tspan71">14</ns0:tspan></ns0:text>
    <ns0:text xml:space="preserve" style="font-size:2.82222px;line-height:1.25;font-family:'Fira Sans';-inkscape-font-specification:'Fira Sans';display:inline;stroke-width:0.264583" x="59.0014" y="86.389885" id="spell-id"><ns0:tspan ns2:role="line" id="tspan3892" style="font-style:normal;font-variant:normal;font-weight:bold;font-stretch:condensed;font-size:2.82222px;font-family:'Arial Narrow';-inkscape-font-specification:'Arial Narrow Bold Condensed';text-align:center;text-anchor:middle;stroke-width:0.264583" x="59.0014" y="86.389885">13</ns0:tspan></ns0:text>
    <ns0:rect style="display:inline;fill:none;fill-opacity:0.458078;stroke:#000000;stroke-width:0.2;stroke-linecap:round;stroke-linejoin:round;stroke-dasharray:none;stroke-opacity:1" id="spell-id-border" width="4.4975996" height="2.8854792" x="56.713383" y="83.953461" ry="0.66162157" />
    <ns0:rect style="display:inline;fill:none;stroke:#000000;stroke-width:0.5;stroke-linecap:round;stroke-linejoin:round;stroke-dasharray:none;stroke-opacity:1" id="spell-pattern-border" width="44.64484" height="24.543558" x="12.105194" y="10.106171" />
    <ns0:flowRoot transform="matrix(0.26458333,0,0,0.26458333,4.9691929,-0.29262208)" xml:space="preserve" id="spell-description" style="font-style:normal;font-weight:normal;font-size:10.6667px;line-height:125%;font-family:sans-serif;letter-spacing:0px;word-spacing:0px;display:inline;fill:#000000;fill-opacity:1;stroke:none;stroke-width:1px;stroke-linecap:butt;stroke-linejoin:miter;stroke-opacity:1"><ns0:flowRegion id="flowRegion4270"><ns0:rect x="28.799999" y="146" width="171.75475" height="163.49103" id="rect88" /></ns0:flowRegion><ns0:flowPara id="flowPara91" style="font-style:normal;font-variant:normal;font-weight:normal;font-stretch:normal;font-size:10.6667px;font-family:'Slabo 27px';-inkscape-font-specification:'Slabo 27px, '">Place a Charge on this spell.</ns0:flowPara><ns0:flowPara id="flowPara91" style="font-style:normal;font-variant:normal;font-weight:normal;font-stretch:normal;font-size:10.6667px;font-family:'Slabo 27px';-inkscape-font-specification:'Slabo 27px, '"> </ns0:flowPara><ns0:flowPara id="flowPara91" style="font-style:normal;font-variant:normal;font-weight:normal;font-stretch:normal;font-size:10.6667px;font-family:'Slabo 27px';-inkscape-font-specification:'Slabo 27px, '">Reaction: When attacked, you may immediately cast this spell.</ns0:flowPara><ns0:flowPara id="flowPara91" style="font-style:normal;font-variant:normal;font-weight:normal;font-stretch:normal;font-size:10.6667px;font-family:'Slabo 27px';-inkscape-font-specification:'Slabo 27px, '"> </ns0:flowPara><ns0:flowPara id="flowPara91" style="font-style:normal;font-variant:normal;font-weight:normal;font-stretch:normal;font-size:10.6667px;font-family:'Slabo 27px';-inkscape-font-specification:'Slabo 27px, '">Sacrifice charge: Remove a charge to deflect an attack of 1 into a neighboring space.</ns0:flowPara></ns0:flowRoot>
    <ns0:flowRoot transform="matrix(0.26458333,0,0,0.26458333,4.9691933,33.574044)" xml:space="preserve" id="spell-info" style="font-style:normal;font-weight:normal;font-size:9.33333px;line-height:125%;font-family:sans-serif;letter-spacing:0px;word-spacing:0px;display:inline;fill:#000000;fill-opacity:1;stroke:none;stroke-width:1px;stroke-linecap:butt;stroke-linejoin:miter;stroke-opacity:1"><ns0:flowRegion id="flowRegion1289"><ns0:rect x="28.799999" y="146" width="172.11678" height="130.35522" id="rect1287" /></ns0:flowRegion><ns0:flowPara id="flowPara1291" style="font-style:normal;font-variant:normal;font-weight:normal;font-stretch:normal;font-size:9.33333px;font-family:'Slabo 27px';-inkscape-font-specification:'Slabo 27px, '"> </ns0:flowPara><ns0:flowPara id="flowPara1291" style="font-style:normal;font-variant:normal;font-weight:normal;font-stretch:normal;font-size:9.33333px;font-family:'Slabo 27px';-inkscape-font-specification:'Slabo 27px, '"> </ns0:flowPara><ns0:flowPara id="flowPara1291" style="font-style:normal;font-variant:normal;font-weight:normal;font-stretch:normal;font-size:9.33333px;font-family:'Slabo 27px';-inkscape-font-specification:'Slabo 27px, '"> </ns0:flowPara><ns0:flowPara id="flowPara1291" style="font-style:normal;font-variant:normal;font-weight:normal;font-stretch:normal;font-size:9.33333px;font-family:'Slabo 27px';-inkscape-font-specification:'Slabo 27px, '"> </ns0:flowPara></ns0:flowRoot>
  <use id="use1190" xlink:href="#element-earth" width="100%" height="100%" x="21.299999999999997" y="16.15" /><circle id="circle1191" cx="31.049999999999997" cy="18.9" r="0.8" style="fill:#c0c0c0;stroke:none;stroke-width:0" /><circle id="circle1192" cx="38.05" cy="18.9" r="0.8" style="fill:#c0c0c0;stroke:none;stroke-width:0" /><rect id="rect1193" x="42.3" y="16.15" width="5.5" height="5.5" style="fill:none;stroke:#000000;stroke-width:0.5;stroke-linecap:round;stroke-miterlimit:2" /><circle id="circle1194" cx="24.049999999999997" cy="25.9" r="0.8" style="fill:#c0c0c0;stroke:none;stroke-width:0" /><circle id="circle1195" cx="31.049999999999997" cy="25.9" r="0.8" style="fill:#c0c0c0;stroke:none;stroke-width:0" /><rect id="rect1196" x="35.3" y="23.15" width="5.5" height="5.5" style="fill:none;stroke:#000000;stroke-width:0.5;stroke-linecap:round;stroke-miterlimit:2" /><circle id="circle1197" cx="45.05" cy="25.9" r="0.8" style="fill:#c0c0c0;stroke:none;stroke-width:0" /><use id="use1198" xlink:href="#cat-mage-defend" width="100%" height="100%" x="0" y="0" /><use id="use1199" xlink:href="#cat-mage-other-attack" width="100%" height="100%" x="0" y="6" /></g></svg>