<?xml version='1.0' encoding='UTF-8'?>
<svg xmlns:ns0="http://www.w3.org/2000/svg" xmlns:ns1="http://sodipodi.sourceforge.net/DTD/sodipodi-0.dtd" version="1.1" id="svg_root" xmlns="http://www.w3.org/2000/svg" xmlns:sodipodi="http://sodipodi.sourceforge.net/DTD/sodipodi-0.dtd" xmlns:inkscape="http://www.inkscape.org/namespaces/inkscape" xmlns:xlink="http://www.w3.org/1999/xlink" width="215.9mm" height="279.4mm" viewBox="0 0 215.9 279.4"><defs><filter id="filterInnerGlowH" style="color-interpolation-filters:sRGB;" inkscape:label="filterInnerGlowH" x="0.41051782" y="0.41051782" width="0.16543989" height="0.17009096"><feFlood id="node1293" flood-opacity="1" flood-color="rgb(217,104,14)" result="flood" /><feComposite id="node1294" in="flood" in2="SourceGraphic" operator="out" result="composite1" /><feGaussianBlur id="node1295" in="composite1" stdDeviation="2.5" result="blur" /><feOffset id="node1296" dx="0" dy="0" result="offset" /><feComposite id="node1297" in="offset" in2="SourceGraphic" operator="atop" result="composite2" /></filter><filter id="filterInnerGlowM" style="color-interpolation-filters:sRGB;" inkscape:label="filterInnerGlowM" x="0.41051782" y="0.41051782" width="0.16543989" height="0.17009096"><feFlood id="node1298" flood-opacity="1" flood-color="rgb(220,174,16)" result="flood" /><feComposite id="node1299" in="flood" in2="SourceGraphic" operator="out" result="composite1" /><feGaussianBlur id="node1300" in="composite1" stdDeviation="2.5" result="blur" /><feOffset id="node1301" dx="0" dy="0" result="offset" /><feComposite id="node1302" in="offset" in2="SourceGraphic" operator="atop" result="composite2" /></filter><filter id="filterInnerGlowL" style="color-interpolation-filters:sRGB;" inkscape:label="filterInnerGlowL" x="0.41051782" y="0.41051782" width="0.16543989" height="0.17009096"><feFlood id="node1303" flood-opacity="1" flood-color="rgb(219,217,86)" result="flood" /><feComposite id="node1304" in="flood" in2="SourceGraphic" operator="out" result="composite1" /><feGaussianBlur id="node1305" in="composite1" stdDeviation="2.5" result="blur" /><feOffset id="node1306" dx="0" dy="0" result="offset" /><feComposite id="node1307" in="offset" in2="SourceGraphic" operator="atop" result="composite2" /></filter><filter id="filterInnerGlowR" style="color-interpolation-filters:sRGB;" inkscape:label="filterInnerGlowR" x="0.41051782" y="0.41051782" width="0.16543989" height="0.17009096"><feFlood id="node1308" flood-opacity="1" flood-color="rgb(111,161,232)" result="flood" /><feComposite id="node1309" in="flood" in2="SourceGraphic" operator="out" result="composite1" /><feGaussianBlur id="node1310" in="composite1" stdDeviation="2.0" result="blur" /><feOffset id="node1311" dx="0" dy="0" result="offset" /><feComposite id="node1312" in="offset" in2="SourceGraphic" operator="atop" result="composite2" /></filter><clipPath id="clippath-1315"><path id="path1314" d="m 0 100 86.6025 -50 0 -100 -86.6025 -50 -86.6025 50 0 100 z z" /></clipPath><clipPath id="clippath-1317"><path id="path1316" d="m 0 100 86.6025 -50 0 -100 -86.6025 -50 -86.6025 50 0 100 z z" /></clipPath></defs><g id="layer" inkscape:label="Layer" inkscape:groupmode="layer" transform="translate(107.95 120) scale(1, -1)"><g id="background" inkscape:label="Tile Background" inkscape:groupmode="layer"><path id="path1313" d="m 0 100 86.6025 -50 0 -100 -86.6025 -50 -86.6025 50 0 100 z z" style="fill:#000000;stroke:none;stroke-width:0" /></g><g id="region-clip" inkscape:label="Region Clipped" inkscape:groupmode="layer" style="display:none"><g id="clipped-regions"><path id="clippedregion-0" d="m 17.5177 80.3415 -24.6403 1.46636 -7.37676 9.82092 14.4994 8.37121 21.6506 -12.5 z z" style="fill:#f0eaac;stroke:#000000;stroke-width:0.3" /><path id="clippedregion-1" d="m 75.9305 25 -14.5214 16.9773 -1.3449 12.057 4.88769 8.46573 21.6506 -12.5 0 -25 z z" style="fill:#f0eaac;stroke:#000000;stroke-width:0.3" /><path id="clippedregion-2" d="m 58.2814 -50.9463 9.38791 25.9463 18.9332 0 0 -25 -21.6506 -12.5 z z" style="fill:#f0eaac;stroke:#000000;stroke-width:0.3" /><path id="clippedregion-3" d="m -9.39326 -79.6512 14.6576 4.10394 12.247 -4.78326 4.13931 -7.16949 -21.6506 -12.5 -14.4994 8.37121 z z" style="fill:#f0eaac;stroke:#000000;stroke-width:0.3" /><path id="clippedregion-4" d="m -80.7098 -32.3862 11.9238 -13.4815 -5.12476 -11.4598 -12.6918 7.32759 0 16.9067 z z" style="fill:#f0ce76;stroke:#000000;stroke-width:0.3" /><path id="clippedregion-5" d="m -63.5756 43.0533 -4.66462 -7.75651 -18.3623 -2.20348 0 16.9067 12.6918 7.32759 z z" style="fill:#f0ce76;stroke:#000000;stroke-width:0.3" /><path id="clippedregion-6" d="m 60.0642 54.0343 -38.2771 10.2502 -4.26947 16.057 4.13296 7.15849 43.3013 -25 z z" style="fill:#f0eaac;stroke:#000000;stroke-width:0.3" /><path id="clippedregion-7" d="m 67.6693 -25 -9.35499 14.4213 17.6162 35.5787 10.6721 0 0 -50 z z" style="fill:#f0eaac;stroke:#000000;stroke-width:0.3" /><path id="clippedregion-8" d="m 17.5113 -80.3305 22.1321 26.7001 18.6379 2.68413 6.67052 -11.5537 -43.3013 -25 z z" style="fill:#f0eaac;stroke:#000000;stroke-width:0.3" /><path id="clippedregion-9" d="m -35.6339 -63.11 26.2407 -16.5411 -5.10611 -11.9776 -30.4542 17.5827 z z" style="fill:#f0eaac;stroke:#000000;stroke-width:0.3" /><path id="clippedregion-10" d="m -68.786 -45.8677 20.8066 1.57882 11.5528 -10.3901 0.792775 -8.43105 -9.31962 -10.936 -28.9572 16.7185 z z" style="fill:#f0eaac;stroke:#000000;stroke-width:0.3" /><path id="clippedregion-11" d="m -76.2589 -2.48247 4.63066 -8.68247 -9.08152 -21.2213 -5.89275 -0.707131 0 33.0933 z z" style="fill:#f0eaac;stroke:#000000;stroke-width:0.3" /><path id="clippedregion-12" d="m -68.2402 35.2968 4.28414 -16.5584 -12.3028 -21.2209 -10.3436 2.48247 0 33.0933 z z" style="fill:#f0eaac;stroke:#000000;stroke-width:0.3" /><path id="clippedregion-13" d="m -42.5787 67.3629 -9.55193 -19.7617 -11.445 -4.54791 -10.3352 14.2743 28.9572 16.7185 z z" style="fill:#f0eaac;stroke:#000000;stroke-width:0.3" /><path id="clippedregion-14" d="m -7.1226 81.8079 -12.1618 -17.2961 -23.2943 2.85112 -2.37483 6.68313 30.4542 17.5827 z z" style="fill:#f0eaac;stroke:#000000;stroke-width:0.3" /><path id="clippedregion-15" d="m -68.786 -45.8677 -11.9238 13.4815 9.08152 21.2213 25.2888 -5.03742 -1.64003 -28.0866 z z" style="fill:#ffffff;stroke:#000000;stroke-width:0.3" /><path id="clippedregion-16" d="m -76.2589 -2.48247 12.3028 21.2209 21.9847 -8.8543 3.39798 -20.0814 -7.76599 -6.00508 -25.2888 5.03742 z z" style="fill:#ffffff;stroke:#000000;stroke-width:0.3" /><path id="clippedregion-17" d="m 58.3143 -10.5787 9.35499 -14.4213 -9.38791 -25.9463 -18.6379 -2.68413 -23.2087 20.2991 19.1129 28.376 z z" style="fill:#ffffff;stroke:#000000;stroke-width:0.3" /><path id="clippedregion-18" d="m -47.9795 -44.2889 1.64003 28.0866 7.76599 6.00508 24.4509 -4.08315 7.46942 -18.4786 -29.7736 -21.9199 z z" style="fill:#ffffff;stroke:#000000;stroke-width:0.3" /><path id="clippedregion-19" d="m -7.6733 36.8103 -11.6111 27.7015 12.1618 17.2961 24.6403 -1.46636 4.26947 -16.057 -11.2853 -22.5579 z z" style="fill:#ffffff;stroke:#000000;stroke-width:0.3" /><path id="clippedregion-20" d="m 21.7871 64.2845 38.2771 -10.2502 1.3449 -12.057 -31.7358 -17.7676 -19.1714 17.5169 z z" style="fill:#ffffff;stroke:#000000;stroke-width:0.3" /><path id="clippedregion-21" d="m 39.6435 -53.6305 -22.1321 -26.7001 -12.247 4.78326 -4.42055 39.0582 15.591 3.15765 z z" style="fill:#ffffff;stroke:#000000;stroke-width:0.3" /><path id="clippedregion-22" d="m -36.4267 -54.679 29.7736 21.9199 7.49692 -3.72997 4.42055 -39.0582 -14.6576 -4.10394 -26.2407 16.5411 z z" style="fill:#ffffff;stroke:#000000;stroke-width:0.3" /><path id="clippedregion-23" d="m -14.1226 -14.2804 9.35218 16.139 35.1953 -0.452211 5.12272 -6.36179 -19.1129 -28.376 -15.591 -3.15765 -7.49692 3.72997 z z" style="fill:#ffffff;stroke:#000000;stroke-width:0.3" /><path id="clippedregion-24" d="m -41.9714 9.88415 -21.9847 8.8543 -4.28414 16.5584 4.66462 7.75651 11.445 4.54791 27.8482 -18.2495 z z" style="fill:#ffffff;stroke:#000000;stroke-width:0.3" /><path id="clippedregion-25" d="m -38.5734 -10.1973 -3.39798 20.0814 17.689 19.4676 11.2741 1.16578 8.23791 -28.6589 -9.35218 -16.139 z z" style="fill:#ffffff;stroke:#000000;stroke-width:0.3" /><path id="clippedregion-26" d="m 29.6733 24.2097 31.7358 17.7676 14.5214 -16.9773 -17.6162 -35.5787 -22.7666 5.6233 -5.12272 6.36179 z z" style="fill:#ffffff;stroke:#000000;stroke-width:0.3" /><path id="clippedregion-27" d="m -7.6733 36.8103 -5.33501 -6.29278 -11.2741 -1.16578 -27.8482 18.2495 9.55193 19.7617 23.2943 -2.85112 z z" style="fill:#ffffff;stroke:#000000;stroke-width:0.3" /><path id="clippedregion-28" d="m 10.5019 41.7266 19.1714 -17.5169 0.751625 -22.8033 -35.1953 0.452211 -8.23791 28.6589 5.33501 6.29278 z z" style="fill:#ffffff;stroke:#000000;stroke-width:0.3" /></g></g><g id="region-rounded-fill" inkscape:label="Region Rounded Fill" inkscape:groupmode="layer"><g id="region-rounded-fill-group" clip-path="url(#clippath-1315)"><path id="roundedregionfill-0" d="m -5.62525 81.7188 c -0.998234 0.0594056 -1.79764 0.488892 -2.39822 1.28846 l -13.2305 17.6142 c -0.600577 0.799567 -0.602846 1.60083 -0.00680603 2.40378 l 11.7065 15.7704 c 0.59604 0.802955 1.39406 1.20443 2.39406 1.20443 l 21.0563 0 c 1 0 1.69062 -0.462237 2.07187 -1.38671 l 9.28064 -22.5044 c 0.381246 -0.924473 0.32187 -1.81972 -0.17813 -2.68575 l -6.80271 -11.7826 c -0.5 -0.866025 -1.24912 -1.26934 -2.24735 -1.20993 z z" style="fill:#f0eaac;stroke:none;stroke-width:0" /><path id="roundedregionfill-1" d="m 94.7382 73.1352 c 0.991241 0.132068 1.73686 -0.234911 2.23686 -1.10094 l 13.896 -24.0686 c 0.5 -0.866025 0.445003 -1.69524 -0.164991 -2.48765 l -14.849 -19.2894 c -0.609994 -0.792406 -1.41499 -1.18861 -2.41499 -1.18861 l -16.0116 -3.55271e-15 c -1 0 -1.825 0.379967 -2.475 1.1399 l -12.5714 14.6975 c -0.650001 0.759933 -1.03043 1.63682 -1.14129 2.63065 l -1.01233 9.07545 c -0.110858 0.993836 0.0837131 1.92377 0.583713 2.78979 l 7.55744 13.0899 c 0.5 0.866025 1.24562 1.36507 2.23686 1.49714 z z" style="fill:#f0eaac;stroke:none;stroke-width:0" /><path id="roundedregionfill-2" d="m 70.6085 -69.9203 c -0.991241 0.132068 -1.73686 0.631114 -2.23686 1.49714 l -9.34027 16.1778 c -0.5 0.866025 -0.579883 1.76921 -0.239648 2.70955 l 8.3672 23.1253 c 0.340234 0.940341 1.01035 1.41051 2.01035 1.41051 l 24.2728 -3.55271e-15 c 1 0 1.805 -0.396203 2.41499 -1.18861 l 14.849 -19.2894 c 0.609994 -0.792406 0.664991 -1.62162 0.164991 -2.48765 l -13.896 -24.0686 c -0.5 -0.866025 -1.24562 -1.233 -2.23686 -1.10094 z z" style="fill:#f0eaac;stroke:none;stroke-width:0" /><path id="roundedregionfill-3" d="m 15.9679 -118.613 c -0.381246 -0.924473 -1.07187 -1.38671 -2.07187 -1.38671 l -21.0563 0 c -1 0 -1.79802 0.401478 -2.39406 1.20443 l -9.60357 12.9374 c -0.59604 0.802955 -0.697981 1.66438 -0.305824 2.58428 l 9.48221 22.2428 c 0.392157 0.919898 1.06972 1.51466 2.03269 1.78428 l 11.7687 3.29508 c 0.962967 0.269619 1.91019 0.222527 2.84166 -0.141276 l 9.45258 -3.69185 c 0.931476 -0.363803 1.64721 -0.978717 2.14721 -1.84474 l 6.80906 -11.7936 c 0.5 -0.866025 0.559377 -1.76127 0.17813 -2.68575 z z" style="fill:#f0eaac;stroke:none;stroke-width:0" /><path id="roundedregionfill-4" d="m -78.8851 -68.4511 c -0.408233 -0.912878 -1.10905 -1.31196 -2.10245 -1.19726 l -17.1152 1.9763 c -0.993399 0.114708 -1.7401 0.605075 -2.2401 1.4711 l -7.16025 12.4019 c -0.5 0.866025 -0.55132 1.75787 -0.15396 2.67553 l 6.48518 14.9769 c 0.39736 0.917663 1.09248 1.43607 2.08535 1.55521 l 16.8875 2.0265 c 0.992877 0.119145 1.82057 -0.195811 2.48307 -0.944869 l 9.93624 -11.2344 c 0.662505 -0.749058 0.789641 -1.58003 0.381408 -2.4929 z z" style="fill:#f0ce76;stroke:none;stroke-width:0" /><path id="roundedregionfill-5" d="m -67.4672 36.5823 c -0.515366 -0.85697 -1.26949 -1.34503 -2.26236 -1.46417 l -27.9766 -3.3572 c -0.992877 -0.119145 -1.688 0.280114 -2.08535 1.19778 l -7.8656 18.1648 c -0.39736 0.917663 -0.34604 1.80951 0.15396 2.67553 l 7.16025 12.4019 c 0.5 0.866025 1.2467 1.35639 2.2401 1.4711 l 13.9234 1.60774 c 0.993399 0.114708 1.78333 -0.232928 2.36979 -1.04291 l 17.3543 -23.9686 c 0.586459 -0.809979 0.622006 -1.64345 0.106639 -2.50042 z z" style="fill:#f0ce76;stroke:none;stroke-width:0" /><path id="roundedregionfill-6" d="m 17.9031 78.8919 c -0.256965 0.966421 -0.135448 1.88264 0.364552 2.74867 l 6.80271 11.7826 c 0.5 0.866025 1.2488 1.3336 2.24641 1.40271 l 27.0775 1.87598 c 0.997609 0.0691164 1.71589 -0.345582 2.15483 -1.24409 l 11.9141 -24.3878 c 0.438948 -0.898513 0.408422 -1.78078 -0.0915783 -2.64681 l -7.55744 -13.0899 c -0.5 -0.866025 -1.23298 -1.1697 -2.19895 -0.911025 l -35.3792 9.47419 c -0.965964 0.258676 -1.57743 0.871224 -1.83439 1.83764 z z" style="fill:#f0eaac;stroke:none;stroke-width:0" /><path id="roundedregionfill-7" d="m 59.1306 -11.8371 c -0.544216 0.838945 -0.594464 1.7065 -0.150743 2.60267 l 16.285 32.8902 c 0.443721 0.896165 1.16558 1.34425 2.16558 1.34425 l 16.0116 3.55271e-15 c 1 0 1.77933 -0.414698 2.33799 -1.24409 l 15.1634 -22.5118 c 0.558661 -0.829396 0.558661 -1.65879 1.42109e-14 -2.48819 l -15.1634 -22.5118 c -0.558661 -0.829396 -1.33799 -1.24409 -2.33799 -1.24409 l -24.2728 3.55271e-15 c -1 0 -1.77211 0.419473 -2.31632 1.25842 z z" style="fill:#f0eaac;stroke:none;stroke-width:0" /><path id="roundedregionfill-8" d="m 56.5491 -95.4578 c -0.438948 -0.898513 -1.15723 -1.31321 -2.15483 -1.24409 l -27.0775 1.87598 c -0.997609 0.0691164 -1.74641 0.536687 -2.24641 1.40271 l -6.80906 11.7936 c -0.5 0.866025 -0.430912 1.68398 0.207264 2.45387 l 20.2176 24.3904 c 0.638176 0.769891 1.45216 1.22611 2.44195 1.36865 l 15.6686 2.2565 c 0.989788 0.142544 1.73468 -0.219197 2.23468 -1.08522 l 9.34027 -16.1778 c 0.5 -0.866025 0.530526 -1.74829 0.0915783 -2.64681 z z" style="fill:#f0eaac;stroke:none;stroke-width:0" /><path id="roundedregionfill-9" d="m -36.6069 -64.2517 c 0.648618 0.761114 1.3959 0.875043 2.24186 0.341785 l 23.7028 -14.9414 c 0.845953 -0.533257 1.07285 -1.25984 0.680694 -2.17973 l -9.48221 -22.2428 c -0.392157 -0.919898 -1.08822 -1.38362 -2.08819 -1.39116 l -17.2509 -0.130076 c -0.999972 -0.00754003 -1.75731 0.417373 -2.27202 1.27474 l -11.2123 18.6767 c -0.514708 0.857365 -0.447754 1.66661 0.200864 2.42772 z z" style="fill:#f0eaac;stroke:none;stroke-width:0" /><path id="roundedregionfill-10" d="m -78.5414 -70.9762 c -0.637398 0.770535 -0.751981 1.61224 -0.343748 2.52512 l 9.48677 21.214 c 0.408233 0.912878 1.11092 1.40715 2.10805 1.48281 l 17.8152 1.35183 c 0.997133 0.0756635 1.86747 -0.220855 2.611 -0.889556 l 9.32216 -8.38396 c 0.743532 -0.668701 1.16211 -1.50086 1.25572 -2.49646 l 0.511923 -5.44423 c 0.0936174 -0.995608 -0.183883 -1.87397 -0.832501 -2.63508 l -15.4794 -18.1642 c -0.648618 -0.761114 -1.47287 -1.13432 -2.47276 -1.11961 l -12.2607 0.180356 c -0.999892 0.0147085 -1.81854 0.40733 -2.45594 1.17786 z z" style="fill:#f0eaac;stroke:none;stroke-width:0" /><path id="roundedregionfill-11" d="m -99.0866 -34.5914 c -0.992877 -0.119145 -1.74603 0.250345 -2.25947 1.10847 l -8.79286 14.6958 c -0.513439 0.858126 -0.531248 1.72642 -0.0534264 2.60487 l 9.79291 18.0039 c 0.477822 0.878457 1.20293 1.201 2.17531 0.967626 l 20.5066 -4.92159 c 0.972387 -0.233373 1.69388 -0.791236 2.16446 -1.67359 l 3.21889 -6.03541 c 0.470589 -0.882353 0.509167 -1.78321 0.115735 -2.70256 l -7.90122 -18.4632 c -0.393432 -0.919354 -1.08659 -1.4386 -2.07946 -1.55775 z z" style="fill:#f0eaac;stroke:none;stroke-width:0" /><path id="roundedregionfill-12" d="m -98.2242 2.78919 c -0.972387 0.233373 -1.65661 0.809174 -2.05266 1.7274 l -5.00594 11.6061 c -0.396051 0.918229 -0.37975 1.82908 0.0489036 2.73255 l 5.39537 11.3718 c 0.428653 0.903469 1.13942 1.41478 2.1323 1.53392 l 27.9766 3.3572 c 0.992877 0.119145 1.61456 -0.305343 1.86504 -1.27346 l 3.5327 -13.654 c 0.250482 -0.968121 0.124944 -1.88474 -0.376612 -2.74987 l -10.7982 -18.6255 c -0.501557 -0.865125 -1.23853 -1.181 -2.21092 -0.947628 z z" style="fill:#f0eaac;stroke:none;stroke-width:0" /><path id="roundedregionfill-13" d="m -62.1816 43.6072 c -0.929316 -0.369285 -1.6872 -0.148938 -2.27366 0.661041 l -17.3543 23.9686 c -0.586459 0.809979 -0.584863 1.6188 0.00478995 2.42645 l 10.7304 14.6976 c 0.589652 0.807657 1.38351 1.18033 2.38156 1.11803 l 18.2625 -1.14003 c 0.998057 -0.0623037 1.6645 -0.564594 1.99934 -1.50687 l 5.35003 -15.0558 c 0.334835 -0.942277 0.28466 -1.86359 -0.150525 -2.76393 l -8.24637 -17.0607 c -0.435185 -0.900341 -1.11744 -1.53515 -2.04675 -1.90444 z z" style="fill:#f0eaac;stroke:none;stroke-width:0" /><path id="roundedregionfill-14" d="m -18.4216 65.7388 c -0.575192 -0.818018 -1.35908 -1.16628 -2.35168 -1.04479 l -20.3166 2.48665 c -0.992593 0.121489 -1.65631 0.653371 -1.99114 1.59565 l -5.35003 15.0558 c -0.334835 0.942277 -0.206577 1.81662 0.384776 2.62303 l 9.37336 12.7822 c 0.591353 0.806413 1.38511 1.25339 2.38127 1.34094 l 12.6425 1.11112 c 0.99616 0.0875497 1.79453 -0.268459 2.39511 -1.06803 l 13.2305 -17.6142 c 0.600577 -0.799567 0.613269 -1.60836 0.0380774 -2.42638 z z" style="fill:#f0eaac;stroke:none;stroke-width:0" /><path id="roundedregionfill-15" d="m -67.2903 -45.7542 c -0.997133 -0.0756635 -1.82695 0.261034 -2.48946 1.01009 l -9.93624 11.2344 c -0.662505 0.749058 -0.797041 1.58326 -0.403609 2.50262 l 7.90122 18.4632 c 0.393432 0.919354 1.08051 1.28135 2.06125 1.08599 l 22.3466 -4.45135 c 0.980732 -0.195357 1.44195 -0.792186 1.38366 -1.79049 l -1.46515 -25.0917 c -0.0582928 -0.9983 -0.586006 -1.53528 -1.58314 -1.61094 z z" style="fill:#ffffff;stroke:none;stroke-width:0" /><path id="roundedregionfill-16" d="m -75.553 -3.806 c -0.470589 0.882353 -0.455105 1.75609 0.0464516 2.62122 l 10.7982 18.6255 c 0.501557 0.865125 1.21613 1.11089 2.14373 0.737306 l 19.2019 -7.73353 c 0.927595 -0.373588 1.47481 -1.05337 1.64165 -2.03936 l 2.89746 -17.1235 c 0.166838 -0.985984 -0.145284 -1.78483 -0.936367 -2.39654 l -5.39274 -4.16996 c -0.791083 -0.611709 -1.67699 -0.819884 -2.65772 -0.624527 l -22.3466 4.45135 c -0.980732 0.195357 -1.70639 0.734212 -2.17698 1.61656 z z" style="fill:#ffffff;stroke:none;stroke-width:0" /><path id="roundedregionfill-17" d="m 56.8581 -10.219 c 0.970825 -0.239791 1.72834 -0.779159 2.27256 -1.6181 l 7.72234 -11.9045 c 0.544216 -0.838945 0.646207 -1.72859 0.305973 -2.66893 l -8.3672 -23.1253 c -0.340234 -0.940341 -1.00525 -1.48178 -1.99503 -1.62433 l -15.6686 -2.2565 c -0.989788 -0.142544 -1.86104 0.115358 -2.61375 0.773706 l -20.9506 18.3241 c -0.752714 0.658348 -0.849745 1.40222 -0.291093 2.23162 l 17.437 25.8878 c 0.558652 0.829402 1.32339 1.12421 2.29422 0.884417 z z" style="fill:#ffffff;stroke:none;stroke-width:0" /><path id="roundedregionfill-18" d="m -46.8642 -45.292 c -0.743532 0.668701 -1.08615 1.5022 -1.02786 2.5005 l 1.46515 25.0917 c 0.0582928 0.9983 0.482981 1.8033 1.27406 2.41501 l 5.39274 4.16996 c 0.791083 0.611709 1.6798 0.835207 2.66614 0.670494 l 21.4918 -3.58901 c 0.986342 -0.164713 1.66689 -0.71063 2.04165 -1.63775 l 6.34514 -15.6973 c 0.374761 -0.927122 0.159494 -1.68712 -0.6458 -2.28 l -27.3577 -20.1413 c -0.805294 -0.592875 -1.57971 -0.554962 -2.32324 0.113738 z z" style="fill:#ffffff;stroke:none;stroke-width:0" /><path id="roundedregionfill-19" d="m -6.22534 37.202 c -0.965309 -0.26111 -1.64125 0.0694663 -2.02781 0.991728 l -10.4514 24.9347 c -0.386566 0.922262 -0.292253 1.7924 0.282939 2.61042 l 10.4362 14.842 c 0.575192 0.818018 1.3619 1.19732 2.36014 1.13792 l 21.6456 -1.28814 c 0.998234 -0.0594056 1.62583 -0.572319 1.8828 -1.53874 l 3.49857 -13.1578 c 0.256965 -0.966421 0.161741 -1.89679 -0.285673 -2.79112 l -9.94301 -19.8749 c -0.447414 -0.894327 -1.15378 -1.47205 -2.11908 -1.73316 z z" style="fill:#ffffff;stroke:none;stroke-width:0" /><path id="roundedregionfill-20" d="m 21.116 62.943 c 0.447414 0.894327 1.1541 1.21215 2.12007 0.953477 l 35.3792 -9.47419 c 0.965964 -0.258676 1.50438 -0.884931 1.61523 -1.87877 l 1.01233 -9.07545 c 0.110858 -0.993836 -0.269992 -1.73501 -1.14255 -2.22352 l -29.1181 -16.3021 c -0.872558 -0.48851 -1.67796 -0.395499 -2.4162 0.279034 l -16.9567 15.4933 c -0.738245 0.674533 -0.883661 1.45896 -0.436247 2.35329 z z" style="fill:#ffffff;stroke:none;stroke-width:0" /><path id="roundedregionfill-21" d="m 38.5144 -52.6429 c 0.752714 -0.658348 0.809983 -1.37247 0.171807 -2.14236 l -20.2176 -24.3904 c -0.638176 -0.769891 -1.423 -0.972935 -2.35448 -0.609132 l -9.45258 3.69185 c -0.931476 0.363803 -1.45344 1.04253 -1.5659 2.03619 l -4.08317 36.0773 c -0.11246 0.993656 0.32136 1.58973 1.30146 1.78824 l 12.6507 2.56215 c 0.980101 0.198501 1.84651 -0.0314225 2.59922 -0.68977 z z" style="fill:#ffffff;stroke:none;stroke-width:0" /><path id="roundedregionfill-22" d="m -36.2863 -56.1724 c -0.0936174 0.995608 0.262221 1.78985 1.06752 2.38273 l 27.3577 20.1413 c 0.805294 0.592875 1.6556 0.66659 2.5509 0.221144 l 4.81099 -2.39363 c 0.895309 -0.445446 1.39919 -1.165 1.51165 -2.15865 l 4.08317 -36.0773 c 0.11246 -0.993656 -0.312793 -1.62529 -1.27576 -1.89491 l -11.7687 -3.29508 c -0.962967 -0.269619 -1.86743 -0.137799 -2.71338 0.395458 l -23.7028 14.9414 c -0.845953 0.533257 -1.31574 1.29769 -1.40936 2.2933 z z" style="fill:#ffffff;stroke:none;stroke-width:0" /><path id="roundedregionfill-23" d="m -13.5604 -15.6711 c -0.374761 0.927122 -0.311452 1.8233 0.189926 2.68852 l 7.84805 13.5434 c 0.501378 0.865228 1.25203 1.29142 2.25194 1.27857 l 32.1956 -0.413669 c 0.999917 -0.0128476 1.81346 -0.40871 2.44064 -1.18759 l 3.24119 -4.02516 c 0.627177 -0.778877 0.661439 -1.58302 0.102787 -2.41242 l -17.437 -25.8878 c -0.558652 -0.829402 -1.32803 -1.34335 -2.30813 -1.54185 l -12.6507 -2.56215 c -0.980101 -0.198501 -1.91781 -0.0750285 -2.81311 0.370417 l -4.81099 2.39363 c -0.895309 0.445446 -1.53034 1.13173 -1.9051 2.05885 z z" style="fill:#ffffff;stroke:none;stroke-width:0" /><path id="roundedregionfill-24" d="m -40.9627 10.9943 c -0.672489 -0.740107 -1.47253 -0.923367 -2.40013 -0.549779 l -19.2019 7.73353 c -0.927595 0.373588 -1.51663 1.04444 -1.76711 2.01256 l -3.5327 13.654 c -0.250482 0.968121 -0.11804 1.88067 0.397327 2.73764 l 3.11853 5.1856 c 0.515366 0.85697 1.23771 1.4701 2.16702 1.83938 l 8.65701 3.44006 c 0.929316 0.369285 1.81218 0.279872 2.64858 -0.26824 l 25.339 -16.6051 c 0.836405 -0.548111 0.918364 -1.19222 0.245875 -1.93233 z z" style="fill:#ffffff;stroke:none;stroke-width:0" /><path id="roundedregionfill-25" d="m -37.0939 -10.4443 c -0.986342 0.164713 -1.56293 0.740062 -1.72977 1.72605 l -2.89746 17.1235 c -0.166838 0.985984 0.0859867 1.84903 0.758476 2.58914 l 15.6715 17.2473 c 0.672489 0.740107 1.50608 1.16159 2.50078 1.26444 l 8.29001 0.857214 c 0.994696 0.102855 1.63017 -0.326259 1.90643 -1.28734 l 7.40913 -25.7757 c 0.27626 -0.961083 0.163701 -1.87424 -0.337677 -2.73947 l -7.84805 -13.5434 c -0.501378 -0.865228 -1.24524 -1.21549 -2.23158 -1.05077 z z" style="fill:#ffffff;stroke:none;stroke-width:0" /><path id="roundedregionfill-26" d="m 29.7227 22.7105 c -0.0329433 0.999457 0.386864 1.74344 1.25942 2.23195 l 29.1181 16.3021 c 0.872558 0.48851 1.63384 0.352798 2.28384 -0.407135 l 12.5714 -14.6975 c 0.650001 -0.759933 0.753141 -1.58798 0.30942 -2.48415 l -16.285 -32.8902 c -0.443721 -0.896165 -1.15099 -1.22435 -2.12182 -0.984561 l -19.8542 4.90392 c -0.970825 0.239791 -1.76983 0.749125 -2.397 1.528 l -3.24119 4.02516 c -0.627177 0.778877 -0.957237 1.66804 -0.99018 2.6675 z z" style="fill:#ffffff;stroke:none;stroke-width:0" /><path id="roundedregionfill-27" d="m -8.25315 38.1937 c 0.386566 -0.922262 0.256513 -1.76478 -0.39016 -2.52754 l -3.39499 -4.00448 c -0.646673 -0.762767 -1.46736 -1.19558 -2.46205 -1.29843 l -8.29001 -0.857214 c -0.994696 -0.102855 -1.91025 0.119773 -2.74665 0.667885 l -25.339 16.6051 c -0.836405 0.548111 -1.03702 1.27234 -0.60183 2.17268 l 8.24637 17.0607 c 0.435185 0.900341 1.14907 1.28977 2.14167 1.16828 l 20.3166 -2.48665 c 0.992593 -0.121489 1.68217 -0.643364 2.06874 -1.56563 z z" style="fill:#ffffff;stroke:none;stroke-width:0" /><path id="roundedregionfill-28" d="m 9.05393 41.3349 c 0.965309 0.26111 1.81709 0.0543982 2.55533 -0.620134 l 16.9567 -15.4933 c 0.738245 -0.674533 1.12384 -1.51153 1.15678 -2.51098 l 0.652795 -19.8049 c 0.0329433 -0.999457 -0.450544 -1.49276 -1.45046 -1.47991 l -32.1956 0.413669 c -0.999917 0.0128476 -1.63801 0.499813 -1.91427 1.4609 l -7.40913 25.7757 c -0.27626 0.961083 -0.0910536 1.82301 0.555619 2.58578 l 3.39499 4.00448 c 0.646673 0.762767 1.45266 1.27471 2.41797 1.53582 z z" style="fill:#ffffff;stroke:none;stroke-width:0" /></g></g><g id="region-rounded-stroke" inkscape:label="Region Rounded Stroke" inkscape:groupmode="layer"><g id="region-rounded-stroke-group" clip-path="url(#clippath-1317)"><path id="roundedregionstroke-0" d="m -5.62525 81.7188 c -0.998234 0.0594056 -1.79764 0.488892 -2.39822 1.28846 l -13.2305 17.6142 c -0.600577 0.799567 -0.602846 1.60083 -0.00680603 2.40378 l 11.7065 15.7704 c 0.59604 0.802955 1.39406 1.20443 2.39406 1.20443 l 21.0563 0 c 1 0 1.69062 -0.462237 2.07187 -1.38671 l 9.28064 -22.5044 c 0.381246 -0.924473 0.32187 -1.81972 -0.17813 -2.68575 l -6.80271 -11.7826 c -0.5 -0.866025 -1.24912 -1.26934 -2.24735 -1.20993 z z" style="fill:none;stroke:#000000;stroke-width:1.0" /><path id="roundedregionstroke-1" d="m 94.7382 73.1352 c 0.991241 0.132068 1.73686 -0.234911 2.23686 -1.10094 l 13.896 -24.0686 c 0.5 -0.866025 0.445003 -1.69524 -0.164991 -2.48765 l -14.849 -19.2894 c -0.609994 -0.792406 -1.41499 -1.18861 -2.41499 -1.18861 l -16.0116 -3.55271e-15 c -1 0 -1.825 0.379967 -2.475 1.1399 l -12.5714 14.6975 c -0.650001 0.759933 -1.03043 1.63682 -1.14129 2.63065 l -1.01233 9.07545 c -0.110858 0.993836 0.0837131 1.92377 0.583713 2.78979 l 7.55744 13.0899 c 0.5 0.866025 1.24562 1.36507 2.23686 1.49714 z z" style="fill:none;stroke:#000000;stroke-width:1.0" /><path id="roundedregionstroke-2" d="m 70.6085 -69.9203 c -0.991241 0.132068 -1.73686 0.631114 -2.23686 1.49714 l -9.34027 16.1778 c -0.5 0.866025 -0.579883 1.76921 -0.239648 2.70955 l 8.3672 23.1253 c 0.340234 0.940341 1.01035 1.41051 2.01035 1.41051 l 24.2728 -3.55271e-15 c 1 0 1.805 -0.396203 2.41499 -1.18861 l 14.849 -19.2894 c 0.609994 -0.792406 0.664991 -1.62162 0.164991 -2.48765 l -13.896 -24.0686 c -0.5 -0.866025 -1.24562 -1.233 -2.23686 -1.10094 z z" style="fill:none;stroke:#000000;stroke-width:1.0" /><path id="roundedregionstroke-3" d="m 15.9679 -118.613 c -0.381246 -0.924473 -1.07187 -1.38671 -2.07187 -1.38671 l -21.0563 0 c -1 0 -1.79802 0.401478 -2.39406 1.20443 l -9.60357 12.9374 c -0.59604 0.802955 -0.697981 1.66438 -0.305824 2.58428 l 9.48221 22.2428 c 0.392157 0.919898 1.06972 1.51466 2.03269 1.78428 l 11.7687 3.29508 c 0.962967 0.269619 1.91019 0.222527 2.84166 -0.141276 l 9.45258 -3.69185 c 0.931476 -0.363803 1.64721 -0.978717 2.14721 -1.84474 l 6.80906 -11.7936 c 0.5 -0.866025 0.559377 -1.76127 0.17813 -2.68575 z z" style="fill:none;stroke:#000000;stroke-width:1.0" /><path id="roundedregionstroke-4" d="m -78.8851 -68.4511 c -0.408233 -0.912878 -1.10905 -1.31196 -2.10245 -1.19726 l -17.1152 1.9763 c -0.993399 0.114708 -1.7401 0.605075 -2.2401 1.4711 l -7.16025 12.4019 c -0.5 0.866025 -0.55132 1.75787 -0.15396 2.67553 l 6.48518 14.9769 c 0.39736 0.917663 1.09248 1.43607 2.08535 1.55521 l 16.8875 2.0265 c 0.992877 0.119145 1.82057 -0.195811 2.48307 -0.944869 l 9.93624 -11.2344 c 0.662505 -0.749058 0.789641 -1.58003 0.381408 -2.4929 z z" style="fill:none;stroke:#000000;stroke-width:1.0" /><path id="roundedregionstroke-5" d="m -67.4672 36.5823 c -0.515366 -0.85697 -1.26949 -1.34503 -2.26236 -1.46417 l -27.9766 -3.3572 c -0.992877 -0.119145 -1.688 0.280114 -2.08535 1.19778 l -7.8656 18.1648 c -0.39736 0.917663 -0.34604 1.80951 0.15396 2.67553 l 7.16025 12.4019 c 0.5 0.866025 1.2467 1.35639 2.2401 1.4711 l 13.9234 1.60774 c 0.993399 0.114708 1.78333 -0.232928 2.36979 -1.04291 l 17.3543 -23.9686 c 0.586459 -0.809979 0.622006 -1.64345 0.106639 -2.50042 z z" style="fill:none;stroke:#000000;stroke-width:1.0" /><path id="roundedregionstroke-6" d="m 17.9031 78.8919 c -0.256965 0.966421 -0.135448 1.88264 0.364552 2.74867 l 6.80271 11.7826 c 0.5 0.866025 1.2488 1.3336 2.24641 1.40271 l 27.0775 1.87598 c 0.997609 0.0691164 1.71589 -0.345582 2.15483 -1.24409 l 11.9141 -24.3878 c 0.438948 -0.898513 0.408422 -1.78078 -0.0915783 -2.64681 l -7.55744 -13.0899 c -0.5 -0.866025 -1.23298 -1.1697 -2.19895 -0.911025 l -35.3792 9.47419 c -0.965964 0.258676 -1.57743 0.871224 -1.83439 1.83764 z z" style="fill:none;stroke:#000000;stroke-width:1.0" /><path id="roundedregionstroke-7" d="m 59.1306 -11.8371 c -0.544216 0.838945 -0.594464 1.7065 -0.150743 2.60267 l 16.285 32.8902 c 0.443721 0.896165 1.16558 1.34425 2.16558 1.34425 l 16.0116 3.55271e-15 c 1 0 1.77933 -0.414698 2.33799 -1.24409 l 15.1634 -22.5118 c 0.558661 -0.829396 0.558661 -1.65879 1.42109e-14 -2.48819 l -15.1634 -22.5118 c -0.558661 -0.829396 -1.33799 -1.24409 -2.33799 -1.24409 l -24.2728 3.55271e-15 c -1 0 -1.77211 0.419473 -2.31632 1.25842 z z" style="fill:none;stroke:#000000;stroke-width:1.0" /><path id="roundedregionstroke-8" d="m 56.5491 -95.4578 c -0.438948 -0.898513 -1.15723 -1.31321 -2.15483 -1.24409 l -27.0775 1.87598 c -0.997609 0.0691164 -1.74641 0.536687 -2.24641 1.40271 l -6.80906 11.7936 c -0.5 0.866025 -0.430912 1.68398 0.207264 2.45387 l 20.2176 24.3904 c 0.638176 0.769891 1.45216 1.22611 2.44195 1.36865 l 15.6686 2.2565 c 0.989788 0.142544 1.73468 -0.219197 2.23468 -1.08522 l 9.34027 -16.1778 c 0.5 -0.866025 0.530526 -1.74829 0.0915783 -2.64681 z z" style="fill:none;stroke:#000000;stroke-width:1.0" /><path id="roundedregionstroke-9" d="m -36.6069 -64.2517 c 0.648618 0.761114 1.3959 0.875043 2.24186 0.341785 l 23.7028 -14.9414 c 0.845953 -0.533257 1.07285 -1.25984 0.680694 -2.17973 l -9.48221 -22.2428 c -0.392157 -0.919898 -1.08822 -1.38362 -2.08819 -1.39116 l -17.2509 -0.130076 c -0.999972 -0.00754003 -1.75731 0.417373 -2.27202 1.27474 l -11.2123 18.6767 c -0.514708 0.857365 -0.447754 1.66661 0.200864 2.42772 z z" style="fill:none;stroke:#000000;stroke-width:1.0" /><path id="roundedregionstroke-10" d="m -78.5414 -70.9762 c -0.637398 0.770535 -0.751981 1.61224 -0.343748 2.52512 l 9.48677 21.214 c 0.408233 0.912878 1.11092 1.40715 2.10805 1.48281 l 17.8152 1.35183 c 0.997133 0.0756635 1.86747 -0.220855 2.611 -0.889556 l 9.32216 -8.38396 c 0.743532 -0.668701 1.16211 -1.50086 1.25572 -2.49646 l 0.511923 -5.44423 c 0.0936174 -0.995608 -0.183883 -1.87397 -0.832501 -2.63508 l -15.4794 -18.1642 c -0.648618 -0.761114 -1.47287 -1.13432 -2.47276 -1.11961 l -12.2607 0.180356 c -0.999892 0.0147085 -1.81854 0.40733 -2.45594 1.17786 z z" style="fill:none;stroke:#000000;stroke-width:1.0" /><path id="roundedregionstroke-11" d="m -99.0866 -34.5914 c -0.992877 -0.119145 -1.74603 0.250345 -2.25947 1.10847 l -8.79286 14.6958 c -0.513439 0.858126 -0.531248 1.72642 -0.0534264 2.60487 l 9.79291 18.0039 c 0.477822 0.878457 1.20293 1.201 2.17531 0.967626 l 20.5066 -4.92159 c 0.972387 -0.233373 1.69388 -0.791236 2.16446 -1.67359 l 3.21889 -6.03541 c 0.470589 -0.882353 0.509167 -1.78321 0.115735 -2.70256 l -7.90122 -18.4632 c -0.393432 -0.919354 -1.08659 -1.4386 -2.07946 -1.55775 z z" style="fill:none;stroke:#000000;stroke-width:1.0" /><path id="roundedregionstroke-12" d="m -98.2242 2.78919 c -0.972387 0.233373 -1.65661 0.809174 -2.05266 1.7274 l -5.00594 11.6061 c -0.396051 0.918229 -0.37975 1.82908 0.0489036 2.73255 l 5.39537 11.3718 c 0.428653 0.903469 1.13942 1.41478 2.1323 1.53392 l 27.9766 3.3572 c 0.992877 0.119145 1.61456 -0.305343 1.86504 -1.27346 l 3.5327 -13.654 c 0.250482 -0.968121 0.124944 -1.88474 -0.376612 -2.74987 l -10.7982 -18.6255 c -0.501557 -0.865125 -1.23853 -1.181 -2.21092 -0.947628 z z" style="fill:none;stroke:#000000;stroke-width:1.0" /><path id="roundedregionstroke-13" d="m -62.1816 43.6072 c -0.929316 -0.369285 -1.6872 -0.148938 -2.27366 0.661041 l -17.3543 23.9686 c -0.586459 0.809979 -0.584863 1.6188 0.00478995 2.42645 l 10.7304 14.6976 c 0.589652 0.807657 1.38351 1.18033 2.38156 1.11803 l 18.2625 -1.14003 c 0.998057 -0.0623037 1.6645 -0.564594 1.99934 -1.50687 l 5.35003 -15.0558 c 0.334835 -0.942277 0.28466 -1.86359 -0.150525 -2.76393 l -8.24637 -17.0607 c -0.435185 -0.900341 -1.11744 -1.53515 -2.04675 -1.90444 z z" style="fill:none;stroke:#000000;stroke-width:1.0" /><path id="roundedregionstroke-14" d="m -18.4216 65.7388 c -0.575192 -0.818018 -1.35908 -1.16628 -2.35168 -1.04479 l -20.3166 2.48665 c -0.992593 0.121489 -1.65631 0.653371 -1.99114 1.59565 l -5.35003 15.0558 c -0.334835 0.942277 -0.206577 1.81662 0.384776 2.62303 l 9.37336 12.7822 c 0.591353 0.806413 1.38511 1.25339 2.38127 1.34094 l 12.6425 1.11112 c 0.99616 0.0875497 1.79453 -0.268459 2.39511 -1.06803 l 13.2305 -17.6142 c 0.600577 -0.799567 0.613269 -1.60836 0.0380774 -2.42638 z z" style="fill:none;stroke:#000000;stroke-width:1.0" /><path id="roundedregionstroke-15" d="m -67.2903 -45.7542 c -0.997133 -0.0756635 -1.82695 0.261034 -2.48946 1.01009 l -9.93624 11.2344 c -0.662505 0.749058 -0.797041 1.58326 -0.403609 2.50262 l 7.90122 18.4632 c 0.393432 0.919354 1.08051 1.28135 2.06125 1.08599 l 22.3466 -4.45135 c 0.980732 -0.195357 1.44195 -0.792186 1.38366 -1.79049 l -1.46515 -25.0917 c -0.0582928 -0.9983 -0.586006 -1.53528 -1.58314 -1.61094 z z" style="fill:none;stroke:#000000;stroke-width:1.0" /><path id="roundedregionstroke-16" d="m -75.553 -3.806 c -0.470589 0.882353 -0.455105 1.75609 0.0464516 2.62122 l 10.7982 18.6255 c 0.501557 0.865125 1.21613 1.11089 2.14373 0.737306 l 19.2019 -7.73353 c 0.927595 -0.373588 1.47481 -1.05337 1.64165 -2.03936 l 2.89746 -17.1235 c 0.166838 -0.985984 -0.145284 -1.78483 -0.936367 -2.39654 l -5.39274 -4.16996 c -0.791083 -0.611709 -1.67699 -0.819884 -2.65772 -0.624527 l -22.3466 4.45135 c -0.980732 0.195357 -1.70639 0.734212 -2.17698 1.61656 z z" style="fill:none;stroke:#000000;stroke-width:1.0" /><path id="roundedregionstroke-17" d="m 56.8581 -10.219 c 0.970825 -0.239791 1.72834 -0.779159 2.27256 -1.6181 l 7.72234 -11.9045 c 0.544216 -0.838945 0.646207 -1.72859 0.305973 -2.66893 l -8.3672 -23.1253 c -0.340234 -0.940341 -1.00525 -1.48178 -1.99503 -1.62433 l -15.6686 -2.2565 c -0.989788 -0.142544 -1.86104 0.115358 -2.61375 0.773706 l -20.9506 18.3241 c -0.752714 0.658348 -0.849745 1.40222 -0.291093 2.23162 l 17.437 25.8878 c 0.558652 0.829402 1.32339 1.12421 2.29422 0.884417 z z" style="fill:none;stroke:#000000;stroke-width:1.0" /><path id="roundedregionstroke-18" d="m -46.8642 -45.292 c -0.743532 0.668701 -1.08615 1.5022 -1.02786 2.5005 l 1.46515 25.0917 c 0.0582928 0.9983 0.482981 1.8033 1.27406 2.41501 l 5.39274 4.16996 c 0.791083 0.611709 1.6798 0.835207 2.66614 0.670494 l 21.4918 -3.58901 c 0.986342 -0.164713 1.66689 -0.71063 2.04165 -1.63775 l 6.34514 -15.6973 c 0.374761 -0.927122 0.159494 -1.68712 -0.6458 -2.28 l -27.3577 -20.1413 c -0.805294 -0.592875 -1.57971 -0.554962 -2.32324 0.113738 z z" style="fill:none;stroke:#000000;stroke-width:1.0" /><path id="roundedregionstroke-19" d="m -6.22534 37.202 c -0.965309 -0.26111 -1.64125 0.0694663 -2.02781 0.991728 l -10.4514 24.9347 c -0.386566 0.922262 -0.292253 1.7924 0.282939 2.61042 l 10.4362 14.842 c 0.575192 0.818018 1.3619 1.19732 2.36014 1.13792 l 21.6456 -1.28814 c 0.998234 -0.0594056 1.62583 -0.572319 1.8828 -1.53874 l 3.49857 -13.1578 c 0.256965 -0.966421 0.161741 -1.89679 -0.285673 -2.79112 l -9.94301 -19.8749 c -0.447414 -0.894327 -1.15378 -1.47205 -2.11908 -1.73316 z z" style="fill:none;stroke:#000000;stroke-width:1.0" /><path id="roundedregionstroke-20" d="m 21.116 62.943 c 0.447414 0.894327 1.1541 1.21215 2.12007 0.953477 l 35.3792 -9.47419 c 0.965964 -0.258676 1.50438 -0.884931 1.61523 -1.87877 l 1.01233 -9.07545 c 0.110858 -0.993836 -0.269992 -1.73501 -1.14255 -2.22352 l -29.1181 -16.3021 c -0.872558 -0.48851 -1.67796 -0.395499 -2.4162 0.279034 l -16.9567 15.4933 c -0.738245 0.674533 -0.883661 1.45896 -0.436247 2.35329 z z" style="fill:none;stroke:#000000;stroke-width:1.0" /><path id="roundedregionstroke-21" d="m 38.5144 -52.6429 c 0.752714 -0.658348 0.809983 -1.37247 0.171807 -2.14236 l -20.2176 -24.3904 c -0.638176 -0.769891 -1.423 -0.972935 -2.35448 -0.609132 l -9.45258 3.69185 c -0.931476 0.363803 -1.45344 1.04253 -1.5659 2.03619 l -4.08317 36.0773 c -0.11246 0.993656 0.32136 1.58973 1.30146 1.78824 l 12.6507 2.56215 c 0.980101 0.198501 1.84651 -0.0314225 2.59922 -0.68977 z z" style="fill:none;stroke:#000000;stroke-width:1.0" /><path id="roundedregionstroke-22" d="m -36.2863 -56.1724 c -0.0936174 0.995608 0.262221 1.78985 1.06752 2.38273 l 27.3577 20.1413 c 0.805294 0.592875 1.6556 0.66659 2.5509 0.221144 l 4.81099 -2.39363 c 0.895309 -0.445446 1.39919 -1.165 1.51165 -2.15865 l 4.08317 -36.0773 c 0.11246 -0.993656 -0.312793 -1.62529 -1.27576 -1.89491 l -11.7687 -3.29508 c -0.962967 -0.269619 -1.86743 -0.137799 -2.71338 0.395458 l -23.7028 14.9414 c -0.845953 0.533257 -1.31574 1.29769 -1.40936 2.2933 z z" style="fill:none;stroke:#000000;stroke-width:1.0" /><path id="roundedregionstroke-23" d="m -13.5604 -15.6711 c -0.374761 0.927122 -0.311452 1.8233 0.189926 2.68852 l 7.84805 13.5434 c 0.501378 0.865228 1.25203 1.29142 2.25194 1.27857 l 32.1956 -0.413669 c 0.999917 -0.0128476 1.81346 -0.40871 2.44064 -1.18759 l 3.24119 -4.02516 c 0.627177 -0.778877 0.661439 -1.58302 0.102787 -2.41242 l -17.437 -25.8878 c -0.558652 -0.829402 -1.32803 -1.34335 -2.30813 -1.54185 l -12.6507 -2.56215 c -0.980101 -0.198501 -1.91781 -0.0750285 -2.81311 0.370417 l -4.81099 2.39363 c -0.895309 0.445446 -1.53034 1.13173 -1.9051 2.05885 z z" style="fill:none;stroke:#000000;stroke-width:1.0" /><path id="roundedregionstroke-24" d="m -40.9627 10.9943 c -0.672489 -0.740107 -1.47253 -0.923367 -2.40013 -0.549779 l -19.2019 7.73353 c -0.927595 0.373588 -1.51663 1.04444 -1.76711 2.01256 l -3.5327 13.654 c -0.250482 0.968121 -0.11804 1.88067 0.397327 2.73764 l 3.11853 5.1856 c 0.515366 0.85697 1.23771 1.4701 2.16702 1.83938 l 8.65701 3.44006 c 0.929316 0.369285 1.81218 0.279872 2.64858 -0.26824 l 25.339 -16.6051 c 0.836405 -0.548111 0.918364 -1.19222 0.245875 -1.93233 z z" style="fill:none;stroke:#000000;stroke-width:1.0" /><path id="roundedregionstroke-25" d="m -37.0939 -10.4443 c -0.986342 0.164713 -1.56293 0.740062 -1.72977 1.72605 l -2.89746 17.1235 c -0.166838 0.985984 0.0859867 1.84903 0.758476 2.58914 l 15.6715 17.2473 c 0.672489 0.740107 1.50608 1.16159 2.50078 1.26444 l 8.29001 0.857214 c 0.994696 0.102855 1.63017 -0.326259 1.90643 -1.28734 l 7.40913 -25.7757 c 0.27626 -0.961083 0.163701 -1.87424 -0.337677 -2.73947 l -7.84805 -13.5434 c -0.501378 -0.865228 -1.24524 -1.21549 -2.23158 -1.05077 z z" style="fill:none;stroke:#000000;stroke-width:1.0" /><path id="roundedregionstroke-26" d="m 29.7227 22.7105 c -0.0329433 0.999457 0.386864 1.74344 1.25942 2.23195 l 29.1181 16.3021 c 0.872558 0.48851 1.63384 0.352798 2.28384 -0.407135 l 12.5714 -14.6975 c 0.650001 -0.759933 0.753141 -1.58798 0.30942 -2.48415 l -16.285 -32.8902 c -0.443721 -0.896165 -1.15099 -1.22435 -2.12182 -0.984561 l -19.8542 4.90392 c -0.970825 0.239791 -1.76983 0.749125 -2.397 1.528 l -3.24119 4.02516 c -0.627177 0.778877 -0.957237 1.66804 -0.99018 2.6675 z z" style="fill:none;stroke:#000000;stroke-width:1.0" /><path id="roundedregionstroke-27" d="m -8.25315 38.1937 c 0.386566 -0.922262 0.256513 -1.76478 -0.39016 -2.52754 l -3.39499 -4.00448 c -0.646673 -0.762767 -1.46736 -1.19558 -2.46205 -1.29843 l -8.29001 -0.857214 c -0.994696 -0.102855 -1.91025 0.119773 -2.74665 0.667885 l -25.339 16.6051 c -0.836405 0.548111 -1.03702 1.27234 -0.60183 2.17268 l 8.24637 17.0607 c 0.435185 0.900341 1.14907 1.28977 2.14167 1.16828 l 20.3166 -2.48665 c 0.992593 -0.121489 1.68217 -0.643364 2.06874 -1.56563 z z" style="fill:none;stroke:#000000;stroke-width:1.0" /><path id="roundedregionstroke-28" d="m 9.05393 41.3349 c 0.965309 0.26111 1.81709 0.0543982 2.55533 -0.620134 l 16.9567 -15.4933 c 0.738245 -0.674533 1.12384 -1.51153 1.15678 -2.51098 l 0.652795 -19.8049 c 0.0329433 -0.999457 -0.450544 -1.49276 -1.45046 -1.47991 l -32.1956 0.413669 c -0.999917 0.0128476 -1.63801 0.499813 -1.91427 1.4609 l -7.40913 25.7757 c -0.27626 0.961083 -0.0910536 1.82301 0.555619 2.58578 l 3.39499 4.00448 c 0.646673 0.762767 1.45266 1.27471 2.41797 1.53582 z z" style="fill:none;stroke:#000000;stroke-width:1.0" /></g></g><g id="region" inkscape:label="Region" inkscape:groupmode="layer" style="display:none"><path id="region-0" d="m 17.5177 80.3415 8.30271 14.3807 -10.4244 25.2778 -24.0563 0 -13.4946 -18.1792 15.0322 -20.0129 z z" style="fill:#ffffff;stroke:#000000;stroke-width:0.3" /><path id="region-1" d="m 69.1217 69.7222 -9.05744 -15.688 1.3449 -12.057 14.5214 -16.9773 19.0116 3.55271e-15 16.679 21.6667 -15.396 26.6667 z z" style="fill:#ffffff;stroke:#000000;stroke-width:0.3" /><path id="region-2" d="m 69.1217 -69.7222 -10.8403 18.7759 9.38791 25.9463 27.2728 -3.55271e-15 16.679 -21.6667 -15.396 -26.6667 z z" style="fill:#ffffff;stroke:#000000;stroke-width:0.3" /><path id="region-3" d="m 25.8204 -94.7222 -8.30906 14.3917 -12.247 4.78326 -14.6576 -4.10394 -10.6587 -25.0025 11.3917 -15.3463 24.0563 0 z z" style="fill:#ffffff;stroke:#000000;stroke-width:0.3" /><path id="region-4" d="m -79.4975 -69.8204 -20.0954 2.32042 -8.66025 15 7.67726 17.7299 19.8661 2.38394 11.9238 -13.4815 z z" style="fill:#ffffff;stroke:#000000;stroke-width:0.3" /><path id="region-5" d="m -63.5756 43.0533 -19.1137 26.3985 -16.9036 -1.95186 -8.66025 -15 9.05768 -20.9178 30.9553 3.71463 z z" style="fill:#ffffff;stroke:#000000;stroke-width:0.3" /><path id="region-6" d="m 21.7871 64.2845 38.2771 -10.2502 9.05744 15.688 -13.2309 27.0833 -30.0703 -2.08333 -8.30271 -14.3807 z z" style="fill:#ffffff;stroke:#000000;stroke-width:0.3" /><path id="region-7" d="m 58.3143 -10.5787 17.6162 35.5787 19.0116 3.55271e-15 16.8394 -25 -16.8394 -25 -27.2728 3.55271e-15 z z" style="fill:#ffffff;stroke:#000000;stroke-width:0.3" /><path id="region-8" d="m 55.8907 -96.8056 -30.0703 2.08333 -8.30906 14.3917 22.1321 26.7001 18.6379 2.68413 10.8403 -18.7759 z z" style="fill:#ffffff;stroke:#000000;stroke-width:0.3" /><path id="region-9" d="m -53.0592 -83.5575 12.7565 -21.2488 20.2508 0.152696 10.6587 25.0025 -26.2407 16.5411 z z" style="fill:#ffffff;stroke:#000000;stroke-width:0.3" /><path id="region-10" d="m -79.4975 -69.8204 10.7115 23.9527 20.8066 1.57882 11.5528 -10.3901 0.792775 -8.43105 -17.4253 -20.4475 -15.2604 0.224481 z z" style="fill:#ffffff;stroke:#000000;stroke-width:0.3" /><path id="region-11" d="m -80.7098 -32.3862 9.08152 21.2213 -4.63066 8.68247 -23.4238 5.62171 -11.2264 -20.6392 10.3332 -17.2701 z z" style="fill:#ffffff;stroke:#000000;stroke-width:0.3" /><path id="region-12" d="m -99.6827 3.13925 -6.19409 14.3608 6.68133 14.0822 30.9553 3.71463 4.28414 -16.5584 -12.3028 -21.2209 z z" style="fill:#ffffff;stroke:#000000;stroke-width:0.3" /><path id="region-13" d="m -63.5756 43.0533 -19.1137 26.3985 12.4994 17.1206 21.2566 -1.32694 6.35453 -17.8826 -9.55193 -19.7617 z z" style="fill:#ffffff;stroke:#000000;stroke-width:0.3" /><path id="region-14" d="m -19.2844 64.5118 -23.2943 2.85112 -6.35453 17.8826 11.1474 15.2015 15.631 1.37376 15.0322 -20.0129 z z" style="fill:#ffffff;stroke:#000000;stroke-width:0.3" /><path id="region-15" d="m -68.786 -45.8677 -11.9238 13.4815 9.08152 21.2213 25.2888 -5.03742 -1.64003 -28.0866 z z" style="fill:#ffffff;stroke:#000000;stroke-width:0.3" /><path id="region-16" d="m -71.6283 -11.1649 25.2888 -5.03742 7.76599 6.00508 -3.39798 20.0814 -21.9847 8.8543 -12.3028 -21.2209 z z" style="fill:#ffffff;stroke:#000000;stroke-width:0.3" /><path id="region-17" d="m 58.3143 -10.5787 9.35499 -14.4213 -9.38791 -25.9463 -18.6379 -2.68413 -23.2087 20.2991 19.1129 28.376 z z" style="fill:#ffffff;stroke:#000000;stroke-width:0.3" /><path id="region-18" d="m -36.4267 -54.679 29.7736 21.9199 -7.46942 18.4786 -24.4509 4.08315 -7.76599 -6.00508 -1.64003 -28.0866 z z" style="fill:#ffffff;stroke:#000000;stroke-width:0.3" /><path id="region-19" d="m 10.5019 41.7266 11.2853 22.5579 -4.26947 16.057 -24.6403 1.46636 -12.1618 -17.2961 11.6111 -27.7015 z z" style="fill:#ffffff;stroke:#000000;stroke-width:0.3" /><path id="region-20" d="m 10.5019 41.7266 19.1714 -17.5169 31.7358 17.7676 -1.3449 12.057 -38.2771 10.2502 z z" style="fill:#ffffff;stroke:#000000;stroke-width:0.3" /><path id="region-21" d="m 39.6435 -53.6305 -22.1321 -26.7001 -12.247 4.78326 -4.42055 39.0582 15.591 3.15765 z z" style="fill:#ffffff;stroke:#000000;stroke-width:0.3" /><path id="region-22" d="m -36.4267 -54.679 29.7736 21.9199 7.49692 -3.72997 4.42055 -39.0582 -14.6576 -4.10394 -26.2407 16.5411 z z" style="fill:#ffffff;stroke:#000000;stroke-width:0.3" /><path id="region-23" d="m -14.1226 -14.2804 9.35218 16.139 35.1953 -0.452211 5.12272 -6.36179 -19.1129 -28.376 -15.591 -3.15765 -7.49692 3.72997 z z" style="fill:#ffffff;stroke:#000000;stroke-width:0.3" /><path id="region-24" d="m -24.2824 29.3518 -27.8482 18.2495 -11.445 -4.54791 -4.66462 -7.75651 4.28414 -16.5584 21.9847 -8.8543 z z" style="fill:#ffffff;stroke:#000000;stroke-width:0.3" /><path id="region-25" d="m -14.1226 -14.2804 9.35218 16.139 -8.23791 28.6589 -11.2741 -1.16578 -17.689 -19.4676 3.39798 -20.0814 z z" style="fill:#ffffff;stroke:#000000;stroke-width:0.3" /><path id="region-26" d="m 29.6733 24.2097 31.7358 17.7676 14.5214 -16.9773 -17.6162 -35.5787 -22.7666 5.6233 -5.12272 6.36179 z z" style="fill:#ffffff;stroke:#000000;stroke-width:0.3" /><path id="region-27" d="m -7.6733 36.8103 -5.33501 -6.29278 -11.2741 -1.16578 -27.8482 18.2495 9.55193 19.7617 23.2943 -2.85112 z z" style="fill:#ffffff;stroke:#000000;stroke-width:0.3" /><path id="region-28" d="m 10.5019 41.7266 19.1714 -17.5169 0.751625 -22.8033 -35.1953 0.452211 -8.23791 28.6589 5.33501 6.29278 z z" style="fill:#ffffff;stroke:#000000;stroke-width:0.3" /></g><g id="unmod-region" inkscape:label="Unmodified Region" inkscape:groupmode="layer" style="display:none"><path id="unmodregion-0" d="m 17.5177 80.3415 8.30271 14.3807 -10.4244 25.2778 -24.0563 0 -13.4946 -18.1792 15.0322 -20.0129 z z" style="fill:#ffffff;stroke:#000000;stroke-width:0.3" /><path id="unmodregion-1" d="m 69.1217 69.7222 -9.05744 -15.688 1.3449 -12.057 14.5214 -16.9773 19.0116 3.55271e-15 16.679 21.6667 -15.396 26.6667 z z" style="fill:#ffffff;stroke:#000000;stroke-width:0.3" /><path id="unmodregion-2" d="m 69.1217 -69.7222 -10.8403 18.7759 9.38791 25.9463 27.2728 -3.55271e-15 16.679 -21.6667 -15.396 -26.6667 z z" style="fill:#ffffff;stroke:#000000;stroke-width:0.3" /><path id="unmodregion-3" d="m 25.8204 -94.7222 -8.30906 14.3917 -12.247 4.78326 -14.6576 -4.10394 -10.6587 -25.0025 11.3917 -15.3463 24.0563 0 z z" style="fill:#ffffff;stroke:#000000;stroke-width:0.3" /><path id="unmodregion-4" d="m -79.4975 -69.8204 -20.0954 2.32042 -8.66025 15 7.67726 17.7299 19.8661 2.38394 11.9238 -13.4815 z z" style="fill:#ffffff;stroke:#000000;stroke-width:0.3" /><path id="unmodregion-5" d="m -63.5756 43.0533 -19.1137 26.3985 -16.9036 -1.95186 -8.66025 -15 9.05768 -20.9178 30.9553 3.71463 z z" style="fill:#ffffff;stroke:#000000;stroke-width:0.3" /><path id="unmodregion-6" d="m 21.7871 64.2845 38.2771 -10.2502 9.05744 15.688 -13.2309 27.0833 -30.0703 -2.08333 -8.30271 -14.3807 z z" style="fill:#ffffff;stroke:#000000;stroke-width:0.3" /><path id="unmodregion-7" d="m 58.3143 -10.5787 17.6162 35.5787 19.0116 3.55271e-15 16.8394 -25 -16.8394 -25 -27.2728 3.55271e-15 z z" style="fill:#ffffff;stroke:#000000;stroke-width:0.3" /><path id="unmodregion-8" d="m 55.8907 -96.8056 -30.0703 2.08333 -8.30906 14.3917 22.1321 26.7001 18.6379 2.68413 10.8403 -18.7759 z z" style="fill:#ffffff;stroke:#000000;stroke-width:0.3" /><path id="unmodregion-9" d="m -53.0592 -83.5575 12.7565 -21.2488 20.2508 0.152696 10.6587 25.0025 -26.2407 16.5411 z z" style="fill:#ffffff;stroke:#000000;stroke-width:0.3" /><path id="unmodregion-10" d="m -79.4975 -69.8204 10.7115 23.9527 20.8066 1.57882 11.5528 -10.3901 0.792775 -8.43105 -17.4253 -20.4475 -15.2604 0.224481 z z" style="fill:#ffffff;stroke:#000000;stroke-width:0.3" /><path id="unmodregion-11" d="m -80.7098 -32.3862 9.08152 21.2213 -4.63066 8.68247 -23.4238 5.62171 -11.2264 -20.6392 10.3332 -17.2701 z z" style="fill:#ffffff;stroke:#000000;stroke-width:0.3" /><path id="unmodregion-12" d="m -99.6827 3.13925 -6.19409 14.3608 6.68133 14.0822 30.9553 3.71463 4.28414 -16.5584 -12.3028 -21.2209 z z" style="fill:#ffffff;stroke:#000000;stroke-width:0.3" /><path id="unmodregion-13" d="m -63.5756 43.0533 -19.1137 26.3985 12.4994 17.1206 21.2566 -1.32694 6.35453 -17.8826 -9.55193 -19.7617 z z" style="fill:#ffffff;stroke:#000000;stroke-width:0.3" /><path id="unmodregion-14" d="m -19.2844 64.5118 -23.2943 2.85112 -6.35453 17.8826 11.1474 15.2015 15.631 1.37376 15.0322 -20.0129 z z" style="fill:#ffffff;stroke:#000000;stroke-width:0.3" /><path id="unmodregion-15" d="m -68.786 -45.8677 -11.9238 13.4815 9.08152 21.2213 25.2888 -5.03742 -1.64003 -28.0866 z z" style="fill:#ffffff;stroke:#000000;stroke-width:0.3" /><path id="unmodregion-16" d="m -71.6283 -11.1649 25.2888 -5.03742 7.76599 6.00508 -3.39798 20.0814 -21.9847 8.8543 -12.3028 -21.2209 z z" style="fill:#ffffff;stroke:#000000;stroke-width:0.3" /><path id="unmodregion-17" d="m 58.3143 -10.5787 9.35499 -14.4213 -9.38791 -25.9463 -18.6379 -2.68413 -23.2087 20.2991 19.1129 28.376 z z" style="fill:#ffffff;stroke:#000000;stroke-width:0.3" /><path id="unmodregion-18" d="m -36.4267 -54.679 29.7736 21.9199 -7.46942 18.4786 -24.4509 4.08315 -7.76599 -6.00508 -1.64003 -28.0866 z z" style="fill:#ffffff;stroke:#000000;stroke-width:0.3" /><path id="unmodregion-19" d="m 10.5019 41.7266 11.2853 22.5579 -4.26947 16.057 -24.6403 1.46636 -12.1618 -17.2961 11.6111 -27.7015 z z" style="fill:#ffffff;stroke:#000000;stroke-width:0.3" /><path id="unmodregion-20" d="m 10.5019 41.7266 19.1714 -17.5169 31.7358 17.7676 -1.3449 12.057 -38.2771 10.2502 z z" style="fill:#ffffff;stroke:#000000;stroke-width:0.3" /><path id="unmodregion-21" d="m 39.6435 -53.6305 -22.1321 -26.7001 -12.247 4.78326 -4.42055 39.0582 15.591 3.15765 z z" style="fill:#ffffff;stroke:#000000;stroke-width:0.3" /><path id="unmodregion-22" d="m -36.4267 -54.679 29.7736 21.9199 7.49692 -3.72997 4.42055 -39.0582 -14.6576 -4.10394 -26.2407 16.5411 z z" style="fill:#ffffff;stroke:#000000;stroke-width:0.3" /><path id="unmodregion-23" d="m -14.1226 -14.2804 9.35218 16.139 35.1953 -0.452211 5.12272 -6.36179 -19.1129 -28.376 -15.591 -3.15765 -7.49692 3.72997 z z" style="fill:#ffffff;stroke:#000000;stroke-width:0.3" /><path id="unmodregion-24" d="m -24.2824 29.3518 -27.8482 18.2495 -11.445 -4.54791 -4.66462 -7.75651 4.28414 -16.5584 21.9847 -8.8543 z z" style="fill:#ffffff;stroke:#000000;stroke-width:0.3" /><path id="unmodregion-25" d="m -14.1226 -14.2804 9.35218 16.139 -8.23791 28.6589 -11.2741 -1.16578 -17.689 -19.4676 3.39798 -20.0814 z z" style="fill:#ffffff;stroke:#000000;stroke-width:0.3" /><path id="unmodregion-26" d="m 29.6733 24.2097 31.7358 17.7676 14.5214 -16.9773 -17.6162 -35.5787 -22.7666 5.6233 -5.12272 6.36179 z z" style="fill:#ffffff;stroke:#000000;stroke-width:0.3" /><path id="unmodregion-27" d="m -7.6733 36.8103 -5.33501 -6.29278 -11.2741 -1.16578 -27.8482 18.2495 9.55193 19.7617 23.2943 -2.85112 z z" style="fill:#ffffff;stroke:#000000;stroke-width:0.3" /><path id="unmodregion-28" d="m 10.5019 41.7266 19.1714 -17.5169 0.751625 -22.8033 -35.1953 0.452211 -8.23791 28.6589 5.33501 6.29278 z z" style="fill:#ffffff;stroke:#000000;stroke-width:0.3" /></g><g id="seeds" inkscape:label="Seeds" inkscape:groupmode="layer" style="display:none"><circle id="seed-0" cx="0.0" cy="100.0" r="1.0" style="fill:#000000;stroke:none;stroke-width:0" /><circle id="seed-1" cx="86.60254037844386" cy="50.0" r="1.0" style="fill:#000000;stroke:none;stroke-width:0" /><circle id="seed-2" cx="86.60254037844386" cy="-50.0" r="1.0" style="fill:#000000;stroke:none;stroke-width:0" /><circle id="seed-3" cx="0.0" cy="-100.0" r="1.0" style="fill:#000000;stroke:none;stroke-width:0" /><circle id="seed-4" cx="-86.60254037844386" cy="-50.0" r="1.0" style="fill:#000000;stroke:none;stroke-width:0" /><circle id="seed-5" cx="-86.60254037844386" cy="50.0" r="1.0" style="fill:#000000;stroke:none;stroke-width:0" /><circle id="seed-6" cx="43.30127018922193" cy="75.0" r="1.0" style="fill:#000000;stroke:none;stroke-width:0" /><circle id="seed-7" cx="86.60254037844386" cy="0.0" r="1.0" style="fill:#000000;stroke:none;stroke-width:0" /><circle id="seed-8" cx="43.30127018922193" cy="-75.0" r="1.0" style="fill:#000000;stroke:none;stroke-width:0" /><circle id="seed-9" cx="-30.578838324886476" cy="-86.96410161513775" r="1.0" style="fill:#000000;stroke:none;stroke-width:0" /><circle id="seed-10" cx="-59.987803668695136" cy="-61.901923788646684" r="1.0" style="fill:#000000;stroke:none;stroke-width:0" /><circle id="seed-11" cx="-90.60254037844386" cy="-16.66666666666667" r="1.0" style="fill:#000000;stroke:none;stroke-width:0" /><circle id="seed-12" cx="-82.60254037844386" cy="16.666666666666657" r="1.0" style="fill:#000000;stroke:none;stroke-width:0" /><circle id="seed-13" cx="-62.987803668695136" cy="67.09807621135332" r="1.0" style="fill:#000000;stroke:none;stroke-width:0" /><circle id="seed-14" cx="-26.578838324886483" cy="80.03589838486225" r="1.0" style="fill:#000000;stroke:none;stroke-width:0" /><circle id="seed-15" cx="-62.507993042550964" cy="-28.68956294488298" r="1.0" style="fill:#000000;stroke:none;stroke-width:0" /><circle id="seed-16" cx="-56.488932842185754" cy="1.527289192754892" r="1.0" style="fill:#000000;stroke:none;stroke-width:0" /><circle id="seed-17" cx="37.12263699712097" cy="-32.09716686917246" r="1.0" style="fill:#000000;stroke:none;stroke-width:0" /><circle id="seed-18" cx="-31.734109804655457" cy="-30.48651374582276" r="1.0" style="fill:#000000;stroke:none;stroke-width:0" /><circle id="seed-19" cx="-2.207882789049123" cy="62.89939180332902" r="1.0" style="fill:#000000;stroke:none;stroke-width:0" /><circle id="seed-20" cx="35.067120259278504" cy="44.25145829416781" r="1.0" style="fill:#000000;stroke:none;stroke-width:0" /><circle id="seed-21" cx="17.966264301147504" cy="-53.99937791763982" r="1.0" style="fill:#000000;stroke:none;stroke-width:0" /><circle id="seed-22" cx="-11.932159417744861" cy="-57.383233121432504" r="1.0" style="fill:#000000;stroke:none;stroke-width:0" /><circle id="seed-23" cx="9.803606620143414" cy="-13.696152212917838" r="1.0" style="fill:#000000;stroke:none;stroke-width:0" /><circle id="seed-24" cx="-46.644644264359975" cy="25.970043687351474" r="1.0" style="fill:#000000;stroke:none;stroke-width:0" /><circle id="seed-25" cx="-25.512704925723767" cy="6.768779648432476" r="1.0" style="fill:#000000;stroke:none;stroke-width:0" /><circle id="seed-26" cx="49.57846101467398" cy="18.331845922446053" r="1.0" style="fill:#000000;stroke:none;stroke-width:0" /><circle id="seed-27" cx="-30.107576525971393" cy="51.205226173760316" r="1.0" style="fill:#000000;stroke:none;stroke-width:0" /><circle id="seed-28" cx="10.19844425862274" cy="17.033832656085423" r="1.0" style="fill:#000000;stroke:none;stroke-width:0" /></g><g id="centroids" inkscape:label="Centroids" inkscape:groupmode="layer" style="display:none"><circle id="centroid-0" cx="3.0145533290191904" cy="100.33903139668742" r="1.0" style="fill:#008080;stroke:none;stroke-width:0" /><circle id="centroid-1" cx="84.72554858541902" cy="48.970185871792644" r="1.0" style="fill:#008080;stroke:none;stroke-width:0" /><circle id="centroid-2" cx="83.96323059591988" cy="-48.29526802108353" r="1.0" style="fill:#008080;stroke:none;stroke-width:0" /><circle id="centroid-3" cx="3.169247334549796" cy="-98.88468386165312" r="1.0" style="fill:#008080;stroke:none;stroke-width:0" /><circle id="centroid-4" cx="-88.75368343303295" cy="-50.826710649920834" r="1.0" style="fill:#008080;stroke:none;stroke-width:0" /><circle id="centroid-5" cx="-87.33874784473082" cy="49.42016430937322" r="1.0" style="fill:#008080;stroke:none;stroke-width:0" /><circle id="centroid-6" cx="43.39904340315624" cy="76.37416868661079" r="1.0" style="fill:#008080;stroke:none;stroke-width:0" /><circle id="centroid-7" cx="84.64134454861208" cy="-1.47249451267527" r="1.0" style="fill:#008080;stroke:none;stroke-width:0" /><circle id="centroid-8" cx="44.663091339153674" cy="-75.35106354294346" r="1.0" style="fill:#008080;stroke:none;stroke-width:0" /><circle id="centroid-9" cx="-31.288597773524653" cy="-85.90794517170492" r="1.0" style="fill:#008080;stroke:none;stroke-width:0" /><circle id="centroid-10" cx="-57.58843144372983" cy="-63.55265214017549" r="1.0" style="fill:#008080;stroke:none;stroke-width:0" /><circle id="centroid-11" cx="-91.29099956878457" cy="-16.05447028583374" r="1.0" style="fill:#008080;stroke:none;stroke-width:0" /><circle id="centroid-12" cx="-84.41501753164141" cy="17.452457057048527" r="1.0" style="fill:#008080;stroke:none;stroke-width:0" /><circle id="centroid-13" cx="-61.35023073242004" cy="67.1113386956691" r="1.0" style="fill:#008080;stroke:none;stroke-width:0" /><circle id="centroid-14" cx="-28.773436696202197" cy="82.71206073050178" r="1.0" style="fill:#008080;stroke:none;stroke-width:0" /><circle id="centroid-15" cx="-62.094929780670185" cy="-29.05277632821215" r="1.0" style="fill:#008080;stroke:none;stroke-width:0" /><circle id="centroid-16" cx="-56.59207282463219" cy="-0.20947446991264435" r="1.0" style="fill:#008080;stroke:none;stroke-width:0" /><circle id="centroid-17" cx="43.731964330888005" cy="-29.694167881535176" r="1.0" style="fill:#008080;stroke:none;stroke-width:0" /><circle id="centroid-18" cx="-30.104935404441697" cy="-30.27638036561578" r="1.0" style="fill:#008080;stroke:none;stroke-width:0" /><circle id="centroid-19" cx="1.5552524483469563" cy="61.335791200454366" r="1.0" style="fill:#008080;stroke:none;stroke-width:0" /><circle id="centroid-20" cx="35.15008836347654" cy="45.25706068658643" r="1.0" style="fill:#008080;stroke:none;stroke-width:0" /><circle id="centroid-21" cx="16.955060386192315" cy="-55.59395687370722" r="1.0" style="fill:#008080;stroke:none;stroke-width:0" /><circle id="centroid-22" cx="-12.617230669435404" cy="-57.60097157734014" r="1.0" style="fill:#008080;stroke:none;stroke-width:0" /><circle id="centroid-23" cx="8.872935060264906" cy="-14.954595705816674" r="1.0" style="fill:#008080;stroke:none;stroke-width:0" /><circle id="centroid-24" cx="-48.639116593260894" cy="28.866116224917963" r="1.0" style="fill:#008080;stroke:none;stroke-width:0" /><circle id="centroid-25" cx="-22.935110975501974" cy="6.727081079097257" r="1.0" style="fill:#008080;stroke:none;stroke-width:0" /><circle id="centroid-26" cx="51.416772236155005" cy="15.080157311197466" r="1.0" style="fill:#008080;stroke:none;stroke-width:0" /><circle id="centroid-27" cx="-29.030727664107147" cy="48.65076950509957" r="1.0" style="fill:#008080;stroke:none;stroke-width:0" /><circle id="centroid-28" cx="9.230719927866657" cy="19.637789713167713" r="1.0" style="fill:#008080;stroke:none;stroke-width:0" /></g><g id="seed_exclusion" inkscape:label="Seed Exclusion" inkscape:groupmode="layer" style="display:none"><circle id="seed-ex-0" cx="0.0" cy="100.0" r="30.0" style="fill:#800000;stroke:none;stroke-width:0;fill-opacity:0.15" /><circle id="seed-ex-1" cx="86.60254037844386" cy="50.0" r="30.0" style="fill:#800000;stroke:none;stroke-width:0;fill-opacity:0.15" /><circle id="seed-ex-2" cx="86.60254037844386" cy="-50.0" r="30.0" style="fill:#800000;stroke:none;stroke-width:0;fill-opacity:0.15" /><circle id="seed-ex-3" cx="0.0" cy="-100.0" r="30.0" style="fill:#800000;stroke:none;stroke-width:0;fill-opacity:0.15" /><circle id="seed-ex-4" cx="-86.60254037844386" cy="-50.0" r="24.0" style="fill:#800000;stroke:none;stroke-width:0;fill-opacity:0.15" /><circle id="seed-ex-5" cx="-86.60254037844386" cy="50.0" r="24.0" style="fill:#800000;stroke:none;stroke-width:0;fill-opacity:0.15" /><circle id="seed-ex-6" cx="43.30127018922193" cy="75.0" r="30.0" style="fill:#800000;stroke:none;stroke-width:0;fill-opacity:0.15" /><circle id="seed-ex-7" cx="86.60254037844386" cy="0.0" r="30.0" style="fill:#800000;stroke:none;stroke-width:0;fill-opacity:0.15" /><circle id="seed-ex-8" cx="43.30127018922193" cy="-75.0" r="30.0" style="fill:#800000;stroke:none;stroke-width:0;fill-opacity:0.15" /><circle id="seed-ex-9" cx="-30.578838324886476" cy="-86.96410161513775" r="27.973811978464827" style="fill:#800000;stroke:none;stroke-width:0;fill-opacity:0.15" /><circle id="seed-ex-10" cx="-59.987803668695136" cy="-61.901923788646684" r="25.774641016151378" style="fill:#800000;stroke:none;stroke-width:0;fill-opacity:0.15" /><circle id="seed-ex-11" cx="-90.60254037844386" cy="-16.66666666666667" r="23.815247913859324" style="fill:#800000;stroke:none;stroke-width:0;fill-opacity:0.15" /><circle id="seed-ex-12" cx="-82.60254037844386" cy="16.666666666666657" r="24.18475208614068" style="fill:#800000;stroke:none;stroke-width:0;fill-opacity:0.15" /><circle id="seed-ex-13" cx="-62.987803668695136" cy="67.09807621135332" r="25.70535898384862" style="fill:#800000;stroke:none;stroke-width:0;fill-opacity:0.15" /><circle id="seed-ex-14" cx="-26.578838324886483" cy="80.03589838486225" r="28.06618802153517" style="fill:#800000;stroke:none;stroke-width:0;fill-opacity:0.15" /><circle id="seed-ex-15" cx="-62.507993042550964" cy="-28.68956294488298" r="25.112879471230396" style="fill:#800000;stroke:none;stroke-width:0;fill-opacity:0.15" /><circle id="seed-ex-16" cx="-56.488932842185754" cy="1.527289192754892" r="25.390887953386347" style="fill:#800000;stroke:none;stroke-width:0;fill-opacity:0.15" /><circle id="seed-ex-17" cx="37.12263699712097" cy="-32.09716686917246" r="29.070598626649776" style="fill:#800000;stroke:none;stroke-width:0;fill-opacity:0.15" /><circle id="seed-ex-18" cx="-31.734109804655457" cy="-30.48651374582276" r="26.77756059109536" style="fill:#800000;stroke:none;stroke-width:0;fill-opacity:0.15" /><circle id="seed-ex-19" cx="-2.207882789049123" cy="62.89939180332902" r="29.130515663806914" style="fill:#800000;stroke:none;stroke-width:0;fill-opacity:0.15" /><circle id="seed-ex-20" cx="35.067120259278504" cy="44.25145829416781" r="29.289949392311343" style="fill:#800000;stroke:none;stroke-width:0;fill-opacity:0.15" /><circle id="seed-ex-21" cx="17.966264301147504" cy="-53.99937791763982" r="29.287444108964788" style="fill:#800000;stroke:none;stroke-width:0;fill-opacity:0.15" /><circle id="seed-ex-22" cx="-11.932159417744861" cy="-57.383233121432504" r="28.458761117243796" style="fill:#800000;stroke:none;stroke-width:0;fill-opacity:0.15" /><circle id="seed-ex-23" cx="9.803606620143414" cy="-13.696152212917838" r="28.387125342681735" style="fill:#800000;stroke:none;stroke-width:0;fill-opacity:0.15" /><circle id="seed-ex-24" cx="-46.644644264359975" cy="25.970043687351474" r="25.845576166217395" style="fill:#800000;stroke:none;stroke-width:0;fill-opacity:0.15" /><circle id="seed-ex-25" cx="-25.512704925723767" cy="6.768779648432476" r="26.82161863547023" style="fill:#800000;stroke:none;stroke-width:0;fill-opacity:0.15" /><circle id="seed-ex-26" cx="49.57846101467398" cy="18.331845922446053" r="29.144965512513174" style="fill:#800000;stroke:none;stroke-width:0;fill-opacity:0.15" /><circle id="seed-ex-27" cx="-30.107576525971393" cy="51.205226173760316" r="27.28584278228352" style="fill:#800000;stroke:none;stroke-width:0;fill-opacity:0.15" /><circle id="seed-ex-28" cx="10.19844425862274" cy="17.033832656085423" r="28.45843814388233" style="fill:#800000;stroke:none;stroke-width:0;fill-opacity:0.15" /></g><g id="margin_exclusion" inkscape:label="Margin Exclusion" inkscape:groupmode="layer" style="display:none"><circle id="circle1318" cx="21.650635094610966" cy="87.5" r="27.500000000000004" style="fill:#000080;stroke:none;stroke-width:0;fill-opacity:0.15" /><circle id="circle1319" cx="64.9519052838329" cy="62.5" r="27.500000000000004" style="fill:#000080;stroke:none;stroke-width:0;fill-opacity:0.15" /><circle id="circle1320" cx="86.60254037844386" cy="25.0" r="27.500000000000004" style="fill:#000080;stroke:none;stroke-width:0;fill-opacity:0.15" /><circle id="circle1321" cx="86.60254037844386" cy="-25.0" r="27.500000000000004" style="fill:#000080;stroke:none;stroke-width:0;fill-opacity:0.15" /><circle id="circle1322" cx="64.9519052838329" cy="-62.5" r="27.500000000000004" style="fill:#000080;stroke:none;stroke-width:0;fill-opacity:0.15" /><circle id="circle1323" cx="21.650635094610962" cy="-87.5" r="27.500000000000004" style="fill:#000080;stroke:none;stroke-width:0;fill-opacity:0.15" /><circle id="circle1324" cx="-14.499364714875831" cy="-91.62878787878788" r="18.282847152454128" style="fill:#000080;stroke:none;stroke-width:0;fill-opacity:0.15" /><circle id="circle1325" cx="-44.95355549907382" cy="-74.04605263157895" r="21.25164699499782" style="fill:#000080;stroke:none;stroke-width:0;fill-opacity:0.15" /><circle id="circle1326" cx="-73.91078877125813" cy="-57.32758620689655" r="16.03511771082458" style="fill:#000080;stroke:none;stroke-width:0;fill-opacity:0.15" /><circle id="circle1327" cx="-86.60254037844386" cy="-33.093333333333334" r="18.464861524287453" style="fill:#000080;stroke:none;stroke-width:0;fill-opacity:0.15" /><circle id="circle1328" cx="-86.60254037844386" cy="-7.105427357601002e-15" r="18.853941527200913" style="fill:#000080;stroke:none;stroke-width:0;fill-opacity:0.15" /><circle id="circle1329" cx="-86.60254037844386" cy="33.09333333333332" r="18.46486152428746" style="fill:#000080;stroke:none;stroke-width:0;fill-opacity:0.15" /><circle id="circle1330" cx="-73.91078877125813" cy="57.32758620689655" r="16.03511771082458" style="fill:#000080;stroke:none;stroke-width:0;fill-opacity:0.15" /><circle id="circle1331" cx="-44.95355549907381" cy="74.04605263157896" r="21.251646994997817" style="fill:#000080;stroke:none;stroke-width:0;fill-opacity:0.15" /><circle id="circle1332" cx="-14.499364714875838" cy="91.62878787878788" r="18.282847152454128" style="fill:#000080;stroke:none;stroke-width:0;fill-opacity:0.15" /></g><g id="circles" inkscape:label="Inscribed Circles" inkscape:groupmode="layer" style="display:none"><circle id="incircle-0" cx="2.485809970060867" cy="100.71885943688093" r="19.04007211662954" style="fill:#008000;stroke:none;stroke-width:0;fill-opacity:0.15" /><circle id="incircle-ctr-0" cx="2.485809970060867" cy="100.71885943688093" r="0.5" style="fill:#000000;stroke:none;stroke-width:0" /><circle id="incircle-1" cx="84.3699543248237" cy="49.30603228113411" r="22.21238592784778" style="fill:#008000;stroke:none;stroke-width:0;fill-opacity:0.15" /><circle id="incircle-ctr-1" cx="84.3699543248237" cy="49.30603228113411" r="0.5" style="fill:#000000;stroke:none;stroke-width:0" /><circle id="incircle-2" cx="83.73587422804572" cy="-48.344929526390835" r="23.050807688949273" style="fill:#008000;stroke:none;stroke-width:0;fill-opacity:0.15" /><circle id="incircle-ctr-2" cx="83.73587422804572" cy="-48.344929526390835" r="0.5" style="fill:#000000;stroke:none;stroke-width:0" /><circle id="incircle-3" cx="2.5128042922829223" cy="-100.75568156356579" r="19.22864039812186" style="fill:#008000;stroke:none;stroke-width:0;fill-opacity:0.15" /><circle id="incircle-ctr-3" cx="2.5128042922829223" cy="-100.75568156356579" r="0.5" style="fill:#000000;stroke:none;stroke-width:0" /><circle id="incircle-4" cx="-89.03962308221223" cy="-50.23137533892062" r="16.70768380994147" style="fill:#008000;stroke:none;stroke-width:0;fill-opacity:0.15" /><circle id="incircle-ctr-4" cx="-89.03962308221223" cy="-50.23137533892062" r="0.5" style="fill:#000000;stroke:none;stroke-width:0" /><circle id="incircle-5" cx="-88.63019285911611" cy="49.581243129511925" r="16.465319042674516" style="fill:#008000;stroke:none;stroke-width:0;fill-opacity:0.15" /><circle id="incircle-ctr-5" cx="-88.63019285911611" cy="49.581243129511925" r="0.5" style="fill:#000000;stroke:none;stroke-width:0" /><circle id="incircle-6" cx="44.726737910658905" cy="77.46898251807828" r="18.518718398113037" style="fill:#008000;stroke:none;stroke-width:0;fill-opacity:0.15" /><circle id="incircle-ctr-6" cx="44.726737910658905" cy="77.46898251807828" r="0.5" style="fill:#000000;stroke:none;stroke-width:0" /><circle id="incircle-7" cx="86.68050268086" cy="7.105427357601002e-15" r="20.726821290221377" style="fill:#008000;stroke:none;stroke-width:0;fill-opacity:0.15" /><circle id="incircle-ctr-7" cx="86.68050268086" cy="7.105427357601002e-15" r="0.5" style="fill:#000000;stroke:none;stroke-width:0" /><circle id="incircle-8" cx="44.556776725440365" cy="-77.17460110996515" r="18.80064872712847" style="fill:#008000;stroke:none;stroke-width:0;fill-opacity:0.15" /><circle id="incircle-ctr-8" cx="44.556776725440365" cy="-77.17460110996515" r="0.5" style="fill:#000000;stroke:none;stroke-width:0" /><circle id="incircle-9" cx="-31.12781452105568" cy="-86.4586082004509" r="17.310009916633923" style="fill:#008000;stroke:none;stroke-width:0;fill-opacity:0.15" /><circle id="incircle-ctr-9" cx="-31.12781452105568" cy="-86.4586082004509" r="0.5" style="fill:#000000;stroke:none;stroke-width:0" /><circle id="incircle-10" cx="-57.513949379100865" cy="-62.260782767980785" r="16.98220468038609" style="fill:#008000;stroke:none;stroke-width:0;fill-opacity:0.15" /><circle id="incircle-ctr-10" cx="-57.513949379100865" cy="-62.260782767980785" r="0.5" style="fill:#000000;stroke:none;stroke-width:0" /><circle id="incircle-11" cx="-91.98451745484924" cy="-16.976616385782172" r="16.374346255495087" style="fill:#008000;stroke:none;stroke-width:0;fill-opacity:0.15" /><circle id="incircle-ctr-11" cx="-91.98451745484924" cy="-16.976616385782172" r="0.5" style="fill:#000000;stroke:none;stroke-width:0" /><circle id="incircle-12" cx="-84.48899448312977" cy="16.709853337282873" r="16.51859671387668" style="fill:#008000;stroke:none;stroke-width:0;fill-opacity:0.15" /><circle id="incircle-ctr-12" cx="-84.48899448312977" cy="16.709853337282873" r="0.5" style="fill:#000000;stroke:none;stroke-width:0" /><circle id="incircle-13" cx="-61.25501415908279" cy="68.75068402077972" r="16.95008949577592" style="fill:#008000;stroke:none;stroke-width:0;fill-opacity:0.15" /><circle id="incircle-ctr-13" cx="-61.25501415908279" cy="68.75068402077972" r="0.5" style="fill:#000000;stroke:none;stroke-width:0" /><circle id="incircle-14" cx="-29.334396052861848" cy="82.99943165544957" r="17.044193478052872" style="fill:#008000;stroke:none;stroke-width:0;fill-opacity:0.15" /><circle id="incircle-ctr-14" cx="-29.334396052861848" cy="82.99943165544957" r="0.5" style="fill:#000000;stroke:none;stroke-width:0" /><circle id="incircle-15" cx="-62.65461850769884" cy="-29.402606158828377" r="15.425242720165771" style="fill:#008000;stroke:none;stroke-width:0;fill-opacity:0.15" /><circle id="incircle-ctr-15" cx="-62.65461850769884" cy="-29.402606158828377" r="0.5" style="fill:#000000;stroke:none;stroke-width:0" /><circle id="incircle-16" cx="-57.739105381742505" cy="0.6934386607996528" r="14.343238211662957" style="fill:#008000;stroke:none;stroke-width:0;fill-opacity:0.15" /><circle id="incircle-ctr-16" cx="-57.739105381742505" cy="0.6934386607996528" r="0.5" style="fill:#000000;stroke:none;stroke-width:0" /><circle id="incircle-17" cx="43.80027977102935" cy="-29.899735249810185" r="20.599075041439576" style="fill:#008000;stroke:none;stroke-width:0;fill-opacity:0.15" /><circle id="incircle-ctr-17" cx="43.80027977102935" cy="-29.899735249810185" r="0.5" style="fill:#000000;stroke:none;stroke-width:0" /><circle id="incircle-18" cx="-30.110059173902627" cy="-28.920696573008577" r="16.943164365810894" style="fill:#008000;stroke:none;stroke-width:0;fill-opacity:0.15" /><circle id="incircle-ctr-18" cx="-30.110059173902627" cy="-28.920696573008577" r="0.5" style="fill:#000000;stroke:none;stroke-width:0" /><circle id="incircle-19" cx="1.8168216403171464" cy="63.5869726340991" r="17.547924470673568" style="fill:#008000;stroke:none;stroke-width:0;fill-opacity:0.15" /><circle id="incircle-ctr-19" cx="1.8168216403171464" cy="63.5869726340991" r="0.5" style="fill:#000000;stroke:none;stroke-width:0" /><circle id="incircle-20" cx="32.75905296128926" cy="44.27172459272361" r="15.997851482996184" style="fill:#008000;stroke:none;stroke-width:0;fill-opacity:0.15" /><circle id="incircle-ctr-20" cx="32.75905296128926" cy="44.27172459272361" r="0.5" style="fill:#000000;stroke:none;stroke-width:0" /><circle id="incircle-21" cx="18.410728237911705" cy="-55.45741352335181" r="15.180965203484021" style="fill:#008000;stroke:none;stroke-width:0;fill-opacity:0.15" /><circle id="incircle-ctr-21" cx="18.410728237911705" cy="-55.45741352335181" r="0.5" style="fill:#000000;stroke:none;stroke-width:0" /><circle id="incircle-22" cx="-13.238919781512767" cy="-57.85913495302751" r="16.30842598782985" style="fill:#008000;stroke:none;stroke-width:0;fill-opacity:0.15" /><circle id="incircle-ctr-22" cx="-13.238919781512767" cy="-57.85913495302751" r="0.5" style="fill:#000000;stroke:none;stroke-width:0" /><circle id="incircle-23" cx="6.4320309576378705" cy="-15.754497659096524" r="17.46775271603521" style="fill:#008000;stroke:none;stroke-width:0;fill-opacity:0.15" /><circle id="incircle-ctr-23" cx="6.4320309576378705" cy="-15.754497659096524" r="0.5" style="fill:#000000;stroke:none;stroke-width:0" /><circle id="incircle-24" cx="-50.867535689382464" cy="29.619754249766196" r="14.347476001978757" style="fill:#008000;stroke:none;stroke-width:0;fill-opacity:0.15" /><circle id="incircle-ctr-24" cx="-50.867535689382464" cy="29.619754249766196" r="0.5" style="fill:#000000;stroke:none;stroke-width:0" /><circle id="incircle-25" cx="-23.597271566833104" cy="4.996150626946026" r="16.885968153730772" style="fill:#008000;stroke:none;stroke-width:0;fill-opacity:0.15" /><circle id="incircle-ctr-25" cx="-23.597271566833104" cy="4.996150626946026" r="0.5" style="fill:#000000;stroke:none;stroke-width:0" /><circle id="incircle-26" cx="49.22209506981017" cy="14.224004291056552" r="18.262896832488682" style="fill:#008000;stroke:none;stroke-width:0;fill-opacity:0.15" /><circle id="incircle-ctr-26" cx="49.22209506981017" cy="14.224004291056552" r="0.5" style="fill:#000000;stroke:none;stroke-width:0" /><circle id="incircle-27" cx="-28.861290014831088" cy="50.6948272458903" r="14.173594310266946" style="fill:#008000;stroke:none;stroke-width:0;fill-opacity:0.15" /><circle id="incircle-ctr-27" cx="-28.861290014831088" cy="50.6948272458903" r="0.5" style="fill:#000000;stroke:none;stroke-width:0" /><circle id="incircle-28" cx="8.784017335655516" cy="19.078245614978986" r="17.392332965804663" style="fill:#008000;stroke:none;stroke-width:0;fill-opacity:0.15" /><circle id="incircle-ctr-28" cx="8.784017335655516" cy="19.078245614978986" r="0.5" style="fill:#000000;stroke:none;stroke-width:0" /></g><g id="tile-id" inkscape:label="Tile Id" inkscape:groupmode="layer" transform="scale(1,-1)"><g id="tile-id-group"><ns0:text xml:space="preserve" style="font-style:normal;font-weight:normal;font-size:4.23333px;line-height:1.25;font-family:sans-serif;text-align:center;text-anchor:middle;fill:#dddddd;fill-opacity:1;stroke:#565656;stroke-width:0.1;stroke-dasharray:none;stroke-opacity:1" x="-1.7974526e-07" y="0" id="tile-id" transform="translate(0 -92)"><ns0:tspan ns1:role="line" id="tspan439" style="font-style:normal;font-variant:normal;font-weight:bold;font-stretch:normal;font-size:4.23333px;font-family:'Arial Black';-inkscape-font-specification:'Arial Black,  Bold';text-align:center;text-anchor:middle;fill:#000000;fill-opacity:1;stroke:#fffffe;stroke-width:0.1;stroke-dasharray:none;stroke-opacity:1" x="-1.4621764e-07" y="0">142</ns0:tspan></ns0:text>
  </g></g><g id="annotations" inkscape:label="Annotations" inkscape:groupmode="layer" transform="scale(1,-1)"><text id="text1333" x="-92" y="84.5" style="font-style:normal;font-weight:normal;font-size:4px;font-family:sans-serif;fill:#000000;fill-opacity:1;stroke:none"><tspan x="-92" y="84.5">id: 142</tspan></text><text id="text1334" x="-92" y="90.0" style="font-style:normal;font-weight:normal;font-size:4px;font-family:sans-serif;fill:#000000;fill-opacity:1;stroke:none"><tspan x="-92" y="90.0">size: 100</tspan></text><text id="text1335" x="-92" y="95.5" style="font-style:normal;font-weight:normal;font-size:4px;font-family:sans-serif;fill:#000000;fill-opacity:1;stroke:none"><tspan x="-92" y="95.5">rng seed 3103</tspan></text><text id="text1336" x="-92" y="101.0" style="font-style:normal;font-weight:normal;font-size:4px;font-family:sans-serif;fill:#000000;fill-opacity:1;stroke:none"><tspan x="-92" y="101.0">pattern llllmm</tspan></text><text id="text1337" x="-92" y="106.5" style="font-style:normal;font-weight:normal;font-size:4px;font-family:sans-serif;fill:#000000;fill-opacity:1;stroke:none"><tspan x="-92" y="106.5">seed attempts: 20</tspan></text><text id="text1338" x="-92" y="112.0" style="font-style:normal;font-weight:normal;font-size:4px;font-family:sans-serif;fill:#000000;fill-opacity:1;stroke:none"><tspan x="-92" y="112.0">seed distance: l 0.3; m 0.24; h 0.2</tspan></text><text id="text1339" x="-92" y="117.5" style="font-style:normal;font-weight:normal;font-size:4px;font-family:sans-serif;fill:#000000;fill-opacity:1;stroke:none"><tspan x="-92" y="117.5">center: (AVG) 0.28</tspan></text><text id="text1340" x="-92" y="123.0" style="font-style:normal;font-weight:normal;font-size:4px;font-family:sans-serif;fill:#000000;fill-opacity:1;stroke:none"><tspan x="-92" y="123.0">min ridge length: 0.08; at edge: 0.04</tspan></text><text id="text1341" x="-92" y="128.5" style="font-style:normal;font-weight:normal;font-size:4px;font-family:sans-serif;fill:#000000;fill-opacity:1;stroke:none"><tspan x="-92" y="128.5">edge margin exclusion zone scale: 1.1</tspan></text><text id="text1342" x="-92" y="134.0" style="font-style:normal;font-weight:normal;font-size:4px;font-family:sans-serif;fill:#000000;fill-opacity:1;stroke:none"><tspan x="-92" y="134.0">iterations: 4</tspan></text><text id="text1343" x="-92" y="139.5" style="font-style:normal;font-weight:normal;font-size:4px;font-family:sans-serif;fill:#000000;fill-opacity:1;stroke:none"><tspan x="-92" y="139.5">adjustments: side 0.011, neighbor -0.009</tspan></text><text id="text1344" x="-92" y="145.0" style="font-style:normal;font-weight:normal;font-size:4px;font-family:sans-serif;fill:#000000;fill-opacity:1;stroke:none"><tspan x="-92" y="145.0">closeness: 0.9, adjust -0.013</tspan></text><circle id="mana" cx="50" cy="110" r="7.5" style="fill:#000000;stroke:none;stroke-width:0" /><rect id="rect1345" x="75" y="90" width="15" height="6" style="fill:#be850a;stroke:#000000;stroke-width:0.3" /><text id="text1346" x="70" y="94.5" style="font-style:normal;font-weight:normal;font-size:4px;font-family:sans-serif;fill:#000000;fill-opacity:1;stroke:none"><tspan x="70" y="94.5">V</tspan></text><rect id="rect1347" x="75" y="100" width="15" height="6" style="fill:#e7a311;stroke:#000000;stroke-width:0.3" /><text id="text1348" x="70" y="104.5" style="font-style:normal;font-weight:normal;font-size:4px;font-family:sans-serif;fill:#000000;fill-opacity:1;stroke:none"><tspan x="70" y="104.5">H</tspan></text><rect id="rect1349" x="75" y="110" width="15" height="6" style="fill:#f0ce76;stroke:#000000;stroke-width:0.3" /><text id="text1350" x="70" y="114.5" style="font-style:normal;font-weight:normal;font-size:4px;font-family:sans-serif;fill:#000000;fill-opacity:1;stroke:none"><tspan x="70" y="114.5">M</tspan></text><rect id="rect1351" x="75" y="120" width="15" height="6" style="fill:#f0eaac;stroke:#000000;stroke-width:0.3" /><text id="text1352" x="70" y="124.5" style="font-style:normal;font-weight:normal;font-size:4px;font-family:sans-serif;fill:#000000;fill-opacity:1;stroke:none"><tspan x="70" y="124.5">L</tspan></text><rect id="rect1353" x="75" y="130" width="15" height="6" style="fill:#a2c6ff;stroke:#000000;stroke-width:0.3" /><text id="text1354" x="70" y="134.5" style="font-style:normal;font-weight:normal;font-size:4px;font-family:sans-serif;fill:#000000;fill-opacity:1;stroke:none"><tspan x="70" y="134.5">R</tspan></text></g><g id="edge-annotations" inkscape:label="Edge Annotations" inkscape:groupmode="layer" transform="scale(1,-1)" style="display:none"><text id="text1355" x="-1.5" y="-102" style="font-style:normal;font-weight:normal;font-size:4px;font-family:sans-serif;fill:#000000;fill-opacity:1;stroke:none"><tspan x="-1.5" y="-102">L</tspan></text><text id="text1356" x="-1.5" y="-102" style="font-style:normal;font-weight:normal;font-size:4px;font-family:sans-serif;fill:#000000;fill-opacity:1;stroke:none" transform="rotate(60)"><tspan x="-1.5" y="-102">L</tspan></text><text id="text1357" x="-1.5" y="-102" style="font-style:normal;font-weight:normal;font-size:4px;font-family:sans-serif;fill:#000000;fill-opacity:1;stroke:none" transform="rotate(120)"><tspan x="-1.5" y="-102">L</tspan></text><text id="text1358" x="-1.5" y="-102" style="font-style:normal;font-weight:normal;font-size:4px;font-family:sans-serif;fill:#000000;fill-opacity:1;stroke:none" transform="rotate(180)"><tspan x="-1.5" y="-102">L</tspan></text><text id="text1359" x="-1.5" y="-102" style="font-style:normal;font-weight:normal;font-size:4px;font-family:sans-serif;fill:#000000;fill-opacity:1;stroke:none" transform="rotate(240)"><tspan x="-1.5" y="-102">M</tspan></text><text id="text1360" x="-1.5" y="-102" style="font-style:normal;font-weight:normal;font-size:4px;font-family:sans-serif;fill:#000000;fill-opacity:1;stroke:none" transform="rotate(300)"><tspan x="-1.5" y="-102">M</tspan></text><g id="node1361" transform="rotate(30)"><text id="text1362" x="-1.5" y="-89.60254037844386" style="font-style:normal;font-weight:normal;font-size:4px;font-family:sans-serif;fill:#000000;fill-opacity:1;stroke:none"><tspan x="-1.5" y="-89.60254037844386">L</tspan></text></g><g id="node1363" transform="rotate(90)"><text id="text1364" x="-1.5" y="-89.60254037844386" style="font-style:normal;font-weight:normal;font-size:4px;font-family:sans-serif;fill:#000000;fill-opacity:1;stroke:none"><tspan x="-1.5" y="-89.60254037844386">L</tspan></text></g><g id="node1365" transform="rotate(150)"><text id="text1366" x="-1.5" y="-89.60254037844386" style="font-style:normal;font-weight:normal;font-size:4px;font-family:sans-serif;fill:#000000;fill-opacity:1;stroke:none"><tspan x="-1.5" y="-89.60254037844386">L</tspan></text></g><g id="node1367" transform="rotate(210)"><text id="text1368" x="-18.5" y="-89.60254037844386" style="font-style:normal;font-weight:normal;font-size:4px;font-family:sans-serif;fill:#000000;fill-opacity:1;stroke:none"><tspan x="-18.5" y="-89.60254037844386">L</tspan></text><text id="text1369" x="19.5" y="-89.60254037844386" style="font-style:normal;font-weight:normal;font-size:4px;font-family:sans-serif;fill:#000000;fill-opacity:1;stroke:none"><tspan x="19.5" y="-89.60254037844386">L</tspan></text></g><g id="node1370" transform="rotate(270)"><text id="text1371" x="-18.16666666666667" y="-89.60254037844386" style="font-style:normal;font-weight:normal;font-size:4px;font-family:sans-serif;fill:#000000;fill-opacity:1;stroke:none"><tspan x="-18.16666666666667" y="-89.60254037844386">L</tspan></text><text id="text1372" x="15.166666666666657" y="-89.60254037844386" style="font-style:normal;font-weight:normal;font-size:4px;font-family:sans-serif;fill:#000000;fill-opacity:1;stroke:none"><tspan x="15.166666666666657" y="-89.60254037844386">L</tspan></text></g><g id="node1373" transform="rotate(330)"><text id="text1374" x="-22.499999999999996" y="-89.60254037844386" style="font-style:normal;font-weight:normal;font-size:4px;font-family:sans-serif;fill:#000000;fill-opacity:1;stroke:none"><tspan x="-22.499999999999996" y="-89.60254037844386">L</tspan></text><text id="text1375" x="15.5" y="-89.60254037844386" style="font-style:normal;font-weight:normal;font-size:4px;font-family:sans-serif;fill:#000000;fill-opacity:1;stroke:none"><tspan x="15.5" y="-89.60254037844386">L</tspan></text></g><g id="node1376" transform="rotate(210)"><rect id="rect1377" x="-35.0" y="-94.60254037844386" width="3" height="8" style="fill:#a2c6ff;stroke:#000000;stroke-width:0.3" /><text id="text1378" x="-35.0" y="-96.60254037844386" style="font-style:normal;font-weight:normal;font-size:4px;font-family:sans-serif;fill:#000000;fill-opacity:1;stroke:none"><tspan x="-35.0" y="-96.60254037844386">R</tspan></text></g><g id="node1379" transform="rotate(270)"><rect id="rect1380" x="-1.5" y="-94.60254037844386" width="3" height="8" style="fill:#a2c6ff;stroke:#000000;stroke-width:0.3" /><text id="text1381" x="-1.5" y="-96.60254037844386" style="font-style:normal;font-weight:normal;font-size:4px;font-family:sans-serif;fill:#000000;fill-opacity:1;stroke:none"><tspan x="-1.5" y="-96.60254037844386">R</tspan></text></g><g id="node1382" transform="rotate(330)"><rect id="rect1383" x="32.0" y="-94.60254037844386" width="3" height="8" style="fill:#a2c6ff;stroke:#000000;stroke-width:0.3" /><text id="text1384" x="32.0" y="-96.60254037844386" style="font-style:normal;font-weight:normal;font-size:4px;font-family:sans-serif;fill:#000000;fill-opacity:1;stroke:none"><tspan x="32.0" y="-96.60254037844386">R</tspan></text></g></g><g id="overlay" inkscape:label="Overlay" inkscape:groupmode="layer" transform="scale(1,-1)" /><g id="region_ids" inkscape:label="Region Ids" inkscape:groupmode="layer" transform="scale(1,-1)" style="display:none"><text id="text1385" x="-1.4" y="-100.0" style="font-style:normal;font-weight:normal;font-size:4px;font-family:sans-serif;fill:#000000;fill-opacity:1;stroke:none"><tspan x="-1.4" y="-100.0">0</tspan></text><text id="text1386" x="85.20254037844386" y="-50.0" style="font-style:normal;font-weight:normal;font-size:4px;font-family:sans-serif;fill:#000000;fill-opacity:1;stroke:none"><tspan x="85.20254037844386" y="-50.0">1</tspan></text><text id="text1387" x="85.20254037844386" y="50.0" style="font-style:normal;font-weight:normal;font-size:4px;font-family:sans-serif;fill:#000000;fill-opacity:1;stroke:none"><tspan x="85.20254037844386" y="50.0">2</tspan></text><text id="text1388" x="-1.4" y="100.0" style="font-style:normal;font-weight:normal;font-size:4px;font-family:sans-serif;fill:#000000;fill-opacity:1;stroke:none"><tspan x="-1.4" y="100.0">3</tspan></text><text id="text1389" x="-88.00254037844387" y="50.0" style="font-style:normal;font-weight:normal;font-size:4px;font-family:sans-serif;fill:#000000;fill-opacity:1;stroke:none"><tspan x="-88.00254037844387" y="50.0">4</tspan></text><text id="text1390" x="-88.00254037844387" y="-50.0" style="font-style:normal;font-weight:normal;font-size:4px;font-family:sans-serif;fill:#000000;fill-opacity:1;stroke:none"><tspan x="-88.00254037844387" y="-50.0">5</tspan></text><text id="text1391" x="41.90127018922193" y="-75.0" style="font-style:normal;font-weight:normal;font-size:4px;font-family:sans-serif;fill:#000000;fill-opacity:1;stroke:none"><tspan x="41.90127018922193" y="-75.0">6</tspan></text><text id="text1392" x="85.20254037844386" y="-0.0" style="font-style:normal;font-weight:normal;font-size:4px;font-family:sans-serif;fill:#000000;fill-opacity:1;stroke:none"><tspan x="85.20254037844386" y="-0.0">7</tspan></text><text id="text1393" x="41.90127018922193" y="75.0" style="font-style:normal;font-weight:normal;font-size:4px;font-family:sans-serif;fill:#000000;fill-opacity:1;stroke:none"><tspan x="41.90127018922193" y="75.0">8</tspan></text><text id="text1394" x="-31.978838324886475" y="86.96410161513775" style="font-style:normal;font-weight:normal;font-size:4px;font-family:sans-serif;fill:#000000;fill-opacity:1;stroke:none"><tspan x="-31.978838324886475" y="86.96410161513775">9</tspan></text><text id="text1395" x="-61.387803668695135" y="61.901923788646684" style="font-style:normal;font-weight:normal;font-size:4px;font-family:sans-serif;fill:#000000;fill-opacity:1;stroke:none"><tspan x="-61.387803668695135" y="61.901923788646684">10</tspan></text><text id="text1396" x="-92.00254037844387" y="16.66666666666667" style="font-style:normal;font-weight:normal;font-size:4px;font-family:sans-serif;fill:#000000;fill-opacity:1;stroke:none"><tspan x="-92.00254037844387" y="16.66666666666667">11</tspan></text><text id="text1397" x="-84.00254037844387" y="-16.666666666666657" style="font-style:normal;font-weight:normal;font-size:4px;font-family:sans-serif;fill:#000000;fill-opacity:1;stroke:none"><tspan x="-84.00254037844387" y="-16.666666666666657">12</tspan></text><text id="text1398" x="-64.38780366869514" y="-67.09807621135332" style="font-style:normal;font-weight:normal;font-size:4px;font-family:sans-serif;fill:#000000;fill-opacity:1;stroke:none"><tspan x="-64.38780366869514" y="-67.09807621135332">13</tspan></text><text id="text1399" x="-27.978838324886482" y="-80.03589838486225" style="font-style:normal;font-weight:normal;font-size:4px;font-family:sans-serif;fill:#000000;fill-opacity:1;stroke:none"><tspan x="-27.978838324886482" y="-80.03589838486225">14</tspan></text><text id="text1400" x="-63.90799304255096" y="28.68956294488298" style="font-style:normal;font-weight:normal;font-size:4px;font-family:sans-serif;fill:#000000;fill-opacity:1;stroke:none"><tspan x="-63.90799304255096" y="28.68956294488298">15</tspan></text><text id="text1401" x="-57.88893284218575" y="-1.527289192754892" style="font-style:normal;font-weight:normal;font-size:4px;font-family:sans-serif;fill:#000000;fill-opacity:1;stroke:none"><tspan x="-57.88893284218575" y="-1.527289192754892">16</tspan></text><text id="text1402" x="35.72263699712097" y="32.09716686917246" style="font-style:normal;font-weight:normal;font-size:4px;font-family:sans-serif;fill:#000000;fill-opacity:1;stroke:none"><tspan x="35.72263699712097" y="32.09716686917246">17</tspan></text><text id="text1403" x="-33.13410980465546" y="30.48651374582276" style="font-style:normal;font-weight:normal;font-size:4px;font-family:sans-serif;fill:#000000;fill-opacity:1;stroke:none"><tspan x="-33.13410980465546" y="30.48651374582276">18</tspan></text><text id="text1404" x="-3.607882789049123" y="-62.89939180332902" style="font-style:normal;font-weight:normal;font-size:4px;font-family:sans-serif;fill:#000000;fill-opacity:1;stroke:none"><tspan x="-3.607882789049123" y="-62.89939180332902">19</tspan></text><text id="text1405" x="33.667120259278505" y="-44.25145829416781" style="font-style:normal;font-weight:normal;font-size:4px;font-family:sans-serif;fill:#000000;fill-opacity:1;stroke:none"><tspan x="33.667120259278505" y="-44.25145829416781">20</tspan></text><text id="text1406" x="16.566264301147505" y="53.99937791763982" style="font-style:normal;font-weight:normal;font-size:4px;font-family:sans-serif;fill:#000000;fill-opacity:1;stroke:none"><tspan x="16.566264301147505" y="53.99937791763982">21</tspan></text><text id="text1407" x="-13.332159417744862" y="57.383233121432504" style="font-style:normal;font-weight:normal;font-size:4px;font-family:sans-serif;fill:#000000;fill-opacity:1;stroke:none"><tspan x="-13.332159417744862" y="57.383233121432504">22</tspan></text><text id="text1408" x="8.403606620143414" y="13.696152212917838" style="font-style:normal;font-weight:normal;font-size:4px;font-family:sans-serif;fill:#000000;fill-opacity:1;stroke:none"><tspan x="8.403606620143414" y="13.696152212917838">23</tspan></text><text id="text1409" x="-48.044644264359974" y="-25.970043687351474" style="font-style:normal;font-weight:normal;font-size:4px;font-family:sans-serif;fill:#000000;fill-opacity:1;stroke:none"><tspan x="-48.044644264359974" y="-25.970043687351474">24</tspan></text><text id="text1410" x="-26.912704925723766" y="-6.768779648432476" style="font-style:normal;font-weight:normal;font-size:4px;font-family:sans-serif;fill:#000000;fill-opacity:1;stroke:none"><tspan x="-26.912704925723766" y="-6.768779648432476">25</tspan></text><text id="text1411" x="48.17846101467398" y="-18.331845922446053" style="font-style:normal;font-weight:normal;font-size:4px;font-family:sans-serif;fill:#000000;fill-opacity:1;stroke:none"><tspan x="48.17846101467398" y="-18.331845922446053">26</tspan></text><text id="text1412" x="-31.50757652597139" y="-51.205226173760316" style="font-style:normal;font-weight:normal;font-size:4px;font-family:sans-serif;fill:#000000;fill-opacity:1;stroke:none"><tspan x="-31.50757652597139" y="-51.205226173760316">27</tspan></text><text id="text1413" x="8.79844425862274" y="-17.033832656085423" style="font-style:normal;font-weight:normal;font-size:4px;font-family:sans-serif;fill:#000000;fill-opacity:1;stroke:none"><tspan x="8.79844425862274" y="-17.033832656085423">28</tspan></text></g><g id="border" inkscape:label="Border" inkscape:groupmode="layer"><path id="path1414" d="m 0 100 86.6025 -50 0 -100 -86.6025 -50 -86.6025 50 0 100 z z" style="fill:none;stroke:#000000;stroke-width:0.3" /></g><g id="puzzle" inkscape:label="Puzzle Border" inkscape:groupmode="layer" style="display:none"><path id="path1415" d="m -0.779423 99.55 c 0.519615 0.3 1.03923 0.3 1.55885 0 l 8.40045 -4.85 c 0.519615 -0.3 0.581383 -0.675345 0.185304 -1.12603 l -2.17779 -2.47806 c -0.396079 -0.45069 -0.334311 -0.826035 0.185304 -1.12603 l 7.96743 -4.6 c 0.519615 -0.3 0.875557 -0.16582 1.06783 0.402539 l 1.05717 3.12505 c 0.192269 0.56836 0.548212 0.702539 1.06783 0.402539 l 49.5367 -28.6 c 0.519615 -0.3 0.875557 -0.16582 1.06783 0.402539 l 1.05717 3.12505 c 0.192269 0.56836 0.548212 0.702539 1.06783 0.402539 l 7.96743 -4.6 c 0.519615 -0.3 0.581383 -0.675345 0.185304 -1.12603 l -2.17779 -2.47806 c -0.396079 -0.45069 -0.334311 -0.826035 0.185304 -1.12603 l 8.40045 -4.85 c 0.519615 -0.3 0.779423 -0.75 0.779423 -1.35 l 0 -9.7 c 0 -0.6 -0.294174 -0.841165 -0.882523 -0.723495 l -3.23495 0.646991 c -0.588348 0.11767 -0.882523 -0.123495 -0.882523 -0.723495 l 0 -9.2 c 0 -0.6 0.294174 -0.841165 0.882523 -0.723495 l 3.23495 0.646991 c 0.588348 0.11767 0.882523 -0.123495 0.882523 -0.723495 l 0 -57.2 c 0 -0.6 0.294174 -0.841165 0.882523 -0.723495 l 3.23495 0.646991 c 0.588348 0.11767 0.882523 -0.123495 0.882523 -0.723495 l 0 -9.2 c 0 -0.6 -0.294174 -0.841165 -0.882523 -0.723495 l -3.23495 0.646991 c -0.588348 0.11767 -0.882523 -0.123495 -0.882523 -0.723495 l 0 -9.7 c 0 -0.6 -0.259808 -1.05 -0.779423 -1.35 l -8.40045 -4.85 c -0.519615 -0.3 -0.875557 -0.16582 -1.06783 0.402539 l -1.05717 3.12505 c -0.192269 0.56836 -0.548212 0.702539 -1.06783 0.402539 l -7.96743 -4.6 c -0.519615 -0.3 -0.581383 -0.675345 -0.185304 -1.12603 l 2.17779 -2.47806 c 0.396079 -0.45069 0.334311 -0.826035 -0.185304 -1.12603 l -49.5367 -28.6 c -0.519615 -0.3 -0.581383 -0.675345 -0.185304 -1.12603 l 2.17779 -2.47806 c 0.396079 -0.45069 0.334311 -0.826035 -0.185304 -1.12603 l -7.96743 -4.6 c -0.519615 -0.3 -0.875557 -0.16582 -1.06783 0.402539 l -1.05717 3.12505 c -0.192269 0.56836 -0.548212 0.702539 -1.06783 0.402539 l -8.40045 -4.85 c -0.519615 -0.3 -1.03923 -0.3 -1.55885 0 l -25.721 14.85 c -0.519615 0.3 -0.875557 0.16582 -1.06783 -0.402539 l -1.05717 -3.12505 c -0.192269 -0.56836 -0.548212 -0.702539 -1.06783 -0.402539 l -7.96743 4.6 c -0.519615 0.3 -0.581383 0.675345 -0.185304 1.12603 l 2.17779 2.47806 c 0.396079 0.45069 0.334311 0.826035 -0.185304 1.12603 l -49.9697 28.85 c -0.519615 0.3 -0.779423 0.75 -0.779423 1.35 l 0 28.0333 c 0 0.6 -0.294174 0.841165 -0.882523 0.723495 l -3.23495 -0.646991 c -0.588348 -0.11767 -0.882523 0.123495 -0.882523 0.723495 l 0 7.2 c 0 0.6 0.294174 0.841165 0.882523 0.723495 l 3.23495 -0.646991 c 0.588348 -0.11767 0.882523 0.123495 0.882523 0.723495 l 0 24.5333 c 0 0.6 0.294174 0.841165 0.882523 0.723495 l 3.23495 -0.646991 c 0.588348 -0.11767 0.882523 0.123495 0.882523 0.723495 l 0 7.2 c 0 0.6 -0.294174 0.841165 -0.882523 0.723495 l -3.23495 -0.646991 c -0.588348 -0.11767 -0.882523 0.123495 -0.882523 0.723495 l 0 28.0333 c 0 0.6 0.259808 1.05 0.779423 1.35 l 49.9697 28.85 c 0.519615 0.3 0.875557 0.16582 1.06783 -0.402539 l 1.05717 -3.12505 c 0.192269 -0.56836 0.548212 -0.702539 1.06783 -0.402539 l 7.96743 4.6 c 0.519615 0.3 0.581383 0.675345 0.185304 1.12603 l -2.17779 2.47806 c -0.396079 0.45069 -0.334311 0.826035 0.185304 1.12603 z z" style="fill:none;stroke:#000000;stroke-width:0.3" /></g><g id="regmarks" inkscape:label="Registration Marks" inkscape:groupmode="layer" style="display:none"><circle id="circle1416" cx="112.58330249197702" cy="0" r="2.0" style="fill:#000000;stroke:none;stroke-width:0" /><circle id="circle1417" cx="-112.58330249197702" cy="0" r="2.0" style="fill:#000000;stroke:none;stroke-width:0" /><circle id="circle1418" cx="0" cy="130.0" r="2.0" style="fill:#000000;stroke:none;stroke-width:0" /><circle id="circle1419" cx="0" cy="-130.0" r="2.0" style="fill:#000000;stroke:none;stroke-width:0" /><circle id="circle1420" cx="121.2435565298214" cy="0" r="2.0" style="fill:#000000;stroke:none;stroke-width:0" /><circle id="circle1421" cx="-121.2435565298214" cy="0" r="2.0" style="fill:#000000;stroke:none;stroke-width:0" /><circle id="circle1422" cx="0" cy="140.0" r="2.0" style="fill:#000000;stroke:none;stroke-width:0" /><circle id="circle1423" cx="0" cy="-140.0" r="2.0" style="fill:#000000;stroke:none;stroke-width:0" /><circle id="circle1424" cx="129.9038105676658" cy="0" r="2.0" style="fill:#000000;stroke:none;stroke-width:0" /><circle id="circle1425" cx="-129.9038105676658" cy="0" r="2.0" style="fill:#000000;stroke:none;stroke-width:0" /><circle id="circle1426" cx="0" cy="150.0" r="2.0" style="fill:#000000;stroke:none;stroke-width:0" /><circle id="circle1427" cx="0" cy="-150.0" r="2.0" style="fill:#000000;stroke:none;stroke-width:0" /></g></g></svg>