<?xml version='1.0' encoding='UTF-8'?>
<svg xmlns:ns0="http://www.w3.org/2000/svg" xmlns:ns1="http://sodipodi.sourceforge.net/DTD/sodipodi-0.dtd" xmlns:ns2="http://www.inkscape.org/namespaces/inkscape" version="1.1" id="svg_root" xmlns="http://www.w3.org/2000/svg" xmlns:sodipodi="http://sodipodi.sourceforge.net/DTD/sodipodi-0.dtd" xmlns:inkscape="http://www.inkscape.org/namespaces/inkscape" xmlns:xlink="http://www.w3.org/1999/xlink" width="215.9mm" height="279.4mm" viewBox="0 0 215.9 279.4"><defs /><g id="layer" inkscape:label="Layer" inkscape:groupmode="layer" transform="translate(107.95 120) scale(1, -1)"><g id="background" inkscape:label="Tile Background" inkscape:groupmode="layer"><path id="path1186" d="m 0 80 69.282 -40 0 -80 -69.282 -40 -69.282 40 0 80 z" style="fill:#000000;stroke:none;stroke-width:0" /></g><g id="region-clip" inkscape:label="Region Clipped" inkscape:groupmode="layer" style="display:none"><g id="clip"><path id="clipregion-0" d="m 15.3876 66.6521 -20.4705 -2.02473 -6.51656 8.67571 11.5995 6.69697 17.3205 -10 z" style="fill:#f0eaac;stroke:#000000;stroke-width:0.3" /><path id="clipregion-1" d="m 61.8072 20 -9.42765 6.54606 -5.07489 15.388 4.65688 8.06595 17.3205 -10 0 -20 z" style="fill:#f0eaac;stroke:#000000;stroke-width:0.3" /><path id="clipregion-2" d="m 50.206 -36.7432 15.8084 16.7432 3.26769 -3.55271e-15 0 -20 -11.5995 -6.69697 z" style="fill:#f0eaac;stroke:#000000;stroke-width:0.3" /><path id="clipregion-3" d="m -7.40656 -67.9955 10.7593 3.25018 6.80063 -9.39258 -10.1534 -5.86207 -10.1534 5.86207 z" style="fill:#f0ce76;stroke:#000000;stroke-width:0.3" /><path id="clipregion-4" d="m -60.2635 -25.5129 5.51906 -3.74649 1.88687 -6.11943 -4.82498 -11.3181 -11.5995 6.69697 0 13.3939 z" style="fill:#f0eaac;stroke:#000000;stroke-width:0.3" /><path id="clipregion-5" d="m -51.5361 35.3758 -3.74211 -5.65127 -14.0038 -1.44867 0 11.7241 10.1534 5.86207 z" style="fill:#f0ce76;stroke:#000000;stroke-width:0.3" /><path id="clipregion-6" d="m 47.3046 41.9341 -25.4466 2.99761 -6.47048 21.7204 1.93294 3.34794 34.641 -20 z" style="fill:#f0eaac;stroke:#000000;stroke-width:0.3" /><path id="clipregion-7" d="m 66.0143 -20 -10.7917 14.1324 6.58454 25.8676 7.47484 0 0 -40 z" style="fill:#f0eaac;stroke:#000000;stroke-width:0.3" /><path id="clipregion-8" d="m 31.5022 -55.6499 8.19852 18.3111 10.5053 0.595572 7.47655 -9.95377 -24.3634 -14.0662 z" style="fill:#f0eaac;stroke:#000000;stroke-width:0.3" /><path id="clipregion-9" d="m 3.35278 -64.7454 4.86968 10.4958 23.2798 -1.40039 1.81698 -5.11324 -23.1658 -13.3748 z" style="fill:#f0eaac;stroke:#000000;stroke-width:0.3" /><path id="clipregion-10" d="m -26.3967 -52.64 18.9901 -15.3555 -2.74684 -6.1424 -23.1658 13.3748 z" style="fill:#f0eaac;stroke:#000000;stroke-width:0.3" /><path id="clipregion-11" d="m -52.8576 -35.3788 27.0721 -10.755 -0.611167 -6.5062 -6.92253 -8.12317 -24.3634 14.0662 z" style="fill:#f0eaac;stroke:#000000;stroke-width:0.3" /><path id="clipregion-12" d="m -62.3566 0.250579 2.0931 -25.7635 -9.01853 -1.09316 0 28.1324 z" style="fill:#f0eaac;stroke:#000000;stroke-width:0.3" /><path id="clipregion-13" d="m -55.2782 29.7245 3.54284 -23.2486 -10.6212 -6.2254 -6.92543 1.27574 0 26.7495 z" style="fill:#f0eaac;stroke:#000000;stroke-width:0.3" /><path id="clipregion-14" d="m -33.3225 51.8066 -9.13129 -13.654 -9.08231 -2.77675 -7.5925 10.4863 23.1658 13.3748 z" style="fill:#f0eaac;stroke:#000000;stroke-width:0.3" /><path id="clipregion-15" d="m -5.08293 64.6273 -8.67273 -15.5539 -19.5669 2.73314 -2.64032 7.43027 24.3634 14.0662 z" style="fill:#f0eaac;stroke:#000000;stroke-width:0.3" /><path id="clipregion-16" d="m -60.2635 -25.5129 -2.0931 25.7635 10.6212 6.2254 18.0616 -5.41223 7.00519 -9.54099 -28.0758 -20.7821 z" style="fill:#f0eaac;stroke:#000000;stroke-width:0.3" /><path id="clipregion-17" d="m 3.35278 -64.7454 -10.7593 -3.25018 -18.9901 15.3555 0.611167 6.5062 12.3104 14.8022 15.2297 -5.33631 6.46792 -17.5817 z" style="fill:#f0eaac;stroke:#000000;stroke-width:0.3" /><path id="clipregion-18" d="m 18.4289 19.8643 -1.12248 19.6083 4.55163 5.45902 25.4466 -2.99761 5.07489 -15.388 -20.3555 -14.2316 z" style="fill:#f0eaac;stroke:#000000;stroke-width:0.3" /><path id="clipregion-19" d="m 32.024 12.3145 20.3555 14.2316 9.42765 -6.54606 -6.58454 -25.8676 -22.8119 -0.171902 z" style="fill:#f0eaac;stroke:#000000;stroke-width:0.3" /><path id="clipregion-20" d="m -5.08293 64.6273 20.4705 2.02473 6.47048 -21.7204 -4.55163 -5.45902 -25.1305 -2.42815 -5.93158 12.0289 z" style="fill:#f0eaac;stroke:#000000;stroke-width:0.3" /><path id="clipregion-21" d="m -54.7444 -29.2594 28.0758 20.7821 7.23853 -3.41033 5.95496 -19.444 -12.3104 -14.8022 -27.0721 10.755 z" style="fill:#f0eaac;stroke:#000000;stroke-width:0.3" /><path id="clipregion-22" d="m -13.7557 49.0734 5.93158 -12.0289 -3.11026 -8.66571 -15.5229 -5.59215 -15.9966 15.3659 9.13129 13.654 z" style="fill:#f0eaac;stroke:#000000;stroke-width:0.3" /><path id="clipregion-23" d="m 8.22246 -54.2495 -6.46792 17.5817 23.5711 13.6704 14.375 -14.3413 -8.19852 -18.3111 z" style="fill:#f0eaac;stroke:#000000;stroke-width:0.3" /><path id="clipregion-24" d="m 25.4767 -14.1299 -26.0135 15.7138 1.45296 6.82741 17.5128 11.453 13.5951 -7.54983 0.3867 -18.3539 z" style="fill:#f0ce76;stroke:#000000;stroke-width:0.3" /><path id="clipregion-25" d="m -55.2782 29.7245 3.74211 5.65127 9.08231 2.77675 15.9966 -15.3659 -7.21657 -21.7229 -18.0616 5.41223 z" style="fill:#f0eaac;stroke:#000000;stroke-width:0.3" /><path id="clipregion-26" d="m 32.4107 -6.03946 22.8119 0.171902 10.7917 -14.1324 -15.8084 -16.7432 -10.5053 -0.595572 -14.375 14.3413 0.151004 8.86756 z" style="fill:#f0eaac;stroke:#000000;stroke-width:0.3" /><path id="clipregion-27" d="m 25.4767 -14.1299 -0.151004 -8.86756 -23.5711 -13.6704 -15.2297 5.33631 -5.95496 19.444 18.8932 13.4715 z" style="fill:#f0eaac;stroke:#000000;stroke-width:0.3" /><path id="clipregion-28" d="m -33.6738 1.06375 7.21657 21.7229 15.5229 5.59215 11.8504 -19.9675 -1.45296 -6.82741 -18.8932 -13.4715 -7.23853 3.41033 z" style="fill:#f0eaac;stroke:#000000;stroke-width:0.3" /><path id="clipregion-29" d="m 0.916111 8.41132 -11.8504 19.9675 3.11026 8.66571 25.1305 2.42815 1.12248 -19.6083 z" style="fill:#f0ce76;stroke:#000000;stroke-width:0.3" /></g></g><g id="region-rounded" inkscape:label="Region Rounded" inkscape:groupmode="layer"><g id="rounded"><path id="roundedregion-0" d="m 15.8876 67.5181 c -0.35 -0.606218 -0.798543 -0.895554 -1.49514 -0.964455 l -18.4802 -1.82787 c -0.696601 -0.0689007 -1.17532 0.141441 -1.59572 0.701137 l -5.91599 7.87614 11.5995 6.69697 17.3205 -10 z" style="fill:#f0eaac;stroke:#000000;stroke-width:0.3" /><path id="roundedregion-1" d="m 62.8072 20 c -0.7 0 -1.24642 0.171103 -1.82141 0.570342 l -7.78484 5.40538 c -0.574985 0.399239 -0.915368 0.855248 -1.13461 1.52003 l -4.44849 13.4886 c -0.219242 0.66478 -0.163202 1.20949 0.186798 1.81571 l 4.15688 7.19992 17.3205 -10 0 -20 z" style="fill:#f0eaac;stroke:#000000;stroke-width:0.3" /><path id="roundedregion-2" d="m 50.8066 -37.5428 c -0.420404 0.559697 -0.394622 1.0177 0.0859397 1.52668 l 14.4353 15.289 c 0.480562 0.50898 0.986517 0.727114 1.68652 0.727114 l 2.26769 -3.55271e-15 0 -20 -11.5995 -6.69697 z" style="fill:#f0eaac;stroke:#000000;stroke-width:0.3" /><path id="roundedregion-3" d="m -7.8148 -68.9084 c 0.285763 0.639015 0.695416 0.99963 1.36551 1.20205 l 8.84479 2.67183 c 0.670094 0.202422 1.13321 0.0461802 1.54374 -0.520805 l 6.21417 -8.5826 -10.1534 -5.86207 -10.1534 5.86207 z" style="fill:#f0ce76;stroke:#000000;stroke-width:0.3" /><path id="roundedregion-4" d="m -61.2562 -25.6332 c 0.694914 0.084232 1.24095 -0.0481625 1.82011 -0.441315 l 3.86431 -2.62319 c 0.579164 -0.393152 0.915773 -0.848327 1.12203 -1.51725 l 1.29757 -4.20822 c 0.206257 -0.668923 0.177005 -1.23157 -0.0975047 -1.8755 l -4.43282 -10.3982 -11.5995 6.69697 0 13.3939 z" style="fill:#f0eaac;stroke:#000000;stroke-width:0.3" /><path id="roundedregion-5" d="m -52.1226 36.1858 c 0.410521 -0.566985 0.420829 -1.06011 0.034357 -1.64376 l -2.6379 -3.98372 c -0.386472 -0.583644 -0.85051 -0.864646 -1.54679 -0.936676 l -13.0091 -1.34577 0 11.7241 10.1534 5.86207 z" style="fill:#f0ce76;stroke:#000000;stroke-width:0.3" /><path id="roundedregion-6" d="m 47.8046 42.8001 c -0.35 -0.606218 -0.79794 -0.830928 -1.49313 -0.749034 l -23.4603 2.76363 c -0.695193 0.0818939 -1.07878 0.404505 -1.27863 1.07537 l -5.89948 19.8036 c -0.19985 0.670865 -0.1355 1.21819 0.2145 1.8244 l 1.43294 2.48192 34.641 -20 z" style="fill:#f0eaac;stroke:#000000;stroke-width:0.3" /><path id="roundedregion-7" d="m 67.0143 -20 c -0.7 0 -1.18207 0.238433 -1.6069 0.794777 l -9.57789 12.5429 c -0.424831 0.556344 -0.532896 1.08551 -0.360219 1.76387 l 6.09117 23.9294 c 0.172677 0.678368 0.546682 0.969097 1.24668 0.969097 l 6.47484 0 0 -40 z" style="fill:#f0eaac;stroke:#000000;stroke-width:0.3" /><path id="roundedregion-8" d="m 31.837 -56.5922 c -0.234385 0.659594 -0.212242 1.21608 0.0738085 1.85497 l 7.38123 16.4858 c 0.286051 0.638886 0.708163 0.929674 1.40704 0.969296 l 8.50846 0.482368 c 0.698878 0.0396213 1.17857 -0.183268 1.59897 -0.742965 l 6.87598 -9.15421 -24.3634 -14.0662 z" style="fill:#f0eaac;stroke:#000000;stroke-width:0.3" /><path id="roundedregion-9" d="m 3.93923 -65.5553 c -0.410521 0.566985 -0.460198 1.08211 -0.165588 1.7171 l 4.02794 8.68159 c 0.294609 0.634984 0.720329 0.889107 1.41907 0.847074 l 21.2834 -1.2803 c 0.698737 -0.0420325 1.09865 -0.342729 1.33303 -1.00232 l 1.48214 -4.17097 -23.1658 -13.3748 z" style="fill:#f0eaac;stroke:#000000;stroke-width:0.3" /><path id="roundedregion-10" d="m -27.0453 -53.4011 c 0.454033 0.53278 0.881896 0.572484 1.42621 0.132346 l 17.4349 -14.098 c 0.544315 -0.440138 0.655123 -0.902631 0.36936 -1.54165 l -2.3386 -5.22952 -23.1658 13.3748 z" style="fill:#f0eaac;stroke:#000000;stroke-width:0.3" /><path id="roundedregion-11" d="m -53.2497 -36.2987 c 0.27451 0.643929 0.670961 0.809137 1.32151 0.550695 l 25.2134 -10.0166 c 0.650544 -0.258443 0.901291 -0.667889 0.835824 -1.36482 l -0.424118 -4.51496 c -0.0654671 -0.696932 -0.28811 -1.22395 -0.742142 -1.75673 l -6.27391 -7.36206 -24.3634 14.0662 z" style="fill:#f0eaac;stroke:#000000;stroke-width:0.3" /><path id="roundedregion-12" d="m -63.3401 0.431741 c 0.688417 -0.126814 1.00775 -0.480177 1.06443 -1.17788 l 1.93115 -23.7701 c 0.0566834 -0.697701 -0.216844 -1.03282 -0.911758 -1.11705 l -8.0258 -0.972824 0 28.1324 z" style="fill:#f0eaac;stroke:#000000;stroke-width:0.3" /><path id="roundedregion-13" d="m -56.2729 29.6216 c 0.696284 0.0720294 1.03989 -0.193677 1.14534 -0.885688 l 3.24154 -21.2714 c 0.105455 -0.692011 -0.108168 -1.14029 -0.712077 -1.49426 l -8.89576 -5.21406 c -0.603909 -0.353968 -1.15776 -0.45132 -1.84618 -0.324507 l -5.94198 1.09457 0 26.7495 z" style="fill:#f0eaac;stroke:#000000;stroke-width:0.3" /><path id="roundedregion-14" d="m -33.6574 52.7489 c 0.234385 -0.659594 0.168064 -1.19165 -0.22107 -1.77352 l -8.01948 -11.9915 c -0.389134 -0.581872 -0.842797 -0.918957 -1.51221 -1.12362 l -7.1697 -2.192 c -0.669413 -0.204661 -1.13224 -0.0493786 -1.54276 0.517607 l -7.00604 9.67629 23.1658 13.3748 z" style="fill:#f0eaac;stroke:#000000;stroke-width:0.3" /><path id="roundedregion-15" d="m -5.68351 65.4269 c 0.420404 -0.559697 0.454476 -1.06159 0.113575 -1.67297 l -7.69873 -13.8071 c -0.340901 -0.611381 -0.784117 -0.831899 -1.47739 -0.735062 l -17.5861 2.45646 c -0.693269 0.0968373 -1.09084 0.421022 -1.32522 1.08062 l -2.30549 6.48799 24.3634 14.0662 z" style="fill:#f0eaac;stroke:#000000;stroke-width:0.3" /><path id="roundedregion-16" d="m -59.4361 -26.0746 c -0.579164 0.393152 -0.85167 0.860661 -0.908354 1.55836 l -1.93115 23.7701 c -0.0566834 0.697701 0.177842 1.14842 0.781751 1.50239 l 8.89576 5.21406 c 0.603909 0.353968 1.1501 0.419556 1.82064 0.218625 l 16.1458 -4.83814 c 0.670542 -0.200931 1.13547 -0.528863 1.54975 -1.09311 l 5.82153 -7.92887 c 0.41428 -0.564245 0.3507 -0.98455 -0.211931 -1.40102 l -26.4683 -19.5922 c -0.562632 -0.416468 -1.05197 -0.426461 -1.63114 -0.0333084 z" style="fill:#f0eaac;stroke:#000000;stroke-width:0.3" /><path id="roundedregion-17" d="m 3.77365 -63.8382 c -0.294609 -0.634984 -0.708054 -0.993873 -1.37815 -1.19629 l -8.84479 -2.67183 c -0.670094 -0.202422 -1.19055 -0.100543 -1.73487 0.339594 l -17.4349 14.098 c -0.544315 0.440138 -0.749536 0.927453 -0.684069 1.62438 l 0.424118 4.51496 c 0.0654671 0.696932 0.285351 1.22627 0.732948 1.76447 l 11.0315 13.2645 c 0.447596 0.538199 0.922546 0.669652 1.58317 0.438177 l 13.3422 -4.67495 c 0.660621 -0.231474 1.04732 -0.61223 1.289 -1.26919 l 5.7774 -15.7046 c 0.24168 -0.656956 0.218996 -1.21064 -0.0756137 -1.84563 z" style="fill:#f0eaac;stroke:#000000;stroke-width:0.3" /><path id="roundedregion-18" d="m 19.3031 19.3788 c -0.611968 0.339846 -0.891385 0.785004 -0.931392 1.48386 l -1.00818 17.6116 c -0.0400061 0.698856 0.134965 1.22878 0.583236 1.76642 l 3.27086 3.92292 c 0.448271 0.537636 0.938327 0.732955 1.63352 0.651061 l 23.4603 -2.76363 c 0.695193 -0.0818939 1.08709 -0.401897 1.30634 -1.06668 l 4.44849 -13.4886 c 0.219242 -0.66478 0.067335 -1.12159 -0.506356 -1.52268 l -18.7164 -13.0856 c -0.573691 -0.401097 -1.08183 -0.427348 -1.6938 -0.0875017 z" style="fill:#f0eaac;stroke:#000000;stroke-width:0.3" /><path id="roundedregion-19" d="m 32.0451 11.3147 c -0.0147451 0.699845 0.224803 1.17168 0.798494 1.57277 l 18.7164 13.0856 c 0.573691 0.401097 1.06598 0.401893 1.64097 0.00265376 l 7.78484 -5.40538 c 0.574985 -0.399239 0.747403 -0.861071 0.574726 -1.53944 l -6.09117 -23.9294 c -0.172677 -0.678368 -0.546673 -0.971357 -1.24665 -0.976632 l -20.812 -0.156831 c -0.69998 -0.00527479 -1.00629 0.292398 -1.02104 0.992243 z" style="fill:#f0eaac;stroke:#000000;stroke-width:0.3" /><path id="roundedregion-20" d="m -5.56993 63.7539 c 0.340901 0.611381 0.785545 0.90293 1.48215 0.97183 l 18.4802 1.82787 c 0.696601 0.0689007 1.08079 -0.189084 1.28064 -0.859949 l 5.89948 -19.8036 c 0.19985 -0.670865 0.0933836 -1.18879 -0.354888 -1.72643 l -3.27086 -3.92292 c -0.448271 -0.537636 -0.938997 -0.796904 -1.63575 -0.864226 l -23.1398 -2.2358 c -0.696755 -0.0673216 -1.12804 0.172892 -1.43763 0.800712 l -5.04706 10.2352 c -0.309584 0.62782 -0.296162 1.15891 0.0447394 1.77029 z" style="fill:#f0eaac;stroke:#000000;stroke-width:0.3" /><path id="roundedregion-21" d="m -54.4498 -30.215 c -0.206257 0.668923 -0.0535244 1.13409 0.509107 1.55056 l 26.4683 19.5922 c 0.562632 0.416468 1.07515 0.467094 1.70839 0.168752 l 5.42928 -2.55793 c 0.633239 -0.298342 0.992479 -0.713051 1.19746 -1.38237 l 5.36928 -17.5316 c 0.204986 -0.669314 0.10101 -1.18682 -0.346587 -1.72502 l -11.0315 -13.2645 c -0.447596 -0.538199 -0.918228 -0.658094 -1.56877 -0.399651 l -25.2134 10.0166 c -0.650544 0.258443 -1.01774 0.655885 -1.224 1.32481 z" style="fill:#f0eaac;stroke:#000000;stroke-width:0.3" /><path id="roundedregion-22" d="m -14.746 49.2118 c 0.693269 -0.0968373 1.12306 -0.407405 1.43265 -1.03522 l 5.04706 -10.2352 c 0.309584 -0.62782 0.340918 -1.17925 0.104447 -1.8381 l -2.43463 -6.78328 c -0.236471 -0.658849 -0.620059 -1.04289 -1.27863 -1.28014 l -13.6413 -4.91429 c -0.658568 -0.237251 -1.15717 -0.131105 -1.66199 0.353818 l -14.5542 13.9804 c -0.504826 0.484923 -0.554409 0.942121 -0.165275 1.52399 l 8.01948 11.9915 c 0.389134 0.581872 0.853021 0.789744 1.54629 0.692906 z" style="fill:#f0eaac;stroke:#000000;stroke-width:0.3" /><path id="roundedregion-23" d="m 9.22065 -54.3096 c -0.698737 0.0420325 -1.10177 0.341599 -1.34345 0.998555 l -5.7774 15.7046 c -0.24168 0.656956 -0.0857434 1.08902 0.519788 1.4402 l 21.8411 12.667 c 0.605532 0.351185 1.07743 0.289811 1.57298 -0.204581 l 12.9592 -12.9287 c 0.495557 -0.494392 0.585345 -0.980083 0.299294 -1.61897 l -7.38123 -16.4858 c -0.286051 -0.638886 -0.708103 -0.89468 -1.40684 -0.852648 z" style="fill:#f0eaac;stroke:#000000;stroke-width:0.3" /><path id="roundedregion-24" d="m 26.1274 -13.3706 c -0.45553 -0.5315 -0.907543 -0.604171 -1.50671 -0.242235 l -24.3016 14.6797 c -0.599168 0.361936 -0.793509 0.81048 -0.647803 1.49515 l 1.03665 4.87122 c 0.145706 0.684668 0.459227 1.14229 1.04507 1.52542 l 15.839 10.3583 c 0.585843 0.383129 1.09919 0.401679 1.71116 0.0618331 l 11.8467 -6.57884 c 0.611968 -0.339846 0.880559 -0.785428 0.895304 -1.48527 l 0.344571 -16.3544 c 0.0147451 -0.699845 -0.174163 -1.22756 -0.629693 -1.75906 z" style="fill:#f0ce76;stroke:#000000;stroke-width:0.3" /><path id="roundedregion-25" d="m -55.1276 28.7359 c -0.105455 0.692011 0.01498 1.23872 0.401452 1.82236 l 2.6379 3.98372 c 0.386472 0.583644 0.838994 0.921488 1.50841 1.12615 l 7.1697 2.192 c 0.669413 0.204661 1.17266 0.0845481 1.67748 -0.400375 l 14.5542 -13.9804 c 0.504826 -0.484923 0.6266 -0.977448 0.405912 -1.64175 l -6.58604 -19.8249 c -0.220688 -0.664302 -0.602644 -0.862889 -1.27319 -0.661959 l -16.1458 4.83814 c -0.670542 0.200931 -1.00311 0.58362 -1.10857 1.27563 z" style="fill:#f0eaac;stroke:#000000;stroke-width:0.3" /><path id="roundedregion-26" d="m 31.76 -6.79874 c 0.45553 0.5315 0.950748 0.761547 1.65073 0.766822 l 20.812 0.156831 c 0.69998 0.00527479 1.18204 -0.230898 1.60687 -0.787242 l 9.57789 -12.5429 c 0.424831 -0.556344 0.400946 -1.01291 -0.0796156 -1.52189 l -14.4353 -15.289 c -0.480562 -0.50898 -0.986036 -0.744095 -1.68491 -0.783716 l -8.50846 -0.482368 c -0.698878 -0.0396213 -1.21078 0.155281 -1.70633 0.649673 l -12.9592 12.9287 c -0.495557 0.494392 -0.70283 1.00623 -0.690911 1.70613 l 0.116952 6.86785 c 0.0119185 0.699899 0.212253 1.22764 0.667783 1.75914 z" style="fill:#f0eaac;stroke:#000000;stroke-width:0.3" /><path id="roundedregion-27" d="m 24.6207 -13.6129 c 0.599168 -0.361936 0.850846 -0.817008 0.838928 -1.51691 l -0.116952 -6.86785 c -0.0119185 -0.699899 -0.27654 -1.15036 -0.882072 -1.50155 l -21.8411 -12.667 c -0.605532 -0.351185 -1.14817 -0.40249 -1.80879 -0.171016 l -13.3422 4.67495 c -0.660621 0.231474 -1.03159 0.617526 -1.23658 1.28684 l -5.36928 17.5316 c -0.204986 0.669314 -0.0485719 1.13033 0.521379 1.53673 l 17.2648 12.3104 c 0.569951 0.406394 1.071 0.425447 1.67017 0.0635111 z" style="fill:#f0eaac;stroke:#000000;stroke-width:0.3" /><path id="roundedregion-28" d="m -33.082 0.257682 c -0.41428 0.564245 -0.497248 1.09076 -0.27656 1.75507 l 6.58604 19.8249 c 0.220688 0.664302 0.597512 1.05068 1.25608 1.28793 l 13.6413 4.91429 c 0.658568 0.237251 1.09392 0.0809432 1.45118 -0.521024 l 10.8297 -18.2476 c 0.35726 -0.601968 0.447927 -1.15338 0.302221 -1.83805 l -1.03665 -4.87122 c -0.145706 -0.684668 -0.452416 -1.15227 -1.02237 -1.55866 l -17.2648 -12.3104 c -0.569951 -0.406394 -1.0856 -0.452702 -1.71884 -0.15436 l -5.42928 2.55793 c -0.633239 0.298342 -1.08218 0.668022 -1.49646 1.23227 z" style="fill:#f0eaac;stroke:#000000;stroke-width:0.3" /><path id="roundedregion-29" d="m 1.75303 8.95865 c -0.585843 -0.383129 -0.99003 -0.289341 -1.34729 0.312626 l -10.8297 18.2476 c -0.35726 0.601968 -0.409027 1.14232 -0.172556 1.80117 l 2.43463 6.78328 c 0.236471 0.658849 0.636425 0.970064 1.33318 1.03739 l 23.1398 2.2358 c 0.696755 0.0673216 1.01251 -0.203336 1.05252 -0.902192 l 1.00818 -17.6116 c 0.0400061 -0.698856 -0.193924 -1.16256 -0.779767 -1.54569 z" style="fill:#f0ce76;stroke:#000000;stroke-width:0.3" /></g></g><g id="region" inkscape:label="Region" inkscape:groupmode="layer" style="display:none"><path id="region-0" d="m -17.7239 81.4566 10.7957 14.5434 19.245 0 8.3395 -20.2222 -5.26874 -9.12572 -20.4705 -2.02473 z" style="fill:#ffffff;stroke:#000000;stroke-width:0.3" /><path id="region-1" d="m 52.3795 26.5461 9.42765 -6.54606 14.1464 0 13.3432 17.3333 -12.3168 21.3333 -21.6827 -2.88889 -7.99268 -13.8437 z" style="fill:#ffffff;stroke:#000000;stroke-width:0.3" /><path id="region-2" d="m 64.4854 -55.7539 -14.2794 19.0107 15.8084 16.7432 9.93929 -3.55271e-15 13.3432 -17.3333 -9.6225 -16.6667 z" style="fill:#ffffff;stroke:#000000;stroke-width:0.3" /><path id="region-3" d="m 16.574 -83.0056 -9.6458 -12.9944 -13.8564 0 -8.11375 10.9304 7.63539 17.074 10.7593 3.25018 z" style="fill:#ffffff;stroke:#000000;stroke-width:0.3" /><path id="region-4" d="m -86.6025 -42 6.07556 14.0309 20.2635 2.45618 5.51906 -3.74649 1.88687 -6.11943 -8.82399 -20.6988 -17.9928 2.07763 z" style="fill:#ffffff;stroke:#000000;stroke-width:0.3" /><path id="region-5" d="m -80.172 27.1493 24.8938 2.57522 3.74211 5.65127 -14.6153 20.1857 -13.5229 -1.56149 -6.9282 -12 z" style="fill:#ffffff;stroke:#000000;stroke-width:0.3" /><path id="region-6" d="m 21.8581 44.9317 25.4466 -2.99761 7.99268 13.8437 -10.5848 21.6667 -24.0563 -1.66667 -5.26874 -9.12572 z" style="fill:#ffffff;stroke:#000000;stroke-width:0.3" /><path id="region-7" d="m 66.0143 -20 -10.7917 14.1324 6.58454 25.8676 14.1464 0 13.4715 -20 -13.4715 -20 z" style="fill:#ffffff;stroke:#000000;stroke-width:0.3" /><path id="region-8" d="m 56.4909 -69.8451 7.99453 14.0912 -14.2794 19.0107 -10.5053 -0.595572 -8.19852 -18.3111 5.16447 -14.5336 z" style="fill:#ffffff;stroke:#000000;stroke-width:0.3" /><path id="region-9" d="m 30.407 -80.6665 -13.833 -2.3392 -13.2212 18.2603 4.86968 10.4958 23.2798 -1.40039 5.16447 -14.5336 z" style="fill:#ffffff;stroke:#000000;stroke-width:0.3" /><path id="region-10" d="m -15.0419 -85.0696 7.63539 17.074 -18.9901 15.3555 -13.0899 -15.3602 7.58332 -15.2578 z" style="fill:#ffffff;stroke:#000000;stroke-width:0.3" /><path id="region-11" d="m -52.8576 -35.3788 27.0721 -10.755 -0.611167 -6.5062 -13.0899 -15.3602 -14.9908 1.64257 -7.20417 10.28 z" style="fill:#ffffff;stroke:#000000;stroke-width:0.3" /><path id="region-12" d="m -88.7331 -14 8.20611 -13.9691 20.2635 2.45618 -2.0931 25.7635 -16.7574 3.0869 z" style="fill:#ffffff;stroke:#000000;stroke-width:0.3" /><path id="region-13" d="m -85.0627 14 5.94864 -10.6625 16.7574 -3.0869 10.6212 6.2254 -3.54284 23.2486 -24.8938 -2.57522 z" style="fill:#ffffff;stroke:#000000;stroke-width:0.3" /><path id="region-14" d="m -39.1466 68.1964 -17.0053 1.06156 -9.9995 -13.6965 14.6153 -20.1857 9.08231 2.77675 9.13129 13.654 z" style="fill:#ffffff;stroke:#000000;stroke-width:0.3" /><path id="region-15" d="m -17.7239 81.4566 12.6409 -16.8293 -8.67273 -15.5539 -19.5669 2.73314 -5.82409 16.3899 8.91793 12.1612 z" style="fill:#ffffff;stroke:#000000;stroke-width:0.3" /><path id="region-16" d="m -54.7444 -29.2594 28.0758 20.7821 -7.00519 9.54099 -18.0616 5.41223 -10.6212 -6.2254 2.0931 -25.7635 z" style="fill:#ffffff;stroke:#000000;stroke-width:0.3" /><path id="region-17" d="m 8.22246 -54.2495 -6.46792 17.5817 -15.2297 5.33631 -12.3104 -14.8022 -0.611167 -6.5062 18.9901 -15.3555 10.7593 3.25018 z" style="fill:#ffffff;stroke:#000000;stroke-width:0.3" /><path id="region-18" d="m 32.024 12.3145 20.3555 14.2316 -5.07489 15.388 -25.4466 2.99761 -4.55163 -5.45902 1.12248 -19.6083 z" style="fill:#ffffff;stroke:#000000;stroke-width:0.3" /><path id="region-19" d="m 32.4107 -6.03946 22.8119 0.171902 6.58454 25.8676 -9.42765 6.54606 -20.3555 -14.2316 z" style="fill:#ffffff;stroke:#000000;stroke-width:0.3" /><path id="region-20" d="m -5.08293 64.6273 20.4705 2.02473 6.47048 -21.7204 -4.55163 -5.45902 -25.1305 -2.42815 -5.93158 12.0289 z" style="fill:#ffffff;stroke:#000000;stroke-width:0.3" /><path id="region-21" d="m -54.7444 -29.2594 28.0758 20.7821 7.23853 -3.41033 5.95496 -19.444 -12.3104 -14.8022 -27.0721 10.755 z" style="fill:#ffffff;stroke:#000000;stroke-width:0.3" /><path id="region-22" d="m -33.3225 51.8066 -9.13129 -13.654 15.9966 -15.3659 15.5229 5.59215 3.11026 8.66571 -5.93158 12.0289 z" style="fill:#ffffff;stroke:#000000;stroke-width:0.3" /><path id="region-23" d="m 31.5022 -55.6499 8.19852 18.3111 -14.375 14.3413 -23.5711 -13.6704 6.46792 -17.5817 z" style="fill:#ffffff;stroke:#000000;stroke-width:0.3" /><path id="region-24" d="m 32.4107 -6.03946 -0.3867 18.3539 -13.5951 7.54983 -17.5128 -11.453 -1.45296 -6.82741 26.0135 -15.7138 z" style="fill:#ffffff;stroke:#000000;stroke-width:0.3" /><path id="region-25" d="m -51.7354 6.47597 18.0616 -5.41223 7.21657 21.7229 -15.9966 15.3659 -9.08231 -2.77675 -3.74211 -5.65127 z" style="fill:#ffffff;stroke:#000000;stroke-width:0.3" /><path id="region-26" d="m 32.4107 -6.03946 22.8119 0.171902 10.7917 -14.1324 -15.8084 -16.7432 -10.5053 -0.595572 -14.375 14.3413 0.151004 8.86756 z" style="fill:#ffffff;stroke:#000000;stroke-width:0.3" /><path id="region-27" d="m 25.4767 -14.1299 -0.151004 -8.86756 -23.5711 -13.6704 -15.2297 5.33631 -5.95496 19.444 18.8932 13.4715 z" style="fill:#ffffff;stroke:#000000;stroke-width:0.3" /><path id="region-28" d="m -26.6686 -8.47725 7.23853 -3.41033 18.8932 13.4715 1.45296 6.82741 -11.8504 19.9675 -15.5229 -5.59215 -7.21657 -21.7229 z" style="fill:#ffffff;stroke:#000000;stroke-width:0.3" /><path id="region-29" d="m 0.916111 8.41132 -11.8504 19.9675 3.11026 8.66571 25.1305 2.42815 1.12248 -19.6083 z" style="fill:#ffffff;stroke:#000000;stroke-width:0.3" /></g><g id="seeds" inkscape:label="Seeds" inkscape:groupmode="layer" style="display:none"><circle id="seed-0" cx="0.0" cy="80.0" r="1.0" style="fill:#000000;stroke:none;stroke-width:0" /><circle id="seed-1" cx="69.28203230275508" cy="40.0" r="1.0" style="fill:#000000;stroke:none;stroke-width:0" /><circle id="seed-2" cx="69.28203230275508" cy="-40.0" r="1.0" style="fill:#000000;stroke:none;stroke-width:0" /><circle id="seed-3" cx="0.0" cy="-80.0" r="1.0" style="fill:#000000;stroke:none;stroke-width:0" /><circle id="seed-4" cx="-69.28203230275508" cy="-40.0" r="1.0" style="fill:#000000;stroke:none;stroke-width:0" /><circle id="seed-5" cx="-69.28203230275508" cy="40.0" r="1.0" style="fill:#000000;stroke:none;stroke-width:0" /><circle id="seed-6" cx="34.64101615137754" cy="60.0" r="1.0" style="fill:#000000;stroke:none;stroke-width:0" /><circle id="seed-7" cx="69.28203230275508" cy="0.0" r="1.0" style="fill:#000000;stroke:none;stroke-width:0" /><circle id="seed-8" cx="48.0189616428459" cy="-55.971281292110206" r="1.0" style="fill:#000000;stroke:none;stroke-width:0" /><circle id="seed-9" cx="18.891789367798975" cy="-66.32153903091735" r="1.0" style="fill:#000000;stroke:none;stroke-width:0" /><circle id="seed-10" cx="-21.291789367798977" cy="-70.47846096908266" r="1.0" style="fill:#000000;stroke:none;stroke-width:0" /><circle id="seed-11" cx="-44.8189616428459" cy="-50.4287187078898" r="1.0" style="fill:#000000;stroke:none;stroke-width:0" /><circle id="seed-12" cx="-72.48203230275509" cy="-13.599999999999998" r="1.0" style="fill:#000000;stroke:none;stroke-width:0" /><circle id="seed-13" cx="-66.88203230275508" cy="16.799999999999997" r="1.0" style="fill:#000000;stroke:none;stroke-width:0" /><circle id="seed-14" cx="-50.390242934956106" cy="53.67846096908266" r="1.0" style="fill:#000000;stroke:none;stroke-width:0" /><circle id="seed-15" cx="-21.263070659909182" cy="64.0287187078898" r="1.0" style="fill:#000000;stroke:none;stroke-width:0" /><circle id="seed-16" cx="-50.12819165492774" cy="-11.783905292912342" r="1.0" style="fill:#000000;stroke:none;stroke-width:0" /><circle id="seed-17" cx="-7.884833243867394" cy="-53.89816851174655" r="1.0" style="fill:#000000;stroke:none;stroke-width:0" /><circle id="seed-18" cx="30.7895820728073" cy="27.305357003828664" r="1.0" style="fill:#000000;stroke:none;stroke-width:0" /><circle id="seed-19" cx="45.67972324216603" cy="6.007924560759022" r="1.0" style="fill:#000000;stroke:none;stroke-width:0" /><circle id="seed-20" cx="2.9130638666892645" cy="50.54828222106636" r="1.0" style="fill:#000000;stroke:none;stroke-width:0" /><circle id="seed-21" cx="-36.68266010122426" cy="-29.948273381932427" r="1.0" style="fill:#000000;stroke:none;stroke-width:0" /><circle id="seed-22" cx="-25.073732940706368" cy="36.74773390507562" r="1.0" style="fill:#000000;stroke:none;stroke-width:0" /><circle id="seed-23" cx="20.261998385236296" cy="-43.54355296681402" r="1.0" style="fill:#000000;stroke:none;stroke-width:0" /><circle id="seed-24" cx="18.646116740054342" cy="5.438351861800643" r="1.0" style="fill:#000000;stroke:none;stroke-width:0" /><circle id="seed-25" cx="-40.351413596891554" cy="20.84299781239428" r="1.0" style="fill:#000000;stroke:none;stroke-width:0" /><circle id="seed-26" cx="45.85977528787523" cy="-17.885498153982947" r="1.0" style="fill:#000000;stroke:none;stroke-width:0" /><circle id="seed-27" cx="4.977547937251949" cy="-17.189320643390605" r="1.0" style="fill:#000000;stroke:none;stroke-width:0" /><circle id="seed-28" cx="-16.488067664614636" cy="12.915341900348258" r="1.0" style="fill:#000000;stroke:none;stroke-width:0" /><circle id="seed-29" cx="5.299820926220516" cy="25.84619095828087" r="1.0" style="fill:#000000;stroke:none;stroke-width:0" /></g><g id="region_ids" inkscape:label="Region Ids" inkscape:groupmode="layer" style="display:none" transform="scale(1,-1)"><text id="text1187" x="-1.4" y="-80.0" style="font-style:normal;font-weight:normal;font-size:4px;font-family:sans-serif;fill:#000000;fill-opacity:1;stroke:none"><tspan x="-1.4" y="-80.0">0</tspan></text><text id="text1188" x="67.88203230275508" y="-40.0" style="font-style:normal;font-weight:normal;font-size:4px;font-family:sans-serif;fill:#000000;fill-opacity:1;stroke:none"><tspan x="67.88203230275508" y="-40.0">1</tspan></text><text id="text1189" x="67.88203230275508" y="40.0" style="font-style:normal;font-weight:normal;font-size:4px;font-family:sans-serif;fill:#000000;fill-opacity:1;stroke:none"><tspan x="67.88203230275508" y="40.0">2</tspan></text><text id="text1190" x="-1.4" y="80.0" style="font-style:normal;font-weight:normal;font-size:4px;font-family:sans-serif;fill:#000000;fill-opacity:1;stroke:none"><tspan x="-1.4" y="80.0">3</tspan></text><text id="text1191" x="-70.68203230275509" y="40.0" style="font-style:normal;font-weight:normal;font-size:4px;font-family:sans-serif;fill:#000000;fill-opacity:1;stroke:none"><tspan x="-70.68203230275509" y="40.0">4</tspan></text><text id="text1192" x="-70.68203230275509" y="-40.0" style="font-style:normal;font-weight:normal;font-size:4px;font-family:sans-serif;fill:#000000;fill-opacity:1;stroke:none"><tspan x="-70.68203230275509" y="-40.0">5</tspan></text><text id="text1193" x="33.24101615137754" y="-60.0" style="font-style:normal;font-weight:normal;font-size:4px;font-family:sans-serif;fill:#000000;fill-opacity:1;stroke:none"><tspan x="33.24101615137754" y="-60.0">6</tspan></text><text id="text1194" x="67.88203230275508" y="-0.0" style="font-style:normal;font-weight:normal;font-size:4px;font-family:sans-serif;fill:#000000;fill-opacity:1;stroke:none"><tspan x="67.88203230275508" y="-0.0">7</tspan></text><text id="text1195" x="46.6189616428459" y="55.971281292110206" style="font-style:normal;font-weight:normal;font-size:4px;font-family:sans-serif;fill:#000000;fill-opacity:1;stroke:none"><tspan x="46.6189616428459" y="55.971281292110206">8</tspan></text><text id="text1196" x="17.491789367798976" y="66.32153903091735" style="font-style:normal;font-weight:normal;font-size:4px;font-family:sans-serif;fill:#000000;fill-opacity:1;stroke:none"><tspan x="17.491789367798976" y="66.32153903091735">9</tspan></text><text id="text1197" x="-22.691789367798975" y="70.47846096908266" style="font-style:normal;font-weight:normal;font-size:4px;font-family:sans-serif;fill:#000000;fill-opacity:1;stroke:none"><tspan x="-22.691789367798975" y="70.47846096908266">10</tspan></text><text id="text1198" x="-46.2189616428459" y="50.4287187078898" style="font-style:normal;font-weight:normal;font-size:4px;font-family:sans-serif;fill:#000000;fill-opacity:1;stroke:none"><tspan x="-46.2189616428459" y="50.4287187078898">11</tspan></text><text id="text1199" x="-73.88203230275509" y="13.599999999999998" style="font-style:normal;font-weight:normal;font-size:4px;font-family:sans-serif;fill:#000000;fill-opacity:1;stroke:none"><tspan x="-73.88203230275509" y="13.599999999999998">12</tspan></text><text id="text1200" x="-68.28203230275508" y="-16.799999999999997" style="font-style:normal;font-weight:normal;font-size:4px;font-family:sans-serif;fill:#000000;fill-opacity:1;stroke:none"><tspan x="-68.28203230275508" y="-16.799999999999997">13</tspan></text><text id="text1201" x="-51.790242934956105" y="-53.67846096908266" style="font-style:normal;font-weight:normal;font-size:4px;font-family:sans-serif;fill:#000000;fill-opacity:1;stroke:none"><tspan x="-51.790242934956105" y="-53.67846096908266">14</tspan></text><text id="text1202" x="-22.66307065990918" y="-64.0287187078898" style="font-style:normal;font-weight:normal;font-size:4px;font-family:sans-serif;fill:#000000;fill-opacity:1;stroke:none"><tspan x="-22.66307065990918" y="-64.0287187078898">15</tspan></text><text id="text1203" x="-51.52819165492774" y="11.783905292912342" style="font-style:normal;font-weight:normal;font-size:4px;font-family:sans-serif;fill:#000000;fill-opacity:1;stroke:none"><tspan x="-51.52819165492774" y="11.783905292912342">16</tspan></text><text id="text1204" x="-9.284833243867395" y="53.89816851174655" style="font-style:normal;font-weight:normal;font-size:4px;font-family:sans-serif;fill:#000000;fill-opacity:1;stroke:none"><tspan x="-9.284833243867395" y="53.89816851174655">17</tspan></text><text id="text1205" x="29.3895820728073" y="-27.305357003828664" style="font-style:normal;font-weight:normal;font-size:4px;font-family:sans-serif;fill:#000000;fill-opacity:1;stroke:none"><tspan x="29.3895820728073" y="-27.305357003828664">18</tspan></text><text id="text1206" x="44.27972324216603" y="-6.007924560759022" style="font-style:normal;font-weight:normal;font-size:4px;font-family:sans-serif;fill:#000000;fill-opacity:1;stroke:none"><tspan x="44.27972324216603" y="-6.007924560759022">19</tspan></text><text id="text1207" x="1.5130638666892646" y="-50.54828222106636" style="font-style:normal;font-weight:normal;font-size:4px;font-family:sans-serif;fill:#000000;fill-opacity:1;stroke:none"><tspan x="1.5130638666892646" y="-50.54828222106636">20</tspan></text><text id="text1208" x="-38.082660101224256" y="29.948273381932427" style="font-style:normal;font-weight:normal;font-size:4px;font-family:sans-serif;fill:#000000;fill-opacity:1;stroke:none"><tspan x="-38.082660101224256" y="29.948273381932427">21</tspan></text><text id="text1209" x="-26.473732940706366" y="-36.74773390507562" style="font-style:normal;font-weight:normal;font-size:4px;font-family:sans-serif;fill:#000000;fill-opacity:1;stroke:none"><tspan x="-26.473732940706366" y="-36.74773390507562">22</tspan></text><text id="text1210" x="18.861998385236298" y="43.54355296681402" style="font-style:normal;font-weight:normal;font-size:4px;font-family:sans-serif;fill:#000000;fill-opacity:1;stroke:none"><tspan x="18.861998385236298" y="43.54355296681402">23</tspan></text><text id="text1211" x="17.246116740054344" y="-5.438351861800643" style="font-style:normal;font-weight:normal;font-size:4px;font-family:sans-serif;fill:#000000;fill-opacity:1;stroke:none"><tspan x="17.246116740054344" y="-5.438351861800643">24</tspan></text><text id="text1212" x="-41.75141359689155" y="-20.84299781239428" style="font-style:normal;font-weight:normal;font-size:4px;font-family:sans-serif;fill:#000000;fill-opacity:1;stroke:none"><tspan x="-41.75141359689155" y="-20.84299781239428">25</tspan></text><text id="text1213" x="44.45977528787523" y="17.885498153982947" style="font-style:normal;font-weight:normal;font-size:4px;font-family:sans-serif;fill:#000000;fill-opacity:1;stroke:none"><tspan x="44.45977528787523" y="17.885498153982947">26</tspan></text><text id="text1214" x="3.5775479372519494" y="17.189320643390605" style="font-style:normal;font-weight:normal;font-size:4px;font-family:sans-serif;fill:#000000;fill-opacity:1;stroke:none"><tspan x="3.5775479372519494" y="17.189320643390605">27</tspan></text><text id="text1215" x="-17.888067664614635" y="-12.915341900348258" style="font-style:normal;font-weight:normal;font-size:4px;font-family:sans-serif;fill:#000000;fill-opacity:1;stroke:none"><tspan x="-17.888067664614635" y="-12.915341900348258">28</tspan></text><text id="text1216" x="3.899820926220516" y="-25.84619095828087" style="font-style:normal;font-weight:normal;font-size:4px;font-family:sans-serif;fill:#000000;fill-opacity:1;stroke:none"><tspan x="3.899820926220516" y="-25.84619095828087">29</tspan></text></g><g id="seed_exclusion" inkscape:label="Seed Exclusion" inkscape:groupmode="layer" style="display:none"><circle id="seed-ex-0" cx="0.0" cy="80.0" r="24.0" style="fill:#800000;stroke:none;stroke-width:0;fill-opacity:0.15" /><circle id="seed-ex-1" cx="69.28203230275508" cy="40.0" r="24.0" style="fill:#800000;stroke:none;stroke-width:0;fill-opacity:0.15" /><circle id="seed-ex-2" cx="69.28203230275508" cy="-40.0" r="24.0" style="fill:#800000;stroke:none;stroke-width:0;fill-opacity:0.15" /><circle id="seed-ex-3" cx="0.0" cy="-80.0" r="19.2" style="fill:#800000;stroke:none;stroke-width:0;fill-opacity:0.15" /><circle id="seed-ex-4" cx="-69.28203230275508" cy="-40.0" r="24.0" style="fill:#800000;stroke:none;stroke-width:0;fill-opacity:0.15" /><circle id="seed-ex-5" cx="-69.28203230275508" cy="40.0" r="19.2" style="fill:#800000;stroke:none;stroke-width:0;fill-opacity:0.15" /><circle id="seed-ex-6" cx="34.64101615137754" cy="60.0" r="24.0" style="fill:#800000;stroke:none;stroke-width:0;fill-opacity:0.15" /><circle id="seed-ex-7" cx="69.28203230275508" cy="0.0" r="24.0" style="fill:#800000;stroke:none;stroke-width:0;fill-opacity:0.15" /><circle id="seed-ex-8" cx="48.0189616428459" cy="-55.971281292110206" r="22.379049582771863" style="fill:#800000;stroke:none;stroke-width:0;fill-opacity:0.15" /><circle id="seed-ex-9" cx="18.891789367798975" cy="-66.32153903091735" r="20.6197128129211" style="fill:#800000;stroke:none;stroke-width:0;fill-opacity:0.15" /><circle id="seed-ex-10" cx="-21.291789367798977" cy="-70.47846096908266" r="20.564287187078897" style="fill:#800000;stroke:none;stroke-width:0;fill-opacity:0.15" /><circle id="seed-ex-11" cx="-44.8189616428459" cy="-50.4287187078898" r="22.452950417228138" style="fill:#800000;stroke:none;stroke-width:0;fill-opacity:0.15" /><circle id="seed-ex-12" cx="-72.48203230275509" cy="-13.599999999999998" r="22.37904958277186" style="fill:#800000;stroke:none;stroke-width:0;fill-opacity:0.15" /><circle id="seed-ex-13" cx="-66.88203230275508" cy="16.799999999999997" r="20.619712812921104" style="fill:#800000;stroke:none;stroke-width:0;fill-opacity:0.15" /><circle id="seed-ex-14" cx="-50.390242934956106" cy="53.67846096908266" r="20.564287187078897" style="fill:#800000;stroke:none;stroke-width:0;fill-opacity:0.15" /><circle id="seed-ex-15" cx="-21.263070659909182" cy="64.0287187078898" r="22.452950417228134" style="fill:#800000;stroke:none;stroke-width:0;fill-opacity:0.15" /><circle id="seed-ex-16" cx="-50.12819165492774" cy="-11.783905292912342" r="22.52820381865551" style="fill:#800000;stroke:none;stroke-width:0;fill-opacity:0.15" /><circle id="seed-ex-17" cx="-7.884833243867394" cy="-53.89816851174655" r="20.608258107199113" style="fill:#800000;stroke:none;stroke-width:0;fill-opacity:0.15" /><circle id="seed-ex-18" cx="30.7895820728073" cy="27.305357003828664" r="23.301634610036" style="fill:#800000;stroke:none;stroke-width:0;fill-opacity:0.15" /><circle id="seed-ex-19" cx="45.67972324216603" cy="6.007924560759022" r="23.45492802041489" style="fill:#800000;stroke:none;stroke-width:0;fill-opacity:0.15" /><circle id="seed-ex-20" cx="2.9130638666892645" cy="50.54828222106636" r="23.444602808573322" style="fill:#800000;stroke:none;stroke-width:0;fill-opacity:0.15" /><circle id="seed-ex-21" cx="-36.68266010122426" cy="-29.948273381932427" r="22.896368559445374" style="fill:#800000;stroke:none;stroke-width:0;fill-opacity:0.15" /><circle id="seed-ex-22" cx="-25.073732940706368" cy="36.74773390507562" r="21.68732203181095" style="fill:#800000;stroke:none;stroke-width:0;fill-opacity:0.15" /><circle id="seed-ex-23" cx="20.261998385236296" cy="-43.54355296681402" r="21.594119499090315" style="fill:#800000;stroke:none;stroke-width:0;fill-opacity:0.15" /><circle id="seed-ex-24" cx="18.646116740054342" cy="5.438351861800643" r="22.83061362076846" style="fill:#800000;stroke:none;stroke-width:0;fill-opacity:0.15" /><circle id="seed-ex-25" cx="-40.351413596891554" cy="20.84299781239428" r="20.683482141209396" style="fill:#800000;stroke:none;stroke-width:0;fill-opacity:0.15" /><circle id="seed-ex-26" cx="45.85977528787523" cy="-17.885498153982947" r="23.45908614429722" style="fill:#800000;stroke:none;stroke-width:0;fill-opacity:0.15" /><circle id="seed-ex-27" cx="4.977547937251949" cy="-17.189320643390605" r="21.942330265582513" style="fill:#800000;stroke:none;stroke-width:0;fill-opacity:0.15" /><circle id="seed-ex-28" cx="-16.488067664614636" cy="12.915341900348258" r="21.706367807548766" style="fill:#800000;stroke:none;stroke-width:0;fill-opacity:0.15" /><circle id="seed-ex-29" cx="5.299820926220516" cy="25.84619095828087" r="22.978120879933822" style="fill:#800000;stroke:none;stroke-width:0;fill-opacity:0.15" /></g><g id="margin_exclusion" inkscape:label="Margin Exclusion" inkscape:groupmode="layer" style="display:none"><circle id="circle1217" cx="17.32050807568877" cy="70.0" r="22.0" style="fill:#000080;stroke:none;stroke-width:0;fill-opacity:0.15" /><circle id="circle1218" cx="51.96152422706631" cy="50.0" r="22.0" style="fill:#000080;stroke:none;stroke-width:0;fill-opacity:0.15" /><circle id="circle1219" cx="69.28203230275508" cy="20.0" r="22.0" style="fill:#000080;stroke:none;stroke-width:0;fill-opacity:0.15" /><circle id="circle1220" cx="69.28203230275508" cy="-20.0" r="22.0" style="fill:#000080;stroke:none;stroke-width:0;fill-opacity:0.15" /><circle id="circle1221" cx="57.682540530854425" cy="-46.696969696969695" r="14.626277721963305" style="fill:#000080;stroke:none;stroke-width:0;fill-opacity:0.15" /><circle id="circle1222" cx="33.31918790349603" cy="-60.76315789473684" r="17.001317595998255" style="fill:#000080;stroke:none;stroke-width:0;fill-opacity:0.15" /><circle id="circle1223" cx="10.153401285748608" cy="-74.13793103448275" r="12.828094168659659" style="fill:#000080;stroke:none;stroke-width:0;fill-opacity:0.15" /><circle id="circle1224" cx="-10.153401285748588" cy="-74.13793103448276" r="12.828094168659659" style="fill:#000080;stroke:none;stroke-width:0;fill-opacity:0.15" /><circle id="circle1225" cx="-33.31918790349603" cy="-60.76315789473684" r="17.001317595998255" style="fill:#000080;stroke:none;stroke-width:0;fill-opacity:0.15" /><circle id="circle1226" cx="-57.68254053085442" cy="-46.6969696969697" r="14.626277721963307" style="fill:#000080;stroke:none;stroke-width:0;fill-opacity:0.15" /><circle id="circle1227" cx="-69.28203230275508" cy="-26.606060606060602" r="14.626277721963305" style="fill:#000080;stroke:none;stroke-width:0;fill-opacity:0.15" /><circle id="circle1228" cx="-69.28203230275508" cy="1.526315789473685" r="17.00131759599826" style="fill:#000080;stroke:none;stroke-width:0;fill-opacity:0.15" /><circle id="circle1229" cx="-69.28203230275508" cy="28.275862068965523" r="12.828094168659662" style="fill:#000080;stroke:none;stroke-width:0;fill-opacity:0.15" /><circle id="circle1230" cx="-59.12863101700649" cy="45.862068965517246" r="12.828094168659664" style="fill:#000080;stroke:none;stroke-width:0;fill-opacity:0.15" /><circle id="circle1231" cx="-35.962844399259055" cy="59.23684210526316" r="17.001317595998252" style="fill:#000080;stroke:none;stroke-width:0;fill-opacity:0.15" /><circle id="circle1232" cx="-11.59949177190066" cy="73.30303030303031" r="14.626277721963305" style="fill:#000080;stroke:none;stroke-width:0;fill-opacity:0.15" /></g><g id="circles" inkscape:label="Inscribed Circles" inkscape:groupmode="layer" style="display:none"><circle id="incircle-0" cx="0.0" cy="80.0" r="13.296616110875735" style="fill:#008000;stroke:none;stroke-width:0;fill-opacity:0.15" /><circle id="incircle-ctr-0" cx="0.0" cy="80.0" r="0.5" style="fill:#000000;stroke:none;stroke-width:0" /><circle id="incircle-1" cx="69.28203230275508" cy="40.0" r="19.999999999999996" style="fill:#008000;stroke:none;stroke-width:0;fill-opacity:0.15" /><circle id="incircle-ctr-1" cx="69.28203230275508" cy="40.0" r="0.5" style="fill:#000000;stroke:none;stroke-width:0" /><circle id="incircle-2" cx="69.28203230275508" cy="-40.0" r="13.296616110875723" style="fill:#008000;stroke:none;stroke-width:0;fill-opacity:0.15" /><circle id="incircle-ctr-2" cx="69.28203230275508" cy="-40.0" r="0.5" style="fill:#000000;stroke:none;stroke-width:0" /><circle id="incircle-3" cx="0.0" cy="-80.0" r="11.661903789690598" style="fill:#008000;stroke:none;stroke-width:0;fill-opacity:0.15" /><circle id="incircle-ctr-3" cx="0.0" cy="-80.0" r="0.5" style="fill:#000000;stroke:none;stroke-width:0" /><circle id="incircle-4" cx="-69.28203230275508" cy="-40.0" r="13.296616110875734" style="fill:#008000;stroke:none;stroke-width:0;fill-opacity:0.15" /><circle id="incircle-ctr-4" cx="-69.28203230275508" cy="-40.0" r="0.5" style="fill:#000000;stroke:none;stroke-width:0" /><circle id="incircle-5" cx="-69.28203230275508" cy="40.0" r="11.661903789690601" style="fill:#008000;stroke:none;stroke-width:0;fill-opacity:0.15" /><circle id="incircle-ctr-5" cx="-69.28203230275508" cy="40.0" r="0.5" style="fill:#000000;stroke:none;stroke-width:0" /><circle id="incircle-6" cx="34.64101615137754" cy="60.0" r="16.46035559388578" style="fill:#008000;stroke:none;stroke-width:0;fill-opacity:0.15" /><circle id="incircle-ctr-6" cx="34.64101615137754" cy="60.0" r="0.5" style="fill:#000000;stroke:none;stroke-width:0" /><circle id="incircle-7" cx="69.28203230275508" cy="0.0" r="12.177480758754424" style="fill:#008000;stroke:none;stroke-width:0;fill-opacity:0.15" /><circle id="incircle-ctr-7" cx="69.28203230275508" cy="0.0" r="0.5" style="fill:#000000;stroke:none;stroke-width:0" /><circle id="incircle-8" cx="45.50086421717523" cy="-53.73006379585327" r="11.991951301261409" style="fill:#008000;stroke:none;stroke-width:0;fill-opacity:0.15" /><circle id="incircle-ctr-8" cx="45.50086421717523" cy="-53.73006379585327" r="0.5" style="fill:#000000;stroke:none;stroke-width:0" /><circle id="incircle-9" cx="21.73629459462231" cy="-67.4505444646098" r="12.36574651914639" style="fill:#008000;stroke:none;stroke-width:0;fill-opacity:0.15" /><circle id="incircle-ctr-9" cx="21.73629459462231" cy="-67.4505444646098" r="0.5" style="fill:#000000;stroke:none;stroke-width:0" /><circle id="incircle-10" cx="-21.736294594622308" cy="-67.4505444646098" r="8.58629562663672" style="fill:#008000;stroke:none;stroke-width:0;fill-opacity:0.15" /><circle id="incircle-ctr-10" cx="-21.736294594622308" cy="-67.4505444646098" r="0.5" style="fill:#000000;stroke:none;stroke-width:0" /><circle id="incircle-11" cx="-45.50086421717522" cy="-53.73006379585327" r="13.833437634388076" style="fill:#008000;stroke:none;stroke-width:0;fill-opacity:0.15" /><circle id="incircle-ctr-11" cx="-45.50086421717522" cy="-53.73006379585327" r="0.5" style="fill:#000000;stroke:none;stroke-width:0" /><circle id="incircle-12" cx="-69.28203230275508" cy="-12.539872408293459" r="7.9384094609109" style="fill:#008000;stroke:none;stroke-width:0;fill-opacity:0.15" /><circle id="incircle-ctr-12" cx="-69.28203230275508" cy="-12.539872408293459" r="0.5" style="fill:#000000;stroke:none;stroke-width:0" /><circle id="incircle-13" cx="-69.28203230275508" cy="14.9010889292196" r="13.153463290938605" style="fill:#008000;stroke:none;stroke-width:0;fill-opacity:0.15" /><circle id="incircle-ctr-13" cx="-69.28203230275508" cy="14.9010889292196" r="0.5" style="fill:#000000;stroke:none;stroke-width:0" /><circle id="incircle-14" cx="-47.545737708132776" cy="52.5494555353902" r="12.235957188227646" style="fill:#008000;stroke:none;stroke-width:0;fill-opacity:0.15" /><circle id="incircle-ctr-14" cx="-47.545737708132776" cy="52.5494555353902" r="0.5" style="fill:#000000;stroke:none;stroke-width:0" /><circle id="incircle-15" cx="-23.78116808557986" cy="66.26993620414673" r="13.83343763438808" style="fill:#008000;stroke:none;stroke-width:0;fill-opacity:0.15" /><circle id="incircle-ctr-15" cx="-23.78116808557986" cy="66.26993620414673" r="0.5" style="fill:#000000;stroke:none;stroke-width:0" /><circle id="incircle-16" cx="-48.71303460633122" cy="-8.167717581781858" r="12.9170810544034" style="fill:#008000;stroke:none;stroke-width:0;fill-opacity:0.15" /><circle id="incircle-ctr-16" cx="-48.71303460633122" cy="-8.167717581781858" r="0.5" style="fill:#000000;stroke:none;stroke-width:0" /><circle id="incircle-17" cx="-9.031774282912172" cy="-48.3578705618015" r="14.159104371662664" style="fill:#008000;stroke:none;stroke-width:0;fill-opacity:0.15" /><circle id="incircle-ctr-17" cx="-9.031774282912172" cy="-48.3578705618015" r="0.5" style="fill:#000000;stroke:none;stroke-width:0" /><circle id="incircle-18" cx="32.08833443241864" cy="29.430387346913513" r="13.990644639040053" style="fill:#008000;stroke:none;stroke-width:0;fill-opacity:0.15" /><circle id="incircle-ctr-18" cx="32.08833443241864" cy="29.430387346913513" r="0.5" style="fill:#000000;stroke:none;stroke-width:0" /><circle id="incircle-19" cx="45.54675233209873" cy="6.899820091598993" r="12.186085809851242" style="fill:#008000;stroke:none;stroke-width:0;fill-opacity:0.15" /><circle id="incircle-ctr-19" cx="45.54675233209873" cy="6.899820091598993" r="0.5" style="fill:#000000;stroke:none;stroke-width:0" /><circle id="incircle-20" cx="5.472785628337009" cy="51.941229041563695" r="13.548876594857521" style="fill:#008000;stroke:none;stroke-width:0;fill-opacity:0.15" /><circle id="incircle-ctr-20" cx="5.472785628337009" cy="51.941229041563695" r="0.5" style="fill:#000000;stroke:none;stroke-width:0" /><circle id="incircle-21" cx="-29.462564078628986" cy="-28.05158490887653" r="14.070777718441382" style="fill:#008000;stroke:none;stroke-width:0;fill-opacity:0.15" /><circle id="incircle-ctr-21" cx="-29.462564078628986" cy="-28.05158490887653" r="0.5" style="fill:#000000;stroke:none;stroke-width:0" /><circle id="incircle-22" cx="-23.631249303899864" cy="37.52155258614664" r="12.584217567970548" style="fill:#008000;stroke:none;stroke-width:0;fill-opacity:0.15" /><circle id="incircle-ctr-22" cx="-23.631249303899864" cy="37.52155258614664" r="0.5" style="fill:#000000;stroke:none;stroke-width:0" /><circle id="incircle-23" cx="22.475581940394818" cy="-40.937729419319425" r="14.089243499179847" style="fill:#008000;stroke:none;stroke-width:0;fill-opacity:0.15" /><circle id="incircle-ctr-23" cx="22.475581940394818" cy="-40.937729419319425" r="0.5" style="fill:#000000;stroke:none;stroke-width:0" /><circle id="incircle-24" cx="19.410431119215332" cy="4.587469085270082" r="12.77358153790031" style="fill:#008000;stroke:none;stroke-width:0;fill-opacity:0.15" /><circle id="incircle-ctr-24" cx="19.410431119215332" cy="4.587469085270082" r="0.5" style="fill:#000000;stroke:none;stroke-width:0" /><circle id="incircle-25" cx="-40.682132306966864" cy="19.203742962048572" r="12.36990494122134" style="fill:#008000;stroke:none;stroke-width:0;fill-opacity:0.15" /><circle id="incircle-ctr-25" cx="-40.682132306966864" cy="19.203742962048572" r="0.5" style="fill:#000000;stroke:none;stroke-width:0" /><circle id="incircle-26" cx="44.74040446144276" cy="-21.130267393560075" r="14.692635866303538" style="fill:#008000;stroke:none;stroke-width:0;fill-opacity:0.15" /><circle id="incircle-ctr-26" cx="44.74040446144276" cy="-21.130267393560075" r="0.5" style="fill:#000000;stroke:none;stroke-width:0" /><circle id="incircle-27" cx="0.6118890487710704" cy="-18.35605482444958" r="16.4138033132937" style="fill:#008000;stroke:none;stroke-width:0;fill-opacity:0.15" /><circle id="incircle-ctr-27" cx="0.6118890487710704" cy="-18.35605482444958" r="0.5" style="fill:#000000;stroke:none;stroke-width:0" /><circle id="incircle-28" cx="-15.78467817781352" cy="8.372554244329436" r="14.379739592129994" style="fill:#008000;stroke:none;stroke-width:0;fill-opacity:0.15" /><circle id="incircle-ctr-28" cx="-15.78467817781352" cy="8.372554244329436" r="0.5" style="fill:#000000;stroke:none;stroke-width:0" /><circle id="incircle-29" cx="5.085874908675614" cy="25.764573457322182" r="12.241037853563624" style="fill:#008000;stroke:none;stroke-width:0;fill-opacity:0.15" /><circle id="incircle-ctr-29" cx="5.085874908675614" cy="25.764573457322182" r="0.5" style="fill:#000000;stroke:none;stroke-width:0" /></g><g id="annotations" inkscape:label="Annotations" inkscape:groupmode="layer" transform="scale(1,-1)"><text id="text1233" x="-92" y="84.5" style="font-style:normal;font-weight:normal;font-size:4px;font-family:sans-serif;fill:#000000;fill-opacity:1;stroke:none"><tspan x="-92" y="84.5">id: 402</tspan></text><ns0:text xml:space="preserve" style="font-style:normal;font-weight:normal;font-size:4.23333px;line-height:1.25;font-family:sans-serif;text-align:center;text-anchor:middle;fill:#000000;fill-opacity:1;stroke:none;stroke-width:0.264583" x="-1.7974526e-07" y="0" id="tile-id" transform="translate(0 -72)"><ns0:tspan ns1:role="line" id="tspan439" style="font-style:normal;font-variant:normal;font-weight:bold;font-stretch:normal;font-size:4.23333px;font-family:'Arial Black';-inkscape-font-specification:'Arial Black,  Bold';text-align:center;text-anchor:middle;fill:#808080;fill-opacity:1;stroke-width:0.264583" x="-1.4621764e-07" y="0">402</ns0:tspan></ns0:text>
  <text id="text1234" x="-92" y="90.0" style="font-style:normal;font-weight:normal;font-size:4px;font-family:sans-serif;fill:#000000;fill-opacity:1;stroke:none"><tspan x="-92" y="90.0">size: 80</tspan></text><text id="text1235" x="-92" y="95.5" style="font-style:normal;font-weight:normal;font-size:4px;font-family:sans-serif;fill:#000000;fill-opacity:1;stroke:none"><tspan x="-92" y="95.5">rng seed 1713</tspan></text><text id="text1236" x="-92" y="101.0" style="font-style:normal;font-weight:normal;font-size:4px;font-family:sans-serif;fill:#000000;fill-opacity:1;stroke:none"><tspan x="-92" y="101.0">pattern 111212 / lllmlm</tspan></text><text id="text1237" x="-92" y="106.5" style="font-style:normal;font-weight:normal;font-size:4px;font-family:sans-serif;fill:#000000;fill-opacity:1;stroke:none"><tspan x="-92" y="106.5">seed attempts: 20</tspan></text><text id="text1238" x="-92" y="112.0" style="font-style:normal;font-weight:normal;font-size:4px;font-family:sans-serif;fill:#000000;fill-opacity:1;stroke:none"><tspan x="-92" y="112.0">seed distance: l 0.3; m 0.24; h 0.2</tspan></text><text id="text1239" x="-92" y="117.5" style="font-style:normal;font-weight:normal;font-size:4px;font-family:sans-serif;fill:#000000;fill-opacity:1;stroke:none"><tspan x="-92" y="117.5">center: (AVG) 0.28</tspan></text><text id="text1240" x="-92" y="123.0" style="font-style:normal;font-weight:normal;font-size:4px;font-family:sans-serif;fill:#000000;fill-opacity:1;stroke:none"><tspan x="-92" y="123.0">min ridge length: 0.08; at edge: 0.04</tspan></text><text id="text1241" x="-92" y="128.5" style="font-style:normal;font-weight:normal;font-size:4px;font-family:sans-serif;fill:#000000;fill-opacity:1;stroke:none"><tspan x="-92" y="128.5">edge margin exclusion zone scale: 1.1</tspan></text><text id="text1242" x="-92" y="134.0" style="font-style:normal;font-weight:normal;font-size:4px;font-family:sans-serif;fill:#000000;fill-opacity:1;stroke:none"><tspan x="-92" y="134.0">iterations: 179</tspan></text><text id="text1243" x="-92" y="139.5" style="font-style:normal;font-weight:normal;font-size:4px;font-family:sans-serif;fill:#000000;fill-opacity:1;stroke:none"><tspan x="-92" y="139.5">adjustments: side 0.011, neighbor -0.009</tspan></text><text id="text1244" x="-92" y="145.0" style="font-style:normal;font-weight:normal;font-size:4px;font-family:sans-serif;fill:#000000;fill-opacity:1;stroke:none"><tspan x="-92" y="145.0">closeness: 0.9, adjust -0.013</tspan></text><text id="text1245" x="-1.5" y="-82" style="font-style:normal;font-weight:normal;font-size:4px;font-family:sans-serif;fill:#000000;fill-opacity:1;stroke:none"><tspan x="-1.5" y="-82">L</tspan></text><text id="text1246" x="-1.5" y="-82" style="font-style:normal;font-weight:normal;font-size:4px;font-family:sans-serif;fill:#000000;fill-opacity:1;stroke:none" transform="rotate(60)"><tspan x="-1.5" y="-82">L</tspan></text><text id="text1247" x="-1.5" y="-82" style="font-style:normal;font-weight:normal;font-size:4px;font-family:sans-serif;fill:#000000;fill-opacity:1;stroke:none" transform="rotate(120)"><tspan x="-1.5" y="-82">L</tspan></text><text id="text1248" x="-1.5" y="-82" style="font-style:normal;font-weight:normal;font-size:4px;font-family:sans-serif;fill:#000000;fill-opacity:1;stroke:none" transform="rotate(180)"><tspan x="-1.5" y="-82">M</tspan></text><text id="text1249" x="-1.5" y="-82" style="font-style:normal;font-weight:normal;font-size:4px;font-family:sans-serif;fill:#000000;fill-opacity:1;stroke:none" transform="rotate(240)"><tspan x="-1.5" y="-82">L</tspan></text><text id="text1250" x="-1.5" y="-82" style="font-style:normal;font-weight:normal;font-size:4px;font-family:sans-serif;fill:#000000;fill-opacity:1;stroke:none" transform="rotate(300)"><tspan x="-1.5" y="-82">M</tspan></text><g id="node1251" transform="rotate(30)"><text id="text1252" x="-1.5" y="-72.28203230275508" style="font-style:normal;font-weight:normal;font-size:4px;font-family:sans-serif;fill:#000000;fill-opacity:1;stroke:none"><tspan x="-1.5" y="-72.28203230275508">L</tspan></text></g><g id="node1253" transform="rotate(90)"><text id="text1254" x="-1.5" y="-72.28203230275508" style="font-style:normal;font-weight:normal;font-size:4px;font-family:sans-serif;fill:#000000;fill-opacity:1;stroke:none"><tspan x="-1.5" y="-72.28203230275508">L</tspan></text></g><g id="node1255" transform="rotate(150)"><text id="text1256" x="-15.099999999999998" y="-72.28203230275508" style="font-style:normal;font-weight:normal;font-size:4px;font-family:sans-serif;fill:#000000;fill-opacity:1;stroke:none"><tspan x="-15.099999999999998" y="-72.28203230275508">L</tspan></text><text id="text1257" x="15.299999999999997" y="-72.28203230275508" style="font-style:normal;font-weight:normal;font-size:4px;font-family:sans-serif;fill:#000000;fill-opacity:1;stroke:none"><tspan x="15.299999999999997" y="-72.28203230275508">L</tspan></text></g><g id="node1258" transform="rotate(210)"><text id="text1259" x="-18.299999999999997" y="-72.28203230275508" style="font-style:normal;font-weight:normal;font-size:4px;font-family:sans-serif;fill:#000000;fill-opacity:1;stroke:none"><tspan x="-18.299999999999997" y="-72.28203230275508">L</tspan></text><text id="text1260" x="12.099999999999994" y="-72.28203230275508" style="font-style:normal;font-weight:normal;font-size:4px;font-family:sans-serif;fill:#000000;fill-opacity:1;stroke:none"><tspan x="12.099999999999994" y="-72.28203230275508">L</tspan></text></g><g id="node1261" transform="rotate(270)"><text id="text1262" x="-15.099999999999998" y="-72.28203230275508" style="font-style:normal;font-weight:normal;font-size:4px;font-family:sans-serif;fill:#000000;fill-opacity:1;stroke:none"><tspan x="-15.099999999999998" y="-72.28203230275508">L</tspan></text><text id="text1263" x="15.299999999999997" y="-72.28203230275508" style="font-style:normal;font-weight:normal;font-size:4px;font-family:sans-serif;fill:#000000;fill-opacity:1;stroke:none"><tspan x="15.299999999999997" y="-72.28203230275508">L</tspan></text></g><g id="node1264" transform="rotate(330)"><text id="text1265" x="-18.299999999999997" y="-72.28203230275508" style="font-style:normal;font-weight:normal;font-size:4px;font-family:sans-serif;fill:#000000;fill-opacity:1;stroke:none"><tspan x="-18.299999999999997" y="-72.28203230275508">L</tspan></text><text id="text1266" x="12.099999999999994" y="-72.28203230275508" style="font-style:normal;font-weight:normal;font-size:4px;font-family:sans-serif;fill:#000000;fill-opacity:1;stroke:none"><tspan x="12.099999999999994" y="-72.28203230275508">L</tspan></text></g><g id="node1267" transform="rotate(150)"><rect id="rect1268" x="0.10000000000000142" y="-77.28203230275508" width="3" height="8" style="fill:#a2c6ff;stroke:#000000;stroke-width:0.3" /><text id="text1269" x="0.10000000000000142" y="-79.28203230275508" style="font-style:normal;font-weight:normal;font-size:4px;font-family:sans-serif;fill:#000000;fill-opacity:1;stroke:none"><tspan x="0.10000000000000142" y="-79.28203230275508">R</tspan></text></g><g id="node1270" transform="rotate(210)"><rect id="rect1271" x="-3.1000000000000014" y="-77.28203230275508" width="3" height="8" style="fill:#a2c6ff;stroke:#000000;stroke-width:0.3" /><text id="text1272" x="-3.1000000000000014" y="-79.28203230275508" style="font-style:normal;font-weight:normal;font-size:4px;font-family:sans-serif;fill:#000000;fill-opacity:1;stroke:none"><tspan x="-3.1000000000000014" y="-79.28203230275508">R</tspan></text></g><g id="node1273" transform="rotate(270)"><rect id="rect1274" x="0.10000000000000142" y="-77.28203230275508" width="3" height="8" style="fill:#a2c6ff;stroke:#000000;stroke-width:0.3" /><text id="text1275" x="0.10000000000000142" y="-79.28203230275508" style="font-style:normal;font-weight:normal;font-size:4px;font-family:sans-serif;fill:#000000;fill-opacity:1;stroke:none"><tspan x="0.10000000000000142" y="-79.28203230275508">R</tspan></text></g><g id="node1276" transform="rotate(330)"><rect id="rect1277" x="-3.1000000000000014" y="-77.28203230275508" width="3" height="8" style="fill:#a2c6ff;stroke:#000000;stroke-width:0.3" /><text id="text1278" x="-3.1000000000000014" y="-79.28203230275508" style="font-style:normal;font-weight:normal;font-size:4px;font-family:sans-serif;fill:#000000;fill-opacity:1;stroke:none"><tspan x="-3.1000000000000014" y="-79.28203230275508">R</tspan></text></g><circle id="mana" cx="50" cy="110" r="7.5" style="fill:#000000;stroke:none;stroke-width:0" /><rect id="rect1279" x="75" y="90" width="15" height="6" style="fill:#be850a;stroke:#000000;stroke-width:0.3" /><text id="text1280" x="70" y="94.5" style="font-style:normal;font-weight:normal;font-size:4px;font-family:sans-serif;fill:#000000;fill-opacity:1;stroke:none"><tspan x="70" y="94.5">V</tspan></text><rect id="rect1281" x="75" y="100" width="15" height="6" style="fill:#e7a311;stroke:#000000;stroke-width:0.3" /><text id="text1282" x="70" y="104.5" style="font-style:normal;font-weight:normal;font-size:4px;font-family:sans-serif;fill:#000000;fill-opacity:1;stroke:none"><tspan x="70" y="104.5">H</tspan></text><rect id="rect1283" x="75" y="110" width="15" height="6" style="fill:#f0ce76;stroke:#000000;stroke-width:0.3" /><text id="text1284" x="70" y="114.5" style="font-style:normal;font-weight:normal;font-size:4px;font-family:sans-serif;fill:#000000;fill-opacity:1;stroke:none"><tspan x="70" y="114.5">M</tspan></text><rect id="rect1285" x="75" y="120" width="15" height="6" style="fill:#f0eaac;stroke:#000000;stroke-width:0.3" /><text id="text1286" x="70" y="124.5" style="font-style:normal;font-weight:normal;font-size:4px;font-family:sans-serif;fill:#000000;fill-opacity:1;stroke:none"><tspan x="70" y="124.5">L</tspan></text><rect id="rect1287" x="75" y="130" width="15" height="6" style="fill:#a2c6ff;stroke:#000000;stroke-width:0.3" /><text id="text1288" x="70" y="134.5" style="font-style:normal;font-weight:normal;font-size:4px;font-family:sans-serif;fill:#000000;fill-opacity:1;stroke:none"><tspan x="70" y="134.5">R</tspan></text></g><g id="river-border" inkscape:label="River Border" inkscape:groupmode="layer"><path id="path1289" d="m -39.4865 -68.0002 13.0899 15.3602 z" style="fill:none;stroke:#000000;stroke-width:2.6;stroke-linecap:round;stroke-linejoin:round" /><path id="path1290" d="m -13.4751 -31.3316 -12.3104 -14.8022 z" style="fill:none;stroke:#000000;stroke-width:2.6;stroke-linecap:round;stroke-linejoin:round" /><path id="path1291" d="m -26.3967 -52.64 0.611167 6.5062 z" style="fill:none;stroke:#000000;stroke-width:2.6;stroke-linecap:round;stroke-linejoin:round" /><path id="path1292" d="m 39.7007 -37.3388 -14.375 14.3413 z" style="fill:none;stroke:#000000;stroke-width:2.6;stroke-linecap:round;stroke-linejoin:round" /><path id="path1293" d="m 39.7007 -37.3388 -8.19852 -18.3111 z" style="fill:none;stroke:#000000;stroke-width:2.6;stroke-linecap:round;stroke-linejoin:round" /><path id="path1294" d="m 31.5022 -55.6499 5.16447 -14.5336 z" style="fill:none;stroke:#000000;stroke-width:2.6;stroke-linecap:round;stroke-linejoin:round" /><path id="path1295" d="m 18.4289 19.8643 13.5951 -7.54983 z" style="fill:none;stroke:#000000;stroke-width:2.6;stroke-linecap:round;stroke-linejoin:round" /><path id="path1296" d="m 32.024 12.3145 0.3867 -18.3539 z" style="fill:none;stroke:#000000;stroke-width:2.6;stroke-linecap:round;stroke-linejoin:round" /><path id="path1297" d="m 25.4767 -14.1299 6.93406 8.09048 z" style="fill:none;stroke:#000000;stroke-width:2.6;stroke-linecap:round;stroke-linejoin:round" /><path id="path1298" d="m 17.3064 39.4726 1.12248 -19.6083 z" style="fill:none;stroke:#000000;stroke-width:2.6;stroke-linecap:round;stroke-linejoin:round" /><path id="path1299" d="m 17.3064 39.4726 -25.1305 -2.42815 z" style="fill:none;stroke:#000000;stroke-width:2.6;stroke-linecap:round;stroke-linejoin:round" /><path id="path1300" d="m -7.82408 37.0445 -3.11026 -8.66571 z" style="fill:none;stroke:#000000;stroke-width:2.6;stroke-linecap:round;stroke-linejoin:round" /><path id="path1301" d="m 25.3257 -22.9975 0.151004 8.86756 z" style="fill:none;stroke:#000000;stroke-width:2.6;stroke-linecap:round;stroke-linejoin:round" /><path id="path1302" d="m -13.4751 -31.3316 -5.95496 19.444 z" style="fill:none;stroke:#000000;stroke-width:2.6;stroke-linecap:round;stroke-linejoin:round" /><path id="path1303" d="m -13.7557 49.0734 -19.5669 2.73314 z" style="fill:none;stroke:#000000;stroke-width:2.6;stroke-linecap:round;stroke-linejoin:round" /><path id="path1304" d="m -33.3225 51.8066 -5.82409 16.3899 z" style="fill:none;stroke:#000000;stroke-width:2.6;stroke-linecap:round;stroke-linejoin:round" /><path id="path1305" d="m -7.82408 37.0445 -5.93158 12.0289 z" style="fill:none;stroke:#000000;stroke-width:2.6;stroke-linecap:round;stroke-linejoin:round" /><path id="path1306" d="m -26.4572 22.7866 15.5229 5.59215 z" style="fill:none;stroke:#000000;stroke-width:2.6;stroke-linecap:round;stroke-linejoin:round" /><path id="path1307" d="m -26.4572 22.7866 -7.21657 -21.7229 z" style="fill:none;stroke:#000000;stroke-width:2.6;stroke-linecap:round;stroke-linejoin:round" /><path id="path1308" d="m -19.4301 -11.8876 -7.23853 3.41033 z" style="fill:none;stroke:#000000;stroke-width:2.6;stroke-linecap:round;stroke-linejoin:round" /><path id="path1309" d="m -33.6738 1.06375 7.00519 -9.54099 z" style="fill:none;stroke:#000000;stroke-width:2.6;stroke-linecap:round;stroke-linejoin:round" /><path id="path1310" d="m -33.6738 1.06375 -18.0616 5.41223 z" style="fill:none;stroke:#000000;stroke-width:2.6;stroke-linecap:round;stroke-linejoin:round" /><path id="path1311" d="m -51.7354 6.47597 -10.6212 -6.2254 z" style="fill:none;stroke:#000000;stroke-width:2.6;stroke-linecap:round;stroke-linejoin:round" /><path id="path1312" d="m -62.3566 0.250579 -16.7574 3.0869 z" style="fill:none;stroke:#000000;stroke-width:2.6;stroke-linecap:round;stroke-linejoin:round" /></g><g id="river" inkscape:label="River" inkscape:groupmode="layer"><path id="path1289" d="m -39.4865 -68.0002 13.0899 15.3602 z" style="fill:none;stroke:#a2c6ff;stroke-width:2.0;stroke-linecap:round;stroke-linejoin:round" /><path id="path1290" d="m -13.4751 -31.3316 -12.3104 -14.8022 z" style="fill:none;stroke:#a2c6ff;stroke-width:2.0;stroke-linecap:round;stroke-linejoin:round" /><path id="path1291" d="m -26.3967 -52.64 0.611167 6.5062 z" style="fill:none;stroke:#a2c6ff;stroke-width:2.0;stroke-linecap:round;stroke-linejoin:round" /><path id="path1292" d="m 39.7007 -37.3388 -14.375 14.3413 z" style="fill:none;stroke:#a2c6ff;stroke-width:2.0;stroke-linecap:round;stroke-linejoin:round" /><path id="path1293" d="m 39.7007 -37.3388 -8.19852 -18.3111 z" style="fill:none;stroke:#a2c6ff;stroke-width:2.0;stroke-linecap:round;stroke-linejoin:round" /><path id="path1294" d="m 31.5022 -55.6499 5.16447 -14.5336 z" style="fill:none;stroke:#a2c6ff;stroke-width:2.0;stroke-linecap:round;stroke-linejoin:round" /><path id="path1295" d="m 18.4289 19.8643 13.5951 -7.54983 z" style="fill:none;stroke:#a2c6ff;stroke-width:2.0;stroke-linecap:round;stroke-linejoin:round" /><path id="path1296" d="m 32.024 12.3145 0.3867 -18.3539 z" style="fill:none;stroke:#a2c6ff;stroke-width:2.0;stroke-linecap:round;stroke-linejoin:round" /><path id="path1297" d="m 25.4767 -14.1299 6.93406 8.09048 z" style="fill:none;stroke:#a2c6ff;stroke-width:2.0;stroke-linecap:round;stroke-linejoin:round" /><path id="path1298" d="m 17.3064 39.4726 1.12248 -19.6083 z" style="fill:none;stroke:#a2c6ff;stroke-width:2.0;stroke-linecap:round;stroke-linejoin:round" /><path id="path1299" d="m 17.3064 39.4726 -25.1305 -2.42815 z" style="fill:none;stroke:#a2c6ff;stroke-width:2.0;stroke-linecap:round;stroke-linejoin:round" /><path id="path1300" d="m -7.82408 37.0445 -3.11026 -8.66571 z" style="fill:none;stroke:#a2c6ff;stroke-width:2.0;stroke-linecap:round;stroke-linejoin:round" /><path id="path1301" d="m 25.3257 -22.9975 0.151004 8.86756 z" style="fill:none;stroke:#a2c6ff;stroke-width:2.0;stroke-linecap:round;stroke-linejoin:round" /><path id="path1302" d="m -13.4751 -31.3316 -5.95496 19.444 z" style="fill:none;stroke:#a2c6ff;stroke-width:2.0;stroke-linecap:round;stroke-linejoin:round" /><path id="path1303" d="m -13.7557 49.0734 -19.5669 2.73314 z" style="fill:none;stroke:#a2c6ff;stroke-width:2.0;stroke-linecap:round;stroke-linejoin:round" /><path id="path1304" d="m -33.3225 51.8066 -5.82409 16.3899 z" style="fill:none;stroke:#a2c6ff;stroke-width:2.0;stroke-linecap:round;stroke-linejoin:round" /><path id="path1305" d="m -7.82408 37.0445 -5.93158 12.0289 z" style="fill:none;stroke:#a2c6ff;stroke-width:2.0;stroke-linecap:round;stroke-linejoin:round" /><path id="path1306" d="m -26.4572 22.7866 15.5229 5.59215 z" style="fill:none;stroke:#a2c6ff;stroke-width:2.0;stroke-linecap:round;stroke-linejoin:round" /><path id="path1307" d="m -26.4572 22.7866 -7.21657 -21.7229 z" style="fill:none;stroke:#a2c6ff;stroke-width:2.0;stroke-linecap:round;stroke-linejoin:round" /><path id="path1308" d="m -19.4301 -11.8876 -7.23853 3.41033 z" style="fill:none;stroke:#a2c6ff;stroke-width:2.0;stroke-linecap:round;stroke-linejoin:round" /><path id="path1309" d="m -33.6738 1.06375 7.00519 -9.54099 z" style="fill:none;stroke:#a2c6ff;stroke-width:2.0;stroke-linecap:round;stroke-linejoin:round" /><path id="path1310" d="m -33.6738 1.06375 -18.0616 5.41223 z" style="fill:none;stroke:#a2c6ff;stroke-width:2.0;stroke-linecap:round;stroke-linejoin:round" /><path id="path1311" d="m -51.7354 6.47597 -10.6212 -6.2254 z" style="fill:none;stroke:#a2c6ff;stroke-width:2.0;stroke-linecap:round;stroke-linejoin:round" /><path id="path1312" d="m -62.3566 0.250579 -16.7574 3.0869 z" style="fill:none;stroke:#a2c6ff;stroke-width:2.0;stroke-linecap:round;stroke-linejoin:round" /></g><g id="overlay" inkscape:label="Overlay" inkscape:groupmode="layer" transform="scale(1,-1)"><ns0:path ns1:nodetypes="ccccc" ns2:connector-curvature="0" id="obj-bridge" d="m -1.3629478,2.973799 c 0.6829002,-2.17565439 0.68923869,-3.60295062 0.015075,-5.9083917 l 2.8035417,0.00714 C 0.73648446,-0.63363961 0.73738591,0.81474035 1.4406036,2.9809656 Z" style="display:inline;fill:#000000;fill-opacity:1;stroke:none;stroke-width:2.14313;stroke-linecap:round;stroke-miterlimit:4;stroke-dasharray:2.14313, 4.28625;stroke-dashoffset:0;stroke-opacity:1" transform="translate(34.1404800140411 49.75741712946211) rotate(-65.88032830141395) translate(3 0)" />
  <ns0:path ns1:nodetypes="ccccc" ns2:connector-curvature="0" id="obj-bridge" d="m -1.3629478,2.973799 c 0.6829002,-2.17565439 0.68923869,-3.60295062 0.015075,-5.9083917 l 2.8035417,0.00714 C 0.73648446,-0.63363961 0.73738591,0.81474035 1.4406036,2.9809656 Z" style="display:inline;fill:#000000;fill-opacity:1;stroke:none;stroke-width:2.14313;stroke-linecap:round;stroke-miterlimit:4;stroke-dasharray:2.14313, 4.28625;stroke-dashoffset:0;stroke-opacity:1" transform="translate(-20.780900302660502 -24.83153790271194) rotate(160.18834610425273) translate(-2 0)" />
  <ns0:path ns1:nodetypes="ccccc" ns2:connector-curvature="0" id="obj-bridge" d="m -1.3629478,2.973799 c 0.6829002,-2.17565439 0.68923869,-3.60295062 0.015075,-5.9083917 l 2.8035417,0.00714 C 0.73648446,-0.63363961 0.73738591,0.81474035 1.4406036,2.9809656 Z" style="display:inline;fill:#000000;fill-opacity:1;stroke:none;stroke-width:2.14313;stroke-linecap:round;stroke-miterlimit:4;stroke-dasharray:2.14313, 4.28625;stroke-dashoffset:0;stroke-opacity:1" transform="translate(-22.283746672545824 41.923220946839486) rotate(-50.25118156669208) translate(3.5 0)" />
  <ns0:path ns1:nodetypes="cccccccccccccccc" style="display:inline;fill:#5ba22d;fill-opacity:1;fill-rule:evenodd;stroke:#000000;stroke-width:0.225018px;stroke-linecap:butt;stroke-linejoin:miter;stroke-opacity:1" d="m -0.03929664,-3.4250467 -1.21990906,1.785649 0.63078516,0.083817 -0.84435416,1.6018086 0.68675246,-0.0203464 -0.94321836,2.1362987 1.41248336,-0.326599 -0.0770308,0.6564974 h 0.8646239 L 0.39222286,1.8758406 1.8078469,2.0800142 0.70780196,0.0885405 1.4946226,0.1491327 0.54903346,-1.6560267 1.1778369,-1.6381673 Z" id="obj-tree" ns2:connector-curvature="0" transform="translate(45.67972324216603 -6.007924560759022)" />
  <ns0:path ns1:nodetypes="cccccccccccccccc" style="display:inline;fill:#5ba22d;fill-opacity:1;fill-rule:evenodd;stroke:#000000;stroke-width:0.225018px;stroke-linecap:butt;stroke-linejoin:miter;stroke-opacity:1" d="m -0.03929664,-3.4250467 -1.21990906,1.785649 0.63078516,0.083817 -0.84435416,1.6018086 0.68675246,-0.0203464 -0.94321836,2.1362987 1.41248336,-0.326599 -0.0770308,0.6564974 h 0.8646239 L 0.39222286,1.8758406 1.8078469,2.0800142 0.70780196,0.0885405 1.4946226,0.1491327 0.54903346,-1.6560267 1.1778369,-1.6381673 Z" id="obj-tree" ns2:connector-curvature="0" transform="translate(18.646116740054342 -5.438351861800643)" />
  <ns0:path ns1:nodetypes="cccccccccccccccc" style="display:inline;fill:#5ba22d;fill-opacity:1;fill-rule:evenodd;stroke:#000000;stroke-width:0.225018px;stroke-linecap:butt;stroke-linejoin:miter;stroke-opacity:1" d="m -0.03929664,-3.4250467 -1.21990906,1.785649 0.63078516,0.083817 -0.84435416,1.6018086 0.68675246,-0.0203464 -0.94321836,2.1362987 1.41248336,-0.326599 -0.0770308,0.6564974 h 0.8646239 L 0.39222286,1.8758406 1.8078469,2.0800142 0.70780196,0.0885405 1.4946226,0.1491327 0.54903346,-1.6560267 1.1778369,-1.6381673 Z" id="obj-tree" ns2:connector-curvature="0" transform="translate(5.299820926220516 -25.84619095828087)" />
  <ns0:path ns1:nodetypes="cccccccccccccccc" style="display:inline;fill:#5ba22d;fill-opacity:1;fill-rule:evenodd;stroke:#000000;stroke-width:0.225018px;stroke-linecap:butt;stroke-linejoin:miter;stroke-opacity:1" d="m -0.03929664,-3.4250467 -1.21990906,1.785649 0.63078516,0.083817 -0.84435416,1.6018086 0.68675246,-0.0203464 -0.94321836,2.1362987 1.41248336,-0.326599 -0.0770308,0.6564974 h 0.8646239 L 0.39222286,1.8758406 1.8078469,2.0800142 0.70780196,0.0885405 1.4946226,0.1491327 0.54903346,-1.6560267 1.1778369,-1.6381673 Z" id="obj-tree" ns2:connector-curvature="0" transform="translate(-63.88203230275508 -16.799999999999997)" />
  <ns0:path ns1:nodetypes="cccccccccccccccc" style="display:inline;fill:#5ba22d;fill-opacity:1;fill-rule:evenodd;stroke:#000000;stroke-width:0.225018px;stroke-linecap:butt;stroke-linejoin:miter;stroke-opacity:1" d="m -0.03929664,-3.4250467 -1.21990906,1.785649 0.63078516,0.083817 -0.84435416,1.6018086 0.68675246,-0.0203464 -0.94321836,2.1362987 1.41248336,-0.326599 -0.0770308,0.6564974 h 0.8646239 L 0.39222286,1.8758406 1.8078469,2.0800142 0.70780196,0.0885405 1.4946226,0.1491327 0.54903346,-1.6560267 1.1778369,-1.6381673 Z" id="obj-tree" ns2:connector-curvature="0" transform="translate(-64.28203230275508 35.0)" />
  <ns0:path ns1:nodetypes="cccccccccccccccc" style="display:inline;fill:#5ba22d;fill-opacity:1;fill-rule:evenodd;stroke:#000000;stroke-width:0.225018px;stroke-linecap:butt;stroke-linejoin:miter;stroke-opacity:1" d="m -0.03929664,-3.4250467 -1.21990906,1.785649 0.63078516,0.083817 -0.84435416,1.6018086 0.68675246,-0.0203464 -0.94321836,2.1362987 1.41248336,-0.326599 -0.0770308,0.6564974 h 0.8646239 L 0.39222286,1.8758406 1.8078469,2.0800142 0.70780196,0.0885405 1.4946226,0.1491327 0.54903346,-1.6560267 1.1778369,-1.6381673 Z" id="obj-tree" ns2:connector-curvature="0" transform="translate(-7.884833243867394 53.89816851174655)" />
  <ns0:path ns1:nodetypes="cccccccccccccccc" style="display:inline;fill:#5ba22d;fill-opacity:1;fill-rule:evenodd;stroke:#000000;stroke-width:0.225018px;stroke-linecap:butt;stroke-linejoin:miter;stroke-opacity:1" d="m -0.03929664,-3.4250467 -1.21990906,1.785649 0.63078516,0.083817 -0.84435416,1.6018086 0.68675246,-0.0203464 -0.94321836,2.1362987 1.41248336,-0.326599 -0.0770308,0.6564974 h 0.8646239 L 0.39222286,1.8758406 1.8078469,2.0800142 0.70780196,0.0885405 1.4946226,0.1491327 0.54903346,-1.6560267 1.1778369,-1.6381673 Z" id="obj-tree" ns2:connector-curvature="0" transform="translate(-43.8189616428459 48.4287187078898)" />
  <ns0:path ns1:nodetypes="cccccccccccccccc" style="display:inline;fill:#5ba22d;fill-opacity:1;fill-rule:evenodd;stroke:#000000;stroke-width:0.225018px;stroke-linecap:butt;stroke-linejoin:miter;stroke-opacity:1" d="m -0.03929664,-3.4250467 -1.21990906,1.785649 0.63078516,0.083817 -0.84435416,1.6018086 0.68675246,-0.0203464 -0.94321836,2.1362987 1.41248336,-0.326599 -0.0770308,0.6564974 h 0.8646239 L 0.39222286,1.8758406 1.8078469,2.0800142 0.70780196,0.0885405 1.4946226,0.1491327 0.54903346,-1.6560267 1.1778369,-1.6381673 Z" id="obj-tree" ns2:connector-curvature="0" transform="translate(62.282032302755084 -36.0)" />
  <ns0:path ns1:nodetypes="cccccccccccccccc" style="display:inline;fill:#5ba22d;fill-opacity:1;fill-rule:evenodd;stroke:#000000;stroke-width:0.225018px;stroke-linecap:butt;stroke-linejoin:miter;stroke-opacity:1" d="m -0.03929664,-3.4250467 -1.21990906,1.785649 0.63078516,0.083817 -0.84435416,1.6018086 0.68675246,-0.0203464 -0.94321836,2.1362987 1.41248336,-0.326599 -0.0770308,0.6564974 h 0.8646239 L 0.39222286,1.8758406 1.8078469,2.0800142 0.70780196,0.0885405 1.4946226,0.1491327 0.54903346,-1.6560267 1.1778369,-1.6381673 Z" id="obj-tree" ns2:connector-curvature="0" transform="translate(-20.263070659909182 -60.028718707889794)" />
  </g><g id="border" inkscape:label="Border" inkscape:groupmode="layer"><path id="path1313" d="m 0 80 69.282 -40 0 -80 -69.282 -40 -69.282 40 0 80 z" style="fill:none;stroke:#000000;stroke-width:0.3" /></g></g></svg>