<?xml version='1.0' encoding='UTF-8'?>
<svg xmlns:ns0="http://www.w3.org/2000/svg" xmlns:ns1="http://sodipodi.sourceforge.net/DTD/sodipodi-0.dtd" version="1.1" id="svg_root" xmlns="http://www.w3.org/2000/svg" xmlns:sodipodi="http://sodipodi.sourceforge.net/DTD/sodipodi-0.dtd" xmlns:inkscape="http://www.inkscape.org/namespaces/inkscape" xmlns:xlink="http://www.w3.org/1999/xlink" width="215.9mm" height="279.4mm" viewBox="0 0 215.9 279.4"><defs /><g id="layer" inkscape:label="Layer" inkscape:groupmode="layer" transform="translate(107.95 120) scale(1, -1)"><g id="background" inkscape:label="Tile Background" inkscape:groupmode="layer"><path id="path1668" d="m 0 80 69.282 -40 0 -80 -69.282 -40 -69.282 40 0 80 z" style="fill:#000000;stroke:none;stroke-width:0" /></g><g id="region-clip" inkscape:label="Region Clipped" inkscape:groupmode="layer" style="display:none"><g id="clip"><path id="clipregion-0" d="m 12.5963 61.8174 -9.08158 -2.75604 -6.16514 2.32755 -8.94904 11.9141 11.5995 6.69697 17.3205 -10 z" style="fill:#f0eaac;stroke:#000000;stroke-width:0.3" /><path id="clipregion-1" d="m 64.9486 26.0808 -16.9066 17.1303 3.91959 6.78893 17.3205 -10 0 -13.3939 z" style="fill:#f0eaac;stroke:#000000;stroke-width:0.3" /><path id="clipregion-2" d="m 56.3198 -35.7013 4.74137 6.57503 8.2209 0.850438 0 -11.7241 -9.21984 -5.32308 z" style="fill:#f0ce76;stroke:#000000;stroke-width:0.3" /><path id="clipregion-3" d="m -6.03891 -69.5112 12.4719 -1.79252 1.66997 -4.01804 -8.10299 -4.67826 -10.0088 5.77857 z" style="fill:#e7a311;stroke:#000000;stroke-width:0.3" /><path id="clipregion-4" d="m -58.6434 -32.0311 1.47585 -11.249 -2.10569 -2.49841 -10.0088 5.77857 0 9.35652 z" style="fill:#e7a311;stroke:#000000;stroke-width:0.3" /><path id="clipregion-5" d="m -52.9212 37.2887 -6.03887 -9.52287 -10.322 1.588 0 10.6462 10.1534 5.86207 z" style="fill:#f0ce76;stroke:#000000;stroke-width:0.3" /><path id="clipregion-6" d="m 48.0419 43.2111 -9.39962 -4.03264 -6.54818 1.11237 -19.4979 21.5266 4.72424 8.18262 34.641 -20 z" style="fill:#f0eaac;stroke:#000000;stroke-width:0.3" /><path id="clipregion-7" d="m 66.1163 -0.943158 -6.8343 12.3938 5.66654 14.6302 4.33347 0.525269 0 -28.1324 z" style="fill:#f0eaac;stroke:#000000;stroke-width:0.3" /><path id="clipregion-8" d="m 61.0611 -29.1263 -7.25314 17.0712 12.3083 11.112 3.16572 -0.583158 0 -26.7495 z" style="fill:#f0eaac;stroke:#000000;stroke-width:0.3" /><path id="clipregion-9" d="m 31.4897 -43.32 2.26402 6.11794 22.566 1.50074 3.74244 -9.62175 -18.6483 -10.7666 z" style="fill:#f0ce76;stroke:#000000;stroke-width:0.3" /><path id="clipregion-10" d="m 17.0425 -58.2572 0.191997 6.41252 14.2552 8.5247 9.9242 -12.7697 -17.9998 -10.3922 z" style="fill:#e7a311;stroke:#000000;stroke-width:0.3" /><path id="clipregion-11" d="m 6.43302 -71.3037 10.6095 13.0465 6.37165 -8.2246 -15.3112 -8.83992 z" style="fill:#f0ce76;stroke:#000000;stroke-width:0.3" /><path id="clipregion-12" d="m -23.0083 -52.9362 14.2145 -3.34813 2.7549 -13.2268 -3.96987 -4.71025 -16.6176 9.59416 z" style="fill:#e7a311;stroke:#000000;stroke-width:0.3" /><path id="clipregion-13" d="m -40.5362 -48.524 6.34025 3.21454 6.45827 -0.924784 4.72936 -6.70202 -3.61802 -11.691 -16.0293 9.25455 z" style="fill:#f0ce76;stroke:#000000;stroke-width:0.3" /><path id="clipregion-14" d="m -57.1676 -43.2802 16.6314 -5.24381 -2.11948 -6.84875 -16.6176 9.59416 z" style="fill:#e7a311;stroke:#000000;stroke-width:0.3" /><path id="clipregion-15" d="m -57.1741 -11.3126 5.5644 -11.3138 -7.03367 -9.4048 -10.6386 1.38765 0 17.6798 z" style="fill:#f0ce76;stroke:#000000;stroke-width:0.3" /><path id="clipregion-16" d="m -64.4023 8.49376 8.6686 -13.4176 -1.44045 -6.38868 -12.1079 -1.65108 0 20.7843 z" style="fill:#e7a311;stroke:#000000;stroke-width:0.3" /><path id="clipregion-17" d="m -58.96 27.7658 1.07238 -6.99267 -6.51465 -12.2794 -4.87973 -0.673067 0 21.5332 z" style="fill:#f0ce76;stroke:#000000;stroke-width:0.3" /><path id="clipregion-18" d="m -32.0097 48.1122 -1.35484 -6.33188 -19.5566 -4.49162 -6.20747 8.57335 23.1658 13.3748 z" style="fill:#f0eaac;stroke:#000000;stroke-width:0.3" /><path id="clipregion-19" d="m -2.65045 61.3889 -29.3593 -13.2767 -3.9531 11.1246 24.3634 14.0662 z" style="fill:#f0eaac;stroke:#000000;stroke-width:0.3" /><path id="clipregion-20" d="m -35.822 3.96638 4.89186 -4.56682 -0.0271636 -16.4178 -11.2926 -6.71725 -9.35986 1.1092 -5.5644 11.3138 1.44045 6.38868 z" style="fill:#f0ce76;stroke:#000000;stroke-width:0.3" /><path id="clipregion-21" d="m 17.0425 -58.2572 -10.6095 -13.0465 -12.4719 1.79252 -2.7549 13.2268 12.0608 10.8837 13.9676 -6.44404 z" style="fill:#f0ce76;stroke:#000000;stroke-width:0.3" /><path id="clipregion-22" d="m -34.196 -45.3094 -6.34025 -3.21454 -16.6314 5.24381 -1.47585 11.249 7.03367 9.4048 9.35986 -1.1092 z" style="fill:#e7a311;stroke:#000000;stroke-width:0.3" /><path id="clipregion-23" d="m 17.2345 -51.8447 -13.9676 6.44404 -2.84133 8.10266 1.64894 6.36513 16.1075 9.75456 12.9641 -7.34741 2.60764 -8.67635 -2.26402 -6.11794 z" style="fill:#f0eaac;stroke:#000000;stroke-width:0.3" /><path id="clipregion-24" d="m -57.8876 20.7732 -1.07238 6.99267 6.03887 9.52287 19.5566 4.49162 7.63017 -10.5777 -11.1354 -20.4009 z" style="fill:#f0eaac;stroke:#000000;stroke-width:0.3" /><path id="clipregion-25" d="m -27.7377 -46.2342 7.91168 10.7678 20.2516 -1.83156 2.84133 -8.10266 -12.0608 -10.8837 -14.2145 3.34813 z" style="fill:#f0ce76;stroke:#000000;stroke-width:0.3" /><path id="clipregion-26" d="m -36.8698 10.8017 11.1354 20.4009 8.42348 -2.39541 6.92613 -14.4709 -5.88307 -12.489 -14.6623 -2.44781 -4.89186 4.56682 z" style="fill:#f0eaac;stroke:#000000;stroke-width:0.3" /><path id="clipregion-27" d="m 12.5963 61.8174 19.4979 -21.5266 -18.4845 -15.4505 -15.3896 11.8755 5.29465 22.3455 z" style="fill:#f0ce76;stroke:#000000;stroke-width:0.3" /><path id="clipregion-28" d="m -27.7377 -46.2342 -6.45827 0.924784 -8.05393 21.5739 11.2926 6.71725 9.04631 -5.0104 2.085 -13.4378 z" style="fill:#e7a311;stroke:#000000;stroke-width:0.3" /><path id="clipregion-29" d="m 3.51469 59.0613 -5.29465 -22.3455 -15.531 -7.90856 -8.42348 2.39541 -7.63017 10.5777 1.35484 6.33188 29.3593 13.2767 z" style="fill:#f0eaac;stroke:#000000;stroke-width:0.3" /><path id="clipregion-30" d="m -35.822 3.96638 -19.9117 -8.89026 -8.6686 13.4176 6.51465 12.2794 21.0178 -9.97146 z" style="fill:#f0ce76;stroke:#000000;stroke-width:0.3" /><path id="clipregion-31" d="m -19.826 -35.4664 -2.085 13.4378 14.1349 6.09503 9.85069 -14.9992 -1.64894 -6.36513 z" style="fill:#f0ce76;stroke:#000000;stroke-width:0.3" /><path id="clipregion-32" d="m 32.0941 40.2908 6.54818 -1.11237 1.28361 -27.205 -6.24097 -7.2114 -17.8371 -0.0817928 -3.0156 5.66449 0.777362 14.4956 z" style="fill:#f0eaac;stroke:#000000;stroke-width:0.3" /><path id="clipregion-33" d="m -16.2679 1.84737 5.88307 12.489 23.2171 -3.99166 3.0156 -5.66449 -2.97796 -6.44536 -18.4822 -7.72718 z" style="fill:#f0eaac;stroke:#000000;stroke-width:0.3" /><path id="clipregion-34" d="m 53.808 -12.0551 -11.0052 0.954652 -9.11783 15.8625 6.24097 7.2114 19.3561 -0.52278 6.8343 -12.3938 z" style="fill:#f0eaac;stroke:#000000;stroke-width:0.3" /><path id="clipregion-35" d="m 33.7537 -37.2021 -2.60764 8.67635 11.6567 17.4252 11.0052 -0.954652 7.25314 -17.0712 -4.74137 -6.57503 z" style="fill:#f0eaac;stroke:#000000;stroke-width:0.3" /><path id="clipregion-36" d="m -30.9573 -17.0183 0.0271636 16.4178 14.6623 2.44781 10.6556 -11.3397 -2.16381 -6.44128 -14.1349 -6.09503 z" style="fill:#f0ce76;stroke:#000000;stroke-width:0.3" /><path id="clipregion-37" d="m -1.77996 36.7158 15.3896 -11.8755 -0.777362 -14.4956 -23.2171 3.99166 -6.92613 14.4709 z" style="fill:#f0eaac;stroke:#000000;stroke-width:0.3" /><path id="clipregion-38" d="m 2.07458 -30.9329 -9.85069 14.9992 2.16381 6.44128 18.4822 7.72718 5.31213 -19.4131 z" style="fill:#f0ce76;stroke:#000000;stroke-width:0.3" /><path id="clipregion-39" d="m 18.182 -21.1783 -5.31213 19.4131 2.97796 6.44536 17.8371 0.0817928 9.11783 -15.8625 -11.6567 -17.4252 z" style="fill:#f0eaac;stroke:#000000;stroke-width:0.3" /><path id="clipregion-40" d="m 59.282 11.4506 -19.3561 0.52278 -1.28361 27.205 9.39962 4.03264 16.9066 -17.1303 z" style="fill:#f0eaac;stroke:#000000;stroke-width:0.3" /></g></g><g id="region-rounded" inkscape:label="Region Rounded" inkscape:groupmode="layer"><g id="rounded"><path id="roundedregion-0" d="m 13.0963 62.6834 c -0.35 -0.606218 -0.787072 -0.953145 -1.45691 -1.15642 l -7.16777 -2.17524 c -0.669834 -0.203278 -1.23757 -0.184437 -1.89245 0.0628031 l -4.29404 1.62115 c -0.654883 0.247241 -1.11572 0.593071 -1.53612 1.15277 l -8.34847 11.1146 11.5995 6.69697 17.3205 -10 z" style="fill:#f0eaac;stroke:#000000;stroke-width:0.3" /><path id="roundedregion-1" d="m 65.9413 26.2011 c -0.694914 -0.084232 -1.20347 0.0931899 -1.69518 0.591406 l -15.5017 15.7068 c -0.491712 0.498216 -0.552445 0.971545 -0.202445 1.57776 l 3.41959 5.92291 17.3205 -10 0 -13.3939 z" style="fill:#f0eaac;stroke:#000000;stroke-width:0.3" /><path id="roundedregion-2" d="m 56.6823 -36.6333 c -0.25375 0.652389 -0.18703 1.17531 0.222402 1.74309 l 3.57157 4.95282 c 0.409431 0.567773 0.88331 0.841974 1.57959 0.914003 l 7.22621 0.747539 0 -11.7241 -9.21984 -5.32308 z" style="fill:#f0ce76;stroke:#000000;stroke-width:0.3" /><path id="roundedregion-3" d="m -6.68337 -70.2758 c 0.451117 0.535251 0.941402 0.721965 1.63428 0.622381 l 10.4923 -1.508 c 0.69288 -0.0995838 1.10497 -0.419289 1.37362 -1.06568 l 1.28618 -3.09462 -8.10299 -4.67826 -10.0088 5.77857 z" style="fill:#e7a311;stroke:#000000;stroke-width:0.3" /><path id="roundedregion-4" d="m -59.635 -31.9018 c 0.69412 -0.0905374 1.03063 -0.42679 1.12168 -1.12084 l 1.21569 -9.26603 c 0.0910583 -0.694052 -0.0632526 -1.2209 -0.51437 -1.75615 l -1.46124 -1.73376 -10.0088 5.77857 0 9.35652 z" style="fill:#e7a311;stroke:#000000;stroke-width:0.3" /><path id="roundedregion-5" d="m -53.5076 38.0987 c 0.410521 -0.566985 0.425797 -1.06333 0.050919 -1.65449 l -4.96779 -7.83385 c -0.374878 -0.591157 -0.832052 -0.798893 -1.52391 -0.692453 l -9.33363 1.43594 0 10.6462 10.1534 5.86207 z" style="fill:#f0ce76;stroke:#000000;stroke-width:0.3" /><path id="roundedregion-6" d="m 48.5419 44.0771 c -0.35 -0.606218 -0.775699 -0.984306 -1.419 -1.26029 l -7.56163 -3.2441 c -0.643297 -0.275988 -1.21476 -0.344026 -1.90487 -0.226793 l -4.57643 0.77742 c -0.690113 0.117233 -1.18727 0.389826 -1.6572 0.908644 l -18.1552 20.0442 c -0.469923 0.518818 -0.521319 1.00098 -0.171319 1.60719 l 4.22424 7.31659 34.641 -20 z" style="fill:#f0eaac;stroke:#000000;stroke-width:0.3" /><path id="roundedregion-7" d="m 67.0998 -1.12432 c -0.688417 0.126814 -1.12832 0.443868 -1.46633 1.05685 l -5.86854 10.6424 c -0.338016 0.61298 -0.374528 1.15544 -0.121707 1.80818 l 4.94419 12.7652 c 0.252822 0.652749 0.658994 0.968598 1.35391 1.05283 l 3.34074 0.404938 0 -28.1324 z" style="fill:#f0eaac;stroke:#000000;stroke-width:0.3" /><path id="roundedregion-8" d="m 62.0558 -29.0234 c -0.696284 -0.0720294 -1.11201 0.173212 -1.38574 0.817473 l -6.47105 15.2304 c -0.273731 0.64426 -0.168367 1.12141 0.351215 1.59048 l 10.8238 9.77176 c 0.519581 0.469079 1.03729 0.615764 1.72571 0.488951 l 2.18226 -0.401996 0 -26.7495 z" style="fill:#f0eaac;stroke:#000000;stroke-width:0.3" /><path id="roundedregion-9" d="m 32.1034 -44.1096 c -0.429549 0.552709 -0.509524 1.07094 -0.266582 1.72743 l 1.5699 4.24225 c 0.242942 0.65649 0.646399 0.95775 1.34486 1.0042 l 20.5704 1.36802 c 0.698457 0.0464504 1.10655 -0.213237 1.3603 -0.865626 l 3.37993 -8.68976 -18.6483 -10.7666 z" style="fill:#f0ce76;stroke:#000000;stroke-width:0.3" /><path id="roundedregion-10" d="m 17.655 -59.0477 c -0.428699 0.553369 -0.603448 1.09039 -0.582499 1.79008 l 0.132142 4.41341 c 0.0209492 0.699686 0.287402 1.15352 0.888174 1.51279 l 12.5387 7.49823 c 0.600773 0.359266 1.04234 0.276362 1.47189 -0.276347 l 9.31056 -11.9801 -17.9998 -10.3922 z" style="fill:#e7a311;stroke:#000000;stroke-width:0.3" /><path id="roundedregion-11" d="m 6.81681 -72.2271 c -0.268652 0.646395 -0.194512 1.15617 0.247135 1.69927 l 9.34766 11.4948 c 0.441647 0.543091 0.814652 0.538687 1.24335 -0.0146826 l 5.75922 -7.43407 -15.3112 -8.83992 z" style="fill:#f0ce76;stroke:#000000;stroke-width:0.3" /><path id="roundedregion-12" d="m -23.304 -53.8915 c 0.206946 0.66871 0.587646 0.88652 1.269 0.726031 l 12.2678 -2.8896 c 0.681354 -0.160489 1.03453 -0.522966 1.17727 -1.20826 l 2.34709 -11.2688 c 0.142734 -0.685293 0.0105701 -1.20838 -0.440547 -1.74363 l -3.32541 -3.94561 -16.6176 9.59416 z" style="fill:#e7a311;stroke:#000000;stroke-width:0.3" /><path id="roundedregion-13" d="m -40.8318 -49.4793 c 0.206946 0.66871 0.563211 1.09096 1.18755 1.40751 l 4.55642 2.31013 c 0.62434 0.316543 1.18889 0.40968 1.88182 0.310457 l 4.47846 -0.641288 c 0.692932 -0.0992236 1.16287 -0.386864 1.56647 -0.958801 l 3.57624 -5.06792 c 0.403594 -0.571937 0.487872 -1.10364 0.280926 -1.77235 l -3.32239 -10.7357 -16.0293 9.25455 z" style="fill:#f0ce76;stroke:#000000;stroke-width:0.3" /><path id="roundedregion-14" d="m -57.812 -44.0448 c 0.451117 0.535251 0.930568 0.674433 1.59817 0.46394 l 14.7239 -4.64241 c 0.667602 -0.210493 0.865026 -0.587294 0.658081 -1.256 l -1.82385 -5.89345 -16.6176 9.59416 z" style="fill:#e7a311;stroke:#000000;stroke-width:0.3" /><path id="roundedregion-15" d="m -58.165 -11.4477 c 0.693581 0.0945792 1.12323 -0.134089 1.43217 -0.762229 l 4.68173 -9.51908 c 0.308935 -0.62814 0.261662 -1.13759 -0.157578 -1.69816 l -5.83584 -7.80317 c -0.419239 -0.56057 -0.896393 -0.762012 -1.59051 -0.671475 l -9.64702 1.25831 0 17.6798 z" style="fill:#f0ce76;stroke:#000000;stroke-width:0.3" /><path id="roundedregion-16" d="m -65.3929 8.35712 c 0.693435 0.0956462 1.15342 -0.115348 1.53328 -0.703315 l 7.58328 -11.7377 c 0.379862 -0.587967 0.476676 -1.13261 0.322713 -1.81546 l -1.00055 -4.43766 c -0.153963 -0.682858 -0.517196 -1.01605 -1.21078 -1.11063 l -11.1171 -1.51596 0 20.7843 z" style="fill:#e7a311;stroke:#000000;stroke-width:0.3" /><path id="roundedregion-17" d="m -59.9484 27.9179 c 0.69186 -0.10644 1.03385 -0.44859 1.13996 -1.1405 l 0.769208 -5.01578 c 0.10611 -0.691911 0.010987 -1.25346 -0.317076 -1.87182 l -5.57733 -10.5127 c -0.328063 -0.618364 -0.765848 -0.924369 -1.45928 -1.02002 l -3.88911 -0.536429 0 21.5332 z" style="fill:#f0ce76;stroke:#000000;stroke-width:0.3" /><path id="roundedregion-18" d="m -32.3446 49.0545 c 0.234385 -0.659594 0.272065 -1.23564 0.125601 -1.92014 l -0.936367 -4.37615 c -0.146464 -0.684506 -0.501622 -1.04502 -1.18386 -1.20171 l -17.6073 -4.04393 c -0.682237 -0.156692 -1.15056 0.0191484 -1.56108 0.586134 l -5.62101 7.76337 23.1658 13.3748 z" style="fill:#f0eaac;stroke:#000000;stroke-width:0.3" /><path id="roundedregion-19" d="m -3.25103 62.1885 c 0.420404 -0.559697 0.327227 -0.923179 -0.310588 -1.21161 l -27.537 -12.4526 c -0.637816 -0.288429 -1.01162 -0.129358 -1.246 0.530235 l -3.61827 10.1823 24.3634 14.0662 z" style="fill:#f0eaac;stroke:#000000;stroke-width:0.3" /><path id="roundedregion-20" d="m -36.7351 3.55869 c 0.639183 0.285385 1.13241 0.202972 1.64409 -0.274712 l 3.42991 -3.20201 c 0.511682 -0.477683 0.730478 -0.982405 0.72932 -1.6824 l -0.0238546 -14.4178 c -0.00115816 -0.699999 -0.259488 -1.15337 -0.861099 -1.51123 l -9.57368 -5.69479 c -0.601611 -0.357861 -1.15736 -0.475925 -1.8525 -0.393547 l -7.37376 0.873834 c -0.695136 0.0823778 -1.12545 0.386885 -1.43439 1.01502 l -4.68173 9.51908 c -0.308935 0.62814 -0.375351 1.19 -0.221388 1.87285 l 1.00055 4.43766 c 0.153963 0.682858 0.493883 1.09782 1.13307 1.38321 z" style="fill:#f0ce76;stroke:#000000;stroke-width:0.3" /><path id="roundedregion-21" d="m 17.0725 -57.2577 c -0.0209492 -0.699686 -0.219205 -1.23231 -0.660851 -1.7754 l -9.34766 -11.4948 c -0.441647 -0.543091 -0.927872 -0.733166 -1.62075 -0.633582 l -10.4923 1.508 c -0.69288 0.0995838 -1.051 0.43596 -1.19373 1.12125 l -2.34709 11.2688 c -0.142734 0.685293 0.0188157 1.17998 0.5385 1.64894 l 10.576 9.54382 c 0.519684 0.468966 1.01481 0.544274 1.65043 0.251028 l 12.1515 -5.60619 c 0.635615 -0.293246 0.899044 -0.718788 0.878094 -1.41847 z" style="fill:#f0ce76;stroke:#000000;stroke-width:0.3" /><path id="roundedregion-22" d="m -34.5457 -44.3726 c 0.244819 -0.655792 0.0821674 -1.07251 -0.542173 -1.38905 l -4.55642 -2.31013 c -0.62434 -0.316543 -1.17803 -0.361993 -1.84563 -0.151501 l -14.7239 4.64241 c -0.667602 0.210493 -0.992742 0.598155 -1.0838 1.29221 l -1.21569 9.26603 c -0.0910583 0.694052 0.0495907 1.23175 0.46883 1.79232 l 5.83584 7.80317 c 0.419239 0.56057 0.896829 0.765509 1.59196 0.683131 l 7.37376 -0.873834 c 0.695136 -0.0823778 1.09797 -0.398736 1.34279 -1.05453 z" style="fill:#e7a311;stroke:#000000;stroke-width:0.3" /><path id="roundedregion-23" d="m 18.0928 -51.3315 c -0.600773 -0.359266 -1.13065 -0.38756 -1.76627 -0.0943142 l -12.1515 5.60619 c -0.635615 0.293246 -1.00729 0.702021 -1.23893 1.36259 l -2.17951 6.21534 c -0.231637 0.660564 -0.255677 1.23408 -0.080131 1.91171 l 1.14738 4.42905 c 0.175546 0.677631 0.507392 1.12345 1.10615 1.48605 l 14.3967 8.71854 c 0.598763 0.362606 1.11637 0.370088 1.72537 0.0249404 l 11.2241 -6.36127 c 0.608993 -0.345148 0.956339 -0.780373 1.15782 -1.45075 l 2.03199 -6.76098 c 0.201479 -0.670378 0.183709 -1.23904 -0.0592328 -1.89553 l -1.5699 -4.24225 c -0.242942 -0.65649 -0.604534 -1.09181 -1.20531 -1.45108 z" style="fill:#f0eaac;stroke:#000000;stroke-width:0.3" /><path id="roundedregion-24" d="m -56.9842 20.3445 c -0.632434 0.300045 -0.948953 0.725169 -1.05506 1.41708 l -0.769208 5.01578 c -0.10611 0.691911 0.00907654 1.2418 0.383955 1.83295 l 4.96779 7.83385 c 0.374878 0.591157 0.827928 0.911663 1.51016 1.06835 l 17.6073 4.04393 c 0.682237 0.156692 1.15013 -0.0194597 1.55965 -0.587171 l 6.46012 -8.95565 c 0.409516 -0.567711 0.441292 -1.07434 0.105918 -1.68877 l -10.1772 -18.6454 c -0.335374 -0.61443 -0.750148 -0.749167 -1.38258 -0.449122 z" style="fill:#f0eaac;stroke:#000000;stroke-width:0.3" /><path id="roundedregion-25" d="m -27.1611 -47.0513 c -0.403594 0.571937 -0.398931 1.05881 0.015545 1.62291 l 6.72746 9.15607 c 0.414476 0.564101 0.890889 0.778837 1.58804 0.715786 l 18.2598 -1.65142 c 0.697155 -0.0630507 1.09521 -0.373171 1.32685 -1.03373 l 2.17951 -6.21534 c 0.231637 -0.660564 0.108189 -1.14465 -0.411495 -1.61361 l -10.576 -9.54382 c -0.519684 -0.468966 -1.03441 -0.60117 -1.71577 -0.440681 l -12.2678 2.8896 c -0.681354 0.160489 -1.14633 0.474385 -1.54993 1.04632 z" style="fill:#f0ce76;stroke:#000000;stroke-width:0.3" /><path id="roundedregion-26" d="m -36.7183 9.81327 c -0.106067 0.691918 -0.00779224 1.25178 0.327581 1.86621 l 10.1772 18.6454 c 0.335374 0.61443 0.767664 0.795699 1.44097 0.60423 l 6.49975 -1.84835 c 0.673305 -0.191469 1.09138 -0.54413 1.39359 -1.17553 l 6.06268 -12.6669 c 0.302205 -0.631405 0.303878 -1.1734 0.00557484 -1.80666 l -5.03077 -10.6797 c -0.298303 -0.633258 -0.722052 -0.954054 -1.4125 -1.06932 l -12.6896 -2.11847 c -0.690444 -0.115267 -1.20564 0.0400545 -1.71732 0.517738 l -3.42991 3.20201 c -0.511682 0.477683 -0.776432 0.978941 -0.882498 1.67086 z" style="fill:#f0eaac;stroke:#000000;stroke-width:0.3" /><path id="roundedregion-27" d="m 11.6394 61.527 c 0.669834 0.203278 1.1583 0.0680471 1.62822 -0.450771 l 18.1552 -20.0442 c 0.469923 -0.518818 0.441139 -0.933568 -0.0959468 -1.3825 l -16.95 -14.1679 c -0.537086 -0.448931 -1.00477 -0.458054 -1.55896 -0.0304104 l -13.8062 10.6537 c -0.554185 0.427643 -0.722525 0.902836 -0.561132 1.58398 l 4.83353 20.3994 c 0.161392 0.681141 0.517632 1.06018 1.18747 1.26346 z" style="fill:#f0ce76;stroke:#000000;stroke-width:0.3" /><path id="roundedregion-28" d="m -27.1456 -45.4284 c -0.414476 -0.564101 -0.889079 -0.763334 -1.58201 -0.664111 l -4.47846 0.641288 c -0.692932 0.0992236 -1.09483 0.422802 -1.33964 1.07859 l -7.35445 19.7002 c -0.244819 0.655792 -0.0919084 1.09022 0.509702 1.44808 l 9.57368 5.69479 c 0.601611 0.357861 1.12188 0.365877 1.73423 0.0267201 l 7.29674 -4.04138 c 0.61235 -0.339157 0.920783 -0.780962 1.02811 -1.47269 l 1.77835 -11.4614 c 0.107327 -0.691723 -0.0243076 -1.22993 -0.438783 -1.79403 z" style="fill:#e7a311;stroke:#000000;stroke-width:0.3" /><path id="roundedregion-29" d="m 2.57914 59.4145 c 0.654883 -0.247241 0.866379 -0.645118 0.704987 -1.32626 l -4.83353 -20.3994 c -0.161392 -0.681141 -0.497896 -1.10919 -1.12168 -1.42683 l -13.7487 -7.00102 c -0.623784 -0.317638 -1.17968 -0.37171 -1.85298 -0.180241 l -6.49975 1.84835 c -0.673305 0.191469 -1.13737 0.516833 -1.54689 1.08454 l -6.46012 8.95565 c -0.409516 0.567711 -0.522253 1.10438 -0.375789 1.78888 l 0.936367 4.37615 c 0.146464 0.684506 0.482584 1.10148 1.1204 1.38991 l 27.537 12.4526 c 0.637816 0.288429 1.19183 0.306081 1.84671 0.0588404 z" style="fill:#f0eaac;stroke:#000000;stroke-width:0.3" /><path id="roundedregion-30" d="m -35.9735 4.95483 c 0.106067 -0.691918 -0.122412 -1.11076 -0.761595 -1.39615 l -18.0855 -8.07487 c -0.639183 -0.285385 -1.07592 -0.155708 -1.45578 0.432259 l -7.58328 11.7377 c -0.379862 0.587967 -0.402061 1.10497 -0.0739981 1.72333 l 5.57733 10.5127 c 0.328063 0.618364 0.739705 0.754787 1.37214 0.454742 l 19.2109 -9.11419 c 0.632434 -0.300045 0.948935 -0.725172 1.055 -1.41709 z" style="fill:#f0ce76;stroke:#000000;stroke-width:0.3" /><path id="roundedregion-31" d="m -18.8301 -35.5565 c -0.697155 0.0630507 -1.04193 0.386525 -1.14926 1.07825 l -1.77835 11.4614 c -0.107327 0.691723 0.122155 1.10696 0.764942 1.38414 l 12.2984 5.30311 c 0.642787 0.277173 1.08295 0.145204 1.46721 -0.439896 l 8.75279 -13.3275 c 0.384263 -0.5851 0.473713 -1.12627 0.298167 -1.8039 l -1.14738 -4.42905 c -0.175546 -0.677631 -0.54956 -0.941023 -1.24671 -0.877972 z" style="fill:#f0ce76;stroke:#000000;stroke-width:0.3" /><path id="roundedregion-32" d="m 31.3269 39.6495 c 0.537086 0.448931 1.06303 0.591087 1.75314 0.473854 l 4.57643 -0.77742 c 0.690113 -0.117233 1.00002 -0.467142 1.03301 -1.16636 l 1.18935 -25.2073 c 0.0329911 -0.699222 -0.149189 -1.22573 -0.607266 -1.75504 l -4.93217 -5.6991 c -0.458078 -0.529306 -0.954393 -0.757527 -1.65439 -0.760737 l -15.8371 -0.0726218 c -0.699993 -0.00320985 -1.14097 0.260226 -1.46991 0.878121 l -2.07575 3.89908 c -0.328948 0.617894 -0.45386 1.18228 -0.416375 1.88127 l 0.670261 12.4985 c 0.0374854 0.698996 0.28373 1.19096 0.820816 1.63989 z" style="fill:#f0eaac;stroke:#000000;stroke-width:0.3" /><path id="roundedregion-33" d="m -15.5831 1.11862 c -0.479347 0.510124 -0.556937 1.00015 -0.258634 1.6334 l 5.03077 10.6797 c 0.298303 0.633258 0.721809 0.853821 1.41169 0.735212 l 21.246 -3.65278 c 0.689878 -0.118609 1.12652 -0.434254 1.45547 -1.05215 l 2.07575 -3.89908 c 0.328948 -0.617894 0.344097 -1.15504 0.0504988 -1.7905 l -2.1391 -4.62978 c -0.293599 -0.635452 -0.69621 -1.02351 -1.34204 -1.29352 l -16.637 -6.95572 c -0.645828 -0.270013 -1.12805 -0.167108 -1.60739 0.343017 z" style="fill:#f0eaac;stroke:#000000;stroke-width:0.3" /><path id="roundedregion-34" d="m 54.5503 -11.385 c -0.519581 -0.469079 -1.04114 -0.644187 -1.73852 -0.583692 l -9.0127 0.78181 c -0.697381 0.0604946 -1.14576 0.346515 -1.4946 0.9534 l -8.12114 14.1285 c -0.348841 0.606885 -0.302025 1.09382 0.156052 1.62313 l 4.93217 5.6991 c 0.458078 0.529306 0.954287 0.748052 1.65403 0.729153 l 17.3568 -0.468783 c 0.699745 -0.0188991 1.1445 -0.289705 1.48252 -0.902685 l 5.86854 -10.6424 c 0.338016 -0.61298 0.260203 -1.07672 -0.259379 -1.5458 z" style="fill:#f0eaac;stroke:#000000;stroke-width:0.3" /><path id="roundedregion-35" d="m 34.7515 -37.1357 c -0.698457 -0.0464504 -1.08414 0.220947 -1.28562 0.891325 l -2.03199 6.76098 c -0.201479 0.670378 -0.121023 1.20703 0.268188 1.78885 l 10.5446 15.7629 c 0.389211 0.58182 0.854893 0.805246 1.55227 0.744751 l 9.0127 -0.78181 c 0.697381 -0.0604946 1.11357 -0.362532 1.3873 -1.00679 l 6.47105 -15.2304 c 0.273731 -0.64426 0.215574 -1.1637 -0.193858 -1.73148 l -3.57157 -4.95282 c -0.409431 -0.567773 -0.884241 -0.831011 -1.5827 -0.877462 z" style="fill:#f0eaac;stroke:#000000;stroke-width:0.3" /><path id="roundedregion-36" d="m -30.0825 -17.5028 c -0.61235 0.339157 -0.87429 0.784509 -0.873131 1.48451 l 0.0238546 14.4178 c 0.00115816 0.699999 0.297559 1.0494 0.988004 1.16467 l 12.6896 2.11847 c 0.690444 0.115267 1.19178 -0.0539577 1.67113 -0.564082 l 9.286 -9.88223 c 0.479347 -0.510124 0.589249 -1.01313 0.36634 -1.67669 l -1.52693 -4.5454 c -0.222909 -0.66356 -0.593921 -1.06673 -1.23671 -1.3439 l -12.2984 -5.30311 c -0.642787 -0.277173 -1.1807 -0.250608 -1.79305 0.0885487 z" style="fill:#f0ce76;stroke:#000000;stroke-width:0.3" /><path id="roundedregion-37" d="m -2.67108 36.262 c 0.623784 0.317638 1.12863 0.270493 1.68281 -0.15715 l 13.8062 -10.6537 c 0.554185 -0.427643 0.775628 -0.910489 0.738143 -1.60948 l -0.670261 -12.4985 c -0.0374854 -0.698996 -0.349213 -0.947733 -1.03909 -0.829123 l -21.246 3.65278 c -0.689878 0.118609 -1.11506 0.440044 -1.41726 1.07145 l -6.06268 12.6669 c -0.302205 0.631405 -0.164386 1.03814 0.459397 1.35578 z" style="fill:#f0eaac;stroke:#000000;stroke-width:0.3" /><path id="roundedregion-38" d="m 2.92995 -30.4149 c -0.598763 -0.362606 -1.02006 -0.267252 -1.40432 0.317849 l -8.75279 13.3275 c -0.384263 0.5851 -0.453414 1.12024 -0.230506 1.7838 l 1.52693 4.5454 c 0.222909 0.66356 0.595224 1.06366 1.24105 1.33368 l 16.637 6.95572 c 0.645828 0.270013 1.00179 0.09637 1.18654 -0.578809 l 4.78427 -17.484 c 0.184753 -0.675179 0.00732073 -1.11994 -0.591442 -1.48255 z" style="fill:#f0ce76;stroke:#000000;stroke-width:0.3" /><path id="roundedregion-39" d="m 19.052 -21.6714 c -0.608993 0.345148 -0.94917 0.782431 -1.13392 1.45761 l -4.78427 17.484 c -0.184753 0.675179 -0.138105 1.23688 0.155493 1.87233 l 2.1391 4.62978 c 0.293599 0.635452 0.719424 0.909165 1.41942 0.912375 l 15.8371 0.0726218 c 0.699993 0.00320985 1.14949 -0.255508 1.49833 -0.862394 l 8.12114 -14.1285 c 0.348841 -0.606885 0.33154 -1.11633 -0.0576712 -1.69815 l -10.5446 -15.7629 c -0.389211 -0.58182 -0.817013 -0.683251 -1.42601 -0.338103 z" style="fill:#f0eaac;stroke:#000000;stroke-width:0.3" /><path id="roundedregion-40" d="m 59.6432 12.3831 c -0.252822 -0.652749 -0.661064 -0.924399 -1.36081 -0.9055 l -17.3568 0.468783 c -0.699745 0.0188991 -1.01377 0.326665 -1.04677 1.02589 l -1.18935 25.2073 c -0.0329911 0.699222 0.228568 1.11717 0.871865 1.39316 l 7.56163 3.2441 c 0.643297 0.275988 1.12973 0.180747 1.62144 -0.317469 l 15.5017 -15.7068 c 0.491712 -0.498216 0.594093 -0.991487 0.341272 -1.64424 z" style="fill:#f0eaac;stroke:#000000;stroke-width:0.3" /></g></g><g id="region" inkscape:label="Region" inkscape:groupmode="layer" style="display:none"><path id="region-0" d="m 3.51469 59.0613 9.08158 2.75604 8.06004 13.9604 -8.3395 20.2222 -19.245 0 -10.7957 -14.5434 15.0734 -20.0677 z" style="fill:#ffffff;stroke:#000000;stroke-width:0.3" /><path id="region-1" d="m 64.9486 26.0808 15.5784 1.88829 6.07556 14.0309 -9.6225 16.6667 -21.6827 -2.88889 -7.25539 -12.5667 z" style="fill:#ffffff;stroke:#000000;stroke-width:0.3" /><path id="region-2" d="m 56.3198 -35.7013 4.74137 6.57503 19.1109 1.97699 6.43054 -14.8507 -5.31162 -9.2 -16.9301 -5.17479 z" style="fill:#ffffff;stroke:#000000;stroke-width:0.3" /><path id="region-3" d="m -6.03891 -69.5112 -11.4682 -13.6071 13.8121 -12.8818 7.39008 0 9.37011 8.73897 -6.63214 15.9573 z" style="fill:#ffffff;stroke:#000000;stroke-width:0.3" /><path id="region-4" d="m -58.6434 -32.0311 -22.7096 2.96213 -3.63292 -15.731 3.69504 -6.4 13.8742 -4.24075 10.2491 12.1606 z" style="fill:#ffffff;stroke:#000000;stroke-width:0.3" /><path id="region-5" d="m -58.96 27.7658 -22.9059 3.52398 -3.12004 13.5102 5.31162 9.2 13.5229 1.56149 13.2303 -18.2728 z" style="fill:#ffffff;stroke:#000000;stroke-width:0.3" /><path id="region-6" d="m 12.5963 61.8174 19.4979 -21.5266 6.54818 -1.11237 9.39962 4.03264 7.25539 12.5667 -10.5848 21.6667 -24.0563 -1.66667 z" style="fill:#ffffff;stroke:#000000;stroke-width:0.3" /><path id="region-7" d="m 66.1163 -0.943158 -6.8343 12.3938 5.66654 14.6302 15.5784 1.88829 8.20611 -13.9691 -9.61904 -17.3375 z" style="fill:#ffffff;stroke:#000000;stroke-width:0.3" /><path id="region-8" d="m 61.0611 -29.1263 19.1109 1.97699 4.89069 13.1493 -5.94864 10.6625 -12.9977 2.39432 -12.3083 -11.112 z" style="fill:#ffffff;stroke:#000000;stroke-width:0.3" /><path id="region-9" d="m 31.4897 -43.32 2.26402 6.11794 22.566 1.50074 8.04106 -20.6735 -3.26098 -4.65324 -13.0394 -3.61384 z" style="fill:#ffffff;stroke:#000000;stroke-width:0.3" /><path id="region-10" d="m 17.2345 -51.8447 14.2552 8.5247 16.5707 -21.3219 -5.50398 -9.06813 -11.1561 -3.08048 -14.3578 18.5333 z" style="fill:#ffffff;stroke:#000000;stroke-width:0.3" /><path id="region-11" d="m 17.0425 -58.2572 -10.6095 -13.0465 6.63214 -15.9573 10.9377 0.886914 7.39753 9.58364 z" style="fill:#ffffff;stroke:#000000;stroke-width:0.3" /><path id="region-12" d="m -23.0083 -52.9362 -7.05544 -22.7985 8.08627 -7.13143 4.47035 -0.252106 11.4682 13.6071 -2.7549 13.2268 z" style="fill:#ffffff;stroke:#000000;stroke-width:0.3" /><path id="region-13" d="m -23.0083 -52.9362 -7.05544 -22.7985 -12.6371 1.77471 -4.08761 5.233 6.25223 20.203 6.34025 3.21454 6.45827 -0.924784 z" style="fill:#ffffff;stroke:#000000;stroke-width:0.3" /><path id="region-14" d="m -57.1676 -43.2802 -10.2491 -12.1606 4.3689 -8.9612 16.2593 -4.32505 6.25223 20.203 z" style="fill:#ffffff;stroke:#000000;stroke-width:0.3" /><path id="region-15" d="m -58.6434 -32.0311 -22.7096 2.96213 -2.65761 6.669 2.69215 7.79503 24.1444 3.29241 5.5644 -11.3138 z" style="fill:#ffffff;stroke:#000000;stroke-width:0.3" /><path id="region-16" d="m -55.7337 -4.92388 -1.44045 -6.38868 -24.1444 -3.29241 -3.79448 14.605 3.34491 6.09848 17.3658 2.39528 z" style="fill:#ffffff;stroke:#000000;stroke-width:0.3" /><path id="region-17" d="m -57.8876 20.7732 -1.07238 6.99267 -22.9059 3.52398 -5.22231 -8.88983 5.32016 -16.3015 17.3658 2.39528 z" style="fill:#ffffff;stroke:#000000;stroke-width:0.3" /><path id="region-18" d="m -33.3646 41.7803 -19.5566 -4.49162 -13.2303 18.2728 9.9995 13.6965 17.0053 -1.06156 7.13687 -20.0842 z" style="fill:#ffffff;stroke:#000000;stroke-width:0.3" /><path id="region-19" d="m -2.65045 61.3889 -29.3593 -13.2767 -7.13687 20.0842 8.91793 12.1612 12.5048 1.09901 z" style="fill:#ffffff;stroke:#000000;stroke-width:0.3" /><path id="region-20" d="m -35.822 3.96638 4.89186 -4.56682 -0.0271636 -16.4178 -11.2926 -6.71725 -9.35986 1.1092 -5.5644 11.3138 1.44045 6.38868 z" style="fill:#ffffff;stroke:#000000;stroke-width:0.3" /><path id="region-21" d="m 17.2345 -51.8447 -13.9676 6.44404 -12.0608 -10.8837 2.7549 -13.2268 12.4719 -1.79252 10.6095 13.0465 z" style="fill:#ffffff;stroke:#000000;stroke-width:0.3" /><path id="region-22" d="m -42.2499 -23.7355 -9.35986 1.1092 -7.03367 -9.4048 1.47585 -11.249 16.6314 -5.24381 6.34025 3.21454 z" style="fill:#ffffff;stroke:#000000;stroke-width:0.3" /><path id="region-23" d="m 17.2345 -51.8447 -13.9676 6.44404 -2.84133 8.10266 1.64894 6.36513 16.1075 9.75456 12.9641 -7.34741 2.60764 -8.67635 -2.26402 -6.11794 z" style="fill:#ffffff;stroke:#000000;stroke-width:0.3" /><path id="region-24" d="m -36.8698 10.8017 11.1354 20.4009 -7.63017 10.5777 -19.5566 -4.49162 -6.03887 -9.52287 1.07238 -6.99267 z" style="fill:#ffffff;stroke:#000000;stroke-width:0.3" /><path id="region-25" d="m -23.0083 -52.9362 14.2145 -3.34813 12.0608 10.8837 -2.84133 8.10266 -20.2516 1.83156 -7.91168 -10.7678 z" style="fill:#ffffff;stroke:#000000;stroke-width:0.3" /><path id="region-26" d="m -36.8698 10.8017 11.1354 20.4009 8.42348 -2.39541 6.92613 -14.4709 -5.88307 -12.489 -14.6623 -2.44781 -4.89186 4.56682 z" style="fill:#ffffff;stroke:#000000;stroke-width:0.3" /><path id="region-27" d="m 3.51469 59.0613 -5.29465 -22.3455 15.3896 -11.8755 18.4845 15.4505 -19.4979 21.5266 z" style="fill:#ffffff;stroke:#000000;stroke-width:0.3" /><path id="region-28" d="m -27.7377 -46.2342 -6.45827 0.924784 -8.05393 21.5739 11.2926 6.71725 9.04631 -5.0104 2.085 -13.4378 z" style="fill:#ffffff;stroke:#000000;stroke-width:0.3" /><path id="region-29" d="m 3.51469 59.0613 -5.29465 -22.3455 -15.531 -7.90856 -8.42348 2.39541 -7.63017 10.5777 1.35484 6.33188 29.3593 13.2767 z" style="fill:#ffffff;stroke:#000000;stroke-width:0.3" /><path id="region-30" d="m -36.8698 10.8017 -21.0178 9.97146 -6.51465 -12.2794 8.6686 -13.4176 19.9117 8.89026 z" style="fill:#ffffff;stroke:#000000;stroke-width:0.3" /><path id="region-31" d="m -19.826 -35.4664 -2.085 13.4378 14.1349 6.09503 9.85069 -14.9992 -1.64894 -6.36513 z" style="fill:#ffffff;stroke:#000000;stroke-width:0.3" /><path id="region-32" d="m 13.6096 24.8403 -0.777362 -14.4956 3.0156 -5.66449 17.8371 0.0817928 6.24097 7.2114 -1.28361 27.205 -6.54818 1.11237 z" style="fill:#ffffff;stroke:#000000;stroke-width:0.3" /><path id="region-33" d="m -5.6123 -9.49236 18.4822 7.72718 2.97796 6.44536 -3.0156 5.66449 -23.2171 3.99166 -5.88307 -12.489 z" style="fill:#ffffff;stroke:#000000;stroke-width:0.3" /><path id="region-34" d="m 53.808 -12.0551 -11.0052 0.954652 -9.11783 15.8625 6.24097 7.2114 19.3561 -0.52278 6.8343 -12.3938 z" style="fill:#ffffff;stroke:#000000;stroke-width:0.3" /><path id="region-35" d="m 33.7537 -37.2021 -2.60764 8.67635 11.6567 17.4252 11.0052 -0.954652 7.25314 -17.0712 -4.74137 -6.57503 z" style="fill:#ffffff;stroke:#000000;stroke-width:0.3" /><path id="region-36" d="m -30.9573 -17.0183 0.0271636 16.4178 14.6623 2.44781 10.6556 -11.3397 -2.16381 -6.44128 -14.1349 -6.09503 z" style="fill:#ffffff;stroke:#000000;stroke-width:0.3" /><path id="region-37" d="m -1.77996 36.7158 15.3896 -11.8755 -0.777362 -14.4956 -23.2171 3.99166 -6.92613 14.4709 z" style="fill:#ffffff;stroke:#000000;stroke-width:0.3" /><path id="region-38" d="m 18.182 -21.1783 -5.31213 19.4131 -18.4822 -7.72718 -2.16381 -6.44128 9.85069 -14.9992 z" style="fill:#ffffff;stroke:#000000;stroke-width:0.3" /><path id="region-39" d="m 31.1461 -28.5257 11.6567 17.4252 -9.11783 15.8625 -17.8371 -0.0817928 -2.97796 -6.44536 5.31213 -19.4131 z" style="fill:#ffffff;stroke:#000000;stroke-width:0.3" /><path id="region-40" d="m 64.9486 26.0808 -16.9066 17.1303 -9.39962 -4.03264 1.28361 -27.205 19.3561 -0.52278 z" style="fill:#ffffff;stroke:#000000;stroke-width:0.3" /></g><g id="seeds" inkscape:label="Seeds" inkscape:groupmode="layer" style="display:none"><circle id="seed-0" cx="0.0" cy="80.0" r="1.0" style="fill:#000000;stroke:none;stroke-width:0" /><circle id="seed-1" cx="69.28203230275508" cy="40.0" r="1.0" style="fill:#000000;stroke:none;stroke-width:0" /><circle id="seed-2" cx="69.28203230275508" cy="-40.0" r="1.0" style="fill:#000000;stroke:none;stroke-width:0" /><circle id="seed-3" cx="0.0" cy="-80.0" r="1.0" style="fill:#000000;stroke:none;stroke-width:0" /><circle id="seed-4" cx="-69.28203230275508" cy="-40.0" r="1.0" style="fill:#000000;stroke:none;stroke-width:0" /><circle id="seed-5" cx="-69.28203230275508" cy="40.0" r="1.0" style="fill:#000000;stroke:none;stroke-width:0" /><circle id="seed-6" cx="34.64101615137754" cy="60.0" r="1.0" style="fill:#000000;stroke:none;stroke-width:0" /><circle id="seed-7" cx="72.48203230275509" cy="13.599999999999998" r="1.0" style="fill:#000000;stroke:none;stroke-width:0" /><circle id="seed-8" cx="66.88203230275508" cy="-16.799999999999997" r="1.0" style="fill:#000000;stroke:none;stroke-width:0" /><circle id="seed-9" cx="49.66870390403876" cy="-47.628718707889796" r="1.0" style="fill:#000000;stroke:none;stroke-width:0" /><circle id="seed-10" cx="31.176914536239785" cy="-62.0" r="1.0" style="fill:#000000;stroke:none;stroke-width:0" /><circle id="seed-11" cx="17.13486742963367" cy="-72.87846096908265" r="1.0" style="fill:#000000;stroke:none;stroke-width:0" /><circle id="seed-12" cx="-17.398969044771427" cy="-65.33589838486225" r="1.0" style="fill:#000000;stroke:none;stroke-width:0" /><circle id="seed-13" cx="-34.64101615137754" cy="-60.0" r="1.0" style="fill:#000000;stroke:none;stroke-width:0" /><circle id="seed-14" cx="-51.88306325798366" cy="-54.66410161513776" r="1.0" style="fill:#000000;stroke:none;stroke-width:0" /><circle id="seed-15" cx="-66.88203230275508" cy="-21.6" r="1.0" style="fill:#000000;stroke:none;stroke-width:0" /><circle id="seed-16" cx="-69.28203230275508" cy="-4.0" r="1.0" style="fill:#000000;stroke:none;stroke-width:0" /><circle id="seed-17" cx="-72.48203230275509" cy="19.200000000000003" r="1.0" style="fill:#000000;stroke:none;stroke-width:0" /><circle id="seed-18" cx="-50.390242934956106" cy="53.67846096908266" r="1.0" style="fill:#000000;stroke:none;stroke-width:0" /><circle id="seed-19" cx="-21.263070659909182" cy="64.0287187078898" r="1.0" style="fill:#000000;stroke:none;stroke-width:0" /><circle id="seed-20" cx="-43.0997516901755" cy="-9.903275169588575" r="1.0" style="fill:#000000;stroke:none;stroke-width:0" /><circle id="seed-21" cx="2.7095397819887346" cy="-61.147660932380546" r="1.0" style="fill:#000000;stroke:none;stroke-width:0" /><circle id="seed-22" cx="-46.30921756562983" cy="-36.98601094518012" r="1.0" style="fill:#000000;stroke:none;stroke-width:0" /><circle id="seed-23" cx="14.885228133368134" cy="-34.75666482007292" r="1.0" style="fill:#000000;stroke:none;stroke-width:0" /><circle id="seed-24" cx="-43.49253609845058" cy="23.645762508995098" r="1.0" style="fill:#000000;stroke:none;stroke-width:0" /><circle id="seed-25" cx="-12.454403795583788" cy="-44.3437463838817" r="1.0" style="fill:#000000;stroke:none;stroke-width:0" /><circle id="seed-26" cx="-22.484666733515414" cy="12.179066988062559" r="1.0" style="fill:#000000;stroke:none;stroke-width:0" /><circle id="seed-27" cx="12.229802828033888" cy="39.70088421923637" r="1.0" style="fill:#000000;stroke:none;stroke-width:0" /><circle id="seed-28" cx="-30.500469287934852" cy="-31.08431904073702" r="1.0" style="fill:#000000;stroke:none;stroke-width:0" /><circle id="seed-29" cx="-12.960860137151553" cy="45.66967064085741" r="1.0" style="fill:#000000;stroke:none;stroke-width:0" /><circle id="seed-30" cx="-51.00700955030405" cy="7.806769377891299" r="1.0" style="fill:#000000;stroke:none;stroke-width:0" /><circle id="seed-31" cx="-10.981315024359077" cy="-28.055736873719134" r="1.0" style="fill:#000000;stroke:none;stroke-width:0" /><circle id="seed-32" cx="27.989774885459777" cy="20.84616668543102" r="1.0" style="fill:#000000;stroke:none;stroke-width:0" /><circle id="seed-33" cx="-4.342960159908565" cy="3.633216381017227" r="1.0" style="fill:#000000;stroke:none;stroke-width:0" /><circle id="seed-34" cx="50.42003424446413" cy="1.4343363019637576" r="1.0" style="fill:#000000;stroke:none;stroke-width:0" /><circle id="seed-35" cx="48.14781919510885" cy="-24.75973008393224" r="1.0" style="fill:#000000;stroke:none;stroke-width:0" /><circle id="seed-36" cx="-18.79139504345023" cy="-9.943493827221042" r="1.0" style="fill:#000000;stroke:none;stroke-width:0" /><circle id="seed-37" cx="-1.1152239421445074" cy="22.406993746992462" r="1.0" style="fill:#000000;stroke:none;stroke-width:0" /><circle id="seed-38" cx="4.621592375555676" cy="-17.808579241646676" r="1.0" style="fill:#000000;stroke:none;stroke-width:0" /><circle id="seed-39" cx="28.13752082819752" cy="-11.373770555944033" r="1.0" style="fill:#000000;stroke:none;stroke-width:0" /><circle id="seed-40" cx="50.97360844733325" cy="21.930604301938097" r="1.0" style="fill:#000000;stroke:none;stroke-width:0" /></g><g id="region_ids" inkscape:label="Region Ids" inkscape:groupmode="layer" style="display:none" transform="scale(1,-1)"><text id="text1669" x="-1.4" y="-80.0" style="font-style:normal;font-weight:normal;font-size:4px;font-family:sans-serif;fill:#000000;fill-opacity:1;stroke:none"><tspan x="-1.4" y="-80.0">0</tspan></text><text id="text1670" x="67.88203230275508" y="-40.0" style="font-style:normal;font-weight:normal;font-size:4px;font-family:sans-serif;fill:#000000;fill-opacity:1;stroke:none"><tspan x="67.88203230275508" y="-40.0">1</tspan></text><text id="text1671" x="67.88203230275508" y="40.0" style="font-style:normal;font-weight:normal;font-size:4px;font-family:sans-serif;fill:#000000;fill-opacity:1;stroke:none"><tspan x="67.88203230275508" y="40.0">2</tspan></text><text id="text1672" x="-1.4" y="80.0" style="font-style:normal;font-weight:normal;font-size:4px;font-family:sans-serif;fill:#000000;fill-opacity:1;stroke:none"><tspan x="-1.4" y="80.0">3</tspan></text><text id="text1673" x="-70.68203230275509" y="40.0" style="font-style:normal;font-weight:normal;font-size:4px;font-family:sans-serif;fill:#000000;fill-opacity:1;stroke:none"><tspan x="-70.68203230275509" y="40.0">4</tspan></text><text id="text1674" x="-70.68203230275509" y="-40.0" style="font-style:normal;font-weight:normal;font-size:4px;font-family:sans-serif;fill:#000000;fill-opacity:1;stroke:none"><tspan x="-70.68203230275509" y="-40.0">5</tspan></text><text id="text1675" x="33.24101615137754" y="-60.0" style="font-style:normal;font-weight:normal;font-size:4px;font-family:sans-serif;fill:#000000;fill-opacity:1;stroke:none"><tspan x="33.24101615137754" y="-60.0">6</tspan></text><text id="text1676" x="71.08203230275508" y="-13.599999999999998" style="font-style:normal;font-weight:normal;font-size:4px;font-family:sans-serif;fill:#000000;fill-opacity:1;stroke:none"><tspan x="71.08203230275508" y="-13.599999999999998">7</tspan></text><text id="text1677" x="65.48203230275507" y="16.799999999999997" style="font-style:normal;font-weight:normal;font-size:4px;font-family:sans-serif;fill:#000000;fill-opacity:1;stroke:none"><tspan x="65.48203230275507" y="16.799999999999997">8</tspan></text><text id="text1678" x="48.26870390403876" y="47.628718707889796" style="font-style:normal;font-weight:normal;font-size:4px;font-family:sans-serif;fill:#000000;fill-opacity:1;stroke:none"><tspan x="48.26870390403876" y="47.628718707889796">9</tspan></text><text id="text1679" x="29.776914536239786" y="62.0" style="font-style:normal;font-weight:normal;font-size:4px;font-family:sans-serif;fill:#000000;fill-opacity:1;stroke:none"><tspan x="29.776914536239786" y="62.0">10</tspan></text><text id="text1680" x="15.734867429633669" y="72.87846096908265" style="font-style:normal;font-weight:normal;font-size:4px;font-family:sans-serif;fill:#000000;fill-opacity:1;stroke:none"><tspan x="15.734867429633669" y="72.87846096908265">11</tspan></text><text id="text1681" x="-18.798969044771425" y="65.33589838486225" style="font-style:normal;font-weight:normal;font-size:4px;font-family:sans-serif;fill:#000000;fill-opacity:1;stroke:none"><tspan x="-18.798969044771425" y="65.33589838486225">12</tspan></text><text id="text1682" x="-36.04101615137754" y="60.0" style="font-style:normal;font-weight:normal;font-size:4px;font-family:sans-serif;fill:#000000;fill-opacity:1;stroke:none"><tspan x="-36.04101615137754" y="60.0">13</tspan></text><text id="text1683" x="-53.283063257983656" y="54.66410161513776" style="font-style:normal;font-weight:normal;font-size:4px;font-family:sans-serif;fill:#000000;fill-opacity:1;stroke:none"><tspan x="-53.283063257983656" y="54.66410161513776">14</tspan></text><text id="text1684" x="-68.28203230275508" y="21.6" style="font-style:normal;font-weight:normal;font-size:4px;font-family:sans-serif;fill:#000000;fill-opacity:1;stroke:none"><tspan x="-68.28203230275508" y="21.6">15</tspan></text><text id="text1685" x="-70.68203230275509" y="4.0" style="font-style:normal;font-weight:normal;font-size:4px;font-family:sans-serif;fill:#000000;fill-opacity:1;stroke:none"><tspan x="-70.68203230275509" y="4.0">16</tspan></text><text id="text1686" x="-73.88203230275509" y="-19.200000000000003" style="font-style:normal;font-weight:normal;font-size:4px;font-family:sans-serif;fill:#000000;fill-opacity:1;stroke:none"><tspan x="-73.88203230275509" y="-19.200000000000003">17</tspan></text><text id="text1687" x="-51.790242934956105" y="-53.67846096908266" style="font-style:normal;font-weight:normal;font-size:4px;font-family:sans-serif;fill:#000000;fill-opacity:1;stroke:none"><tspan x="-51.790242934956105" y="-53.67846096908266">18</tspan></text><text id="text1688" x="-22.66307065990918" y="-64.0287187078898" style="font-style:normal;font-weight:normal;font-size:4px;font-family:sans-serif;fill:#000000;fill-opacity:1;stroke:none"><tspan x="-22.66307065990918" y="-64.0287187078898">19</tspan></text><text id="text1689" x="-44.4997516901755" y="9.903275169588575" style="font-style:normal;font-weight:normal;font-size:4px;font-family:sans-serif;fill:#000000;fill-opacity:1;stroke:none"><tspan x="-44.4997516901755" y="9.903275169588575">20</tspan></text><text id="text1690" x="1.3095397819887347" y="61.147660932380546" style="font-style:normal;font-weight:normal;font-size:4px;font-family:sans-serif;fill:#000000;fill-opacity:1;stroke:none"><tspan x="1.3095397819887347" y="61.147660932380546">21</tspan></text><text id="text1691" x="-47.70921756562983" y="36.98601094518012" style="font-style:normal;font-weight:normal;font-size:4px;font-family:sans-serif;fill:#000000;fill-opacity:1;stroke:none"><tspan x="-47.70921756562983" y="36.98601094518012">22</tspan></text><text id="text1692" x="13.485228133368134" y="34.75666482007292" style="font-style:normal;font-weight:normal;font-size:4px;font-family:sans-serif;fill:#000000;fill-opacity:1;stroke:none"><tspan x="13.485228133368134" y="34.75666482007292">23</tspan></text><text id="text1693" x="-44.89253609845058" y="-23.645762508995098" style="font-style:normal;font-weight:normal;font-size:4px;font-family:sans-serif;fill:#000000;fill-opacity:1;stroke:none"><tspan x="-44.89253609845058" y="-23.645762508995098">24</tspan></text><text id="text1694" x="-13.854403795583789" y="44.3437463838817" style="font-style:normal;font-weight:normal;font-size:4px;font-family:sans-serif;fill:#000000;fill-opacity:1;stroke:none"><tspan x="-13.854403795583789" y="44.3437463838817">25</tspan></text><text id="text1695" x="-23.884666733515413" y="-12.179066988062559" style="font-style:normal;font-weight:normal;font-size:4px;font-family:sans-serif;fill:#000000;fill-opacity:1;stroke:none"><tspan x="-23.884666733515413" y="-12.179066988062559">26</tspan></text><text id="text1696" x="10.829802828033888" y="-39.70088421923637" style="font-style:normal;font-weight:normal;font-size:4px;font-family:sans-serif;fill:#000000;fill-opacity:1;stroke:none"><tspan x="10.829802828033888" y="-39.70088421923637">27</tspan></text><text id="text1697" x="-31.90046928793485" y="31.08431904073702" style="font-style:normal;font-weight:normal;font-size:4px;font-family:sans-serif;fill:#000000;fill-opacity:1;stroke:none"><tspan x="-31.90046928793485" y="31.08431904073702">28</tspan></text><text id="text1698" x="-14.360860137151553" y="-45.66967064085741" style="font-style:normal;font-weight:normal;font-size:4px;font-family:sans-serif;fill:#000000;fill-opacity:1;stroke:none"><tspan x="-14.360860137151553" y="-45.66967064085741">29</tspan></text><text id="text1699" x="-52.407009550304046" y="-7.806769377891299" style="font-style:normal;font-weight:normal;font-size:4px;font-family:sans-serif;fill:#000000;fill-opacity:1;stroke:none"><tspan x="-52.407009550304046" y="-7.806769377891299">30</tspan></text><text id="text1700" x="-12.381315024359077" y="28.055736873719134" style="font-style:normal;font-weight:normal;font-size:4px;font-family:sans-serif;fill:#000000;fill-opacity:1;stroke:none"><tspan x="-12.381315024359077" y="28.055736873719134">31</tspan></text><text id="text1701" x="26.58977488545978" y="-20.84616668543102" style="font-style:normal;font-weight:normal;font-size:4px;font-family:sans-serif;fill:#000000;fill-opacity:1;stroke:none"><tspan x="26.58977488545978" y="-20.84616668543102">32</tspan></text><text id="text1702" x="-5.742960159908565" y="-3.633216381017227" style="font-style:normal;font-weight:normal;font-size:4px;font-family:sans-serif;fill:#000000;fill-opacity:1;stroke:none"><tspan x="-5.742960159908565" y="-3.633216381017227">33</tspan></text><text id="text1703" x="49.02003424446413" y="-1.4343363019637576" style="font-style:normal;font-weight:normal;font-size:4px;font-family:sans-serif;fill:#000000;fill-opacity:1;stroke:none"><tspan x="49.02003424446413" y="-1.4343363019637576">34</tspan></text><text id="text1704" x="46.74781919510885" y="24.75973008393224" style="font-style:normal;font-weight:normal;font-size:4px;font-family:sans-serif;fill:#000000;fill-opacity:1;stroke:none"><tspan x="46.74781919510885" y="24.75973008393224">35</tspan></text><text id="text1705" x="-20.19139504345023" y="9.943493827221042" style="font-style:normal;font-weight:normal;font-size:4px;font-family:sans-serif;fill:#000000;fill-opacity:1;stroke:none"><tspan x="-20.19139504345023" y="9.943493827221042">36</tspan></text><text id="text1706" x="-2.515223942144507" y="-22.406993746992462" style="font-style:normal;font-weight:normal;font-size:4px;font-family:sans-serif;fill:#000000;fill-opacity:1;stroke:none"><tspan x="-2.515223942144507" y="-22.406993746992462">37</tspan></text><text id="text1707" x="3.221592375555676" y="17.808579241646676" style="font-style:normal;font-weight:normal;font-size:4px;font-family:sans-serif;fill:#000000;fill-opacity:1;stroke:none"><tspan x="3.221592375555676" y="17.808579241646676">38</tspan></text><text id="text1708" x="26.73752082819752" y="11.373770555944033" style="font-style:normal;font-weight:normal;font-size:4px;font-family:sans-serif;fill:#000000;fill-opacity:1;stroke:none"><tspan x="26.73752082819752" y="11.373770555944033">39</tspan></text><text id="text1709" x="49.57360844733325" y="-21.930604301938097" style="font-style:normal;font-weight:normal;font-size:4px;font-family:sans-serif;fill:#000000;fill-opacity:1;stroke:none"><tspan x="49.57360844733325" y="-21.930604301938097">40</tspan></text></g><g id="seed_exclusion" inkscape:label="Seed Exclusion" inkscape:groupmode="layer" style="display:none"><circle id="seed-ex-0" cx="0.0" cy="80.0" r="24.0" style="fill:#800000;stroke:none;stroke-width:0;fill-opacity:0.15" /><circle id="seed-ex-1" cx="69.28203230275508" cy="40.0" r="24.0" style="fill:#800000;stroke:none;stroke-width:0;fill-opacity:0.15" /><circle id="seed-ex-2" cx="69.28203230275508" cy="-40.0" r="19.2" style="fill:#800000;stroke:none;stroke-width:0;fill-opacity:0.15" /><circle id="seed-ex-3" cx="0.0" cy="-80.0" r="16.0" style="fill:#800000;stroke:none;stroke-width:0;fill-opacity:0.15" /><circle id="seed-ex-4" cx="-69.28203230275508" cy="-40.0" r="16.0" style="fill:#800000;stroke:none;stroke-width:0;fill-opacity:0.15" /><circle id="seed-ex-5" cx="-69.28203230275508" cy="40.0" r="19.2" style="fill:#800000;stroke:none;stroke-width:0;fill-opacity:0.15" /><circle id="seed-ex-6" cx="34.64101615137754" cy="60.0" r="24.0" style="fill:#800000;stroke:none;stroke-width:0;fill-opacity:0.15" /><circle id="seed-ex-7" cx="72.48203230275509" cy="13.599999999999998" r="22.50221764019898" style="fill:#800000;stroke:none;stroke-width:0;fill-opacity:0.15" /><circle id="seed-ex-8" cx="66.88203230275508" cy="-16.799999999999997" r="20.527336769850766" style="fill:#800000;stroke:none;stroke-width:0;fill-opacity:0.15" /><circle id="seed-ex-9" cx="49.66870390403876" cy="-47.628718707889796" r="18.466534445941697" style="fill:#800000;stroke:none;stroke-width:0;fill-opacity:0.15" /><circle id="seed-ex-10" cx="31.176914536239785" cy="-62.0" r="17.44" style="fill:#800000;stroke:none;stroke-width:0;fill-opacity:0.15" /><circle id="seed-ex-11" cx="17.13486742963367" cy="-72.87846096908265" r="16.662099165543726" style="fill:#800000;stroke:none;stroke-width:0;fill-opacity:0.15" /><circle id="seed-ex-12" cx="-17.398969044771427" cy="-65.33589838486225" r="16.21554410049746" style="fill:#800000;stroke:none;stroke-width:0;fill-opacity:0.15" /><circle id="seed-ex-13" cx="-34.64101615137754" cy="-60.0" r="16.0" style="fill:#800000;stroke:none;stroke-width:0;fill-opacity:0.15" /><circle id="seed-ex-14" cx="-51.88306325798366" cy="-54.66410161513776" r="15.78445589950254" style="fill:#800000;stroke:none;stroke-width:0;fill-opacity:0.15" /><circle id="seed-ex-15" cx="-66.88203230275508" cy="-21.6" r="16.809900834456275" style="fill:#800000;stroke:none;stroke-width:0;fill-opacity:0.15" /><circle id="seed-ex-16" cx="-69.28203230275508" cy="-4.0" r="17.439999999999998" style="fill:#800000;stroke:none;stroke-width:0;fill-opacity:0.15" /><circle id="seed-ex-17" cx="-72.48203230275509" cy="19.200000000000003" r="18.269465554058304" style="fill:#800000;stroke:none;stroke-width:0;fill-opacity:0.15" /><circle id="seed-ex-18" cx="-50.390242934956106" cy="53.67846096908266" r="20.65666323014924" style="fill:#800000;stroke:none;stroke-width:0;fill-opacity:0.15" /><circle id="seed-ex-19" cx="-21.263070659909182" cy="64.0287187078898" r="22.329782359801015" style="fill:#800000;stroke:none;stroke-width:0;fill-opacity:0.15" /><circle id="seed-ex-20" cx="-43.0997516901755" cy="-9.903275169588575" r="18.01007415373225" style="fill:#800000;stroke:none;stroke-width:0;fill-opacity:0.15" /><circle id="seed-ex-21" cx="2.7095397819887346" cy="-61.147660932380546" r="16.931920940572617" style="fill:#800000;stroke:none;stroke-width:0;fill-opacity:0.15" /><circle id="seed-ex-22" cx="-46.30921756562983" cy="-36.98601094518012" r="16.75960965860932" style="fill:#800000;stroke:none;stroke-width:0;fill-opacity:0.15" /><circle id="seed-ex-23" cx="14.885228133368134" cy="-34.75666482007292" r="18.397821990721567" style="fill:#800000;stroke:none;stroke-width:0;fill-opacity:0.15" /><circle id="seed-ex-24" cx="-43.49253609845058" cy="23.645762508995098" r="19.33994103773687" style="fill:#800000;stroke:none;stroke-width:0;fill-opacity:0.15" /><circle id="seed-ex-25" cx="-12.454403795583788" cy="-44.3437463838817" r="17.328399344166613" style="fill:#800000;stroke:none;stroke-width:0;fill-opacity:0.15" /><circle id="seed-ex-26" cx="-22.484666733515414" cy="12.179066988062559" r="19.528147831990015" style="fill:#800000;stroke:none;stroke-width:0;fill-opacity:0.15" /><circle id="seed-ex-27" cx="12.229802828033888" cy="39.70088421923637" r="22.227294089287348" style="fill:#800000;stroke:none;stroke-width:0;fill-opacity:0.15" /><circle id="seed-ex-28" cx="-30.500469287934852" cy="-31.08431904073702" r="17.46095725092165" style="fill:#800000;stroke:none;stroke-width:0;fill-opacity:0.15" /><circle id="seed-ex-29" cx="-12.960860137151553" cy="45.66967064085741" r="21.67018536157149" style="fill:#800000;stroke:none;stroke-width:0;fill-opacity:0.15" /><circle id="seed-ex-30" cx="-51.00700955030405" cy="7.806769377891299" r="18.474995538079607" style="fill:#800000;stroke:none;stroke-width:0;fill-opacity:0.15" /><circle id="seed-ex-31" cx="-10.981315024359077" cy="-28.055736873719134" r="18.128195903909184" style="fill:#800000;stroke:none;stroke-width:0;fill-opacity:0.15" /><circle id="seed-ex-32" cx="27.989774885459777" cy="20.84616668543102" r="21.706990440005775" style="fill:#800000;stroke:none;stroke-width:0;fill-opacity:0.15" /><circle id="seed-ex-33" cx="-4.342960159908565" cy="3.633216381017227" r="19.75994425916072" style="fill:#800000;stroke:none;stroke-width:0;fill-opacity:0.15" /><circle id="seed-ex-34" cx="50.42003424446413" cy="1.4343363019637576" r="21.177861127485432" style="fill:#800000;stroke:none;stroke-width:0;fill-opacity:0.15" /><circle id="seed-ex-35" cx="48.14781919510885" cy="-24.75973008393224" r="19.54499682571291" style="fill:#800000;stroke:none;stroke-width:0;fill-opacity:0.15" /><circle id="seed-ex-36" cx="-18.79139504345023" cy="-9.943493827221042" r="18.756968674282646" style="fill:#800000;stroke:none;stroke-width:0;fill-opacity:0.15" /><circle id="seed-ex-37" cx="-1.1152239421445074" cy="22.406993746992462" r="20.885448010292677" style="fill:#800000;stroke:none;stroke-width:0;fill-opacity:0.15" /><circle id="seed-ex-38" cx="4.621592375555676" cy="-17.808579241646676" r="18.99120888879355" style="fill:#800000;stroke:none;stroke-width:0;fill-opacity:0.15" /><circle id="seed-ex-39" cx="28.13752082819752" cy="-11.373770555944033" r="19.80901667711949" style="fill:#800000;stroke:none;stroke-width:0;fill-opacity:0.15" /><circle id="seed-ex-40" cx="50.97360844733325" cy="21.930604301938097" r="22.422552164185895" style="fill:#800000;stroke:none;stroke-width:0;fill-opacity:0.15" /></g><g id="margin_exclusion" inkscape:label="Margin Exclusion" inkscape:groupmode="layer" style="display:none"><circle id="circle1710" cx="17.32050807568877" cy="70.0" r="22.0" style="fill:#000080;stroke:none;stroke-width:0;fill-opacity:0.15" /><circle id="circle1711" cx="51.96152422706631" cy="50.0" r="22.0" style="fill:#000080;stroke:none;stroke-width:0;fill-opacity:0.15" /><circle id="circle1712" cx="69.28203230275508" cy="26.606060606060602" r="14.626277721963305" style="fill:#000080;stroke:none;stroke-width:0;fill-opacity:0.15" /><circle id="circle1713" cx="69.28203230275508" cy="-1.526315789473685" r="17.00131759599826" style="fill:#000080;stroke:none;stroke-width:0;fill-opacity:0.15" /><circle id="circle1714" cx="69.28203230275508" cy="-28.275862068965523" r="12.828094168659662" style="fill:#000080;stroke:none;stroke-width:0;fill-opacity:0.15" /><circle id="circle1715" cx="60.06219261938844" cy="-45.323076923076925" r="11.574592865409999" style="fill:#000080;stroke:none;stroke-width:0;fill-opacity:0.15" /><circle id="circle1716" cx="41.41393206787101" cy="-56.0896551724138" r="12.880807428107913" style="fill:#000080;stroke:none;stroke-width:0;fill-opacity:0.15" /><circle id="circle1717" cx="23.414177735044724" cy="-66.48181818181818" r="9.769585456916786" style="fill:#000080;stroke:none;stroke-width:0;fill-opacity:0.15" /><circle id="circle1718" cx="8.10298551714832" cy="-75.32173913043478" r="10.205723884174018" style="fill:#000080;stroke:none;stroke-width:0;fill-opacity:0.15" /><circle id="circle1719" cx="-10.008779309451583" cy="-74.22142857142858" r="12.514887134928546" style="fill:#000080;stroke:none;stroke-width:0;fill-opacity:0.15" /><circle id="circle1720" cx="-26.62634468726338" cy="-64.62727272727273" r="9.926852471957059" style="fill:#000080;stroke:none;stroke-width:0;fill-opacity:0.15" /><circle id="circle1721" cx="-42.655687615491715" cy="-55.372727272727275" r="9.926852471957057" style="fill:#000080;stroke:none;stroke-width:0;fill-opacity:0.15" /><circle id="circle1722" cx="-59.273252993303494" cy="-45.77857142857143" r="12.514887134928548" style="fill:#000080;stroke:none;stroke-width:0;fill-opacity:0.15" /><circle id="circle1723" cx="-69.28203230275508" cy="-30.643478260869564" r="10.205723884174018" style="fill:#000080;stroke:none;stroke-width:0;fill-opacity:0.15" /><circle id="circle1724" cx="-69.28203230275508" cy="-12.963636363636365" r="9.76958545691679" style="fill:#000080;stroke:none;stroke-width:0;fill-opacity:0.15" /><circle id="circle1725" cx="-69.28203230275508" cy="7.8206896551724085" r="12.880807428107914" style="fill:#000080;stroke:none;stroke-width:0;fill-opacity:0.15" /><circle id="circle1726" cx="-69.28203230275508" cy="29.353846153846163" r="11.574592865409997" style="fill:#000080;stroke:none;stroke-width:0;fill-opacity:0.15" /><circle id="circle1727" cx="-59.12863101700649" cy="45.862068965517246" r="12.828094168659664" style="fill:#000080;stroke:none;stroke-width:0;fill-opacity:0.15" /><circle id="circle1728" cx="-35.962844399259055" cy="59.23684210526316" r="17.001317595998252" style="fill:#000080;stroke:none;stroke-width:0;fill-opacity:0.15" /><circle id="circle1729" cx="-11.59949177190066" cy="73.30303030303031" r="14.626277721963305" style="fill:#000080;stroke:none;stroke-width:0;fill-opacity:0.15" /></g><g id="circles" inkscape:label="Inscribed Circles" inkscape:groupmode="layer" style="display:none"><circle id="incircle-0" cx="0.0" cy="80.0" r="13.296616110875732" style="fill:#008000;stroke:none;stroke-width:0;fill-opacity:0.15" /><circle id="incircle-ctr-0" cx="0.0" cy="80.0" r="0.5" style="fill:#000000;stroke:none;stroke-width:0" /><circle id="incircle-1" cx="69.28203230275508" cy="40.0" r="12.861779085364882" style="fill:#008000;stroke:none;stroke-width:0;fill-opacity:0.15" /><circle id="incircle-ctr-1" cx="69.28203230275508" cy="40.0" r="0.5" style="fill:#000000;stroke:none;stroke-width:0" /><circle id="incircle-2" cx="69.28203230275508" cy="-40.0" r="10.522357150372724" style="fill:#008000;stroke:none;stroke-width:0;fill-opacity:0.15" /><circle id="incircle-ctr-2" cx="69.28203230275508" cy="-40.0" r="0.5" style="fill:#000000;stroke:none;stroke-width:0" /><circle id="incircle-3" cx="0.0" cy="-80.0" r="9.277930803794561" style="fill:#008000;stroke:none;stroke-width:0;fill-opacity:0.15" /><circle id="incircle-ctr-3" cx="0.0" cy="-80.0" r="0.5" style="fill:#000000;stroke:none;stroke-width:0" /><circle id="incircle-4" cx="-69.28203230275508" cy="-40.0" r="9.27793080379457" style="fill:#008000;stroke:none;stroke-width:0;fill-opacity:0.15" /><circle id="incircle-ctr-4" cx="-69.28203230275508" cy="-40.0" r="0.5" style="fill:#000000;stroke:none;stroke-width:0" /><circle id="incircle-5" cx="-69.28203230275508" cy="40.0" r="10.522357150372724" style="fill:#008000;stroke:none;stroke-width:0;fill-opacity:0.15" /><circle id="incircle-ctr-5" cx="-69.28203230275508" cy="40.0" r="0.5" style="fill:#000000;stroke:none;stroke-width:0" /><circle id="incircle-6" cx="34.64101615137754" cy="60.0" r="15.118834149044552" style="fill:#008000;stroke:none;stroke-width:0;fill-opacity:0.15" /><circle id="incircle-ctr-6" cx="34.64101615137754" cy="60.0" r="0.5" style="fill:#000000;stroke:none;stroke-width:0" /><circle id="incircle-7" cx="69.28203230275508" cy="12.539872408293459" r="8.931579464729005" style="fill:#008000;stroke:none;stroke-width:0;fill-opacity:0.15" /><circle id="incircle-ctr-7" cx="69.28203230275508" cy="12.539872408293459" r="0.5" style="fill:#000000;stroke:none;stroke-width:0" /><circle id="incircle-8" cx="69.28203230275508" cy="-14.9010889292196" r="12.481787885655681" style="fill:#008000;stroke:none;stroke-width:0;fill-opacity:0.15" /><circle id="incircle-ctr-8" cx="69.28203230275508" cy="-14.9010889292196" r="0.5" style="fill:#000000;stroke:none;stroke-width:0" /><circle id="incircle-9" cx="50.73806234362972" cy="-50.70636604774536" r="10.641381222185297" style="fill:#008000;stroke:none;stroke-width:0;fill-opacity:0.15" /><circle id="incircle-ctr-9" cx="50.73806234362972" cy="-50.70636604774536" r="0.5" style="fill:#000000;stroke:none;stroke-width:0" /><circle id="incircle-10" cx="32.41405490145787" cy="-61.28573667711599" r="10.294696255658444" style="fill:#008000;stroke:none;stroke-width:0;fill-opacity:0.15" /><circle id="incircle-ctr-10" cx="32.41405490145787" cy="-61.28573667711599" r="0.5" style="fill:#000000;stroke:none;stroke-width:0" /><circle id="incircle-11" cx="15.758581626096518" cy="-70.90177865612648" r="6.98160819009016" style="fill:#008000;stroke:none;stroke-width:0;fill-opacity:0.15" /><circle id="incircle-ctr-11" cx="15.758581626096518" cy="-70.90177865612648" r="0.5" style="fill:#000000;stroke:none;stroke-width:0" /><circle id="incircle-12" cx="-18.317561998357483" cy="-69.42435064935066" r="9.355576587220014" style="fill:#008000;stroke:none;stroke-width:0;fill-opacity:0.15" /><circle id="incircle-ctr-12" cx="-18.317561998357483" cy="-69.42435064935066" r="0.5" style="fill:#000000;stroke:none;stroke-width:0" /><circle id="incircle-13" cx="-34.64101615137755" cy="-60.0" r="9.024411338142773" style="fill:#008000;stroke:none;stroke-width:0;fill-opacity:0.15" /><circle id="incircle-ctr-13" cx="-34.64101615137755" cy="-60.0" r="0.5" style="fill:#000000;stroke:none;stroke-width:0" /><circle id="incircle-14" cx="-50.96447030439761" cy="-50.57564935064936" r="5.092538137314277" style="fill:#008000;stroke:none;stroke-width:0;fill-opacity:0.15" /><circle id="incircle-ctr-14" cx="-50.96447030439761" cy="-50.57564935064936" r="0.5" style="fill:#000000;stroke:none;stroke-width:0" /><circle id="incircle-15" cx="-69.28203230275508" cy="-21.803557312252963" r="8.7588603590161" style="fill:#008000;stroke:none;stroke-width:0;fill-opacity:0.15" /><circle id="incircle-ctr-15" cx="-69.28203230275508" cy="-21.803557312252963" r="0.5" style="fill:#000000;stroke:none;stroke-width:0" /><circle id="incircle-16" cx="-69.28203230275508" cy="-2.571473354231978" r="10.103401507906113" style="fill:#008000;stroke:none;stroke-width:0;fill-opacity:0.15" /><circle id="incircle-ctr-16" cx="-69.28203230275508" cy="-2.571473354231978" r="0.5" style="fill:#000000;stroke:none;stroke-width:0" /><circle id="incircle-17" cx="-69.28203230275508" cy="18.587267904509282" r="9.041091244813556" style="fill:#008000;stroke:none;stroke-width:0;fill-opacity:0.15" /><circle id="incircle-ctr-17" cx="-69.28203230275508" cy="18.587267904509282" r="0.5" style="fill:#000000;stroke:none;stroke-width:0" /><circle id="incircle-18" cx="-47.545737708132776" cy="52.5494555353902" r="13.15346329093861" style="fill:#008000;stroke:none;stroke-width:0;fill-opacity:0.15" /><circle id="incircle-ctr-18" cx="-47.545737708132776" cy="52.5494555353902" r="0.5" style="fill:#000000;stroke:none;stroke-width:0" /><circle id="incircle-19" cx="-23.78116808557986" cy="66.26993620414673" r="13.15416877712291" style="fill:#008000;stroke:none;stroke-width:0;fill-opacity:0.15" /><circle id="incircle-ctr-19" cx="-23.78116808557986" cy="66.26993620414673" r="0.5" style="fill:#000000;stroke:none;stroke-width:0" /><circle id="incircle-20" cx="-44.1825628762349" cy="-11.807245039240737" r="10.994652483891995" style="fill:#008000;stroke:none;stroke-width:0;fill-opacity:0.15" /><circle id="incircle-ctr-20" cx="-44.1825628762349" cy="-11.807245039240737" r="0.5" style="fill:#000000;stroke:none;stroke-width:0" /><circle id="incircle-21" cx="2.5556425429678837" cy="-59.82108130509059" r="10.229243732249826" style="fill:#008000;stroke:none;stroke-width:0;fill-opacity:0.15" /><circle id="incircle-ctr-21" cx="2.5556425429678837" cy="-59.82108130509059" r="0.5" style="fill:#000000;stroke:none;stroke-width:0" /><circle id="incircle-22" cx="-48.083833635734514" cy="-35.96573660547813" r="9.707410403638592" style="fill:#008000;stroke:none;stroke-width:0;fill-opacity:0.15" /><circle id="incircle-ctr-22" cx="-48.083833635734514" cy="-35.96573660547813" r="0.5" style="fill:#000000;stroke:none;stroke-width:0" /><circle id="incircle-23" cx="16.51040218272655" cy="-37.3048406424919" r="12.8504389105634" style="fill:#008000;stroke:none;stroke-width:0;fill-opacity:0.15" /><circle id="incircle-ctr-23" cx="16.51040218272655" cy="-37.3048406424919" r="0.5" style="fill:#000000;stroke:none;stroke-width:0" /><circle id="incircle-24" cx="-42.1670733845074" cy="27.109148513715546" r="12.328511198187178" style="fill:#008000;stroke:none;stroke-width:0;fill-opacity:0.15" /><circle id="incircle-ctr-24" cx="-42.1670733845074" cy="27.109148513715546" r="0.5" style="fill:#000000;stroke:none;stroke-width:0" /><circle id="incircle-25" cx="-11.255011854203946" cy="-46.02205808402872" r="9.267685916046862" style="fill:#008000;stroke:none;stroke-width:0;fill-opacity:0.15" /><circle id="incircle-ctr-25" cx="-11.255011854203946" cy="-46.02205808402872" r="0.5" style="fill:#000000;stroke:none;stroke-width:0" /><circle id="incircle-26" cx="-22.353261885828914" cy="14.492665048569119" r="10.72814170928557" style="fill:#008000;stroke:none;stroke-width:0;fill-opacity:0.15" /><circle id="incircle-ctr-26" cx="-22.353261885828914" cy="14.492665048569119" r="0.5" style="fill:#000000;stroke:none;stroke-width:0" /><circle id="incircle-27" cx="13.340185842133785" cy="41.55608821998975" r="12.9982684015093" style="fill:#008000;stroke:none;stroke-width:0;fill-opacity:0.15" /><circle id="incircle-ctr-27" cx="13.340185842133785" cy="41.55608821998975" r="0.5" style="fill:#000000;stroke:none;stroke-width:0" /><circle id="incircle-28" cx="-30.638387628009724" cy="-28.351387775364394" r="9.263828101515248" style="fill:#008000;stroke:none;stroke-width:0;fill-opacity:0.15" /><circle id="incircle-ctr-28" cx="-30.638387628009724" cy="-28.351387775364394" r="0.5" style="fill:#000000;stroke:none;stroke-width:0" /><circle id="incircle-29" cx="-18.00919724048062" cy="42.137645919189225" r="11.212624199826253" style="fill:#008000;stroke:none;stroke-width:0;fill-opacity:0.15" /><circle id="incircle-ctr-29" cx="-18.00919724048062" cy="42.137645919189225" r="0.5" style="fill:#000000;stroke:none;stroke-width:0" /><circle id="incircle-30" cx="-51.89677938297921" cy="7.130916453232052" r="9.443175573784943" style="fill:#008000;stroke:none;stroke-width:0;fill-opacity:0.15" /><circle id="incircle-ctr-30" cx="-51.89677938297921" cy="7.130916453232052" r="0.5" style="fill:#000000;stroke:none;stroke-width:0" /><circle id="incircle-31" cx="-11.124827930090056" cy="-27.342649801034483" r="8.874505456974985" style="fill:#008000;stroke:none;stroke-width:0;fill-opacity:0.15" /><circle id="incircle-ctr-31" cx="-11.124827930090056" cy="-27.342649801034483" r="0.5" style="fill:#000000;stroke:none;stroke-width:0" /><circle id="incircle-32" cx="26.935331622383515" cy="19.355056158828305" r="12.62824917021068" style="fill:#008000;stroke:none;stroke-width:0;fill-opacity:0.15" /><circle id="incircle-ctr-32" cx="26.935331622383515" cy="19.355056158828305" r="0.5" style="fill:#000000;stroke:none;stroke-width:0" /><circle id="incircle-33" cx="-2.7394039222807507" cy="2.664475641424419" r="10.10786026048695" style="fill:#008000;stroke:none;stroke-width:0;fill-opacity:0.15" /><circle id="incircle-ctr-33" cx="-2.7394039222807507" cy="2.664475641424419" r="0.5" style="fill:#000000;stroke:none;stroke-width:0" /><circle id="incircle-34" cx="50.196797196925786" cy="-0.0021707747974755165" r="11.366334146608239" style="fill:#008000;stroke:none;stroke-width:0;fill-opacity:0.15" /><circle id="incircle-ctr-34" cx="50.196797196925786" cy="-0.0021707747974755165" r="0.5" style="fill:#000000;stroke:none;stroke-width:0" /><circle id="incircle-35" cx="47.01373929357061" cy="-25.22112504762239" r="11.074629617546373" style="fill:#008000;stroke:none;stroke-width:0;fill-opacity:0.15" /><circle id="incircle-ctr-35" cx="47.01373929357061" cy="-25.22112504762239" r="0.5" style="fill:#000000;stroke:none;stroke-width:0" /><circle id="incircle-36" cx="-20.186137755952558" cy="-9.609754264307597" r="10.655513410399678" style="fill:#008000;stroke:none;stroke-width:0;fill-opacity:0.15" /><circle id="incircle-ctr-36" cx="-20.186137755952558" cy="-9.609754264307597" r="0.5" style="fill:#000000;stroke:none;stroke-width:0" /><circle id="incircle-37" cx="-2.842634589320988" cy="23.762320191652414" r="10.56764582513802" style="fill:#008000;stroke:none;stroke-width:0;fill-opacity:0.15" /><circle id="incircle-ctr-37" cx="-2.842634589320988" cy="23.762320191652414" r="0.5" style="fill:#000000;stroke:none;stroke-width:0" /><circle id="incircle-38" cx="5.832723061729427" cy="-16.174946790840462" r="10.580139606164455" style="fill:#008000;stroke:none;stroke-width:0;fill-opacity:0.15" /><circle id="incircle-ctr-38" cx="5.832723061729427" cy="-16.174946790840462" r="0.5" style="fill:#000000;stroke:none;stroke-width:0" /><circle id="incircle-39" cx="28.145342815883673" cy="-10.769377202868506" r="12.35728209539663" style="fill:#008000;stroke:none;stroke-width:0;fill-opacity:0.15" /><circle id="incircle-ctr-39" cx="28.145342815883673" cy="-10.769377202868506" r="0.5" style="fill:#000000;stroke:none;stroke-width:0" /><circle id="incircle-40" cx="51.132833087087846" cy="23.622866939396026" r="11.559730776502281" style="fill:#008000;stroke:none;stroke-width:0;fill-opacity:0.15" /><circle id="incircle-ctr-40" cx="51.132833087087846" cy="23.622866939396026" r="0.5" style="fill:#000000;stroke:none;stroke-width:0" /></g><g id="annotations" inkscape:label="Annotations" inkscape:groupmode="layer" transform="scale(1,-1)"><text id="text1730" x="-92" y="84.5" style="font-style:normal;font-weight:normal;font-size:4px;font-family:sans-serif;fill:#000000;fill-opacity:1;stroke:none"><tspan x="-92" y="84.5">id: 422</tspan></text><ns0:text xml:space="preserve" style="font-style:normal;font-weight:normal;font-size:4.23333px;line-height:1.25;font-family:sans-serif;text-align:center;text-anchor:middle;fill:#000000;fill-opacity:1;stroke:none;stroke-width:0.264583" x="-1.7974526e-07" y="0" id="tile-id" transform="translate(0 -72)"><ns0:tspan ns1:role="line" id="tspan439" style="font-style:normal;font-variant:normal;font-weight:bold;font-stretch:normal;font-size:4.23333px;font-family:'Arial Black';-inkscape-font-specification:'Arial Black,  Bold';text-align:center;text-anchor:middle;fill:#808080;fill-opacity:1;stroke-width:0.264583" x="-1.4621764e-07" y="0">422</ns0:tspan></ns0:text>
  <text id="text1731" x="-92" y="90.0" style="font-style:normal;font-weight:normal;font-size:4px;font-family:sans-serif;fill:#000000;fill-opacity:1;stroke:none"><tspan x="-92" y="90.0">size: 80</tspan></text><text id="text1732" x="-92" y="95.5" style="font-style:normal;font-weight:normal;font-size:4px;font-family:sans-serif;fill:#000000;fill-opacity:1;stroke:none"><tspan x="-92" y="95.5">rng seed 4323</tspan></text><text id="text1733" x="-92" y="101.0" style="font-style:normal;font-weight:normal;font-size:4px;font-family:sans-serif;fill:#000000;fill-opacity:1;stroke:none"><tspan x="-92" y="101.0">pattern 112332 / llmhhm</tspan></text><text id="text1734" x="-92" y="106.5" style="font-style:normal;font-weight:normal;font-size:4px;font-family:sans-serif;fill:#000000;fill-opacity:1;stroke:none"><tspan x="-92" y="106.5">seed attempts: 20</tspan></text><text id="text1735" x="-92" y="112.0" style="font-style:normal;font-weight:normal;font-size:4px;font-family:sans-serif;fill:#000000;fill-opacity:1;stroke:none"><tspan x="-92" y="112.0">seed distance: l 0.3; m 0.24; h 0.2</tspan></text><text id="text1736" x="-92" y="117.5" style="font-style:normal;font-weight:normal;font-size:4px;font-family:sans-serif;fill:#000000;fill-opacity:1;stroke:none"><tspan x="-92" y="117.5">center: (AVG) 0.247</tspan></text><text id="text1737" x="-92" y="123.0" style="font-style:normal;font-weight:normal;font-size:4px;font-family:sans-serif;fill:#000000;fill-opacity:1;stroke:none"><tspan x="-92" y="123.0">min ridge length: 0.08; at edge: 0.04</tspan></text><text id="text1738" x="-92" y="128.5" style="font-style:normal;font-weight:normal;font-size:4px;font-family:sans-serif;fill:#000000;fill-opacity:1;stroke:none"><tspan x="-92" y="128.5">edge margin exclusion zone scale: 1.1</tspan></text><text id="text1739" x="-92" y="134.0" style="font-style:normal;font-weight:normal;font-size:4px;font-family:sans-serif;fill:#000000;fill-opacity:1;stroke:none"><tspan x="-92" y="134.0">iterations: 23</tspan></text><text id="text1740" x="-92" y="139.5" style="font-style:normal;font-weight:normal;font-size:4px;font-family:sans-serif;fill:#000000;fill-opacity:1;stroke:none"><tspan x="-92" y="139.5">adjustments: side 0.011, neighbor -0.009</tspan></text><text id="text1741" x="-92" y="145.0" style="font-style:normal;font-weight:normal;font-size:4px;font-family:sans-serif;fill:#000000;fill-opacity:1;stroke:none"><tspan x="-92" y="145.0">closeness: 0.9, adjust -0.013</tspan></text><text id="text1742" x="-1.5" y="-82" style="font-style:normal;font-weight:normal;font-size:4px;font-family:sans-serif;fill:#000000;fill-opacity:1;stroke:none"><tspan x="-1.5" y="-82">L</tspan></text><text id="text1743" x="-1.5" y="-82" style="font-style:normal;font-weight:normal;font-size:4px;font-family:sans-serif;fill:#000000;fill-opacity:1;stroke:none" transform="rotate(60)"><tspan x="-1.5" y="-82">L</tspan></text><text id="text1744" x="-1.5" y="-82" style="font-style:normal;font-weight:normal;font-size:4px;font-family:sans-serif;fill:#000000;fill-opacity:1;stroke:none" transform="rotate(120)"><tspan x="-1.5" y="-82">M</tspan></text><text id="text1745" x="-1.5" y="-82" style="font-style:normal;font-weight:normal;font-size:4px;font-family:sans-serif;fill:#000000;fill-opacity:1;stroke:none" transform="rotate(180)"><tspan x="-1.5" y="-82">H</tspan></text><text id="text1746" x="-1.5" y="-82" style="font-style:normal;font-weight:normal;font-size:4px;font-family:sans-serif;fill:#000000;fill-opacity:1;stroke:none" transform="rotate(240)"><tspan x="-1.5" y="-82">H</tspan></text><text id="text1747" x="-1.5" y="-82" style="font-style:normal;font-weight:normal;font-size:4px;font-family:sans-serif;fill:#000000;fill-opacity:1;stroke:none" transform="rotate(300)"><tspan x="-1.5" y="-82">M</tspan></text><g id="node1748" transform="rotate(30)"><text id="text1749" x="-1.5" y="-72.28203230275508" style="font-style:normal;font-weight:normal;font-size:4px;font-family:sans-serif;fill:#000000;fill-opacity:1;stroke:none"><tspan x="-1.5" y="-72.28203230275508">L</tspan></text></g><g id="node1750" transform="rotate(90)"><text id="text1751" x="-15.099999999999998" y="-72.28203230275508" style="font-style:normal;font-weight:normal;font-size:4px;font-family:sans-serif;fill:#000000;fill-opacity:1;stroke:none"><tspan x="-15.099999999999998" y="-72.28203230275508">L</tspan></text><text id="text1752" x="15.299999999999997" y="-72.28203230275508" style="font-style:normal;font-weight:normal;font-size:4px;font-family:sans-serif;fill:#000000;fill-opacity:1;stroke:none"><tspan x="15.299999999999997" y="-72.28203230275508">L</tspan></text></g><g id="node1753" transform="rotate(150)"><text id="text1754" x="-20.7" y="-72.28203230275508" style="font-style:normal;font-weight:normal;font-size:4px;font-family:sans-serif;fill:#000000;fill-opacity:1;stroke:none"><tspan x="-20.7" y="-72.28203230275508">M</tspan></text><text id="text1755" x="2.5" y="-72.28203230275508" style="font-style:normal;font-weight:normal;font-size:4px;font-family:sans-serif;fill:#000000;fill-opacity:1;stroke:none"><tspan x="2.5" y="-72.28203230275508">H</tspan></text><text id="text1756" x="20.1" y="-72.28203230275508" style="font-style:normal;font-weight:normal;font-size:4px;font-family:sans-serif;fill:#000000;fill-opacity:1;stroke:none"><tspan x="20.1" y="-72.28203230275508">M</tspan></text></g><g id="node1757" transform="rotate(210)"><text id="text1758" x="-19.099999999999998" y="-72.28203230275508" style="font-style:normal;font-weight:normal;font-size:4px;font-family:sans-serif;fill:#000000;fill-opacity:1;stroke:none"><tspan x="-19.099999999999998" y="-72.28203230275508">H</tspan></text><text id="text1759" x="-1.5" y="-72.28203230275508" style="font-style:normal;font-weight:normal;font-size:4px;font-family:sans-serif;fill:#000000;fill-opacity:1;stroke:none"><tspan x="-1.5" y="-72.28203230275508">M</tspan></text><text id="text1760" x="16.099999999999994" y="-72.28203230275508" style="font-style:normal;font-weight:normal;font-size:4px;font-family:sans-serif;fill:#000000;fill-opacity:1;stroke:none"><tspan x="16.099999999999994" y="-72.28203230275508">H</tspan></text></g><g id="node1761" transform="rotate(270)"><text id="text1762" x="-23.1" y="-72.28203230275508" style="font-style:normal;font-weight:normal;font-size:4px;font-family:sans-serif;fill:#000000;fill-opacity:1;stroke:none"><tspan x="-23.1" y="-72.28203230275508">M</tspan></text><text id="text1763" x="-5.5" y="-72.28203230275508" style="font-style:normal;font-weight:normal;font-size:4px;font-family:sans-serif;fill:#000000;fill-opacity:1;stroke:none"><tspan x="-5.5" y="-72.28203230275508">H</tspan></text><text id="text1764" x="17.700000000000003" y="-72.28203230275508" style="font-style:normal;font-weight:normal;font-size:4px;font-family:sans-serif;fill:#000000;fill-opacity:1;stroke:none"><tspan x="17.700000000000003" y="-72.28203230275508">M</tspan></text></g><g id="node1765" transform="rotate(330)"><text id="text1766" x="-18.299999999999997" y="-72.28203230275508" style="font-style:normal;font-weight:normal;font-size:4px;font-family:sans-serif;fill:#000000;fill-opacity:1;stroke:none"><tspan x="-18.299999999999997" y="-72.28203230275508">L</tspan></text><text id="text1767" x="12.099999999999994" y="-72.28203230275508" style="font-style:normal;font-weight:normal;font-size:4px;font-family:sans-serif;fill:#000000;fill-opacity:1;stroke:none"><tspan x="12.099999999999994" y="-72.28203230275508">L</tspan></text></g><g id="node1768" transform="rotate(90)"><rect id="rect1769" x="0.10000000000000142" y="-77.28203230275508" width="3" height="8" style="fill:#a2c6ff;stroke:#000000;stroke-width:0.3" /><text id="text1770" x="0.10000000000000142" y="-79.28203230275508" style="font-style:normal;font-weight:normal;font-size:4px;font-family:sans-serif;fill:#000000;fill-opacity:1;stroke:none"><tspan x="0.10000000000000142" y="-79.28203230275508">R</tspan></text></g><g id="node1771" transform="rotate(330)"><rect id="rect1772" x="-3.1000000000000014" y="-77.28203230275508" width="3" height="8" style="fill:#a2c6ff;stroke:#000000;stroke-width:0.3" /><text id="text1773" x="-3.1000000000000014" y="-79.28203230275508" style="font-style:normal;font-weight:normal;font-size:4px;font-family:sans-serif;fill:#000000;fill-opacity:1;stroke:none"><tspan x="-3.1000000000000014" y="-79.28203230275508">R</tspan></text></g><circle id="mana" cx="50" cy="110" r="7.5" style="fill:#000000;stroke:none;stroke-width:0" /><rect id="rect1774" x="75" y="90" width="15" height="6" style="fill:#be850a;stroke:#000000;stroke-width:0.3" /><text id="text1775" x="70" y="94.5" style="font-style:normal;font-weight:normal;font-size:4px;font-family:sans-serif;fill:#000000;fill-opacity:1;stroke:none"><tspan x="70" y="94.5">V</tspan></text><rect id="rect1776" x="75" y="100" width="15" height="6" style="fill:#e7a311;stroke:#000000;stroke-width:0.3" /><text id="text1777" x="70" y="104.5" style="font-style:normal;font-weight:normal;font-size:4px;font-family:sans-serif;fill:#000000;fill-opacity:1;stroke:none"><tspan x="70" y="104.5">H</tspan></text><rect id="rect1778" x="75" y="110" width="15" height="6" style="fill:#f0ce76;stroke:#000000;stroke-width:0.3" /><text id="text1779" x="70" y="114.5" style="font-style:normal;font-weight:normal;font-size:4px;font-family:sans-serif;fill:#000000;fill-opacity:1;stroke:none"><tspan x="70" y="114.5">M</tspan></text><rect id="rect1780" x="75" y="120" width="15" height="6" style="fill:#f0eaac;stroke:#000000;stroke-width:0.3" /><text id="text1781" x="70" y="124.5" style="font-style:normal;font-weight:normal;font-size:4px;font-family:sans-serif;fill:#000000;fill-opacity:1;stroke:none"><tspan x="70" y="124.5">L</tspan></text><rect id="rect1782" x="75" y="130" width="15" height="6" style="fill:#a2c6ff;stroke:#000000;stroke-width:0.3" /><text id="text1783" x="70" y="134.5" style="font-style:normal;font-weight:normal;font-size:4px;font-family:sans-serif;fill:#000000;fill-opacity:1;stroke:none"><tspan x="70" y="134.5">R</tspan></text></g><g id="river-border" inkscape:label="River Border" inkscape:groupmode="layer"><path id="path1784" d="m 15.8479 4.68018 -3.0156 5.66449 z" style="fill:none;stroke:#000000;stroke-width:2.6;stroke-linecap:round;stroke-linejoin:round" /><path id="path1785" d="m -10.3848 14.3363 23.2171 -3.99166 z" style="fill:none;stroke:#000000;stroke-width:2.6;stroke-linecap:round;stroke-linejoin:round" /><path id="path1786" d="m 79.114 -3.33748 -12.9977 2.39432 z" style="fill:none;stroke:#000000;stroke-width:2.6;stroke-linecap:round;stroke-linejoin:round" /><path id="path1787" d="m 66.1163 -0.943158 -12.3083 -11.112 z" style="fill:none;stroke:#000000;stroke-width:2.6;stroke-linecap:round;stroke-linejoin:round" /><path id="path1788" d="m 33.6849 4.76197 9.11783 -15.8625 z" style="fill:none;stroke:#000000;stroke-width:2.6;stroke-linecap:round;stroke-linejoin:round" /><path id="path1789" d="m 42.8028 -11.1005 11.0052 -0.954652 z" style="fill:none;stroke:#000000;stroke-width:2.6;stroke-linecap:round;stroke-linejoin:round" /><path id="path1790" d="m 33.6849 4.76197 -17.8371 -0.0817928 z" style="fill:none;stroke:#000000;stroke-width:2.6;stroke-linecap:round;stroke-linejoin:round" /><path id="path1791" d="m -10.3848 14.3363 -6.92613 14.4709 z" style="fill:none;stroke:#000000;stroke-width:2.6;stroke-linecap:round;stroke-linejoin:round" /><path id="path1792" d="m -39.1466 68.1964 7.13687 -20.0842 z" style="fill:none;stroke:#000000;stroke-width:2.6;stroke-linecap:round;stroke-linejoin:round" /><path id="path1793" d="m -32.0097 48.1122 -1.35484 -6.33188 z" style="fill:none;stroke:#000000;stroke-width:2.6;stroke-linecap:round;stroke-linejoin:round" /><path id="path1794" d="m -25.7344 31.2027 -7.63017 10.5777 z" style="fill:none;stroke:#000000;stroke-width:2.6;stroke-linecap:round;stroke-linejoin:round" /><path id="path1795" d="m -25.7344 31.2027 8.42348 -2.39541 z" style="fill:none;stroke:#000000;stroke-width:2.6;stroke-linecap:round;stroke-linejoin:round" /></g><g id="river" inkscape:label="River" inkscape:groupmode="layer"><path id="path1784" d="m 15.8479 4.68018 -3.0156 5.66449 z" style="fill:none;stroke:#a2c6ff;stroke-width:2.0;stroke-linecap:round;stroke-linejoin:round" /><path id="path1785" d="m -10.3848 14.3363 23.2171 -3.99166 z" style="fill:none;stroke:#a2c6ff;stroke-width:2.0;stroke-linecap:round;stroke-linejoin:round" /><path id="path1786" d="m 79.114 -3.33748 -12.9977 2.39432 z" style="fill:none;stroke:#a2c6ff;stroke-width:2.0;stroke-linecap:round;stroke-linejoin:round" /><path id="path1787" d="m 66.1163 -0.943158 -12.3083 -11.112 z" style="fill:none;stroke:#a2c6ff;stroke-width:2.0;stroke-linecap:round;stroke-linejoin:round" /><path id="path1788" d="m 33.6849 4.76197 9.11783 -15.8625 z" style="fill:none;stroke:#a2c6ff;stroke-width:2.0;stroke-linecap:round;stroke-linejoin:round" /><path id="path1789" d="m 42.8028 -11.1005 11.0052 -0.954652 z" style="fill:none;stroke:#a2c6ff;stroke-width:2.0;stroke-linecap:round;stroke-linejoin:round" /><path id="path1790" d="m 33.6849 4.76197 -17.8371 -0.0817928 z" style="fill:none;stroke:#a2c6ff;stroke-width:2.0;stroke-linecap:round;stroke-linejoin:round" /><path id="path1791" d="m -10.3848 14.3363 -6.92613 14.4709 z" style="fill:none;stroke:#a2c6ff;stroke-width:2.0;stroke-linecap:round;stroke-linejoin:round" /><path id="path1792" d="m -39.1466 68.1964 7.13687 -20.0842 z" style="fill:none;stroke:#a2c6ff;stroke-width:2.0;stroke-linecap:round;stroke-linejoin:round" /><path id="path1793" d="m -32.0097 48.1122 -1.35484 -6.33188 z" style="fill:none;stroke:#a2c6ff;stroke-width:2.0;stroke-linecap:round;stroke-linejoin:round" /><path id="path1794" d="m -25.7344 31.2027 -7.63017 10.5777 z" style="fill:none;stroke:#a2c6ff;stroke-width:2.0;stroke-linecap:round;stroke-linejoin:round" /><path id="path1795" d="m -25.7344 31.2027 8.42348 -2.39541 z" style="fill:none;stroke:#a2c6ff;stroke-width:2.0;stroke-linecap:round;stroke-linejoin:round" /></g><g id="overlay" inkscape:label="Overlay" inkscape:groupmode="layer" transform="scale(1,-1)" /><g id="border" inkscape:label="Border" inkscape:groupmode="layer"><path id="path1796" d="m 0 80 69.282 -40 0 -80 -69.282 -40 -69.282 40 0 80 z" style="fill:none;stroke:#000000;stroke-width:0.3" /></g></g></svg>