<?xml version='1.0' encoding='UTF-8'?>
<svg xmlns:ns0="http://www.w3.org/2000/svg" xmlns:ns1="http://sodipodi.sourceforge.net/DTD/sodipodi-0.dtd" version="1.1" id="svg_root" xmlns="http://www.w3.org/2000/svg" xmlns:sodipodi="http://sodipodi.sourceforge.net/DTD/sodipodi-0.dtd" xmlns:inkscape="http://www.inkscape.org/namespaces/inkscape" xmlns:xlink="http://www.w3.org/1999/xlink" width="215.9mm" height="279.4mm" viewBox="0 0 215.9 279.4"><defs /><g id="layer" inkscape:label="Layer" inkscape:groupmode="layer" transform="translate(107.95 120) scale(1, -1)"><g id="background" inkscape:label="Tile Background" inkscape:groupmode="layer"><path id="path1920" d="m 0 80 69.282 -40 0 -80 -69.282 -40 -69.282 40 0 80 z" style="fill:#000000;stroke:none;stroke-width:0" /></g><g id="region-clip" inkscape:label="Region Clipped" inkscape:groupmode="layer" style="display:none"><g id="clip"><path id="clipregion-0" d="m 14.2613 64.7012 -15.7141 -4.90674 -10.1466 13.5085 11.5995 6.69697 17.3205 -10 z" style="fill:#f0eaac;stroke:#000000;stroke-width:0.3" /><path id="clipregion-1" d="m 54.1836 24.7759 -7.12219 16.7368 4.90013 8.48727 17.3205 -10 0 -13.3939 z" style="fill:#f0eaac;stroke:#000000;stroke-width:0.3" /><path id="clipregion-2" d="m 56.1112 -35.1652 2.69999 5.80619 10.4708 1.08319 0 -11.7241 -9.21984 -5.32308 z" style="fill:#f0ce76;stroke:#000000;stroke-width:0.3" /><path id="clipregion-3" d="m -3.29147 -66.2513 8.96326 -3.2208 2.43119 -5.8496 -8.10299 -4.67826 -10.0088 5.77857 z" style="fill:#e7a311;stroke:#000000;stroke-width:0.3" /><path id="clipregion-4" d="m -55.3187 -32.4648 1.73922 -6.55816 -5.69375 -6.75564 -10.0088 5.77857 0 9.35652 z" style="fill:#e7a311;stroke:#000000;stroke-width:0.3" /><path id="clipregion-5" d="m -54.9329 40.0672 -2.66262 -12.5113 -11.6865 1.79792 0 10.6462 10.1534 5.86207 z" style="fill:#f0ce76;stroke:#000000;stroke-width:0.3" /><path id="clipregion-6" d="m 47.0614 41.5127 -17.5931 0.938549 -15.207 22.2499 3.05925 5.29877 34.641 -20 z" style="fill:#f0eaac;stroke:#000000;stroke-width:0.3" /><path id="clipregion-7" d="m 55.9845 0.923223 -4.85237 12.679 3.05142 11.1738 15.0984 1.83011 0 -28.1324 z" style="fill:#f0eaac;stroke:#000000;stroke-width:0.3" /><path id="clipregion-8" d="m 58.8112 -29.359 -9.01928 18.1465 6.19259 12.1358 13.2975 -2.44954 0 -26.7495 z" style="fill:#f0eaac;stroke:#000000;stroke-width:0.3" /><path id="clipregion-9" d="m 35.6238 -48.6394 1.57951 7.88353 18.9079 5.59066 3.95095 -10.1578 -18.6483 -10.7666 z" style="fill:#f0ce76;stroke:#000000;stroke-width:0.3" /><path id="clipregion-10" d="m 19.3393 -61.2219 1.16626 6.34884 15.1183 6.23367 5.7901 -7.45022 -17.9998 -10.3922 z" style="fill:#e7a311;stroke:#000000;stroke-width:0.3" /><path id="clipregion-11" d="m 5.67179 -69.4721 13.6675 8.2502 4.07486 -5.25988 -15.3112 -8.83992 z" style="fill:#f0ce76;stroke:#000000;stroke-width:0.3" /><path id="clipregion-12" d="m -22.995 -52.8932 15.2042 1.68981 4.49938 -15.0479 -6.71731 -7.97009 -16.6176 9.59416 z" style="fill:#e7a311;stroke:#000000;stroke-width:0.3" /><path id="clipregion-13" d="m -39.9225 -46.541 6.32453 1.0912 10.603 -7.44347 -3.63133 -11.734 -16.0293 9.25455 z" style="fill:#f0ce76;stroke:#000000;stroke-width:0.3" /><path id="clipregion-14" d="m -53.5795 -39.0229 13.657 -7.51803 -2.73317 -8.83176 -16.6176 9.59416 z" style="fill:#e7a311;stroke:#000000;stroke-width:0.3" /><path id="clipregion-15" d="m -60.6426 -11.7855 7.61594 -14.687 -2.29203 -5.99227 -13.9633 1.8213 0 17.6798 z" style="fill:#f0ce76;stroke:#000000;stroke-width:0.3" /><path id="clipregion-16" d="m -57.2938 9.47423 3.08878 -5.62576 -6.43757 -15.634 -8.6394 -1.1781 0 20.7843 z" style="fill:#e7a311;stroke:#000000;stroke-width:0.3" /><path id="clipregion-17" d="m -57.5955 27.5559 2.84451 -5.82237 -2.54283 -12.2593 -11.9882 -1.65354 0 21.5332 z" style="fill:#f0ce76;stroke:#000000;stroke-width:0.3" /><path id="clipregion-18" d="m -32.619 49.8268 -22.3139 -9.7596 -4.19573 5.79486 23.1658 13.3748 z" style="fill:#f0eaac;stroke:#000000;stroke-width:0.3" /><path id="clipregion-19" d="m -1.45285 59.7945 -3.57087 -5.79642 -22.3024 -7.82055 -5.29289 3.64929 -3.34383 9.41003 24.3634 14.0662 z" style="fill:#f0eaac;stroke:#000000;stroke-width:0.3" /><path id="clipregion-20" d="m -57.5955 27.5559 2.66262 12.5113 22.3139 9.7596 5.29289 -3.64929 1.30394 -21.3292 -28.7288 -3.11473 z" style="fill:#f0ce76;stroke:#000000;stroke-width:0.3" /><path id="clipregion-21" d="m -27.3261 46.1775 22.3024 7.82055 9.92418 -28.195 -6.87248 -5.94014 -18.4008 -1.71021 -5.64932 6.69556 z" style="fill:#f0ce76;stroke:#000000;stroke-width:0.3" /><path id="clipregion-22" d="m -26.0222 24.8483 5.64932 -6.69556 -2.17834 -6.71219 -19.5283 -12.2737 -12.1255 4.6816 -3.08878 5.62576 2.54283 12.2593 z" style="fill:#f0ce76;stroke:#000000;stroke-width:0.3" /><path id="clipregion-23" d="m 26.8421 11.1889 -12.1624 14.9979 14.7886 16.2645 17.5931 -0.938549 7.12219 -16.7368 -3.05142 -11.1738 z" style="fill:#f0eaac;stroke:#000000;stroke-width:0.3" /><path id="clipregion-24" d="m 55.9845 0.923223 -6.19259 -12.1358 -22.4897 -7.09061 -8.1809 9.68453 7.7207 19.8076 24.2901 2.41329 z" style="fill:#f0ce76;stroke:#000000;stroke-width:0.3" /><path id="clipregion-25" d="m 5.67284 -40.4165 14.8327 -14.4566 -1.16626 -6.34884 -13.6675 -8.2502 -8.96326 3.2208 -4.49938 15.0479 7.02115 10.8943 z" style="fill:#f0ce76;stroke:#000000;stroke-width:0.3" /><path id="clipregion-26" d="m 26.3878 -24.7288 10.8155 -16.0271 -1.57951 -7.88353 -15.1183 -6.23367 -14.8327 14.4566 z" style="fill:#f0ce76;stroke:#000000;stroke-width:0.3" /><path id="clipregion-27" d="m 49.792 -11.2126 9.01928 -18.1465 -2.69999 -5.80619 -18.9079 -5.59066 -10.8155 16.0271 0.91447 6.42559 z" style="fill:#f0eaac;stroke:#000000;stroke-width:0.3" /><path id="clipregion-28" d="m -42.0795 -0.833128 6.91229 -16.9856 -17.8595 -8.6538 -7.61594 14.687 6.43757 15.634 z" style="fill:#f0ce76;stroke:#000000;stroke-width:0.3" /><path id="clipregion-29" d="m 19.1214 -8.61866 -13.5446 1.76028 -7.54884 26.7213 6.87248 5.94014 9.77922 0.383715 12.1624 -14.9979 z" style="fill:#f0eaac;stroke:#000000;stroke-width:0.3" /><path id="clipregion-30" d="m -0.769703 -40.3091 -7.02115 -10.8943 -15.2042 -1.68981 -10.603 7.44347 7.61924 19.6637 20.5846 -6.36422 z" style="fill:#f0ce76;stroke:#000000;stroke-width:0.3" /><path id="clipregion-31" d="m -29.1641 -20.0556 3.18533 -5.73045 -7.61924 -19.6637 -6.32453 -1.0912 -13.657 7.51803 -1.73922 6.55816 2.29203 5.99227 17.8595 8.6538 z" style="fill:#e7a311;stroke:#000000;stroke-width:0.3" /><path id="clipregion-32" d="m 4.90046 25.8031 -9.92418 28.195 3.57087 5.79642 15.7141 4.90674 15.207 -22.2499 -14.7886 -16.2645 z" style="fill:#f0ce76;stroke:#000000;stroke-width:0.3" /><path id="clipregion-33" d="m -22.5512 11.4405 5.45035 -17.5357 -12.0632 -13.9604 -6.00314 2.23687 -6.91229 16.9856 z" style="fill:#f0ce76;stroke:#000000;stroke-width:0.3" /><path id="clipregion-34" d="m -20.3729 18.1527 18.4008 1.71021 7.54884 -26.7213 -5.58534 -3.70907 -17.0923 4.47224 -5.45035 17.5357 z" style="fill:#f0eaac;stroke:#000000;stroke-width:0.3" /><path id="clipregion-35" d="m -5.39414 -32.1503 -20.5846 6.36422 -3.18533 5.73045 12.0632 13.9604 17.0923 -4.47224 z" style="fill:#f0ce76;stroke:#000000;stroke-width:0.3" /><path id="clipregion-36" d="m 27.3023 -18.3032 -0.91447 -6.42559 -20.715 -15.6877 -6.44254 0.107385 -4.62444 8.15889 5.38561 21.5828 5.58534 3.70907 13.5446 -1.76028 z" style="fill:#f0eaac;stroke:#000000;stroke-width:0.3" /></g></g><g id="region-rounded" inkscape:label="Region Rounded" inkscape:groupmode="layer"><g id="rounded"><path id="roundedregion-0" d="m 14.7613 65.5673 c -0.35 -0.606218 -0.786364 -0.955443 -1.45455 -1.16408 l -13.805 -4.31062 c -0.668183 -0.208641 -1.13472 -0.0581879 -1.55512 0.501509 l -9.54606 12.709 11.5995 6.69697 17.3205 -10 z" style="fill:#f0eaac;stroke:#000000;stroke-width:0.3" /><path id="roundedregion-1" d="m 55.1763 24.8963 c -0.694914 -0.084232 -1.1102 0.155714 -1.3843 0.79982 l -6.33907 14.8965 c -0.274094 0.644106 -0.241562 1.17996 0.108438 1.78618 l 4.40013 7.62125 17.3205 -10 0 -13.3939 z" style="fill:#f0eaac;stroke:#000000;stroke-width:0.3" /><path id="roundedregion-2" d="m 56.4737 -36.0972 c -0.25375 0.652389 -0.236003 1.20401 0.0591573 1.83874 l 1.85667 3.99268 c 0.29516 0.634729 0.720065 0.937625 1.41635 1.00965 l 9.47611 0.980287 0 -11.7241 -9.21984 -5.32308 z" style="fill:#f0ce76;stroke:#000000;stroke-width:0.3" /><path id="roundedregion-3" d="m -3.93592 -67.016 c 0.451117 0.535251 0.926779 0.663195 1.58554 0.426479 l 7.08109 -2.54448 c 0.658761 -0.236715 1.05622 -0.615191 1.32488 -1.26159 l 2.0474 -4.92618 -8.10299 -4.67826 -10.0088 5.77857 z" style="fill:#e7a311;stroke:#000000;stroke-width:0.3" /><path id="roundedregion-4" d="m -56.3103 -32.3354 c 0.69412 -0.0905374 1.0685 -0.419315 1.24794 -1.09593 l 1.22654 -4.62498 c 0.179437 -0.676611 0.0630024 -1.19598 -0.388115 -1.73123 l -5.04929 -5.99099 -10.0088 5.77857 0 9.35652 z" style="fill:#e7a311;stroke:#000000;stroke-width:0.3" /><path id="roundedregion-5" d="m -55.5194 40.8772 c 0.410521 -0.566985 0.524013 -1.10341 0.378304 -1.78807 l -2.2463 -10.5551 c -0.145709 -0.684667 -0.504667 -0.932479 -1.19653 -0.826039 l -10.6981 1.64587 0 10.6462 10.1534 5.86207 z" style="fill:#f0ce76;stroke:#000000;stroke-width:0.3" /><path id="roundedregion-6" d="m 47.5614 42.3788 c -0.35 -0.606218 -0.799574 -0.850044 -1.49858 -0.812754 l -15.596 0.832006 c -0.699006 0.0372903 -1.16786 0.30095 -1.56284 0.878866 l -14.0785 20.5988 c -0.394985 0.577916 -0.414264 1.0854 -0.0642637 1.69162 l 2.55925 4.43275 34.641 -20 z" style="fill:#f0eaac;stroke:#000000;stroke-width:0.3" /><path id="roundedregion-7" d="m 56.968 0.74206 c -0.688417 0.126814 -1.09068 0.461345 -1.34088 1.1151 l -4.13751 10.8111 c -0.2502 0.653758 -0.278396 1.22334 -0.0939872 1.89862 l 2.52454 9.2444 c 0.184409 0.675273 0.561261 1.00077 1.25618 1.08501 l 14.1057 1.70978 0 -28.1324 z" style="fill:#f0eaac;stroke:#000000;stroke-width:0.3" /><path id="roundedregion-8" d="m 59.8059 -29.2561 c -0.696284 -0.0720294 -1.12822 0.165748 -1.43977 0.79259 l -8.12911 16.3555 c -0.311558 0.626843 -0.308726 1.16271 0.00943713 1.78623 l 5.28355 10.3543 c 0.318164 0.623516 0.749555 0.836388 1.43797 0.709574 l 12.314 -2.26838 0 -26.7495 z" style="fill:#f0eaac;stroke:#000000;stroke-width:0.3" /><path id="roundedregion-9" d="m 36.2375 -49.429 c -0.429549 0.552709 -0.554706 1.08374 -0.41719 1.7701 l 1.18661 5.9225 c 0.137516 0.686359 0.48414 1.06558 1.15541 1.26406 l 16.99 5.02357 c 0.671272 0.198481 1.06771 0.00394871 1.32146 -0.64844 l 3.58845 -9.22585 -18.6483 -10.7666 z" style="fill:#f0ce76;stroke:#000000;stroke-width:0.3" /><path id="roundedregion-10" d="m 19.9517 -62.0125 c -0.428699 0.553369 -0.558224 1.08559 -0.431752 1.77407 l 0.804915 4.38175 c 0.126472 0.68848 0.458023 1.0979 1.10517 1.36474 l 13.2693 5.47128 c 0.647146 0.266836 1.10859 0.144319 1.53814 -0.40839 l 5.17646 -6.66064 -17.9998 -10.3922 z" style="fill:#e7a311;stroke:#000000;stroke-width:0.3" /><path id="roundedregion-11" d="m 6.05558 -70.3956 c -0.268652 0.646395 -0.126954 1.07846 0.472327 1.4402 l 11.9553 7.21664 c 0.599282 0.361748 1.03984 0.279624 1.46854 -0.273745 l 3.46244 -4.46936 -15.3112 -8.83992 z" style="fill:#f0ce76;stroke:#000000;stroke-width:0.3" /><path id="roundedregion-12" d="m -23.2906 -53.8485 c 0.206946 0.66871 0.593801 0.988439 1.28952 1.06576 l 13.2164 1.46889 c 0.695716 0.0773228 1.07982 -0.176965 1.28035 -0.847627 l 3.92644 -13.1317 c 0.200531 -0.670662 0.0931363 -1.18748 -0.357981 -1.72273 l -6.07286 -7.20545 -16.6176 9.59416 z" style="fill:#e7a311;stroke:#000000;stroke-width:0.3" /><path id="roundedregion-13" d="m -40.2182 -47.4963 c 0.206946 0.66871 0.591269 1.00631 1.28108 1.12532 l 4.35365 0.751153 c 0.689808 0.119016 1.23098 -0.00234864 1.8039 -0.404547 l 8.96607 -6.29433 c 0.572919 -0.402199 0.729765 -0.86116 0.522819 -1.52987 l -3.3357 -10.7787 -16.0293 9.25455 z" style="fill:#f0ce76;stroke:#000000;stroke-width:0.3" /><path id="roundedregion-14" d="m -54.224 -39.7876 c 0.451117 0.535251 0.907263 0.61997 1.52049 0.282396 l 11.9049 -6.55353 c 0.613224 -0.337574 0.787344 -0.768838 0.580398 -1.43755 l -2.43753 -7.87646 -16.6176 9.59416 z" style="fill:#e7a311;stroke:#000000;stroke-width:0.3" /><path id="roundedregion-15" d="m -61.6335 -11.9206 c 0.693581 0.0945792 1.12893 -0.13121 1.45117 -0.75263 l 6.69526 -12.9115 c 0.322238 -0.62142 0.353163 -1.16794 0.103083 -1.82175 l -1.57752 -4.12425 c -0.250079 -0.653805 -0.654736 -0.895205 -1.34886 -0.804667 l -12.9717 1.69196 0 17.6798 z" style="fill:#f0ce76;stroke:#000000;stroke-width:0.3" /><path id="roundedregion-16" d="m -58.2845 9.3376 c 0.693435 0.0956462 1.135 -0.126334 1.4719 -0.739933 l 2.12624 -3.87262 c 0.336892 -0.613599 0.367049 -1.15397 0.100523 -1.80125 l -5.67606 -13.7847 c -0.266526 -0.647274 -0.678001 -0.965211 -1.37158 -1.05979 l -7.64857 -1.04299 0 20.7843 z" style="fill:#e7a311;stroke:#000000;stroke-width:0.3" /><path id="roundedregion-17" d="m -58.5839 27.708 c 0.69186 -0.10644 1.12006 -0.421609 1.42733 -1.05056 l 1.96658 -4.02536 c 0.307274 -0.628954 0.378034 -1.19225 0.235866 -1.87766 l -2.13664 -10.301 c -0.142168 -0.685411 -0.500284 -1.02015 -1.19372 -1.1158 l -10.9976 -1.51691 0 21.5332 z" style="fill:#f0ce76;stroke:#000000;stroke-width:0.3" /><path id="roundedregion-18" d="m -32.9539 50.7691 c 0.234385 -0.659594 0.0599758 -1.06249 -0.581363 -1.343 l -20.4815 -8.95815 c -0.641339 -0.280507 -1.09214 -0.157731 -1.50266 0.409254 l -3.60927 4.98488 23.1658 13.3748 z" style="fill:#f0eaac;stroke:#000000;stroke-width:0.3" /><path id="roundedregion-19" d="m -2.05343 60.5941 c 0.420404 -0.559697 0.443225 -1.05499 0.0760697 -1.65097 l -2.52186 -4.0936 c -0.367155 -0.595984 -0.807606 -0.950677 -1.46817 -1.18231 l -20.4151 -7.15874 c -0.660565 -0.231633 -1.19065 -0.160616 -1.76695 0.236725 l -3.64632 2.51403 c -0.576299 0.397341 -0.923735 0.850313 -1.15812 1.50991 l -3.00899 8.46776 24.3634 14.0662 z" style="fill:#f0eaac;stroke:#000000;stroke-width:0.3" /><path id="roundedregion-20" d="m -57.1566 26.6574 c -0.307274 0.628954 -0.376516 1.19193 -0.230807 1.8766 l 2.2463 10.5551 c 0.145709 0.684667 0.483015 1.09831 1.12435 1.37882 l 20.4815 8.95815 c 0.641339 0.280507 1.16318 0.230436 1.73948 -0.166905 l 3.64632 -2.51403 c 0.576299 -0.397341 0.84159 -0.867071 0.884304 -1.56577 l 1.1819 -19.333 c 0.0427141 -0.698696 -0.237232 -1.03047 -0.933154 -1.10592 l -26.7405 -2.89916 c -0.695922 -0.0754507 -1.12586 0.161765 -1.43314 0.790718 z" style="fill:#f0ce76;stroke:#000000;stroke-width:0.3" /><path id="roundedregion-21" d="m -27.2651 45.1794 c -0.0427141 0.698696 0.222079 1.09741 0.882644 1.32904 l 20.4151 7.15874 c 0.660565 0.231633 1.04327 0.0479228 1.27568 -0.612369 l 9.26015 -26.3085 c 0.232412 -0.660291 0.105049 -1.13945 -0.424544 -1.5972 l -5.35936 -4.63229 c -0.529593 -0.457746 -1.05527 -0.681686 -1.75227 -0.746466 l -16.4094 -1.52512 c -0.696996 -0.0647801 -1.18917 0.136746 -1.64058 0.671752 l -4.35958 5.16697 c -0.451407 0.535006 -0.663173 1.06374 -0.705887 1.76243 z" style="fill:#f0ce76;stroke:#000000;stroke-width:0.3" /><path id="roundedregion-22" d="m -27.0164 24.7405 c 0.695922 0.0754507 1.18763 -0.121502 1.63904 -0.656508 l 4.35958 -5.16697 c 0.451407 -0.535006 0.552261 -1.04964 0.336181 -1.71546 l -1.56097 -4.80987 c -0.21608 -0.665815 -0.562685 -1.1108 -1.15535 -1.4833 l -17.835 -11.2094 c -0.592663 -0.372492 -1.12653 -0.424078 -1.77954 -0.171952 l -10.2598 3.96124 c -0.653018 0.252126 -1.07727 0.623151 -1.41416 1.23675 l -2.12624 3.87262 c -0.336892 0.613599 -0.420345 1.17032 -0.278177 1.85573 l 2.13664 10.301 c 0.142168 0.685411 0.50135 1.01149 1.19727 1.08695 z" style="fill:#f0ce76;stroke:#000000;stroke-width:0.3" /><path id="roundedregion-23" d="m 27.8372 11.2878 c -0.696571 -0.0692063 -1.18406 0.134146 -1.62496 0.67784 l -10.9027 13.4445 c -0.440904 0.543694 -0.428041 0.99867 0.0428772 1.51659 l 13.4431 14.7847 c 0.470918 0.517915 0.972314 0.723897 1.67132 0.686607 l 15.596 -0.832006 c 0.699006 -0.0372903 1.11605 -0.329317 1.39014 -0.973423 l 6.33907 -14.8965 c 0.274094 -0.644106 0.31253 -1.20955 0.128121 -1.88483 l -2.52454 -9.2444 c -0.184409 -0.675273 -0.561972 -0.994335 -1.25854 -1.06354 z" style="fill:#f0eaac;stroke:#000000;stroke-width:0.3" /><path id="roundedregion-24" d="m 55.6271 1.85716 c 0.2502 -0.653758 0.221073 -1.20116 -0.097091 -1.82468 l -5.28355 -10.3543 c -0.318164 -0.623516 -0.740636 -0.980944 -1.40824 -1.19143 l -20.5822 -6.48922 c -0.667605 -0.210484 -1.14731 -0.0715161 -1.59903 0.463227 l -6.89028 8.1567 c -0.451718 0.534743 -0.53636 1.04344 -0.28214 1.69564 l 6.99436 17.9441 c 0.25422 0.652206 0.661702 0.961382 1.35827 1.03059 l 22.2999 2.21556 c 0.696571 0.0692063 1.10233 -0.181316 1.35253 -0.835074 z" style="fill:#f0ce76;stroke:#000000;stroke-width:0.3" /><path id="roundedregion-25" d="m 4.67298 -40.3999 c 0.699903 -0.0116661 1.2147 -0.226056 1.71599 -0.714634 l 13.4005 -13.0606 c 0.50129 -0.488577 0.661927 -0.993031 0.535455 -1.68151 l -0.804915 -4.38175 c -0.126472 -0.68848 -0.437509 -1.13858 -1.03679 -1.50033 l -11.9553 -7.21664 c -0.599282 -0.361748 -1.13844 -0.415333 -1.7972 -0.178618 l -7.08109 2.54448 c -0.658761 0.236715 -1.02703 0.625591 -1.22756 1.29625 l -3.92644 13.1317 c -0.200531 0.670662 -0.123955 1.21026 0.25525 1.79865 l 5.9377 9.21317 c 0.379206 0.58839 0.841681 0.835558 1.54158 0.823892 z" style="fill:#f0ce76;stroke:#000000;stroke-width:0.3" /><path id="roundedregion-26" d="m 25.5906 -25.3325 c 0.558035 0.422608 0.965005 0.355051 1.35657 -0.225189 l 9.6968 -14.3693 c 0.391562 -0.58024 0.500439 -1.12307 0.362923 -1.80943 l -1.18661 -5.9225 c -0.137516 -0.686359 -0.4738 -1.09487 -1.12095 -1.36171 l -13.2693 -5.47128 c -0.647146 -0.266836 -1.13933 -0.171804 -1.64062 0.316773 l -13.4005 13.0606 c -0.50129 0.488577 -0.476971 0.879085 0.0810632 1.30169 z" style="fill:#f0ce76;stroke:#000000;stroke-width:0.3" /><path id="roundedregion-27" d="m 48.8382 -11.5133 c 0.667605 0.210484 1.08725 0.0320449 1.3988 -0.594798 l 8.12911 -16.3555 c 0.311558 -0.626843 0.318585 -1.16752 0.0234246 -1.80224 l -1.85667 -3.99268 c -0.29516 -0.634729 -0.709346 -0.991818 -1.38062 -1.1903 l -16.99 -5.02357 c -0.671272 -0.198481 -1.12677 -0.0348693 -1.51833 0.545371 l -9.6968 14.3693 c -0.391562 0.58024 -0.517106 1.12592 -0.418478 1.81894 l 0.632676 4.44554 c 0.0986281 0.693017 0.427014 1.08023 1.09462 1.29072 z" style="fill:#f0eaac;stroke:#000000;stroke-width:0.3" /><path id="roundedregion-28" d="m -43.0124 -0.472948 c 0.653018 -0.252126 1.04596 -0.638052 1.30982 -1.28642 l 6.15842 -15.1331 c 0.263854 -0.648368 0.106958 -1.05706 -0.522986 -1.3623 l -16.0596 -7.78169 c -0.629944 -0.305239 -1.03802 -0.169733 -1.36026 0.451687 l -6.69526 12.9115 c -0.322238 0.62142 -0.346114 1.16515 -0.0795879 1.81242 l 5.67606 13.7847 c 0.266526 0.647274 0.660616 0.816623 1.31363 0.564497 z" style="fill:#f0ce76;stroke:#000000;stroke-width:0.3" /><path id="roundedregion-29" d="m 19.4845 -7.68694 c -0.25422 -0.652206 -0.66067 -0.893059 -1.35483 -0.802844 l -11.5612 1.50253 c -0.694162 0.0902151 -1.07322 0.417579 -1.26352 1.09121 l -7.00511 24.7966 c -0.190304 0.673635 -0.0448941 1.15851 0.484699 1.61626 l 5.35936 4.63229 c 0.529593 0.457746 1.05633 0.665685 1.75579 0.693131 l 7.78076 0.3053 c 0.699462 0.0274454 1.18819 -0.193804 1.62909 -0.737499 l 10.9027 -13.4445 c 0.440904 -0.543694 0.520911 -1.05622 0.266691 -1.70843 z" style="fill:#f0eaac;stroke:#000000;stroke-width:0.3" /><path id="roundedregion-30" d="m -1.2628 -39.4392 c 0.345169 -0.608981 0.330582 -1.12214 -0.0486236 -1.71053 l -5.9377 -9.21317 c -0.379206 -0.58839 -0.839887 -0.873696 -1.5356 -0.951019 l -13.2164 -1.46889 c -0.695716 -0.0773228 -1.23942 0.0619097 -1.81234 0.464108 l -8.96607 6.29433 c -0.572919 0.402199 -0.710065 0.854304 -0.457154 1.50702 l 6.89664 17.7988 c 0.252912 0.652714 0.647916 0.843835 1.31668 0.63707 l 18.6739 -5.77347 c 0.668766 -0.206765 1.10331 -0.556371 1.44848 -1.16535 z" style="fill:#f0ce76;stroke:#000000;stroke-width:0.3" /><path id="roundedregion-31" d="m -30.1012 -19.7064 c 0.655943 -0.244416 1.08282 -0.611378 1.42291 -1.22321 l 2.21364 -3.98236 c 0.340093 -0.611831 0.377457 -1.15378 0.124545 -1.80649 l -6.89664 -17.7988 c -0.252912 -0.652714 -0.656934 -0.983455 -1.34674 -1.10247 l -4.35365 -0.751153 c -0.689808 -0.119016 -1.24825 -0.0253478 -1.86148 0.312226 l -11.9049 6.55353 c -0.613224 0.337574 -0.952936 0.772224 -1.13237 1.44884 l -1.22654 4.62498 c -0.179437 0.676611 -0.149161 1.24679 0.100918 1.90059 l 1.57752 4.12425 c 0.250079 0.653805 0.627232 1.06482 1.25718 1.37006 l 16.0596 7.78169 c 0.629944 0.305239 1.18104 0.331306 1.83698 0.0868908 z" style="fill:#e7a311;stroke:#000000;stroke-width:0.3" /><path id="roundedregion-32" d="m 5.89969 25.8423 c -0.699462 -0.0274454 -1.09884 0.243774 -1.33125 0.904066 l -9.26015 26.3085 c -0.232412 0.660291 -0.174665 1.1987 0.19249 1.79468 l 2.52186 4.0936 c 0.367155 0.595984 0.810872 0.940823 1.47905 1.14946 l 13.805 4.31062 c 0.668183 0.208641 1.12383 0.0503796 1.51881 -0.527537 l 14.0785 -20.5988 c 0.394985 -0.577916 0.362442 -1.04756 -0.108476 -1.56547 l -13.4431 -14.7847 c -0.470918 -0.517915 -0.972509 -0.751641 -1.67197 -0.779087 z" style="fill:#f0ce76;stroke:#000000;stroke-width:0.3" /><path id="roundedregion-33" d="m -23.3979 10.9084 c 0.592663 0.372492 0.935704 0.245651 1.14347 -0.422805 l 4.85674 -15.6259 c 0.207765 -0.668456 0.100661 -1.18193 -0.357015 -1.71158 l -10.7556 -12.4471 c -0.457676 -0.529653 -0.934942 -0.651898 -1.59088 -0.407482 l -4.12902 1.53854 c -0.655943 0.244416 -1.05014 0.627037 -1.31399 1.27541 l -6.15842 15.1331 c -0.263854 0.648368 -0.122935 1.08588 0.469728 1.45837 z" style="fill:#f0ce76;stroke:#000000;stroke-width:0.3" /><path id="roundedregion-34" d="m -20.6816 17.2016 c 0.21608 0.665815 0.607399 0.978927 1.30439 1.04371 l 16.4094 1.52512 c 0.696996 0.0647801 1.07727 -0.196158 1.26757 -0.869793 l 7.00511 -24.7966 c 0.190304 -0.673635 0.0219485 -1.1283 -0.561184 -1.51554 l -3.91925 -2.60267 c -0.583132 -0.387242 -1.12328 -0.477264 -1.80048 -0.300073 l -15.1575 3.96598 c -0.677203 0.177191 -1.05647 0.539611 -1.26424 1.20807 l -4.85674 15.6259 c -0.207765 0.668456 -0.204202 1.24029 0.0118786 1.9061 z" style="fill:#f0eaac;stroke:#000000;stroke-width:0.3" /><path id="roundedregion-35" d="m -5.15203 -31.18 c -0.169476 -0.679174 -0.528723 -0.881636 -1.19749 -0.67487 l -18.6739 5.77347 c -0.668766 0.206765 -1.10113 0.557592 -1.44123 1.16942 l -2.21364 3.98236 c -0.340093 0.611831 -0.2897 1.10104 0.167976 1.63069 l 10.7556 12.4471 c 0.457676 0.529653 0.944053 0.680708 1.62126 0.503517 l 15.1575 -3.96598 c 0.677203 -0.177191 0.8948 -0.544205 0.725323 -1.22338 z" style="fill:#f0ce76;stroke:#000000;stroke-width:0.3" /><path id="roundedregion-36" d="m 26.657 -17.5393 c 0.451718 -0.534743 0.603043 -1.06093 0.504415 -1.75394 l -0.632676 -4.44554 c -0.0986281 -0.693017 -0.380055 -1.17114 -0.93809 -1.59375 l -19.1206 -14.4803 c -0.558035 -0.422608 -1.09715 -0.598726 -1.79705 -0.58706 l -4.44282 0.0740537 c -0.699903 0.0116661 -1.14779 0.277658 -1.49296 0.886639 l -3.63824 6.41894 c -0.345169 0.608981 -0.420466 1.16105 -0.25099 1.84022 l 4.9014 19.6423 c 0.169476 0.679174 0.492023 1.13621 1.07516 1.52345 l 3.91925 2.60267 c 0.583132 0.387242 1.13054 0.51454 1.82471 0.424325 l 11.5612 -1.50253 c 0.694162 -0.0902151 1.18525 -0.358054 1.63697 -0.892798 z" style="fill:#f0eaac;stroke:#000000;stroke-width:0.3" /></g></g><g id="region" inkscape:label="Region" inkscape:groupmode="layer" style="display:none"><path id="region-0" d="m -1.45285 59.7945 -16.271 21.6621 10.7957 14.5434 19.245 0 8.3395 -20.2222 -6.39505 -11.0766 z" style="fill:#ffffff;stroke:#000000;stroke-width:0.3" /><path id="region-1" d="m 80.527 27.9691 -26.3434 -3.19314 -7.12219 16.7368 8.23593 14.2651 21.6827 2.88889 9.6225 -16.6667 z" style="fill:#ffffff;stroke:#000000;stroke-width:0.3" /><path id="region-2" d="m 58.8112 -29.359 21.3608 2.20974 6.43054 -14.8507 -5.31162 -9.2 -16.9301 -5.17479 -8.24958 21.2095 z" style="fill:#ffffff;stroke:#000000;stroke-width:0.3" /><path id="region-3" d="m -17.5071 -83.1182 13.8121 -12.8818 7.39008 0 9.37011 8.73897 -7.39336 17.7889 -8.96326 3.2208 z" style="fill:#ffffff;stroke:#000000;stroke-width:0.3" /><path id="region-4" d="m -67.4167 -55.4407 -13.8742 4.24075 -3.69504 6.4 3.63292 15.731 26.0343 -3.39578 1.73922 -6.55816 z" style="fill:#ffffff;stroke:#000000;stroke-width:0.3" /><path id="region-5" d="m -57.5955 27.5559 -24.2704 3.73391 -3.12004 13.5102 5.31162 9.2 13.5229 1.56149 11.2185 -15.4943 z" style="fill:#ffffff;stroke:#000000;stroke-width:0.3" /><path id="region-6" d="m 29.4683 42.4513 17.5931 -0.938549 8.23593 14.2651 -10.5848 21.6667 -24.0563 -1.66667 -6.39505 -11.0766 z" style="fill:#ffffff;stroke:#000000;stroke-width:0.3" /><path id="region-7" d="m 55.9845 0.923223 23.1295 -4.2607 9.61904 17.3375 -8.20611 13.9691 -26.3434 -3.19314 -3.05142 -11.1738 z" style="fill:#ffffff;stroke:#000000;stroke-width:0.3" /><path id="region-8" d="m 55.9845 0.923223 23.1295 -4.2607 5.94864 -10.6625 -4.89069 -13.1493 -21.3608 -2.20974 -9.01928 18.1465 z" style="fill:#ffffff;stroke:#000000;stroke-width:0.3" /><path id="region-9" d="m 56.1112 -35.1652 8.24958 -21.2095 -3.26098 -4.65324 -13.0394 -3.61384 -12.4366 16.0024 1.57951 7.88353 z" style="fill:#ffffff;stroke:#000000;stroke-width:0.3" /><path id="region-10" d="m 20.5056 -54.8731 -1.16626 -6.34884 12.061 -15.5685 11.1561 3.08048 5.50398 9.06813 -12.4366 16.0024 z" style="fill:#ffffff;stroke:#000000;stroke-width:0.3" /><path id="region-11" d="m 13.0652 -87.261 -7.39336 17.7889 13.6675 8.2502 12.061 -15.5685 -7.39753 -9.58364 z" style="fill:#ffffff;stroke:#000000;stroke-width:0.3" /><path id="region-12" d="m -17.5071 -83.1182 14.2157 16.8669 -4.49938 15.0479 -15.2042 -1.68981 -7.06875 -22.8415 8.08627 -7.13143 z" style="fill:#ffffff;stroke:#000000;stroke-width:0.3" /><path id="region-13" d="m -22.995 -52.8932 -10.603 7.44347 -6.32453 -1.0912 -6.86591 -22.186 4.08761 -5.233 12.6371 -1.77471 z" style="fill:#ffffff;stroke:#000000;stroke-width:0.3" /><path id="region-14" d="m -67.4167 -55.4407 13.8372 16.4178 13.657 -7.51803 -6.86591 -22.186 -16.2593 4.32505 z" style="fill:#ffffff;stroke:#000000;stroke-width:0.3" /><path id="region-15" d="m -53.0267 -26.4725 -7.61594 14.687 -20.6759 -2.81944 -2.69215 -7.79503 2.65761 -6.669 26.0343 -3.39578 z" style="fill:#ffffff;stroke:#000000;stroke-width:0.3" /><path id="region-16" d="m -81.7681 6.09848 24.4742 3.37575 3.08878 -5.62576 -6.43757 -15.634 -20.6759 -2.81944 -3.79448 14.605 z" style="fill:#ffffff;stroke:#000000;stroke-width:0.3" /><path id="region-17" d="m -57.5955 27.5559 -24.2704 3.73391 -5.22231 -8.88983 5.32016 -16.3015 24.4742 3.37575 2.54283 12.2593 z" style="fill:#ffffff;stroke:#000000;stroke-width:0.3" /><path id="region-18" d="m -54.9329 40.0672 -11.2185 15.4943 9.9995 13.6965 17.0053 -1.06156 6.52759 -18.3696 z" style="fill:#ffffff;stroke:#000000;stroke-width:0.3" /><path id="region-19" d="m -32.619 49.8268 -6.52759 18.3696 8.91793 12.1612 12.5048 1.09901 16.271 -21.6621 -3.57087 -5.79642 -22.3024 -7.82055 z" style="fill:#ffffff;stroke:#000000;stroke-width:0.3" /><path id="region-20" d="m -57.5955 27.5559 2.66262 12.5113 22.3139 9.7596 5.29289 -3.64929 1.30394 -21.3292 -28.7288 -3.11473 z" style="fill:#ffffff;stroke:#000000;stroke-width:0.3" /><path id="region-21" d="m -26.0222 24.8483 5.64932 -6.69556 18.4008 1.71021 6.87248 5.94014 -9.92418 28.195 -22.3024 -7.82055 z" style="fill:#ffffff;stroke:#000000;stroke-width:0.3" /><path id="region-22" d="m -54.751 21.7336 -2.54283 -12.2593 3.08878 -5.62576 12.1255 -4.6816 19.5283 12.2737 2.17834 6.71219 -5.64932 6.69556 z" style="fill:#ffffff;stroke:#000000;stroke-width:0.3" /><path id="region-23" d="m 51.1322 13.6022 3.05142 11.1738 -7.12219 16.7368 -17.5931 0.938549 -14.7886 -16.2645 12.1624 -14.9979 z" style="fill:#ffffff;stroke:#000000;stroke-width:0.3" /><path id="region-24" d="m 55.9845 0.923223 -6.19259 -12.1358 -22.4897 -7.09061 -8.1809 9.68453 7.7207 19.8076 24.2901 2.41329 z" style="fill:#ffffff;stroke:#000000;stroke-width:0.3" /><path id="region-25" d="m 5.67284 -40.4165 14.8327 -14.4566 -1.16626 -6.34884 -13.6675 -8.2502 -8.96326 3.2208 -4.49938 15.0479 7.02115 10.8943 z" style="fill:#ffffff;stroke:#000000;stroke-width:0.3" /><path id="region-26" d="m 26.3878 -24.7288 10.8155 -16.0271 -1.57951 -7.88353 -15.1183 -6.23367 -14.8327 14.4566 z" style="fill:#ffffff;stroke:#000000;stroke-width:0.3" /><path id="region-27" d="m 49.792 -11.2126 9.01928 -18.1465 -2.69999 -5.80619 -18.9079 -5.59066 -10.8155 16.0271 0.91447 6.42559 z" style="fill:#ffffff;stroke:#000000;stroke-width:0.3" /><path id="region-28" d="m -54.2051 3.84847 -6.43757 -15.634 7.61594 -14.687 17.8595 8.6538 -6.91229 16.9856 z" style="fill:#ffffff;stroke:#000000;stroke-width:0.3" /><path id="region-29" d="m 26.8421 11.1889 -12.1624 14.9979 -9.77922 -0.383715 -6.87248 -5.94014 7.54884 -26.7213 13.5446 -1.76028 z" style="fill:#ffffff;stroke:#000000;stroke-width:0.3" /><path id="region-30" d="m -5.39414 -32.1503 -20.5846 6.36422 -7.61924 -19.6637 10.603 -7.44347 15.2042 1.68981 7.02115 10.8943 z" style="fill:#ffffff;stroke:#000000;stroke-width:0.3" /><path id="region-31" d="m -35.1672 -17.8187 -17.8595 -8.6538 -2.29203 -5.99227 1.73922 -6.55816 13.657 -7.51803 6.32453 1.0912 7.61924 19.6637 -3.18533 5.73045 z" style="fill:#ffffff;stroke:#000000;stroke-width:0.3" /><path id="region-32" d="m 4.90046 25.8031 -9.92418 28.195 3.57087 5.79642 15.7141 4.90674 15.207 -22.2499 -14.7886 -16.2645 z" style="fill:#ffffff;stroke:#000000;stroke-width:0.3" /><path id="region-33" d="m -42.0795 -0.833128 6.91229 -16.9856 6.00314 -2.23687 12.0632 13.9604 -5.45035 17.5357 z" style="fill:#ffffff;stroke:#000000;stroke-width:0.3" /><path id="region-34" d="m -22.5512 11.4405 5.45035 -17.5357 17.0923 -4.47224 5.58534 3.70907 -7.54884 26.7213 -18.4008 -1.71021 z" style="fill:#ffffff;stroke:#000000;stroke-width:0.3" /><path id="region-35" d="m -0.00852827 -10.5675 -17.0923 4.47224 -12.0632 -13.9604 3.18533 -5.73045 20.5846 -6.36422 z" style="fill:#ffffff;stroke:#000000;stroke-width:0.3" /><path id="region-36" d="m 27.3023 -18.3032 -0.91447 -6.42559 -20.715 -15.6877 -6.44254 0.107385 -4.62444 8.15889 5.38561 21.5828 5.58534 3.70907 13.5446 -1.76028 z" style="fill:#ffffff;stroke:#000000;stroke-width:0.3" /></g><g id="seeds" inkscape:label="Seeds" inkscape:groupmode="layer" style="display:none"><circle id="seed-0" cx="0.0" cy="80.0" r="1.0" style="fill:#000000;stroke:none;stroke-width:0" /><circle id="seed-1" cx="69.28203230275508" cy="40.0" r="1.0" style="fill:#000000;stroke:none;stroke-width:0" /><circle id="seed-2" cx="69.28203230275508" cy="-40.0" r="1.0" style="fill:#000000;stroke:none;stroke-width:0" /><circle id="seed-3" cx="0.0" cy="-80.0" r="1.0" style="fill:#000000;stroke:none;stroke-width:0" /><circle id="seed-4" cx="-69.28203230275508" cy="-40.0" r="1.0" style="fill:#000000;stroke:none;stroke-width:0" /><circle id="seed-5" cx="-69.28203230275508" cy="40.0" r="1.0" style="fill:#000000;stroke:none;stroke-width:0" /><circle id="seed-6" cx="34.64101615137754" cy="60.0" r="1.0" style="fill:#000000;stroke:none;stroke-width:0" /><circle id="seed-7" cx="72.48203230275509" cy="13.599999999999998" r="1.0" style="fill:#000000;stroke:none;stroke-width:0" /><circle id="seed-8" cx="66.88203230275508" cy="-16.799999999999997" r="1.0" style="fill:#000000;stroke:none;stroke-width:0" /><circle id="seed-9" cx="49.66870390403876" cy="-47.628718707889796" r="1.0" style="fill:#000000;stroke:none;stroke-width:0" /><circle id="seed-10" cx="31.176914536239785" cy="-62.0" r="1.0" style="fill:#000000;stroke:none;stroke-width:0" /><circle id="seed-11" cx="17.13486742963367" cy="-72.87846096908265" r="1.0" style="fill:#000000;stroke:none;stroke-width:0" /><circle id="seed-12" cx="-17.398969044771427" cy="-65.33589838486225" r="1.0" style="fill:#000000;stroke:none;stroke-width:0" /><circle id="seed-13" cx="-34.64101615137754" cy="-60.0" r="1.0" style="fill:#000000;stroke:none;stroke-width:0" /><circle id="seed-14" cx="-51.88306325798366" cy="-54.66410161513776" r="1.0" style="fill:#000000;stroke:none;stroke-width:0" /><circle id="seed-15" cx="-66.88203230275508" cy="-21.6" r="1.0" style="fill:#000000;stroke:none;stroke-width:0" /><circle id="seed-16" cx="-69.28203230275508" cy="-4.0" r="1.0" style="fill:#000000;stroke:none;stroke-width:0" /><circle id="seed-17" cx="-72.48203230275509" cy="19.200000000000003" r="1.0" style="fill:#000000;stroke:none;stroke-width:0" /><circle id="seed-18" cx="-50.390242934956106" cy="53.67846096908266" r="1.0" style="fill:#000000;stroke:none;stroke-width:0" /><circle id="seed-19" cx="-21.263070659909182" cy="64.0287187078898" r="1.0" style="fill:#000000;stroke:none;stroke-width:0" /><circle id="seed-20" cx="-41.85460189800378" cy="34.16297326689564" r="1.0" style="fill:#000000;stroke:none;stroke-width:0" /><circle id="seed-21" cx="-11.442315893016135" cy="36.022198083480866" r="1.0" style="fill:#000000;stroke:none;stroke-width:0" /><circle id="seed-22" cx="-39.49042058606182" cy="12.356868722319865" r="1.0" style="fill:#000000;stroke:none;stroke-width:0" /><circle id="seed-23" cx="32.74460781413148" cy="24.451815904943352" r="1.0" style="fill:#000000;stroke:none;stroke-width:0" /><circle id="seed-24" cx="35.23887695491889" cy="-0.6533334666282498" r="1.0" style="fill:#000000;stroke:none;stroke-width:0" /><circle id="seed-25" cx="7.998020172189961" cy="-57.74210146255" r="1.0" style="fill:#000000;stroke:none;stroke-width:0" /><circle id="seed-26" cx="23.05241453183338" cy="-42.29598546175944" r="1.0" style="fill:#000000;stroke:none;stroke-width:0" /><circle id="seed-27" cx="43.92681376919054" cy="-28.20935830067337" r="1.0" style="fill:#000000;stroke:none;stroke-width:0" /><circle id="seed-28" cx="-49.02602097592122" cy="-12.340756952021875" r="1.0" style="fill:#000000;stroke:none;stroke-width:0" /><circle id="seed-29" cx="12.646008220992554" cy="8.153042164509944" r="1.0" style="fill:#000000;stroke:none;stroke-width:0" /><circle id="seed-30" cx="-20.26757098600639" cy="-39.52548948911543" r="1.0" style="fill:#000000;stroke:none;stroke-width:0" /><circle id="seed-31" cx="-39.45640237476725" cy="-32.0902628331739" r="1.0" style="fill:#000000;stroke:none;stroke-width:0" /><circle id="seed-32" cx="11.239226947668763" cy="44.00573452909036" r="1.0" style="fill:#000000;stroke:none;stroke-width:0" /><circle id="seed-33" cx="-29.071575828136236" cy="-4.220292644674776" r="1.0" style="fill:#000000;stroke:none;stroke-width:0" /><circle id="seed-34" cx="-8.302086345699378" cy="2.23515239907557" r="1.0" style="fill:#000000;stroke:none;stroke-width:0" /><circle id="seed-35" cx="-13.509636243542236" cy="-17.667449830491265" r="1.0" style="fill:#000000;stroke:none;stroke-width:0" /><circle id="seed-36" cx="8.574138858667645" cy="-23.178072079511004" r="1.0" style="fill:#000000;stroke:none;stroke-width:0" /></g><g id="region_ids" inkscape:label="Region Ids" inkscape:groupmode="layer" style="display:none" transform="scale(1,-1)"><text id="text1921" x="-1.4" y="-80.0" style="font-style:normal;font-weight:normal;font-size:4px;font-family:sans-serif;fill:#000000;fill-opacity:1;stroke:none"><tspan x="-1.4" y="-80.0">0</tspan></text><text id="text1922" x="67.88203230275508" y="-40.0" style="font-style:normal;font-weight:normal;font-size:4px;font-family:sans-serif;fill:#000000;fill-opacity:1;stroke:none"><tspan x="67.88203230275508" y="-40.0">1</tspan></text><text id="text1923" x="67.88203230275508" y="40.0" style="font-style:normal;font-weight:normal;font-size:4px;font-family:sans-serif;fill:#000000;fill-opacity:1;stroke:none"><tspan x="67.88203230275508" y="40.0">2</tspan></text><text id="text1924" x="-1.4" y="80.0" style="font-style:normal;font-weight:normal;font-size:4px;font-family:sans-serif;fill:#000000;fill-opacity:1;stroke:none"><tspan x="-1.4" y="80.0">3</tspan></text><text id="text1925" x="-70.68203230275509" y="40.0" style="font-style:normal;font-weight:normal;font-size:4px;font-family:sans-serif;fill:#000000;fill-opacity:1;stroke:none"><tspan x="-70.68203230275509" y="40.0">4</tspan></text><text id="text1926" x="-70.68203230275509" y="-40.0" style="font-style:normal;font-weight:normal;font-size:4px;font-family:sans-serif;fill:#000000;fill-opacity:1;stroke:none"><tspan x="-70.68203230275509" y="-40.0">5</tspan></text><text id="text1927" x="33.24101615137754" y="-60.0" style="font-style:normal;font-weight:normal;font-size:4px;font-family:sans-serif;fill:#000000;fill-opacity:1;stroke:none"><tspan x="33.24101615137754" y="-60.0">6</tspan></text><text id="text1928" x="71.08203230275508" y="-13.599999999999998" style="font-style:normal;font-weight:normal;font-size:4px;font-family:sans-serif;fill:#000000;fill-opacity:1;stroke:none"><tspan x="71.08203230275508" y="-13.599999999999998">7</tspan></text><text id="text1929" x="65.48203230275507" y="16.799999999999997" style="font-style:normal;font-weight:normal;font-size:4px;font-family:sans-serif;fill:#000000;fill-opacity:1;stroke:none"><tspan x="65.48203230275507" y="16.799999999999997">8</tspan></text><text id="text1930" x="48.26870390403876" y="47.628718707889796" style="font-style:normal;font-weight:normal;font-size:4px;font-family:sans-serif;fill:#000000;fill-opacity:1;stroke:none"><tspan x="48.26870390403876" y="47.628718707889796">9</tspan></text><text id="text1931" x="29.776914536239786" y="62.0" style="font-style:normal;font-weight:normal;font-size:4px;font-family:sans-serif;fill:#000000;fill-opacity:1;stroke:none"><tspan x="29.776914536239786" y="62.0">10</tspan></text><text id="text1932" x="15.734867429633669" y="72.87846096908265" style="font-style:normal;font-weight:normal;font-size:4px;font-family:sans-serif;fill:#000000;fill-opacity:1;stroke:none"><tspan x="15.734867429633669" y="72.87846096908265">11</tspan></text><text id="text1933" x="-18.798969044771425" y="65.33589838486225" style="font-style:normal;font-weight:normal;font-size:4px;font-family:sans-serif;fill:#000000;fill-opacity:1;stroke:none"><tspan x="-18.798969044771425" y="65.33589838486225">12</tspan></text><text id="text1934" x="-36.04101615137754" y="60.0" style="font-style:normal;font-weight:normal;font-size:4px;font-family:sans-serif;fill:#000000;fill-opacity:1;stroke:none"><tspan x="-36.04101615137754" y="60.0">13</tspan></text><text id="text1935" x="-53.283063257983656" y="54.66410161513776" style="font-style:normal;font-weight:normal;font-size:4px;font-family:sans-serif;fill:#000000;fill-opacity:1;stroke:none"><tspan x="-53.283063257983656" y="54.66410161513776">14</tspan></text><text id="text1936" x="-68.28203230275508" y="21.6" style="font-style:normal;font-weight:normal;font-size:4px;font-family:sans-serif;fill:#000000;fill-opacity:1;stroke:none"><tspan x="-68.28203230275508" y="21.6">15</tspan></text><text id="text1937" x="-70.68203230275509" y="4.0" style="font-style:normal;font-weight:normal;font-size:4px;font-family:sans-serif;fill:#000000;fill-opacity:1;stroke:none"><tspan x="-70.68203230275509" y="4.0">16</tspan></text><text id="text1938" x="-73.88203230275509" y="-19.200000000000003" style="font-style:normal;font-weight:normal;font-size:4px;font-family:sans-serif;fill:#000000;fill-opacity:1;stroke:none"><tspan x="-73.88203230275509" y="-19.200000000000003">17</tspan></text><text id="text1939" x="-51.790242934956105" y="-53.67846096908266" style="font-style:normal;font-weight:normal;font-size:4px;font-family:sans-serif;fill:#000000;fill-opacity:1;stroke:none"><tspan x="-51.790242934956105" y="-53.67846096908266">18</tspan></text><text id="text1940" x="-22.66307065990918" y="-64.0287187078898" style="font-style:normal;font-weight:normal;font-size:4px;font-family:sans-serif;fill:#000000;fill-opacity:1;stroke:none"><tspan x="-22.66307065990918" y="-64.0287187078898">19</tspan></text><text id="text1941" x="-43.25460189800378" y="-34.16297326689564" style="font-style:normal;font-weight:normal;font-size:4px;font-family:sans-serif;fill:#000000;fill-opacity:1;stroke:none"><tspan x="-43.25460189800378" y="-34.16297326689564">20</tspan></text><text id="text1942" x="-12.842315893016135" y="-36.022198083480866" style="font-style:normal;font-weight:normal;font-size:4px;font-family:sans-serif;fill:#000000;fill-opacity:1;stroke:none"><tspan x="-12.842315893016135" y="-36.022198083480866">21</tspan></text><text id="text1943" x="-40.89042058606182" y="-12.356868722319865" style="font-style:normal;font-weight:normal;font-size:4px;font-family:sans-serif;fill:#000000;fill-opacity:1;stroke:none"><tspan x="-40.89042058606182" y="-12.356868722319865">22</tspan></text><text id="text1944" x="31.34460781413148" y="-24.451815904943352" style="font-style:normal;font-weight:normal;font-size:4px;font-family:sans-serif;fill:#000000;fill-opacity:1;stroke:none"><tspan x="31.34460781413148" y="-24.451815904943352">23</tspan></text><text id="text1945" x="33.83887695491889" y="0.6533334666282498" style="font-style:normal;font-weight:normal;font-size:4px;font-family:sans-serif;fill:#000000;fill-opacity:1;stroke:none"><tspan x="33.83887695491889" y="0.6533334666282498">24</tspan></text><text id="text1946" x="6.598020172189962" y="57.74210146255" style="font-style:normal;font-weight:normal;font-size:4px;font-family:sans-serif;fill:#000000;fill-opacity:1;stroke:none"><tspan x="6.598020172189962" y="57.74210146255">25</tspan></text><text id="text1947" x="21.652414531833383" y="42.29598546175944" style="font-style:normal;font-weight:normal;font-size:4px;font-family:sans-serif;fill:#000000;fill-opacity:1;stroke:none"><tspan x="21.652414531833383" y="42.29598546175944">26</tspan></text><text id="text1948" x="42.52681376919054" y="28.20935830067337" style="font-style:normal;font-weight:normal;font-size:4px;font-family:sans-serif;fill:#000000;fill-opacity:1;stroke:none"><tspan x="42.52681376919054" y="28.20935830067337">27</tspan></text><text id="text1949" x="-50.42602097592122" y="12.340756952021875" style="font-style:normal;font-weight:normal;font-size:4px;font-family:sans-serif;fill:#000000;fill-opacity:1;stroke:none"><tspan x="-50.42602097592122" y="12.340756952021875">28</tspan></text><text id="text1950" x="11.246008220992554" y="-8.153042164509944" style="font-style:normal;font-weight:normal;font-size:4px;font-family:sans-serif;fill:#000000;fill-opacity:1;stroke:none"><tspan x="11.246008220992554" y="-8.153042164509944">29</tspan></text><text id="text1951" x="-21.66757098600639" y="39.52548948911543" style="font-style:normal;font-weight:normal;font-size:4px;font-family:sans-serif;fill:#000000;fill-opacity:1;stroke:none"><tspan x="-21.66757098600639" y="39.52548948911543">30</tspan></text><text id="text1952" x="-40.85640237476725" y="32.0902628331739" style="font-style:normal;font-weight:normal;font-size:4px;font-family:sans-serif;fill:#000000;fill-opacity:1;stroke:none"><tspan x="-40.85640237476725" y="32.0902628331739">31</tspan></text><text id="text1953" x="9.839226947668763" y="-44.00573452909036" style="font-style:normal;font-weight:normal;font-size:4px;font-family:sans-serif;fill:#000000;fill-opacity:1;stroke:none"><tspan x="9.839226947668763" y="-44.00573452909036">32</tspan></text><text id="text1954" x="-30.471575828136235" y="4.220292644674776" style="font-style:normal;font-weight:normal;font-size:4px;font-family:sans-serif;fill:#000000;fill-opacity:1;stroke:none"><tspan x="-30.471575828136235" y="4.220292644674776">33</tspan></text><text id="text1955" x="-9.702086345699378" y="-2.23515239907557" style="font-style:normal;font-weight:normal;font-size:4px;font-family:sans-serif;fill:#000000;fill-opacity:1;stroke:none"><tspan x="-9.702086345699378" y="-2.23515239907557">34</tspan></text><text id="text1956" x="-14.909636243542236" y="17.667449830491265" style="font-style:normal;font-weight:normal;font-size:4px;font-family:sans-serif;fill:#000000;fill-opacity:1;stroke:none"><tspan x="-14.909636243542236" y="17.667449830491265">35</tspan></text><text id="text1957" x="7.174138858667645" y="23.178072079511004" style="font-style:normal;font-weight:normal;font-size:4px;font-family:sans-serif;fill:#000000;fill-opacity:1;stroke:none"><tspan x="7.174138858667645" y="23.178072079511004">36</tspan></text></g><g id="seed_exclusion" inkscape:label="Seed Exclusion" inkscape:groupmode="layer" style="display:none"><circle id="seed-ex-0" cx="0.0" cy="80.0" r="24.0" style="fill:#800000;stroke:none;stroke-width:0;fill-opacity:0.15" /><circle id="seed-ex-1" cx="69.28203230275508" cy="40.0" r="24.0" style="fill:#800000;stroke:none;stroke-width:0;fill-opacity:0.15" /><circle id="seed-ex-2" cx="69.28203230275508" cy="-40.0" r="19.2" style="fill:#800000;stroke:none;stroke-width:0;fill-opacity:0.15" /><circle id="seed-ex-3" cx="0.0" cy="-80.0" r="16.0" style="fill:#800000;stroke:none;stroke-width:0;fill-opacity:0.15" /><circle id="seed-ex-4" cx="-69.28203230275508" cy="-40.0" r="16.0" style="fill:#800000;stroke:none;stroke-width:0;fill-opacity:0.15" /><circle id="seed-ex-5" cx="-69.28203230275508" cy="40.0" r="19.2" style="fill:#800000;stroke:none;stroke-width:0;fill-opacity:0.15" /><circle id="seed-ex-6" cx="34.64101615137754" cy="60.0" r="24.0" style="fill:#800000;stroke:none;stroke-width:0;fill-opacity:0.15" /><circle id="seed-ex-7" cx="72.48203230275509" cy="13.599999999999998" r="22.50221764019898" style="fill:#800000;stroke:none;stroke-width:0;fill-opacity:0.15" /><circle id="seed-ex-8" cx="66.88203230275508" cy="-16.799999999999997" r="20.527336769850766" style="fill:#800000;stroke:none;stroke-width:0;fill-opacity:0.15" /><circle id="seed-ex-9" cx="49.66870390403876" cy="-47.628718707889796" r="18.466534445941697" style="fill:#800000;stroke:none;stroke-width:0;fill-opacity:0.15" /><circle id="seed-ex-10" cx="31.176914536239785" cy="-62.0" r="17.44" style="fill:#800000;stroke:none;stroke-width:0;fill-opacity:0.15" /><circle id="seed-ex-11" cx="17.13486742963367" cy="-72.87846096908265" r="16.662099165543726" style="fill:#800000;stroke:none;stroke-width:0;fill-opacity:0.15" /><circle id="seed-ex-12" cx="-17.398969044771427" cy="-65.33589838486225" r="16.21554410049746" style="fill:#800000;stroke:none;stroke-width:0;fill-opacity:0.15" /><circle id="seed-ex-13" cx="-34.64101615137754" cy="-60.0" r="16.0" style="fill:#800000;stroke:none;stroke-width:0;fill-opacity:0.15" /><circle id="seed-ex-14" cx="-51.88306325798366" cy="-54.66410161513776" r="15.78445589950254" style="fill:#800000;stroke:none;stroke-width:0;fill-opacity:0.15" /><circle id="seed-ex-15" cx="-66.88203230275508" cy="-21.6" r="16.809900834456275" style="fill:#800000;stroke:none;stroke-width:0;fill-opacity:0.15" /><circle id="seed-ex-16" cx="-69.28203230275508" cy="-4.0" r="17.439999999999998" style="fill:#800000;stroke:none;stroke-width:0;fill-opacity:0.15" /><circle id="seed-ex-17" cx="-72.48203230275509" cy="19.200000000000003" r="18.269465554058304" style="fill:#800000;stroke:none;stroke-width:0;fill-opacity:0.15" /><circle id="seed-ex-18" cx="-50.390242934956106" cy="53.67846096908266" r="20.65666323014924" style="fill:#800000;stroke:none;stroke-width:0;fill-opacity:0.15" /><circle id="seed-ex-19" cx="-21.263070659909182" cy="64.0287187078898" r="22.329782359801015" style="fill:#800000;stroke:none;stroke-width:0;fill-opacity:0.15" /><circle id="seed-ex-20" cx="-41.85460189800378" cy="34.16297326689564" r="19.94437419605863" style="fill:#800000;stroke:none;stroke-width:0;fill-opacity:0.15" /><circle id="seed-ex-21" cx="-11.442315893016135" cy="36.022198083480866" r="21.214102287053272" style="fill:#800000;stroke:none;stroke-width:0;fill-opacity:0.15" /><circle id="seed-ex-22" cx="-39.49042058606182" cy="12.356868722319865" r="19.01161848458483" style="fill:#800000;stroke:none;stroke-width:0;fill-opacity:0.15" /><circle id="seed-ex-23" cx="32.74460781413148" cy="24.451815904943352" r="22.04570261551685" style="fill:#800000;stroke:none;stroke-width:0;fill-opacity:0.15" /><circle id="seed-ex-24" cx="35.23887695491889" cy="-0.6533334666282498" r="20.643574829809225" style="fill:#800000;stroke:none;stroke-width:0;fill-opacity:0.15" /><circle id="seed-ex-25" cx="7.998020172189961" cy="-57.74210146255" r="17.1926239017276" style="fill:#800000;stroke:none;stroke-width:0;fill-opacity:0.15" /><circle id="seed-ex-26" cx="23.05241453183338" cy="-42.29598546175944" r="18.203164602965387" style="fill:#800000;stroke:none;stroke-width:0;fill-opacity:0.15" /><circle id="seed-ex-27" cx="43.92681376919054" cy="-28.20935830067337" r="19.262268537778066" style="fill:#800000;stroke:none;stroke-width:0;fill-opacity:0.15" /><circle id="seed-ex-28" cx="-49.02602097592122" cy="-12.340756952021875" r="17.730093113506094" style="fill:#800000;stroke:none;stroke-width:0;fill-opacity:0.15" /><circle id="seed-ex-29" cx="12.646008220992554" cy="8.153042164509944" r="20.557558315470626" style="fill:#800000;stroke:none;stroke-width:0;fill-opacity:0.15" /><circle id="seed-ex-30" cx="-20.26757098600639" cy="-39.52548948911543" r="17.34274107082705" style="fill:#800000;stroke:none;stroke-width:0;fill-opacity:0.15" /><circle id="seed-ex-31" cx="-39.45640237476725" cy="-32.0902628331739" r="17.172713389610003" style="fill:#800000;stroke:none;stroke-width:0;fill-opacity:0.15" /><circle id="seed-ex-32" cx="11.239226947668763" cy="44.00573452909036" r="22.426384279083212" style="fill:#800000;stroke:none;stroke-width:0;fill-opacity:0.15" /><circle id="seed-ex-33" cx="-29.071575828136236" cy="-4.220292644674776" r="18.66934924727215" style="fill:#800000;stroke:none;stroke-width:0;fill-opacity:0.15" /><circle id="seed-ex-34" cx="-8.302086345699378" cy="2.23515239907557" r="19.567101467348355" style="fill:#800000;stroke:none;stroke-width:0;fill-opacity:0.15" /><circle id="seed-ex-35" cx="-13.509636243542236" cy="-17.667449830491265" r="18.544862042223464" style="fill:#800000;stroke:none;stroke-width:0;fill-opacity:0.15" /><circle id="seed-ex-36" cx="8.574138858667645" cy="-23.178072079511004" r="18.816699348893522" style="fill:#800000;stroke:none;stroke-width:0;fill-opacity:0.15" /></g><g id="margin_exclusion" inkscape:label="Margin Exclusion" inkscape:groupmode="layer" style="display:none"><circle id="circle1958" cx="17.32050807568877" cy="70.0" r="22.0" style="fill:#000080;stroke:none;stroke-width:0;fill-opacity:0.15" /><circle id="circle1959" cx="51.96152422706631" cy="50.0" r="22.0" style="fill:#000080;stroke:none;stroke-width:0;fill-opacity:0.15" /><circle id="circle1960" cx="69.28203230275508" cy="26.606060606060602" r="14.626277721963305" style="fill:#000080;stroke:none;stroke-width:0;fill-opacity:0.15" /><circle id="circle1961" cx="69.28203230275508" cy="-1.526315789473685" r="17.00131759599826" style="fill:#000080;stroke:none;stroke-width:0;fill-opacity:0.15" /><circle id="circle1962" cx="69.28203230275508" cy="-28.275862068965523" r="12.828094168659662" style="fill:#000080;stroke:none;stroke-width:0;fill-opacity:0.15" /><circle id="circle1963" cx="60.06219261938844" cy="-45.323076923076925" r="11.574592865409999" style="fill:#000080;stroke:none;stroke-width:0;fill-opacity:0.15" /><circle id="circle1964" cx="41.41393206787101" cy="-56.0896551724138" r="12.880807428107913" style="fill:#000080;stroke:none;stroke-width:0;fill-opacity:0.15" /><circle id="circle1965" cx="23.414177735044724" cy="-66.48181818181818" r="9.769585456916786" style="fill:#000080;stroke:none;stroke-width:0;fill-opacity:0.15" /><circle id="circle1966" cx="8.10298551714832" cy="-75.32173913043478" r="10.205723884174018" style="fill:#000080;stroke:none;stroke-width:0;fill-opacity:0.15" /><circle id="circle1967" cx="-10.008779309451583" cy="-74.22142857142858" r="12.514887134928546" style="fill:#000080;stroke:none;stroke-width:0;fill-opacity:0.15" /><circle id="circle1968" cx="-26.62634468726338" cy="-64.62727272727273" r="9.926852471957059" style="fill:#000080;stroke:none;stroke-width:0;fill-opacity:0.15" /><circle id="circle1969" cx="-42.655687615491715" cy="-55.372727272727275" r="9.926852471957057" style="fill:#000080;stroke:none;stroke-width:0;fill-opacity:0.15" /><circle id="circle1970" cx="-59.273252993303494" cy="-45.77857142857143" r="12.514887134928548" style="fill:#000080;stroke:none;stroke-width:0;fill-opacity:0.15" /><circle id="circle1971" cx="-69.28203230275508" cy="-30.643478260869564" r="10.205723884174018" style="fill:#000080;stroke:none;stroke-width:0;fill-opacity:0.15" /><circle id="circle1972" cx="-69.28203230275508" cy="-12.963636363636365" r="9.76958545691679" style="fill:#000080;stroke:none;stroke-width:0;fill-opacity:0.15" /><circle id="circle1973" cx="-69.28203230275508" cy="7.8206896551724085" r="12.880807428107914" style="fill:#000080;stroke:none;stroke-width:0;fill-opacity:0.15" /><circle id="circle1974" cx="-69.28203230275508" cy="29.353846153846163" r="11.574592865409997" style="fill:#000080;stroke:none;stroke-width:0;fill-opacity:0.15" /><circle id="circle1975" cx="-59.12863101700649" cy="45.862068965517246" r="12.828094168659664" style="fill:#000080;stroke:none;stroke-width:0;fill-opacity:0.15" /><circle id="circle1976" cx="-35.962844399259055" cy="59.23684210526316" r="17.001317595998252" style="fill:#000080;stroke:none;stroke-width:0;fill-opacity:0.15" /><circle id="circle1977" cx="-11.59949177190066" cy="73.30303030303031" r="14.626277721963305" style="fill:#000080;stroke:none;stroke-width:0;fill-opacity:0.15" /></g><g id="circles" inkscape:label="Inscribed Circles" inkscape:groupmode="layer" style="display:none"><circle id="incircle-0" cx="0.0" cy="80.0" r="13.296616110875734" style="fill:#008000;stroke:none;stroke-width:0;fill-opacity:0.15" /><circle id="incircle-ctr-0" cx="0.0" cy="80.0" r="0.5" style="fill:#000000;stroke:none;stroke-width:0" /><circle id="incircle-1" cx="69.28203230275508" cy="40.0" r="13.296616110875734" style="fill:#008000;stroke:none;stroke-width:0;fill-opacity:0.15" /><circle id="incircle-ctr-1" cx="69.28203230275508" cy="40.0" r="0.5" style="fill:#000000;stroke:none;stroke-width:0" /><circle id="incircle-2" cx="69.28203230275508" cy="-40.0" r="10.52235715037273" style="fill:#008000;stroke:none;stroke-width:0;fill-opacity:0.15" /><circle id="incircle-ctr-2" cx="69.28203230275508" cy="-40.0" r="0.5" style="fill:#000000;stroke:none;stroke-width:0" /><circle id="incircle-3" cx="0.0" cy="-80.0" r="9.277930803794565" style="fill:#008000;stroke:none;stroke-width:0;fill-opacity:0.15" /><circle id="incircle-ctr-3" cx="0.0" cy="-80.0" r="0.5" style="fill:#000000;stroke:none;stroke-width:0" /><circle id="incircle-4" cx="-69.28203230275508" cy="-40.0" r="9.277930803794563" style="fill:#008000;stroke:none;stroke-width:0;fill-opacity:0.15" /><circle id="incircle-ctr-4" cx="-69.28203230275508" cy="-40.0" r="0.5" style="fill:#000000;stroke:none;stroke-width:0" /><circle id="incircle-5" cx="-69.28203230275508" cy="40.0" r="10.52235715037272" style="fill:#008000;stroke:none;stroke-width:0;fill-opacity:0.15" /><circle id="incircle-ctr-5" cx="-69.28203230275508" cy="40.0" r="0.5" style="fill:#000000;stroke:none;stroke-width:0" /><circle id="incircle-6" cx="34.64101615137754" cy="60.0" r="14.17268734122742" style="fill:#008000;stroke:none;stroke-width:0;fill-opacity:0.15" /><circle id="incircle-ctr-6" cx="34.64101615137754" cy="60.0" r="0.5" style="fill:#000000;stroke:none;stroke-width:0" /><circle id="incircle-7" cx="69.28203230275508" cy="12.539872408293459" r="13.833437634388085" style="fill:#008000;stroke:none;stroke-width:0;fill-opacity:0.15" /><circle id="incircle-ctr-7" cx="69.28203230275508" cy="12.539872408293459" r="0.5" style="fill:#000000;stroke:none;stroke-width:0" /><circle id="incircle-8" cx="69.28203230275508" cy="-14.9010889292196" r="13.153463290938609" style="fill:#008000;stroke:none;stroke-width:0;fill-opacity:0.15" /><circle id="incircle-ctr-8" cx="69.28203230275508" cy="-14.9010889292196" r="0.5" style="fill:#000000;stroke:none;stroke-width:0" /><circle id="incircle-9" cx="50.73806234362972" cy="-50.70636604774536" r="10.641381222185293" style="fill:#008000;stroke:none;stroke-width:0;fill-opacity:0.15" /><circle id="incircle-ctr-9" cx="50.73806234362972" cy="-50.70636604774536" r="0.5" style="fill:#000000;stroke:none;stroke-width:0" /><circle id="incircle-10" cx="32.41405490145787" cy="-61.28573667711599" r="10.294696255658442" style="fill:#008000;stroke:none;stroke-width:0;fill-opacity:0.15" /><circle id="incircle-ctr-10" cx="32.41405490145787" cy="-61.28573667711599" r="0.5" style="fill:#000000;stroke:none;stroke-width:0" /><circle id="incircle-11" cx="15.758581626096518" cy="-70.90177865612648" r="6.436615426761634" style="fill:#008000;stroke:none;stroke-width:0;fill-opacity:0.15" /><circle id="incircle-ctr-11" cx="15.758581626096518" cy="-70.90177865612648" r="0.5" style="fill:#000000;stroke:none;stroke-width:0" /><circle id="incircle-12" cx="-18.317561998357483" cy="-69.42435064935066" r="9.355576587220014" style="fill:#008000;stroke:none;stroke-width:0;fill-opacity:0.15" /><circle id="incircle-ctr-12" cx="-18.317561998357483" cy="-69.42435064935066" r="0.5" style="fill:#000000;stroke:none;stroke-width:0" /><circle id="incircle-13" cx="-34.64101615137755" cy="-60.0" r="9.024411338142782" style="fill:#008000;stroke:none;stroke-width:0;fill-opacity:0.15" /><circle id="incircle-ctr-13" cx="-34.64101615137755" cy="-60.0" r="0.5" style="fill:#000000;stroke:none;stroke-width:0" /><circle id="incircle-14" cx="-50.96447030439761" cy="-50.57564935064936" r="8.859483756095699" style="fill:#008000;stroke:none;stroke-width:0;fill-opacity:0.15" /><circle id="incircle-ctr-14" cx="-50.96447030439761" cy="-50.57564935064936" r="0.5" style="fill:#000000;stroke:none;stroke-width:0" /><circle id="incircle-15" cx="-69.28203230275508" cy="-21.803557312252963" r="8.758860359016102" style="fill:#008000;stroke:none;stroke-width:0;fill-opacity:0.15" /><circle id="incircle-ctr-15" cx="-69.28203230275508" cy="-21.803557312252963" r="0.5" style="fill:#000000;stroke:none;stroke-width:0" /><circle id="incircle-16" cx="-69.28203230275508" cy="-2.571473354231978" r="10.29469625565844" style="fill:#008000;stroke:none;stroke-width:0;fill-opacity:0.15" /><circle id="incircle-ctr-16" cx="-69.28203230275508" cy="-2.571473354231978" r="0.5" style="fill:#000000;stroke:none;stroke-width:0" /><circle id="incircle-17" cx="-69.28203230275508" cy="18.587267904509282" r="10.641381222185297" style="fill:#008000;stroke:none;stroke-width:0;fill-opacity:0.15" /><circle id="incircle-ctr-17" cx="-69.28203230275508" cy="18.587267904509282" r="0.5" style="fill:#000000;stroke:none;stroke-width:0" /><circle id="incircle-18" cx="-47.545737708132776" cy="52.5494555353902" r="8.475994527437603" style="fill:#008000;stroke:none;stroke-width:0;fill-opacity:0.15" /><circle id="incircle-ctr-18" cx="-47.545737708132776" cy="52.5494555353902" r="0.5" style="fill:#000000;stroke:none;stroke-width:0" /><circle id="incircle-19" cx="-23.78116808557986" cy="66.26993620414673" r="13.833437634388089" style="fill:#008000;stroke:none;stroke-width:0;fill-opacity:0.15" /><circle id="incircle-ctr-19" cx="-23.78116808557986" cy="66.26993620414673" r="0.5" style="fill:#000000;stroke:none;stroke-width:0" /><circle id="incircle-20" cx="-38.26681925335129" cy="34.71595873137376" r="11.129993808985757" style="fill:#008000;stroke:none;stroke-width:0;fill-opacity:0.15" /><circle id="incircle-ctr-20" cx="-38.26681925335129" cy="34.71595873137376" r="0.5" style="fill:#000000;stroke:none;stroke-width:0" /><circle id="incircle-21" cx="-12.621418656198848" cy="33.17914691667417" r="13.884143197292861" style="fill:#008000;stroke:none;stroke-width:0;fill-opacity:0.15" /><circle id="incircle-ctr-21" cx="-12.621418656198848" cy="33.17914691667417" r="0.5" style="fill:#000000;stroke:none;stroke-width:0" /><circle id="incircle-22" cx="-42.21051647851588" cy="11.668016156899991" r="10.653946317026158" style="fill:#008000;stroke:none;stroke-width:0;fill-opacity:0.15" /><circle id="incircle-ctr-22" cx="-42.21051647851588" cy="11.668016156899991" r="0.5" style="fill:#000000;stroke:none;stroke-width:0" /><circle id="incircle-23" cx="36.9958807491576" cy="27.148979071715594" r="14.87801791042547" style="fill:#008000;stroke:none;stroke-width:0;fill-opacity:0.15" /><circle id="incircle-ctr-23" cx="36.9958807491576" cy="27.148979071715594" r="0.5" style="fill:#000000;stroke:none;stroke-width:0" /><circle id="incircle-24" cx="36.52749983584571" cy="-1.1448818920370805" r="13.230917128612878" style="fill:#008000;stroke:none;stroke-width:0;fill-opacity:0.15" /><circle id="incircle-ctr-24" cx="36.52749983584571" cy="-1.1448818920370805" r="0.5" style="fill:#000000;stroke:none;stroke-width:0" /><circle id="incircle-25" cx="5.6017998125500625" cy="-56.25868149369876" r="11.348432195509346" style="fill:#008000;stroke:none;stroke-width:0;fill-opacity:0.15" /><circle id="incircle-ctr-25" cx="5.6017998125500625" cy="-56.25868149369876" r="0.5" style="fill:#000000;stroke:none;stroke-width:0" /><circle id="incircle-26" cx="23.822607475189066" cy="-41.05089795744582" r="11.256506928907086" style="fill:#008000;stroke:none;stroke-width:0;fill-opacity:0.15" /><circle id="incircle-ctr-26" cx="23.822607475189066" cy="-41.05089795744582" r="0.5" style="fill:#000000;stroke:none;stroke-width:0" /><circle id="incircle-27" cx="42.35321424223451" cy="-26.44626349519905" r="12.262147183623961" style="fill:#008000;stroke:none;stroke-width:0;fill-opacity:0.15" /><circle id="incircle-ctr-27" cx="42.35321424223451" cy="-26.44626349519905" r="0.5" style="fill:#000000;stroke:none;stroke-width:0" /><circle id="incircle-28" cx="-48.575428923260866" cy="-12.655087982768038" r="10.312282658625325" style="fill:#008000;stroke:none;stroke-width:0;fill-opacity:0.15" /><circle id="incircle-ctr-28" cx="-48.575428923260866" cy="-12.655087982768038" r="0.5" style="fill:#000000;stroke:none;stroke-width:0" /><circle id="incircle-29" cx="13.633965164871748" cy="8.935274644762956" r="11.487835732616446" style="fill:#008000;stroke:none;stroke-width:0;fill-opacity:0.15" /><circle id="incircle-ctr-29" cx="13.633965164871748" cy="8.935274644762956" r="0.5" style="fill:#000000;stroke:none;stroke-width:0" /><circle id="incircle-30" cx="-18.843718358401883" cy="-40.5502557627573" r="11.80888929189508" style="fill:#008000;stroke:none;stroke-width:0;fill-opacity:0.15" /><circle id="incircle-ctr-30" cx="-18.843718358401883" cy="-40.5502557627573" r="0.5" style="fill:#000000;stroke:none;stroke-width:0" /><circle id="incircle-31" cx="-40.86713816211203" cy="-33.04984021206994" r="11.2213107705734" style="fill:#008000;stroke:none;stroke-width:0;fill-opacity:0.15" /><circle id="incircle-ctr-31" cx="-40.86713816211203" cy="-33.04984021206994" r="0.5" style="fill:#000000;stroke:none;stroke-width:0" /><circle id="incircle-32" cx="12.70497234091604" cy="43.846991834709534" r="13.05214854858817" style="fill:#008000;stroke:none;stroke-width:0;fill-opacity:0.15" /><circle id="incircle-ctr-32" cx="12.70497234091604" cy="43.846991834709534" r="0.5" style="fill:#000000;stroke:none;stroke-width:0" /><circle id="incircle-33" cx="-29.297746914846876" cy="-4.672194367020655" r="10.051976684726506" style="fill:#008000;stroke:none;stroke-width:0;fill-opacity:0.15" /><circle id="incircle-ctr-33" cx="-29.297746914846876" cy="-4.672194367020655" r="0.5" style="fill:#000000;stroke:none;stroke-width:0" /><circle id="incircle-34" cx="-8.695203478149791" cy="2.799328665582781" r="10.666842367363815" style="fill:#008000;stroke:none;stroke-width:0;fill-opacity:0.15" /><circle id="incircle-ctr-34" cx="-8.695203478149791" cy="2.799328665582781" r="0.5" style="fill:#000000;stroke:none;stroke-width:0" /><circle id="incircle-35" cx="-13.23706552389661" cy="-18.26389729414499" r="10.794329986618642" style="fill:#008000;stroke:none;stroke-width:0;fill-opacity:0.15" /><circle id="incircle-ctr-35" cx="-13.23706552389661" cy="-18.26389729414499" r="0.5" style="fill:#000000;stroke:none;stroke-width:0" /><circle id="incircle-36" cx="10.40563507670365" cy="-20.71651272272885" r="12.5615089865239" style="fill:#008000;stroke:none;stroke-width:0;fill-opacity:0.15" /><circle id="incircle-ctr-36" cx="10.40563507670365" cy="-20.71651272272885" r="0.5" style="fill:#000000;stroke:none;stroke-width:0" /></g><g id="annotations" inkscape:label="Annotations" inkscape:groupmode="layer" transform="scale(1,-1)"><text id="text1978" x="-92" y="84.5" style="font-style:normal;font-weight:normal;font-size:4px;font-family:sans-serif;fill:#000000;fill-opacity:1;stroke:none"><tspan x="-92" y="84.5">id: 424</tspan></text><ns0:text xml:space="preserve" style="font-style:normal;font-weight:normal;font-size:4.23333px;line-height:1.25;font-family:sans-serif;text-align:center;text-anchor:middle;fill:#000000;fill-opacity:1;stroke:none;stroke-width:0.264583" x="-1.7974526e-07" y="0" id="tile-id" transform="translate(0 -72)"><ns0:tspan ns1:role="line" id="tspan439" style="font-style:normal;font-variant:normal;font-weight:bold;font-stretch:normal;font-size:4.23333px;font-family:'Arial Black';-inkscape-font-specification:'Arial Black,  Bold';text-align:center;text-anchor:middle;fill:#808080;fill-opacity:1;stroke-width:0.264583" x="-1.4621764e-07" y="0">424</ns0:tspan></ns0:text>
  <text id="text1979" x="-92" y="90.0" style="font-style:normal;font-weight:normal;font-size:4px;font-family:sans-serif;fill:#000000;fill-opacity:1;stroke:none"><tspan x="-92" y="90.0">size: 80</tspan></text><text id="text1980" x="-92" y="95.5" style="font-style:normal;font-weight:normal;font-size:4px;font-family:sans-serif;fill:#000000;fill-opacity:1;stroke:none"><tspan x="-92" y="95.5">rng seed 615</tspan></text><text id="text1981" x="-92" y="101.0" style="font-style:normal;font-weight:normal;font-size:4px;font-family:sans-serif;fill:#000000;fill-opacity:1;stroke:none"><tspan x="-92" y="101.0">pattern 112332 / llmhhm</tspan></text><text id="text1982" x="-92" y="106.5" style="font-style:normal;font-weight:normal;font-size:4px;font-family:sans-serif;fill:#000000;fill-opacity:1;stroke:none"><tspan x="-92" y="106.5">seed attempts: 20</tspan></text><text id="text1983" x="-92" y="112.0" style="font-style:normal;font-weight:normal;font-size:4px;font-family:sans-serif;fill:#000000;fill-opacity:1;stroke:none"><tspan x="-92" y="112.0">seed distance: l 0.3; m 0.24; h 0.2</tspan></text><text id="text1984" x="-92" y="117.5" style="font-style:normal;font-weight:normal;font-size:4px;font-family:sans-serif;fill:#000000;fill-opacity:1;stroke:none"><tspan x="-92" y="117.5">center: (AVG) 0.247</tspan></text><text id="text1985" x="-92" y="123.0" style="font-style:normal;font-weight:normal;font-size:4px;font-family:sans-serif;fill:#000000;fill-opacity:1;stroke:none"><tspan x="-92" y="123.0">min ridge length: 0.08; at edge: 0.04</tspan></text><text id="text1986" x="-92" y="128.5" style="font-style:normal;font-weight:normal;font-size:4px;font-family:sans-serif;fill:#000000;fill-opacity:1;stroke:none"><tspan x="-92" y="128.5">edge margin exclusion zone scale: 1.1</tspan></text><text id="text1987" x="-92" y="134.0" style="font-style:normal;font-weight:normal;font-size:4px;font-family:sans-serif;fill:#000000;fill-opacity:1;stroke:none"><tspan x="-92" y="134.0">iterations: 70</tspan></text><text id="text1988" x="-92" y="139.5" style="font-style:normal;font-weight:normal;font-size:4px;font-family:sans-serif;fill:#000000;fill-opacity:1;stroke:none"><tspan x="-92" y="139.5">adjustments: side 0.011, neighbor -0.009</tspan></text><text id="text1989" x="-92" y="145.0" style="font-style:normal;font-weight:normal;font-size:4px;font-family:sans-serif;fill:#000000;fill-opacity:1;stroke:none"><tspan x="-92" y="145.0">closeness: 0.9, adjust -0.013</tspan></text><text id="text1990" x="-1.5" y="-82" style="font-style:normal;font-weight:normal;font-size:4px;font-family:sans-serif;fill:#000000;fill-opacity:1;stroke:none"><tspan x="-1.5" y="-82">L</tspan></text><text id="text1991" x="-1.5" y="-82" style="font-style:normal;font-weight:normal;font-size:4px;font-family:sans-serif;fill:#000000;fill-opacity:1;stroke:none" transform="rotate(60)"><tspan x="-1.5" y="-82">L</tspan></text><text id="text1992" x="-1.5" y="-82" style="font-style:normal;font-weight:normal;font-size:4px;font-family:sans-serif;fill:#000000;fill-opacity:1;stroke:none" transform="rotate(120)"><tspan x="-1.5" y="-82">M</tspan></text><text id="text1993" x="-1.5" y="-82" style="font-style:normal;font-weight:normal;font-size:4px;font-family:sans-serif;fill:#000000;fill-opacity:1;stroke:none" transform="rotate(180)"><tspan x="-1.5" y="-82">H</tspan></text><text id="text1994" x="-1.5" y="-82" style="font-style:normal;font-weight:normal;font-size:4px;font-family:sans-serif;fill:#000000;fill-opacity:1;stroke:none" transform="rotate(240)"><tspan x="-1.5" y="-82">H</tspan></text><text id="text1995" x="-1.5" y="-82" style="font-style:normal;font-weight:normal;font-size:4px;font-family:sans-serif;fill:#000000;fill-opacity:1;stroke:none" transform="rotate(300)"><tspan x="-1.5" y="-82">M</tspan></text><g id="node1996" transform="rotate(30)"><text id="text1997" x="-1.5" y="-72.28203230275508" style="font-style:normal;font-weight:normal;font-size:4px;font-family:sans-serif;fill:#000000;fill-opacity:1;stroke:none"><tspan x="-1.5" y="-72.28203230275508">L</tspan></text></g><g id="node1998" transform="rotate(90)"><text id="text1999" x="-15.099999999999998" y="-72.28203230275508" style="font-style:normal;font-weight:normal;font-size:4px;font-family:sans-serif;fill:#000000;fill-opacity:1;stroke:none"><tspan x="-15.099999999999998" y="-72.28203230275508">L</tspan></text><text id="text2000" x="15.299999999999997" y="-72.28203230275508" style="font-style:normal;font-weight:normal;font-size:4px;font-family:sans-serif;fill:#000000;fill-opacity:1;stroke:none"><tspan x="15.299999999999997" y="-72.28203230275508">L</tspan></text></g><g id="node2001" transform="rotate(150)"><text id="text2002" x="-20.7" y="-72.28203230275508" style="font-style:normal;font-weight:normal;font-size:4px;font-family:sans-serif;fill:#000000;fill-opacity:1;stroke:none"><tspan x="-20.7" y="-72.28203230275508">M</tspan></text><text id="text2003" x="2.5" y="-72.28203230275508" style="font-style:normal;font-weight:normal;font-size:4px;font-family:sans-serif;fill:#000000;fill-opacity:1;stroke:none"><tspan x="2.5" y="-72.28203230275508">H</tspan></text><text id="text2004" x="20.1" y="-72.28203230275508" style="font-style:normal;font-weight:normal;font-size:4px;font-family:sans-serif;fill:#000000;fill-opacity:1;stroke:none"><tspan x="20.1" y="-72.28203230275508">M</tspan></text></g><g id="node2005" transform="rotate(210)"><text id="text2006" x="-19.099999999999998" y="-72.28203230275508" style="font-style:normal;font-weight:normal;font-size:4px;font-family:sans-serif;fill:#000000;fill-opacity:1;stroke:none"><tspan x="-19.099999999999998" y="-72.28203230275508">H</tspan></text><text id="text2007" x="-1.5" y="-72.28203230275508" style="font-style:normal;font-weight:normal;font-size:4px;font-family:sans-serif;fill:#000000;fill-opacity:1;stroke:none"><tspan x="-1.5" y="-72.28203230275508">M</tspan></text><text id="text2008" x="16.099999999999994" y="-72.28203230275508" style="font-style:normal;font-weight:normal;font-size:4px;font-family:sans-serif;fill:#000000;fill-opacity:1;stroke:none"><tspan x="16.099999999999994" y="-72.28203230275508">H</tspan></text></g><g id="node2009" transform="rotate(270)"><text id="text2010" x="-23.1" y="-72.28203230275508" style="font-style:normal;font-weight:normal;font-size:4px;font-family:sans-serif;fill:#000000;fill-opacity:1;stroke:none"><tspan x="-23.1" y="-72.28203230275508">M</tspan></text><text id="text2011" x="-5.5" y="-72.28203230275508" style="font-style:normal;font-weight:normal;font-size:4px;font-family:sans-serif;fill:#000000;fill-opacity:1;stroke:none"><tspan x="-5.5" y="-72.28203230275508">H</tspan></text><text id="text2012" x="17.700000000000003" y="-72.28203230275508" style="font-style:normal;font-weight:normal;font-size:4px;font-family:sans-serif;fill:#000000;fill-opacity:1;stroke:none"><tspan x="17.700000000000003" y="-72.28203230275508">M</tspan></text></g><g id="node2013" transform="rotate(330)"><text id="text2014" x="-18.299999999999997" y="-72.28203230275508" style="font-style:normal;font-weight:normal;font-size:4px;font-family:sans-serif;fill:#000000;fill-opacity:1;stroke:none"><tspan x="-18.299999999999997" y="-72.28203230275508">L</tspan></text><text id="text2015" x="12.099999999999994" y="-72.28203230275508" style="font-style:normal;font-weight:normal;font-size:4px;font-family:sans-serif;fill:#000000;fill-opacity:1;stroke:none"><tspan x="12.099999999999994" y="-72.28203230275508">L</tspan></text></g><g id="node2016" transform="rotate(90)"><rect id="rect2017" x="0.10000000000000142" y="-77.28203230275508" width="3" height="8" style="fill:#a2c6ff;stroke:#000000;stroke-width:0.3" /><text id="text2018" x="0.10000000000000142" y="-79.28203230275508" style="font-style:normal;font-weight:normal;font-size:4px;font-family:sans-serif;fill:#000000;fill-opacity:1;stroke:none"><tspan x="0.10000000000000142" y="-79.28203230275508">R</tspan></text></g><g id="node2019" transform="rotate(330)"><rect id="rect2020" x="-3.1000000000000014" y="-77.28203230275508" width="3" height="8" style="fill:#a2c6ff;stroke:#000000;stroke-width:0.3" /><text id="text2021" x="-3.1000000000000014" y="-79.28203230275508" style="font-style:normal;font-weight:normal;font-size:4px;font-family:sans-serif;fill:#000000;fill-opacity:1;stroke:none"><tspan x="-3.1000000000000014" y="-79.28203230275508">R</tspan></text></g><circle id="mana" cx="50" cy="110" r="7.5" style="fill:#000000;stroke:none;stroke-width:0" /><rect id="rect2022" x="75" y="90" width="15" height="6" style="fill:#be850a;stroke:#000000;stroke-width:0.3" /><text id="text2023" x="70" y="94.5" style="font-style:normal;font-weight:normal;font-size:4px;font-family:sans-serif;fill:#000000;fill-opacity:1;stroke:none"><tspan x="70" y="94.5">V</tspan></text><rect id="rect2024" x="75" y="100" width="15" height="6" style="fill:#e7a311;stroke:#000000;stroke-width:0.3" /><text id="text2025" x="70" y="104.5" style="font-style:normal;font-weight:normal;font-size:4px;font-family:sans-serif;fill:#000000;fill-opacity:1;stroke:none"><tspan x="70" y="104.5">H</tspan></text><rect id="rect2026" x="75" y="110" width="15" height="6" style="fill:#f0ce76;stroke:#000000;stroke-width:0.3" /><text id="text2027" x="70" y="114.5" style="font-style:normal;font-weight:normal;font-size:4px;font-family:sans-serif;fill:#000000;fill-opacity:1;stroke:none"><tspan x="70" y="114.5">M</tspan></text><rect id="rect2028" x="75" y="120" width="15" height="6" style="fill:#f0eaac;stroke:#000000;stroke-width:0.3" /><text id="text2029" x="70" y="124.5" style="font-style:normal;font-weight:normal;font-size:4px;font-family:sans-serif;fill:#000000;fill-opacity:1;stroke:none"><tspan x="70" y="124.5">L</tspan></text><rect id="rect2030" x="75" y="130" width="15" height="6" style="fill:#a2c6ff;stroke:#000000;stroke-width:0.3" /><text id="text2031" x="70" y="134.5" style="font-style:normal;font-weight:normal;font-size:4px;font-family:sans-serif;fill:#000000;fill-opacity:1;stroke:none"><tspan x="70" y="134.5">R</tspan></text></g><g id="river-border" inkscape:label="River Border" inkscape:groupmode="layer"><path id="path2032" d="m 14.6797 26.1868 -9.77922 -0.383715 z" style="fill:none;stroke:#000000;stroke-width:2.6;stroke-linecap:round;stroke-linejoin:round" /><path id="path2033" d="m -1.97202 19.8629 -18.4008 -1.71021 z" style="fill:none;stroke:#000000;stroke-width:2.6;stroke-linecap:round;stroke-linejoin:round" /><path id="path2034" d="m -27.3261 46.1775 -5.29289 3.64929 z" style="fill:none;stroke:#000000;stroke-width:2.6;stroke-linecap:round;stroke-linejoin:round" /><path id="path2035" d="m -27.3261 46.1775 1.30394 -21.3292 z" style="fill:none;stroke:#000000;stroke-width:2.6;stroke-linecap:round;stroke-linejoin:round" /><path id="path2036" d="m -39.1466 68.1964 6.52759 -18.3696 z" style="fill:none;stroke:#000000;stroke-width:2.6;stroke-linecap:round;stroke-linejoin:round" /><path id="path2037" d="m -1.97202 19.8629 6.87248 5.94014 z" style="fill:none;stroke:#000000;stroke-width:2.6;stroke-linecap:round;stroke-linejoin:round" /><path id="path2038" d="m -20.3729 18.1527 -5.64932 6.69556 z" style="fill:none;stroke:#000000;stroke-width:2.6;stroke-linecap:round;stroke-linejoin:round" /><path id="path2039" d="m 19.1214 -8.61866 8.1809 -9.68453 z" style="fill:none;stroke:#000000;stroke-width:2.6;stroke-linecap:round;stroke-linejoin:round" /><path id="path2040" d="m 19.1214 -8.61866 7.7207 19.8076 z" style="fill:none;stroke:#000000;stroke-width:2.6;stroke-linecap:round;stroke-linejoin:round" /><path id="path2041" d="m 27.3023 -18.3032 22.4897 7.09061 z" style="fill:none;stroke:#000000;stroke-width:2.6;stroke-linecap:round;stroke-linejoin:round" /><path id="path2042" d="m 49.792 -11.2126 6.19259 12.1358 z" style="fill:none;stroke:#000000;stroke-width:2.6;stroke-linecap:round;stroke-linejoin:round" /><path id="path2043" d="m 14.6797 26.1868 12.1624 -14.9979 z" style="fill:none;stroke:#000000;stroke-width:2.6;stroke-linecap:round;stroke-linejoin:round" /><path id="path2044" d="m 79.114 -3.33748 -23.1295 4.2607 z" style="fill:none;stroke:#000000;stroke-width:2.6;stroke-linecap:round;stroke-linejoin:round" /></g><g id="river" inkscape:label="River" inkscape:groupmode="layer"><path id="path2032" d="m 14.6797 26.1868 -9.77922 -0.383715 z" style="fill:none;stroke:#a2c6ff;stroke-width:2.0;stroke-linecap:round;stroke-linejoin:round" /><path id="path2033" d="m -1.97202 19.8629 -18.4008 -1.71021 z" style="fill:none;stroke:#a2c6ff;stroke-width:2.0;stroke-linecap:round;stroke-linejoin:round" /><path id="path2034" d="m -27.3261 46.1775 -5.29289 3.64929 z" style="fill:none;stroke:#a2c6ff;stroke-width:2.0;stroke-linecap:round;stroke-linejoin:round" /><path id="path2035" d="m -27.3261 46.1775 1.30394 -21.3292 z" style="fill:none;stroke:#a2c6ff;stroke-width:2.0;stroke-linecap:round;stroke-linejoin:round" /><path id="path2036" d="m -39.1466 68.1964 6.52759 -18.3696 z" style="fill:none;stroke:#a2c6ff;stroke-width:2.0;stroke-linecap:round;stroke-linejoin:round" /><path id="path2037" d="m -1.97202 19.8629 6.87248 5.94014 z" style="fill:none;stroke:#a2c6ff;stroke-width:2.0;stroke-linecap:round;stroke-linejoin:round" /><path id="path2038" d="m -20.3729 18.1527 -5.64932 6.69556 z" style="fill:none;stroke:#a2c6ff;stroke-width:2.0;stroke-linecap:round;stroke-linejoin:round" /><path id="path2039" d="m 19.1214 -8.61866 8.1809 -9.68453 z" style="fill:none;stroke:#a2c6ff;stroke-width:2.0;stroke-linecap:round;stroke-linejoin:round" /><path id="path2040" d="m 19.1214 -8.61866 7.7207 19.8076 z" style="fill:none;stroke:#a2c6ff;stroke-width:2.0;stroke-linecap:round;stroke-linejoin:round" /><path id="path2041" d="m 27.3023 -18.3032 22.4897 7.09061 z" style="fill:none;stroke:#a2c6ff;stroke-width:2.0;stroke-linecap:round;stroke-linejoin:round" /><path id="path2042" d="m 49.792 -11.2126 6.19259 12.1358 z" style="fill:none;stroke:#a2c6ff;stroke-width:2.0;stroke-linecap:round;stroke-linejoin:round" /><path id="path2043" d="m 14.6797 26.1868 12.1624 -14.9979 z" style="fill:none;stroke:#a2c6ff;stroke-width:2.0;stroke-linecap:round;stroke-linejoin:round" /><path id="path2044" d="m 79.114 -3.33748 -23.1295 4.2607 z" style="fill:none;stroke:#a2c6ff;stroke-width:2.0;stroke-linecap:round;stroke-linejoin:round" /></g><g id="overlay" inkscape:label="Overlay" inkscape:groupmode="layer" transform="scale(1,-1)" /><g id="border" inkscape:label="Border" inkscape:groupmode="layer"><path id="path2045" d="m 0 80 69.282 -40 0 -80 -69.282 -40 -69.282 40 0 80 z" style="fill:none;stroke:#000000;stroke-width:0.3" /></g></g></svg>