<?xml version='1.0' encoding='UTF-8'?>
<svg xmlns:ns0="http://www.w3.org/2000/svg" xmlns:ns1="http://sodipodi.sourceforge.net/DTD/sodipodi-0.dtd" xmlns:ns2="http://www.inkscape.org/namespaces/inkscape" version="1.1" id="svg_root" xmlns="http://www.w3.org/2000/svg" xmlns:sodipodi="http://sodipodi.sourceforge.net/DTD/sodipodi-0.dtd" xmlns:inkscape="http://www.inkscape.org/namespaces/inkscape" xmlns:xlink="http://www.w3.org/1999/xlink" width="215.9mm" height="279.4mm" viewBox="0 0 215.9 279.4"><defs /><g id="layer" inkscape:label="Layer" inkscape:groupmode="layer" transform="translate(107.95 120) scale(1, -1)"><g id="background" inkscape:label="Tile Background" inkscape:groupmode="layer"><path id="path2171" d="m 0 80 69.282 -40 0 -80 -69.282 -40 -69.282 40 0 80 z" style="fill:#000000;stroke:none;stroke-width:0" /></g><g id="region-clip" inkscape:label="Region Clipped" inkscape:groupmode="layer" style="display:none"><g id="clip"><path id="clipregion-0" d="m 15.6715 67.1439 -20.4993 -2.85622 -6.77169 9.01536 11.5995 6.69697 17.3205 -10 z" style="fill:#f0eaac;stroke:#000000;stroke-width:0.3" /><path id="clipregion-1" d="m 58.9194 25.35 -10.4294 6.7446 -3.24755 6.26752 6.71914 11.6379 17.3205 -10 0 -13.3939 z" style="fill:#f0eaac;stroke:#000000;stroke-width:0.3" /><path id="clipregion-2" d="m 55.9493 -34.7488 3.50536 5.45635 9.82739 1.01663 0 -11.7241 -9.21984 -5.32308 z" style="fill:#f0ce76;stroke:#000000;stroke-width:0.3" /><path id="clipregion-3" d="m -3.09177 -66.0144 6.9989 0.788149 4.19586 -10.0955 -8.10299 -4.67826 -10.0088 5.77857 z" style="fill:#e7a311;stroke:#000000;stroke-width:0.3" /><path id="clipregion-4" d="m -54.6344 -32.554 1.11843 -6.39349 -5.7573 -6.83104 -10.0088 5.77857 0 9.35652 z" style="fill:#e7a311;stroke:#000000;stroke-width:0.3" /><path id="clipregion-5" d="m -56.1811 41.7911 -8.5209 -13.1419 -4.58005 0.704624 0 10.6462 10.1534 5.86207 z" style="fill:#f0ce76;stroke:#000000;stroke-width:0.3" /><path id="clipregion-6" d="m 45.2424 38.3621 -21.3675 2.43699 -8.20336 26.3448 1.64898 2.85612 34.641 -20 z" style="fill:#f0eaac;stroke:#000000;stroke-width:0.3" /><path id="clipregion-7" d="m 63.1325 -0.39351 -4.21314 25.7435 10.3627 1.25608 0 -28.1324 z" style="fill:#f0eaac;stroke:#000000;stroke-width:0.3" /><path id="clipregion-8" d="m 59.4546 -29.2925 -8.05856 21.3917 11.7364 7.50727 6.14952 -1.13281 0 -26.7495 z" style="fill:#f0eaac;stroke:#000000;stroke-width:0.3" /><path id="clipregion-9" d="m 33.2956 -45.6436 -0.186406 6.85396 22.8401 4.04083 4.11291 -10.5742 -18.6483 -10.7666 z" style="fill:#f0ce76;stroke:#000000;stroke-width:0.3" /><path id="clipregion-10" d="m 18.928 -60.691 14.3675 15.0474 8.11835 -10.446 -17.9998 -10.3922 z" style="fill:#e7a311;stroke:#000000;stroke-width:0.3" /><path id="clipregion-11" d="m 3.90713 -65.2262 4.69259 4.50115 10.3283 0.0340464 4.48615 -5.79077 -15.3112 -8.83992 z" style="fill:#f0ce76;stroke:#000000;stroke-width:0.3" /><path id="clipregion-12" d="m -22.7374 -52.0607 6.51813 -0.281072 13.1275 -13.6727 -6.91701 -8.20703 -16.6176 9.59416 z" style="fill:#e7a311;stroke:#000000;stroke-width:0.3" /><path id="clipregion-13" d="m -40.3277 -47.8502 11.0375 1.60162 6.55283 -5.81204 -3.88899 -12.5666 -16.0293 9.25455 z" style="fill:#f0ce76;stroke:#000000;stroke-width:0.3" /><path id="clipregion-14" d="m -53.516 -38.9475 13.1883 -8.90271 -2.32798 -7.52249 -16.6176 9.59416 z" style="fill:#e7a311;stroke:#000000;stroke-width:0.3" /><path id="clipregion-15" d="m -57.524 -11.3603 5.44101 -4.21752 1.72314 -7.57702 -4.27453 -9.39922 -14.6476 1.91056 0 17.6798 z" style="fill:#f0ce76;stroke:#000000;stroke-width:0.3" /><path id="clipregion-16" d="m -61.9663 8.82976 4.44225 -20.19 -11.758 -1.60337 0 20.7843 z" style="fill:#e7a311;stroke:#000000;stroke-width:0.3" /><path id="clipregion-17" d="m -64.702 28.6492 7.18542 -14.5251 -4.4497 -5.29441 -7.31577 -1.00907 0 21.5332 z" style="fill:#f0ce76;stroke:#000000;stroke-width:0.3" /><path id="clipregion-18" d="m -33.6509 52.7308 -4.81742 -12.4387 -17.7127 1.49898 -2.94756 4.07097 23.1658 13.3748 z" style="fill:#f0eaac;stroke:#000000;stroke-width:0.3" /><path id="clipregion-19" d="m -4.8278 64.2877 -5.81508 -10.9014 -23.0081 -0.655407 -2.3119 6.50603 24.3634 14.0662 z" style="fill:#f0eaac;stroke:#000000;stroke-width:0.3" /><path id="clipregion-20" d="m 21.9156 9.14299 -8.89202 17.0572 1.22246 6.49965 9.6288 8.0993 21.3675 -2.43699 3.24755 -6.26752 -12.9907 -26.2656 z" style="fill:#f0eaac;stroke:#000000;stroke-width:0.3" /><path id="clipregion-21" d="m -6.34518 40.6271 -4.29771 12.7591 5.81508 10.9014 20.4993 2.85622 8.20336 -26.3448 -9.6288 -8.0993 z" style="fill:#f0eaac;stroke:#000000;stroke-width:0.3" /><path id="clipregion-22" d="m 35.4992 5.82899 12.9907 26.2656 10.4294 -6.7446 4.21314 -25.7435 -11.7364 -7.50727 -9.04921 1.08998 z" style="fill:#f0eaac;stroke:#000000;stroke-width:0.3" /><path id="clipregion-23" d="m -21.2349 26.1362 -14.3022 7.00994 -2.93127 7.14595 4.81742 12.4387 23.0081 0.655407 4.29771 -12.7591 z" style="fill:#f0eaac;stroke:#000000;stroke-width:0.3" /><path id="clipregion-24" d="m 18.928 -60.691 -10.3283 -0.0340464 -2.7183 17.3267 20.7724 12.3889 6.45533 -7.78021 0.186406 -6.85396 z" style="fill:#e7a311;stroke:#000000;stroke-width:0.3" /><path id="clipregion-25" d="m -38.4684 40.2921 2.93127 -7.14595 -12.74 -18.2118 -9.2395 -0.810155 -7.18542 14.5251 8.5209 13.1419 z" style="fill:#f0eaac;stroke:#000000;stroke-width:0.3" /><path id="clipregion-26" d="m -18.9403 19.9123 -9.26292 -19.8566 -6.45572 0.551559 -13.6182 14.3271 12.74 18.2118 14.3022 -7.00994 z" style="fill:#f0ce76;stroke:#000000;stroke-width:0.3" /><path id="clipregion-27" d="m -61.9663 8.82976 4.4497 5.29441 9.2395 0.810155 13.6182 -14.3271 -17.4241 -16.185 -5.44101 4.21752 z" style="fill:#f0ce76;stroke:#000000;stroke-width:0.3" /><path id="clipregion-28" d="m 33.1092 -38.7897 -6.45533 7.78021 -1.13465 6.98031 16.8277 17.2184 9.04921 -1.08998 8.05856 -21.3917 -3.50536 -5.45635 z" style="fill:#f0ce76;stroke:#000000;stroke-width:0.3" /><path id="clipregion-29" d="m 15.2958 -17.4156 -4.16249 13.0066 10.7823 13.5521 13.5836 -3.314 6.84763 -12.6398 -16.8277 -17.2184 z" style="fill:#f0ce76;stroke:#000000;stroke-width:0.3" /><path id="clipregion-30" d="m -50.3599 -23.1548 -1.72314 7.57702 17.4241 16.185 6.45572 -0.551559 10.068 -11.3941 0.695035 -8.56122 -7.51449 -6.04499 z" style="fill:#f0ce76;stroke:#000000;stroke-width:0.3" /><path id="clipregion-31" d="m 15.2958 -17.4156 -23.6004 -7.91667 -9.13564 5.43264 -0.695035 8.56122 16.8431 12.1528 12.4255 -5.22342 z" style="fill:#f0ce76;stroke:#000000;stroke-width:0.3" /><path id="clipregion-32" d="m 11.1334 -4.40908 -12.4255 5.22342 -1.4674 13.1062 15.7831 12.2796 8.89202 -17.0572 z" style="fill:#f0eaac;stroke:#000000;stroke-width:0.3" /><path id="clipregion-33" d="m -2.75952 13.9205 -16.1807 5.99176 -2.29466 6.22396 14.8897 14.4909 20.5913 -7.92735 -1.22246 -6.49965 z" style="fill:#f0ce76;stroke:#000000;stroke-width:0.3" /><path id="clipregion-34" d="m -3.09177 -66.0144 -13.1275 13.6727 12.7341 13.4438 9.36655 -4.50047 2.7183 -17.3267 -4.69259 -4.50115 z" style="fill:#e7a311;stroke:#000000;stroke-width:0.3" /><path id="clipregion-35" d="m -40.3277 -47.8502 -13.1883 8.90271 -1.11843 6.39349 4.27453 9.39922 25.4052 -2.78985 -4.33555 -20.304 z" style="fill:#e7a311;stroke:#000000;stroke-width:0.3" /><path id="clipregion-36" d="m -24.9546 -25.9447 7.51449 6.04499 9.13564 -5.43264 4.81937 -13.5656 -12.7341 -13.4438 -6.51813 0.281072 -6.55283 5.81204 z" style="fill:#f0ce76;stroke:#000000;stroke-width:0.3" /><path id="clipregion-37" d="m -1.29211 0.814338 -16.8431 -12.1528 -10.068 11.3941 9.26292 19.8566 16.1807 -5.99176 z" style="fill:#f0eaac;stroke:#000000;stroke-width:0.3" /><path id="clipregion-38" d="m 25.5192 -24.0292 1.13465 -6.98031 -20.7724 -12.3889 -9.36655 4.50047 -4.81937 13.5656 23.6004 7.91667 z" style="fill:#e7a311;stroke:#000000;stroke-width:0.3" /></g></g><g id="region-rounded" inkscape:label="Region Rounded" inkscape:groupmode="layer"><g id="rounded"><path id="roundedregion-0" d="m 16.1715 68.0099 c -0.35 -0.606218 -0.79713 -0.907425 -1.49043 -1.00402 l -18.5185 -2.58022 c -0.693303 -0.0965994 -1.17061 0.101871 -1.59101 0.661568 l -6.17111 8.2158 11.5995 6.69697 17.3205 -10 z" style="fill:#f0eaac;stroke:#000000;stroke-width:0.3" /><path id="roundedregion-1" d="m 59.9121 25.4703 c -0.694914 -0.084232 -1.24465 0.0425782 -1.83245 0.422701 l -8.75002 5.65854 c -0.587798 0.380122 -0.977731 0.809398 -1.29978 1.43092 l -2.32742 4.49175 c -0.322044 0.62152 -0.310063 1.14769 0.0399368 1.75391 l 6.21914 10.7719 17.3205 -10 0 -13.3939 z" style="fill:#f0eaac;stroke:#000000;stroke-width:0.3" /><path id="roundedregion-2" d="m 56.3118 -35.6808 c -0.25375 0.652389 -0.200348 1.18439 0.178007 1.77332 l 2.42435 3.77367 c 0.378355 0.588937 0.838915 0.872209 1.5352 0.944238 l 8.8327 0.913727 0 -11.7241 -9.21984 -5.32308 z" style="fill:#f0ce76;stroke:#000000;stroke-width:0.3" /><path id="roundedregion-3" d="m -3.73623 -66.779 c 0.451117 0.535251 0.942569 0.798215 1.63817 0.876547 l 5.01147 0.564343 c 0.695603 0.0783321 1.10886 -0.165123 1.37751 -0.811518 l 3.81207 -9.17207 -8.10299 -4.67826 -10.0088 5.77857 z" style="fill:#e7a311;stroke:#000000;stroke-width:0.3" /><path id="roundedregion-4" d="m -55.626 -32.4247 c 0.69412 -0.0905374 1.0433 -0.424852 1.16392 -1.11438 l 0.773802 -4.42341 c 0.120622 -0.689529 -0.0210192 -1.21443 -0.472136 -1.74969 l -5.11285 -6.0664 -10.0088 5.77857 0 9.35652 z" style="fill:#e7a311;stroke:#000000;stroke-width:0.3" /><path id="roundedregion-5" d="m -56.7675 42.6011 c 0.410521 -0.566985 0.42325 -1.0617 0.0424279 -1.64904 l -7.43284 -11.4637 c -0.380822 -0.587345 -0.840543 -0.793448 -1.5324 -0.687008 l -3.59168 0.552567 0 10.6462 10.1534 5.86207 z" style="fill:#f0ce76;stroke:#000000;stroke-width:0.3" /><path id="roundedregion-6" d="m 45.7424 39.2281 c -0.35 -0.606218 -0.798068 -0.83203 -1.49356 -0.752709 l -19.3804 2.21035 c -0.695491 0.0793216 -1.08275 0.399751 -1.29086 1.0681 l -7.60875 24.4352 c -0.208113 0.668348 -0.147304 1.21459 0.202696 1.82081 l 1.14898 1.99009 34.641 -20 z" style="fill:#f0eaac;stroke:#000000;stroke-width:0.3" /><path id="roundedregion-7" d="m 64.116 -0.574673 c -0.688417 0.126814 -1.03191 0.477224 -1.14496 1.16803 l -3.89012 23.7697 c -0.113057 0.69081 0.13631 1.02297 0.831224 1.1072 l 9.36992 1.13575 0 -28.1324 z" style="fill:#f0eaac;stroke:#000000;stroke-width:0.3" /><path id="roundedregion-8" d="m 60.4493 -29.1896 c -0.696284 -0.0720294 -1.10045 0.177841 -1.34722 0.832902 l -7.3535 19.5201 c -0.246771 0.65506 -0.0998087 1.09745 0.489874 1.47465 l 10.0516 6.42958 c 0.589682 0.377193 1.13744 0.484499 1.82586 0.357685 l 5.16606 -0.951643 0 -26.7495 z" style="fill:#f0eaac;stroke:#000000;stroke-width:0.3" /><path id="roundedregion-9" d="m 33.9092 -46.4332 c -0.429549 0.552709 -0.621798 1.08947 -0.640829 1.78921 l -0.132032 4.8547 c -0.0190307 0.699741 0.268226 1.05189 0.957521 1.17384 l 20.8707 3.69241 c 0.689296 0.121949 1.09346 -0.105382 1.34721 -0.757771 l 3.75041 -9.64226 -18.6483 -10.7666 z" style="fill:#f0ce76;stroke:#000000;stroke-width:0.3" /><path id="roundedregion-10" d="m 19.5405 -61.4816 c -0.428699 0.553369 -0.405253 1.0075 0.0781523 1.51378 l 12.9864 13.6009 c 0.483405 0.50628 0.874671 0.486382 1.30422 -0.0663273 l 7.50471 -9.65645 -17.9998 -10.3922 z" style="fill:#e7a311;stroke:#000000;stroke-width:0.3" /><path id="roundedregion-11" d="m 4.29092 -66.1497 c -0.268652 0.646395 -0.167287 1.13109 0.337885 1.61565 l 3.24924 3.11669 c 0.505172 0.484563 1.02167 0.693222 1.72167 0.69553 l 8.32833 0.0274536 c 0.699996 0.00230748 1.18372 -0.233862 1.61242 -0.787231 l 3.87372 -5.00024 -15.3112 -8.83992 z" style="fill:#f0ce76;stroke:#000000;stroke-width:0.3" /><path id="roundedregion-12" d="m -23.033 -53.016 c 0.206946 0.66871 0.595358 0.942376 1.29471 0.912219 l 4.51998 -0.194909 c 0.69935 -0.0301571 1.20685 -0.259484 1.69165 -0.764424 l 11.7423 -12.23 c 0.484805 -0.50494 0.499243 -0.950736 0.0481256 -1.48599 l -6.27255 -7.44239 -16.6176 9.59416 z" style="fill:#e7a311;stroke:#000000;stroke-width:0.3" /><path id="roundedregion-13" d="m -40.6233 -48.8055 c 0.206946 0.66871 0.592528 0.998381 1.28527 1.0989 l 9.05825 1.31441 c 0.692745 0.100522 1.21407 -0.0554633 1.73776 -0.519951 l 5.05657 -4.48494 c 0.52369 -0.464488 0.659437 -0.950144 0.452491 -1.61885 l -3.59335 -11.6113 -16.0293 9.25455 z" style="fill:#f0ce76;stroke:#000000;stroke-width:0.3" /><path id="roundedregion-14" d="m -54.1604 -39.7122 c 0.451117 0.535251 0.893102 0.596794 1.47328 0.205143 l 11.5306 -7.78371 c 0.580181 -0.39165 0.740139 -0.846091 0.533193 -1.5148 l -2.03235 -6.56719 -16.6176 9.59416 z" style="fill:#e7a311;stroke:#000000;stroke-width:0.3" /><path id="roundedregion-15" d="m -58.5148 -11.4954 c 0.693581 0.0945792 1.22794 -0.0486784 1.78119 -0.477525 l 3.86029 -2.99225 c 0.553254 -0.428847 0.85689 -0.905169 1.01212 -1.58774 l 1.27963 -5.62682 c 0.155228 -0.682572 0.0975615 -1.24819 -0.192222 -1.88539 l -3.44658 -7.57865 c -0.289783 -0.637201 -0.711456 -0.871486 -1.40558 -0.780949 l -13.656 1.78122 0 17.6798 z" style="fill:#f0ce76;stroke:#000000;stroke-width:0.3" /><path id="roundedregion-16" d="m -62.9569 8.69312 c 0.693435 0.0956462 1.05509 -0.156355 1.2055 -0.840003 l 4.01248 -18.2368 c 0.150417 -0.683648 -0.0823669 -1.01717 -0.775948 -1.11175 l -10.7672 -1.46825 0 20.7843 z" style="fill:#e7a311;stroke:#000000;stroke-width:0.3" /><path id="roundedregion-17" d="m -65.6903 28.8013 c 0.69186 -0.10644 1.12139 -0.420954 1.43177 -1.04838 l 6.29861 -12.7324 c 0.310382 -0.627426 0.250384 -1.12598 -0.199992 -1.66186 l -3.16291 -3.76334 c -0.450377 -0.535874 -0.940582 -0.806525 -1.63402 -0.902171 l -6.32515 -0.872435 0 21.5332 z" style="fill:#f0ce76;stroke:#000000;stroke-width:0.3" /><path id="roundedregion-18" d="m -33.9858 53.6731 c 0.234385 -0.659594 0.226489 -1.22203 -0.0263176 -1.87478 l -4.09511 -10.5737 c -0.252807 -0.652755 -0.660084 -0.907209 -1.35759 -0.84818 l -15.7198 1.33033 c -0.697507 0.0590283 -1.17238 0.32732 -1.5829 0.894305 l -2.3611 3.26099 23.1658 13.3748 z" style="fill:#f0eaac;stroke:#000000;stroke-width:0.3" /><path id="roundedregion-19" d="m -5.42838 65.0872 c 0.420404 -0.559697 0.459382 -1.06426 0.129927 -1.68189 l -4.87378 -9.13681 c -0.329455 -0.617624 -0.770528 -0.890862 -1.47024 -0.910794 l -21.0089 -0.598458 c -0.699716 -0.0199321 -1.10005 0.254209 -1.33443 0.913802 l -1.97706 5.56375 24.3634 14.0662 z" style="fill:#f0eaac;stroke:#000000;stroke-width:0.3" /><path id="roundedregion-20" d="m 22.8871 8.90597 c -0.680054 0.165913 -1.11018 0.503041 -1.43377 1.12376 l -7.96749 15.2837 c -0.323586 0.620719 -0.406813 1.18157 -0.277425 1.86951 l 0.852782 4.53411 c 0.129388 0.687938 0.414421 1.17588 0.95011 1.62648 l 8.09826 6.81188 c 0.535689 0.450597 1.06334 0.609715 1.75883 0.530393 l 19.3804 -2.21035 c 0.695491 -0.0793216 1.13158 -0.379682 1.45362 -1.0012 l 2.32742 -4.49175 c 0.322044 -0.62152 0.327064 -1.15679 0.0167335 -1.78424 l -12.104 -24.4729 c -0.310331 -0.627451 -0.734781 -0.825253 -1.41483 -0.65934 z" style="fill:#f0eaac;stroke:#000000;stroke-width:0.3" /><path id="roundedregion-21" d="m -5.41195 40.2679 c -0.653261 0.251496 -1.02899 0.643585 -1.25244 1.30696 l -3.65928 10.8637 c -0.223449 0.663378 -0.178018 1.21238 0.151437 1.83 l 4.87378 9.13681 c 0.329455 0.617624 0.76778 0.92372 1.46108 1.02032 l 18.5185 2.58022 c 0.693303 0.0965994 1.07962 -0.148436 1.28774 -0.816784 l 7.60875 -24.4352 c 0.208113 -0.668348 0.0677234 -1.1479 -0.467966 -1.59849 l -8.09826 -6.81188 c -0.535689 -0.450597 -1.04524 -0.535925 -1.6985 -0.284429 z" style="fill:#f0eaac;stroke:#000000;stroke-width:0.3" /><path id="roundedregion-22" d="m 35.9756 4.94973 c -0.333439 0.615482 -0.343342 1.14817 -0.0330112 1.77562 l 12.104 24.4729 c 0.310331 0.627451 0.695243 0.733449 1.28304 0.353327 l 8.75002 -5.65854 c 0.587798 -0.380122 0.888165 -0.839093 1.00122 -1.5299 l 3.89012 -23.7697 c 0.113057 -0.69081 -0.0912112 -1.14853 -0.680893 -1.52572 l -10.0516 -6.42958 c -0.589682 -0.377193 -1.14025 -0.502972 -1.83523 -0.419261 l -7.06356 0.850812 c -0.694977 0.0837105 -1.13573 0.383365 -1.46916 0.998847 z" style="fill:#f0eaac;stroke:#000000;stroke-width:0.3" /><path id="roundedregion-23" d="m -20.5183 26.8337 c -0.501648 -0.488211 -0.986022 -0.565411 -1.61458 -0.257334 l -12.5063 6.12972 c -0.628561 0.308077 -1.0118 0.717666 -1.27746 1.3653 l -2.17225 5.29558 c -0.265658 0.647631 -0.271166 1.20494 -0.018359 1.85769 l 4.09511 10.5737 c 0.252807 0.652755 0.661031 0.941049 1.36075 0.960981 l 21.0089 0.598458 c 0.699716 0.0199321 1.09536 -0.255831 1.31881 -0.919209 l 3.65928 -10.8637 c 0.223449 -0.663378 0.104221 -1.15692 -0.397427 -1.64513 z" style="fill:#f0eaac;stroke:#000000;stroke-width:0.3" /><path id="roundedregion-24" d="m 19.6186 -59.9678 c -0.483405 -0.50628 -0.990577 -0.724246 -1.69057 -0.726553 l -8.32833 -0.0274536 c -0.699996 -0.00230748 -1.04649 0.293078 -1.15498 0.98462 l -2.40832 15.3509 c -0.108492 0.691541 0.102666 1.14158 0.703861 1.50014 l 19.0547 11.3644 c 0.601195 0.358559 1.05041 0.28135 1.49739 -0.257363 l 5.17825 -6.24103 c 0.446977 -0.538713 0.646694 -1.06948 0.665725 -1.76922 l 0.132032 -4.8547 c 0.0190307 -0.699741 -0.179987 -1.21661 -0.663392 -1.72289 z" style="fill:#e7a311;stroke:#000000;stroke-width:0.3" /><path id="roundedregion-25" d="m -39.4648 40.3764 c 0.697507 -0.0590283 1.11029 -0.361882 1.37595 -1.00951 l 2.17225 -5.29558 c 0.265658 -0.647631 0.207549 -1.17101 -0.193699 -1.74459 l -11.5935 -16.573 c -0.401248 -0.573585 -0.872064 -0.845612 -1.56939 -0.906756 l -7.24715 -0.635458 c -0.697324 -0.0611441 -1.1292 0.181548 -1.43958 0.808974 l -6.29861 12.7324 c -0.310382 0.627426 -0.280194 1.14804 0.100628 1.73539 l 7.43284 11.4637 c 0.380822 0.587345 0.842963 0.813767 1.54047 0.754739 z" style="fill:#f0eaac;stroke:#000000;stroke-width:0.3" /><path id="roundedregion-26" d="m -19.2862 20.8505 c 0.242145 -0.656784 0.219095 -1.21014 -0.0768328 -1.84451 l -8.41741 -18.0441 c -0.295928 -0.634371 -0.721665 -0.880706 -1.41912 -0.821117 l -4.46298 0.381305 c -0.697459 0.0595891 -1.20305 0.302571 -1.68532 0.809939 l -12.2403 12.8775 c -0.482263 0.507369 -0.516983 0.970635 -0.115735 1.54422 l 11.5935 16.573 c 0.401248 0.573585 0.842594 0.687375 1.47115 0.379297 l 12.5063 -6.12972 c 0.628561 -0.308077 1.00172 -0.721589 1.24387 -1.37837 z" style="fill:#f0ce76;stroke:#000000;stroke-width:0.3" /><path id="roundedregion-27" d="m -61.7514 7.85312 c -0.150417 0.683648 -0.0218635 1.2063 0.428513 1.74217 l 3.16291 3.76334 c 0.450377 0.535874 0.942249 0.791739 1.63957 0.852883 l 7.24715 0.635458 c 0.697324 0.0611441 1.20286 -0.130095 1.68512 -0.637463 l 12.2403 -12.8775 c 0.482263 -0.507369 0.469143 -0.928985 -0.0437323 -1.40539 l -15.9588 -14.8239 c -0.512875 -0.476402 -0.969788 -0.496783 -1.52304 -0.067936 l -3.86029 2.99225 c -0.553254 0.428847 -0.854828 0.905631 -1.00525 1.58928 z" style="fill:#f0ce76;stroke:#000000;stroke-width:0.3" /><path id="roundedregion-28" d="m 34.0939 -38.6155 c -0.689296 -0.121949 -1.17627 0.0566643 -1.62325 0.595378 l -5.17825 6.24103 c -0.446977 0.538713 -0.686671 1.0657 -0.798982 1.75664 l -0.81376 5.00622 c -0.112311 0.690931 0.0492399 1.2016 0.538502 1.70222 l 15.4298 15.788 c 0.489263 0.500622 0.996794 0.679298 1.69177 0.595587 l 7.06356 -0.850812 c 0.694977 -0.0837105 1.09858 -0.400327 1.34535 -1.05539 l 7.3535 -19.5201 c 0.246771 -0.65506 0.190377 -1.1882 -0.187978 -1.77714 l -2.42435 -3.77367 c -0.378355 -0.588937 -0.83592 -0.893603 -1.52522 -1.01555 z" style="fill:#f0ce76;stroke:#000000;stroke-width:0.3" /><path id="roundedregion-29" d="m 16.1355 -17.9588 c -0.587741 0.380211 -0.93107 0.828884 -1.14443 1.49557 l -3.55289 11.1017 c -0.213361 0.666691 -0.118021 1.18718 0.317801 1.73495 l 9.53708 11.987 c 0.435822 0.547777 0.914054 0.711433 1.59411 0.54552 l 11.6406 -2.83996 c 0.680054 -0.165913 1.11441 -0.500797 1.44785 -1.11628 l 5.89495 -10.8813 c 0.333439 -0.615482 0.266657 -1.09381 -0.222606 -1.59443 l -15.4298 -15.788 c -0.489263 -0.500622 -0.950836 -0.552226 -1.53858 -0.172015 z" style="fill:#f0ce76;stroke:#000000;stroke-width:0.3" /><path id="roundedregion-30" d="m -49.3658 -23.264 c -0.695817 0.0764105 -1.06055 0.401689 -1.21578 1.08426 l -1.27963 5.62682 c -0.155228 0.682572 -0.00195068 1.17927 0.510924 1.65568 l 15.9588 14.8239 c 0.512875 0.476402 1.03159 0.655036 1.72905 0.595447 l 4.46298 -0.381305 c 0.697459 -0.0595891 1.19502 -0.309938 1.65852 -0.834496 l 8.74368 -9.89536 c 0.463507 -0.524558 0.686428 -1.04839 0.743071 -1.74609 l 0.533199 -6.56778 c 0.0566425 -0.697705 -0.152835 -1.18476 -0.698259 -1.62353 l -5.95613 -4.79138 c -0.545423 -0.438763 -1.07738 -0.594057 -1.7732 -0.517647 z" style="fill:#f0ce76;stroke:#000000;stroke-width:0.3" /><path id="roundedregion-31" d="m 14.991 -16.4632 c 0.213361 -0.666691 0.0203774 -1.04783 -0.643279 -1.27045 l -21.7042 -7.28061 c -0.663656 -0.222622 -1.20593 -0.164695 -1.80759 0.193089 l -7.41662 4.4104 c -0.601657 0.357784 -0.883785 0.810136 -0.940427 1.50784 l -0.533199 6.56778 c -0.0566425 0.697705 0.162366 1.17226 0.730027 1.58184 l 15.2212 10.9825 c 0.567662 0.409585 1.0875 0.468863 1.7328 0.197592 l 10.5818 -4.44836 c 0.6453 -0.271271 1.0133 -0.673255 1.22666 -1.33995 z" style="fill:#f0ce76;stroke:#000000;stroke-width:0.3" /><path id="roundedregion-32" d="m 11.756 -3.62654 c -0.435822 -0.547777 -0.89916 -0.666279 -1.54446 -0.395008 l -10.5818 4.44836 c -0.6453 0.271271 -0.955237 0.685667 -1.03312 1.38132 l -1.24487 11.1186 c -0.0778873 0.695653 0.12551 1.17801 0.677991 1.60785 l 14.2046 11.0515 c 0.552481 0.429843 0.927938 0.348039 1.25152 -0.272681 l 7.96749 -15.2837 c 0.323586 -0.620719 0.275485 -1.1215 -0.160337 -1.66928 z" style="fill:#f0eaac;stroke:#000000;stroke-width:0.3" /><path id="roundedregion-33" d="m -1.97026 14.5346 c -0.552481 -0.429843 -1.07059 -0.509884 -1.72703 -0.266803 l -14.3052 5.29725 c -0.656439 0.243081 -1.04155 0.628737 -1.28369 1.28552 l -1.60282 4.34743 c -0.242145 0.656784 -0.13093 1.1475 0.370718 1.63571 l 13.4565 13.096 c 0.501648 0.488211 0.996608 0.58966 1.64987 0.338164 l 18.7248 -7.20879 c 0.653261 -0.251496 0.877778 -0.654111 0.748389 -1.34205 l -0.852782 -4.53411 c -0.129388 -0.687938 -0.421618 -1.16699 -0.974099 -1.59683 z" style="fill:#f0ce76;stroke:#000000;stroke-width:0.3" /><path id="roundedregion-34" d="m -2.09806 -65.9025 c -0.695603 -0.0783321 -1.20149 0.1045 -1.6863 0.609439 l -11.7423 12.23 c -0.484805 0.50494 -0.486274 0.939146 -0.00489619 1.44735 l 11.3587 11.9918 c 0.481378 0.508208 0.958088 0.596086 1.58904 0.292927 l 7.56385 -3.6343 c 0.630947 -0.30316 0.94785 -0.72946 1.05634 -1.421 l 2.40832 -15.3509 c 0.108492 -0.691541 -0.0615131 -1.19559 -0.566685 -1.68015 l -3.24924 -3.11669 c -0.505172 -0.484563 -1.01979 -0.725804 -1.71539 -0.804136 z" style="fill:#e7a311;stroke:#000000;stroke-width:0.3" /><path id="roundedregion-35" d="m -39.3381 -47.7066 c -0.692745 -0.100522 -1.23828 0.0242472 -1.81847 0.415898 l -11.5306 7.78371 c -0.580181 0.39165 -0.880525 0.855013 -1.00115 1.54454 l -0.773802 4.42341 c -0.120622 0.689529 -0.0481238 1.25813 0.241659 1.89533 l 3.44658 7.57865 c 0.289783 0.637201 0.712183 0.87754 1.408 0.80113 l 23.4172 -2.57153 c 0.695817 -0.0764105 0.931377 -0.402544 0.7852 -1.08711 l -3.9179 -18.348 c -0.146177 -0.684567 -0.505715 -1.02103 -1.19846 -1.12156 z" style="fill:#e7a311;stroke:#000000;stroke-width:0.3" /><path id="roundedregion-36" d="m -25.1635 -26.9226 c 0.146177 0.684567 0.442577 1.16599 0.988001 1.60476 l 5.95613 4.79138 c 0.545423 0.438763 1.03703 0.473469 1.63869 0.115685 l 7.41662 -4.4104 c 0.601657 -0.357784 0.959939 -0.79381 1.19428 -1.45342 l 4.14984 -11.681 c 0.234336 -0.659611 0.128462 -1.1601 -0.352916 -1.66831 l -11.3587 -11.9918 c -0.481378 -0.508208 -0.987404 -0.713087 -1.68675 -0.68293 l -4.51998 0.194909 c -0.69935 0.0301571 -1.22351 0.242148 -1.7472 0.706636 l -5.05657 4.48494 c -0.52369 0.464488 -0.685481 0.95694 -0.539304 1.64151 z" style="fill:#f0ce76;stroke:#000000;stroke-width:0.3" /><path id="roundedregion-37" d="m -1.40338 1.80813 c 0.0778873 -0.695653 -0.132016 -1.16933 -0.699678 -1.57891 l -15.2212 -10.9825 c -0.567662 -0.409585 -1.00959 -0.360311 -1.4731 0.164247 l -8.74368 9.89536 c -0.463507 0.524558 -0.535326 1.02124 -0.239399 1.65561 l 8.41741 18.0441 c 0.295928 0.634371 0.704085 0.802067 1.36052 0.558986 l 14.3052 -5.29725 c 0.656439 -0.243081 0.97115 -0.645395 1.04904 -1.34105 z" style="fill:#f0eaac;stroke:#000000;stroke-width:0.3" /><path id="roundedregion-38" d="m 24.6796 -23.486 c 0.587741 -0.380211 0.887763 -0.839272 1.00007 -1.5302 l 0.81376 -5.00622 c 0.112311 -0.690931 -0.0972109 -1.14071 -0.698406 -1.49927 l -19.0547 -11.3644 c -0.601195 -0.358559 -1.12926 -0.382302 -1.7602 -0.079142 l -7.56385 3.6343 c -0.630947 0.30316 -1.00178 0.715776 -1.23612 1.37539 l -4.14984 11.681 c -0.234336 0.659611 -0.0503423 1.03771 0.613314 1.26033 l 21.7042 7.28061 c 0.663656 0.222622 1.19997 0.155083 1.78771 -0.225128 z" style="fill:#e7a311;stroke:#000000;stroke-width:0.3" /></g></g><g id="region" inkscape:label="Region" inkscape:groupmode="layer" style="display:none"><path id="region-0" d="m 15.6715 67.1439 -20.4993 -2.85622 -12.8961 17.1689 10.7957 14.5434 19.245 0 8.3395 -20.2222 z" style="fill:#ffffff;stroke:#000000;stroke-width:0.3" /><path id="region-1" d="m 55.2973 55.7778 -10.0549 -17.4157 3.24755 -6.26752 10.4294 -6.7446 21.6076 2.6191 6.07556 14.0309 -9.6225 16.6667 z" style="fill:#ffffff;stroke:#000000;stroke-width:0.3" /><path id="region-2" d="m 64.3608 -56.3748 16.9301 5.17479 5.31162 9.2 -6.43054 14.8507 -20.7174 -2.14318 -3.50536 -5.45635 z" style="fill:#ffffff;stroke:#000000;stroke-width:0.3" /><path id="region-3" d="m -17.5071 -83.1182 14.4154 17.1038 6.9989 0.788149 9.15803 -22.0348 -9.37011 -8.73897 -7.39008 0 z" style="fill:#ffffff;stroke:#000000;stroke-width:0.3" /><path id="region-4" d="m -54.6344 -32.554 -26.7187 3.48504 -3.63292 -15.731 3.69504 -6.4 13.8742 -4.24075 13.9007 16.4932 z" style="fill:#ffffff;stroke:#000000;stroke-width:0.3" /><path id="region-5" d="m -56.1811 41.7911 -8.5209 -13.1419 -17.1639 2.64061 -3.12004 13.5102 5.31162 9.2 13.5229 1.56149 z" style="fill:#ffffff;stroke:#000000;stroke-width:0.3" /><path id="region-6" d="m 15.6715 67.1439 8.20336 -26.3448 21.3675 -2.43699 10.0549 17.4157 -10.5848 21.6667 -24.0563 -1.66667 z" style="fill:#ffffff;stroke:#000000;stroke-width:0.3" /><path id="region-7" d="m 63.1325 -0.39351 -4.21314 25.7435 21.6076 2.6191 8.20611 -13.9691 -9.61904 -17.3375 z" style="fill:#ffffff;stroke:#000000;stroke-width:0.3" /><path id="region-8" d="m 59.4546 -29.2925 -8.05856 21.3917 11.7364 7.50727 15.9815 -2.94397 5.94864 -10.6625 -4.89069 -13.1493 z" style="fill:#ffffff;stroke:#000000;stroke-width:0.3" /><path id="region-9" d="m 48.0605 -64.6419 13.0394 3.61384 3.26098 4.65324 -8.41154 21.6259 -22.8401 -4.04083 0.186406 -6.85396 z" style="fill:#ffffff;stroke:#000000;stroke-width:0.3" /><path id="region-10" d="m 48.0605 -64.6419 -14.7649 18.9982 -14.3675 -15.0474 12.4723 -16.0994 11.1561 3.08048 z" style="fill:#ffffff;stroke:#000000;stroke-width:0.3" /><path id="region-11" d="m 31.4004 -76.7905 -7.39753 -9.58364 -10.9377 -0.886914 -9.15803 22.0348 4.69259 4.50115 10.3283 0.0340464 z" style="fill:#ffffff;stroke:#000000;stroke-width:0.3" /><path id="region-12" d="m -17.5071 -83.1182 14.4154 17.1038 -13.1275 13.6727 -6.51813 0.281072 -7.32641 -23.674 8.08627 -7.13143 z" style="fill:#ffffff;stroke:#000000;stroke-width:0.3" /><path id="region-13" d="m -40.3277 -47.8502 -6.46073 -20.8768 4.08761 -5.233 12.6371 -1.77471 7.32641 23.674 -6.55283 5.81204 z" style="fill:#ffffff;stroke:#000000;stroke-width:0.3" /><path id="region-14" d="m -40.3277 -47.8502 -6.46073 -20.8768 -16.2593 4.32505 -4.3689 8.9612 13.9007 16.4932 z" style="fill:#ffffff;stroke:#000000;stroke-width:0.3" /><path id="region-15" d="m -50.3599 -23.1548 -1.72314 7.57702 -5.44101 4.21752 -23.7945 -3.2447 -2.69215 -7.79503 2.65761 -6.669 26.7187 -3.48504 z" style="fill:#ffffff;stroke:#000000;stroke-width:0.3" /><path id="region-16" d="m -57.524 -11.3603 -23.7945 -3.2447 -3.79448 14.605 3.34491 6.09848 19.8018 2.73128 z" style="fill:#ffffff;stroke:#000000;stroke-width:0.3" /><path id="region-17" d="m -61.9663 8.82976 4.4497 5.29441 -7.18542 14.5251 -17.1639 2.64061 -5.22231 -8.88983 5.32016 -16.3015 z" style="fill:#ffffff;stroke:#000000;stroke-width:0.3" /><path id="region-18" d="m -33.6509 52.7308 -5.49566 15.4656 -17.0053 1.06156 -9.9995 -13.6965 9.97035 -13.7704 17.7127 -1.49898 z" style="fill:#ffffff;stroke:#000000;stroke-width:0.3" /><path id="region-19" d="m -33.6509 52.7308 23.0081 0.655407 5.81508 10.9014 -12.8961 17.1689 -12.5048 -1.09901 -8.91793 -12.1612 z" style="fill:#ffffff;stroke:#000000;stroke-width:0.3" /><path id="region-20" d="m 21.9156 9.14299 -8.89202 17.0572 1.22246 6.49965 9.6288 8.0993 21.3675 -2.43699 3.24755 -6.26752 -12.9907 -26.2656 z" style="fill:#ffffff;stroke:#000000;stroke-width:0.3" /><path id="region-21" d="m 14.2461 32.6998 9.6288 8.0993 -8.20336 26.3448 -20.4993 -2.85622 -5.81508 -10.9014 4.29771 -12.7591 z" style="fill:#ffffff;stroke:#000000;stroke-width:0.3" /><path id="region-22" d="m 42.3469 -6.8108 9.04921 -1.08998 11.7364 7.50727 -4.21314 25.7435 -10.4294 6.7446 -12.9907 -26.2656 z" style="fill:#ffffff;stroke:#000000;stroke-width:0.3" /><path id="region-23" d="m -21.2349 26.1362 -14.3022 7.00994 -2.93127 7.14595 4.81742 12.4387 23.0081 0.655407 4.29771 -12.7591 z" style="fill:#ffffff;stroke:#000000;stroke-width:0.3" /><path id="region-24" d="m 33.2956 -45.6436 -0.186406 6.85396 -6.45533 7.78021 -20.7724 -12.3889 2.7183 -17.3267 10.3283 0.0340464 z" style="fill:#ffffff;stroke:#000000;stroke-width:0.3" /><path id="region-25" d="m -38.4684 40.2921 2.93127 -7.14595 -12.74 -18.2118 -9.2395 -0.810155 -7.18542 14.5251 8.5209 13.1419 z" style="fill:#ffffff;stroke:#000000;stroke-width:0.3" /><path id="region-26" d="m -21.2349 26.1362 -14.3022 7.00994 -12.74 -18.2118 13.6182 -14.3271 6.45572 -0.551559 9.26292 19.8566 z" style="fill:#ffffff;stroke:#000000;stroke-width:0.3" /><path id="region-27" d="m -57.524 -11.3603 5.44101 -4.21752 17.4241 16.185 -13.6182 14.3271 -9.2395 -0.810155 -4.4497 -5.29441 z" style="fill:#ffffff;stroke:#000000;stroke-width:0.3" /><path id="region-28" d="m 55.9493 -34.7488 3.50536 5.45635 -8.05856 21.3917 -9.04921 1.08998 -16.8277 -17.2184 1.13465 -6.98031 6.45533 -7.78021 z" style="fill:#ffffff;stroke:#000000;stroke-width:0.3" /><path id="region-29" d="m 25.5192 -24.0292 16.8277 17.2184 -6.84763 12.6398 -13.5836 3.314 -10.7823 -13.5521 4.16249 -13.0066 z" style="fill:#ffffff;stroke:#000000;stroke-width:0.3" /><path id="region-30" d="m -24.9546 -25.9447 7.51449 6.04499 -0.695035 8.56122 -10.068 11.3941 -6.45572 0.551559 -17.4241 -16.185 1.72314 -7.57702 z" style="fill:#ffffff;stroke:#000000;stroke-width:0.3" /><path id="region-31" d="m 15.2958 -17.4156 -23.6004 -7.91667 -9.13564 5.43264 -0.695035 8.56122 16.8431 12.1528 12.4255 -5.22342 z" style="fill:#ffffff;stroke:#000000;stroke-width:0.3" /><path id="region-32" d="m 11.1334 -4.40908 -12.4255 5.22342 -1.4674 13.1062 15.7831 12.2796 8.89202 -17.0572 z" style="fill:#ffffff;stroke:#000000;stroke-width:0.3" /><path id="region-33" d="m 13.0236 26.2001 1.22246 6.49965 -20.5913 7.92735 -14.8897 -14.4909 2.29466 -6.22396 16.1807 -5.99176 z" style="fill:#ffffff;stroke:#000000;stroke-width:0.3" /><path id="region-34" d="m -3.09177 -66.0144 -13.1275 13.6727 12.7341 13.4438 9.36655 -4.50047 2.7183 -17.3267 -4.69259 -4.50115 z" style="fill:#ffffff;stroke:#000000;stroke-width:0.3" /><path id="region-35" d="m -40.3277 -47.8502 -13.1883 8.90271 -1.11843 6.39349 4.27453 9.39922 25.4052 -2.78985 -4.33555 -20.304 z" style="fill:#ffffff;stroke:#000000;stroke-width:0.3" /><path id="region-36" d="m -29.2902 -46.2486 6.55283 -5.81204 6.51813 -0.281072 12.7341 13.4438 -4.81937 13.5656 -9.13564 5.43264 -7.51449 -6.04499 z" style="fill:#ffffff;stroke:#000000;stroke-width:0.3" /><path id="region-37" d="m -1.29211 0.814338 -16.8431 -12.1528 -10.068 11.3941 9.26292 19.8566 16.1807 -5.99176 z" style="fill:#ffffff;stroke:#000000;stroke-width:0.3" /><path id="region-38" d="m 25.5192 -24.0292 1.13465 -6.98031 -20.7724 -12.3889 -9.36655 4.50047 -4.81937 13.5656 23.6004 7.91667 z" style="fill:#ffffff;stroke:#000000;stroke-width:0.3" /></g><g id="seeds" inkscape:label="Seeds" inkscape:groupmode="layer" style="display:none"><circle id="seed-0" cx="0.0" cy="80.0" r="1.0" style="fill:#000000;stroke:none;stroke-width:0" /><circle id="seed-1" cx="69.28203230275508" cy="40.0" r="1.0" style="fill:#000000;stroke:none;stroke-width:0" /><circle id="seed-2" cx="69.28203230275508" cy="-40.0" r="1.0" style="fill:#000000;stroke:none;stroke-width:0" /><circle id="seed-3" cx="0.0" cy="-80.0" r="1.0" style="fill:#000000;stroke:none;stroke-width:0" /><circle id="seed-4" cx="-69.28203230275508" cy="-40.0" r="1.0" style="fill:#000000;stroke:none;stroke-width:0" /><circle id="seed-5" cx="-69.28203230275508" cy="40.0" r="1.0" style="fill:#000000;stroke:none;stroke-width:0" /><circle id="seed-6" cx="34.64101615137754" cy="60.0" r="1.0" style="fill:#000000;stroke:none;stroke-width:0" /><circle id="seed-7" cx="72.48203230275509" cy="13.599999999999998" r="1.0" style="fill:#000000;stroke:none;stroke-width:0" /><circle id="seed-8" cx="66.88203230275508" cy="-16.799999999999997" r="1.0" style="fill:#000000;stroke:none;stroke-width:0" /><circle id="seed-9" cx="49.66870390403876" cy="-47.628718707889796" r="1.0" style="fill:#000000;stroke:none;stroke-width:0" /><circle id="seed-10" cx="31.176914536239785" cy="-62.0" r="1.0" style="fill:#000000;stroke:none;stroke-width:0" /><circle id="seed-11" cx="17.13486742963367" cy="-72.87846096908265" r="1.0" style="fill:#000000;stroke:none;stroke-width:0" /><circle id="seed-12" cx="-17.398969044771427" cy="-65.33589838486225" r="1.0" style="fill:#000000;stroke:none;stroke-width:0" /><circle id="seed-13" cx="-34.64101615137754" cy="-60.0" r="1.0" style="fill:#000000;stroke:none;stroke-width:0" /><circle id="seed-14" cx="-51.88306325798366" cy="-54.66410161513776" r="1.0" style="fill:#000000;stroke:none;stroke-width:0" /><circle id="seed-15" cx="-66.88203230275508" cy="-21.6" r="1.0" style="fill:#000000;stroke:none;stroke-width:0" /><circle id="seed-16" cx="-69.28203230275508" cy="-4.0" r="1.0" style="fill:#000000;stroke:none;stroke-width:0" /><circle id="seed-17" cx="-72.48203230275509" cy="19.200000000000003" r="1.0" style="fill:#000000;stroke:none;stroke-width:0" /><circle id="seed-18" cx="-50.390242934956106" cy="53.67846096908266" r="1.0" style="fill:#000000;stroke:none;stroke-width:0" /><circle id="seed-19" cx="-21.263070659909182" cy="64.0287187078898" r="1.0" style="fill:#000000;stroke:none;stroke-width:0" /><circle id="seed-20" cx="30.04099595283646" cy="19.667035047518972" r="1.0" style="fill:#000000;stroke:none;stroke-width:0" /><circle id="seed-21" cx="4.111205278429249" cy="50.49349619312032" r="1.0" style="fill:#000000;stroke:none;stroke-width:0" /><circle id="seed-22" cx="49.80993875695248" cy="9.889520898060482" r="1.0" style="fill:#000000;stroke:none;stroke-width:0" /><circle id="seed-23" cx="-20.64001718113544" cy="42.156419750645696" r="1.0" style="fill:#000000;stroke:none;stroke-width:0" /><circle id="seed-24" cx="17.054557753663158" cy="-48.51571980128162" r="1.0" style="fill:#000000;stroke:none;stroke-width:0" /><circle id="seed-25" cx="-52.47029095758259" cy="29.09963478156721" r="1.0" style="fill:#000000;stroke:none;stroke-width:0" /><circle id="seed-26" cx="-33.53266170531633" cy="15.851944844651648" r="1.0" style="fill:#000000;stroke:none;stroke-width:0" /><circle id="seed-27" cx="-49.941119481038214" cy="0.25542270667538514" r="1.0" style="fill:#000000;stroke:none;stroke-width:0" /><circle id="seed-28" cx="45.63088080433295" cy="-24.80561591256502" r="1.0" style="fill:#000000;stroke:none;stroke-width:0" /><circle id="seed-29" cx="24.28143394455274" cy="-3.9405886877884595" r="1.0" style="fill:#000000;stroke:none;stroke-width:0" /><circle id="seed-30" cx="-36.13504718096737" cy="-14.607631090249532" r="1.0" style="fill:#000000;stroke:none;stroke-width:0" /><circle id="seed-31" cx="0.15629676413500618" cy="-11.66135162649193" r="1.0" style="fill:#000000;stroke:none;stroke-width:0" /><circle id="seed-32" cx="8.635067062492892" cy="8.507960413861575" r="1.0" style="fill:#000000;stroke:none;stroke-width:0" /><circle id="seed-33" cx="-5.204473084358257" cy="26.29605206964757" r="1.0" style="fill:#000000;stroke:none;stroke-width:0" /><circle id="seed-34" cx="-3.1878365028471114" cy="-51.69144399684123" r="1.0" style="fill:#000000;stroke:none;stroke-width:0" /><circle id="seed-35" cx="-38.32887090285959" cy="-34.58525960283224" r="1.0" style="fill:#000000;stroke:none;stroke-width:0" /><circle id="seed-36" cx="-16.27601069997745" cy="-39.29425321194481" r="1.0" style="fill:#000000;stroke:none;stroke-width:0" /><circle id="seed-37" cx="-12.674956803411842" cy="6.122029540839253" r="1.0" style="fill:#000000;stroke:none;stroke-width:0" /><circle id="seed-38" cx="6.68888998691294" cy="-31.13563376801407" r="1.0" style="fill:#000000;stroke:none;stroke-width:0" /></g><g id="region_ids" inkscape:label="Region Ids" inkscape:groupmode="layer" style="display:none" transform="scale(1,-1)"><text id="text2172" x="-1.4" y="-80.0" style="font-style:normal;font-weight:normal;font-size:4px;font-family:sans-serif;fill:#000000;fill-opacity:1;stroke:none"><tspan x="-1.4" y="-80.0">0</tspan></text><text id="text2173" x="67.88203230275508" y="-40.0" style="font-style:normal;font-weight:normal;font-size:4px;font-family:sans-serif;fill:#000000;fill-opacity:1;stroke:none"><tspan x="67.88203230275508" y="-40.0">1</tspan></text><text id="text2174" x="67.88203230275508" y="40.0" style="font-style:normal;font-weight:normal;font-size:4px;font-family:sans-serif;fill:#000000;fill-opacity:1;stroke:none"><tspan x="67.88203230275508" y="40.0">2</tspan></text><text id="text2175" x="-1.4" y="80.0" style="font-style:normal;font-weight:normal;font-size:4px;font-family:sans-serif;fill:#000000;fill-opacity:1;stroke:none"><tspan x="-1.4" y="80.0">3</tspan></text><text id="text2176" x="-70.68203230275509" y="40.0" style="font-style:normal;font-weight:normal;font-size:4px;font-family:sans-serif;fill:#000000;fill-opacity:1;stroke:none"><tspan x="-70.68203230275509" y="40.0">4</tspan></text><text id="text2177" x="-70.68203230275509" y="-40.0" style="font-style:normal;font-weight:normal;font-size:4px;font-family:sans-serif;fill:#000000;fill-opacity:1;stroke:none"><tspan x="-70.68203230275509" y="-40.0">5</tspan></text><text id="text2178" x="33.24101615137754" y="-60.0" style="font-style:normal;font-weight:normal;font-size:4px;font-family:sans-serif;fill:#000000;fill-opacity:1;stroke:none"><tspan x="33.24101615137754" y="-60.0">6</tspan></text><text id="text2179" x="71.08203230275508" y="-13.599999999999998" style="font-style:normal;font-weight:normal;font-size:4px;font-family:sans-serif;fill:#000000;fill-opacity:1;stroke:none"><tspan x="71.08203230275508" y="-13.599999999999998">7</tspan></text><text id="text2180" x="65.48203230275507" y="16.799999999999997" style="font-style:normal;font-weight:normal;font-size:4px;font-family:sans-serif;fill:#000000;fill-opacity:1;stroke:none"><tspan x="65.48203230275507" y="16.799999999999997">8</tspan></text><text id="text2181" x="48.26870390403876" y="47.628718707889796" style="font-style:normal;font-weight:normal;font-size:4px;font-family:sans-serif;fill:#000000;fill-opacity:1;stroke:none"><tspan x="48.26870390403876" y="47.628718707889796">9</tspan></text><text id="text2182" x="29.776914536239786" y="62.0" style="font-style:normal;font-weight:normal;font-size:4px;font-family:sans-serif;fill:#000000;fill-opacity:1;stroke:none"><tspan x="29.776914536239786" y="62.0">10</tspan></text><text id="text2183" x="15.734867429633669" y="72.87846096908265" style="font-style:normal;font-weight:normal;font-size:4px;font-family:sans-serif;fill:#000000;fill-opacity:1;stroke:none"><tspan x="15.734867429633669" y="72.87846096908265">11</tspan></text><text id="text2184" x="-18.798969044771425" y="65.33589838486225" style="font-style:normal;font-weight:normal;font-size:4px;font-family:sans-serif;fill:#000000;fill-opacity:1;stroke:none"><tspan x="-18.798969044771425" y="65.33589838486225">12</tspan></text><text id="text2185" x="-36.04101615137754" y="60.0" style="font-style:normal;font-weight:normal;font-size:4px;font-family:sans-serif;fill:#000000;fill-opacity:1;stroke:none"><tspan x="-36.04101615137754" y="60.0">13</tspan></text><text id="text2186" x="-53.283063257983656" y="54.66410161513776" style="font-style:normal;font-weight:normal;font-size:4px;font-family:sans-serif;fill:#000000;fill-opacity:1;stroke:none"><tspan x="-53.283063257983656" y="54.66410161513776">14</tspan></text><text id="text2187" x="-68.28203230275508" y="21.6" style="font-style:normal;font-weight:normal;font-size:4px;font-family:sans-serif;fill:#000000;fill-opacity:1;stroke:none"><tspan x="-68.28203230275508" y="21.6">15</tspan></text><text id="text2188" x="-70.68203230275509" y="4.0" style="font-style:normal;font-weight:normal;font-size:4px;font-family:sans-serif;fill:#000000;fill-opacity:1;stroke:none"><tspan x="-70.68203230275509" y="4.0">16</tspan></text><text id="text2189" x="-73.88203230275509" y="-19.200000000000003" style="font-style:normal;font-weight:normal;font-size:4px;font-family:sans-serif;fill:#000000;fill-opacity:1;stroke:none"><tspan x="-73.88203230275509" y="-19.200000000000003">17</tspan></text><text id="text2190" x="-51.790242934956105" y="-53.67846096908266" style="font-style:normal;font-weight:normal;font-size:4px;font-family:sans-serif;fill:#000000;fill-opacity:1;stroke:none"><tspan x="-51.790242934956105" y="-53.67846096908266">18</tspan></text><text id="text2191" x="-22.66307065990918" y="-64.0287187078898" style="font-style:normal;font-weight:normal;font-size:4px;font-family:sans-serif;fill:#000000;fill-opacity:1;stroke:none"><tspan x="-22.66307065990918" y="-64.0287187078898">19</tspan></text><text id="text2192" x="28.640995952836462" y="-19.667035047518972" style="font-style:normal;font-weight:normal;font-size:4px;font-family:sans-serif;fill:#000000;fill-opacity:1;stroke:none"><tspan x="28.640995952836462" y="-19.667035047518972">20</tspan></text><text id="text2193" x="2.7112052784292495" y="-50.49349619312032" style="font-style:normal;font-weight:normal;font-size:4px;font-family:sans-serif;fill:#000000;fill-opacity:1;stroke:none"><tspan x="2.7112052784292495" y="-50.49349619312032">21</tspan></text><text id="text2194" x="48.40993875695248" y="-9.889520898060482" style="font-style:normal;font-weight:normal;font-size:4px;font-family:sans-serif;fill:#000000;fill-opacity:1;stroke:none"><tspan x="48.40993875695248" y="-9.889520898060482">22</tspan></text><text id="text2195" x="-22.04001718113544" y="-42.156419750645696" style="font-style:normal;font-weight:normal;font-size:4px;font-family:sans-serif;fill:#000000;fill-opacity:1;stroke:none"><tspan x="-22.04001718113544" y="-42.156419750645696">23</tspan></text><text id="text2196" x="15.654557753663157" y="48.51571980128162" style="font-style:normal;font-weight:normal;font-size:4px;font-family:sans-serif;fill:#000000;fill-opacity:1;stroke:none"><tspan x="15.654557753663157" y="48.51571980128162">24</tspan></text><text id="text2197" x="-53.87029095758259" y="-29.09963478156721" style="font-style:normal;font-weight:normal;font-size:4px;font-family:sans-serif;fill:#000000;fill-opacity:1;stroke:none"><tspan x="-53.87029095758259" y="-29.09963478156721">25</tspan></text><text id="text2198" x="-34.93266170531633" y="-15.851944844651648" style="font-style:normal;font-weight:normal;font-size:4px;font-family:sans-serif;fill:#000000;fill-opacity:1;stroke:none"><tspan x="-34.93266170531633" y="-15.851944844651648">26</tspan></text><text id="text2199" x="-51.34111948103821" y="-0.25542270667538514" style="font-style:normal;font-weight:normal;font-size:4px;font-family:sans-serif;fill:#000000;fill-opacity:1;stroke:none"><tspan x="-51.34111948103821" y="-0.25542270667538514">27</tspan></text><text id="text2200" x="44.230880804332955" y="24.80561591256502" style="font-style:normal;font-weight:normal;font-size:4px;font-family:sans-serif;fill:#000000;fill-opacity:1;stroke:none"><tspan x="44.230880804332955" y="24.80561591256502">28</tspan></text><text id="text2201" x="22.881433944552743" y="3.9405886877884595" style="font-style:normal;font-weight:normal;font-size:4px;font-family:sans-serif;fill:#000000;fill-opacity:1;stroke:none"><tspan x="22.881433944552743" y="3.9405886877884595">29</tspan></text><text id="text2202" x="-37.53504718096737" y="14.607631090249532" style="font-style:normal;font-weight:normal;font-size:4px;font-family:sans-serif;fill:#000000;fill-opacity:1;stroke:none"><tspan x="-37.53504718096737" y="14.607631090249532">30</tspan></text><text id="text2203" x="-1.2437032358649938" y="11.66135162649193" style="font-style:normal;font-weight:normal;font-size:4px;font-family:sans-serif;fill:#000000;fill-opacity:1;stroke:none"><tspan x="-1.2437032358649938" y="11.66135162649193">31</tspan></text><text id="text2204" x="7.235067062492892" y="-8.507960413861575" style="font-style:normal;font-weight:normal;font-size:4px;font-family:sans-serif;fill:#000000;fill-opacity:1;stroke:none"><tspan x="7.235067062492892" y="-8.507960413861575">32</tspan></text><text id="text2205" x="-6.604473084358258" y="-26.29605206964757" style="font-style:normal;font-weight:normal;font-size:4px;font-family:sans-serif;fill:#000000;fill-opacity:1;stroke:none"><tspan x="-6.604473084358258" y="-26.29605206964757">33</tspan></text><text id="text2206" x="-4.587836502847111" y="51.69144399684123" style="font-style:normal;font-weight:normal;font-size:4px;font-family:sans-serif;fill:#000000;fill-opacity:1;stroke:none"><tspan x="-4.587836502847111" y="51.69144399684123">34</tspan></text><text id="text2207" x="-39.72887090285959" y="34.58525960283224" style="font-style:normal;font-weight:normal;font-size:4px;font-family:sans-serif;fill:#000000;fill-opacity:1;stroke:none"><tspan x="-39.72887090285959" y="34.58525960283224">35</tspan></text><text id="text2208" x="-17.67601069997745" y="39.29425321194481" style="font-style:normal;font-weight:normal;font-size:4px;font-family:sans-serif;fill:#000000;fill-opacity:1;stroke:none"><tspan x="-17.67601069997745" y="39.29425321194481">36</tspan></text><text id="text2209" x="-14.074956803411842" y="-6.122029540839253" style="font-style:normal;font-weight:normal;font-size:4px;font-family:sans-serif;fill:#000000;fill-opacity:1;stroke:none"><tspan x="-14.074956803411842" y="-6.122029540839253">37</tspan></text><text id="text2210" x="5.28888998691294" y="31.13563376801407" style="font-style:normal;font-weight:normal;font-size:4px;font-family:sans-serif;fill:#000000;fill-opacity:1;stroke:none"><tspan x="5.28888998691294" y="31.13563376801407">38</tspan></text></g><g id="seed_exclusion" inkscape:label="Seed Exclusion" inkscape:groupmode="layer" style="display:none"><circle id="seed-ex-0" cx="0.0" cy="80.0" r="24.0" style="fill:#800000;stroke:none;stroke-width:0;fill-opacity:0.15" /><circle id="seed-ex-1" cx="69.28203230275508" cy="40.0" r="24.0" style="fill:#800000;stroke:none;stroke-width:0;fill-opacity:0.15" /><circle id="seed-ex-2" cx="69.28203230275508" cy="-40.0" r="19.2" style="fill:#800000;stroke:none;stroke-width:0;fill-opacity:0.15" /><circle id="seed-ex-3" cx="0.0" cy="-80.0" r="16.0" style="fill:#800000;stroke:none;stroke-width:0;fill-opacity:0.15" /><circle id="seed-ex-4" cx="-69.28203230275508" cy="-40.0" r="16.0" style="fill:#800000;stroke:none;stroke-width:0;fill-opacity:0.15" /><circle id="seed-ex-5" cx="-69.28203230275508" cy="40.0" r="19.2" style="fill:#800000;stroke:none;stroke-width:0;fill-opacity:0.15" /><circle id="seed-ex-6" cx="34.64101615137754" cy="60.0" r="24.0" style="fill:#800000;stroke:none;stroke-width:0;fill-opacity:0.15" /><circle id="seed-ex-7" cx="72.48203230275509" cy="13.599999999999998" r="22.50221764019898" style="fill:#800000;stroke:none;stroke-width:0;fill-opacity:0.15" /><circle id="seed-ex-8" cx="66.88203230275508" cy="-16.799999999999997" r="20.527336769850766" style="fill:#800000;stroke:none;stroke-width:0;fill-opacity:0.15" /><circle id="seed-ex-9" cx="49.66870390403876" cy="-47.628718707889796" r="18.466534445941697" style="fill:#800000;stroke:none;stroke-width:0;fill-opacity:0.15" /><circle id="seed-ex-10" cx="31.176914536239785" cy="-62.0" r="17.44" style="fill:#800000;stroke:none;stroke-width:0;fill-opacity:0.15" /><circle id="seed-ex-11" cx="17.13486742963367" cy="-72.87846096908265" r="16.662099165543726" style="fill:#800000;stroke:none;stroke-width:0;fill-opacity:0.15" /><circle id="seed-ex-12" cx="-17.398969044771427" cy="-65.33589838486225" r="16.21554410049746" style="fill:#800000;stroke:none;stroke-width:0;fill-opacity:0.15" /><circle id="seed-ex-13" cx="-34.64101615137754" cy="-60.0" r="16.0" style="fill:#800000;stroke:none;stroke-width:0;fill-opacity:0.15" /><circle id="seed-ex-14" cx="-51.88306325798366" cy="-54.66410161513776" r="15.78445589950254" style="fill:#800000;stroke:none;stroke-width:0;fill-opacity:0.15" /><circle id="seed-ex-15" cx="-66.88203230275508" cy="-21.6" r="16.809900834456275" style="fill:#800000;stroke:none;stroke-width:0;fill-opacity:0.15" /><circle id="seed-ex-16" cx="-69.28203230275508" cy="-4.0" r="17.439999999999998" style="fill:#800000;stroke:none;stroke-width:0;fill-opacity:0.15" /><circle id="seed-ex-17" cx="-72.48203230275509" cy="19.200000000000003" r="18.269465554058304" style="fill:#800000;stroke:none;stroke-width:0;fill-opacity:0.15" /><circle id="seed-ex-18" cx="-50.390242934956106" cy="53.67846096908266" r="20.65666323014924" style="fill:#800000;stroke:none;stroke-width:0;fill-opacity:0.15" /><circle id="seed-ex-19" cx="-21.263070659909182" cy="64.0287187078898" r="22.329782359801015" style="fill:#800000;stroke:none;stroke-width:0;fill-opacity:0.15" /><circle id="seed-ex-20" cx="30.04099595283646" cy="19.667035047518972" r="21.707264647872726" style="fill:#800000;stroke:none;stroke-width:0;fill-opacity:0.15" /><circle id="seed-ex-21" cx="4.111205278429249" cy="50.49349619312032" r="22.55291208892348" style="fill:#800000;stroke:none;stroke-width:0;fill-opacity:0.15" /><circle id="seed-ex-22" cx="49.80993875695248" cy="9.889520898060482" r="21.66873439286708" style="fill:#800000;stroke:none;stroke-width:0;fill-opacity:0.15" /><circle id="seed-ex-23" cx="-20.64001718113544" cy="42.156419750645696" r="21.1872410883273" style="fill:#800000;stroke:none;stroke-width:0;fill-opacity:0.15" /><circle id="seed-ex-24" cx="17.054557753663158" cy="-48.51571980128162" r="17.797481526273106" style="fill:#800000;stroke:none;stroke-width:0;fill-opacity:0.15" /><circle id="seed-ex-25" cx="-52.47029095758259" cy="29.09963478156721" r="19.28165277212571" style="fill:#800000;stroke:none;stroke-width:0;fill-opacity:0.15" /><circle id="seed-ex-26" cx="-33.53266170531633" cy="15.851944844651648" r="19.33487292646825" style="fill:#800000;stroke:none;stroke-width:0;fill-opacity:0.15" /><circle id="seed-ex-27" cx="-49.941119481038214" cy="0.25542270667538514" r="18.205762573546554" style="fill:#800000;stroke:none;stroke-width:0;fill-opacity:0.15" /><circle id="seed-ex-28" cx="45.63088080433295" cy="-24.80561591256502" r="19.47442977331403" style="fill:#800000;stroke:none;stroke-width:0;fill-opacity:0.15" /><circle id="seed-ex-29" cx="24.28143394455274" cy="-3.9405886877884595" r="20.151112991861915" style="fill:#800000;stroke:none;stroke-width:0;fill-opacity:0.15" /><circle id="seed-ex-30" cx="-36.13504718096737" cy="-14.607631090249532" r="18.036357198144078" style="fill:#800000;stroke:none;stroke-width:0;fill-opacity:0.15" /><circle id="seed-ex-31" cx="0.15629676413500618" cy="-11.66135162649193" r="19.19214485672527" style="fill:#800000;stroke:none;stroke-width:0;fill-opacity:0.15" /><circle id="seed-ex-32" cx="8.635067062492892" cy="8.507960413861575" r="20.452982331032658" style="fill:#800000;stroke:none;stroke-width:0;fill-opacity:0.15" /><circle id="seed-ex-33" cx="-5.204473084358257" cy="26.29605206964757" r="20.935469181298245" style="fill:#800000;stroke:none;stroke-width:0;fill-opacity:0.15" /><circle id="seed-ex-34" cx="-3.1878365028471114" cy="-51.69144399684123" r="17.23517602787168" style="fill:#800000;stroke:none;stroke-width:0;fill-opacity:0.15" /><circle id="seed-ex-35" cx="-38.32887090285959" cy="-34.58525960283224" r="17.08665930163781" style="fill:#800000;stroke:none;stroke-width:0;fill-opacity:0.15" /><circle id="seed-ex-36" cx="-16.27601069997745" cy="-39.29425321194481" r="17.461076756024198" style="fill:#800000;stroke:none;stroke-width:0;fill-opacity:0.15" /><circle id="seed-ex-37" cx="-12.674956803411842" cy="6.122029540839253" r="19.587927063104676" style="fill:#800000;stroke:none;stroke-width:0;fill-opacity:0.15" /><circle id="seed-ex-38" cx="6.68888998691294" cy="-31.13563376801407" r="18.40906483864348" style="fill:#800000;stroke:none;stroke-width:0;fill-opacity:0.15" /></g><g id="margin_exclusion" inkscape:label="Margin Exclusion" inkscape:groupmode="layer" style="display:none"><circle id="circle2211" cx="17.32050807568877" cy="70.0" r="22.0" style="fill:#000080;stroke:none;stroke-width:0;fill-opacity:0.15" /><circle id="circle2212" cx="51.96152422706631" cy="50.0" r="22.0" style="fill:#000080;stroke:none;stroke-width:0;fill-opacity:0.15" /><circle id="circle2213" cx="69.28203230275508" cy="26.606060606060602" r="14.626277721963305" style="fill:#000080;stroke:none;stroke-width:0;fill-opacity:0.15" /><circle id="circle2214" cx="69.28203230275508" cy="-1.526315789473685" r="17.00131759599826" style="fill:#000080;stroke:none;stroke-width:0;fill-opacity:0.15" /><circle id="circle2215" cx="69.28203230275508" cy="-28.275862068965523" r="12.828094168659662" style="fill:#000080;stroke:none;stroke-width:0;fill-opacity:0.15" /><circle id="circle2216" cx="60.06219261938844" cy="-45.323076923076925" r="11.574592865409999" style="fill:#000080;stroke:none;stroke-width:0;fill-opacity:0.15" /><circle id="circle2217" cx="41.41393206787101" cy="-56.0896551724138" r="12.880807428107913" style="fill:#000080;stroke:none;stroke-width:0;fill-opacity:0.15" /><circle id="circle2218" cx="23.414177735044724" cy="-66.48181818181818" r="9.769585456916786" style="fill:#000080;stroke:none;stroke-width:0;fill-opacity:0.15" /><circle id="circle2219" cx="8.10298551714832" cy="-75.32173913043478" r="10.205723884174018" style="fill:#000080;stroke:none;stroke-width:0;fill-opacity:0.15" /><circle id="circle2220" cx="-10.008779309451583" cy="-74.22142857142858" r="12.514887134928546" style="fill:#000080;stroke:none;stroke-width:0;fill-opacity:0.15" /><circle id="circle2221" cx="-26.62634468726338" cy="-64.62727272727273" r="9.926852471957059" style="fill:#000080;stroke:none;stroke-width:0;fill-opacity:0.15" /><circle id="circle2222" cx="-42.655687615491715" cy="-55.372727272727275" r="9.926852471957057" style="fill:#000080;stroke:none;stroke-width:0;fill-opacity:0.15" /><circle id="circle2223" cx="-59.273252993303494" cy="-45.77857142857143" r="12.514887134928548" style="fill:#000080;stroke:none;stroke-width:0;fill-opacity:0.15" /><circle id="circle2224" cx="-69.28203230275508" cy="-30.643478260869564" r="10.205723884174018" style="fill:#000080;stroke:none;stroke-width:0;fill-opacity:0.15" /><circle id="circle2225" cx="-69.28203230275508" cy="-12.963636363636365" r="9.76958545691679" style="fill:#000080;stroke:none;stroke-width:0;fill-opacity:0.15" /><circle id="circle2226" cx="-69.28203230275508" cy="7.8206896551724085" r="12.880807428107914" style="fill:#000080;stroke:none;stroke-width:0;fill-opacity:0.15" /><circle id="circle2227" cx="-69.28203230275508" cy="29.353846153846163" r="11.574592865409997" style="fill:#000080;stroke:none;stroke-width:0;fill-opacity:0.15" /><circle id="circle2228" cx="-59.12863101700649" cy="45.862068965517246" r="12.828094168659664" style="fill:#000080;stroke:none;stroke-width:0;fill-opacity:0.15" /><circle id="circle2229" cx="-35.962844399259055" cy="59.23684210526316" r="17.001317595998252" style="fill:#000080;stroke:none;stroke-width:0;fill-opacity:0.15" /><circle id="circle2230" cx="-11.59949177190066" cy="73.30303030303031" r="14.626277721963305" style="fill:#000080;stroke:none;stroke-width:0;fill-opacity:0.15" /></g><g id="circles" inkscape:label="Inscribed Circles" inkscape:groupmode="layer" style="display:none"><circle id="incircle-0" cx="0.0" cy="80.0" r="13.296616110875732" style="fill:#008000;stroke:none;stroke-width:0;fill-opacity:0.15" /><circle id="incircle-ctr-0" cx="0.0" cy="80.0" r="0.5" style="fill:#000000;stroke:none;stroke-width:0" /><circle id="incircle-1" cx="69.28203230275508" cy="40.0" r="13.296616110875734" style="fill:#008000;stroke:none;stroke-width:0;fill-opacity:0.15" /><circle id="incircle-ctr-1" cx="69.28203230275508" cy="40.0" r="0.5" style="fill:#000000;stroke:none;stroke-width:0" /><circle id="incircle-2" cx="69.28203230275508" cy="-40.0" r="10.522357150372736" style="fill:#008000;stroke:none;stroke-width:0;fill-opacity:0.15" /><circle id="incircle-ctr-2" cx="69.28203230275508" cy="-40.0" r="0.5" style="fill:#000000;stroke:none;stroke-width:0" /><circle id="incircle-3" cx="0.0" cy="-80.0" r="9.277930803794565" style="fill:#008000;stroke:none;stroke-width:0;fill-opacity:0.15" /><circle id="incircle-ctr-3" cx="0.0" cy="-80.0" r="0.5" style="fill:#000000;stroke:none;stroke-width:0" /><circle id="incircle-4" cx="-69.28203230275508" cy="-40.0" r="9.277930803794563" style="fill:#008000;stroke:none;stroke-width:0;fill-opacity:0.15" /><circle id="incircle-ctr-4" cx="-69.28203230275508" cy="-40.0" r="0.5" style="fill:#000000;stroke:none;stroke-width:0" /><circle id="incircle-5" cx="-69.28203230275508" cy="40.0" r="10.018141156823976" style="fill:#008000;stroke:none;stroke-width:0;fill-opacity:0.15" /><circle id="incircle-ctr-5" cx="-69.28203230275508" cy="40.0" r="0.5" style="fill:#000000;stroke:none;stroke-width:0" /><circle id="incircle-6" cx="34.64101615137754" cy="60.0" r="15.987831048708658" style="fill:#008000;stroke:none;stroke-width:0;fill-opacity:0.15" /><circle id="incircle-ctr-6" cx="34.64101615137754" cy="60.0" r="0.5" style="fill:#000000;stroke:none;stroke-width:0" /><circle id="incircle-7" cx="69.28203230275508" cy="12.539872408293459" r="8.1576478853575" style="fill:#008000;stroke:none;stroke-width:0;fill-opacity:0.15" /><circle id="incircle-ctr-7" cx="69.28203230275508" cy="12.539872408293459" r="0.5" style="fill:#000000;stroke:none;stroke-width:0" /><circle id="incircle-8" cx="69.28203230275508" cy="-14.9010889292196" r="13.153463290938609" style="fill:#008000;stroke:none;stroke-width:0;fill-opacity:0.15" /><circle id="incircle-ctr-8" cx="69.28203230275508" cy="-14.9010889292196" r="0.5" style="fill:#000000;stroke:none;stroke-width:0" /><circle id="incircle-9" cx="50.73806234362972" cy="-50.70636604774536" r="10.641381222185295" style="fill:#008000;stroke:none;stroke-width:0;fill-opacity:0.15" /><circle id="incircle-ctr-9" cx="50.73806234362972" cy="-50.70636604774536" r="0.5" style="fill:#000000;stroke:none;stroke-width:0" /><circle id="incircle-10" cx="32.41405490145787" cy="-61.28573667711599" r="10.164542234573783" style="fill:#008000;stroke:none;stroke-width:0;fill-opacity:0.15" /><circle id="incircle-ctr-10" cx="32.41405490145787" cy="-61.28573667711599" r="0.5" style="fill:#000000;stroke:none;stroke-width:0" /><circle id="incircle-11" cx="15.758581626096518" cy="-70.90177865612648" r="8.7588603590161" style="fill:#008000;stroke:none;stroke-width:0;fill-opacity:0.15" /><circle id="incircle-ctr-11" cx="15.758581626096518" cy="-70.90177865612648" r="0.5" style="fill:#000000;stroke:none;stroke-width:0" /><circle id="incircle-12" cx="-18.317561998357483" cy="-69.42435064935066" r="9.355576587220016" style="fill:#008000;stroke:none;stroke-width:0;fill-opacity:0.15" /><circle id="incircle-ctr-12" cx="-18.317561998357483" cy="-69.42435064935066" r="0.5" style="fill:#000000;stroke:none;stroke-width:0" /><circle id="incircle-13" cx="-34.64101615137755" cy="-60.0" r="9.02441133814278" style="fill:#008000;stroke:none;stroke-width:0;fill-opacity:0.15" /><circle id="incircle-ctr-13" cx="-34.64101615137755" cy="-60.0" r="0.5" style="fill:#000000;stroke:none;stroke-width:0" /><circle id="incircle-14" cx="-50.96447030439761" cy="-50.57564935064936" r="8.21017693746815" style="fill:#008000;stroke:none;stroke-width:0;fill-opacity:0.15" /><circle id="incircle-ctr-14" cx="-50.96447030439761" cy="-50.57564935064936" r="0.5" style="fill:#000000;stroke:none;stroke-width:0" /><circle id="incircle-15" cx="-69.28203230275508" cy="-21.803557312252963" r="8.7588603590161" style="fill:#008000;stroke:none;stroke-width:0;fill-opacity:0.15" /><circle id="incircle-ctr-15" cx="-69.28203230275508" cy="-21.803557312252963" r="0.5" style="fill:#000000;stroke:none;stroke-width:0" /><circle id="incircle-16" cx="-69.28203230275508" cy="-2.571473354231978" r="9.594796791291046" style="fill:#008000;stroke:none;stroke-width:0;fill-opacity:0.15" /><circle id="incircle-ctr-16" cx="-69.28203230275508" cy="-2.571473354231978" r="0.5" style="fill:#000000;stroke:none;stroke-width:0" /><circle id="incircle-17" cx="-69.28203230275508" cy="18.587267904509282" r="8.566705032658774" style="fill:#008000;stroke:none;stroke-width:0;fill-opacity:0.15" /><circle id="incircle-ctr-17" cx="-69.28203230275508" cy="18.587267904509282" r="0.5" style="fill:#000000;stroke:none;stroke-width:0" /><circle id="incircle-18" cx="-47.545737708132776" cy="52.5494555353902" r="11.448224176414222" style="fill:#008000;stroke:none;stroke-width:0;fill-opacity:0.15" /><circle id="incircle-ctr-18" cx="-47.545737708132776" cy="52.5494555353902" r="0.5" style="fill:#000000;stroke:none;stroke-width:0" /><circle id="incircle-19" cx="-23.78116808557986" cy="66.26993620414673" r="13.252595722249499" style="fill:#008000;stroke:none;stroke-width:0;fill-opacity:0.15" /><circle id="incircle-ctr-19" cx="-23.78116808557986" cy="66.26993620414673" r="0.5" style="fill:#000000;stroke:none;stroke-width:0" /><circle id="incircle-20" cx="29.32563191126316" cy="26.043115224659235" r="14.043269186558035" style="fill:#008000;stroke:none;stroke-width:0;fill-opacity:0.15" /><circle id="incircle-ctr-20" cx="29.32563191126316" cy="26.043115224659235" r="0.5" style="fill:#000000;stroke:none;stroke-width:0" /><circle id="incircle-21" cx="5.482593432342844" cy="51.14928069650125" r="14.069067002800963" style="fill:#008000;stroke:none;stroke-width:0;fill-opacity:0.15" /><circle id="incircle-ctr-21" cx="5.482593432342844" cy="51.14928069650125" r="0.5" style="fill:#000000;stroke:none;stroke-width:0" /><circle id="incircle-22" cx="49.80750801092216" cy="6.278266929997585" r="12.07250804714442" style="fill:#008000;stroke:none;stroke-width:0;fill-opacity:0.15" /><circle id="incircle-ctr-22" cx="49.80750801092216" cy="6.278266929997585" r="0.5" style="fill:#000000;stroke:none;stroke-width:0" /><circle id="incircle-23" cx="-23.48786851238209" cy="40.875982416380914" r="12.134400095055222" style="fill:#008000;stroke:none;stroke-width:0;fill-opacity:0.15" /><circle id="incircle-ctr-23" cx="-23.48786851238209" cy="40.875982416380914" r="0.5" style="fill:#000000;stroke:none;stroke-width:0" /><circle id="incircle-24" cx="16.958554959477954" cy="-47.79485788038229" r="9.449944316125931" style="fill:#008000;stroke:none;stroke-width:0;fill-opacity:0.15" /><circle id="incircle-ctr-24" cx="16.958554959477954" cy="-47.79485788038229" r="0.5" style="fill:#000000;stroke:none;stroke-width:0" /><circle id="incircle-25" cx="-52.22360267941452" cy="27.890631543856358" r="10.660529028933793" style="fill:#008000;stroke:none;stroke-width:0;fill-opacity:0.15" /><circle id="incircle-ctr-25" cx="-52.22360267941452" cy="27.890631543856358" r="0.5" style="fill:#000000;stroke:none;stroke-width:0" /><circle id="incircle-26" cx="-33.416603421247245" cy="16.128730463284178" r="11.492123861648741" style="fill:#008000;stroke:none;stroke-width:0;fill-opacity:0.15" /><circle id="incircle-ctr-26" cx="-33.416603421247245" cy="16.128730463284178" r="0.5" style="fill:#000000;stroke:none;stroke-width:0" /><circle id="incircle-27" cx="-49.506008398284166" cy="1.0266804567067265" r="10.411911892582594" style="fill:#008000;stroke:none;stroke-width:0;fill-opacity:0.15" /><circle id="incircle-ctr-27" cx="-49.506008398284166" cy="1.0266804567067265" r="0.5" style="fill:#000000;stroke:none;stroke-width:0" /><circle id="incircle-28" cx="43.66118676952209" cy="-23.895864998361535" r="12.82775146209789" style="fill:#008000;stroke:none;stroke-width:0;fill-opacity:0.15" /><circle id="incircle-ctr-28" cx="43.66118676952209" cy="-23.895864998361535" r="0.5" style="fill:#000000;stroke:none;stroke-width:0" /><circle id="incircle-29" cx="26.78734179543151" cy="-5.001094926110653" r="12.392656019449095" style="fill:#008000;stroke:none;stroke-width:0;fill-opacity:0.15" /><circle id="incircle-ctr-29" cx="26.78734179543151" cy="-5.001094926110653" r="0.5" style="fill:#000000;stroke:none;stroke-width:0" /><circle id="incircle-30" cx="-32.647554297411595" cy="-13.3835612255948" r="11.619602184531464" style="fill:#008000;stroke:none;stroke-width:0;fill-opacity:0.15" /><circle id="incircle-ctr-30" cx="-32.647554297411595" cy="-13.3835612255948" r="0.5" style="fill:#000000;stroke:none;stroke-width:0" /><circle id="incircle-31" cx="-0.5716199665687327" cy="-11.237762466588105" r="10.19517119888953" style="fill:#008000;stroke:none;stroke-width:0;fill-opacity:0.15" /><circle id="incircle-ctr-31" cx="-0.5716199665687327" cy="-11.237762466588105" r="0.5" style="fill:#000000;stroke:none;stroke-width:0" /><circle id="incircle-32" cx="8.567756002750965" cy="9.758127312712238" r="10.24082485016085" style="fill:#008000;stroke:none;stroke-width:0;fill-opacity:0.15" /><circle id="incircle-ctr-32" cx="8.567756002750965" cy="9.758127312712238" r="0.5" style="fill:#000000;stroke:none;stroke-width:0" /><circle id="incircle-33" cx="-4.445793358840799" cy="26.555098778832274" r="11.00744193793118" style="fill:#008000;stroke:none;stroke-width:0;fill-opacity:0.15" /><circle id="incircle-ctr-33" cx="-4.445793358840799" cy="26.555098778832274" r="0.5" style="fill:#000000;stroke:none;stroke-width:0" /><circle id="incircle-34" cx="-2.6077437753480446" cy="-52.29527407857576" r="9.765499773230715" style="fill:#008000;stroke:none;stroke-width:0;fill-opacity:0.15" /><circle id="incircle-ctr-34" cx="-2.6077437753480446" cy="-52.29527407857576" r="0.5" style="fill:#000000;stroke:none;stroke-width:0" /><circle id="incircle-35" cx="-38.45661786027091" cy="-35.858240795325344" r="10.98620262033745" style="fill:#008000;stroke:none;stroke-width:0;fill-opacity:0.15" /><circle id="incircle-ctr-35" cx="-38.45661786027091" cy="-35.858240795325344" r="0.5" style="fill:#000000;stroke:none;stroke-width:0" /><circle id="incircle-36" cx="-16.065785567636755" cy="-36.4668278626809" r="10.805492930632582" style="fill:#008000;stroke:none;stroke-width:0;fill-opacity:0.15" /><circle id="incircle-ctr-36" cx="-16.065785567636755" cy="-36.4668278626809" r="0.5" style="fill:#000000;stroke:none;stroke-width:0" /><circle id="incircle-37" cx="-13.128679904443652" cy="5.958991536868126" r="11.066836552855879" style="fill:#008000;stroke:none;stroke-width:0;fill-opacity:0.15" /><circle id="incircle-ctr-37" cx="-13.128679904443652" cy="5.958991536868126" r="0.5" style="fill:#000000;stroke:none;stroke-width:0" /><circle id="incircle-38" cx="4.214781452603615" cy="-31.47807854235961" r="9.739547659445483" style="fill:#008000;stroke:none;stroke-width:0;fill-opacity:0.15" /><circle id="incircle-ctr-38" cx="4.214781452603615" cy="-31.47807854235961" r="0.5" style="fill:#000000;stroke:none;stroke-width:0" /></g><g id="annotations" inkscape:label="Annotations" inkscape:groupmode="layer" transform="scale(1,-1)"><text id="text2231" x="-92" y="84.5" style="font-style:normal;font-weight:normal;font-size:4px;font-family:sans-serif;fill:#000000;fill-opacity:1;stroke:none"><tspan x="-92" y="84.5">id: 426</tspan></text><ns0:text xml:space="preserve" style="font-style:normal;font-weight:normal;font-size:4.23333px;line-height:1.25;font-family:sans-serif;text-align:center;text-anchor:middle;fill:#000000;fill-opacity:1;stroke:none;stroke-width:0.264583" x="-1.7974526e-07" y="0" id="tile-id" transform="translate(0 -72)"><ns0:tspan ns1:role="line" id="tspan439" style="font-style:normal;font-variant:normal;font-weight:bold;font-stretch:normal;font-size:4.23333px;font-family:'Arial Black';-inkscape-font-specification:'Arial Black,  Bold';text-align:center;text-anchor:middle;fill:#808080;fill-opacity:1;stroke-width:0.264583" x="-1.4621764e-07" y="0">426</ns0:tspan></ns0:text>
  <text id="text2232" x="-92" y="90.0" style="font-style:normal;font-weight:normal;font-size:4px;font-family:sans-serif;fill:#000000;fill-opacity:1;stroke:none"><tspan x="-92" y="90.0">size: 80</tspan></text><text id="text2233" x="-92" y="95.5" style="font-style:normal;font-weight:normal;font-size:4px;font-family:sans-serif;fill:#000000;fill-opacity:1;stroke:none"><tspan x="-92" y="95.5">rng seed 1070</tspan></text><text id="text2234" x="-92" y="101.0" style="font-style:normal;font-weight:normal;font-size:4px;font-family:sans-serif;fill:#000000;fill-opacity:1;stroke:none"><tspan x="-92" y="101.0">pattern 112332 / llmhhm</tspan></text><text id="text2235" x="-92" y="106.5" style="font-style:normal;font-weight:normal;font-size:4px;font-family:sans-serif;fill:#000000;fill-opacity:1;stroke:none"><tspan x="-92" y="106.5">seed attempts: 20</tspan></text><text id="text2236" x="-92" y="112.0" style="font-style:normal;font-weight:normal;font-size:4px;font-family:sans-serif;fill:#000000;fill-opacity:1;stroke:none"><tspan x="-92" y="112.0">seed distance: l 0.3; m 0.24; h 0.2</tspan></text><text id="text2237" x="-92" y="117.5" style="font-style:normal;font-weight:normal;font-size:4px;font-family:sans-serif;fill:#000000;fill-opacity:1;stroke:none"><tspan x="-92" y="117.5">center: (AVG) 0.247</tspan></text><text id="text2238" x="-92" y="123.0" style="font-style:normal;font-weight:normal;font-size:4px;font-family:sans-serif;fill:#000000;fill-opacity:1;stroke:none"><tspan x="-92" y="123.0">min ridge length: 0.08; at edge: 0.04</tspan></text><text id="text2239" x="-92" y="128.5" style="font-style:normal;font-weight:normal;font-size:4px;font-family:sans-serif;fill:#000000;fill-opacity:1;stroke:none"><tspan x="-92" y="128.5">edge margin exclusion zone scale: 1.1</tspan></text><text id="text2240" x="-92" y="134.0" style="font-style:normal;font-weight:normal;font-size:4px;font-family:sans-serif;fill:#000000;fill-opacity:1;stroke:none"><tspan x="-92" y="134.0">iterations: 53</tspan></text><text id="text2241" x="-92" y="139.5" style="font-style:normal;font-weight:normal;font-size:4px;font-family:sans-serif;fill:#000000;fill-opacity:1;stroke:none"><tspan x="-92" y="139.5">adjustments: side 0.011, neighbor -0.009</tspan></text><text id="text2242" x="-92" y="145.0" style="font-style:normal;font-weight:normal;font-size:4px;font-family:sans-serif;fill:#000000;fill-opacity:1;stroke:none"><tspan x="-92" y="145.0">closeness: 0.9, adjust -0.013</tspan></text><text id="text2243" x="-1.5" y="-82" style="font-style:normal;font-weight:normal;font-size:4px;font-family:sans-serif;fill:#000000;fill-opacity:1;stroke:none"><tspan x="-1.5" y="-82">L</tspan></text><text id="text2244" x="-1.5" y="-82" style="font-style:normal;font-weight:normal;font-size:4px;font-family:sans-serif;fill:#000000;fill-opacity:1;stroke:none" transform="rotate(60)"><tspan x="-1.5" y="-82">L</tspan></text><text id="text2245" x="-1.5" y="-82" style="font-style:normal;font-weight:normal;font-size:4px;font-family:sans-serif;fill:#000000;fill-opacity:1;stroke:none" transform="rotate(120)"><tspan x="-1.5" y="-82">M</tspan></text><text id="text2246" x="-1.5" y="-82" style="font-style:normal;font-weight:normal;font-size:4px;font-family:sans-serif;fill:#000000;fill-opacity:1;stroke:none" transform="rotate(180)"><tspan x="-1.5" y="-82">H</tspan></text><text id="text2247" x="-1.5" y="-82" style="font-style:normal;font-weight:normal;font-size:4px;font-family:sans-serif;fill:#000000;fill-opacity:1;stroke:none" transform="rotate(240)"><tspan x="-1.5" y="-82">H</tspan></text><text id="text2248" x="-1.5" y="-82" style="font-style:normal;font-weight:normal;font-size:4px;font-family:sans-serif;fill:#000000;fill-opacity:1;stroke:none" transform="rotate(300)"><tspan x="-1.5" y="-82">M</tspan></text><g id="node2249" transform="rotate(30)"><text id="text2250" x="-1.5" y="-72.28203230275508" style="font-style:normal;font-weight:normal;font-size:4px;font-family:sans-serif;fill:#000000;fill-opacity:1;stroke:none"><tspan x="-1.5" y="-72.28203230275508">L</tspan></text></g><g id="node2251" transform="rotate(90)"><text id="text2252" x="-15.099999999999998" y="-72.28203230275508" style="font-style:normal;font-weight:normal;font-size:4px;font-family:sans-serif;fill:#000000;fill-opacity:1;stroke:none"><tspan x="-15.099999999999998" y="-72.28203230275508">L</tspan></text><text id="text2253" x="15.299999999999997" y="-72.28203230275508" style="font-style:normal;font-weight:normal;font-size:4px;font-family:sans-serif;fill:#000000;fill-opacity:1;stroke:none"><tspan x="15.299999999999997" y="-72.28203230275508">L</tspan></text></g><g id="node2254" transform="rotate(150)"><text id="text2255" x="-20.7" y="-72.28203230275508" style="font-style:normal;font-weight:normal;font-size:4px;font-family:sans-serif;fill:#000000;fill-opacity:1;stroke:none"><tspan x="-20.7" y="-72.28203230275508">M</tspan></text><text id="text2256" x="2.5" y="-72.28203230275508" style="font-style:normal;font-weight:normal;font-size:4px;font-family:sans-serif;fill:#000000;fill-opacity:1;stroke:none"><tspan x="2.5" y="-72.28203230275508">H</tspan></text><text id="text2257" x="20.1" y="-72.28203230275508" style="font-style:normal;font-weight:normal;font-size:4px;font-family:sans-serif;fill:#000000;fill-opacity:1;stroke:none"><tspan x="20.1" y="-72.28203230275508">M</tspan></text></g><g id="node2258" transform="rotate(210)"><text id="text2259" x="-19.099999999999998" y="-72.28203230275508" style="font-style:normal;font-weight:normal;font-size:4px;font-family:sans-serif;fill:#000000;fill-opacity:1;stroke:none"><tspan x="-19.099999999999998" y="-72.28203230275508">H</tspan></text><text id="text2260" x="-1.5" y="-72.28203230275508" style="font-style:normal;font-weight:normal;font-size:4px;font-family:sans-serif;fill:#000000;fill-opacity:1;stroke:none"><tspan x="-1.5" y="-72.28203230275508">M</tspan></text><text id="text2261" x="16.099999999999994" y="-72.28203230275508" style="font-style:normal;font-weight:normal;font-size:4px;font-family:sans-serif;fill:#000000;fill-opacity:1;stroke:none"><tspan x="16.099999999999994" y="-72.28203230275508">H</tspan></text></g><g id="node2262" transform="rotate(270)"><text id="text2263" x="-23.1" y="-72.28203230275508" style="font-style:normal;font-weight:normal;font-size:4px;font-family:sans-serif;fill:#000000;fill-opacity:1;stroke:none"><tspan x="-23.1" y="-72.28203230275508">M</tspan></text><text id="text2264" x="-5.5" y="-72.28203230275508" style="font-style:normal;font-weight:normal;font-size:4px;font-family:sans-serif;fill:#000000;fill-opacity:1;stroke:none"><tspan x="-5.5" y="-72.28203230275508">H</tspan></text><text id="text2265" x="17.700000000000003" y="-72.28203230275508" style="font-style:normal;font-weight:normal;font-size:4px;font-family:sans-serif;fill:#000000;fill-opacity:1;stroke:none"><tspan x="17.700000000000003" y="-72.28203230275508">M</tspan></text></g><g id="node2266" transform="rotate(330)"><text id="text2267" x="-18.299999999999997" y="-72.28203230275508" style="font-style:normal;font-weight:normal;font-size:4px;font-family:sans-serif;fill:#000000;fill-opacity:1;stroke:none"><tspan x="-18.299999999999997" y="-72.28203230275508">L</tspan></text><text id="text2268" x="12.099999999999994" y="-72.28203230275508" style="font-style:normal;font-weight:normal;font-size:4px;font-family:sans-serif;fill:#000000;fill-opacity:1;stroke:none"><tspan x="12.099999999999994" y="-72.28203230275508">L</tspan></text></g><g id="node2269" transform="rotate(90)"><rect id="rect2270" x="0.10000000000000142" y="-77.28203230275508" width="3" height="8" style="fill:#a2c6ff;stroke:#000000;stroke-width:0.3" /><text id="text2271" x="0.10000000000000142" y="-79.28203230275508" style="font-style:normal;font-weight:normal;font-size:4px;font-family:sans-serif;fill:#000000;fill-opacity:1;stroke:none"><tspan x="0.10000000000000142" y="-79.28203230275508">R</tspan></text></g><g id="node2272" transform="rotate(330)"><rect id="rect2273" x="-3.1000000000000014" y="-77.28203230275508" width="3" height="8" style="fill:#a2c6ff;stroke:#000000;stroke-width:0.3" /><text id="text2274" x="-3.1000000000000014" y="-79.28203230275508" style="font-style:normal;font-weight:normal;font-size:4px;font-family:sans-serif;fill:#000000;fill-opacity:1;stroke:none"><tspan x="-3.1000000000000014" y="-79.28203230275508">R</tspan></text></g><circle id="mana" cx="50" cy="110" r="7.5" style="fill:#000000;stroke:none;stroke-width:0" /><rect id="rect2275" x="75" y="90" width="15" height="6" style="fill:#be850a;stroke:#000000;stroke-width:0.3" /><text id="text2276" x="70" y="94.5" style="font-style:normal;font-weight:normal;font-size:4px;font-family:sans-serif;fill:#000000;fill-opacity:1;stroke:none"><tspan x="70" y="94.5">V</tspan></text><rect id="rect2277" x="75" y="100" width="15" height="6" style="fill:#e7a311;stroke:#000000;stroke-width:0.3" /><text id="text2278" x="70" y="104.5" style="font-style:normal;font-weight:normal;font-size:4px;font-family:sans-serif;fill:#000000;fill-opacity:1;stroke:none"><tspan x="70" y="104.5">H</tspan></text><rect id="rect2279" x="75" y="110" width="15" height="6" style="fill:#f0ce76;stroke:#000000;stroke-width:0.3" /><text id="text2280" x="70" y="114.5" style="font-style:normal;font-weight:normal;font-size:4px;font-family:sans-serif;fill:#000000;fill-opacity:1;stroke:none"><tspan x="70" y="114.5">M</tspan></text><rect id="rect2281" x="75" y="120" width="15" height="6" style="fill:#f0eaac;stroke:#000000;stroke-width:0.3" /><text id="text2282" x="70" y="124.5" style="font-style:normal;font-weight:normal;font-size:4px;font-family:sans-serif;fill:#000000;fill-opacity:1;stroke:none"><tspan x="70" y="124.5">L</tspan></text><rect id="rect2283" x="75" y="130" width="15" height="6" style="fill:#a2c6ff;stroke:#000000;stroke-width:0.3" /><text id="text2284" x="70" y="134.5" style="font-style:normal;font-weight:normal;font-size:4px;font-family:sans-serif;fill:#000000;fill-opacity:1;stroke:none"><tspan x="70" y="134.5">R</tspan></text></g><g id="river-border" inkscape:label="River Border" inkscape:groupmode="layer"><path id="path2285" d="m 45.2424 38.3621 3.24755 -6.26752 z" style="fill:none;stroke:#000000;stroke-width:2.6;stroke-linecap:round;stroke-linejoin:round" /><path id="path2286" d="m 58.9194 25.35 -10.4294 6.7446 z" style="fill:none;stroke:#000000;stroke-width:2.6;stroke-linecap:round;stroke-linejoin:round" /><path id="path2287" d="m 58.9194 25.35 4.21314 -25.7435 z" style="fill:none;stroke:#000000;stroke-width:2.6;stroke-linecap:round;stroke-linejoin:round" /><path id="path2288" d="m 79.114 -3.33748 -15.9815 2.94397 z" style="fill:none;stroke:#000000;stroke-width:2.6;stroke-linecap:round;stroke-linejoin:round" /><path id="path2289" d="m 45.2424 38.3621 -21.3675 2.43699 z" style="fill:none;stroke:#000000;stroke-width:2.6;stroke-linecap:round;stroke-linejoin:round" /><path id="path2290" d="m -39.1466 68.1964 5.49566 -15.4656 z" style="fill:none;stroke:#000000;stroke-width:2.6;stroke-linecap:round;stroke-linejoin:round" /><path id="path2291" d="m -38.4684 40.2921 4.81742 12.4387 z" style="fill:none;stroke:#000000;stroke-width:2.6;stroke-linecap:round;stroke-linejoin:round" /><path id="path2292" d="m -35.5371 33.1462 -2.93127 7.14595 z" style="fill:none;stroke:#000000;stroke-width:2.6;stroke-linecap:round;stroke-linejoin:round" /><path id="path2293" d="m 23.8749 40.7991 -9.6288 -8.0993 z" style="fill:none;stroke:#000000;stroke-width:2.6;stroke-linecap:round;stroke-linejoin:round" /><path id="path2294" d="m -6.34518 40.6271 20.5913 -7.92735 z" style="fill:none;stroke:#000000;stroke-width:2.6;stroke-linecap:round;stroke-linejoin:round" /><path id="path2295" d="m -35.5371 33.1462 14.3022 -7.00994 z" style="fill:none;stroke:#000000;stroke-width:2.6;stroke-linecap:round;stroke-linejoin:round" /><path id="path2296" d="m -6.34518 40.6271 -14.8897 -14.4909 z" style="fill:none;stroke:#000000;stroke-width:2.6;stroke-linecap:round;stroke-linejoin:round" /></g><g id="river" inkscape:label="River" inkscape:groupmode="layer"><path id="path2285" d="m 45.2424 38.3621 3.24755 -6.26752 z" style="fill:none;stroke:#a2c6ff;stroke-width:2.0;stroke-linecap:round;stroke-linejoin:round" /><path id="path2286" d="m 58.9194 25.35 -10.4294 6.7446 z" style="fill:none;stroke:#a2c6ff;stroke-width:2.0;stroke-linecap:round;stroke-linejoin:round" /><path id="path2287" d="m 58.9194 25.35 4.21314 -25.7435 z" style="fill:none;stroke:#a2c6ff;stroke-width:2.0;stroke-linecap:round;stroke-linejoin:round" /><path id="path2288" d="m 79.114 -3.33748 -15.9815 2.94397 z" style="fill:none;stroke:#a2c6ff;stroke-width:2.0;stroke-linecap:round;stroke-linejoin:round" /><path id="path2289" d="m 45.2424 38.3621 -21.3675 2.43699 z" style="fill:none;stroke:#a2c6ff;stroke-width:2.0;stroke-linecap:round;stroke-linejoin:round" /><path id="path2290" d="m -39.1466 68.1964 5.49566 -15.4656 z" style="fill:none;stroke:#a2c6ff;stroke-width:2.0;stroke-linecap:round;stroke-linejoin:round" /><path id="path2291" d="m -38.4684 40.2921 4.81742 12.4387 z" style="fill:none;stroke:#a2c6ff;stroke-width:2.0;stroke-linecap:round;stroke-linejoin:round" /><path id="path2292" d="m -35.5371 33.1462 -2.93127 7.14595 z" style="fill:none;stroke:#a2c6ff;stroke-width:2.0;stroke-linecap:round;stroke-linejoin:round" /><path id="path2293" d="m 23.8749 40.7991 -9.6288 -8.0993 z" style="fill:none;stroke:#a2c6ff;stroke-width:2.0;stroke-linecap:round;stroke-linejoin:round" /><path id="path2294" d="m -6.34518 40.6271 20.5913 -7.92735 z" style="fill:none;stroke:#a2c6ff;stroke-width:2.0;stroke-linecap:round;stroke-linejoin:round" /><path id="path2295" d="m -35.5371 33.1462 14.3022 -7.00994 z" style="fill:none;stroke:#a2c6ff;stroke-width:2.0;stroke-linecap:round;stroke-linejoin:round" /><path id="path2296" d="m -6.34518 40.6271 -14.8897 -14.4909 z" style="fill:none;stroke:#a2c6ff;stroke-width:2.0;stroke-linecap:round;stroke-linejoin:round" /></g><g id="overlay" inkscape:label="Overlay" inkscape:groupmode="layer" transform="scale(1,-1)"><ns0:path ns1:nodetypes="ccccc" ns2:connector-curvature="0" id="obj-bridge" d="m -1.3629478,2.973799 c 0.6829002,-2.17565439 0.68923869,-3.60295062 0.015075,-5.9083917 l 2.8035417,0.00714 C 0.73648446,-0.63363961 0.73738591,0.81474035 1.4406036,2.9809656 Z" style="display:inline;fill:#000000;fill-opacity:1;stroke:none;stroke-width:2.14313;stroke-linecap:round;stroke-miterlimit:4;stroke-dasharray:2.14313, 4.28625;stroke-dashoffset:0;stroke-opacity:1" transform="translate(32.341006052107005 -39.83351752375948) rotate(186.50653395694127)" />
  <ns0:path style="display:inline;fill:#000000;fill-opacity:1;stroke:none;stroke-width:0.560758;stroke-linecap:round;stroke-miterlimit:4;stroke-dasharray:none;stroke-dashoffset:0;stroke-opacity:1" d="m 0.0020996,-3.2191828 -1.0211245,1.81591 -2.042771,0.41030977 1.4118,1.53272403 -0.241329,2.069123 1.8934245,-0.86868 1.893424,0.86868 -0.240813,-2.069123 1.411285,-1.53272403 -2.042253,-0.41030977 z" id="obj-star" transform="translate(-12.674956803411842 -6.122029540839253)" />
  <ns0:path ns1:nodetypes="cccccccccccccccc" style="display:inline;fill:#5ba22d;fill-opacity:1;fill-rule:evenodd;stroke:#000000;stroke-width:0.225018px;stroke-linecap:butt;stroke-linejoin:miter;stroke-opacity:1" d="m -0.03929664,-3.4250467 -1.21990906,1.785649 0.63078516,0.083817 -0.84435416,1.6018086 0.68675246,-0.0203464 -0.94321836,2.1362987 1.41248336,-0.326599 -0.0770308,0.6564974 h 0.8646239 L 0.39222286,1.8758406 1.8078469,2.0800142 0.70780196,0.0885405 1.4946226,0.1491327 0.54903346,-1.6560267 1.1778369,-1.6381673 Z" id="obj-tree" ns2:connector-curvature="0" transform="translate(-21.263070659909182 -59.028718707889794)" />
  <ns0:path ns1:nodetypes="cccccccccccccccc" style="display:inline;fill:#5ba22d;fill-opacity:1;fill-rule:evenodd;stroke:#000000;stroke-width:0.225018px;stroke-linecap:butt;stroke-linejoin:miter;stroke-opacity:1" d="m -0.03929664,-3.4250467 -1.21990906,1.785649 0.63078516,0.083817 -0.84435416,1.6018086 0.68675246,-0.0203464 -0.94321836,2.1362987 1.41248336,-0.326599 -0.0770308,0.6564974 h 0.8646239 L 0.39222286,1.8758406 1.8078469,2.0800142 0.70780196,0.0885405 1.4946226,0.1491327 0.54903346,-1.6560267 1.1778369,-1.6381673 Z" id="obj-tree" ns2:connector-curvature="0" transform="translate(4.111205278429249 -50.49349619312032)" />
  <ns0:path ns1:nodetypes="cccccccccccccccc" style="display:inline;fill:#5ba22d;fill-opacity:1;fill-rule:evenodd;stroke:#000000;stroke-width:0.225018px;stroke-linecap:butt;stroke-linejoin:miter;stroke-opacity:1" d="m -0.03929664,-3.4250467 -1.21990906,1.785649 0.63078516,0.083817 -0.84435416,1.6018086 0.68675246,-0.0203464 -0.94321836,2.1362987 1.41248336,-0.326599 -0.0770308,0.6564974 h 0.8646239 L 0.39222286,1.8758406 1.8078469,2.0800142 0.70780196,0.0885405 1.4946226,0.1491327 0.54903346,-1.6560267 1.1778369,-1.6381673 Z" id="obj-tree" ns2:connector-curvature="0" transform="translate(-20.64001718113544 -42.156419750645696)" />
  <ns0:path ns1:nodetypes="cccccccccccccccc" style="display:inline;fill:#5ba22d;fill-opacity:1;fill-rule:evenodd;stroke:#000000;stroke-width:0.225018px;stroke-linecap:butt;stroke-linejoin:miter;stroke-opacity:1" d="m -0.03929664,-3.4250467 -1.21990906,1.785649 0.63078516,0.083817 -0.84435416,1.6018086 0.68675246,-0.0203464 -0.94321836,2.1362987 1.41248336,-0.326599 -0.0770308,0.6564974 h 0.8646239 L 0.39222286,1.8758406 1.8078469,2.0800142 0.70780196,0.0885405 1.4946226,0.1491327 0.54903346,-1.6560267 1.1778369,-1.6381673 Z" id="obj-tree" ns2:connector-curvature="0" transform="translate(0.0 72.0)" />
  <ns0:path ns1:nodetypes="cccccccccccccccc" style="display:inline;fill:#5ba22d;fill-opacity:1;fill-rule:evenodd;stroke:#000000;stroke-width:0.225018px;stroke-linecap:butt;stroke-linejoin:miter;stroke-opacity:1" d="m -0.03929664,-3.4250467 -1.21990906,1.785649 0.63078516,0.083817 -0.84435416,1.6018086 0.68675246,-0.0203464 -0.94321836,2.1362987 1.41248336,-0.326599 -0.0770308,0.6564974 h 0.8646239 L 0.39222286,1.8758406 1.8078469,2.0800142 0.70780196,0.0885405 1.4946226,0.1491327 0.54903346,-1.6560267 1.1778369,-1.6381673 Z" id="obj-tree" ns2:connector-curvature="0" transform="translate(-46.390242934956106 -48.67846096908266)" />
  <ns0:path ns1:nodetypes="cccccccccccccccc" style="display:inline;fill:#5ba22d;fill-opacity:1;fill-rule:evenodd;stroke:#000000;stroke-width:0.225018px;stroke-linecap:butt;stroke-linejoin:miter;stroke-opacity:1" d="m -0.03929664,-3.4250467 -1.21990906,1.785649 0.63078516,0.083817 -0.84435416,1.6018086 0.68675246,-0.0203464 -0.94321836,2.1362987 1.41248336,-0.326599 -0.0770308,0.6564974 h 0.8646239 L 0.39222286,1.8758406 1.8078469,2.0800142 0.70780196,0.0885405 1.4946226,0.1491327 0.54903346,-1.6560267 1.1778369,-1.6381673 Z" id="obj-tree" ns2:connector-curvature="0" transform="translate(-38.32887090285959 34.58525960283224)" />
  <ns0:path ns1:nodetypes="cccccccccccccccc" style="display:inline;fill:#5ba22d;fill-opacity:1;fill-rule:evenodd;stroke:#000000;stroke-width:0.225018px;stroke-linecap:butt;stroke-linejoin:miter;stroke-opacity:1" d="m -0.03929664,-3.4250467 -1.21990906,1.785649 0.63078516,0.083817 -0.84435416,1.6018086 0.68675246,-0.0203464 -0.94321836,2.1362987 1.41248336,-0.326599 -0.0770308,0.6564974 h 0.8646239 L 0.39222286,1.8758406 1.8078469,2.0800142 0.70780196,0.0885405 1.4946226,0.1491327 0.54903346,-1.6560267 1.1778369,-1.6381673 Z" id="obj-tree" ns2:connector-curvature="0" transform="translate(-36.13504718096737 14.607631090249532)" />
  <ns0:path ns1:nodetypes="cccccccccccccccc" style="display:inline;fill:#5ba22d;fill-opacity:1;fill-rule:evenodd;stroke:#000000;stroke-width:0.225018px;stroke-linecap:butt;stroke-linejoin:miter;stroke-opacity:1" d="m -0.03929664,-3.4250467 -1.21990906,1.785649 0.63078516,0.083817 -0.84435416,1.6018086 0.68675246,-0.0203464 -0.94321836,2.1362987 1.41248336,-0.326599 -0.0770308,0.6564974 h 0.8646239 L 0.39222286,1.8758406 1.8078469,2.0800142 0.70780196,0.0885405 1.4946226,0.1491327 0.54903346,-1.6560267 1.1778369,-1.6381673 Z" id="obj-tree" ns2:connector-curvature="0" transform="translate(-16.398969044771427 64.33589838486225)" />
  <ns0:path ns1:nodetypes="cccccccccccccccc" style="display:inline;fill:#5ba22d;fill-opacity:1;fill-rule:evenodd;stroke:#000000;stroke-width:0.225018px;stroke-linecap:butt;stroke-linejoin:miter;stroke-opacity:1" d="m -0.03929664,-3.4250467 -1.21990906,1.785649 0.63078516,0.083817 -0.84435416,1.6018086 0.68675246,-0.0203464 -0.94321836,2.1362987 1.41248336,-0.326599 -0.0770308,0.6564974 h 0.8646239 L 0.39222286,1.8758406 1.8078469,2.0800142 0.70780196,0.0885405 1.4946226,0.1491327 0.54903346,-1.6560267 1.1778369,-1.6381673 Z" id="obj-tree" ns2:connector-curvature="0" transform="translate(62.282032302755084 -37.0)" />
  <ns0:path ns1:nodetypes="cccccccccccccccc" style="display:inline;fill:#5ba22d;fill-opacity:1;fill-rule:evenodd;stroke:#000000;stroke-width:0.225018px;stroke-linecap:butt;stroke-linejoin:miter;stroke-opacity:1" d="m -0.03929664,-3.4250467 -1.21990906,1.785649 0.63078516,0.083817 -0.84435416,1.6018086 0.68675246,-0.0203464 -0.94321836,2.1362987 1.41248336,-0.326599 -0.0770308,0.6564974 h 0.8646239 L 0.39222286,1.8758406 1.8078469,2.0800142 0.70780196,0.0885405 1.4946226,0.1491327 0.54903346,-1.6560267 1.1778369,-1.6381673 Z" id="obj-tree" ns2:connector-curvature="0" transform="translate(-5.204473084358257 -26.29605206964757)" />
  <ns0:path ns1:nodetypes="cccccccccccccccc" style="display:inline;fill:#5ba22d;fill-opacity:1;fill-rule:evenodd;stroke:#000000;stroke-width:0.225018px;stroke-linecap:butt;stroke-linejoin:miter;stroke-opacity:1" d="m -0.03929664,-3.4250467 -1.21990906,1.785649 0.63078516,0.083817 -0.84435416,1.6018086 0.68675246,-0.0203464 -0.94321836,2.1362987 1.41248336,-0.326599 -0.0770308,0.6564974 h 0.8646239 L 0.39222286,1.8758406 1.8078469,2.0800142 0.70780196,0.0885405 1.4946226,0.1491327 0.54903346,-1.6560267 1.1778369,-1.6381673 Z" id="obj-tree" ns2:connector-curvature="0" transform="translate(49.80993875695248 -9.889520898060482)" />
  </g><g id="border" inkscape:label="Border" inkscape:groupmode="layer"><path id="path2297" d="m 0 80 69.282 -40 0 -80 -69.282 -40 -69.282 40 0 80 z" style="fill:none;stroke:#000000;stroke-width:0.3" /></g></g></svg>