<?xml version='1.0' encoding='UTF-8'?>
<svg xmlns:ns0="http://www.w3.org/2000/svg" xmlns:ns1="http://sodipodi.sourceforge.net/DTD/sodipodi-0.dtd" xmlns:ns2="http://www.inkscape.org/namespaces/inkscape" version="1.1" id="svg_root" xmlns="http://www.w3.org/2000/svg" xmlns:sodipodi="http://sodipodi.sourceforge.net/DTD/sodipodi-0.dtd" xmlns:inkscape="http://www.inkscape.org/namespaces/inkscape" xmlns:xlink="http://www.w3.org/1999/xlink" width="215.9mm" height="279.4mm" viewBox="0 0 215.9 279.4"><defs><filter id="filterInnerGlowH" style="color-interpolation-filters:sRGB;" inkscape:label="filterInnerGlowH" x="0.41051782" y="0.41051782" width="0.16543989" height="0.17009096"><feFlood id="node1001" flood-opacity="1" flood-color="rgb(217,104,14)" result="flood" /><feComposite id="node1002" in="flood" in2="SourceGraphic" operator="out" result="composite1" /><feGaussianBlur id="node1003" in="composite1" stdDeviation="2.5" result="blur" /><feOffset id="node1004" dx="0" dy="0" result="offset" /><feComposite id="node1005" in="offset" in2="SourceGraphic" operator="atop" result="composite2" /></filter><filter id="filterInnerGlowM" style="color-interpolation-filters:sRGB;" inkscape:label="filterInnerGlowM" x="0.41051782" y="0.41051782" width="0.16543989" height="0.17009096"><feFlood id="node1006" flood-opacity="1" flood-color="rgb(220,174,16)" result="flood" /><feComposite id="node1007" in="flood" in2="SourceGraphic" operator="out" result="composite1" /><feGaussianBlur id="node1008" in="composite1" stdDeviation="2.5" result="blur" /><feOffset id="node1009" dx="0" dy="0" result="offset" /><feComposite id="node1010" in="offset" in2="SourceGraphic" operator="atop" result="composite2" /></filter><filter id="filterInnerGlowL" style="color-interpolation-filters:sRGB;" inkscape:label="filterInnerGlowL" x="0.41051782" y="0.41051782" width="0.16543989" height="0.17009096"><feFlood id="node1011" flood-opacity="1" flood-color="rgb(203,201,43)" result="flood" /><feComposite id="node1012" in="flood" in2="SourceGraphic" operator="out" result="composite1" /><feGaussianBlur id="node1013" in="composite1" stdDeviation="2.5" result="blur" /><feOffset id="node1014" dx="0" dy="0" result="offset" /><feComposite id="node1015" in="offset" in2="SourceGraphic" operator="atop" result="composite2" /></filter><filter id="filterInnerGlowR" style="color-interpolation-filters:sRGB;" inkscape:label="filterInnerGlowR" x="0.41051782" y="0.41051782" width="0.16543989" height="0.17009096"><feFlood id="node1016" flood-opacity="1" flood-color="rgb(111,161,232)" result="flood" /><feComposite id="node1017" in="flood" in2="SourceGraphic" operator="out" result="composite1" /><feGaussianBlur id="node1018" in="composite1" stdDeviation="2.0" result="blur" /><feOffset id="node1019" dx="0" dy="0" result="offset" /><feComposite id="node1020" in="offset" in2="SourceGraphic" operator="atop" result="composite2" /></filter><filter id="filterInnerGlowC" style="color-interpolation-filters:sRGB;" inkscape:label="filterInnerGlowC" x="0.41051782" y="0.41051782" width="0.16543989" height="0.17009096"><feFlood id="node1021" flood-opacity="1" flood-color="rgb(200,200,200)" result="flood" /><feComposite id="node1022" in="flood" in2="SourceGraphic" operator="out" result="composite1" /><feGaussianBlur id="node1023" in="composite1" stdDeviation="2.0" result="blur" /><feOffset id="node1024" dx="0" dy="0" result="offset" /><feComposite id="node1025" in="offset" in2="SourceGraphic" operator="atop" result="composite2" /></filter><clipPath id="clippath-1028"><path id="path1027" d="m 0 80 69.282 -40 0 -80 -69.282 -40 -69.282 40 0 80 z" /></clipPath><clipPath id="clippath-1030"><path id="path1029" d="m 0 80 69.282 -40 0 -80 -69.282 -40 -69.282 40 0 80 z" /></clipPath></defs><g id="layer" inkscape:label="Layer" inkscape:groupmode="layer" transform="translate(107.95 120) scale(1, -1)"><g id="background" inkscape:label="Tile Background" inkscape:groupmode="layer"><path id="path1026" d="m 0 80 69.282 -40 0 -80 -69.282 -40 -69.282 40 0 80 z" style="fill:#000000;stroke:none;stroke-width:0" /></g><g id="region-clip" inkscape:label="Region Clipped" inkscape:groupmode="layer" style="display:none"><g id="clipped-regions"><path id="clippedregion-0" d="m 14.0573 64.3479 -7.39775 -2.89059 -21.8568 4.86502 -2.12328 3.67762 17.3205 10 17.3205 -10 z" style="fill:#f0eaac;stroke:#000000;stroke-width:0.3" /><path id="clippedregion-1" d="m 59.2062 20 -12.737 20.487 5.49232 9.51297 17.3205 -10 0 -20 z" style="fill:#f0eaac;stroke:#000000;stroke-width:0.3" /><path id="clippedregion-2" d="m 49.5283 -45.7855 13.6005 25.7855 6.15324 0 0 -20 -17.3205 -10 z" style="fill:#f0eaac;stroke:#000000;stroke-width:0.3" /><path id="clippedregion-3" d="m -11.1469 -59.3071 26.1777 -6.72705 2.28971 -3.96589 -17.3205 -10 -17.3205 10 z" style="fill:#f0eaac;stroke:#000000;stroke-width:0.3" /><path id="clippedregion-4" d="m -62.3298 -20 14.1521 -23.4463 -3.78378 -6.5537 -17.3205 10 0 20 z" style="fill:#f0eaac;stroke:#000000;stroke-width:0.3" /><path id="clippedregion-5" d="m -48.5915 44.1629 -15.5079 -24.1629 -5.18265 0 0 20 17.3205 10 z" style="fill:#f0eaac;stroke:#000000;stroke-width:0.3" /><path id="clippedregion-6" d="m 46.4692 40.487 -12.2575 -0.662286 -20.1544 24.5232 3.26322 5.65206 34.641 -20 z" style="fill:#f0eaac;stroke:#000000;stroke-width:0.3" /><path id="clippedregion-7" d="m 63.1288 -20 -7.01883 6.99695 -2.5145 23.8081 5.61079 9.19491 10.0758 0 0 -40 z" style="fill:#f0eaac;stroke:#000000;stroke-width:0.3" /><path id="clippedregion-8" d="m 15.0308 -66.0341 13.2212 25.6061 21.2763 -5.3575 2.43326 -4.21453 -34.641 -20 z" style="fill:#f0eaac;stroke:#000000;stroke-width:0.3" /><path id="clippedregion-9" d="m -48.1777 -43.4463 6.3176 1.1583 28.7947 -10.851 1.91849 -6.16805 -6.17357 -10.6929 -34.641 20 z" style="fill:#f0eaac;stroke:#000000;stroke-width:0.3" /><path id="clippedregion-10" d="m -64.0994 20 9.38846 -10.1458 -1.41021 -22.3803 -6.2087 -7.4739 -6.9522 0 0 40 z" style="fill:#f0eaac;stroke:#000000;stroke-width:0.3" /><path id="clippedregion-11" d="m -15.1972 66.3224 -8.06639 -17.6705 -15.0287 -7.06992 -10.2992 2.58097 -3.37005 5.8371 34.641 20 z" style="fill:#f0eaac;stroke:#000000;stroke-width:0.3" /><path id="clippedregion-12" d="m -28.3309 -12.3991 1.09069 -6.88175 -14.6199 -23.0071 -6.3176 -1.1583 -14.1521 23.4463 6.2087 7.4739 z" style="fill:#f0eaac;stroke:#000000;stroke-width:0.3" /><path id="clippedregion-13" d="m 56.11 -13.0031 7.01883 -6.99695 -13.6005 -25.7855 -21.2763 5.3575 -3.29776 5.60313 6.88416 19.0614 z" style="fill:#f0eaac;stroke:#000000;stroke-width:0.3" /><path id="clippedregion-14" d="m -10.2218 14.5633 -8.05482 -18.5175 -6.61263 -2.53869 -12.657 17.8804 7.12994 11.0272 17.6202 -1.66285 z" style="fill:#f0ce76;stroke:#000000;stroke-width:0.3" /><path id="clippedregion-15" d="m 31.8384 -15.7635 -6.88416 -19.0614 -22.2188 5.82955 -1.14996 16.5072 7.25479 7.88765 19.8154 -5.50877 z" style="fill:#f0ce76;stroke:#000000;stroke-width:0.3" /><path id="clippedregion-16" d="m 24.9542 -34.8248 3.29776 -5.60313 -13.2212 -25.6061 -26.1777 6.72705 -1.91849 6.16805 6.59494 17.1702 9.20593 6.97351 z" style="fill:#f0eaac;stroke:#000000;stroke-width:0.3" /><path id="clippedregion-17" d="m -7.15152 32.8648 -16.1121 15.7871 8.06639 17.6705 21.8568 -4.86502 -4.91926 -25.3978 z" style="fill:#f0eaac;stroke:#000000;stroke-width:0.3" /><path id="clippedregion-18" d="m -24.8892 -6.49296 6.61263 2.53869 19.8621 -8.53381 1.14996 -16.5072 -9.20593 -6.97351 -20.7697 16.6879 -1.09069 6.88175 z" style="fill:#f0ce76;stroke:#000000;stroke-width:0.3" /><path id="clippedregion-19" d="m -54.7109 9.85419 -9.38846 10.1458 15.5079 24.1629 10.2992 -2.58097 7.87604 -19.1673 -7.12994 -11.0272 z" style="fill:#f0eaac;stroke:#000000;stroke-width:0.3" /><path id="clippedregion-20" d="m 8.98288 8.84067 -0.142603 -13.4411 -7.25479 -7.88765 -19.8621 8.53381 8.05482 18.5175 z" style="fill:#e7a311;stroke:#000000;stroke-width:0.3" /><path id="clippedregion-21" d="m 19.3714 19.0466 13.7032 -11.564 -4.41889 -17.5919 -19.8154 5.50877 0.142603 13.4411 z" style="fill:#f0ce76;stroke:#000000;stroke-width:0.3" /><path id="clippedregion-22" d="m -6.47048 -35.9688 -6.59494 -17.1702 -28.7947 10.851 14.6199 23.0071 z" style="fill:#f0eaac;stroke:#000000;stroke-width:0.3" /><path id="clippedregion-23" d="m -54.7109 9.85419 17.1647 1.53325 12.657 -17.8804 -3.44169 -5.90615 -27.7902 -0.126988 z" style="fill:#f0eaac;stroke:#000000;stroke-width:0.3" /><path id="clippedregion-24" d="m 19.7131 25.9565 14.4986 13.8682 12.2575 0.662286 12.737 -20.487 -5.61079 -9.19491 -20.5209 -3.32243 -13.7032 11.564 z" style="fill:#f0eaac;stroke:#000000;stroke-width:0.3" /><path id="clippedregion-25" d="m 1.74028 36.0596 4.91926 25.3978 7.39775 2.89059 20.1544 -24.5232 -14.4986 -13.8682 z" style="fill:#f0eaac;stroke:#000000;stroke-width:0.3" /><path id="clippedregion-26" d="m 1.74028 36.0596 17.9728 -10.1031 -0.341649 -6.9099 -10.3886 -10.206 -19.2047 5.72259 -2.57425 6.18852 5.64451 12.113 z" style="fill:#f0ce76;stroke:#000000;stroke-width:0.3" /><path id="clippedregion-27" d="m -12.796 20.7518 -17.6202 1.66285 -7.87604 19.1673 15.0287 7.06992 16.1121 -15.7871 z" style="fill:#f0eaac;stroke:#000000;stroke-width:0.3" /><path id="clippedregion-28" d="m 28.6557 -10.1092 4.41889 17.5919 20.5209 3.32243 2.5145 -23.8081 -24.2716 -2.76042 z" style="fill:#f0eaac;stroke:#000000;stroke-width:0.3" /></g></g><g id="region-rounded-fill" inkscape:label="Region Rounded Fill" inkscape:groupmode="layer"><g id="region-rounded-fill-group" clip-path="url(#clippath-1028)"><path id="roundedregionfill-0" d="m 8.05667 62.0033 c -0.931422 -0.363942 -1.88519 -0.437279 -2.8613 -0.220009 l -18.9284 4.21322 c -0.976112 0.217269 -1.71417 0.758917 -2.21417 1.62494 l -3.95908 6.85732 c -0.5 0.866025 -0.559377 1.76127 -0.17813 2.68575 l 7.19576 17.4488 c 0.381246 0.924473 1.07187 1.38671 2.07187 1.38671 l 21.6336 0 c 1 0 1.69062 -0.462237 2.07187 -1.38671 l 7.19576 -17.4488 c 0.381246 -0.924473 0.32187 -1.81972 -0.17813 -2.68575 l -5.09902 -8.83176 c -0.5 -0.866025 -1.21571 -1.48101 -2.14713 -1.84495 z" style="fill:#f0eaac;stroke:none;stroke-width:0" /><path id="roundedregionfill-1" d="m 47.2612 39.2132 c -0.52799 0.849251 -0.541985 1.70689 -0.0419846 2.57291 l 7.32812 12.6927 c 0.5 0.866025 1.24562 1.36507 2.23686 1.49714 l 18.709 2.49269 c 0.991241 0.132068 1.73686 -0.234911 2.23686 -1.10094 l 10.8168 -18.7353 c 0.5 -0.866025 0.445003 -1.69524 -0.164991 -2.48765 l -11.5132 -14.9561 c -0.609994 -0.792406 -1.41499 -1.18861 -2.41499 -1.18861 l -13.7474 0 c -1 0 -1.76399 0.424625 -2.29198 1.27388 z" style="fill:#f0eaac;stroke:none;stroke-width:0" /><path id="roundedregionfill-2" d="m 62.429 -21.3268 c 0.466531 0.884505 1.1998 1.32676 2.1998 1.32676 l 9.82484 0 c 1 0 1.805 -0.396203 2.41499 -1.18861 l 11.5132 -14.9561 c 0.609994 -0.792406 0.664991 -1.62162 0.164991 -2.48765 l -10.8168 -18.7353 c -0.5 -0.866025 -1.24562 -1.233 -2.23686 -1.10094 l -18.709 2.49269 c -0.991241 0.132068 -1.73686 0.631114 -2.23686 1.49714 l -4.26906 7.39423 c -0.5 0.866025 -0.516734 1.74129 -0.0502029 2.6258 z" style="fill:#f0eaac;stroke:none;stroke-width:0" /><path id="roundedregionfill-3" d="m 19.9063 -74.4787 c 0.5 -0.866025 0.559377 -1.76127 0.17813 -2.68575 l -7.19576 -17.4488 c -0.381246 -0.924473 -1.07187 -1.38671 -2.07187 -1.38671 l -21.6336 0 c -1 0 -1.69062 0.462237 -2.07187 1.38671 l -7.19576 17.4488 c -0.381246 0.924473 -0.32187 1.81972 0.17813 2.68575 l 8.00937 13.8726 c 0.5 0.866025 1.23427 1.17459 2.2028 0.925704 l 23.2721 -5.98038 c 0.968532 -0.24889 1.7028 -0.806347 2.2028 -1.67237 z" style="fill:#f0eaac;stroke:none;stroke-width:0" /><path id="roundedregionfill-4" d="m -63.8298 -20 c 1 0 1.75838 -0.428066 2.27514 -1.2842 l 12.6018 -20.8779 c 0.516758 -0.856132 0.525137 -1.71721 0.0251367 -2.58324 l -5.61958 -9.73341 c -0.5 -0.866025 -1.24562 -1.36507 -2.23686 -1.49714 l -18.709 -2.49269 c -0.991241 -0.132068 -1.73686 0.234911 -2.23686 1.10094 l -10.8168 18.7353 c -0.5 0.866025 -0.445003 1.69524 0.164991 2.48765 l 11.5132 14.9561 c 0.609994 0.792406 1.41499 1.18861 2.41499 1.18861 z" style="fill:#f0eaac;stroke:none;stroke-width:0" /><path id="roundedregionfill-5" d="m -63.2892 21.2624 c -0.540132 -0.84158 -1.3102 -1.26237 -2.3102 -1.26237 l -8.85425 0 c -1 0 -1.805 0.396203 -2.41499 1.18861 l -11.5132 14.9561 c -0.609994 0.792406 -0.664991 1.62162 -0.164991 2.48765 l 10.8168 18.7353 c 0.5 0.866025 1.24562 1.233 2.23686 1.10094 l 18.709 -2.49269 c 0.991241 -0.132068 1.73686 -0.631114 2.23686 -1.49714 l 5.20585 -9.0168 c 0.5 -0.866025 0.479934 -1.71983 -0.0601978 -2.56141 z" style="fill:#f0eaac;stroke:none;stroke-width:0" /><path id="roundedregionfill-6" d="m 15.0097 63.1891 c -0.634935 0.772566 -0.702402 1.59186 -0.202402 2.45789 l 5.09902 8.83176 c 0.5 0.866025 1.2488 1.3336 2.24641 1.40271 l 21.0634 1.45932 c 0.997609 0.0691164 1.71589 -0.345582 2.15483 -1.24409 l 9.26791 -18.9711 c 0.438948 -0.898513 0.408422 -1.78078 -0.0915783 -2.64681 l -7.32812 -12.6927 c -0.5 -0.866025 -1.24927 -1.32601 -2.24782 -1.37997 l -9.26186 -0.500429 c -0.998544 -0.0539525 -1.81528 0.305354 -2.45022 1.07792 z" style="fill:#f0eaac;stroke:none;stroke-width:0" /><path id="roundedregionfill-7" d="m 53.753 9.31339 c -0.105031 0.994469 0.102898 1.91852 0.623785 2.77214 l 4.04813 6.63403 c 0.520887 0.853625 1.28133 1.28044 2.28133 1.28044 l 13.7474 0 c 1 0 1.77933 -0.414698 2.33799 -1.24409 l 11.7955 -17.5118 c 0.558661 -0.829396 0.558661 -1.65879 0 -2.48819 l -11.7955 -17.5118 c -0.558661 -0.829396 -1.33799 -1.24409 -2.33799 -1.24409 l -9.82484 0 c -1 0 -1.85411 0.353001 -2.56232 1.059 l -4.8942 4.87894 c -0.70821 0.706002 -1.11483 1.55624 -1.21986 2.55071 z" style="fill:#f0eaac;stroke:none;stroke-width:0" /><path id="roundedregionfill-8" d="m 48.0737 -45.4192 c 0.969729 -0.244184 1.70459 -0.799288 2.20459 -1.66531 l 4.26906 -7.39423 c 0.5 -0.866025 0.530526 -1.74829 0.0915783 -2.64681 l -9.26791 -18.9711 c -0.438948 -0.898513 -1.15723 -1.31321 -2.15483 -1.24409 l -21.0634 1.45932 c -0.997609 0.0691164 -1.74641 0.536687 -2.24641 1.40271 l -4.12551 7.14559 c -0.5 0.866025 -0.520609 1.74331 -0.0618267 2.63186 l 11.8448 22.9405 c 0.458782 0.888549 1.17304 1.21073 2.14277 0.966548 z" style="fill:#f0eaac;stroke:none;stroke-width:0" /><path id="roundedregionfill-9" d="m -19.9063 -74.4787 c -0.5 -0.866025 -1.2488 -1.3336 -2.24641 -1.40271 l -21.0634 -1.45932 c -0.997609 -0.0691164 -1.71589 0.345582 -2.15483 1.24409 l -9.26791 18.9711 c -0.438948 0.898513 -0.408422 1.78078 0.0915783 2.64681 l 5.61958 9.73341 c 0.5 0.866025 1.2418 1.38921 2.22541 1.56955 l 3.36678 0.617281 c 0.983605 0.180338 1.94329 0.094191 2.87905 -0.258442 l 25.9874 -9.79311 c 0.935762 -0.352633 1.55214 -1.00639 1.84915 -1.96126 l 1.02748 -3.30342 c 0.297002 -0.954877 0.195502 -1.86533 -0.304498 -2.73135 z" style="fill:#f0eaac;stroke:none;stroke-width:0" /><path id="roundedregionfill-10" d="m -56.0268 -11.0291 c -0.0628864 -0.998021 -0.413828 -1.88164 -1.05282 -2.65085 l -4.29172 -5.16627 c -0.638996 -0.76921 -1.45849 -1.15381 -2.45849 -1.15381 l -10.6238 0 c -1 0 -1.77933 0.414698 -2.33799 1.24409 l -11.7955 17.5118 c -0.558661 0.829396 -0.558661 1.65879 0 2.48819 l 11.7955 17.5118 c 0.558661 0.829396 1.33799 1.24409 2.33799 1.24409 l 8.85425 0 c 1 0 1.83959 -0.366985 2.51877 -1.10096 l 7.35092 -7.9439 c 0.679182 -0.73397 0.98733 -1.59997 0.924443 -2.59799 z" style="fill:#f0eaac;stroke:none;stroke-width:0" /><path id="roundedregionfill-11" d="m -47.1365 43.7983 c -0.970006 0.243083 -1.70501 0.797637 -2.20501 1.66366 l -5.20585 9.0168 c -0.5 0.866025 -0.530526 1.74829 -0.0915783 2.64681 l 9.26791 18.9711 c 0.438948 0.898513 1.15723 1.31321 2.15483 1.24409 l 21.0634 -1.45932 c 0.997609 -0.0691164 1.74641 -0.536687 2.24641 -1.40271 l 3.95908 -6.85732 c 0.5 -0.866025 0.542366 -1.75389 0.127099 -2.66359 l -6.82058 -14.9414 c -0.415267 -0.909699 -1.07534 -1.57739 -1.98021 -2.00307 l -12.314 -5.79289 c -0.904874 -0.425679 -1.84231 -0.516978 -2.81232 -0.273895 z" style="fill:#f0eaac;stroke:none;stroke-width:0" /><path id="roundedregionfill-12" d="m -29.8309 -12.406 c 0.99999 0.00456948 1.57825 -0.486982 1.73479 -1.47465 l 0.621079 -3.91873 c 0.156536 -0.987672 -0.0333596 -1.90351 -0.569687 -2.74752 l -13.0109 -20.4751 c -0.536328 -0.84401 -1.29629 -1.35618 -2.2799 -1.53652 l -3.36678 -0.617281 c -0.983605 -0.180338 -1.73379 0.157558 -2.25054 1.01369 l -12.6018 20.8779 c -0.516758 0.856132 -0.455638 1.6688 0.183358 2.43801 l 4.29172 5.16627 c 0.638996 0.76921 1.45849 1.1561 2.45848 1.16067 z" style="fill:#f0eaac;stroke:none;stroke-width:0" /><path id="roundedregionfill-13" d="m 54.6196 -13.1726 c 0.993595 0.113002 1.8445 -0.183498 2.55271 -0.8895 l 4.8942 -4.87894 c 0.70821 -0.706002 0.82905 -1.50125 0.362518 -2.38576 l -12.2009 -23.132 c -0.466531 -0.884505 -1.18466 -1.20467 -2.15439 -0.960482 l -18.3671 4.62495 c -0.969729 0.244184 -1.70821 0.797182 -2.21543 1.659 l -1.77608 3.01769 c -0.507226 0.861813 -0.590997 1.76299 -0.251314 2.70353 l 5.86511 16.2397 c 0.339683 0.94054 1.00632 1.46731 1.99992 1.58031 z" style="fill:#f0eaac;stroke:none;stroke-width:0" /><path id="roundedregionfill-14" d="m -10.7979 15.9482 c 0.384068 -0.923305 0.376662 -1.84346 -0.0222187 -2.76046 l -6.85817 -15.7665 c -0.398881 -0.917003 -1.0651 -1.55471 -1.99867 -1.91312 l -3.81193 -1.46346 c -0.933564 -0.35841 -1.68923 -0.129513 -2.26699 0.68669 l -10.9237 15.4318 c -0.577765 0.816203 -0.595164 1.64418 -0.0521972 2.48394 l 5.50104 8.50793 c 0.542966 0.839754 1.31224 1.21265 2.30781 1.1187 l 14.6335 -1.38099 c 0.995577 -0.0939542 1.6854 -0.602584 2.06947 -1.52589 z" style="fill:#f0ce76;stroke:none;stroke-width:0" /><path id="roundedregionfill-15" d="m 31.1026 -14.4563 c 0.490512 -0.871435 0.565926 -1.77742 0.226243 -2.71796 l -5.86511 -16.2397 c -0.339683 -0.94054 -0.993156 -1.28392 -1.96042 -1.03014 l -19.317 5.06821 c -0.967262 0.253781 -1.48564 0.879463 -1.55514 1.87705 l -0.941477 13.5145 c -0.069496 0.997582 0.234238 1.86438 0.911201 2.6004 l 5.2239 5.6796 c 0.676963 0.736017 1.49718 0.970102 2.46064 0.702256 l 16.925 -4.70523 c 0.963462 -0.267846 1.69045 -0.837487 2.18096 -1.70892 z" style="fill:#f0ce76;stroke:none;stroke-width:0" /><path id="roundedregionfill-16" d="m 23.5033 -34.4442 c 0.967262 -0.253781 1.70451 -0.811579 2.21173 -1.67339 l 1.77608 -3.01769 c 0.507226 -0.861813 0.531447 -1.73699 0.072665 -2.62554 l -11.8448 -22.9405 c -0.458782 -0.888549 -1.17244 -1.20838 -2.14097 -0.959489 l -23.2721 5.98038 c -0.968532 0.24889 -1.6013 0.850773 -1.8983 1.80565 l -1.02748 3.30342 c -0.297002 0.954877 -0.266226 1.89907 0.0923276 2.83258 l 5.51928 14.3697 c 0.358553 0.933509 0.93639 1.70217 1.73351 2.30599 l 6.81457 5.16205 c 0.797121 0.60382 1.67931 0.77884 2.64657 0.525058 z" style="fill:#f0eaac;stroke:none;stroke-width:0" /><path id="roundedregionfill-17" d="m -5.73987 33.372 c -0.941097 -0.338136 -1.76878 -0.157271 -2.48306 0.542595 l -13.9693 13.6875 c -0.714274 0.699866 -0.863778 1.50465 -0.448511 2.41435 l 6.82058 14.9414 c 0.415267 0.909699 1.11096 1.25591 2.08707 1.03865 l 18.9284 -4.21322 c 0.976112 -0.217269 1.36909 -0.816781 1.17894 -1.79854 l -4.34879 -22.4525 c -0.190155 -0.981754 -0.755781 -1.6417 -1.69688 -1.97984 z" style="fill:#f0eaac;stroke:none;stroke-width:0" /><path id="roundedregionfill-18" d="m -25.6444 -7.78897 c 0.503482 0.864006 1.222 1.47521 2.15557 1.83362 l 3.81193 1.46346 c 0.933564 0.35841 1.85974 0.340235 2.77852 -0.054524 l 17.1057 -7.34954 c 0.918785 -0.394759 1.41292 -1.09093 1.48242 -2.08851 l 0.941477 -13.5145 c 0.069496 -0.997582 -0.294316 -1.79828 -1.09144 -2.4021 l -6.81457 -5.16205 c -0.797121 -0.60382 -1.58545 -0.592558 -2.365 0.033787 l -18.4311 14.8089 c -0.779546 0.626345 -1.24759 1.43335 -1.40412 2.42103 l -0.621079 3.91873 c -0.156536 0.987672 0.0169368 1.91351 0.520419 2.77752 z" style="fill:#f0ce76;stroke:none;stroke-width:0" /><path id="roundedregionfill-19" d="m -53.2169 9.98765 c -0.996034 -0.0889712 -1.83364 0.233528 -2.51282 0.967498 l -7.35092 7.9439 c -0.679182 0.73397 -0.748707 1.52175 -0.208575 2.36333 l 13.8875 21.6382 c 0.540132 0.84158 1.2952 1.14083 2.26521 0.897747 l 7.38917 -1.85172 c 0.970006 -0.243083 1.64505 -0.827102 2.02512 -1.75206 l 6.73582 -16.3924 c 0.380074 -0.924956 0.298628 -1.80731 -0.244338 -2.64707 l -5.50104 -8.50793 c -0.542966 -0.839754 -1.31247 -1.30412 -2.3085 -1.39309 z" style="fill:#f0eaac;stroke:none;stroke-width:0" /><path id="roundedregionfill-20" d="m 7.54534 9.26903 c 0.958358 -0.285571 1.43223 -0.928328 1.42162 -1.92827 l -0.110776 -10.4413 c -0.0106089 -0.999944 -0.354395 -1.86792 -1.03136 -2.60394 l -5.2239 -5.6796 c -0.676963 -0.736017 -1.47484 -0.906645 -2.39362 -0.511886 l -17.1057 7.34954 c -0.918785 0.394759 -1.17874 1.05064 -0.779856 1.96764 l 6.85817 15.7665 c 0.398881 0.917003 1.0775 1.23272 2.03586 0.947148 z" style="fill:#e7a311;stroke:none;stroke-width:0" /><path id="roundedregionfill-21" d="m 18.3014 17.9954 c 0.713348 0.70081 1.45214 0.728748 2.21638 0.0838145 l 11.4104 -9.62917 c 0.764238 -0.644934 1.02455 -1.45234 0.780926 -2.42221 l -3.68803 -14.6823 c -0.243621 -0.96987 -0.847163 -1.32088 -1.81062 -1.05304 l -16.925 4.70523 c -0.963462 0.267846 -1.43989 0.901741 -1.42928 1.90169 l 0.110776 10.4413 c 0.0106089 0.999944 0.372587 1.85032 1.08593 2.55113 z" style="fill:#f0ce76;stroke:none;stroke-width:0" /><path id="roundedregionfill-22" d="m -7.6398 -35.0293 c 0.779546 -0.626345 0.990043 -1.40627 0.631489 -2.33978 l -5.51928 -14.3697 c -0.358553 -0.933509 -1.00571 -1.22395 -1.94147 -0.871315 l -25.9874 9.79311 c -0.935762 0.352633 -1.13548 0.950954 -0.599151 1.79496 l 13.0109 20.4751 c 0.536328 0.84401 1.19426 0.952842 1.97381 0.326498 z" style="fill:#f0eaac;stroke:none;stroke-width:0" /><path id="roundedregionfill-23" d="m -54.8053 8.35716 c 0.0628864 0.998021 0.592347 1.54152 1.58838 1.63049 l 14.1766 1.26634 c 0.996034 0.0889712 1.78293 -0.274645 2.3607 -1.09085 l 10.9237 -15.4318 c 0.577765 -0.816203 0.614906 -1.65631 0.111424 -2.52031 l -1.93124 -3.31413 c -0.503482 -0.864006 -1.25522 -1.29829 -2.25521 -1.30286 l -24.7903 -0.11328 c -0.99999 -0.00456948 -1.46854 0.492156 -1.40565 1.49018 z" style="fill:#f0eaac;stroke:none;stroke-width:0" /><path id="roundedregionfill-24" d="m 19.639 24.4584 c 0.0493831 0.99878 0.435396 1.84378 1.15804 2.535 l 12.3307 11.7945 c 0.722643 0.691221 1.58324 1.06381 2.58178 1.11776 l 9.26186 0.500429 c 0.998544 0.0539525 1.76181 -0.343697 2.2898 -1.19295 l 11.1531 -17.9393 c 0.52799 -0.849251 0.531541 -1.70069 0.0106534 -2.55431 l -4.04813 -6.63403 c -0.520887 -0.853625 -1.2749 -1.36035 -2.26205 -1.52017 l -17.5594 -2.84296 c -0.987146 -0.159824 -1.86284 0.0827312 -2.62708 0.727665 l -11.4104 9.62917 c -0.764238 0.644934 -1.12167 1.46679 -1.07228 2.46557 z" style="fill:#f0eaac;stroke:none;stroke-width:0" /><path id="roundedregionfill-25" d="m 3.04785 35.3246 c -0.871713 0.490017 -1.21249 1.2259 -1.02234 2.20766 l 4.34879 22.4525 c 0.190155 0.981754 0.750943 1.6546 1.68236 2.01854 l 4.60349 1.79876 c 0.931422 0.363942 1.7146 0.15963 2.34953 -0.612936 l 18.2496 -22.2055 c 0.634935 -0.772566 0.59108 -1.50446 -0.131563 -2.19568 l -12.3307 -11.7945 c -0.722643 -0.691221 -1.51982 -0.791824 -2.39153 -0.301807 z" style="fill:#f0eaac;stroke:none;stroke-width:0" /><path id="roundedregionfill-26" d="m 0.328634 35.5524 c 0.941097 0.338136 1.8475 0.262196 2.71922 -0.227821 l 15.3577 -8.63301 c 0.871713 -0.490017 1.28288 -1.23441 1.2335 -2.23319 l -0.1935 -3.91356 c -0.0493831 -0.99878 -0.430749 -1.84857 -1.1441 -2.54939 l -8.24851 -8.10353 c -0.713348 -0.70081 -1.5492 -0.90843 -2.50756 -0.622859 l -16.3296 4.86588 c -0.958358 0.285571 -1.62957 0.890009 -2.01364 1.81331 l -1.42204 3.41861 c -0.384068 0.923305 -0.364912 1.83817 0.057468 2.74459 l 4.37737 9.39373 c 0.42238 0.906419 1.10412 1.5287 2.04522 1.86683 z" style="fill:#f0ce76;stroke:none;stroke-width:0" /><path id="roundedregionfill-27" d="m -12.1625 22.1114 c -0.42238 -0.906419 -1.13136 -1.31265 -2.12694 -1.2187 l -14.6335 1.38099 c -0.995577 0.0939542 -1.6834 0.603409 -2.06348 1.52837 l -6.73582 16.3924 c -0.380074 0.924956 -0.117674 1.60027 0.7872 2.02595 l 12.314 5.79289 c 0.904874 0.425679 1.71445 0.288586 2.42872 -0.41128 l 13.9693 -13.6875 c 0.714274 -0.699866 0.860221 -1.50301 0.437841 -2.40943 z" style="fill:#f0eaac;stroke:none;stroke-width:0" /><path id="roundedregionfill-28" d="m 29.3915 -11.4164 c -0.490512 0.871435 -0.613957 1.79209 -0.370335 2.76196 l 3.68803 14.6823 c 0.243621 0.96987 0.859005 1.53472 1.84615 1.69454 l 17.5594 2.84296 c 0.987146 0.159824 1.53323 -0.257499 1.63826 -1.25197 l 2.1994 -20.8247 c 0.105031 -0.994469 -0.339251 -1.5482 -1.33285 -1.66121 l -21.2908 -2.42141 c -0.993595 -0.113002 -1.73565 0.266215 -2.22616 1.13765 z" style="fill:#f0eaac;stroke:none;stroke-width:0" /></g></g><g id="region-rounded-stroke" inkscape:label="Region Rounded Stroke" inkscape:groupmode="layer"><g id="region-rounded-stroke-group" clip-path="url(#clippath-1030)"><path id="roundedregionstroke-0" d="m 8.05667 62.0033 c -0.931422 -0.363942 -1.88519 -0.437279 -2.8613 -0.220009 l -18.9284 4.21322 c -0.976112 0.217269 -1.71417 0.758917 -2.21417 1.62494 l -3.95908 6.85732 c -0.5 0.866025 -0.559377 1.76127 -0.17813 2.68575 l 7.19576 17.4488 c 0.381246 0.924473 1.07187 1.38671 2.07187 1.38671 l 21.6336 0 c 1 0 1.69062 -0.462237 2.07187 -1.38671 l 7.19576 -17.4488 c 0.381246 -0.924473 0.32187 -1.81972 -0.17813 -2.68575 l -5.09902 -8.83176 c -0.5 -0.866025 -1.21571 -1.48101 -2.14713 -1.84495 z" style="fill:none;stroke:#000000;stroke-width:0.9" /><path id="roundedregionstroke-1" d="m 47.2612 39.2132 c -0.52799 0.849251 -0.541985 1.70689 -0.0419846 2.57291 l 7.32812 12.6927 c 0.5 0.866025 1.24562 1.36507 2.23686 1.49714 l 18.709 2.49269 c 0.991241 0.132068 1.73686 -0.234911 2.23686 -1.10094 l 10.8168 -18.7353 c 0.5 -0.866025 0.445003 -1.69524 -0.164991 -2.48765 l -11.5132 -14.9561 c -0.609994 -0.792406 -1.41499 -1.18861 -2.41499 -1.18861 l -13.7474 0 c -1 0 -1.76399 0.424625 -2.29198 1.27388 z" style="fill:none;stroke:#000000;stroke-width:0.9" /><path id="roundedregionstroke-2" d="m 62.429 -21.3268 c 0.466531 0.884505 1.1998 1.32676 2.1998 1.32676 l 9.82484 0 c 1 0 1.805 -0.396203 2.41499 -1.18861 l 11.5132 -14.9561 c 0.609994 -0.792406 0.664991 -1.62162 0.164991 -2.48765 l -10.8168 -18.7353 c -0.5 -0.866025 -1.24562 -1.233 -2.23686 -1.10094 l -18.709 2.49269 c -0.991241 0.132068 -1.73686 0.631114 -2.23686 1.49714 l -4.26906 7.39423 c -0.5 0.866025 -0.516734 1.74129 -0.0502029 2.6258 z" style="fill:none;stroke:#000000;stroke-width:0.9" /><path id="roundedregionstroke-3" d="m 19.9063 -74.4787 c 0.5 -0.866025 0.559377 -1.76127 0.17813 -2.68575 l -7.19576 -17.4488 c -0.381246 -0.924473 -1.07187 -1.38671 -2.07187 -1.38671 l -21.6336 0 c -1 0 -1.69062 0.462237 -2.07187 1.38671 l -7.19576 17.4488 c -0.381246 0.924473 -0.32187 1.81972 0.17813 2.68575 l 8.00937 13.8726 c 0.5 0.866025 1.23427 1.17459 2.2028 0.925704 l 23.2721 -5.98038 c 0.968532 -0.24889 1.7028 -0.806347 2.2028 -1.67237 z" style="fill:none;stroke:#000000;stroke-width:0.9" /><path id="roundedregionstroke-4" d="m -63.8298 -20 c 1 0 1.75838 -0.428066 2.27514 -1.2842 l 12.6018 -20.8779 c 0.516758 -0.856132 0.525137 -1.71721 0.0251367 -2.58324 l -5.61958 -9.73341 c -0.5 -0.866025 -1.24562 -1.36507 -2.23686 -1.49714 l -18.709 -2.49269 c -0.991241 -0.132068 -1.73686 0.234911 -2.23686 1.10094 l -10.8168 18.7353 c -0.5 0.866025 -0.445003 1.69524 0.164991 2.48765 l 11.5132 14.9561 c 0.609994 0.792406 1.41499 1.18861 2.41499 1.18861 z" style="fill:none;stroke:#000000;stroke-width:0.9" /><path id="roundedregionstroke-5" d="m -63.2892 21.2624 c -0.540132 -0.84158 -1.3102 -1.26237 -2.3102 -1.26237 l -8.85425 0 c -1 0 -1.805 0.396203 -2.41499 1.18861 l -11.5132 14.9561 c -0.609994 0.792406 -0.664991 1.62162 -0.164991 2.48765 l 10.8168 18.7353 c 0.5 0.866025 1.24562 1.233 2.23686 1.10094 l 18.709 -2.49269 c 0.991241 -0.132068 1.73686 -0.631114 2.23686 -1.49714 l 5.20585 -9.0168 c 0.5 -0.866025 0.479934 -1.71983 -0.0601978 -2.56141 z" style="fill:none;stroke:#000000;stroke-width:0.9" /><path id="roundedregionstroke-6" d="m 15.0097 63.1891 c -0.634935 0.772566 -0.702402 1.59186 -0.202402 2.45789 l 5.09902 8.83176 c 0.5 0.866025 1.2488 1.3336 2.24641 1.40271 l 21.0634 1.45932 c 0.997609 0.0691164 1.71589 -0.345582 2.15483 -1.24409 l 9.26791 -18.9711 c 0.438948 -0.898513 0.408422 -1.78078 -0.0915783 -2.64681 l -7.32812 -12.6927 c -0.5 -0.866025 -1.24927 -1.32601 -2.24782 -1.37997 l -9.26186 -0.500429 c -0.998544 -0.0539525 -1.81528 0.305354 -2.45022 1.07792 z" style="fill:none;stroke:#000000;stroke-width:0.9" /><path id="roundedregionstroke-7" d="m 53.753 9.31339 c -0.105031 0.994469 0.102898 1.91852 0.623785 2.77214 l 4.04813 6.63403 c 0.520887 0.853625 1.28133 1.28044 2.28133 1.28044 l 13.7474 0 c 1 0 1.77933 -0.414698 2.33799 -1.24409 l 11.7955 -17.5118 c 0.558661 -0.829396 0.558661 -1.65879 0 -2.48819 l -11.7955 -17.5118 c -0.558661 -0.829396 -1.33799 -1.24409 -2.33799 -1.24409 l -9.82484 0 c -1 0 -1.85411 0.353001 -2.56232 1.059 l -4.8942 4.87894 c -0.70821 0.706002 -1.11483 1.55624 -1.21986 2.55071 z" style="fill:none;stroke:#000000;stroke-width:0.9" /><path id="roundedregionstroke-8" d="m 48.0737 -45.4192 c 0.969729 -0.244184 1.70459 -0.799288 2.20459 -1.66531 l 4.26906 -7.39423 c 0.5 -0.866025 0.530526 -1.74829 0.0915783 -2.64681 l -9.26791 -18.9711 c -0.438948 -0.898513 -1.15723 -1.31321 -2.15483 -1.24409 l -21.0634 1.45932 c -0.997609 0.0691164 -1.74641 0.536687 -2.24641 1.40271 l -4.12551 7.14559 c -0.5 0.866025 -0.520609 1.74331 -0.0618267 2.63186 l 11.8448 22.9405 c 0.458782 0.888549 1.17304 1.21073 2.14277 0.966548 z" style="fill:none;stroke:#000000;stroke-width:0.9" /><path id="roundedregionstroke-9" d="m -19.9063 -74.4787 c -0.5 -0.866025 -1.2488 -1.3336 -2.24641 -1.40271 l -21.0634 -1.45932 c -0.997609 -0.0691164 -1.71589 0.345582 -2.15483 1.24409 l -9.26791 18.9711 c -0.438948 0.898513 -0.408422 1.78078 0.0915783 2.64681 l 5.61958 9.73341 c 0.5 0.866025 1.2418 1.38921 2.22541 1.56955 l 3.36678 0.617281 c 0.983605 0.180338 1.94329 0.094191 2.87905 -0.258442 l 25.9874 -9.79311 c 0.935762 -0.352633 1.55214 -1.00639 1.84915 -1.96126 l 1.02748 -3.30342 c 0.297002 -0.954877 0.195502 -1.86533 -0.304498 -2.73135 z" style="fill:none;stroke:#000000;stroke-width:0.9" /><path id="roundedregionstroke-10" d="m -56.0268 -11.0291 c -0.0628864 -0.998021 -0.413828 -1.88164 -1.05282 -2.65085 l -4.29172 -5.16627 c -0.638996 -0.76921 -1.45849 -1.15381 -2.45849 -1.15381 l -10.6238 0 c -1 0 -1.77933 0.414698 -2.33799 1.24409 l -11.7955 17.5118 c -0.558661 0.829396 -0.558661 1.65879 0 2.48819 l 11.7955 17.5118 c 0.558661 0.829396 1.33799 1.24409 2.33799 1.24409 l 8.85425 0 c 1 0 1.83959 -0.366985 2.51877 -1.10096 l 7.35092 -7.9439 c 0.679182 -0.73397 0.98733 -1.59997 0.924443 -2.59799 z" style="fill:none;stroke:#000000;stroke-width:0.9" /><path id="roundedregionstroke-11" d="m -47.1365 43.7983 c -0.970006 0.243083 -1.70501 0.797637 -2.20501 1.66366 l -5.20585 9.0168 c -0.5 0.866025 -0.530526 1.74829 -0.0915783 2.64681 l 9.26791 18.9711 c 0.438948 0.898513 1.15723 1.31321 2.15483 1.24409 l 21.0634 -1.45932 c 0.997609 -0.0691164 1.74641 -0.536687 2.24641 -1.40271 l 3.95908 -6.85732 c 0.5 -0.866025 0.542366 -1.75389 0.127099 -2.66359 l -6.82058 -14.9414 c -0.415267 -0.909699 -1.07534 -1.57739 -1.98021 -2.00307 l -12.314 -5.79289 c -0.904874 -0.425679 -1.84231 -0.516978 -2.81232 -0.273895 z" style="fill:none;stroke:#000000;stroke-width:0.9" /><path id="roundedregionstroke-12" d="m -29.8309 -12.406 c 0.99999 0.00456948 1.57825 -0.486982 1.73479 -1.47465 l 0.621079 -3.91873 c 0.156536 -0.987672 -0.0333596 -1.90351 -0.569687 -2.74752 l -13.0109 -20.4751 c -0.536328 -0.84401 -1.29629 -1.35618 -2.2799 -1.53652 l -3.36678 -0.617281 c -0.983605 -0.180338 -1.73379 0.157558 -2.25054 1.01369 l -12.6018 20.8779 c -0.516758 0.856132 -0.455638 1.6688 0.183358 2.43801 l 4.29172 5.16627 c 0.638996 0.76921 1.45849 1.1561 2.45848 1.16067 z" style="fill:none;stroke:#000000;stroke-width:0.9" /><path id="roundedregionstroke-13" d="m 54.6196 -13.1726 c 0.993595 0.113002 1.8445 -0.183498 2.55271 -0.8895 l 4.8942 -4.87894 c 0.70821 -0.706002 0.82905 -1.50125 0.362518 -2.38576 l -12.2009 -23.132 c -0.466531 -0.884505 -1.18466 -1.20467 -2.15439 -0.960482 l -18.3671 4.62495 c -0.969729 0.244184 -1.70821 0.797182 -2.21543 1.659 l -1.77608 3.01769 c -0.507226 0.861813 -0.590997 1.76299 -0.251314 2.70353 l 5.86511 16.2397 c 0.339683 0.94054 1.00632 1.46731 1.99992 1.58031 z" style="fill:none;stroke:#000000;stroke-width:0.9" /><path id="roundedregionstroke-14" d="m -10.7979 15.9482 c 0.384068 -0.923305 0.376662 -1.84346 -0.0222187 -2.76046 l -6.85817 -15.7665 c -0.398881 -0.917003 -1.0651 -1.55471 -1.99867 -1.91312 l -3.81193 -1.46346 c -0.933564 -0.35841 -1.68923 -0.129513 -2.26699 0.68669 l -10.9237 15.4318 c -0.577765 0.816203 -0.595164 1.64418 -0.0521972 2.48394 l 5.50104 8.50793 c 0.542966 0.839754 1.31224 1.21265 2.30781 1.1187 l 14.6335 -1.38099 c 0.995577 -0.0939542 1.6854 -0.602584 2.06947 -1.52589 z" style="fill:none;stroke:#000000;stroke-width:0.9" /><path id="roundedregionstroke-15" d="m 31.1026 -14.4563 c 0.490512 -0.871435 0.565926 -1.77742 0.226243 -2.71796 l -5.86511 -16.2397 c -0.339683 -0.94054 -0.993156 -1.28392 -1.96042 -1.03014 l -19.317 5.06821 c -0.967262 0.253781 -1.48564 0.879463 -1.55514 1.87705 l -0.941477 13.5145 c -0.069496 0.997582 0.234238 1.86438 0.911201 2.6004 l 5.2239 5.6796 c 0.676963 0.736017 1.49718 0.970102 2.46064 0.702256 l 16.925 -4.70523 c 0.963462 -0.267846 1.69045 -0.837487 2.18096 -1.70892 z" style="fill:none;stroke:#000000;stroke-width:0.9" /><path id="roundedregionstroke-16" d="m 23.5033 -34.4442 c 0.967262 -0.253781 1.70451 -0.811579 2.21173 -1.67339 l 1.77608 -3.01769 c 0.507226 -0.861813 0.531447 -1.73699 0.072665 -2.62554 l -11.8448 -22.9405 c -0.458782 -0.888549 -1.17244 -1.20838 -2.14097 -0.959489 l -23.2721 5.98038 c -0.968532 0.24889 -1.6013 0.850773 -1.8983 1.80565 l -1.02748 3.30342 c -0.297002 0.954877 -0.266226 1.89907 0.0923276 2.83258 l 5.51928 14.3697 c 0.358553 0.933509 0.93639 1.70217 1.73351 2.30599 l 6.81457 5.16205 c 0.797121 0.60382 1.67931 0.77884 2.64657 0.525058 z" style="fill:none;stroke:#000000;stroke-width:0.9" /><path id="roundedregionstroke-17" d="m -5.73987 33.372 c -0.941097 -0.338136 -1.76878 -0.157271 -2.48306 0.542595 l -13.9693 13.6875 c -0.714274 0.699866 -0.863778 1.50465 -0.448511 2.41435 l 6.82058 14.9414 c 0.415267 0.909699 1.11096 1.25591 2.08707 1.03865 l 18.9284 -4.21322 c 0.976112 -0.217269 1.36909 -0.816781 1.17894 -1.79854 l -4.34879 -22.4525 c -0.190155 -0.981754 -0.755781 -1.6417 -1.69688 -1.97984 z" style="fill:none;stroke:#000000;stroke-width:0.9" /><path id="roundedregionstroke-18" d="m -25.6444 -7.78897 c 0.503482 0.864006 1.222 1.47521 2.15557 1.83362 l 3.81193 1.46346 c 0.933564 0.35841 1.85974 0.340235 2.77852 -0.054524 l 17.1057 -7.34954 c 0.918785 -0.394759 1.41292 -1.09093 1.48242 -2.08851 l 0.941477 -13.5145 c 0.069496 -0.997582 -0.294316 -1.79828 -1.09144 -2.4021 l -6.81457 -5.16205 c -0.797121 -0.60382 -1.58545 -0.592558 -2.365 0.033787 l -18.4311 14.8089 c -0.779546 0.626345 -1.24759 1.43335 -1.40412 2.42103 l -0.621079 3.91873 c -0.156536 0.987672 0.0169368 1.91351 0.520419 2.77752 z" style="fill:none;stroke:#000000;stroke-width:0.9" /><path id="roundedregionstroke-19" d="m -53.2169 9.98765 c -0.996034 -0.0889712 -1.83364 0.233528 -2.51282 0.967498 l -7.35092 7.9439 c -0.679182 0.73397 -0.748707 1.52175 -0.208575 2.36333 l 13.8875 21.6382 c 0.540132 0.84158 1.2952 1.14083 2.26521 0.897747 l 7.38917 -1.85172 c 0.970006 -0.243083 1.64505 -0.827102 2.02512 -1.75206 l 6.73582 -16.3924 c 0.380074 -0.924956 0.298628 -1.80731 -0.244338 -2.64707 l -5.50104 -8.50793 c -0.542966 -0.839754 -1.31247 -1.30412 -2.3085 -1.39309 z" style="fill:none;stroke:#000000;stroke-width:0.9" /><path id="roundedregionstroke-20" d="m 7.54534 9.26903 c 0.958358 -0.285571 1.43223 -0.928328 1.42162 -1.92827 l -0.110776 -10.4413 c -0.0106089 -0.999944 -0.354395 -1.86792 -1.03136 -2.60394 l -5.2239 -5.6796 c -0.676963 -0.736017 -1.47484 -0.906645 -2.39362 -0.511886 l -17.1057 7.34954 c -0.918785 0.394759 -1.17874 1.05064 -0.779856 1.96764 l 6.85817 15.7665 c 0.398881 0.917003 1.0775 1.23272 2.03586 0.947148 z" style="fill:none;stroke:#000000;stroke-width:0.9" /><path id="roundedregionstroke-21" d="m 18.3014 17.9954 c 0.713348 0.70081 1.45214 0.728748 2.21638 0.0838145 l 11.4104 -9.62917 c 0.764238 -0.644934 1.02455 -1.45234 0.780926 -2.42221 l -3.68803 -14.6823 c -0.243621 -0.96987 -0.847163 -1.32088 -1.81062 -1.05304 l -16.925 4.70523 c -0.963462 0.267846 -1.43989 0.901741 -1.42928 1.90169 l 0.110776 10.4413 c 0.0106089 0.999944 0.372587 1.85032 1.08593 2.55113 z" style="fill:none;stroke:#000000;stroke-width:0.9" /><path id="roundedregionstroke-22" d="m -7.6398 -35.0293 c 0.779546 -0.626345 0.990043 -1.40627 0.631489 -2.33978 l -5.51928 -14.3697 c -0.358553 -0.933509 -1.00571 -1.22395 -1.94147 -0.871315 l -25.9874 9.79311 c -0.935762 0.352633 -1.13548 0.950954 -0.599151 1.79496 l 13.0109 20.4751 c 0.536328 0.84401 1.19426 0.952842 1.97381 0.326498 z" style="fill:none;stroke:#000000;stroke-width:0.9" /><path id="roundedregionstroke-23" d="m -54.8053 8.35716 c 0.0628864 0.998021 0.592347 1.54152 1.58838 1.63049 l 14.1766 1.26634 c 0.996034 0.0889712 1.78293 -0.274645 2.3607 -1.09085 l 10.9237 -15.4318 c 0.577765 -0.816203 0.614906 -1.65631 0.111424 -2.52031 l -1.93124 -3.31413 c -0.503482 -0.864006 -1.25522 -1.29829 -2.25521 -1.30286 l -24.7903 -0.11328 c -0.99999 -0.00456948 -1.46854 0.492156 -1.40565 1.49018 z" style="fill:none;stroke:#000000;stroke-width:0.9" /><path id="roundedregionstroke-24" d="m 19.639 24.4584 c 0.0493831 0.99878 0.435396 1.84378 1.15804 2.535 l 12.3307 11.7945 c 0.722643 0.691221 1.58324 1.06381 2.58178 1.11776 l 9.26186 0.500429 c 0.998544 0.0539525 1.76181 -0.343697 2.2898 -1.19295 l 11.1531 -17.9393 c 0.52799 -0.849251 0.531541 -1.70069 0.0106534 -2.55431 l -4.04813 -6.63403 c -0.520887 -0.853625 -1.2749 -1.36035 -2.26205 -1.52017 l -17.5594 -2.84296 c -0.987146 -0.159824 -1.86284 0.0827312 -2.62708 0.727665 l -11.4104 9.62917 c -0.764238 0.644934 -1.12167 1.46679 -1.07228 2.46557 z" style="fill:none;stroke:#000000;stroke-width:0.9" /><path id="roundedregionstroke-25" d="m 3.04785 35.3246 c -0.871713 0.490017 -1.21249 1.2259 -1.02234 2.20766 l 4.34879 22.4525 c 0.190155 0.981754 0.750943 1.6546 1.68236 2.01854 l 4.60349 1.79876 c 0.931422 0.363942 1.7146 0.15963 2.34953 -0.612936 l 18.2496 -22.2055 c 0.634935 -0.772566 0.59108 -1.50446 -0.131563 -2.19568 l -12.3307 -11.7945 c -0.722643 -0.691221 -1.51982 -0.791824 -2.39153 -0.301807 z" style="fill:none;stroke:#000000;stroke-width:0.9" /><path id="roundedregionstroke-26" d="m 0.328634 35.5524 c 0.941097 0.338136 1.8475 0.262196 2.71922 -0.227821 l 15.3577 -8.63301 c 0.871713 -0.490017 1.28288 -1.23441 1.2335 -2.23319 l -0.1935 -3.91356 c -0.0493831 -0.99878 -0.430749 -1.84857 -1.1441 -2.54939 l -8.24851 -8.10353 c -0.713348 -0.70081 -1.5492 -0.90843 -2.50756 -0.622859 l -16.3296 4.86588 c -0.958358 0.285571 -1.62957 0.890009 -2.01364 1.81331 l -1.42204 3.41861 c -0.384068 0.923305 -0.364912 1.83817 0.057468 2.74459 l 4.37737 9.39373 c 0.42238 0.906419 1.10412 1.5287 2.04522 1.86683 z" style="fill:none;stroke:#000000;stroke-width:0.9" /><path id="roundedregionstroke-27" d="m -12.1625 22.1114 c -0.42238 -0.906419 -1.13136 -1.31265 -2.12694 -1.2187 l -14.6335 1.38099 c -0.995577 0.0939542 -1.6834 0.603409 -2.06348 1.52837 l -6.73582 16.3924 c -0.380074 0.924956 -0.117674 1.60027 0.7872 2.02595 l 12.314 5.79289 c 0.904874 0.425679 1.71445 0.288586 2.42872 -0.41128 l 13.9693 -13.6875 c 0.714274 -0.699866 0.860221 -1.50301 0.437841 -2.40943 z" style="fill:none;stroke:#000000;stroke-width:0.9" /><path id="roundedregionstroke-28" d="m 29.3915 -11.4164 c -0.490512 0.871435 -0.613957 1.79209 -0.370335 2.76196 l 3.68803 14.6823 c 0.243621 0.96987 0.859005 1.53472 1.84615 1.69454 l 17.5594 2.84296 c 0.987146 0.159824 1.53323 -0.257499 1.63826 -1.25197 l 2.1994 -20.8247 c 0.105031 -0.994469 -0.339251 -1.5482 -1.33285 -1.66121 l -21.2908 -2.42141 c -0.993595 -0.113002 -1.73565 0.266215 -2.22616 1.13765 z" style="fill:none;stroke:#000000;stroke-width:0.9" /></g></g><g id="region" inkscape:label="Region" inkscape:groupmode="layer" style="display:none"><path id="region-0" d="m 6.65954 61.4574 -21.8568 4.86502 -5.45908 9.4554 8.3395 20.2222 24.6336 0 8.3395 -20.2222 -6.59902 -11.4298 z" style="fill:#ffffff;stroke:#000000;stroke-width:0.3" /><path id="region-1" d="m 46.4692 40.487 8.82812 15.2907 21.6827 2.88889 12.3168 -21.3333 -13.3432 -17.3333 -16.7474 0 z" style="fill:#ffffff;stroke:#000000;stroke-width:0.3" /><path id="region-2" d="m 49.5283 -45.7855 5.76906 -9.99231 21.6827 -2.88889 12.3168 21.3333 -13.3432 17.3333 -12.8248 0 z" style="fill:#ffffff;stroke:#000000;stroke-width:0.3" /><path id="region-3" d="m 20.6563 -75.7778 -8.3395 -20.2222 -24.6336 0 -8.3395 20.2222 9.50937 16.4707 26.1777 -6.72705 z" style="fill:#ffffff;stroke:#000000;stroke-width:0.3" /><path id="region-4" d="m -75.9536 -20 -13.3432 -17.3333 12.3168 -21.3333 21.6827 2.88889 7.11958 12.3315 -14.1521 23.4463 z" style="fill:#ffffff;stroke:#000000;stroke-width:0.3" /><path id="region-5" d="m -64.0994 20 -11.8542 0 -13.3432 17.3333 12.3168 21.3333 21.6827 -2.88889 6.70585 -11.6149 z" style="fill:#ffffff;stroke:#000000;stroke-width:0.3" /><path id="region-6" d="m 14.0573 64.3479 6.59902 11.4298 24.0563 1.66667 10.5848 -21.6667 -8.82812 -15.2907 -12.2575 -0.662286 z" style="fill:#ffffff;stroke:#000000;stroke-width:0.3" /><path id="region-7" d="m 56.11 -13.0031 7.01883 -6.99695 12.8248 0 13.4715 20 -13.4715 20 -16.7474 0 -5.61079 -9.19491 z" style="fill:#ffffff;stroke:#000000;stroke-width:0.3" /><path id="region-8" d="m 28.252 -40.428 -13.2212 -25.6061 5.62551 -9.74367 24.0563 -1.66667 10.5848 21.6667 -5.76906 9.99231 z" style="fill:#ffffff;stroke:#000000;stroke-width:0.3" /><path id="region-9" d="m -11.1469 -59.3071 -1.91849 6.16805 -28.7947 10.851 -6.3176 -1.1583 -7.11958 -12.3315 10.5848 -21.6667 24.0563 1.66667 z" style="fill:#ffffff;stroke:#000000;stroke-width:0.3" /><path id="region-10" d="m -54.7109 9.85419 -9.38846 10.1458 -11.8542 0 -13.4715 -20 13.4715 -20 13.6238 0 6.2087 7.4739 z" style="fill:#ffffff;stroke:#000000;stroke-width:0.3" /><path id="region-11" d="m -48.5915 44.1629 -6.70585 11.6149 10.5848 21.6667 24.0563 -1.66667 5.45908 -9.4554 -8.06639 -17.6705 -15.0287 -7.06992 z" style="fill:#ffffff;stroke:#000000;stroke-width:0.3" /><path id="region-12" d="m -56.1211 -12.5261 -6.2087 -7.4739 14.1521 -23.4463 6.3176 1.1583 14.6199 23.0071 -1.09069 6.88175 z" style="fill:#ffffff;stroke:#000000;stroke-width:0.3" /><path id="region-13" d="m 31.8384 -15.7635 -6.88416 -19.0614 3.29776 -5.60313 21.2763 -5.3575 13.6005 25.7855 -7.01883 6.99695 z" style="fill:#ffffff;stroke:#000000;stroke-width:0.3" /><path id="region-14" d="m -12.796 20.7518 -17.6202 1.66285 -7.12994 -11.0272 12.657 -17.8804 6.61263 2.53869 8.05482 18.5175 z" style="fill:#ffffff;stroke:#000000;stroke-width:0.3" /><path id="region-15" d="m 31.8384 -15.7635 -6.88416 -19.0614 -22.2188 5.82955 -1.14996 16.5072 7.25479 7.88765 19.8154 -5.50877 z" style="fill:#ffffff;stroke:#000000;stroke-width:0.3" /><path id="region-16" d="m 24.9542 -34.8248 3.29776 -5.60313 -13.2212 -25.6061 -26.1777 6.72705 -1.91849 6.16805 6.59494 17.1702 9.20593 6.97351 z" style="fill:#ffffff;stroke:#000000;stroke-width:0.3" /><path id="region-17" d="m 1.74028 36.0596 4.91926 25.3978 -21.8568 4.86502 -8.06639 -17.6705 16.1121 -15.7871 z" style="fill:#ffffff;stroke:#000000;stroke-width:0.3" /><path id="region-18" d="m -24.8892 -6.49296 6.61263 2.53869 19.8621 -8.53381 1.14996 -16.5072 -9.20593 -6.97351 -20.7697 16.6879 -1.09069 6.88175 z" style="fill:#ffffff;stroke:#000000;stroke-width:0.3" /><path id="region-19" d="m -54.7109 9.85419 -9.38846 10.1458 15.5079 24.1629 10.2992 -2.58097 7.87604 -19.1673 -7.12994 -11.0272 z" style="fill:#ffffff;stroke:#000000;stroke-width:0.3" /><path id="region-20" d="m -10.2218 14.5633 -8.05482 -18.5175 19.8621 -8.53381 7.25479 7.88765 0.142603 13.4411 z" style="fill:#ffffff;stroke:#000000;stroke-width:0.3" /><path id="region-21" d="m 8.98288 8.84067 -0.142603 -13.4411 19.8154 -5.50877 4.41889 17.5919 -13.7032 11.564 z" style="fill:#ffffff;stroke:#000000;stroke-width:0.3" /><path id="region-22" d="m -27.2402 -19.2809 -14.6199 -23.0071 28.7947 -10.851 6.59494 17.1702 z" style="fill:#ffffff;stroke:#000000;stroke-width:0.3" /><path id="region-23" d="m -54.7109 9.85419 17.1647 1.53325 12.657 -17.8804 -3.44169 -5.90615 -27.7902 -0.126988 z" style="fill:#ffffff;stroke:#000000;stroke-width:0.3" /><path id="region-24" d="m 19.7131 25.9565 14.4986 13.8682 12.2575 0.662286 12.737 -20.487 -5.61079 -9.19491 -20.5209 -3.32243 -13.7032 11.564 z" style="fill:#ffffff;stroke:#000000;stroke-width:0.3" /><path id="region-25" d="m 1.74028 36.0596 4.91926 25.3978 7.39775 2.89059 20.1544 -24.5232 -14.4986 -13.8682 z" style="fill:#ffffff;stroke:#000000;stroke-width:0.3" /><path id="region-26" d="m 1.74028 36.0596 17.9728 -10.1031 -0.341649 -6.9099 -10.3886 -10.206 -19.2047 5.72259 -2.57425 6.18852 5.64451 12.113 z" style="fill:#ffffff;stroke:#000000;stroke-width:0.3" /><path id="region-27" d="m -7.15152 32.8648 -16.1121 15.7871 -15.0287 -7.06992 7.87604 -19.1673 17.6202 -1.66285 z" style="fill:#ffffff;stroke:#000000;stroke-width:0.3" /><path id="region-28" d="m 31.8384 -15.7635 24.2716 2.76042 -2.5145 23.8081 -20.5209 -3.32243 -4.41889 -17.5919 z" style="fill:#ffffff;stroke:#000000;stroke-width:0.3" /></g><g id="unmod-region" inkscape:label="Unmodified Region" inkscape:groupmode="layer" style="display:none"><path id="unmodregion-0" d="m 6.65954 61.4574 -21.8568 4.86502 -5.45908 9.4554 8.3395 20.2222 24.6336 0 8.3395 -20.2222 -6.59902 -11.4298 z" style="fill:#ffffff;stroke:#000000;stroke-width:0.3" /><path id="unmodregion-1" d="m 46.4692 40.487 8.82812 15.2907 21.6827 2.88889 12.3168 -21.3333 -13.3432 -17.3333 -16.7474 0 z" style="fill:#ffffff;stroke:#000000;stroke-width:0.3" /><path id="unmodregion-2" d="m 49.5283 -45.7855 5.76906 -9.99231 21.6827 -2.88889 12.3168 21.3333 -13.3432 17.3333 -12.8248 0 z" style="fill:#ffffff;stroke:#000000;stroke-width:0.3" /><path id="unmodregion-3" d="m 20.6563 -75.7778 -8.3395 -20.2222 -24.6336 0 -8.3395 20.2222 9.50937 16.4707 26.1777 -6.72705 z" style="fill:#ffffff;stroke:#000000;stroke-width:0.3" /><path id="unmodregion-4" d="m -75.9536 -20 -13.3432 -17.3333 12.3168 -21.3333 21.6827 2.88889 7.11958 12.3315 -14.1521 23.4463 z" style="fill:#ffffff;stroke:#000000;stroke-width:0.3" /><path id="unmodregion-5" d="m -64.0994 20 -11.8542 0 -13.3432 17.3333 12.3168 21.3333 21.6827 -2.88889 6.70585 -11.6149 z" style="fill:#ffffff;stroke:#000000;stroke-width:0.3" /><path id="unmodregion-6" d="m 14.0573 64.3479 6.59902 11.4298 24.0563 1.66667 10.5848 -21.6667 -8.82812 -15.2907 -12.2575 -0.662286 z" style="fill:#ffffff;stroke:#000000;stroke-width:0.3" /><path id="unmodregion-7" d="m 56.11 -13.0031 7.01883 -6.99695 12.8248 0 13.4715 20 -13.4715 20 -16.7474 0 -5.61079 -9.19491 z" style="fill:#ffffff;stroke:#000000;stroke-width:0.3" /><path id="unmodregion-8" d="m 28.252 -40.428 -13.2212 -25.6061 5.62551 -9.74367 24.0563 -1.66667 10.5848 21.6667 -5.76906 9.99231 z" style="fill:#ffffff;stroke:#000000;stroke-width:0.3" /><path id="unmodregion-9" d="m -11.1469 -59.3071 -1.91849 6.16805 -28.7947 10.851 -6.3176 -1.1583 -7.11958 -12.3315 10.5848 -21.6667 24.0563 1.66667 z" style="fill:#ffffff;stroke:#000000;stroke-width:0.3" /><path id="unmodregion-10" d="m -54.7109 9.85419 -9.38846 10.1458 -11.8542 0 -13.4715 -20 13.4715 -20 13.6238 0 6.2087 7.4739 z" style="fill:#ffffff;stroke:#000000;stroke-width:0.3" /><path id="unmodregion-11" d="m -48.5915 44.1629 -6.70585 11.6149 10.5848 21.6667 24.0563 -1.66667 5.45908 -9.4554 -8.06639 -17.6705 -15.0287 -7.06992 z" style="fill:#ffffff;stroke:#000000;stroke-width:0.3" /><path id="unmodregion-12" d="m -56.1211 -12.5261 -6.2087 -7.4739 14.1521 -23.4463 6.3176 1.1583 14.6199 23.0071 -1.09069 6.88175 z" style="fill:#ffffff;stroke:#000000;stroke-width:0.3" /><path id="unmodregion-13" d="m 31.8384 -15.7635 -6.88416 -19.0614 3.29776 -5.60313 21.2763 -5.3575 13.6005 25.7855 -7.01883 6.99695 z" style="fill:#ffffff;stroke:#000000;stroke-width:0.3" /><path id="unmodregion-14" d="m -12.796 20.7518 -17.6202 1.66285 -7.12994 -11.0272 12.657 -17.8804 6.61263 2.53869 8.05482 18.5175 z" style="fill:#ffffff;stroke:#000000;stroke-width:0.3" /><path id="unmodregion-15" d="m 31.8384 -15.7635 -6.88416 -19.0614 -22.2188 5.82955 -1.14996 16.5072 7.25479 7.88765 19.8154 -5.50877 z" style="fill:#ffffff;stroke:#000000;stroke-width:0.3" /><path id="unmodregion-16" d="m 24.9542 -34.8248 3.29776 -5.60313 -13.2212 -25.6061 -26.1777 6.72705 -1.91849 6.16805 6.59494 17.1702 9.20593 6.97351 z" style="fill:#ffffff;stroke:#000000;stroke-width:0.3" /><path id="unmodregion-17" d="m 1.74028 36.0596 4.91926 25.3978 -21.8568 4.86502 -8.06639 -17.6705 16.1121 -15.7871 z" style="fill:#ffffff;stroke:#000000;stroke-width:0.3" /><path id="unmodregion-18" d="m -24.8892 -6.49296 6.61263 2.53869 19.8621 -8.53381 1.14996 -16.5072 -9.20593 -6.97351 -20.7697 16.6879 -1.09069 6.88175 z" style="fill:#ffffff;stroke:#000000;stroke-width:0.3" /><path id="unmodregion-19" d="m -54.7109 9.85419 -9.38846 10.1458 15.5079 24.1629 10.2992 -2.58097 7.87604 -19.1673 -7.12994 -11.0272 z" style="fill:#ffffff;stroke:#000000;stroke-width:0.3" /><path id="unmodregion-20" d="m -10.2218 14.5633 -8.05482 -18.5175 19.8621 -8.53381 7.25479 7.88765 0.142603 13.4411 z" style="fill:#ffffff;stroke:#000000;stroke-width:0.3" /><path id="unmodregion-21" d="m 8.98288 8.84067 -0.142603 -13.4411 19.8154 -5.50877 4.41889 17.5919 -13.7032 11.564 z" style="fill:#ffffff;stroke:#000000;stroke-width:0.3" /><path id="unmodregion-22" d="m -27.2402 -19.2809 -14.6199 -23.0071 28.7947 -10.851 6.59494 17.1702 z" style="fill:#ffffff;stroke:#000000;stroke-width:0.3" /><path id="unmodregion-23" d="m -54.7109 9.85419 17.1647 1.53325 12.657 -17.8804 -3.44169 -5.90615 -27.7902 -0.126988 z" style="fill:#ffffff;stroke:#000000;stroke-width:0.3" /><path id="unmodregion-24" d="m 19.7131 25.9565 14.4986 13.8682 12.2575 0.662286 12.737 -20.487 -5.61079 -9.19491 -20.5209 -3.32243 -13.7032 11.564 z" style="fill:#ffffff;stroke:#000000;stroke-width:0.3" /><path id="unmodregion-25" d="m 1.74028 36.0596 4.91926 25.3978 7.39775 2.89059 20.1544 -24.5232 -14.4986 -13.8682 z" style="fill:#ffffff;stroke:#000000;stroke-width:0.3" /><path id="unmodregion-26" d="m 1.74028 36.0596 17.9728 -10.1031 -0.341649 -6.9099 -10.3886 -10.206 -19.2047 5.72259 -2.57425 6.18852 5.64451 12.113 z" style="fill:#ffffff;stroke:#000000;stroke-width:0.3" /><path id="unmodregion-27" d="m -7.15152 32.8648 -16.1121 15.7871 -15.0287 -7.06992 7.87604 -19.1673 17.6202 -1.66285 z" style="fill:#ffffff;stroke:#000000;stroke-width:0.3" /><path id="unmodregion-28" d="m 31.8384 -15.7635 24.2716 2.76042 -2.5145 23.8081 -20.5209 -3.32243 -4.41889 -17.5919 z" style="fill:#ffffff;stroke:#000000;stroke-width:0.3" /></g><g id="seeds" inkscape:label="Seeds" inkscape:groupmode="layer" style="display:none"><circle id="seed-0" cx="0.0" cy="80.0" r="1.0" style="fill:#000000;stroke:none;stroke-width:0" /><circle id="seed-1" cx="69.28203230275508" cy="40.0" r="1.0" style="fill:#000000;stroke:none;stroke-width:0" /><circle id="seed-2" cx="69.28203230275508" cy="-40.0" r="1.0" style="fill:#000000;stroke:none;stroke-width:0" /><circle id="seed-3" cx="0.0" cy="-80.0" r="1.0" style="fill:#000000;stroke:none;stroke-width:0" /><circle id="seed-4" cx="-69.28203230275508" cy="-40.0" r="1.0" style="fill:#000000;stroke:none;stroke-width:0" /><circle id="seed-5" cx="-69.28203230275508" cy="40.0" r="1.0" style="fill:#000000;stroke:none;stroke-width:0" /><circle id="seed-6" cx="34.64101615137754" cy="60.0" r="1.0" style="fill:#000000;stroke:none;stroke-width:0" /><circle id="seed-7" cx="69.28203230275508" cy="0.0" r="1.0" style="fill:#000000;stroke:none;stroke-width:0" /><circle id="seed-8" cx="34.64101615137754" cy="-60.0" r="1.0" style="fill:#000000;stroke:none;stroke-width:0" /><circle id="seed-9" cx="-34.64101615137754" cy="-60.0" r="1.0" style="fill:#000000;stroke:none;stroke-width:0" /><circle id="seed-10" cx="-69.28203230275508" cy="0.0" r="1.0" style="fill:#000000;stroke:none;stroke-width:0" /><circle id="seed-11" cx="-34.64101615137754" cy="60.0" r="1.0" style="fill:#000000;stroke:none;stroke-width:0" /><circle id="seed-12" cx="-41.39414018459701" cy="-23.166975122144965" r="1.0" style="fill:#000000;stroke:none;stroke-width:0" /><circle id="seed-13" cx="43.1481083949211" cy="-26.21567762173047" r="1.0" style="fill:#000000;stroke:none;stroke-width:0" /><circle id="seed-14" cx="-23.843129433504444" cy="10.741995775866826" r="1.0" style="fill:#000000;stroke:none;stroke-width:0" /><circle id="seed-15" cx="16.459894285804445" cy="-16.5770253468892" r="1.0" style="fill:#000000;stroke:none;stroke-width:0" /><circle id="seed-16" cx="8.595359212645324" cy="-46.551910458468875" r="1.0" style="fill:#000000;stroke:none;stroke-width:0" /><circle id="seed-17" cx="-7.236278730283949" cy="47.49005557564016" r="1.0" style="fill:#000000;stroke:none;stroke-width:0" /><circle id="seed-18" cx="-12.578294628446017" cy="-18.59995402264838" r="1.0" style="fill:#000000;stroke:none;stroke-width:0" /><circle id="seed-19" cx="-43.75816033066627" cy="23.618609822253276" r="1.0" style="fill:#000000;stroke:none;stroke-width:0" /><circle id="seed-20" cx="-3.7303374345282188" cy="1.993269423218337" r="1.0" style="fill:#000000;stroke:none;stroke-width:0" /><circle id="seed-21" cx="21.54795469212699" cy="1.7250799812712752" r="1.0" style="fill:#000000;stroke:none;stroke-width:0" /><circle id="seed-22" cx="-24.747189366720058" cy="-33.74530844339152" r="1.0" style="fill:#000000;stroke:none;stroke-width:0" /><circle id="seed-23" cx="-41.492000710520415" cy="-1.7510797553621316" r="1.0" style="fill:#000000;stroke:none;stroke-width:0" /><circle id="seed-24" cx="36.81235526161932" cy="19.813197662613245" r="1.0" style="fill:#000000;stroke:none;stroke-width:0" /><circle id="seed-25" cx="14.335469995343706" cy="43.311853672544245" r="1.0" style="fill:#000000;stroke:none;stroke-width:0" /><circle id="seed-26" cx="2.091187692576325" cy="21.52993064309841" r="1.0" style="fill:#000000;stroke:none;stroke-width:0" /><circle id="seed-27" cx="-21.775491175939624" cy="32.651519586637555" r="1.0" style="fill:#000000;stroke:none;stroke-width:0" /><circle id="seed-28" cx="40.512164398239705" cy="-3.0385290518497854" r="1.0" style="fill:#000000;stroke:none;stroke-width:0" /></g><g id="seed_exclusion" inkscape:label="Seed Exclusion" inkscape:groupmode="layer" style="display:none"><circle id="seed-ex-0" cx="0.0" cy="80.0" r="24.0" style="fill:#800000;stroke:none;stroke-width:0;fill-opacity:0.15" /><circle id="seed-ex-1" cx="69.28203230275508" cy="40.0" r="24.0" style="fill:#800000;stroke:none;stroke-width:0;fill-opacity:0.15" /><circle id="seed-ex-2" cx="69.28203230275508" cy="-40.0" r="24.0" style="fill:#800000;stroke:none;stroke-width:0;fill-opacity:0.15" /><circle id="seed-ex-3" cx="0.0" cy="-80.0" r="24.0" style="fill:#800000;stroke:none;stroke-width:0;fill-opacity:0.15" /><circle id="seed-ex-4" cx="-69.28203230275508" cy="-40.0" r="24.0" style="fill:#800000;stroke:none;stroke-width:0;fill-opacity:0.15" /><circle id="seed-ex-5" cx="-69.28203230275508" cy="40.0" r="24.0" style="fill:#800000;stroke:none;stroke-width:0;fill-opacity:0.15" /><circle id="seed-ex-6" cx="34.64101615137754" cy="60.0" r="24.0" style="fill:#800000;stroke:none;stroke-width:0;fill-opacity:0.15" /><circle id="seed-ex-7" cx="69.28203230275508" cy="0.0" r="24.0" style="fill:#800000;stroke:none;stroke-width:0;fill-opacity:0.15" /><circle id="seed-ex-8" cx="34.64101615137754" cy="-60.0" r="24.0" style="fill:#800000;stroke:none;stroke-width:0;fill-opacity:0.15" /><circle id="seed-ex-9" cx="-34.64101615137754" cy="-60.0" r="24.0" style="fill:#800000;stroke:none;stroke-width:0;fill-opacity:0.15" /><circle id="seed-ex-10" cx="-69.28203230275508" cy="0.0" r="24.0" style="fill:#800000;stroke:none;stroke-width:0;fill-opacity:0.15" /><circle id="seed-ex-11" cx="-34.64101615137754" cy="60.0" r="24.0" style="fill:#800000;stroke:none;stroke-width:0;fill-opacity:0.15" /><circle id="seed-ex-12" cx="-41.39414018459701" cy="-23.166975122144965" r="20.77978359569004" style="fill:#800000;stroke:none;stroke-width:0;fill-opacity:0.15" /><circle id="seed-ex-13" cx="43.1481083949211" cy="-26.21567762173047" r="21.112724961856134" style="fill:#800000;stroke:none;stroke-width:0;fill-opacity:0.15" /><circle id="seed-ex-14" cx="-23.843129433504444" cy="10.741995775866826" r="18.75316743935138" style="fill:#800000;stroke:none;stroke-width:0;fill-opacity:0.15" /><circle id="seed-ex-15" cx="16.459894285804445" cy="-16.5770253468892" r="18.60801497436312" style="fill:#800000;stroke:none;stroke-width:0;fill-opacity:0.15" /><circle id="seed-ex-16" cx="8.595359212645324" cy="-46.551910458468875" r="21.151444341367117" style="fill:#800000;stroke:none;stroke-width:0;fill-opacity:0.15" /><circle id="seed-ex-17" cx="-7.236278730283949" cy="47.49005557564016" r="21.166792304850077" style="fill:#800000;stroke:none;stroke-width:0;fill-opacity:0.15" /><circle id="seed-ex-18" cx="-12.578294628446017" cy="-18.59995402264838" r="18.58620358123281" style="fill:#800000;stroke:none;stroke-width:0;fill-opacity:0.15" /><circle id="seed-ex-19" cx="-43.75816033066627" cy="23.618609822253276" r="21.052757129230596" style="fill:#800000;stroke:none;stroke-width:0;fill-opacity:0.15" /><circle id="seed-ex-20" cx="-3.7303374345282188" cy="1.993269423218337" r="16.4307422643986" style="fill:#800000;stroke:none;stroke-width:0;fill-opacity:0.15" /><circle id="seed-ex-21" cx="21.54795469212699" cy="1.7250799812712752" r="18.48814348839708" style="fill:#800000;stroke:none;stroke-width:0;fill-opacity:0.15" /><circle id="seed-ex-22" cx="-24.747189366720058" cy="-33.74530844339152" r="20.8033104885954" style="fill:#800000;stroke:none;stroke-width:0;fill-opacity:0.15" /><circle id="seed-ex-23" cx="-41.492000710520415" cy="-1.7510797553621316" r="20.79108355588702" style="fill:#800000;stroke:none;stroke-width:0;fill-opacity:0.15" /><circle id="seed-ex-24" cx="36.81235526161932" cy="19.813197662613245" r="20.250724643960012" style="fill:#800000;stroke:none;stroke-width:0;fill-opacity:0.15" /><circle id="seed-ex-25" cx="14.335469995343706" cy="43.311853672544245" r="21.158844113331575" style="fill:#800000;stroke:none;stroke-width:0;fill-opacity:0.15" /><circle id="seed-ex-26" cx="2.091187692576325" cy="21.52993064309841" r="18.273727842033338" style="fill:#800000;stroke:none;stroke-width:0;fill-opacity:0.15" /><circle id="seed-ex-27" cx="-21.775491175939624" cy="32.651519586637555" r="20.522360527880263" style="fill:#800000;stroke:none;stroke-width:0;fill-opacity:0.15" /><circle id="seed-ex-28" cx="40.512164398239705" cy="-3.0385290518497854" r="20.677941804155616" style="fill:#800000;stroke:none;stroke-width:0;fill-opacity:0.15" /></g><g id="margin_exclusion" inkscape:label="Margin Exclusion" inkscape:groupmode="layer" style="display:none"><circle id="circle1031" cx="17.32050807568877" cy="70.0" r="22.0" style="fill:#000080;stroke:none;stroke-width:0;fill-opacity:0.15" /><circle id="circle1032" cx="51.96152422706631" cy="50.0" r="22.0" style="fill:#000080;stroke:none;stroke-width:0;fill-opacity:0.15" /><circle id="circle1033" cx="69.28203230275508" cy="20.0" r="22.0" style="fill:#000080;stroke:none;stroke-width:0;fill-opacity:0.15" /><circle id="circle1034" cx="69.28203230275508" cy="-20.0" r="22.0" style="fill:#000080;stroke:none;stroke-width:0;fill-opacity:0.15" /><circle id="circle1035" cx="51.96152422706631" cy="-50.0" r="22.0" style="fill:#000080;stroke:none;stroke-width:0;fill-opacity:0.15" /><circle id="circle1036" cx="17.32050807568877" cy="-70.0" r="22.0" style="fill:#000080;stroke:none;stroke-width:0;fill-opacity:0.15" /><circle id="circle1037" cx="-17.32050807568877" cy="-70.0" r="22.0" style="fill:#000080;stroke:none;stroke-width:0;fill-opacity:0.15" /><circle id="circle1038" cx="-51.96152422706631" cy="-50.0" r="22.0" style="fill:#000080;stroke:none;stroke-width:0;fill-opacity:0.15" /><circle id="circle1039" cx="-69.28203230275508" cy="-20.0" r="22.0" style="fill:#000080;stroke:none;stroke-width:0;fill-opacity:0.15" /><circle id="circle1040" cx="-69.28203230275508" cy="20.0" r="22.0" style="fill:#000080;stroke:none;stroke-width:0;fill-opacity:0.15" /><circle id="circle1041" cx="-51.96152422706631" cy="50.0" r="22.0" style="fill:#000080;stroke:none;stroke-width:0;fill-opacity:0.15" /><circle id="circle1042" cx="-17.32050807568877" cy="70.0" r="22.0" style="fill:#000080;stroke:none;stroke-width:0;fill-opacity:0.15" /></g><g id="circles" inkscape:label="Inscribed Circles" inkscape:groupmode="layer" style="display:none"><circle id="incircle-0" cx="0.0" cy="80.0" r="16.65277916998635" style="fill:#008000;stroke:none;stroke-width:0;fill-opacity:0.15" /><circle id="incircle-ctr-0" cx="0.0" cy="80.0" r="0.5" style="fill:#000000;stroke:none;stroke-width:0" /><circle id="incircle-1" cx="69.28203230275508" cy="40.0" r="19.116661030135347" style="fill:#008000;stroke:none;stroke-width:0;fill-opacity:0.15" /><circle id="incircle-ctr-1" cx="69.28203230275508" cy="40.0" r="0.5" style="fill:#000000;stroke:none;stroke-width:0" /><circle id="incircle-2" cx="69.28203230275508" cy="-40.0" r="14.77319804788827" style="fill:#008000;stroke:none;stroke-width:0;fill-opacity:0.15" /><circle id="incircle-ctr-2" cx="69.28203230275508" cy="-40.0" r="0.5" style="fill:#000000;stroke:none;stroke-width:0" /><circle id="incircle-3" cx="0.0" cy="-80.0" r="17.267417974126083" style="fill:#008000;stroke:none;stroke-width:0;fill-opacity:0.15" /><circle id="incircle-ctr-3" cx="0.0" cy="-80.0" r="0.5" style="fill:#000000;stroke:none;stroke-width:0" /><circle id="incircle-4" cx="-69.28203230275508" cy="-40.0" r="16.287151787010732" style="fill:#008000;stroke:none;stroke-width:0;fill-opacity:0.15" /><circle id="incircle-ctr-4" cx="-69.28203230275508" cy="-40.0" r="0.5" style="fill:#000000;stroke:none;stroke-width:0" /><circle id="incircle-5" cx="-69.28203230275508" cy="40.0" r="15.164250596412247" style="fill:#008000;stroke:none;stroke-width:0;fill-opacity:0.15" /><circle id="incircle-ctr-5" cx="-69.28203230275508" cy="40.0" r="0.5" style="fill:#000000;stroke:none;stroke-width:0" /><circle id="incircle-6" cx="34.64101615137754" cy="60.0" r="13.141626921174906" style="fill:#008000;stroke:none;stroke-width:0;fill-opacity:0.15" /><circle id="incircle-ctr-6" cx="34.64101615137754" cy="60.0" r="0.5" style="fill:#000000;stroke:none;stroke-width:0" /><circle id="incircle-7" cx="69.28203230275508" cy="0.0" r="14.464940010610132" style="fill:#008000;stroke:none;stroke-width:0;fill-opacity:0.15" /><circle id="incircle-ctr-7" cx="69.28203230275508" cy="0.0" r="0.5" style="fill:#000000;stroke:none;stroke-width:0" /><circle id="incircle-8" cx="34.64101615137754" cy="-60.0" r="14.656290097490299" style="fill:#008000;stroke:none;stroke-width:0;fill-opacity:0.15" /><circle id="incircle-ctr-8" cx="34.64101615137754" cy="-60.0" r="0.5" style="fill:#000000;stroke:none;stroke-width:0" /><circle id="incircle-9" cx="-34.64101615137754" cy="-60.0" r="14.028512369255823" style="fill:#008000;stroke:none;stroke-width:0;fill-opacity:0.15" /><circle id="incircle-ctr-9" cx="-34.64101615137754" cy="-60.0" r="0.5" style="fill:#000000;stroke:none;stroke-width:0" /><circle id="incircle-10" cx="-69.28203230275508" cy="0.0" r="13.9225728244373" style="fill:#008000;stroke:none;stroke-width:0;fill-opacity:0.15" /><circle id="incircle-ctr-10" cx="-69.28203230275508" cy="0.0" r="0.5" style="fill:#000000;stroke:none;stroke-width:0" /><circle id="incircle-11" cx="-34.64101615137754" cy="60.0" r="15.062522552843365" style="fill:#008000;stroke:none;stroke-width:0;fill-opacity:0.15" /><circle id="incircle-ctr-11" cx="-34.64101615137754" cy="60.0" r="0.5" style="fill:#000000;stroke:none;stroke-width:0" /><circle id="incircle-12" cx="-45.20906145944787" cy="-24.48112614877597" r="12.004764577395616" style="fill:#008000;stroke:none;stroke-width:0;fill-opacity:0.15" /><circle id="incircle-ctr-12" cx="-45.20906145944787" cy="-24.48112614877597" r="0.5" style="fill:#000000;stroke:none;stroke-width:0" /><circle id="incircle-13" cx="42.37202955214385" cy="-29.05805963388546" r="14.133582830761332" style="fill:#008000;stroke:none;stroke-width:0;fill-opacity:0.15" /><circle id="incircle-ctr-13" cx="42.37202955214385" cy="-29.05805963388546" r="0.5" style="fill:#000000;stroke:none;stroke-width:0" /><circle id="incircle-14" cx="-23.890760029401466" cy="10.748907281289263" r="10.776680143952749" style="fill:#008000;stroke:none;stroke-width:0;fill-opacity:0.15" /><circle id="incircle-ctr-14" cx="-23.890760029401466" cy="10.748907281289263" r="0.5" style="fill:#000000;stroke:none;stroke-width:0" /><circle id="incircle-15" cx="17.116930257701608" cy="-19.796282901086904" r="12.423743979470089" style="fill:#008000;stroke:none;stroke-width:0;fill-opacity:0.15" /><circle id="incircle-ctr-15" cx="17.116930257701608" cy="-19.796282901086904" r="0.5" style="fill:#000000;stroke:none;stroke-width:0" /><circle id="incircle-16" cx="6.49051547849831" cy="-46.88782884294438" r="16.01426712387623" style="fill:#008000;stroke:none;stroke-width:0;fill-opacity:0.15" /><circle id="incircle-ctr-16" cx="6.49051547849831" cy="-46.88782884294438" r="0.5" style="fill:#000000;stroke:none;stroke-width:0" /><circle id="incircle-17" cx="-7.979097998258421" cy="51.87771076469348" r="12.531329600550876" style="fill:#008000;stroke:none;stroke-width:0;fill-opacity:0.15" /><circle id="incircle-ctr-17" cx="-7.979097998258421" cy="51.87771076469348" r="0.5" style="fill:#000000;stroke:none;stroke-width:0" /><circle id="incircle-18" cx="-9.049803903870396" cy="-19.48019645404365" r="10.622623339784994" style="fill:#008000;stroke:none;stroke-width:0;fill-opacity:0.15" /><circle id="incircle-ctr-18" cx="-9.049803903870396" cy="-19.48019645404365" r="0.5" style="fill:#000000;stroke:none;stroke-width:0" /><circle id="incircle-19" cx="-45.41261736646362" cy="24.123974287428716" r="13.22131287278075" style="fill:#008000;stroke:none;stroke-width:0;fill-opacity:0.15" /><circle id="incircle-ctr-19" cx="-45.41261736646362" cy="24.123974287428716" r="0.5" style="fill:#000000;stroke:none;stroke-width:0" /><circle id="incircle-20" cx="-2.0143832306157483" cy="0.7832701002897231" r="10.772434896396362" style="fill:#008000;stroke:none;stroke-width:0;fill-opacity:0.15" /><circle id="incircle-ctr-20" cx="-2.0143832306157483" cy="0.7832701002897231" r="0.5" style="fill:#000000;stroke:none;stroke-width:0" /><circle id="incircle-21" cx="20.048334306797788" cy="3.8384403001087453" r="11.11790100313613" style="fill:#008000;stroke:none;stroke-width:0;fill-opacity:0.15" /><circle id="incircle-ctr-21" cx="20.048334306797788" cy="3.8384403001087453" r="0.5" style="fill:#000000;stroke:none;stroke-width:0" /><circle id="incircle-22" cx="-24.402888325453592" cy="-36.484358435914174" r="11.586825893721866" style="fill:#008000;stroke:none;stroke-width:0;fill-opacity:0.15" /><circle id="incircle-ctr-22" cx="-24.402888325453592" cy="-36.484358435914174" r="0.5" style="fill:#000000;stroke:none;stroke-width:0" /><circle id="incircle-23" cx="-43.7114173172259" cy="-0.8421341373984657" r="11.627137185017471" style="fill:#008000;stroke:none;stroke-width:0;fill-opacity:0.15" /><circle id="incircle-ctr-23" cx="-43.7114173172259" cy="-0.8421341373984657" r="0.5" style="fill:#000000;stroke:none;stroke-width:0" /><circle id="incircle-24" cx="39.099450072442394" cy="23.741164771597376" r="15.00119180282374" style="fill:#008000;stroke:none;stroke-width:0;fill-opacity:0.15" /><circle id="incircle-ctr-24" cx="39.099450072442394" cy="23.741164771597376" r="0.5" style="fill:#000000;stroke:none;stroke-width:0" /><circle id="incircle-25" cx="15.437145220054427" cy="42.81522709048163" r="12.162339227035986" style="fill:#008000;stroke:none;stroke-width:0;fill-opacity:0.15" /><circle id="incircle-ctr-25" cx="15.437145220054427" cy="42.81522709048163" r="0.5" style="fill:#000000;stroke:none;stroke-width:0" /><circle id="incircle-26" cx="1.3258882101875873" cy="23.35598777233405" r="11.276956000798583" style="fill:#008000;stroke:none;stroke-width:0;fill-opacity:0.15" /><circle id="incircle-ctr-26" cx="1.3258882101875873" cy="23.35598777233405" r="0.5" style="fill:#000000;stroke:none;stroke-width:0" /><circle id="incircle-27" cx="-23.117540160135466" cy="32.74267989479574" r="10.676400232740804" style="fill:#008000;stroke:none;stroke-width:0;fill-opacity:0.15" /><circle id="incircle-ctr-27" cx="-23.117540160135466" cy="32.74267989479574" r="0.5" style="fill:#000000;stroke:none;stroke-width:0" /><circle id="incircle-28" cx="43.175328123934925" cy="-2.632711944200251" r="11.599685471491368" style="fill:#008000;stroke:none;stroke-width:0;fill-opacity:0.15" /><circle id="incircle-ctr-28" cx="43.175328123934925" cy="-2.632711944200251" r="0.5" style="fill:#000000;stroke:none;stroke-width:0" /></g><g id="tile-id" inkscape:label="Tile Id" inkscape:groupmode="layer" transform="scale(1,-1)"><ns0:text xml:space="preserve" style="font-style:normal;font-weight:normal;font-size:4.23333px;line-height:1.25;font-family:sans-serif;text-align:center;text-anchor:middle;fill:#dddddd;fill-opacity:1;stroke:#565656;stroke-width:0.15;stroke-dasharray:none;stroke-opacity:1" x="-1.7974526e-07" y="0" id="tile-id" transform="translate(0 -72)"><ns0:tspan ns1:role="line" id="tspan439" style="font-style:normal;font-variant:normal;font-weight:bold;font-stretch:normal;font-size:4.23333px;font-family:'Arial Black';-inkscape-font-specification:'Arial Black,  Bold';text-align:center;text-anchor:middle;fill:#dddddd;fill-opacity:1;stroke:#565656;stroke-width:0.15;stroke-dasharray:none;stroke-opacity:1" x="-1.4621764e-07" y="0">401</ns0:tspan></ns0:text>
  </g><g id="annotations" inkscape:label="Annotations" inkscape:groupmode="layer" transform="scale(1,-1)"><text id="text1043" x="-92" y="84.5" style="font-style:normal;font-weight:normal;font-size:4px;font-family:sans-serif;fill:#000000;fill-opacity:1;stroke:none"><tspan x="-92" y="84.5">id: 401</tspan></text><text id="text1044" x="-92" y="90.0" style="font-style:normal;font-weight:normal;font-size:4px;font-family:sans-serif;fill:#000000;fill-opacity:1;stroke:none"><tspan x="-92" y="90.0">size: 80</tspan></text><text id="text1045" x="-92" y="95.5" style="font-style:normal;font-weight:normal;font-size:4px;font-family:sans-serif;fill:#000000;fill-opacity:1;stroke:none"><tspan x="-92" y="95.5">rng seed 2271</tspan></text><text id="text1046" x="-92" y="101.0" style="font-style:normal;font-weight:normal;font-size:4px;font-family:sans-serif;fill:#000000;fill-opacity:1;stroke:none"><tspan x="-92" y="101.0">pattern 111111 / llllll</tspan></text><text id="text1047" x="-92" y="106.5" style="font-style:normal;font-weight:normal;font-size:4px;font-family:sans-serif;fill:#000000;fill-opacity:1;stroke:none"><tspan x="-92" y="106.5">seed attempts: 20</tspan></text><text id="text1048" x="-92" y="112.0" style="font-style:normal;font-weight:normal;font-size:4px;font-family:sans-serif;fill:#000000;fill-opacity:1;stroke:none"><tspan x="-92" y="112.0">seed distance: l 0.3; m 0.24; h 0.2</tspan></text><text id="text1049" x="-92" y="117.5" style="font-style:normal;font-weight:normal;font-size:4px;font-family:sans-serif;fill:#000000;fill-opacity:1;stroke:none"><tspan x="-92" y="117.5">center: (h) 0.2</tspan></text><text id="text1050" x="-92" y="123.0" style="font-style:normal;font-weight:normal;font-size:4px;font-family:sans-serif;fill:#000000;fill-opacity:1;stroke:none"><tspan x="-92" y="123.0">min ridge length: 0.08; at edge: 0.04</tspan></text><text id="text1051" x="-92" y="128.5" style="font-style:normal;font-weight:normal;font-size:4px;font-family:sans-serif;fill:#000000;fill-opacity:1;stroke:none"><tspan x="-92" y="128.5">edge margin exclusion zone scale: 1.1</tspan></text><text id="text1052" x="-92" y="134.0" style="font-style:normal;font-weight:normal;font-size:4px;font-family:sans-serif;fill:#000000;fill-opacity:1;stroke:none"><tspan x="-92" y="134.0">iterations: 16</tspan></text><text id="text1053" x="-92" y="139.5" style="font-style:normal;font-weight:normal;font-size:4px;font-family:sans-serif;fill:#000000;fill-opacity:1;stroke:none"><tspan x="-92" y="139.5">adjustments: side 0.011, neighbor -0.009</tspan></text><text id="text1054" x="-92" y="145.0" style="font-style:normal;font-weight:normal;font-size:4px;font-family:sans-serif;fill:#000000;fill-opacity:1;stroke:none"><tspan x="-92" y="145.0">closeness: 0.9, adjust -0.013</tspan></text><text id="text1055" x="-1.5" y="-82" style="font-style:normal;font-weight:normal;font-size:4px;font-family:sans-serif;fill:#000000;fill-opacity:1;stroke:none"><tspan x="-1.5" y="-82">L</tspan></text><text id="text1056" x="-1.5" y="-82" style="font-style:normal;font-weight:normal;font-size:4px;font-family:sans-serif;fill:#000000;fill-opacity:1;stroke:none" transform="rotate(60)"><tspan x="-1.5" y="-82">L</tspan></text><text id="text1057" x="-1.5" y="-82" style="font-style:normal;font-weight:normal;font-size:4px;font-family:sans-serif;fill:#000000;fill-opacity:1;stroke:none" transform="rotate(120)"><tspan x="-1.5" y="-82">L</tspan></text><text id="text1058" x="-1.5" y="-82" style="font-style:normal;font-weight:normal;font-size:4px;font-family:sans-serif;fill:#000000;fill-opacity:1;stroke:none" transform="rotate(180)"><tspan x="-1.5" y="-82">L</tspan></text><text id="text1059" x="-1.5" y="-82" style="font-style:normal;font-weight:normal;font-size:4px;font-family:sans-serif;fill:#000000;fill-opacity:1;stroke:none" transform="rotate(240)"><tspan x="-1.5" y="-82">L</tspan></text><text id="text1060" x="-1.5" y="-82" style="font-style:normal;font-weight:normal;font-size:4px;font-family:sans-serif;fill:#000000;fill-opacity:1;stroke:none" transform="rotate(300)"><tspan x="-1.5" y="-82">L</tspan></text><g id="node1061" transform="rotate(30)"><text id="text1062" x="-1.5" y="-72.28203230275508" style="font-style:normal;font-weight:normal;font-size:4px;font-family:sans-serif;fill:#000000;fill-opacity:1;stroke:none"><tspan x="-1.5" y="-72.28203230275508">L</tspan></text></g><g id="node1063" transform="rotate(90)"><text id="text1064" x="-1.5" y="-72.28203230275508" style="font-style:normal;font-weight:normal;font-size:4px;font-family:sans-serif;fill:#000000;fill-opacity:1;stroke:none"><tspan x="-1.5" y="-72.28203230275508">L</tspan></text></g><g id="node1065" transform="rotate(150)"><text id="text1066" x="-1.5" y="-72.28203230275508" style="font-style:normal;font-weight:normal;font-size:4px;font-family:sans-serif;fill:#000000;fill-opacity:1;stroke:none"><tspan x="-1.5" y="-72.28203230275508">L</tspan></text></g><g id="node1067" transform="rotate(210)"><text id="text1068" x="-1.5" y="-72.28203230275508" style="font-style:normal;font-weight:normal;font-size:4px;font-family:sans-serif;fill:#000000;fill-opacity:1;stroke:none"><tspan x="-1.5" y="-72.28203230275508">L</tspan></text></g><g id="node1069" transform="rotate(270)"><text id="text1070" x="-1.5" y="-72.28203230275508" style="font-style:normal;font-weight:normal;font-size:4px;font-family:sans-serif;fill:#000000;fill-opacity:1;stroke:none"><tspan x="-1.5" y="-72.28203230275508">L</tspan></text></g><g id="node1071" transform="rotate(330)"><text id="text1072" x="-1.5" y="-72.28203230275508" style="font-style:normal;font-weight:normal;font-size:4px;font-family:sans-serif;fill:#000000;fill-opacity:1;stroke:none"><tspan x="-1.5" y="-72.28203230275508">L</tspan></text></g><circle id="mana" cx="50" cy="110" r="7.5" style="fill:#000000;stroke:none;stroke-width:0" /><rect id="rect1073" x="75" y="90" width="15" height="6" style="fill:#be850a;stroke:#000000;stroke-width:0.3" /><text id="text1074" x="70" y="94.5" style="font-style:normal;font-weight:normal;font-size:4px;font-family:sans-serif;fill:#000000;fill-opacity:1;stroke:none"><tspan x="70" y="94.5">V</tspan></text><rect id="rect1075" x="75" y="100" width="15" height="6" style="fill:#e7a311;stroke:#000000;stroke-width:0.3" /><text id="text1076" x="70" y="104.5" style="font-style:normal;font-weight:normal;font-size:4px;font-family:sans-serif;fill:#000000;fill-opacity:1;stroke:none"><tspan x="70" y="104.5">H</tspan></text><rect id="rect1077" x="75" y="110" width="15" height="6" style="fill:#f0ce76;stroke:#000000;stroke-width:0.3" /><text id="text1078" x="70" y="114.5" style="font-style:normal;font-weight:normal;font-size:4px;font-family:sans-serif;fill:#000000;fill-opacity:1;stroke:none"><tspan x="70" y="114.5">M</tspan></text><rect id="rect1079" x="75" y="120" width="15" height="6" style="fill:#f0eaac;stroke:#000000;stroke-width:0.3" /><text id="text1080" x="70" y="124.5" style="font-style:normal;font-weight:normal;font-size:4px;font-family:sans-serif;fill:#000000;fill-opacity:1;stroke:none"><tspan x="70" y="124.5">L</tspan></text><rect id="rect1081" x="75" y="130" width="15" height="6" style="fill:#a2c6ff;stroke:#000000;stroke-width:0.3" /><text id="text1082" x="70" y="134.5" style="font-style:normal;font-weight:normal;font-size:4px;font-family:sans-serif;fill:#000000;fill-opacity:1;stroke:none"><tspan x="70" y="134.5">R</tspan></text></g><g id="overlay" inkscape:label="Overlay" inkscape:groupmode="layer" transform="scale(1,-1)"><ns0:path ns2:connector-curvature="0" style="display:inline;fill:#000000;fill-opacity:1;fill-rule:evenodd;stroke:none;stroke-width:0.197555px;stroke-linecap:butt;stroke-linejoin:miter;stroke-opacity:1" d="m -3.9511112,-5.6797224 v 2.4694446 l 0.9877778,0.9877777 V 3.7041668 L -3.4572223,5.6797224 H 3.4572223 L 2.9633335,3.7041668 V -2.2225001 L 3.9511112,-3.2102778 V -5.6797224 H 2.9633335 v 0.9877778 H 1.9755556 V -5.6797224 H 0.49388891 v 0.9877778 h -0.9877778 V -5.6797224 H -1.9755556 v 0.9877778 h -0.9877778 v -0.9877778 z m 1.9755556,4.4450002 h 0.4938889 v 1.48166666 h -0.4938889 z m 3.4572223,0.98777775 H 1.9755556 V 1.2347222 H 1.4816667 Z" id="obj-tower" transform="translate(-5.730337434528218 -1.993269423218337)" />
  <ns0:path ns1:nodetypes="cccccccccccccccc" style="display:inline;fill:#5ba22d;fill-opacity:1;fill-rule:evenodd;stroke:#000000;stroke-width:0.7;stroke-linecap:round;stroke-linejoin:round;stroke-dasharray:none;stroke-opacity:1" d="m -0.11754863,-3.5938692 -1.51308197,1.919478 0.90784897,0.1234394 -1.14277797,1.86485304 0.87624741,0.0811789 -0.98717141,2.11215816 1.45917122,-0.2697811 0.00913,0.8116163 H 0.63276386 L 0.62289412,2.1922623 1.9571211,2.4168533 0.88373104,0.40905041 1.7837593,0.33762228 0.57239737,-1.6512284 1.4352893,-1.762644 Z" id="obj-tree1" ns2:connector-curvature="0" transform="translate(-39.39414018459701 20.166975122144965)" />
  <ns0:path ns1:nodetypes="cccccccccccccccc" style="display:inline;fill:#5ba22d;fill-opacity:1;fill-rule:evenodd;stroke:#000000;stroke-width:0.7;stroke-linecap:round;stroke-linejoin:round;stroke-dasharray:none;stroke-opacity:1" d="m -0.06765203,-4.389909 -1.62369897,2.3766988 0.83957497,0.1115608 -1.12383527,2.13200681 0.9140676,0.0246987 -1.2554238,2.79163369 1.88001547,-0.4347033 -0.1025277,0.8737981 h 1.1508144 L 0.50670157,2.6655719 2.3908972,2.937327 0.92673727,0.37297512 1.9739956,0.36732364 0.71541647,-1.8972641 1.5523539,-2.0115734 Z" id="obj-tree2" ns2:connector-curvature="0" transform="translate(-26.843129433504444 -11.741995775866826)" />
  <ns0:path style="display:inline;fill:#5ba22d;fill-opacity:1;fill-rule:evenodd;stroke:#000000;stroke-width:0.7;stroke-linecap:round;stroke-linejoin:round;stroke-dasharray:none;stroke-opacity:1" d="m -0.17067971,-5.0753774 -1.75261489,3.0262859 0.8024176,0.028472 -1.1479124,3.1523128 0.9279943,-0.023195 -1.0490969,2.6640674 1.89541622,-0.2588784 0.0251775,0.86149 H 0.47941659 L 0.45423909,3.5136881 2.3758854,3.8500731 1.2249508,1.1891557 l 0.9007594,0.051666 -1.37638922,-3.2108035 0.85286092,0.02585 z" id="obj-tree3" ns2:connector-curvature="0" ns1:nodetypes="cccccccccccccccc" transform="translate(-20.843129433504444 -8.741995775866826)" />
  <ns0:path ns1:nodetypes="cccccccccccccccc" style="display:inline;fill:#5ba22d;fill-opacity:1;fill-rule:evenodd;stroke:#000000;stroke-width:0.7;stroke-linecap:round;stroke-linejoin:round;stroke-dasharray:none;stroke-opacity:1" d="m -0.11754863,-3.5938692 -1.51308197,1.919478 0.90784897,0.1234394 -1.14277797,1.86485304 0.87624741,0.0811789 -0.98717141,2.11215816 1.45917122,-0.2697811 0.00913,0.8116163 H 0.63276386 L 0.62289412,2.1922623 1.9571211,2.4168533 0.88373104,0.40905041 1.7837593,0.33762228 0.57239737,-1.6512284 1.4352893,-1.762644 Z" id="obj-tree1" ns2:connector-curvature="0" transform="translate(20.459894285804445 24.5770253468892)" />
  <ns0:path style="display:inline;fill:#5ba22d;fill-opacity:1;fill-rule:evenodd;stroke:#000000;stroke-width:0.7;stroke-linecap:round;stroke-linejoin:round;stroke-dasharray:none;stroke-opacity:1" d="m -0.17067971,-5.0753774 -1.75261489,3.0262859 0.8024176,0.028472 -1.1479124,3.1523128 0.9279943,-0.023195 -1.0490969,2.6640674 1.89541622,-0.2588784 0.0251775,0.86149 H 0.47941659 L 0.45423909,3.5136881 2.3758854,3.8500731 1.2249508,1.1891557 l 0.9007594,0.051666 -1.37638922,-3.2108035 0.85286092,0.02585 z" id="obj-tree3" ns2:connector-curvature="0" ns1:nodetypes="cccccccccccccccc" transform="translate(10.459894285804445 21.5770253468892)" />
  <ns0:path ns1:nodetypes="cccccccccccccccc" style="display:inline;fill:#5ba22d;fill-opacity:1;fill-rule:evenodd;stroke:#000000;stroke-width:0.7;stroke-linecap:round;stroke-linejoin:round;stroke-dasharray:none;stroke-opacity:1" d="m -0.06765203,-4.389909 -1.62369897,2.3766988 0.83957497,0.1115608 -1.12383527,2.13200681 0.9140676,0.0246987 -1.2554238,2.79163369 1.88001547,-0.4347033 -0.1025277,0.8737981 h 1.1508144 L 0.50670157,2.6655719 2.3908972,2.937327 0.92673727,0.37297512 1.9739956,0.36732364 0.71541647,-1.8972641 1.5523539,-2.0115734 Z" id="obj-tree2" ns2:connector-curvature="0" transform="translate(17.459894285804445 15.5770253468892)" />
  <ns0:path ns2:connector-curvature="0" id="obj-tree4" d="m 0.02668703,-5.9619146 -2.09811723,3.282356 1.0029208,0.1521268 L -3.0225036,0.99947393 -1.547374,0.90155468 -3.2093694,4.3782552 -0.54442427,3.9810758 -0.82976707,5.1244031 1.024844,5.0746938 0.73952693,4.0307847 3.2104285,4.2788337 1.5479561,0.95326125 2.9726722,1.0476884 1.0210344,-2.5294321 2.2127515,-2.5811391 Z" style="display:inline;fill:#5ba22d;fill-opacity:1;fill-rule:evenodd;stroke:#000000;stroke-width:0.7;stroke-linecap:butt;stroke-linejoin:round;stroke-dasharray:none;stroke-opacity:1" ns1:nodetypes="cccccccccccccccc" transform="translate(-6.578294628446017 22.59995402264838)" />
  <ns0:path ns1:nodetypes="cccccccccccccccc" style="display:inline;fill:#5ba22d;fill-opacity:1;fill-rule:evenodd;stroke:#000000;stroke-width:0.7;stroke-linecap:round;stroke-linejoin:round;stroke-dasharray:none;stroke-opacity:1" d="m -0.06765203,-4.389909 -1.62369897,2.3766988 0.83957497,0.1115608 -1.12383527,2.13200681 0.9140676,0.0246987 -1.2554238,2.79163369 1.88001547,-0.4347033 -0.1025277,0.8737981 h 1.1508144 L 0.50670157,2.6655719 2.3908972,2.937327 0.92673727,0.37297512 1.9739956,0.36732364 0.71541647,-1.8972641 1.5523539,-2.0115734 Z" id="obj-tree2" ns2:connector-curvature="0" transform="translate(-16.578294628446017 14.59995402264838)" />
  <ns0:path ns1:nodetypes="cccccccccccccccc" style="display:inline;fill:#5ba22d;fill-opacity:1;fill-rule:evenodd;stroke:#000000;stroke-width:0.7;stroke-linecap:round;stroke-linejoin:round;stroke-dasharray:none;stroke-opacity:1" d="m -0.11754863,-3.5938692 -1.51308197,1.919478 0.90784897,0.1234394 -1.14277797,1.86485304 0.87624741,0.0811789 -0.98717141,2.11215816 1.45917122,-0.2697811 0.00913,0.8116163 H 0.63276386 L 0.62289412,2.1922623 1.9571211,2.4168533 0.88373104,0.40905041 1.7837593,0.33762228 0.57239737,-1.6512284 1.4352893,-1.762644 Z" id="obj-tree1" ns2:connector-curvature="0" transform="translate(2.2696625654717812 3.006730576781663)" />
  <ns0:path ns1:nodetypes="cccccccccccccccc" style="display:inline;fill:#5ba22d;fill-opacity:1;fill-rule:evenodd;stroke:#000000;stroke-width:0.7;stroke-linecap:round;stroke-linejoin:round;stroke-dasharray:none;stroke-opacity:1" d="m -0.06765203,-4.389909 -1.62369897,2.3766988 0.83957497,0.1115608 -1.12383527,2.13200681 0.9140676,0.0246987 -1.2554238,2.79163369 1.88001547,-0.4347033 -0.1025277,0.8737981 h 1.1508144 L 0.50670157,2.6655719 2.3908972,2.937327 0.92673727,0.37297512 1.9739956,0.36732364 0.71541647,-1.8972641 1.5523539,-2.0115734 Z" id="obj-tree2" ns2:connector-curvature="0" transform="translate(-24.747189366720058 33.74530844339152)" />
  <ns0:path ns2:connector-curvature="0" id="obj-tree4" d="m 0.02668703,-5.9619146 -2.09811723,3.282356 1.0029208,0.1521268 L -3.0225036,0.99947393 -1.547374,0.90155468 -3.2093694,4.3782552 -0.54442427,3.9810758 -0.82976707,5.1244031 1.024844,5.0746938 0.73952693,4.0307847 3.2104285,4.2788337 1.5479561,0.95326125 2.9726722,1.0476884 1.0210344,-2.5294321 2.2127515,-2.5811391 Z" style="display:inline;fill:#5ba22d;fill-opacity:1;fill-rule:evenodd;stroke:#000000;stroke-width:0.7;stroke-linecap:butt;stroke-linejoin:round;stroke-dasharray:none;stroke-opacity:1" ns1:nodetypes="cccccccccccccccc" transform="translate(-45.492000710520415 0.7510797553621316)" />
  <ns0:path ns1:nodetypes="cccccccccccccccc" style="display:inline;fill:#5ba22d;fill-opacity:1;fill-rule:evenodd;stroke:#000000;stroke-width:0.7;stroke-linecap:round;stroke-linejoin:round;stroke-dasharray:none;stroke-opacity:1" d="m -0.11754863,-3.5938692 -1.51308197,1.919478 0.90784897,0.1234394 -1.14277797,1.86485304 0.87624741,0.0811789 -0.98717141,2.11215816 1.45917122,-0.2697811 0.00913,0.8116163 H 0.63276386 L 0.62289412,2.1922623 1.9571211,2.4168533 0.88373104,0.40905041 1.7837593,0.33762228 0.57239737,-1.6512284 1.4352893,-1.762644 Z" id="obj-tree1" ns2:connector-curvature="0" transform="translate(-36.492000710520415 4.751079755362132)" />
  <ns0:path ns2:connector-curvature="0" id="obj-tree4" d="m 0.02668703,-5.9619146 -2.09811723,3.282356 1.0029208,0.1521268 L -3.0225036,0.99947393 -1.547374,0.90155468 -3.2093694,4.3782552 -0.54442427,3.9810758 -0.82976707,5.1244031 1.024844,5.0746938 0.73952693,4.0307847 3.2104285,4.2788337 1.5479561,0.95326125 2.9726722,1.0476884 1.0210344,-2.5294321 2.2127515,-2.5811391 Z" style="display:inline;fill:#5ba22d;fill-opacity:1;fill-rule:evenodd;stroke:#000000;stroke-width:0.7;stroke-linecap:butt;stroke-linejoin:round;stroke-dasharray:none;stroke-opacity:1" ns1:nodetypes="cccccccccccccccc" transform="translate(-1.9088123074236751 -23.52993064309841)" />
  <ns0:path ns1:nodetypes="cccccccccccccccc" style="display:inline;fill:#5ba22d;fill-opacity:1;fill-rule:evenodd;stroke:#000000;stroke-width:0.7;stroke-linecap:round;stroke-linejoin:round;stroke-dasharray:none;stroke-opacity:1" d="m -0.06765203,-4.389909 -1.62369897,2.3766988 0.83957497,0.1115608 -1.12383527,2.13200681 0.9140676,0.0246987 -1.2554238,2.79163369 1.88001547,-0.4347033 -0.1025277,0.8737981 h 1.1508144 L 0.50670157,2.6655719 2.3908972,2.937327 0.92673727,0.37297512 1.9739956,0.36732364 0.71541647,-1.8972641 1.5523539,-2.0115734 Z" id="obj-tree2" ns2:connector-curvature="0" transform="translate(5.091187692576325 -25.52993064309841)" />
  <ns0:path ns1:nodetypes="cccccccccccccccc" style="display:inline;fill:#5ba22d;fill-opacity:1;fill-rule:evenodd;stroke:#000000;stroke-width:0.7;stroke-linecap:round;stroke-linejoin:round;stroke-dasharray:none;stroke-opacity:1" d="m -0.11754863,-3.5938692 -1.51308197,1.919478 0.90784897,0.1234394 -1.14277797,1.86485304 0.87624741,0.0811789 -0.98717141,2.11215816 1.45917122,-0.2697811 0.00913,0.8116163 H 0.63276386 L 0.62289412,2.1922623 1.9571211,2.4168533 0.88373104,0.40905041 1.7837593,0.33762228 0.57239737,-1.6512284 1.4352893,-1.762644 Z" id="obj-tree1" ns2:connector-curvature="0" transform="translate(8.091187692576325 -17.52993064309841)" />
  <ns0:path style="display:inline;fill:#5ba22d;fill-opacity:1;fill-rule:evenodd;stroke:#000000;stroke-width:0.7;stroke-linecap:round;stroke-linejoin:round;stroke-dasharray:none;stroke-opacity:1" d="m -0.17067971,-5.0753774 -1.75261489,3.0262859 0.8024176,0.028472 -1.1479124,3.1523128 0.9279943,-0.023195 -1.0490969,2.6640674 1.89541622,-0.2588784 0.0251775,0.86149 H 0.47941659 L 0.45423909,3.5136881 2.3758854,3.8500731 1.2249508,1.1891557 l 0.9007594,0.051666 -1.37638922,-3.2108035 0.85286092,0.02585 z" id="obj-tree3" ns2:connector-curvature="0" ns1:nodetypes="cccccccccccccccc" transform="translate(-19.775491175939624 -32.651519586637555)" />
  <ns0:path ns2:connector-curvature="0" id="obj-tree4" d="m 0.02668703,-5.9619146 -2.09811723,3.282356 1.0029208,0.1521268 L -3.0225036,0.99947393 -1.547374,0.90155468 -3.2093694,4.3782552 -0.54442427,3.9810758 -0.82976707,5.1244031 1.024844,5.0746938 0.73952693,4.0307847 3.2104285,4.2788337 1.5479561,0.95326125 2.9726722,1.0476884 1.0210344,-2.5294321 2.2127515,-2.5811391 Z" style="display:inline;fill:#5ba22d;fill-opacity:1;fill-rule:evenodd;stroke:#000000;stroke-width:0.7;stroke-linecap:butt;stroke-linejoin:round;stroke-dasharray:none;stroke-opacity:1" ns1:nodetypes="cccccccccccccccc" transform="translate(38.512164398239705 6.038529051849785)" />
  <ns0:path style="display:inline;fill:#5ba22d;fill-opacity:1;fill-rule:evenodd;stroke:#000000;stroke-width:0.7;stroke-linecap:round;stroke-linejoin:round;stroke-dasharray:none;stroke-opacity:1" d="m -0.17067971,-5.0753774 -1.75261489,3.0262859 0.8024176,0.028472 -1.1479124,3.1523128 0.9279943,-0.023195 -1.0490969,2.6640674 1.89541622,-0.2588784 0.0251775,0.86149 H 0.47941659 L 0.45423909,3.5136881 2.3758854,3.8500731 1.2249508,1.1891557 l 0.9007594,0.051666 -1.37638922,-3.2108035 0.85286092,0.02585 z" id="obj-tree3" ns2:connector-curvature="0" ns1:nodetypes="cccccccccccccccc" transform="translate(45.512164398239705 0.03852905184978539)" />
  </g><g id="region_ids" inkscape:label="Region Ids" inkscape:groupmode="layer" style="display:none" transform="scale(1,-1)"><text id="text1083" x="-1.4" y="-80.0" style="font-style:normal;font-weight:normal;font-size:4px;font-family:sans-serif;fill:#000000;fill-opacity:1;stroke:none"><tspan x="-1.4" y="-80.0">0</tspan></text><text id="text1084" x="67.88203230275508" y="-40.0" style="font-style:normal;font-weight:normal;font-size:4px;font-family:sans-serif;fill:#000000;fill-opacity:1;stroke:none"><tspan x="67.88203230275508" y="-40.0">1</tspan></text><text id="text1085" x="67.88203230275508" y="40.0" style="font-style:normal;font-weight:normal;font-size:4px;font-family:sans-serif;fill:#000000;fill-opacity:1;stroke:none"><tspan x="67.88203230275508" y="40.0">2</tspan></text><text id="text1086" x="-1.4" y="80.0" style="font-style:normal;font-weight:normal;font-size:4px;font-family:sans-serif;fill:#000000;fill-opacity:1;stroke:none"><tspan x="-1.4" y="80.0">3</tspan></text><text id="text1087" x="-70.68203230275509" y="40.0" style="font-style:normal;font-weight:normal;font-size:4px;font-family:sans-serif;fill:#000000;fill-opacity:1;stroke:none"><tspan x="-70.68203230275509" y="40.0">4</tspan></text><text id="text1088" x="-70.68203230275509" y="-40.0" style="font-style:normal;font-weight:normal;font-size:4px;font-family:sans-serif;fill:#000000;fill-opacity:1;stroke:none"><tspan x="-70.68203230275509" y="-40.0">5</tspan></text><text id="text1089" x="33.24101615137754" y="-60.0" style="font-style:normal;font-weight:normal;font-size:4px;font-family:sans-serif;fill:#000000;fill-opacity:1;stroke:none"><tspan x="33.24101615137754" y="-60.0">6</tspan></text><text id="text1090" x="67.88203230275508" y="-0.0" style="font-style:normal;font-weight:normal;font-size:4px;font-family:sans-serif;fill:#000000;fill-opacity:1;stroke:none"><tspan x="67.88203230275508" y="-0.0">7</tspan></text><text id="text1091" x="33.24101615137754" y="60.0" style="font-style:normal;font-weight:normal;font-size:4px;font-family:sans-serif;fill:#000000;fill-opacity:1;stroke:none"><tspan x="33.24101615137754" y="60.0">8</tspan></text><text id="text1092" x="-36.04101615137754" y="60.0" style="font-style:normal;font-weight:normal;font-size:4px;font-family:sans-serif;fill:#000000;fill-opacity:1;stroke:none"><tspan x="-36.04101615137754" y="60.0">9</tspan></text><text id="text1093" x="-70.68203230275509" y="-0.0" style="font-style:normal;font-weight:normal;font-size:4px;font-family:sans-serif;fill:#000000;fill-opacity:1;stroke:none"><tspan x="-70.68203230275509" y="-0.0">10</tspan></text><text id="text1094" x="-36.04101615137754" y="-60.0" style="font-style:normal;font-weight:normal;font-size:4px;font-family:sans-serif;fill:#000000;fill-opacity:1;stroke:none"><tspan x="-36.04101615137754" y="-60.0">11</tspan></text><text id="text1095" x="-42.79414018459701" y="23.166975122144965" style="font-style:normal;font-weight:normal;font-size:4px;font-family:sans-serif;fill:#000000;fill-opacity:1;stroke:none"><tspan x="-42.79414018459701" y="23.166975122144965">12</tspan></text><text id="text1096" x="41.748108394921104" y="26.21567762173047" style="font-style:normal;font-weight:normal;font-size:4px;font-family:sans-serif;fill:#000000;fill-opacity:1;stroke:none"><tspan x="41.748108394921104" y="26.21567762173047">13</tspan></text><text id="text1097" x="-25.243129433504443" y="-10.741995775866826" style="font-style:normal;font-weight:normal;font-size:4px;font-family:sans-serif;fill:#000000;fill-opacity:1;stroke:none"><tspan x="-25.243129433504443" y="-10.741995775866826">14</tspan></text><text id="text1098" x="15.059894285804445" y="16.5770253468892" style="font-style:normal;font-weight:normal;font-size:4px;font-family:sans-serif;fill:#000000;fill-opacity:1;stroke:none"><tspan x="15.059894285804445" y="16.5770253468892">15</tspan></text><text id="text1099" x="7.195359212645323" y="46.551910458468875" style="font-style:normal;font-weight:normal;font-size:4px;font-family:sans-serif;fill:#000000;fill-opacity:1;stroke:none"><tspan x="7.195359212645323" y="46.551910458468875">16</tspan></text><text id="text1100" x="-8.63627873028395" y="-47.49005557564016" style="font-style:normal;font-weight:normal;font-size:4px;font-family:sans-serif;fill:#000000;fill-opacity:1;stroke:none"><tspan x="-8.63627873028395" y="-47.49005557564016">17</tspan></text><text id="text1101" x="-13.978294628446017" y="18.59995402264838" style="font-style:normal;font-weight:normal;font-size:4px;font-family:sans-serif;fill:#000000;fill-opacity:1;stroke:none"><tspan x="-13.978294628446017" y="18.59995402264838">18</tspan></text><text id="text1102" x="-45.15816033066627" y="-23.618609822253276" style="font-style:normal;font-weight:normal;font-size:4px;font-family:sans-serif;fill:#000000;fill-opacity:1;stroke:none"><tspan x="-45.15816033066627" y="-23.618609822253276">19</tspan></text><text id="text1103" x="-5.130337434528219" y="-1.993269423218337" style="font-style:normal;font-weight:normal;font-size:4px;font-family:sans-serif;fill:#000000;fill-opacity:1;stroke:none"><tspan x="-5.130337434528219" y="-1.993269423218337">20</tspan></text><text id="text1104" x="20.14795469212699" y="-1.7250799812712752" style="font-style:normal;font-weight:normal;font-size:4px;font-family:sans-serif;fill:#000000;fill-opacity:1;stroke:none"><tspan x="20.14795469212699" y="-1.7250799812712752">21</tspan></text><text id="text1105" x="-26.147189366720056" y="33.74530844339152" style="font-style:normal;font-weight:normal;font-size:4px;font-family:sans-serif;fill:#000000;fill-opacity:1;stroke:none"><tspan x="-26.147189366720056" y="33.74530844339152">22</tspan></text><text id="text1106" x="-42.89200071052041" y="1.7510797553621316" style="font-style:normal;font-weight:normal;font-size:4px;font-family:sans-serif;fill:#000000;fill-opacity:1;stroke:none"><tspan x="-42.89200071052041" y="1.7510797553621316">23</tspan></text><text id="text1107" x="35.41235526161932" y="-19.813197662613245" style="font-style:normal;font-weight:normal;font-size:4px;font-family:sans-serif;fill:#000000;fill-opacity:1;stroke:none"><tspan x="35.41235526161932" y="-19.813197662613245">24</tspan></text><text id="text1108" x="12.935469995343706" y="-43.311853672544245" style="font-style:normal;font-weight:normal;font-size:4px;font-family:sans-serif;fill:#000000;fill-opacity:1;stroke:none"><tspan x="12.935469995343706" y="-43.311853672544245">25</tspan></text><text id="text1109" x="0.691187692576325" y="-21.52993064309841" style="font-style:normal;font-weight:normal;font-size:4px;font-family:sans-serif;fill:#000000;fill-opacity:1;stroke:none"><tspan x="0.691187692576325" y="-21.52993064309841">26</tspan></text><text id="text1110" x="-23.175491175939623" y="-32.651519586637555" style="font-style:normal;font-weight:normal;font-size:4px;font-family:sans-serif;fill:#000000;fill-opacity:1;stroke:none"><tspan x="-23.175491175939623" y="-32.651519586637555">27</tspan></text><text id="text1111" x="39.112164398239706" y="3.0385290518497854" style="font-style:normal;font-weight:normal;font-size:4px;font-family:sans-serif;fill:#000000;fill-opacity:1;stroke:none"><tspan x="39.112164398239706" y="3.0385290518497854">28</tspan></text></g><g id="border" inkscape:label="Border" inkscape:groupmode="layer"><path id="path1112" d="m 0 80 69.282 -40 0 -80 -69.282 -40 -69.282 40 0 80 z" style="fill:none;stroke:#000000;stroke-width:0.3" /></g></g></svg>