<?xml version='1.0' encoding='UTF-8'?>
<svg xmlns:ns0="http://www.w3.org/2000/svg" xmlns:ns1="http://sodipodi.sourceforge.net/DTD/sodipodi-0.dtd" xmlns:ns2="http://www.inkscape.org/namespaces/inkscape" version="1.1" id="svg_root" xmlns="http://www.w3.org/2000/svg" xmlns:sodipodi="http://sodipodi.sourceforge.net/DTD/sodipodi-0.dtd" xmlns:inkscape="http://www.inkscape.org/namespaces/inkscape" xmlns:xlink="http://www.w3.org/1999/xlink" width="215.9mm" height="279.4mm" viewBox="0 0 215.9 279.4"><defs /><g id="layer" inkscape:label="Layer" inkscape:groupmode="layer" transform="translate(107.95 120) scale(1, -1)"><g id="background" inkscape:label="Tile Background" inkscape:groupmode="layer"><path id="path1424" d="m 0 80 69.282 -40 0 -80 -69.282 -40 -69.282 40 0 80 z" style="fill:#000000;stroke:none;stroke-width:0" /></g><g id="region-clip" inkscape:label="Region Clipped" inkscape:groupmode="layer" style="display:none"><g id="clip"><path id="clipregion-0" d="m 15.6825 67.1629 -22.933 0.350156 -4.34902 5.78999 11.5995 6.69697 17.3205 -10 z" style="fill:#f0eaac;stroke:#000000;stroke-width:0.3" /><path id="clipregion-1" d="m 64.7605 20 -15.7686 24.8565 2.96959 5.14349 17.3205 -10 0 -20 z" style="fill:#f0eaac;stroke:#000000;stroke-width:0.3" /><path id="clipregion-2" d="m 48.3642 -34.2912 10.7618 14.2912 10.156 0 0 -20 -11.5995 -6.69697 z" style="fill:#f0eaac;stroke:#000000;stroke-width:0.3" /><path id="clipregion-3" d="m -3.43498 -67.4682 8.97919 -0.303856 4.6092 -6.36592 -10.1534 -5.86207 -9.21984 5.32308 z" style="fill:#f0ce76;stroke:#000000;stroke-width:0.3" /><path id="clipregion-4" d="m -57.6947 -32.1549 1.23364 -6.35945 -4.71804 -6.16393 -8.10299 4.67826 0 9.35652 z" style="fill:#e7a311;stroke:#000000;stroke-width:0.3" /><path id="clipregion-5" d="m -51.4597 35.2703 -8.38405 -7.36849 -9.43824 1.45204 0 10.6462 10.1534 5.86207 z" style="fill:#f0ce76;stroke:#000000;stroke-width:0.3" /><path id="clipregion-6" d="m 48.9919 44.8565 -15.0437 -4.27142 -16.1685 12.4224 -2.09729 14.1554 1.63801 2.83712 34.641 -20 z" style="fill:#f0eaac;stroke:#000000;stroke-width:0.3" /><path id="clipregion-7" d="m 59.126 -20 -11.2737 23.0153 16.9082 16.9847 4.52155 3.55271e-15 0 -40 z" style="fill:#f0eaac;stroke:#000000;stroke-width:0.3" /><path id="clipregion-8" d="m 27.7222 -45.0124 4.52333 6.34331 16.1187 4.37791 9.31835 -12.4058 -24.3634 -14.0662 z" style="fill:#f0eaac;stroke:#000000;stroke-width:0.3" /><path id="clipregion-9" d="m 5.5442 -67.772 12.7428 20.6789 9.43518 2.08076 5.597 -15.7508 -23.1658 -13.3748 z" style="fill:#f0eaac;stroke:#000000;stroke-width:0.3" /><path id="clipregion-10" d="m -23.9507 -54.2854 11.2989 0.488149 9.21676 -13.6709 -5.78486 -7.20877 -18.6483 10.7666 z" style="fill:#f0ce76;stroke:#000000;stroke-width:0.3" /><path id="clipregion-11" d="m -43.25 -47.1144 11.082 2.8595 8.21728 -10.0305 -3.91742 -9.62495 -17.9998 10.3922 z" style="fill:#e7a311;stroke:#000000;stroke-width:0.3" /><path id="clipregion-12" d="m -56.461 -38.5143 13.211 -8.60003 -2.6179 -6.40382 -15.3112 8.83992 z" style="fill:#f0ce76;stroke:#000000;stroke-width:0.3" /><path id="clipregion-13" d="m -60.926 -11.8242 8.56554 -11.294 -5.33422 -9.03667 -11.5874 1.5114 0 17.6798 z" style="fill:#f0ce76;stroke:#000000;stroke-width:0.3" /><path id="clipregion-14" d="m -61.6404 8.87471 4.66581 -4.496 -3.95141 -16.2029 -8.35606 -1.13946 0 20.7843 z" style="fill:#e7a311;stroke:#000000;stroke-width:0.3" /><path id="clipregion-15" d="m -59.8438 27.9018 -1.79659 -19.0271 -7.64166 -1.05402 0 21.5332 z" style="fill:#f0ce76;stroke:#000000;stroke-width:0.3" /><path id="clipregion-16" d="m -31.6662 47.1454 -5.6522 -11.3615 -14.1413 -0.513604 -7.6689 10.5918 23.1658 13.3748 z" style="fill:#f0eaac;stroke:#000000;stroke-width:0.3" /><path id="clipregion-17" d="m -7.25047 67.513 -7.34256 -16.6303 -17.0732 -3.73731 -4.29666 12.0914 24.3634 14.0662 z" style="fill:#f0eaac;stroke:#000000;stroke-width:0.3" /><path id="clipregion-18" d="m -31.8479 26.1079 -5.47051 9.67604 5.6522 11.3615 17.0732 3.73731 14.842 -11.7541 -0.694173 -17.1124 -15.9913 -3.83559 z" style="fill:#f0eaac;stroke:#000000;stroke-width:0.3" /><path id="clipregion-19" d="m -16.4365 18.1807 15.9913 3.83559 5.52555 -3.86704 3.8687 -27.4938 -13.5379 -7.53865 -15.554 13.3184 z" style="fill:#f0ce76;stroke:#000000;stroke-width:0.3" /><path id="clipregion-20" d="m -12.6517 -53.7972 -11.2989 -0.488149 -8.21728 10.0305 2.87073 12.5902 21.8018 6.28641 5.83959 -14.0567 z" style="fill:#f0ce76;stroke:#000000;stroke-width:0.3" /><path id="clipregion-21" d="m -39.5848 -20.2642 10.2875 -11.4004 -2.87073 -12.5902 -11.082 -2.8595 -13.211 8.60003 -1.23364 6.35945 5.33422 9.03667 z" style="fill:#f0ce76;stroke:#000000;stroke-width:0.3" /><path id="clipregion-22" d="m 32.2455 -38.6691 -4.52333 -6.34331 -9.43518 -2.08076 -19.9428 7.65828 -5.83959 14.0567 2.90662 8.49492 13.5379 7.53865 9.5417 -2.73146 z" style="fill:#f0eaac;stroke:#000000;stroke-width:0.3" /><path id="clipregion-23" d="m -20.1428 -3.5649 15.554 -13.3184 -2.90662 -8.49492 -21.8018 -6.28641 -10.2875 11.4004 4.40057 12.9871 z" style="fill:#f0ce76;stroke:#000000;stroke-width:0.3" /><path id="clipregion-24" d="m -44.02 3.95128 -12.9546 0.427432 -4.66581 4.496 1.79659 19.0271 8.38405 7.36849 14.1413 0.513604 5.47051 -9.67604 z" style="fill:#f0ce76;stroke:#000000;stroke-width:0.3" /><path id="clipregion-25" d="m 47.8523 3.01525 11.2737 -23.0153 -10.7618 -14.2912 -16.1187 -4.37791 -13.7548 26.593 22.9078 16.3183 z" style="fill:#f0eaac;stroke:#000000;stroke-width:0.3" /><path id="clipregion-26" d="m 18.4908 -12.0761 -9.5417 2.73146 -3.8687 27.4938 22.4882 4.55994 13.83 -18.467 z" style="fill:#f0ce76;stroke:#000000;stroke-width:0.3" /><path id="clipregion-27" d="m -35.1842 -7.27707 -4.40057 -12.9871 -12.7757 -2.85403 -8.56554 11.294 3.95141 16.2029 12.9546 -0.427432 z" style="fill:#e7a311;stroke:#000000;stroke-width:0.3" /><path id="clipregion-28" d="m 41.3986 4.24218 -13.83 18.467 6.37967 17.876 15.0437 4.27142 15.7686 -24.8565 -16.9082 -16.9847 z" style="fill:#f0eaac;stroke:#000000;stroke-width:0.3" /><path id="clipregion-29" d="m -3.43498 -67.4682 -9.21676 13.6709 10.9959 14.3624 19.9428 -7.65828 -12.7428 -20.6789 z" style="fill:#f0ce76;stroke:#000000;stroke-width:0.3" /><path id="clipregion-30" d="m 17.7798 53.0075 16.1685 -12.4224 -6.37967 -17.876 -22.4882 -4.55994 -5.52555 3.86704 0.694173 17.1124 z" style="fill:#f0ce76;stroke:#000000;stroke-width:0.3" /><path id="clipregion-31" d="m -16.4365 18.1807 -3.70624 -21.7455 -15.0414 -3.71218 -8.8358 11.2284 12.1721 22.1566 z" style="fill:#f0ce76;stroke:#000000;stroke-width:0.3" /><path id="clipregion-32" d="m 17.7798 53.0075 -17.5308 -13.8788 -14.842 11.7541 7.34256 16.6303 22.933 -0.350156 z" style="fill:#f0eaac;stroke:#000000;stroke-width:0.3" /></g></g><g id="region-rounded" inkscape:label="Region Rounded" inkscape:groupmode="layer"><g id="rounded"><path id="roundedregion-0" d="m 16.1825 68.0289 c -0.35 -0.606218 -0.799965 -0.861445 -1.49988 -0.850759 l -20.9332 0.319622 c -0.699918 0.0106868 -1.18006 0.255137 -1.60046 0.814834 l -3.74844 4.99042 11.5995 6.69697 17.3205 -10 z" style="fill:#f0eaac;stroke:#000000;stroke-width:0.3" /><path id="roundedregion-1" d="m 65.7605 20 c -0.7 0 -1.16071 0.253325 -1.53568 0.844418 l -14.6972 23.1677 c -0.374979 0.591093 -0.385685 1.10423 -0.0356846 1.71044 l 2.46959 4.27746 17.3205 -10 0 -20 z" style="fill:#f0eaac;stroke:#000000;stroke-width:0.3" /><path id="roundedregion-2" d="m 48.9648 -35.0907 c -0.420404 0.559697 -0.420111 1.03922 0.000976695 1.5984 l 9.55872 12.6935 c 0.421088 0.559183 0.901554 0.798832 1.60155 0.798832 l 9.15602 0 0 -20 -11.5995 -6.69697 z" style="fill:#f0eaac;stroke:#000000;stroke-width:0.3" /><path id="roundedregion-3" d="m -4.06086 -68.2481 c 0.43811 0.545948 0.9257 0.76978 1.6253 0.746106 l 6.98033 -0.236215 c 0.6996 -0.0236745 1.17537 -0.276814 1.58589 -0.843799 l 4.02274 -5.55594 -10.1534 -5.86207 -9.21984 5.32308 z" style="fill:#f0ce76;stroke:#000000;stroke-width:0.3" /><path id="roundedregion-4" d="m -58.6863 -32.0255 c 0.69412 -0.0905374 1.04873 -0.423849 1.18204 -1.11104 l 0.852772 -4.39605 c 0.133305 -0.68719 0.00809238 -1.21992 -0.417375 -1.77578 l -4.11023 -5.36985 -8.10299 4.67826 0 9.35652 z" style="fill:#e7a311;stroke:#000000;stroke-width:0.3" /><path id="roundedregion-5" d="m -52.0462 36.0803 c 0.410521 -0.566985 0.361119 -1.00802 -0.164675 -1.47013 l -6.88178 -6.04819 c -0.525794 -0.462104 -1.04765 -0.614532 -1.73951 -0.508092 l -8.44987 1.29998 0 10.6462 10.1534 5.86207 z" style="fill:#f0ce76;stroke:#000000;stroke-width:0.3" /><path id="roundedregion-6" d="m 49.4919 45.7225 c -0.35 -0.606218 -0.788592 -0.947967 -1.46197 -1.13916 l -13.1197 -3.72514 c -0.673382 -0.191196 -1.19987 -0.0903625 -1.75495 0.336113 l -14.5825 11.2039 c -0.555084 0.426476 -0.836946 0.906012 -0.939539 1.59845 l -1.80417 12.177 c -0.102593 0.692441 0.00343821 1.24901 0.353438 1.85523 l 1.13801 1.97109 34.641 -20 z" style="fill:#f0eaac;stroke:#000000;stroke-width:0.3" /><path id="roundedregion-7" d="m 60.126 -20 c -0.7 0 -1.13197 0.269415 -1.4399 0.898049 l -10.3939 21.2192 c -0.307927 0.628634 -0.228244 1.11066 0.265611 1.60675 l 15.4971 15.5673 c 0.493855 0.496092 1.00551 0.708703 1.70551 0.708703 l 3.52155 3.55271e-15 0 -40 z" style="fill:#f0eaac;stroke:#000000;stroke-width:0.3" /><path id="roundedregion-8" d="m 28.057 -45.9547 c -0.234385 0.659594 -0.160658 1.18654 0.245756 1.75647 l 3.36215 4.71492 c 0.406414 0.569937 0.870103 0.892828 1.54563 1.0763 l 14.1886 3.85369 c 0.675527 0.183476 1.14521 0.022239 1.56562 -0.537458 l 8.71778 -11.6063 -24.3634 -14.0662 z" style="fill:#f0eaac;stroke:#000000;stroke-width:0.3" /><path id="roundedregion-9" d="m 6.13066 -68.582 c -0.410521 0.566985 -0.429075 1.06538 -0.0618439 1.66132 l 11.6936 18.9762 c 0.367231 0.595938 0.817576 0.915947 1.50115 1.0667 l 7.48211 1.65005 c 0.683575 0.15075 1.07699 -0.0673257 1.31137 -0.726919 l 5.26216 -14.8085 -23.1658 -13.3748 z" style="fill:#f0eaac;stroke:#000000;stroke-width:0.3" /><path id="roundedregion-10" d="m -24.3277 -55.2116 c 0.263885 0.648355 0.6767 0.939171 1.37605 0.969385 l 9.3008 0.401823 c 0.699348 0.030214 1.16677 -0.205585 1.55808 -0.785998 l 8.09874 -12.0126 c 0.391307 -0.580413 0.371249 -1.06314 -0.0668612 -1.60909 l -5.15898 -6.42884 -18.6483 10.7666 z" style="fill:#f0ce76;stroke:#000000;stroke-width:0.3" /><path id="roundedregion-11" d="m -43.6284 -48.04 c 0.264883 0.647948 0.668889 1.00059 1.34669 1.17549 l 9.14543 2.3598 c 0.6778 0.174893 1.1584 0.0177789 1.60201 -0.523714 l 6.94984 -8.48341 c 0.443605 -0.541493 0.520628 -1.05143 0.256743 -1.69978 l -3.54045 -8.69873 -17.9998 10.3922 z" style="fill:#e7a311;stroke:#000000;stroke-width:0.3" /><path id="roundedregion-12" d="m -57.0688 -39.3084 c 0.425468 0.555857 0.859233 0.630413 1.44588 0.24852 l 11.5349 -7.50891 c 0.58665 -0.381893 0.72455 -0.823253 0.459667 -1.4712 l -2.23949 -5.47818 -15.3112 8.83992 z" style="fill:#f0ce76;stroke:#000000;stroke-width:0.3" /><path id="roundedregion-13" d="m -61.9168 -11.9593 c 0.693581 0.0945792 1.17211 -0.103918 1.59511 -0.661658 l 7.35698 -9.70049 c 0.422997 -0.55774 0.451782 -1.05512 0.0959495 -1.65793 l -4.31756 -7.31434 c -0.355832 -0.602813 -0.805812 -0.822359 -1.49993 -0.731822 l -10.5958 1.38206 0 17.6798 z" style="fill:#f0ce76;stroke:#000000;stroke-width:0.3" /><path id="roundedregion-14" d="m -62.631 8.73807 c 0.693435 0.0956462 1.20665 -0.0715271 1.71071 -0.557244 l 3.22563 -3.10823 c 0.504062 -0.485717 0.649011 -0.98534 0.483162 -1.66541 l -3.47755 -14.2598 c -0.165849 -0.680069 -0.534176 -1.01206 -1.22776 -1.10664 l -7.36523 -1.00435 0 20.7843 z" style="fill:#e7a311;stroke:#000000;stroke-width:0.3" /><path id="roundedregion-15" d="m -60.8322 28.0539 c 0.69186 -0.10644 0.96017 -0.450729 0.894367 -1.14763 l -1.60858 -17.036 c -0.0658031 -0.6969 -0.391191 -1.03656 -1.08463 -1.13221 l -6.65104 -0.917384 0 21.5332 z" style="fill:#f0ce76;stroke:#000000;stroke-width:0.3" /><path id="roundedregion-16" d="m -32.001 48.0877 c 0.234385 -0.659594 0.201211 -1.21087 -0.110578 -1.8376 l -4.76138 -9.57085 c -0.311789 -0.626728 -0.745215 -0.906214 -1.44475 -0.931621 l -12.1427 -0.441013 c -0.699539 -0.0254067 -1.17528 0.206698 -1.5858 0.773683 l -7.08244 9.7818 23.1658 13.3748 z" style="fill:#f0eaac;stroke:#000000;stroke-width:0.3" /><path id="roundedregion-17" d="m -7.85105 68.3126 c 0.420404 -0.559697 0.479407 -1.07401 0.196677 -1.71437 l -6.53476 -14.8007 c -0.28273 -0.640362 -0.696961 -0.978954 -1.38077 -1.12864 l -15.1194 -3.30964 c -0.683809 -0.149686 -1.07732 0.0688462 -1.3117 0.72844 l -3.96183 11.1492 24.3634 14.0662 z" style="fill:#f0eaac;stroke:#000000;stroke-width:0.3" /><path id="roundedregion-18" d="m -30.9586 25.6505 c -0.622479 0.320188 -1.0369 0.718563 -1.38141 1.32792 l -4.4862 7.93502 c -0.344509 0.609355 -0.358532 1.1391 -0.0467429 1.76583 l 4.76138 9.57085 c 0.311789 0.626728 0.738474 0.959476 1.42228 1.10916 l 15.1194 3.30964 c 0.683809 0.149686 1.21205 0.0275854 1.76081 -0.407001 l 13.2741 -10.5124 c 0.548757 -0.434586 0.771779 -0.920591 0.743407 -1.62002 l -0.613109 -15.114 c -0.0283725 -0.699425 -0.332258 -1.06915 -1.01295 -1.23242 l -14.0465 -3.36911 c -0.680694 -0.163267 -1.2392 -0.0960154 -1.86168 0.224172 z" style="fill:#f0eaac;stroke:#000000;stroke-width:0.3" /><path id="roundedregion-19" d="m -16.6045 17.1949 c 0.11761 0.690049 0.45974 1.05576 1.14043 1.21902 l 14.0465 3.36911 c 0.680694 0.163267 1.21821 0.0612253 1.79171 -0.340139 l 3.88697 -2.72028 c 0.573504 -0.401364 0.861093 -0.870451 0.95863 -1.56362 l 3.59002 -25.5134 c 0.0975372 -0.693171 -0.122763 -1.1362 -0.734335 -1.47676 l -11.7905 -6.56563 c -0.611572 -0.340558 -1.10155 -0.291388 -1.63326 0.163898 l -14.0348 12.0176 c -0.531709 0.455286 -0.70918 0.946144 -0.59157 1.63619 z" style="fill:#f0ce76;stroke:#000000;stroke-width:0.3" /><path id="roundedregion-20" d="m -12.0438 -53.0032 c -0.42553 -0.55581 -0.90762 -0.806962 -1.60697 -0.837176 l -9.3008 -0.401823 c -0.699348 -0.030214 -1.18918 0.188905 -1.63279 0.730398 l -6.94984 8.48341 c -0.443605 0.541493 -0.56703 1.06605 -0.411416 1.74854 l 2.42611 10.6403 c 0.155614 0.682484 0.510562 1.05809 1.18316 1.25203 l 19.8801 5.7323 c 0.672598 0.193939 1.07595 1.17523e-05 1.3445 -0.646425 l 5.0723 -12.2097 c 0.268551 -0.646437 0.201274 -1.16169 -0.224256 -1.71749 z" style="fill:#f0ce76;stroke:#000000;stroke-width:0.3" /><path id="roundedregion-21" d="m -40.5607 -20.4822 c 0.683161 0.152615 1.17693 -0.00470276 1.64588 -0.524393 l 8.94764 -9.91561 c 0.468958 -0.519691 0.603248 -1.03491 0.447634 -1.71739 l -2.42611 -10.6403 c -0.155614 -0.682484 -0.512792 -1.04993 -1.19059 -1.22482 l -9.14543 -2.3598 c -0.6778 -0.174893 -1.21971 -0.0861789 -1.80636 0.295714 l -11.5349 7.50891 c -0.58665 0.381893 -0.895202 0.840071 -1.02851 1.52726 l -0.852772 4.39605 c -0.133305 0.68719 -0.0379362 1.24005 0.317896 1.84286 l 4.31756 7.31434 c 0.355832 0.602813 0.801115 0.926568 1.48428 1.07918 z" style="fill:#f0ce76;stroke:#000000;stroke-width:0.3" /><path id="roundedregion-22" d="m 31.7861 -37.7808 c 0.321592 -0.621755 0.28524 -1.13248 -0.121174 -1.70242 l -3.36215 -4.71492 c -0.406414 -0.569937 -0.873552 -0.878803 -1.55713 -1.02955 l -7.48211 -1.65005 c -0.683575 -0.15075 -1.2566 -0.107811 -1.91007 0.14313 l -18.0758 6.9413 c -0.653474 0.250941 -1.04863 0.635532 -1.31718 1.28197 l -5.0723 12.2097 c -0.268551 0.646437 -0.286524 1.20733 -0.0599099 1.86963 l 2.25916 6.60262 c 0.226614 0.662304 0.585837 1.0921 1.19741 1.43266 l 11.7905 6.56563 c 0.611572 0.340558 1.16209 0.403948 1.83506 0.211301 l 7.61894 -2.18103 c 0.672969 -0.192647 1.09921 -0.541677 1.4208 -1.16343 z" style="fill:#f0eaac;stroke:#000000;stroke-width:0.3" /><path id="roundedregion-23" d="m -21.1136 -3.8045 c 0.679609 0.167725 1.19875 0.0444851 1.73045 -0.410801 l 14.0348 -12.0176 c 0.531709 -0.455286 0.662464 -0.934253 0.43585 -1.59656 l -2.25916 -6.60262 c -0.226614 -0.662304 -0.61199 -1.02926 -1.28459 -1.2232 l -19.8801 -5.7323 c -0.672598 -0.193939 -1.16184 -0.0543315 -1.63079 0.465359 l -8.94764 9.91561 c -0.468958 0.519691 -0.573664 1.02655 -0.349021 1.68952 l 3.75873 11.0929 c 0.224643 0.662975 0.61218 1.01899 1.29179 1.18671 z" style="fill:#f0ce76;stroke:#000000;stroke-width:0.3" /><path id="roundedregion-24" d="m -43.5385 4.82773 c -0.337045 -0.613515 -0.78133 -0.866557 -1.48095 -0.843473 l -10.9557 0.361479 c -0.699619 0.0230837 -1.21548 0.241141 -1.71955 0.726858 l -3.22563 3.10823 c -0.504062 0.485717 -0.691888 0.992553 -0.626085 1.68945 l 1.60858 17.036 c 0.0658031 0.6969 0.319345 1.19362 0.845139 1.65572 l 6.88178 6.04819 c 0.525794 0.462104 1.05094 0.671038 1.75048 0.696444 l 12.1427 0.441013 c 0.699539 0.0254067 1.14699 -0.224857 1.4915 -0.834212 l 4.4862 -7.93502 c 0.344509 -0.609355 0.347708 -1.13344 0.0106627 -1.74696 z" style="fill:#f0ce76;stroke:#000000;stroke-width:0.3" /><path id="roundedregion-25" d="m 46.8699 3.20202 c 0.687683 -0.130736 1.11437 -0.45618 1.4223 -1.08481 l 10.3939 -21.2192 c 0.307927 -0.628634 0.25943 -1.1377 -0.161658 -1.69688 l -9.55872 -12.6935 c -0.421088 -0.559183 -0.891065 -0.877465 -1.56659 -1.06094 l -14.1886 -3.85369 c -0.675527 -0.183476 -1.10286 0.00435712 -1.42446 0.626112 l -12.8359 24.8165 c -0.321592 0.621755 -0.215073 1.06228 0.355063 1.46841 l 21.2788 15.1579 c 0.570136 0.406134 1.1092 0.524162 1.79688 0.393426 z" style="fill:#f0eaac;stroke:#000000;stroke-width:0.3" /><path id="roundedregion-26" d="m 19.3052 -11.4959 c -0.570136 -0.406134 -1.1029 -0.497629 -1.77586 -0.304981 l -7.61894 2.18103 c -0.672969 0.192647 -1.00319 0.572284 -1.10072 1.26546 l -3.59002 25.5134 c -0.0975372 0.693171 0.154678 1.04986 0.840716 1.18897 l 20.5281 4.16249 c 0.686039 0.139108 1.15989 -0.0414005 1.57949 -0.601695 l 12.6311 -16.8661 c 0.419607 -0.560295 0.355094 -0.974479 -0.215042 -1.38061 z" style="fill:#f0ce76;stroke:#000000;stroke-width:0.3" /><path id="roundedregion-27" d="m -35.8026 -6.49121 c 0.432885 -0.550101 0.522131 -1.06999 0.297487 -1.73296 l -3.75873 -11.0929 c -0.224643 -0.662975 -0.613702 -1.01251 -1.29686 -1.16513 l -10.8238 -2.41799 c -0.683161 -0.152615 -1.15723 0.0210095 -1.58023 0.578749 l -7.35698 9.70049 c -0.422997 0.55774 -0.533203 1.08823 -0.367354 1.7683 l 3.47755 14.2598 c 0.165849 0.680069 0.536764 0.961634 1.23638 0.938551 l 10.9557 -0.361479 c 0.699619 -0.0230837 1.18498 -0.268734 1.61786 -0.818835 z" style="fill:#e7a311;stroke:#000000;stroke-width:0.3" /><path id="roundedregion-28" d="m 42.381 4.05542 c -0.687683 0.130736 -1.16224 0.426892 -1.58184 0.987187 l -12.6311 16.8661 c -0.419607 0.560295 -0.498602 1.08297 -0.263317 1.74224 l 5.70743 15.9923 c 0.235285 0.659273 0.624714 1.02376 1.2981 1.21496 l 13.1197 3.72514 c 0.673382 0.191196 1.12268 0.0198124 1.49766 -0.57128 l 14.6972 -23.1677 c 0.374979 -0.591093 0.324033 -1.05703 -0.169822 -1.55312 l -15.4971 -15.5673 c -0.493855 -0.496092 -1.00023 -0.652673 -1.68791 -0.521937 z" style="fill:#f0eaac;stroke:#000000;stroke-width:0.3" /><path id="roundedregion-29" d="m -2.43556 -67.502 c -0.6996 0.0236745 -1.16713 0.282569 -1.55844 0.862982 l -8.09874 12.0126 c -0.391307 0.580413 -0.37664 1.06736 0.04889 1.62317 l 9.7801 12.7744 c 0.42553 0.55581 0.88796 0.686467 1.54143 0.435526 l 18.0758 -6.9413 c 0.653474 -0.250941 0.77615 -0.61389 0.408919 -1.20983 l -11.6936 -18.9762 c -0.367231 -0.595938 -0.824444 -0.841193 -1.52404 -0.817519 z" style="fill:#f0ce76;stroke:#000000;stroke-width:0.3" /><path id="roundedregion-30" d="m 16.9958 52.3868 c 0.548828 0.434497 1.02193 0.437935 1.57702 0.0114593 l 14.5825 -11.2039 c 0.555084 -0.426476 0.692141 -0.891797 0.456856 -1.55107 l -5.70743 -15.9923 c -0.235285 -0.659273 -0.630138 -1.00144 -1.31618 -1.14054 l -20.5281 -4.16249 c -0.686039 -0.139108 -1.22584 -0.0267125 -1.79935 0.374652 l -3.88697 2.72028 c -0.573504 0.401364 -0.807132 0.873131 -0.778759 1.57256 l 0.613109 15.114 c 0.0283725 0.699425 0.275744 1.18539 0.824572 1.61989 z" style="fill:#f0ce76;stroke:#000000;stroke-width:0.3" /><path id="roundedregion-31" d="m -17.3258 18.6381 c 0.622479 -0.320188 0.838851 -0.753146 0.721242 -1.4432 l -3.37021 -19.774 c -0.11761 -0.690049 -0.459275 -1.05767 -1.13888 -1.22539 l -13.0997 -3.23296 c -0.679609 -0.167725 -1.15639 -0.00385033 -1.58928 0.546251 l -7.59899 9.65664 c -0.432885 0.550101 -0.473959 1.04879 -0.136913 1.66231 l 11.2091 20.4037 c 0.337045 0.613515 0.74827 0.739227 1.37075 0.419039 z" style="fill:#f0ce76;stroke:#000000;stroke-width:0.3" /><path id="roundedregion-32" d="m 17.6332 53.9967 c 0.102593 -0.692441 -0.0886502 -1.17541 -0.637478 -1.60991 l -15.9627 -12.6374 c -0.548828 -0.434497 -1.01922 -0.434459 -1.56798 0.000127404 l -13.2741 10.5124 c -0.548757 0.434586 -0.662769 0.895279 -0.380039 1.53564 l 6.53476 14.8007 c 0.28273 0.640362 0.703865 0.910223 1.40378 0.899536 l 20.9332 -0.319622 c 0.699918 -0.0106868 1.04385 -0.312027 1.14645 -1.00447 z" style="fill:#f0eaac;stroke:#000000;stroke-width:0.3" /></g></g><g id="region" inkscape:label="Region" inkscape:groupmode="layer" style="display:none"><path id="region-0" d="m 15.6825 67.1629 4.97381 8.61489 -8.3395 20.2222 -19.245 0 -10.7957 -14.5434 10.4734 -13.9436 z" style="fill:#ffffff;stroke:#000000;stroke-width:0.3" /><path id="region-1" d="m 48.9919 44.8565 6.3054 10.9213 21.6827 2.88889 12.3168 -21.3333 -13.3432 -17.3333 -11.1932 -3.55271e-15 z" style="fill:#ffffff;stroke:#000000;stroke-width:0.3" /><path id="region-2" d="m 64.4854 -55.7539 -16.1212 21.4627 10.7618 14.2912 16.8276 0 13.3432 -17.3333 -9.6225 -16.6667 z" style="fill:#ffffff;stroke:#000000;stroke-width:0.3" /><path id="region-3" d="m -3.43498 -67.4682 -13.2066 -16.4573 12.9465 -12.0745 10.6232 0 9.6458 12.9944 -11.0298 15.2336 z" style="fill:#ffffff;stroke:#000000;stroke-width:0.3" /><path id="region-4" d="m -57.6947 -32.1549 1.23364 -6.35945 -12.5767 -16.4309 -12.2532 3.74527 -3.69504 6.4 3.63292 15.731 z" style="fill:#ffffff;stroke:#000000;stroke-width:0.3" /><path id="region-5" d="m -59.8438 27.9018 -22.0221 3.38802 -3.12004 13.5102 5.31162 9.2 13.5229 1.56149 14.6917 -20.2912 z" style="fill:#ffffff;stroke:#000000;stroke-width:0.3" /><path id="region-6" d="m 17.7798 53.0075 16.1685 -12.4224 15.0437 4.27142 6.3054 10.9213 -10.5848 21.6667 -24.0563 -1.66667 -4.97381 -8.61489 z" style="fill:#ffffff;stroke:#000000;stroke-width:0.3" /><path id="region-7" d="m 47.8523 3.01525 16.9082 16.9847 11.1932 3.55271e-15 13.4715 -20 -13.4715 -20 -16.8276 0 z" style="fill:#ffffff;stroke:#000000;stroke-width:0.3" /><path id="region-8" d="m 64.4854 -55.7539 -16.1212 21.4627 -16.1187 -4.37791 -4.52333 -6.34331 8.94449 -25.1711 19.8242 0.338407 z" style="fill:#ffffff;stroke:#000000;stroke-width:0.3" /><path id="region-9" d="m 5.5442 -67.772 11.0298 -15.2336 13.833 2.3392 6.25969 10.4829 -8.94449 25.1711 -9.43518 -2.08076 z" style="fill:#ffffff;stroke:#000000;stroke-width:0.3" /><path id="region-10" d="m -3.43498 -67.4682 -13.2066 -16.4573 -5.66032 0.497469 -9.64937 9.48551 8.00059 19.6571 11.2989 0.488149 z" style="fill:#ffffff;stroke:#000000;stroke-width:0.3" /><path id="region-11" d="m -31.9513 -73.9425 -10.6052 0.232516 -8.24584 8.12125 7.55236 18.4744 11.082 2.8595 8.21728 -10.0305 z" style="fill:#ffffff;stroke:#000000;stroke-width:0.3" /><path id="region-12" d="m -69.0377 -54.9453 12.5767 16.4309 13.211 -8.60003 -7.55236 -18.4744 -11.9984 1.61463 z" style="fill:#ffffff;stroke:#000000;stroke-width:0.3" /><path id="region-13" d="m -52.3604 -23.1182 -5.33422 -9.03667 -23.6584 3.08588 -2.65761 6.669 2.69215 7.79503 20.3925 2.7808 z" style="fill:#ffffff;stroke:#000000;stroke-width:0.3" /><path id="region-14" d="m -56.9746 4.37871 -3.95141 -16.2029 -20.3925 -2.7808 -3.79448 14.605 3.34491 6.09848 20.1277 2.77623 z" style="fill:#ffffff;stroke:#000000;stroke-width:0.3" /><path id="region-15" d="m -59.8438 27.9018 -22.0221 3.38802 -5.22231 -8.88983 5.32016 -16.3015 20.1277 2.77623 z" style="fill:#ffffff;stroke:#000000;stroke-width:0.3" /><path id="region-16" d="m -51.4597 35.2703 -14.6917 20.2912 9.9995 13.6965 17.0053 -1.06156 7.48042 -21.051 -5.6522 -11.3615 z" style="fill:#ffffff;stroke:#000000;stroke-width:0.3" /><path id="region-17" d="m -7.25047 67.513 -10.4734 13.9436 -12.5048 -1.09901 -8.91793 -12.1612 7.48042 -21.051 17.0732 3.73731 z" style="fill:#ffffff;stroke:#000000;stroke-width:0.3" /><path id="region-18" d="m -31.8479 26.1079 -5.47051 9.67604 5.6522 11.3615 17.0732 3.73731 14.842 -11.7541 -0.694173 -17.1124 -15.9913 -3.83559 z" style="fill:#ffffff;stroke:#000000;stroke-width:0.3" /><path id="region-19" d="m -16.4365 18.1807 15.9913 3.83559 5.52555 -3.86704 3.8687 -27.4938 -13.5379 -7.53865 -15.554 13.3184 z" style="fill:#ffffff;stroke:#000000;stroke-width:0.3" /><path id="region-20" d="m -1.65584 -39.4349 -5.83959 14.0567 -21.8018 -6.28641 -2.87073 -12.5902 8.21728 -10.0305 11.2989 0.488149 z" style="fill:#ffffff;stroke:#000000;stroke-width:0.3" /><path id="region-21" d="m -52.3604 -23.1182 -5.33422 -9.03667 1.23364 -6.35945 13.211 -8.60003 11.082 2.8595 2.87073 12.5902 -10.2875 11.4004 z" style="fill:#ffffff;stroke:#000000;stroke-width:0.3" /><path id="region-22" d="m 18.4908 -12.0761 -9.5417 2.73146 -13.5379 -7.53865 -2.90662 -8.49492 5.83959 -14.0567 19.9428 -7.65828 9.43518 2.08076 4.52333 6.34331 z" style="fill:#ffffff;stroke:#000000;stroke-width:0.3" /><path id="region-23" d="m -20.1428 -3.5649 15.554 -13.3184 -2.90662 -8.49492 -21.8018 -6.28641 -10.2875 11.4004 4.40057 12.9871 z" style="fill:#ffffff;stroke:#000000;stroke-width:0.3" /><path id="region-24" d="m -31.8479 26.1079 -5.47051 9.67604 -14.1413 -0.513604 -8.38405 -7.36849 -1.79659 -19.0271 4.66581 -4.496 12.9546 -0.427432 z" style="fill:#ffffff;stroke:#000000;stroke-width:0.3" /><path id="region-25" d="m 41.3986 4.24218 -22.9078 -16.3183 13.7548 -26.593 16.1187 4.37791 10.7618 14.2912 -11.2737 23.0153 z" style="fill:#ffffff;stroke:#000000;stroke-width:0.3" /><path id="region-26" d="m 41.3986 4.24218 -13.83 18.467 -22.4882 -4.55994 3.8687 -27.4938 9.5417 -2.73146 z" style="fill:#ffffff;stroke:#000000;stroke-width:0.3" /><path id="region-27" d="m -44.02 3.95128 -12.9546 0.427432 -3.95141 -16.2029 8.56554 -11.294 12.7757 2.85403 4.40057 12.9871 z" style="fill:#ffffff;stroke:#000000;stroke-width:0.3" /><path id="region-28" d="m 41.3986 4.24218 -13.83 18.467 6.37967 17.876 15.0437 4.27142 15.7686 -24.8565 -16.9082 -16.9847 z" style="fill:#ffffff;stroke:#000000;stroke-width:0.3" /><path id="region-29" d="m -3.43498 -67.4682 -9.21676 13.6709 10.9959 14.3624 19.9428 -7.65828 -12.7428 -20.6789 z" style="fill:#ffffff;stroke:#000000;stroke-width:0.3" /><path id="region-30" d="m 17.7798 53.0075 16.1685 -12.4224 -6.37967 -17.876 -22.4882 -4.55994 -5.52555 3.86704 0.694173 17.1124 z" style="fill:#ffffff;stroke:#000000;stroke-width:0.3" /><path id="region-31" d="m -31.8479 26.1079 -12.1721 -22.1566 8.8358 -11.2284 15.0414 3.71218 3.70624 21.7455 z" style="fill:#ffffff;stroke:#000000;stroke-width:0.3" /><path id="region-32" d="m 17.7798 53.0075 -17.5308 -13.8788 -14.842 11.7541 7.34256 16.6303 22.933 -0.350156 z" style="fill:#ffffff;stroke:#000000;stroke-width:0.3" /></g><g id="seeds" inkscape:label="Seeds" inkscape:groupmode="layer" style="display:none"><circle id="seed-0" cx="0.0" cy="80.0" r="1.0" style="fill:#000000;stroke:none;stroke-width:0" /><circle id="seed-1" cx="69.28203230275508" cy="40.0" r="1.0" style="fill:#000000;stroke:none;stroke-width:0" /><circle id="seed-2" cx="69.28203230275508" cy="-40.0" r="1.0" style="fill:#000000;stroke:none;stroke-width:0" /><circle id="seed-3" cx="0.0" cy="-80.0" r="1.0" style="fill:#000000;stroke:none;stroke-width:0" /><circle id="seed-4" cx="-69.28203230275508" cy="-40.0" r="1.0" style="fill:#000000;stroke:none;stroke-width:0" /><circle id="seed-5" cx="-69.28203230275508" cy="40.0" r="1.0" style="fill:#000000;stroke:none;stroke-width:0" /><circle id="seed-6" cx="34.64101615137754" cy="60.0" r="1.0" style="fill:#000000;stroke:none;stroke-width:0" /><circle id="seed-7" cx="69.28203230275508" cy="0.0" r="1.0" style="fill:#000000;stroke:none;stroke-width:0" /><circle id="seed-8" cx="48.0189616428459" cy="-55.971281292110206" r="1.0" style="fill:#000000;stroke:none;stroke-width:0" /><circle id="seed-9" cx="18.891789367798975" cy="-66.32153903091735" r="1.0" style="fill:#000000;stroke:none;stroke-width:0" /><circle id="seed-10" cx="-16.41332839871632" cy="-66.82871870788979" r="1.0" style="fill:#000000;stroke:none;stroke-width:0" /><circle id="seed-11" cx="-38.1051177665153" cy="-58.0" r="1.0" style="fill:#000000;stroke:none;stroke-width:0" /><circle id="seed-12" cx="-54.54716487312142" cy="-51.27846096908266" r="1.0" style="fill:#000000;stroke:none;stroke-width:0" /><circle id="seed-13" cx="-66.88203230275508" cy="-21.6" r="1.0" style="fill:#000000;stroke:none;stroke-width:0" /><circle id="seed-14" cx="-69.28203230275508" cy="-4.0" r="1.0" style="fill:#000000;stroke:none;stroke-width:0" /><circle id="seed-15" cx="-72.48203230275509" cy="19.200000000000003" r="1.0" style="fill:#000000;stroke:none;stroke-width:0" /><circle id="seed-16" cx="-50.390242934956106" cy="53.67846096908266" r="1.0" style="fill:#000000;stroke:none;stroke-width:0" /><circle id="seed-17" cx="-21.263070659909182" cy="64.0287187078898" r="1.0" style="fill:#000000;stroke:none;stroke-width:0" /><circle id="seed-18" cx="-15.160925492683363" cy="36.152317621362" r="1.0" style="fill:#000000;stroke:none;stroke-width:0" /><circle id="seed-19" cx="-7.147555653262477" cy="2.742941453968281" r="1.0" style="fill:#000000;stroke:none;stroke-width:0" /><circle id="seed-20" cx="-17.52321403175608" cy="-41.13875371266137" r="1.0" style="fill:#000000;stroke:none;stroke-width:0" /><circle id="seed-21" cx="-44.0144200112108" cy="-35.09844324650744" r="1.0" style="fill:#000000;stroke:none;stroke-width:0" /><circle id="seed-22" cx="10.748069612262041" cy="-29.39393901297044" r="1.0" style="fill:#000000;stroke:none;stroke-width:0" /><circle id="seed-23" cx="-24.374987825033497" cy="-17.37622417469018" r="1.0" style="fill:#000000;stroke:none;stroke-width:0" /><circle id="seed-24" cx="-49.05767977664991" cy="16.988213208730787" r="1.0" style="fill:#000000;stroke:none;stroke-width:0" /><circle id="seed-25" cx="37.09862229610822" cy="-15.76457147863677" r="1.0" style="fill:#000000;stroke:none;stroke-width:0" /><circle id="seed-26" cx="21.08496160733329" cy="6.71558428723009" r="1.0" style="fill:#000000;stroke:none;stroke-width:0" /><circle id="seed-27" cx="-49.906086735953885" cy="-8.725223536062824" r="1.0" style="fill:#000000;stroke:none;stroke-width:0" /><circle id="seed-28" cx="44.740250497502714" cy="24.4311072816825" r="1.0" style="fill:#000000;stroke:none;stroke-width:0" /><circle id="seed-29" cx="0.8393282428827451" cy="-55.19719065647015" r="1.0" style="fill:#000000;stroke:none;stroke-width:0" /><circle id="seed-30" cx="15.367182190125837" cy="34.91392971766253" r="1.0" style="fill:#000000;stroke:none;stroke-width:0" /><circle id="seed-31" cx="-30.31483188170836" cy="6.691498657584598" r="1.0" style="fill:#000000;stroke:none;stroke-width:0" /><circle id="seed-32" cx="-0.38460983082063316" cy="54.81054344515017" r="1.0" style="fill:#000000;stroke:none;stroke-width:0" /></g><g id="region_ids" inkscape:label="Region Ids" inkscape:groupmode="layer" style="display:none" transform="scale(1,-1)"><text id="text1425" x="-1.4" y="-80.0" style="font-style:normal;font-weight:normal;font-size:4px;font-family:sans-serif;fill:#000000;fill-opacity:1;stroke:none"><tspan x="-1.4" y="-80.0">0</tspan></text><text id="text1426" x="67.88203230275508" y="-40.0" style="font-style:normal;font-weight:normal;font-size:4px;font-family:sans-serif;fill:#000000;fill-opacity:1;stroke:none"><tspan x="67.88203230275508" y="-40.0">1</tspan></text><text id="text1427" x="67.88203230275508" y="40.0" style="font-style:normal;font-weight:normal;font-size:4px;font-family:sans-serif;fill:#000000;fill-opacity:1;stroke:none"><tspan x="67.88203230275508" y="40.0">2</tspan></text><text id="text1428" x="-1.4" y="80.0" style="font-style:normal;font-weight:normal;font-size:4px;font-family:sans-serif;fill:#000000;fill-opacity:1;stroke:none"><tspan x="-1.4" y="80.0">3</tspan></text><text id="text1429" x="-70.68203230275509" y="40.0" style="font-style:normal;font-weight:normal;font-size:4px;font-family:sans-serif;fill:#000000;fill-opacity:1;stroke:none"><tspan x="-70.68203230275509" y="40.0">4</tspan></text><text id="text1430" x="-70.68203230275509" y="-40.0" style="font-style:normal;font-weight:normal;font-size:4px;font-family:sans-serif;fill:#000000;fill-opacity:1;stroke:none"><tspan x="-70.68203230275509" y="-40.0">5</tspan></text><text id="text1431" x="33.24101615137754" y="-60.0" style="font-style:normal;font-weight:normal;font-size:4px;font-family:sans-serif;fill:#000000;fill-opacity:1;stroke:none"><tspan x="33.24101615137754" y="-60.0">6</tspan></text><text id="text1432" x="67.88203230275508" y="-0.0" style="font-style:normal;font-weight:normal;font-size:4px;font-family:sans-serif;fill:#000000;fill-opacity:1;stroke:none"><tspan x="67.88203230275508" y="-0.0">7</tspan></text><text id="text1433" x="46.6189616428459" y="55.971281292110206" style="font-style:normal;font-weight:normal;font-size:4px;font-family:sans-serif;fill:#000000;fill-opacity:1;stroke:none"><tspan x="46.6189616428459" y="55.971281292110206">8</tspan></text><text id="text1434" x="17.491789367798976" y="66.32153903091735" style="font-style:normal;font-weight:normal;font-size:4px;font-family:sans-serif;fill:#000000;fill-opacity:1;stroke:none"><tspan x="17.491789367798976" y="66.32153903091735">9</tspan></text><text id="text1435" x="-17.81332839871632" y="66.82871870788979" style="font-style:normal;font-weight:normal;font-size:4px;font-family:sans-serif;fill:#000000;fill-opacity:1;stroke:none"><tspan x="-17.81332839871632" y="66.82871870788979">10</tspan></text><text id="text1436" x="-39.5051177665153" y="58.0" style="font-style:normal;font-weight:normal;font-size:4px;font-family:sans-serif;fill:#000000;fill-opacity:1;stroke:none"><tspan x="-39.5051177665153" y="58.0">11</tspan></text><text id="text1437" x="-55.947164873121416" y="51.27846096908266" style="font-style:normal;font-weight:normal;font-size:4px;font-family:sans-serif;fill:#000000;fill-opacity:1;stroke:none"><tspan x="-55.947164873121416" y="51.27846096908266">12</tspan></text><text id="text1438" x="-68.28203230275508" y="21.6" style="font-style:normal;font-weight:normal;font-size:4px;font-family:sans-serif;fill:#000000;fill-opacity:1;stroke:none"><tspan x="-68.28203230275508" y="21.6">13</tspan></text><text id="text1439" x="-70.68203230275509" y="4.0" style="font-style:normal;font-weight:normal;font-size:4px;font-family:sans-serif;fill:#000000;fill-opacity:1;stroke:none"><tspan x="-70.68203230275509" y="4.0">14</tspan></text><text id="text1440" x="-73.88203230275509" y="-19.200000000000003" style="font-style:normal;font-weight:normal;font-size:4px;font-family:sans-serif;fill:#000000;fill-opacity:1;stroke:none"><tspan x="-73.88203230275509" y="-19.200000000000003">15</tspan></text><text id="text1441" x="-51.790242934956105" y="-53.67846096908266" style="font-style:normal;font-weight:normal;font-size:4px;font-family:sans-serif;fill:#000000;fill-opacity:1;stroke:none"><tspan x="-51.790242934956105" y="-53.67846096908266">16</tspan></text><text id="text1442" x="-22.66307065990918" y="-64.0287187078898" style="font-style:normal;font-weight:normal;font-size:4px;font-family:sans-serif;fill:#000000;fill-opacity:1;stroke:none"><tspan x="-22.66307065990918" y="-64.0287187078898">17</tspan></text><text id="text1443" x="-16.560925492683364" y="-36.152317621362" style="font-style:normal;font-weight:normal;font-size:4px;font-family:sans-serif;fill:#000000;fill-opacity:1;stroke:none"><tspan x="-16.560925492683364" y="-36.152317621362">18</tspan></text><text id="text1444" x="-8.547555653262476" y="-2.742941453968281" style="font-style:normal;font-weight:normal;font-size:4px;font-family:sans-serif;fill:#000000;fill-opacity:1;stroke:none"><tspan x="-8.547555653262476" y="-2.742941453968281">19</tspan></text><text id="text1445" x="-18.92321403175608" y="41.13875371266137" style="font-style:normal;font-weight:normal;font-size:4px;font-family:sans-serif;fill:#000000;fill-opacity:1;stroke:none"><tspan x="-18.92321403175608" y="41.13875371266137">20</tspan></text><text id="text1446" x="-45.4144200112108" y="35.09844324650744" style="font-style:normal;font-weight:normal;font-size:4px;font-family:sans-serif;fill:#000000;fill-opacity:1;stroke:none"><tspan x="-45.4144200112108" y="35.09844324650744">21</tspan></text><text id="text1447" x="9.34806961226204" y="29.39393901297044" style="font-style:normal;font-weight:normal;font-size:4px;font-family:sans-serif;fill:#000000;fill-opacity:1;stroke:none"><tspan x="9.34806961226204" y="29.39393901297044">22</tspan></text><text id="text1448" x="-25.774987825033495" y="17.37622417469018" style="font-style:normal;font-weight:normal;font-size:4px;font-family:sans-serif;fill:#000000;fill-opacity:1;stroke:none"><tspan x="-25.774987825033495" y="17.37622417469018">23</tspan></text><text id="text1449" x="-50.45767977664991" y="-16.988213208730787" style="font-style:normal;font-weight:normal;font-size:4px;font-family:sans-serif;fill:#000000;fill-opacity:1;stroke:none"><tspan x="-50.45767977664991" y="-16.988213208730787">24</tspan></text><text id="text1450" x="35.69862229610822" y="15.76457147863677" style="font-style:normal;font-weight:normal;font-size:4px;font-family:sans-serif;fill:#000000;fill-opacity:1;stroke:none"><tspan x="35.69862229610822" y="15.76457147863677">25</tspan></text><text id="text1451" x="19.684961607333292" y="-6.71558428723009" style="font-style:normal;font-weight:normal;font-size:4px;font-family:sans-serif;fill:#000000;fill-opacity:1;stroke:none"><tspan x="19.684961607333292" y="-6.71558428723009">26</tspan></text><text id="text1452" x="-51.30608673595388" y="8.725223536062824" style="font-style:normal;font-weight:normal;font-size:4px;font-family:sans-serif;fill:#000000;fill-opacity:1;stroke:none"><tspan x="-51.30608673595388" y="8.725223536062824">27</tspan></text><text id="text1453" x="43.340250497502716" y="-24.4311072816825" style="font-style:normal;font-weight:normal;font-size:4px;font-family:sans-serif;fill:#000000;fill-opacity:1;stroke:none"><tspan x="43.340250497502716" y="-24.4311072816825">28</tspan></text><text id="text1454" x="-0.5606717571172548" y="55.19719065647015" style="font-style:normal;font-weight:normal;font-size:4px;font-family:sans-serif;fill:#000000;fill-opacity:1;stroke:none"><tspan x="-0.5606717571172548" y="55.19719065647015">29</tspan></text><text id="text1455" x="13.967182190125836" y="-34.91392971766253" style="font-style:normal;font-weight:normal;font-size:4px;font-family:sans-serif;fill:#000000;fill-opacity:1;stroke:none"><tspan x="13.967182190125836" y="-34.91392971766253">30</tspan></text><text id="text1456" x="-31.71483188170836" y="-6.691498657584598" style="font-style:normal;font-weight:normal;font-size:4px;font-family:sans-serif;fill:#000000;fill-opacity:1;stroke:none"><tspan x="-31.71483188170836" y="-6.691498657584598">31</tspan></text><text id="text1457" x="-1.784609830820633" y="-54.81054344515017" style="font-style:normal;font-weight:normal;font-size:4px;font-family:sans-serif;fill:#000000;fill-opacity:1;stroke:none"><tspan x="-1.784609830820633" y="-54.81054344515017">32</tspan></text></g><g id="seed_exclusion" inkscape:label="Seed Exclusion" inkscape:groupmode="layer" style="display:none"><circle id="seed-ex-0" cx="0.0" cy="80.0" r="24.0" style="fill:#800000;stroke:none;stroke-width:0;fill-opacity:0.15" /><circle id="seed-ex-1" cx="69.28203230275508" cy="40.0" r="24.0" style="fill:#800000;stroke:none;stroke-width:0;fill-opacity:0.15" /><circle id="seed-ex-2" cx="69.28203230275508" cy="-40.0" r="24.0" style="fill:#800000;stroke:none;stroke-width:0;fill-opacity:0.15" /><circle id="seed-ex-3" cx="0.0" cy="-80.0" r="19.2" style="fill:#800000;stroke:none;stroke-width:0;fill-opacity:0.15" /><circle id="seed-ex-4" cx="-69.28203230275508" cy="-40.0" r="16.0" style="fill:#800000;stroke:none;stroke-width:0;fill-opacity:0.15" /><circle id="seed-ex-5" cx="-69.28203230275508" cy="40.0" r="19.2" style="fill:#800000;stroke:none;stroke-width:0;fill-opacity:0.15" /><circle id="seed-ex-6" cx="34.64101615137754" cy="60.0" r="24.0" style="fill:#800000;stroke:none;stroke-width:0;fill-opacity:0.15" /><circle id="seed-ex-7" cx="69.28203230275508" cy="0.0" r="24.0" style="fill:#800000;stroke:none;stroke-width:0;fill-opacity:0.15" /><circle id="seed-ex-8" cx="48.0189616428459" cy="-55.971281292110206" r="22.440633611485424" style="fill:#800000;stroke:none;stroke-width:0;fill-opacity:0.15" /><circle id="seed-ex-9" cx="18.891789367798975" cy="-66.32153903091735" r="20.573524791385932" style="fill:#800000;stroke:none;stroke-width:0;fill-opacity:0.15" /><circle id="seed-ex-10" cx="-16.41332839871632" cy="-66.82871870788979" r="18.528118474655255" style="fill:#800000;stroke:none;stroke-width:0;fill-opacity:0.15" /><circle id="seed-ex-11" cx="-38.1051177665153" cy="-58.0" r="17.44" style="fill:#800000;stroke:none;stroke-width:0;fill-opacity:0.15" /><circle id="seed-ex-12" cx="-54.54716487312142" cy="-51.27846096908266" r="16.615911144008557" style="fill:#800000;stroke:none;stroke-width:0;fill-opacity:0.15" /><circle id="seed-ex-13" cx="-66.88203230275508" cy="-21.6" r="16.856088855991445" style="fill:#800000;stroke:none;stroke-width:0;fill-opacity:0.15" /><circle id="seed-ex-14" cx="-69.28203230275508" cy="-4.0" r="17.439999999999998" style="fill:#800000;stroke:none;stroke-width:0;fill-opacity:0.15" /><circle id="seed-ex-15" cx="-72.48203230275509" cy="19.200000000000003" r="18.207881525344742" style="fill:#800000;stroke:none;stroke-width:0;fill-opacity:0.15" /><circle id="seed-ex-16" cx="-50.390242934956106" cy="53.67846096908266" r="20.610475208614066" style="fill:#800000;stroke:none;stroke-width:0;fill-opacity:0.15" /><circle id="seed-ex-17" cx="-21.263070659909182" cy="64.0287187078898" r="22.391366388514573" style="fill:#800000;stroke:none;stroke-width:0;fill-opacity:0.15" /><circle id="seed-ex-18" cx="-15.160925492683363" cy="36.152317621362" r="21.662821278252892" style="fill:#800000;stroke:none;stroke-width:0;fill-opacity:0.15" /><circle id="seed-ex-19" cx="-7.147555653262477" cy="2.742941453968281" r="20.81874191585229" style="fill:#800000;stroke:none;stroke-width:0;fill-opacity:0.15" /><circle id="seed-ex-20" cx="-17.52321403175608" cy="-41.13875371266137" r="19.06133573841338" style="fill:#800000;stroke:none;stroke-width:0;fill-opacity:0.15" /><circle id="seed-ex-21" cx="-44.0144200112108" cy="-35.09844324650744" r="17.621823475939387" style="fill:#800000;stroke:none;stroke-width:0;fill-opacity:0.15" /><circle id="seed-ex-22" cx="10.748069612262041" cy="-29.39393901297044" r="20.98066350847516" style="fill:#800000;stroke:none;stroke-width:0;fill-opacity:0.15" /><circle id="seed-ex-23" cx="-24.374987825033497" cy="-17.37622417469018" r="19.20702117175528" style="fill:#800000;stroke:none;stroke-width:0;fill-opacity:0.15" /><circle id="seed-ex-24" cx="-49.05767977664991" cy="16.988213208730787" r="19.2914949275274" style="fill:#800000;stroke:none;stroke-width:0;fill-opacity:0.15" /><circle id="seed-ex-25" cx="37.09862229610822" cy="-15.76457147863677" r="22.63738596840964" style="fill:#800000;stroke:none;stroke-width:0;fill-opacity:0.15" /><circle id="seed-ex-26" cx="21.08496160733329" cy="6.71558428723009" r="21.959383272388763" style="fill:#800000;stroke:none;stroke-width:0;fill-opacity:0.15" /><circle id="seed-ex-27" cx="-49.906086735953885" cy="-8.725223536062824" r="18.220505698919826" style="fill:#800000;stroke:none;stroke-width:0;fill-opacity:0.15" /><circle id="seed-ex-28" cx="44.740250497502714" cy="24.4311072816825" r="22.960925015678594" style="fill:#800000;stroke:none;stroke-width:0;fill-opacity:0.15" /><circle id="seed-ex-29" cx="0.8393282428827451" cy="-55.19719065647015" r="19.82557556875582" style="fill:#800000;stroke:none;stroke-width:0;fill-opacity:0.15" /><circle id="seed-ex-30" cx="15.367182190125837" cy="34.91392971766253" r="22.672159804699984" style="fill:#800000;stroke:none;stroke-width:0;fill-opacity:0.15" /><circle id="seed-ex-31" cx="-30.31483188170836" cy="6.691498657584598" r="19.81746266286703" style="fill:#800000;stroke:none;stroke-width:0;fill-opacity:0.15" /><circle id="seed-ex-32" cx="-0.38460983082063316" cy="54.81054344515017" r="23.057882043875733" style="fill:#800000;stroke:none;stroke-width:0;fill-opacity:0.15" /></g><g id="margin_exclusion" inkscape:label="Margin Exclusion" inkscape:groupmode="layer" style="display:none"><circle id="circle1458" cx="17.32050807568877" cy="70.0" r="22.0" style="fill:#000080;stroke:none;stroke-width:0;fill-opacity:0.15" /><circle id="circle1459" cx="51.96152422706631" cy="50.0" r="22.0" style="fill:#000080;stroke:none;stroke-width:0;fill-opacity:0.15" /><circle id="circle1460" cx="69.28203230275508" cy="20.0" r="22.0" style="fill:#000080;stroke:none;stroke-width:0;fill-opacity:0.15" /><circle id="circle1461" cx="69.28203230275508" cy="-20.0" r="22.0" style="fill:#000080;stroke:none;stroke-width:0;fill-opacity:0.15" /><circle id="circle1462" cx="57.682540530854425" cy="-46.696969696969695" r="14.626277721963305" style="fill:#000080;stroke:none;stroke-width:0;fill-opacity:0.15" /><circle id="circle1463" cx="33.31918790349603" cy="-60.76315789473684" r="17.001317595998255" style="fill:#000080;stroke:none;stroke-width:0;fill-opacity:0.15" /><circle id="circle1464" cx="10.153401285748608" cy="-74.13793103448275" r="12.828094168659659" style="fill:#000080;stroke:none;stroke-width:0;fill-opacity:0.15" /><circle id="circle1465" cx="-9.219839683366644" cy="-74.67692307692307" r="11.574592865409997" style="fill:#000080;stroke:none;stroke-width:0;fill-opacity:0.15" /><circle id="circle1466" cx="-27.868100234884075" cy="-63.9103448275862" r="12.880807428107914" style="fill:#000080;stroke:none;stroke-width:0;fill-opacity:0.15" /><circle id="circle1467" cx="-45.86785456771036" cy="-53.518181818181816" r="9.769585456916786" style="fill:#000080;stroke:none;stroke-width:0;fill-opacity:0.15" /><circle id="circle1468" cx="-61.17904678560677" cy="-44.678260869565214" r="10.20572388417402" style="fill:#000080;stroke:none;stroke-width:0;fill-opacity:0.15" /><circle id="circle1469" cx="-69.28203230275508" cy="-30.643478260869564" r="10.205723884174018" style="fill:#000080;stroke:none;stroke-width:0;fill-opacity:0.15" /><circle id="circle1470" cx="-69.28203230275508" cy="-12.963636363636365" r="9.76958545691679" style="fill:#000080;stroke:none;stroke-width:0;fill-opacity:0.15" /><circle id="circle1471" cx="-69.28203230275508" cy="7.8206896551724085" r="12.880807428107914" style="fill:#000080;stroke:none;stroke-width:0;fill-opacity:0.15" /><circle id="circle1472" cx="-69.28203230275508" cy="29.353846153846163" r="11.574592865409997" style="fill:#000080;stroke:none;stroke-width:0;fill-opacity:0.15" /><circle id="circle1473" cx="-59.12863101700649" cy="45.862068965517246" r="12.828094168659664" style="fill:#000080;stroke:none;stroke-width:0;fill-opacity:0.15" /><circle id="circle1474" cx="-35.962844399259055" cy="59.23684210526316" r="17.001317595998252" style="fill:#000080;stroke:none;stroke-width:0;fill-opacity:0.15" /><circle id="circle1475" cx="-11.59949177190066" cy="73.30303030303031" r="14.626277721963305" style="fill:#000080;stroke:none;stroke-width:0;fill-opacity:0.15" /></g><g id="circles" inkscape:label="Inscribed Circles" inkscape:groupmode="layer" style="display:none"><circle id="incircle-0" cx="0.0" cy="80.0" r="12.596196313278785" style="fill:#008000;stroke:none;stroke-width:0;fill-opacity:0.15" /><circle id="incircle-ctr-0" cx="0.0" cy="80.0" r="0.5" style="fill:#000000;stroke:none;stroke-width:0" /><circle id="incircle-1" cx="69.28203230275508" cy="40.0" r="14.531771009163817" style="fill:#008000;stroke:none;stroke-width:0;fill-opacity:0.15" /><circle id="incircle-ctr-1" cx="69.28203230275508" cy="40.0" r="0.5" style="fill:#000000;stroke:none;stroke-width:0" /><circle id="incircle-2" cx="69.28203230275508" cy="-40.0" r="13.296616110875723" style="fill:#008000;stroke:none;stroke-width:0;fill-opacity:0.15" /><circle id="incircle-ctr-2" cx="69.28203230275508" cy="-40.0" r="0.5" style="fill:#000000;stroke:none;stroke-width:0" /><circle id="incircle-3" cx="0.0" cy="-80.0" r="10.522357150372727" style="fill:#008000;stroke:none;stroke-width:0;fill-opacity:0.15" /><circle id="incircle-ctr-3" cx="0.0" cy="-80.0" r="0.5" style="fill:#000000;stroke:none;stroke-width:0" /><circle id="incircle-4" cx="-69.28203230275508" cy="-40.0" r="9.277930803794563" style="fill:#008000;stroke:none;stroke-width:0;fill-opacity:0.15" /><circle id="incircle-ctr-4" cx="-69.28203230275508" cy="-40.0" r="0.5" style="fill:#000000;stroke:none;stroke-width:0" /><circle id="incircle-5" cx="-69.28203230275508" cy="40.0" r="10.52235715037272" style="fill:#008000;stroke:none;stroke-width:0;fill-opacity:0.15" /><circle id="incircle-ctr-5" cx="-69.28203230275508" cy="40.0" r="0.5" style="fill:#000000;stroke:none;stroke-width:0" /><circle id="incircle-6" cx="34.64101615137754" cy="60.0" r="15.817645192760802" style="fill:#008000;stroke:none;stroke-width:0;fill-opacity:0.15" /><circle id="incircle-ctr-6" cx="34.64101615137754" cy="60.0" r="0.5" style="fill:#000000;stroke:none;stroke-width:0" /><circle id="incircle-7" cx="69.28203230275508" cy="0.0" r="17.314575198266454" style="fill:#008000;stroke:none;stroke-width:0;fill-opacity:0.15" /><circle id="incircle-ctr-7" cx="69.28203230275508" cy="0.0" r="0.5" style="fill:#000000;stroke:none;stroke-width:0" /><circle id="incircle-8" cx="45.50086421717523" cy="-53.73006379585327" r="13.833437634388087" style="fill:#008000;stroke:none;stroke-width:0;fill-opacity:0.15" /><circle id="incircle-ctr-8" cx="45.50086421717523" cy="-53.73006379585327" r="0.5" style="fill:#000000;stroke:none;stroke-width:0" /><circle id="incircle-9" cx="21.73629459462231" cy="-67.4505444646098" r="13.15346329093861" style="fill:#008000;stroke:none;stroke-width:0;fill-opacity:0.15" /><circle id="incircle-ctr-9" cx="21.73629459462231" cy="-67.4505444646098" r="0.5" style="fill:#000000;stroke:none;stroke-width:0" /><circle id="incircle-10" cx="-18.54396995912536" cy="-69.29363395225464" r="10.641381222185295" style="fill:#008000;stroke:none;stroke-width:0;fill-opacity:0.15" /><circle id="incircle-ctr-10" cx="-18.54396995912536" cy="-69.29363395225464" r="0.5" style="fill:#000000;stroke:none;stroke-width:0" /><circle id="incircle-11" cx="-36.86797740129722" cy="-58.71426332288401" r="10.294696255658444" style="fill:#008000;stroke:none;stroke-width:0;fill-opacity:0.15" /><circle id="incircle-ctr-11" cx="-36.86797740129722" cy="-58.71426332288401" r="0.5" style="fill:#000000;stroke:none;stroke-width:0" /><circle id="incircle-12" cx="-53.52345067665857" cy="-49.09822134387352" r="7.26743581185517" style="fill:#008000;stroke:none;stroke-width:0;fill-opacity:0.15" /><circle id="incircle-ctr-12" cx="-53.52345067665857" cy="-49.09822134387352" r="0.5" style="fill:#000000;stroke:none;stroke-width:0" /><circle id="incircle-13" cx="-69.28203230275508" cy="-21.803557312252963" r="8.7588603590161" style="fill:#008000;stroke:none;stroke-width:0;fill-opacity:0.15" /><circle id="incircle-ctr-13" cx="-69.28203230275508" cy="-21.803557312252963" r="0.5" style="fill:#000000;stroke:none;stroke-width:0" /><circle id="incircle-14" cx="-69.28203230275508" cy="-2.571473354231978" r="10.29469625565844" style="fill:#008000;stroke:none;stroke-width:0;fill-opacity:0.15" /><circle id="incircle-ctr-14" cx="-69.28203230275508" cy="-2.571473354231978" r="0.5" style="fill:#000000;stroke:none;stroke-width:0" /><circle id="incircle-15" cx="-69.28203230275508" cy="18.587267904509282" r="8.520841817497704" style="fill:#008000;stroke:none;stroke-width:0;fill-opacity:0.15" /><circle id="incircle-ctr-15" cx="-69.28203230275508" cy="18.587267904509282" r="0.5" style="fill:#000000;stroke:none;stroke-width:0" /><circle id="incircle-16" cx="-47.545737708132776" cy="52.5494555353902" r="13.153463290938605" style="fill:#008000;stroke:none;stroke-width:0;fill-opacity:0.15" /><circle id="incircle-ctr-16" cx="-47.545737708132776" cy="52.5494555353902" r="0.5" style="fill:#000000;stroke:none;stroke-width:0" /><circle id="incircle-17" cx="-23.78116808557986" cy="66.26993620414673" r="13.833437634388083" style="fill:#008000;stroke:none;stroke-width:0;fill-opacity:0.15" /><circle id="incircle-ctr-17" cx="-23.78116808557986" cy="66.26993620414673" r="0.5" style="fill:#000000;stroke:none;stroke-width:0" /><circle id="incircle-18" cx="-18.07473355489148" cy="35.369580881375434" r="14.322923516844755" style="fill:#008000;stroke:none;stroke-width:0;fill-opacity:0.15" /><circle id="incircle-ctr-18" cx="-18.07473355489148" cy="35.369580881375434" r="0.5" style="fill:#000000;stroke:none;stroke-width:0" /><circle id="incircle-19" cx="-6.119965539698912" cy="1.6530933061482749" r="12.946770888800296" style="fill:#008000;stroke:none;stroke-width:0;fill-opacity:0.15" /><circle id="incircle-ctr-19" cx="-6.119965539698912" cy="1.6530933061482749" r="0.5" style="fill:#000000;stroke:none;stroke-width:0" /><circle id="incircle-20" cx="-18.47409639458695" cy="-41.10965360405937" r="12.0739119386723" style="fill:#008000;stroke:none;stroke-width:0;fill-opacity:0.15" /><circle id="incircle-ctr-20" cx="-18.47409639458695" cy="-41.10965360405937" r="0.5" style="fill:#000000;stroke:none;stroke-width:0" /><circle id="incircle-21" cx="-43.621210325459224" cy="-33.04188350264542" r="11.557021942970975" style="fill:#008000;stroke:none;stroke-width:0;fill-opacity:0.15" /><circle id="incircle-ctr-21" cx="-43.621210325459224" cy="-33.04188350264542" r="0.5" style="fill:#000000;stroke:none;stroke-width:0" /><circle id="incircle-22" cx="10.179947464079019" cy="-27.968722931372067" r="14.683184445769136" style="fill:#008000;stroke:none;stroke-width:0;fill-opacity:0.15" /><circle id="incircle-ctr-22" cx="10.179947464079019" cy="-27.968722931372067" r="0.5" style="fill:#000000;stroke:none;stroke-width:0" /><circle id="incircle-23" cx="-24.90132172387102" cy="-17.721951527580067" r="12.178951165224907" style="fill:#008000;stroke:none;stroke-width:0;fill-opacity:0.15" /><circle id="incircle-ctr-23" cx="-24.90132172387102" cy="-17.721951527580067" r="0.5" style="fill:#000000;stroke:none;stroke-width:0" /><circle id="incircle-24" cx="-48.660598239859944" cy="21.309045531788154" r="11.753416901969613" style="fill:#008000;stroke:none;stroke-width:0;fill-opacity:0.15" /><circle id="incircle-ctr-24" cx="-48.660598239859944" cy="21.309045531788154" r="0.5" style="fill:#000000;stroke:none;stroke-width:0" /><circle id="incircle-25" cx="39.58240062008062" cy="-17.188600341433315" r="16.314391744882695" style="fill:#008000;stroke:none;stroke-width:0;fill-opacity:0.15" /><circle id="incircle-ctr-25" cx="39.58240062008062" cy="-17.188600341433315" r="0.5" style="fill:#000000;stroke:none;stroke-width:0" /><circle id="incircle-26" cx="20.9420316102474" cy="7.029515906077668" r="14.050027510413239" style="fill:#008000;stroke:none;stroke-width:0;fill-opacity:0.15" /><circle id="incircle-ctr-26" cx="20.9420316102474" cy="7.029515906077668" r="0.5" style="fill:#000000;stroke:none;stroke-width:0" /><circle id="incircle-27" cx="-48.1913100070557" cy="-9.493021910004893" r="11.555282387530307" style="fill:#008000;stroke:none;stroke-width:0;fill-opacity:0.15" /><circle id="incircle-ctr-27" cx="-48.1913100070557" cy="-9.493021910004893" r="0.5" style="fill:#000000;stroke:none;stroke-width:0" /><circle id="incircle-28" cx="44.03077867974517" cy="24.900393727348778" r="14.490207975079745" style="fill:#008000;stroke:none;stroke-width:0;fill-opacity:0.15" /><circle id="incircle-ctr-28" cx="44.03077867974517" cy="24.900393727348778" r="0.5" style="fill:#000000;stroke:none;stroke-width:0" /><circle id="incircle-29" cx="1.1580922480926539" cy="-54.18012431831949" r="10.864579606722836" style="fill:#008000;stroke:none;stroke-width:0;fill-opacity:0.15" /><circle id="incircle-ctr-29" cx="1.1580922480926539" cy="-54.18012431831949" r="0.5" style="fill:#000000;stroke:none;stroke-width:0" /><circle id="incircle-30" cx="16.981923848573114" cy="34.478175423400145" r="13.638147608286818" style="fill:#008000;stroke:none;stroke-width:0;fill-opacity:0.15" /><circle id="incircle-ctr-30" cx="16.981923848573114" cy="34.478175423400145" r="0.5" style="fill:#000000;stroke:none;stroke-width:0" /><circle id="incircle-31" cx="-30.076019743243947" cy="6.171649595192498" r="11.152092555926357" style="fill:#008000;stroke:none;stroke-width:0;fill-opacity:0.15" /><circle id="incircle-ctr-31" cx="-30.076019743243947" cy="6.171649595192498" r="0.5" style="fill:#000000;stroke:none;stroke-width:0" /><circle id="incircle-32" cx="0.3277353925795339" cy="54.578645584409955" r="12.064543052430562" style="fill:#008000;stroke:none;stroke-width:0;fill-opacity:0.15" /><circle id="incircle-ctr-32" cx="0.3277353925795339" cy="54.578645584409955" r="0.5" style="fill:#000000;stroke:none;stroke-width:0" /></g><g id="annotations" inkscape:label="Annotations" inkscape:groupmode="layer" transform="scale(1,-1)"><text id="text1476" x="-92" y="84.5" style="font-style:normal;font-weight:normal;font-size:4px;font-family:sans-serif;fill:#000000;fill-opacity:1;stroke:none"><tspan x="-92" y="84.5">id: 404</tspan></text><ns0:text xml:space="preserve" style="font-style:normal;font-weight:normal;font-size:4.23333px;line-height:1.25;font-family:sans-serif;text-align:center;text-anchor:middle;fill:#000000;fill-opacity:1;stroke:none;stroke-width:0.264583" x="-1.7974526e-07" y="0" id="tile-id" transform="translate(0 -72)"><ns0:tspan ns1:role="line" id="tspan439" style="font-style:normal;font-variant:normal;font-weight:bold;font-stretch:normal;font-size:4.23333px;font-family:'Arial Black';-inkscape-font-specification:'Arial Black,  Bold';text-align:center;text-anchor:middle;fill:#808080;fill-opacity:1;stroke-width:0.264583" x="-1.4621764e-07" y="0">404</ns0:tspan></ns0:text>
  <text id="text1477" x="-92" y="90.0" style="font-style:normal;font-weight:normal;font-size:4px;font-family:sans-serif;fill:#000000;fill-opacity:1;stroke:none"><tspan x="-92" y="90.0">size: 80</tspan></text><text id="text1478" x="-92" y="95.5" style="font-style:normal;font-weight:normal;font-size:4px;font-family:sans-serif;fill:#000000;fill-opacity:1;stroke:none"><tspan x="-92" y="95.5">rng seed 256</tspan></text><text id="text1479" x="-92" y="101.0" style="font-style:normal;font-weight:normal;font-size:4px;font-family:sans-serif;fill:#000000;fill-opacity:1;stroke:none"><tspan x="-92" y="101.0">pattern 111232 / lllmhm</tspan></text><text id="text1480" x="-92" y="106.5" style="font-style:normal;font-weight:normal;font-size:4px;font-family:sans-serif;fill:#000000;fill-opacity:1;stroke:none"><tspan x="-92" y="106.5">seed attempts: 20</tspan></text><text id="text1481" x="-92" y="112.0" style="font-style:normal;font-weight:normal;font-size:4px;font-family:sans-serif;fill:#000000;fill-opacity:1;stroke:none"><tspan x="-92" y="112.0">seed distance: l 0.3; m 0.24; h 0.2</tspan></text><text id="text1482" x="-92" y="117.5" style="font-style:normal;font-weight:normal;font-size:4px;font-family:sans-serif;fill:#000000;fill-opacity:1;stroke:none"><tspan x="-92" y="117.5">center: (AVG) 0.263</tspan></text><text id="text1483" x="-92" y="123.0" style="font-style:normal;font-weight:normal;font-size:4px;font-family:sans-serif;fill:#000000;fill-opacity:1;stroke:none"><tspan x="-92" y="123.0">min ridge length: 0.08; at edge: 0.04</tspan></text><text id="text1484" x="-92" y="128.5" style="font-style:normal;font-weight:normal;font-size:4px;font-family:sans-serif;fill:#000000;fill-opacity:1;stroke:none"><tspan x="-92" y="128.5">edge margin exclusion zone scale: 1.1</tspan></text><text id="text1485" x="-92" y="134.0" style="font-style:normal;font-weight:normal;font-size:4px;font-family:sans-serif;fill:#000000;fill-opacity:1;stroke:none"><tspan x="-92" y="134.0">iterations: 22</tspan></text><text id="text1486" x="-92" y="139.5" style="font-style:normal;font-weight:normal;font-size:4px;font-family:sans-serif;fill:#000000;fill-opacity:1;stroke:none"><tspan x="-92" y="139.5">adjustments: side 0.011, neighbor -0.009</tspan></text><text id="text1487" x="-92" y="145.0" style="font-style:normal;font-weight:normal;font-size:4px;font-family:sans-serif;fill:#000000;fill-opacity:1;stroke:none"><tspan x="-92" y="145.0">closeness: 0.9, adjust -0.013</tspan></text><text id="text1488" x="-1.5" y="-82" style="font-style:normal;font-weight:normal;font-size:4px;font-family:sans-serif;fill:#000000;fill-opacity:1;stroke:none"><tspan x="-1.5" y="-82">L</tspan></text><text id="text1489" x="-1.5" y="-82" style="font-style:normal;font-weight:normal;font-size:4px;font-family:sans-serif;fill:#000000;fill-opacity:1;stroke:none" transform="rotate(60)"><tspan x="-1.5" y="-82">L</tspan></text><text id="text1490" x="-1.5" y="-82" style="font-style:normal;font-weight:normal;font-size:4px;font-family:sans-serif;fill:#000000;fill-opacity:1;stroke:none" transform="rotate(120)"><tspan x="-1.5" y="-82">L</tspan></text><text id="text1491" x="-1.5" y="-82" style="font-style:normal;font-weight:normal;font-size:4px;font-family:sans-serif;fill:#000000;fill-opacity:1;stroke:none" transform="rotate(180)"><tspan x="-1.5" y="-82">M</tspan></text><text id="text1492" x="-1.5" y="-82" style="font-style:normal;font-weight:normal;font-size:4px;font-family:sans-serif;fill:#000000;fill-opacity:1;stroke:none" transform="rotate(240)"><tspan x="-1.5" y="-82">H</tspan></text><text id="text1493" x="-1.5" y="-82" style="font-style:normal;font-weight:normal;font-size:4px;font-family:sans-serif;fill:#000000;fill-opacity:1;stroke:none" transform="rotate(300)"><tspan x="-1.5" y="-82">M</tspan></text><g id="node1494" transform="rotate(30)"><text id="text1495" x="-1.5" y="-72.28203230275508" style="font-style:normal;font-weight:normal;font-size:4px;font-family:sans-serif;fill:#000000;fill-opacity:1;stroke:none"><tspan x="-1.5" y="-72.28203230275508">L</tspan></text></g><g id="node1496" transform="rotate(90)"><text id="text1497" x="-1.5" y="-72.28203230275508" style="font-style:normal;font-weight:normal;font-size:4px;font-family:sans-serif;fill:#000000;fill-opacity:1;stroke:none"><tspan x="-1.5" y="-72.28203230275508">L</tspan></text></g><g id="node1498" transform="rotate(150)"><text id="text1499" x="-15.099999999999998" y="-72.28203230275508" style="font-style:normal;font-weight:normal;font-size:4px;font-family:sans-serif;fill:#000000;fill-opacity:1;stroke:none"><tspan x="-15.099999999999998" y="-72.28203230275508">L</tspan></text><text id="text1500" x="15.299999999999997" y="-72.28203230275508" style="font-style:normal;font-weight:normal;font-size:4px;font-family:sans-serif;fill:#000000;fill-opacity:1;stroke:none"><tspan x="15.299999999999997" y="-72.28203230275508">L</tspan></text></g><g id="node1501" transform="rotate(210)"><text id="text1502" x="-20.7" y="-72.28203230275508" style="font-style:normal;font-weight:normal;font-size:4px;font-family:sans-serif;fill:#000000;fill-opacity:1;stroke:none"><tspan x="-20.7" y="-72.28203230275508">M</tspan></text><text id="text1503" x="2.5" y="-72.28203230275508" style="font-style:normal;font-weight:normal;font-size:4px;font-family:sans-serif;fill:#000000;fill-opacity:1;stroke:none"><tspan x="2.5" y="-72.28203230275508">H</tspan></text><text id="text1504" x="20.1" y="-72.28203230275508" style="font-style:normal;font-weight:normal;font-size:4px;font-family:sans-serif;fill:#000000;fill-opacity:1;stroke:none"><tspan x="20.1" y="-72.28203230275508">M</tspan></text></g><g id="node1505" transform="rotate(270)"><text id="text1506" x="-23.1" y="-72.28203230275508" style="font-style:normal;font-weight:normal;font-size:4px;font-family:sans-serif;fill:#000000;fill-opacity:1;stroke:none"><tspan x="-23.1" y="-72.28203230275508">M</tspan></text><text id="text1507" x="-5.5" y="-72.28203230275508" style="font-style:normal;font-weight:normal;font-size:4px;font-family:sans-serif;fill:#000000;fill-opacity:1;stroke:none"><tspan x="-5.5" y="-72.28203230275508">H</tspan></text><text id="text1508" x="17.700000000000003" y="-72.28203230275508" style="font-style:normal;font-weight:normal;font-size:4px;font-family:sans-serif;fill:#000000;fill-opacity:1;stroke:none"><tspan x="17.700000000000003" y="-72.28203230275508">M</tspan></text></g><g id="node1509" transform="rotate(330)"><text id="text1510" x="-18.299999999999997" y="-72.28203230275508" style="font-style:normal;font-weight:normal;font-size:4px;font-family:sans-serif;fill:#000000;fill-opacity:1;stroke:none"><tspan x="-18.299999999999997" y="-72.28203230275508">L</tspan></text><text id="text1511" x="12.099999999999994" y="-72.28203230275508" style="font-style:normal;font-weight:normal;font-size:4px;font-family:sans-serif;fill:#000000;fill-opacity:1;stroke:none"><tspan x="12.099999999999994" y="-72.28203230275508">L</tspan></text></g><g id="node1512" transform="rotate(150)"><rect id="rect1513" x="0.10000000000000142" y="-77.28203230275508" width="3" height="8" style="fill:#a2c6ff;stroke:#000000;stroke-width:0.3" /><text id="text1514" x="0.10000000000000142" y="-79.28203230275508" style="font-style:normal;font-weight:normal;font-size:4px;font-family:sans-serif;fill:#000000;fill-opacity:1;stroke:none"><tspan x="0.10000000000000142" y="-79.28203230275508">R</tspan></text></g><g id="node1515" transform="rotate(330)"><rect id="rect1516" x="-3.1000000000000014" y="-77.28203230275508" width="3" height="8" style="fill:#a2c6ff;stroke:#000000;stroke-width:0.3" /><text id="text1517" x="-3.1000000000000014" y="-79.28203230275508" style="font-style:normal;font-weight:normal;font-size:4px;font-family:sans-serif;fill:#000000;fill-opacity:1;stroke:none"><tspan x="-3.1000000000000014" y="-79.28203230275508">R</tspan></text></g><circle id="mana" cx="50" cy="110" r="7.5" style="fill:#000000;stroke:none;stroke-width:0" /><rect id="rect1518" x="75" y="90" width="15" height="6" style="fill:#be850a;stroke:#000000;stroke-width:0.3" /><text id="text1519" x="70" y="94.5" style="font-style:normal;font-weight:normal;font-size:4px;font-family:sans-serif;fill:#000000;fill-opacity:1;stroke:none"><tspan x="70" y="94.5">V</tspan></text><rect id="rect1520" x="75" y="100" width="15" height="6" style="fill:#e7a311;stroke:#000000;stroke-width:0.3" /><text id="text1521" x="70" y="104.5" style="font-style:normal;font-weight:normal;font-size:4px;font-family:sans-serif;fill:#000000;fill-opacity:1;stroke:none"><tspan x="70" y="104.5">H</tspan></text><rect id="rect1522" x="75" y="110" width="15" height="6" style="fill:#f0ce76;stroke:#000000;stroke-width:0.3" /><text id="text1523" x="70" y="114.5" style="font-style:normal;font-weight:normal;font-size:4px;font-family:sans-serif;fill:#000000;fill-opacity:1;stroke:none"><tspan x="70" y="114.5">M</tspan></text><rect id="rect1524" x="75" y="120" width="15" height="6" style="fill:#f0eaac;stroke:#000000;stroke-width:0.3" /><text id="text1525" x="70" y="124.5" style="font-style:normal;font-weight:normal;font-size:4px;font-family:sans-serif;fill:#000000;fill-opacity:1;stroke:none"><tspan x="70" y="124.5">L</tspan></text><rect id="rect1526" x="75" y="130" width="15" height="6" style="fill:#a2c6ff;stroke:#000000;stroke-width:0.3" /><text id="text1527" x="70" y="134.5" style="font-style:normal;font-weight:normal;font-size:4px;font-family:sans-serif;fill:#000000;fill-opacity:1;stroke:none"><tspan x="70" y="134.5">R</tspan></text></g><g id="river-border" inkscape:label="River Border" inkscape:groupmode="layer"><path id="path1528" d="m 36.6667 -70.1835 -8.94449 25.1711 z" style="fill:none;stroke:#000000;stroke-width:2.6;stroke-linecap:round;stroke-linejoin:round" /><path id="path1529" d="m 32.2455 -38.6691 -13.7548 26.593 z" style="fill:none;stroke:#000000;stroke-width:2.6;stroke-linecap:round;stroke-linejoin:round" /><path id="path1530" d="m 8.94906 -9.34464 9.5417 -2.73146 z" style="fill:none;stroke:#000000;stroke-width:2.6;stroke-linecap:round;stroke-linejoin:round" /><path id="path1531" d="m 27.7222 -45.0124 4.52333 6.34331 z" style="fill:none;stroke:#000000;stroke-width:2.6;stroke-linecap:round;stroke-linejoin:round" /><path id="path1532" d="m 5.08036 18.1492 3.8687 -27.4938 z" style="fill:none;stroke:#000000;stroke-width:2.6;stroke-linecap:round;stroke-linejoin:round" /><path id="path1533" d="m 5.08036 18.1492 -5.52555 3.86704 z" style="fill:none;stroke:#000000;stroke-width:2.6;stroke-linecap:round;stroke-linejoin:round" /><path id="path1534" d="m -31.6662 47.1454 -7.48042 21.051 z" style="fill:none;stroke:#000000;stroke-width:2.6;stroke-linecap:round;stroke-linejoin:round" /><path id="path1535" d="m -31.6662 47.1454 -5.6522 -11.3615 z" style="fill:none;stroke:#000000;stroke-width:2.6;stroke-linecap:round;stroke-linejoin:round" /><path id="path1536" d="m -16.4365 18.1807 -15.4113 7.92721 z" style="fill:none;stroke:#000000;stroke-width:2.6;stroke-linecap:round;stroke-linejoin:round" /><path id="path1537" d="m -37.3184 35.7839 5.47051 -9.67604 z" style="fill:none;stroke:#000000;stroke-width:2.6;stroke-linecap:round;stroke-linejoin:round" /><path id="path1538" d="m -0.445191 22.0162 -15.9913 -3.83559 z" style="fill:none;stroke:#000000;stroke-width:2.6;stroke-linecap:round;stroke-linejoin:round" /></g><g id="river" inkscape:label="River" inkscape:groupmode="layer"><path id="path1528" d="m 36.6667 -70.1835 -8.94449 25.1711 z" style="fill:none;stroke:#a2c6ff;stroke-width:2.0;stroke-linecap:round;stroke-linejoin:round" /><path id="path1529" d="m 32.2455 -38.6691 -13.7548 26.593 z" style="fill:none;stroke:#a2c6ff;stroke-width:2.0;stroke-linecap:round;stroke-linejoin:round" /><path id="path1530" d="m 8.94906 -9.34464 9.5417 -2.73146 z" style="fill:none;stroke:#a2c6ff;stroke-width:2.0;stroke-linecap:round;stroke-linejoin:round" /><path id="path1531" d="m 27.7222 -45.0124 4.52333 6.34331 z" style="fill:none;stroke:#a2c6ff;stroke-width:2.0;stroke-linecap:round;stroke-linejoin:round" /><path id="path1532" d="m 5.08036 18.1492 3.8687 -27.4938 z" style="fill:none;stroke:#a2c6ff;stroke-width:2.0;stroke-linecap:round;stroke-linejoin:round" /><path id="path1533" d="m 5.08036 18.1492 -5.52555 3.86704 z" style="fill:none;stroke:#a2c6ff;stroke-width:2.0;stroke-linecap:round;stroke-linejoin:round" /><path id="path1534" d="m -31.6662 47.1454 -7.48042 21.051 z" style="fill:none;stroke:#a2c6ff;stroke-width:2.0;stroke-linecap:round;stroke-linejoin:round" /><path id="path1535" d="m -31.6662 47.1454 -5.6522 -11.3615 z" style="fill:none;stroke:#a2c6ff;stroke-width:2.0;stroke-linecap:round;stroke-linejoin:round" /><path id="path1536" d="m -16.4365 18.1807 -15.4113 7.92721 z" style="fill:none;stroke:#a2c6ff;stroke-width:2.0;stroke-linecap:round;stroke-linejoin:round" /><path id="path1537" d="m -37.3184 35.7839 5.47051 -9.67604 z" style="fill:none;stroke:#a2c6ff;stroke-width:2.0;stroke-linecap:round;stroke-linejoin:round" /><path id="path1538" d="m -0.445191 22.0162 -15.9913 -3.83559 z" style="fill:none;stroke:#a2c6ff;stroke-width:2.0;stroke-linecap:round;stroke-linejoin:round" /></g><g id="overlay" inkscape:label="Overlay" inkscape:groupmode="layer" transform="scale(1,-1)"><ns0:path ns1:nodetypes="ccccc" ns2:connector-curvature="0" id="obj-bridge" d="m -1.3629478,2.973799 c 0.6829002,-2.17565439 0.68923869,-3.60295062 0.015075,-5.9083917 l 2.8035417,0.00714 C 0.73648446,-0.63363961 0.73738591,0.81474035 1.4406036,2.9809656 Z" style="display:inline;fill:#000000;fill-opacity:1;stroke:none;stroke-width:2.14313;stroke-linecap:round;stroke-miterlimit:4;stroke-dasharray:2.14313, 4.28625;stroke-dashoffset:0;stroke-opacity:1" transform="translate(6.968702977035407 -4.729262870599186) rotate(81.99040529194764)" />
  <ns0:path ns1:nodetypes="cccccccccccccccc" style="display:inline;fill:#5ba22d;fill-opacity:1;fill-rule:evenodd;stroke:#000000;stroke-width:0.225018px;stroke-linecap:butt;stroke-linejoin:miter;stroke-opacity:1" d="m -0.03929664,-3.4250467 -1.21990906,1.785649 0.63078516,0.083817 -0.84435416,1.6018086 0.68675246,-0.0203464 -0.94321836,2.1362987 1.41248336,-0.326599 -0.0770308,0.6564974 h 0.8646239 L 0.39222286,1.8758406 1.8078469,2.0800142 0.70780196,0.0885405 1.4946226,0.1491327 0.54903346,-1.6560267 1.1778369,-1.6381673 Z" id="obj-tree" ns2:connector-curvature="0" transform="translate(15.367182190125837 -34.91392971766253)" />
  <ns0:path ns1:nodetypes="cccccccccccccccc" style="display:inline;fill:#5ba22d;fill-opacity:1;fill-rule:evenodd;stroke:#000000;stroke-width:0.225018px;stroke-linecap:butt;stroke-linejoin:miter;stroke-opacity:1" d="m -0.03929664,-3.4250467 -1.21990906,1.785649 0.63078516,0.083817 -0.84435416,1.6018086 0.68675246,-0.0203464 -0.94321836,2.1362987 1.41248336,-0.326599 -0.0770308,0.6564974 h 0.8646239 L 0.39222286,1.8758406 1.8078469,2.0800142 0.70780196,0.0885405 1.4946226,0.1491327 0.54903346,-1.6560267 1.1778369,-1.6381673 Z" id="obj-tree" ns2:connector-curvature="0" transform="translate(64.28203230275508 34.0)" />
  <ns0:path ns1:nodetypes="cccccccccccccccc" style="display:inline;fill:#5ba22d;fill-opacity:1;fill-rule:evenodd;stroke:#000000;stroke-width:0.225018px;stroke-linecap:butt;stroke-linejoin:miter;stroke-opacity:1" d="m -0.03929664,-3.4250467 -1.21990906,1.785649 0.63078516,0.083817 -0.84435416,1.6018086 0.68675246,-0.0203464 -0.94321836,2.1362987 1.41248336,-0.326599 -0.0770308,0.6564974 h 0.8646239 L 0.39222286,1.8758406 1.8078469,2.0800142 0.70780196,0.0885405 1.4946226,0.1491327 0.54903346,-1.6560267 1.1778369,-1.6381673 Z" id="obj-tree" ns2:connector-curvature="0" transform="translate(43.0189616428459 47.971281292110206)" />
  <ns0:path ns1:nodetypes="cccccccccccccccc" style="display:inline;fill:#5ba22d;fill-opacity:1;fill-rule:evenodd;stroke:#000000;stroke-width:0.225018px;stroke-linecap:butt;stroke-linejoin:miter;stroke-opacity:1" d="m -0.03929664,-3.4250467 -1.21990906,1.785649 0.63078516,0.083817 -0.84435416,1.6018086 0.68675246,-0.0203464 -0.94321836,2.1362987 1.41248336,-0.326599 -0.0770308,0.6564974 h 0.8646239 L 0.39222286,1.8758406 1.8078469,2.0800142 0.70780196,0.0885405 1.4946226,0.1491327 0.54903346,-1.6560267 1.1778369,-1.6381673 Z" id="obj-tree" ns2:connector-curvature="0" transform="translate(10.748069612262041 29.39393901297044)" />
  <ns0:path ns1:nodetypes="cccccccccccccccc" style="display:inline;fill:#5ba22d;fill-opacity:1;fill-rule:evenodd;stroke:#000000;stroke-width:0.225018px;stroke-linecap:butt;stroke-linejoin:miter;stroke-opacity:1" d="m -0.03929664,-3.4250467 -1.21990906,1.785649 0.63078516,0.083817 -0.84435416,1.6018086 0.68675246,-0.0203464 -0.94321836,2.1362987 1.41248336,-0.326599 -0.0770308,0.6564974 h 0.8646239 L 0.39222286,1.8758406 1.8078469,2.0800142 0.70780196,0.0885405 1.4946226,0.1491327 0.54903346,-1.6560267 1.1778369,-1.6381673 Z" id="obj-tree" ns2:connector-curvature="0" transform="translate(-62.282032302755084 -37.0)" />
  <ns0:path ns1:nodetypes="cccccccccccccccc" style="display:inline;fill:#5ba22d;fill-opacity:1;fill-rule:evenodd;stroke:#000000;stroke-width:0.225018px;stroke-linecap:butt;stroke-linejoin:miter;stroke-opacity:1" d="m -0.03929664,-3.4250467 -1.21990906,1.785649 0.63078516,0.083817 -0.84435416,1.6018086 0.68675246,-0.0203464 -0.94321836,2.1362987 1.41248336,-0.326599 -0.0770308,0.6564974 h 0.8646239 L 0.39222286,1.8758406 1.8078469,2.0800142 0.70780196,0.0885405 1.4946226,0.1491327 0.54903346,-1.6560267 1.1778369,-1.6381673 Z" id="obj-tree" ns2:connector-curvature="0" transform="translate(-17.52321403175608 41.13875371266137)" />
  <ns0:path ns1:nodetypes="cccccccccccccccc" style="display:inline;fill:#5ba22d;fill-opacity:1;fill-rule:evenodd;stroke:#000000;stroke-width:0.225018px;stroke-linecap:butt;stroke-linejoin:miter;stroke-opacity:1" d="m -0.03929664,-3.4250467 -1.21990906,1.785649 0.63078516,0.083817 -0.84435416,1.6018086 0.68675246,-0.0203464 -0.94321836,2.1362987 1.41248336,-0.326599 -0.0770308,0.6564974 h 0.8646239 L 0.39222286,1.8758406 1.8078469,2.0800142 0.70780196,0.0885405 1.4946226,0.1491327 0.54903346,-1.6560267 1.1778369,-1.6381673 Z" id="obj-tree" ns2:connector-curvature="0" transform="translate(-36.1051177665153 53.0)" />
  <ns0:path ns1:nodetypes="cccccccccccccccc" style="display:inline;fill:#5ba22d;fill-opacity:1;fill-rule:evenodd;stroke:#000000;stroke-width:0.225018px;stroke-linecap:butt;stroke-linejoin:miter;stroke-opacity:1" d="m -0.03929664,-3.4250467 -1.21990906,1.785649 0.63078516,0.083817 -0.84435416,1.6018086 0.68675246,-0.0203464 -0.94321836,2.1362987 1.41248336,-0.326599 -0.0770308,0.6564974 h 0.8646239 L 0.39222286,1.8758406 1.8078469,2.0800142 0.70780196,0.0885405 1.4946226,0.1491327 0.54903346,-1.6560267 1.1778369,-1.6381673 Z" id="obj-tree" ns2:connector-curvature="0" transform="translate(-49.05767977664991 -16.988213208730787)" />
  <ns0:path ns1:nodetypes="cccccccccccccccc" style="display:inline;fill:#5ba22d;fill-opacity:1;fill-rule:evenodd;stroke:#000000;stroke-width:0.225018px;stroke-linecap:butt;stroke-linejoin:miter;stroke-opacity:1" d="m -0.03929664,-3.4250467 -1.21990906,1.785649 0.63078516,0.083817 -0.84435416,1.6018086 0.68675246,-0.0203464 -0.94321836,2.1362987 1.41248336,-0.326599 -0.0770308,0.6564974 h 0.8646239 L 0.39222286,1.8758406 1.8078469,2.0800142 0.70780196,0.0885405 1.4946226,0.1491327 0.54903346,-1.6560267 1.1778369,-1.6381673 Z" id="obj-tree" ns2:connector-curvature="0" transform="translate(-65.28203230275508 3.0)" />
  <ns0:path ns1:nodetypes="cccccccccccccccc" style="display:inline;fill:#5ba22d;fill-opacity:1;fill-rule:evenodd;stroke:#000000;stroke-width:0.225018px;stroke-linecap:butt;stroke-linejoin:miter;stroke-opacity:1" d="m -0.03929664,-3.4250467 -1.21990906,1.785649 0.63078516,0.083817 -0.84435416,1.6018086 0.68675246,-0.0203464 -0.94321836,2.1362987 1.41248336,-0.326599 -0.0770308,0.6564974 h 0.8646239 L 0.39222286,1.8758406 1.8078469,2.0800142 0.70780196,0.0885405 1.4946226,0.1491327 0.54903346,-1.6560267 1.1778369,-1.6381673 Z" id="obj-tree" ns2:connector-curvature="0" transform="translate(-16.41332839871632 64.82871870788979)" />
  <ns0:path ns1:nodetypes="cccccccccccccccc" style="display:inline;fill:#5ba22d;fill-opacity:1;fill-rule:evenodd;stroke:#000000;stroke-width:0.225018px;stroke-linecap:butt;stroke-linejoin:miter;stroke-opacity:1" d="m -0.03929664,-3.4250467 -1.21990906,1.785649 0.63078516,0.083817 -0.84435416,1.6018086 0.68675246,-0.0203464 -0.94321836,2.1362987 1.41248336,-0.326599 -0.0770308,0.6564974 h 0.8646239 L 0.39222286,1.8758406 1.8078469,2.0800142 0.70780196,0.0885405 1.4946226,0.1491327 0.54903346,-1.6560267 1.1778369,-1.6381673 Z" id="obj-tree" ns2:connector-curvature="0" transform="translate(-21.263070659909182 -59.028718707889794)" />
  </g><g id="border" inkscape:label="Border" inkscape:groupmode="layer"><path id="path1539" d="m 0 80 69.282 -40 0 -80 -69.282 -40 -69.282 40 0 80 z" style="fill:none;stroke:#000000;stroke-width:0.3" /></g></g></svg>