<?xml version='1.0' encoding='UTF-8'?>
<svg xmlns:ns0="http://www.w3.org/2000/svg" xmlns:ns1="http://sodipodi.sourceforge.net/DTD/sodipodi-0.dtd" xmlns:ns2="http://www.inkscape.org/namespaces/inkscape" version="1.1" id="svg_root" xmlns="http://www.w3.org/2000/svg" xmlns:sodipodi="http://sodipodi.sourceforge.net/DTD/sodipodi-0.dtd" xmlns:inkscape="http://www.inkscape.org/namespaces/inkscape" xmlns:xlink="http://www.w3.org/1999/xlink" width="215.9mm" height="279.4mm" viewBox="0 0 215.9 279.4"><defs><clipPath id="clippath-1388"><path id="path1387" d="m 0 80 69.282 -40 0 -80 -69.282 -40 -69.282 40 0 80 z" /></clipPath><clipPath id="clippath-1390"><path id="path1389" d="m 0 80 69.282 -40 0 -80 -69.282 -40 -69.282 40 0 80 z" /></clipPath></defs><g id="layer" inkscape:label="Layer" inkscape:groupmode="layer" transform="translate(107.95 120) scale(1, -1)"><g id="background" inkscape:label="Tile Background" inkscape:groupmode="layer"><path id="path1314" d="m 0 80 69.282 -40 0 -80 -69.282 -40 -69.282 40 0 80 z" style="fill:#000000;stroke:none;stroke-width:0" /></g><g id="region-clip" inkscape:label="Region Clipped" inkscape:groupmode="layer" style="display:none"><g id="clip"><path id="clipregion-0" d="m 13.696 63.7221 -17.1519 -1.26093 -8.14359 10.8418 11.5995 6.69697 17.3205 -10 z" style="fill:#f0eaac;stroke:#000000;stroke-width:0.3" /><path id="clipregion-1" d="m 65.9725 20 -17.7287 13.9608 -1.79659 6.48794 5.51439 9.55121 17.3205 -10 0 -20 z" style="fill:#f0eaac;stroke:#000000;stroke-width:0.3" /><path id="clipregion-2" d="m 53.0499 -40.5294 12.5972 20.5294 3.63495 3.55271e-15 0 -20 -11.5995 -6.69697 z" style="fill:#f0eaac;stroke:#000000;stroke-width:0.3" /><path id="clipregion-3" d="m -10.4258 -70.2271 17.3658 0.527268 3.21334 -4.43805 -10.1534 -5.86207 -11.7133 6.76267 z" style="fill:#f0ce76;stroke:#000000;stroke-width:0.3" /><path id="clipregion-4" d="m -64.8455 -25.9423 9.97757 -14.5059 -2.70082 -6.3145 -11.7133 6.76267 0 13.5253 z" style="fill:#f0ce76;stroke:#000000;stroke-width:0.3" /><path id="clipregion-5" d="m -54.1893 39.0402 -8.26169 -11.7458 -6.83104 -0.819725 0 13.5253 10.1534 5.86207 z" style="fill:#f0ce76;stroke:#000000;stroke-width:0.3" /><path id="clipregion-6" d="m 46.4471 40.4488 -24.993 5.95235 -7.75812 17.321 3.62452 6.27785 34.641 -20 z" style="fill:#f0eaac;stroke:#000000;stroke-width:0.3" /><path id="clipregion-7" d="m 65.6471 -20 -14.5288 13.0063 14.8542 26.9937 3.30958 -3.55271e-15 0 -40 z" style="fill:#f0eaac;stroke:#000000;stroke-width:0.3" /><path id="clipregion-8" d="m 28.1149 -46.1174 5.66401 4.40629 19.271 1.1818 4.63267 -6.16761 -24.3634 -14.0662 z" style="fill:#f0eaac;stroke:#000000;stroke-width:0.3" /><path id="clipregion-9" d="m 6.94006 -69.6999 6.78106 20.4045 4.95365 4.20645 9.4401 -1.02854 5.20431 -14.6457 -23.1658 -13.3748 z" style="fill:#f0eaac;stroke:#000000;stroke-width:0.3" /><path id="clipregion-10" d="m -23.0337 -47.7666 5.37288 -4.30763 7.23507 -18.1529 -1.28751 -3.01018 -22.9277 13.2373 z" style="fill:#f0ce76;stroke:#000000;stroke-width:0.3" /><path id="clipregion-11" d="m -54.8679 -40.4482 20.8858 4.87757 9.57369 -5.81892 1.37469 -6.37713 -11.6073 -12.2334 -22.9277 13.2373 z" style="fill:#f0ce76;stroke:#000000;stroke-width:0.3" /><path id="clipregion-12" d="m -61.8455 -1.78477 6.33336 -8.69791 -9.33338 -15.4596 -4.43653 -0.532384 0 26.4747 z" style="fill:#f0ce76;stroke:#000000;stroke-width:0.3" /><path id="clipregion-13" d="m -62.451 27.2944 8.26152 -12.5022 -7.65601 -16.577 -7.43655 1.78477 0 26.4747 z" style="fill:#f0ce76;stroke:#000000;stroke-width:0.3" /><path id="clipregion-14" d="m -30.838 44.8147 -4.93918 -4.35025 -18.4121 -1.42429 -4.93933 6.82188 23.1658 13.3748 z" style="fill:#f0eaac;stroke:#000000;stroke-width:0.3" /><path id="clipregion-15" d="m -3.4559 62.4612 -14.4746 -18.7028 -12.9075 1.05633 -5.12486 14.4221 24.3634 14.0662 z" style="fill:#f0eaac;stroke:#000000;stroke-width:0.3" /><path id="clipregion-16" d="m 28.1149 -46.1174 -9.4401 1.02854 -11.0313 16.6456 5.57061 14.837 22.4505 2.12398 -1.88566 -30.2288 z" style="fill:#f0eaac;stroke:#000000;stroke-width:0.3" /><path id="clipregion-17" d="m 30.8478 12.292 -22.208 4.41345 -3.64601 6.31789 16.4603 23.3778 24.993 -5.95235 1.79659 -6.48794 z" style="fill:#f0eaac;stroke:#000000;stroke-width:0.3" /><path id="clipregion-18" d="m -62.451 27.2944 8.26169 11.7458 18.4121 1.42429 -0.914931 -25.161 -17.4974 -0.511277 z" style="fill:#f0ce76;stroke:#000000;stroke-width:0.3" /><path id="clipregion-19" d="m -35.7772 40.4645 4.93918 4.35025 12.9075 -1.05633 13.9633 -17.7137 -25.1858 -19.659 -7.53908 8.91779 z" style="fill:#f0ce76;stroke:#000000;stroke-width:0.3" /><path id="clipregion-20" d="m -54.1895 14.7922 17.4974 0.511277 7.53908 -8.91779 0.308427 -6.53443 -12.5202 -11.4712 -14.1474 1.13729 -6.33336 8.69791 z" style="fill:#e7a311;stroke:#000000;stroke-width:0.3" /><path id="clipregion-21" d="m -15.1971 -8.03875 19.9277 8.37293 8.48346 -13.9405 -5.57061 -14.837 -19.2932 0.465541 z" style="fill:#f0eaac;stroke:#000000;stroke-width:0.3" /><path id="clipregion-22" d="m -28.8446 -0.148731 -0.308427 6.53443 25.1858 19.659 8.96099 -3.02135 3.64601 -6.31789 -3.90916 -16.3713 -19.9277 -8.37293 z" style="fill:#f0ce76;stroke:#000000;stroke-width:0.3" /><path id="clipregion-23" d="m -41.3648 -11.62 12.5202 11.4712 13.6475 -7.89002 3.54739 -19.939 -12.7587 -13.4118 -9.57369 5.81892 z" style="fill:#f0ce76;stroke:#000000;stroke-width:0.3" /><path id="clipregion-24" d="m -55.5121 -10.4827 14.1474 -1.13729 7.38266 -23.9506 -20.8858 -4.87757 -9.97757 14.5059 z" style="fill:#f0ce76;stroke:#000000;stroke-width:0.3" /><path id="clipregion-25" d="m 51.1182 -6.99373 14.5288 -13.0063 -12.5972 -20.5294 -19.271 -1.1818 1.88566 30.2288 4.77385 4.80869 z" style="fill:#f0eaac;stroke:#000000;stroke-width:0.3" /><path id="clipregion-26" d="m -11.6497 -27.9777 19.2932 -0.465541 11.0313 -16.6456 -4.95365 -4.20645 -31.382 -2.77892 -5.37288 4.30763 -1.37469 6.37713 z" style="fill:#f0ce76;stroke:#000000;stroke-width:0.3" /><path id="clipregion-27" d="m 13.696 63.7221 7.75812 -17.321 -16.4603 -23.3778 -8.96099 3.02135 -13.9633 17.7137 14.4746 18.7028 z" style="fill:#f0eaac;stroke:#000000;stroke-width:0.3" /><path id="clipregion-28" d="m 40.4384 -6.67362 -4.77385 -4.80869 -22.4505 -2.12398 -8.48346 13.9405 3.90916 16.3713 22.208 -4.41345 z" style="fill:#f0eaac;stroke:#000000;stroke-width:0.3" /><path id="clipregion-29" d="m 40.4384 -6.67362 -9.59057 18.9656 17.3959 21.6688 17.7287 -13.9608 -14.8542 -26.9937 z" style="fill:#f0eaac;stroke:#000000;stroke-width:0.3" /><path id="clipregion-30" d="m -17.6608 -52.0743 31.382 2.77892 -6.78106 -20.4045 -17.3658 -0.527268 z" style="fill:#f0ce76;stroke:#000000;stroke-width:0.3" /></g></g><g id="region-rounded-fill" inkscape:label="Region Rounded Fill" inkscape:groupmode="layer"><path id="roundedregionfill-0" d="m 14.446 65.0212 c -0.5 -0.866025 -1.24865 -1.3357 -2.24596 -1.40901 l -14.16 -1.04098 c -0.997309 -0.0733178 -1.79625 0.289807 -2.39683 1.08937 l -7.24272 9.64247 11.5995 6.69697 17.3205 -10 z" style="fill:#f0eaac;stroke:none;stroke-width:0" /><path id="roundedregionfill-1" d="m 67.4725 20 c -1 0 -1.89282 0.309337 -2.67847 0.928011 l -15.3718 12.1048 c -0.785648 0.618674 -1.31191 1.40988 -1.57878 2.37361 l -0.995981 3.59674 c -0.266869 0.963733 -0.150303 1.87861 0.349697 2.74464 l 4.76439 8.25217 17.3205 -10 0 -20 z" style="fill:#f0eaac;stroke:none;stroke-width:0" /><path id="roundedregionfill-2" d="m 53.9507 -41.7287 c -0.600577 0.799567 -0.639363 1.62552 -0.116357 2.47784 l 11.0282 17.9724 c 0.523006 0.852329 1.28451 1.27849 2.28451 1.27849 l 2.13495 3.55271e-15 0 -20 -11.5995 -6.69697 z" style="fill:#f0eaac;stroke:none;stroke-width:0" /><path id="roundedregionfill-3" d="m -11.0157 -71.6063 c 0.393256 0.919429 1.08965 1.39432 2.08919 1.42467 l 14.3672 0.436223 c 0.999539 0.0303484 1.79254 -0.359467 2.379 -1.16945 l 2.33365 -3.22308 -10.1534 -5.86207 -11.7133 6.76267 z" style="fill:#f0ce76;stroke:none;stroke-width:0" /><path id="roundedregionfill-4" d="m -66.3348 -26.121 c 0.992877 0.119145 1.77267 -0.23324 2.33938 -1.05716 l 8.27743 -12.0341 c 0.566713 -0.823915 0.653442 -1.69559 0.260186 -2.61502 l -2.11094 -4.93536 -11.7133 6.76267 0 13.5253 z" style="fill:#f0ce76;stroke:none;stroke-width:0" /><path id="roundedregionfill-5" d="m -55.069 40.2552 c 0.586459 -0.809979 0.592032 -1.62393 0.0167194 -2.44187 l -6.53575 -9.292 c -0.575313 -0.817933 -1.35941 -1.28647 -2.35228 -1.40562 l -5.34173 -0.641007 0 13.5253 10.1534 5.86207 z" style="fill:#f0ce76;stroke:none;stroke-width:0" /><path id="roundedregionfill-6" d="m 47.1971 41.7478 c -0.5 -0.866025 -1.2364 -1.1832 -2.20919 -0.951517 l -22.0746 5.25731 c -0.972792 0.23168 -1.66357 0.803839 -2.07235 1.71648 l -6.53181 14.5831 c -0.408772 0.912636 -0.363158 1.80197 0.136842 2.66799 l 2.87452 4.97882 34.641 -20 z" style="fill:#f0eaac;stroke:none;stroke-width:0" /><path id="roundedregionfill-7" d="m 67.1471 -20 c -1 0 -1.87253 0.333494 -2.6176 1.00048 l -12.2936 11.0053 c -0.745069 0.666988 -0.876548 1.43854 -0.394439 2.31465 l 13.4079 24.3654 c 0.48211 0.876111 1.22316 1.31417 2.22316 1.31417 l 1.80958 -3.55271e-15 0 -40 z" style="fill:#f0eaac;stroke:none;stroke-width:0" /><path id="roundedregionfill-8" d="m 28.6171 -47.5309 c -0.334835 0.942277 -0.107609 1.72043 0.68168 2.33445 l 3.29615 2.56422 c 0.789288 0.614023 1.68299 0.951639 2.68112 1.01285 l 16.2766 0.998172 c 0.998125 0.0612105 1.79748 -0.307968 2.39805 -1.10753 l 3.7318 -4.96826 -24.3634 -14.0662 z" style="fill:#f0eaac;stroke:none;stroke-width:0" /><path id="roundedregionfill-9" d="m 7.81975 -70.9149 c -0.586459 0.809979 -0.722003 1.68945 -0.406631 2.63842 l 5.83495 17.5576 c 0.315372 0.948968 0.854185 1.74709 1.61644 2.39437 l 2.66688 2.26462 c 0.762255 0.647277 1.64044 0.91676 2.63456 0.808446 l 6.45775 -0.703599 c 0.994117 -0.108313 1.65859 -0.633608 1.99343 -1.57588 l 4.70206 -13.2323 -23.1658 -13.3748 z" style="fill:#f0eaac;stroke:none;stroke-width:0" /><path id="roundedregionfill-10" d="m -24.0662 -48.8548 c 0.688301 0.725426 1.42255 0.775378 2.20276 0.149857 l 3.03226 -2.43107 c 0.780207 -0.625521 1.35543 -1.40275 1.72567 -2.33169 l 6.12435 -15.3661 c 0.37024 -0.928936 0.358732 -1.85312 -0.0345234 -2.77255 l -0.697624 -1.63104 -22.9277 13.2373 z" style="fill:#f0ce76;stroke:none;stroke-width:0" /><path id="roundedregionfill-11" d="m -55.4578 -41.8273 c 0.393256 0.919429 1.07678 1.49285 2.05058 1.72027 l 17.9644 4.19532 c 0.973798 0.227416 1.88797 0.0814287 2.7425 -0.437962 l 7.01008 -4.26075 c 0.854537 -0.51939 1.38717 -1.26786 1.59789 -2.2454 l 0.742513 -3.44449 c 0.210725 -0.977545 -0.028063 -1.82903 -0.716364 -2.55446 l -10.5748 -11.1452 -22.9277 13.2373 z" style="fill:#f0ce76;stroke:none;stroke-width:0" /><path id="roundedregionfill-12" d="m -63.3041 -1.43471 c 0.972387 -0.233373 1.7529 -0.754259 2.34153 -1.56266 l 4.56746 -6.27271 c 0.588634 -0.8084 0.624531 -1.64064 0.107691 -2.49672 l -7.78286 -12.8914 c -0.51684 -0.856082 -1.2717 -1.3437 -2.26458 -1.46284 l -2.94722 -0.353666 0 26.4747 z" style="fill:#f0ce76;stroke:none;stroke-width:0" /><path id="roundedregionfill-13" d="m -63.9403 27.1157 c 0.992877 0.119145 1.76497 -0.238432 2.31628 -1.07273 l 6.60759 -9.99929 c 0.551311 -0.8343 0.617322 -1.70538 0.198033 -2.61323 l -6.39815 -13.8534 c -0.419288 -0.907853 -1.11513 -1.24509 -2.08751 -1.01172 l -5.97797 1.43471 0 26.4747 z" style="fill:#f0ce76;stroke:none;stroke-width:0" /><path id="roundedregionfill-14" d="m -31.3402 46.2281 c 0.334835 -0.942277 0.127038 -1.74389 -0.623391 -2.40484 l -2.68789 -2.3674 c -0.750429 -0.660951 -1.62415 -1.02999 -2.62118 -1.10711 l -15.4211 -1.19291 c -0.997021 -0.0771255 -1.78876 0.289301 -2.37522 1.09928 l -4.05964 5.60691 23.1658 13.3748 z" style="fill:#f0eaac;stroke:none;stroke-width:0" /><path id="roundedregionfill-15" d="m -4.35677 63.6606 c 0.600577 -0.799567 0.594845 -1.59476 -0.0171965 -2.38559 l -12.6385 -16.3303 c -0.612041 -0.790826 -1.4164 -1.14546 -2.41306 -1.06389 l -9.91748 0.811633 c -0.996668 0.0815659 -1.66242 0.593487 -1.99725 1.53576 l -4.6226 13.0087 24.3634 14.0662 z" style="fill:#f0eaac;stroke:none;stroke-width:0" /><path id="roundedregionfill-16" d="m 29.2988 -45.1964 c -0.789288 -0.614023 -1.68099 -0.866877 -2.67511 -0.758564 l -6.45775 0.703599 c -0.994117 0.108313 -1.76738 0.579254 -2.3198 1.41282 l -9.37404 14.1449 c -0.552417 0.833568 -0.652877 1.71845 -0.30138 2.65464 l 4.51612 12.0284 c 0.351496 0.936189 1.02502 1.45138 2.02058 1.54556 l 19.4638 1.84142 c 0.995555 0.0941869 1.4622 -0.35775 1.39994 -1.35581 l -1.69888 -27.2347 c -0.0622584 -0.99806 -0.488032 -1.8041 -1.27732 -2.41812 z" style="fill:#f0eaac;stroke:none;stroke-width:0" /><path id="roundedregionfill-17" d="m 31.7869 13.4617 c -0.626029 -0.7798 -1.42945 -1.07224 -2.41027 -0.877319 l -19.2656 3.82869 c -0.980819 0.19492 -1.72114 0.725442 -2.22098 1.59156 l -2.14651 3.71952 c -0.499833 0.866122 -0.461894 1.70801 0.113817 2.52566 l 14.7332 20.9248 c 0.575711 0.817653 1.34996 1.11064 2.32275 0.87896 l 22.0746 -5.25731 c 0.972792 -0.23168 1.59262 -0.829387 1.85949 -1.79312 l 0.995981 -3.59674 c 0.266869 -0.963733 0.0872892 -1.8355 -0.53874 -2.6153 z" style="fill:#f0eaac;stroke:none;stroke-width:0" /><path id="roundedregionfill-18" d="m -61.624 26.0429 c -0.551311 0.8343 -0.53931 1.66042 0.0360032 2.47835 l 6.53575 9.292 c 0.575313 0.817933 1.36148 1.26546 2.3585 1.34259 l 15.4211 1.19291 c 0.997021 0.0771255 1.47736 -0.383981 1.44102 -1.38332 l -0.805914 -22.163 c -0.036339 -0.99934 -0.554295 -1.51361 -1.55387 -1.54282 l -14.4986 -0.423654 c -0.999573 -0.0292077 -1.77502 0.373338 -2.32633 1.20764 z" style="fill:#f0ce76;stroke:none;stroke-width:0" /><path id="roundedregionfill-19" d="m -35.8317 38.9655 c 0.036339 0.99934 0.429723 1.82948 1.18015 2.49044 l 2.68789 2.3674 c 0.750429 0.660951 1.62398 0.950643 2.62065 0.869077 l 9.91748 -0.811633 c 0.996668 -0.0815659 1.80453 -0.515019 2.4236 -1.30036 l 12.1061 -15.3577 c 0.619065 -0.785339 0.534454 -1.48566 -0.253835 -2.10097 l -22.821 -17.8131 c -0.788289 -0.615306 -1.50524 -0.541123 -2.15084 0.222548 l -5.60226 6.62678 c -0.645606 0.763671 -0.950239 1.64518 -0.9139 2.64452 z" style="fill:#f0ce76;stroke:none;stroke-width:0" /><path id="roundedregionfill-20" d="m -54.8184 13.4304 c 0.419288 0.907853 1.12872 1.37638 2.12829 1.40559 l 14.4986 0.423654 c 0.999573 0.0292077 1.82216 -0.338024 2.46777 -1.10169 l 5.60226 -6.62678 c 0.645606 -0.763671 0.991983 -1.64495 1.03913 -2.64384 l 0.166983 -3.53776 c 0.0471478 -0.998888 -0.297937 -1.8361 -1.03526 -2.51165 l -10.3082 -9.44461 c -0.737318 -0.675546 -1.60437 -0.973254 -2.60115 -0.893123 l -11.157 0.896899 c -0.996784 0.0801304 -1.78949 0.524395 -2.37813 1.3328 l -4.56746 6.27271 c -0.588634 0.8084 -0.673306 1.66653 -0.254018 2.57438 z" style="fill:#e7a311;stroke:none;stroke-width:0" /><path id="roundedregionfill-21" d="m -14.9344 -9.51556 c -0.175162 0.98454 0.198222 1.67049 1.12015 2.05785 l 17.162 7.21085 c 0.921928 0.387361 1.64282 0.153915 2.16268 -0.700339 l 6.9239 -11.3777 c 0.519856 -0.854254 0.604035 -1.74948 0.252539 -2.68566 l -4.51612 -12.0284 c -0.351496 -0.936189 -1.0271 -1.39222 -2.02681 -1.3681 l -16.2941 0.393173 c -0.999709 0.0241228 -1.58714 0.528454 -1.76231 1.51299 z" style="fill:#f0eaac;stroke:none;stroke-width:0" /><path id="roundedregionfill-22" d="m -27.546 -0.899491 c -0.865733 0.500506 -1.32217 1.2502 -1.36932 2.24909 l -0.166983 3.53776 c -0.0471478 0.998888 0.323423 1.80598 1.11171 2.42129 l 22.821 17.8131 c 0.788289 0.615306 1.65623 0.763211 2.60381 0.443715 l 6.11823 -2.06287 c 0.947588 -0.319496 1.6713 -0.912304 2.17113 -1.77843 l 2.14651 -3.71952 c 0.499833 -0.866122 0.633623 -1.78551 0.40137 -2.75817 l -3.21241 -13.4533 c -0.232252 -0.972656 -0.809342 -1.65266 -1.73127 -2.04003 l -17.162 -7.21085 c -0.921928 -0.387361 -1.81576 -0.330789 -2.68149 0.169717 z" style="fill:#f0ce76;stroke:none;stroke-width:0" /><path id="roundedregionfill-23" d="m -40.9229 -13.0534 c -0.294568 0.95563 -0.0731934 1.77122 0.664124 2.44676 l 10.3082 9.44461 c 0.737318 0.675546 1.53884 0.763066 2.40458 0.26256 l 11.0503 -6.3885 c 0.865733 -0.500506 1.38618 -1.24303 1.56134 -2.22757 l 3.0219 -16.9854 c 0.175162 -0.98454 -0.0818805 -1.83907 -0.771126 -2.5636 l -10.691 -11.2382 c -0.689246 -0.724527 -1.46114 -0.827096 -2.31567 -0.307706 l -7.01008 4.26075 c -0.854537 0.51939 -1.42909 1.2569 -1.72366 2.21253 z" style="fill:#f0ce76;stroke:none;stroke-width:0" /><path id="roundedregionfill-24" d="m -56.2874 -11.7668 c 0.51684 0.856082 1.27365 1.24406 2.27044 1.16393 l 11.157 -0.896899 c 0.996784 -0.0801304 1.64246 -0.598011 1.93703 -1.55364 l 6.49895 -21.0837 c 0.294568 -0.95563 -0.0450465 -1.54715 -1.01884 -1.77457 l -17.9644 -4.19532 c -0.973798 -0.227416 -1.74405 0.0708339 -2.31077 0.894749 l -8.27743 12.0341 c -0.566713 0.823915 -0.591649 1.66391 -0.0748096 2.52 z" style="fill:#f0ce76;stroke:none;stroke-width:0" /><path id="roundedregionfill-25" d="m 49.6189 -6.94879 c 0.999551 -0.0299598 1.87186 -0.378434 2.61693 -1.04542 l 12.2936 -11.0053 c 0.745069 -0.666988 0.8561 -1.42665 0.333095 -2.27898 l -11.0282 -17.9724 c -0.523006 -0.852329 -1.28357 -1.3091 -2.2817 -1.37031 l -16.2766 -0.998172 c -0.998125 -0.0612105 -1.46606 0.407214 -1.4038 1.40527 l 1.69888 27.2347 c 0.0622584 0.99806 0.445653 1.85193 1.15018 2.5616 l 2.66026 2.67967 c 0.704531 0.709673 1.55657 1.04953 2.55612 1.01957 z" style="fill:#f0eaac;stroke:none;stroke-width:0" /><path id="roundedregionfill-26" d="m -12.6836 -29.0645 c 0.689246 0.724527 1.53372 1.07473 2.53343 1.05061 l 16.2941 -0.393173 c 0.999709 -0.0241228 1.77577 -0.452968 2.32819 -1.28654 l 9.37404 -14.1449 c 0.552417 -0.833568 0.447498 -1.57399 -0.314757 -2.22127 l -2.66688 -2.26462 c -0.762255 -0.647277 -1.64143 -1.01502 -2.63754 -1.10323 l -28.3937 -2.5143 c -0.996102 -0.0882064 -1.88426 0.180451 -2.66446 0.805972 l -3.03226 2.43107 c -0.780207 0.625521 -1.27567 1.42705 -1.4864 2.4046 l -0.742513 3.44449 c -0.210725 0.977545 0.0285357 1.82858 0.717782 2.55311 z" style="fill:#f0ce76;stroke:none;stroke-width:0" /><path id="roundedregionfill-27" d="m 12.2 63.6122 c 0.997309 0.0733178 1.70035 -0.346341 2.10912 -1.25898 l 6.53181 -14.5831 c 0.408772 -0.912636 0.325303 -1.77778 -0.250408 -2.59543 l -14.7332 -20.9248 c -0.575711 -0.817653 -1.33736 -1.06673 -2.28495 -0.747237 l -6.11823 2.06287 c -0.947588 0.319496 -1.73091 0.871913 -2.34998 1.65725 l -12.1061 15.3577 c -0.619065 0.785339 -0.622578 1.57342 -0.0105364 2.36425 l 12.6385 16.3303 c 0.612041 0.790826 1.41672 1.2229 2.41402 1.29622 z" style="fill:#f0eaac;stroke:none;stroke-width:0" /><path id="roundedregionfill-28" d="m 39.7615 -5.33504 c 0.451265 -0.89239 0.324632 -1.69342 -0.3799 -2.40309 l -2.66026 -2.67967 c -0.704531 -0.709673 -1.55457 -1.1116 -2.55013 -1.20579 l -19.4638 -1.84142 c -0.995555 -0.0941869 -1.75326 0.285847 -2.27312 1.1401 l -6.9239 11.3777 c -0.519856 0.854254 -0.663657 1.76771 -0.431405 2.74036 l 3.21241 13.4533 c 0.232252 0.972656 0.838788 1.36152 1.81961 1.1666 l 19.2656 -3.82869 c 0.980819 -0.19492 1.69686 -0.738576 2.14813 -1.63097 z" style="fill:#f0eaac;stroke:none;stroke-width:0" /><path id="roundedregionfill-29" d="m 41.9377 -6.71856 c -0.999551 0.0299598 -1.72496 0.491135 -2.17622 1.38352 l -8.23677 16.2885 c -0.451265 0.89239 -0.363883 1.72849 0.262146 2.50829 l 15.5178 19.3294 c 0.626029 0.7798 1.33187 0.860363 2.11751 0.241689 l 15.3718 -12.1048 c 0.785648 -0.618674 0.937417 -1.36607 0.455307 -2.24218 l -13.4079 -24.3654 c -0.48211 -0.876111 -1.22294 -1.29919 -2.22249 -1.26923 z" style="fill:#f0eaac;stroke:none;stroke-width:0" /><path id="roundedregionfill-30" d="m -17.1055 -53.4677 c -0.37024 0.928936 -0.0573089 1.43751 0.938793 1.52571 l 28.3937 2.5143 c 0.996102 0.0882064 1.33647 -0.342175 1.0211 -1.29114 l -5.83495 -17.5576 c -0.315372 -0.948968 -0.972827 -1.43863 -1.97237 -1.46897 l -14.3672 -0.436223 c -0.999539 -0.0303484 -1.68443 0.418946 -2.05467 1.34788 z" style="fill:#f0ce76;stroke:none;stroke-width:0" /></g><g id="region-rounded-stroke" inkscape:label="Region Rounded Stroke" inkscape:groupmode="layer"><path id="roundedregionstroke-0" d="m 17.3205 70 -2.87452 -4.97882 c -0.5 -0.866025 -1.24865 -1.3357 -2.24596 -1.40901 l -14.16 -1.04098 c -0.997309 -0.0733178 -1.79625 0.289807 -2.39683 1.08937 l -7.24272 9.64247" style="fill:none;stroke:#000000;stroke-width:0.9" /><path id="roundedregionstroke-1" d="m 69.282 20 -1.80958 3.55271e-15 c -1 0 -1.89282 0.309337 -2.67847 0.928011 l -15.3718 12.1048 c -0.785648 0.618674 -1.31191 1.40988 -1.57878 2.37361 l -0.995981 3.59674 c -0.266869 0.963733 -0.150303 1.87861 0.349697 2.74464 l 4.76439 8.25217" style="fill:none;stroke:#000000;stroke-width:0.9" /><path id="roundedregionstroke-2" d="m 57.6825 -46.697 -3.7318 4.96826 c -0.600577 0.799567 -0.639363 1.62552 -0.116357 2.47784 l 11.0282 17.9724 c 0.523006 0.852329 1.28451 1.27849 2.28451 1.27849 l 2.13495 3.55271e-15" style="fill:none;stroke:#000000;stroke-width:0.9" /><path id="roundedregionstroke-3" d="m -11.7133 -73.2373 0.697624 1.63104 c 0.393256 0.919429 1.08965 1.39432 2.08919 1.42467 l 14.3672 0.436223 c 0.999539 0.0303484 1.79254 -0.359467 2.379 -1.16945 l 2.33365 -3.22308" style="fill:none;stroke:#000000;stroke-width:0.9" /><path id="roundedregionstroke-4" d="m -69.282 -26.4747 2.94722 0.353666 c 0.992877 0.119145 1.77267 -0.23324 2.33938 -1.05716 l 8.27743 -12.0341 c 0.566713 -0.823915 0.653442 -1.69559 0.260186 -2.61502 l -2.11094 -4.93536" style="fill:none;stroke:#000000;stroke-width:0.9" /><path id="roundedregionstroke-5" d="m -59.1286 45.8621 4.05964 -5.60691 c 0.586459 -0.809979 0.592032 -1.62393 0.0167194 -2.44187 l -6.53575 -9.292 c -0.575313 -0.817933 -1.35941 -1.28647 -2.35228 -1.40562 l -5.34173 -0.641007" style="fill:none;stroke:#000000;stroke-width:0.9" /><path id="roundedregionstroke-6" d="m 51.9615 50 -4.76439 -8.25217 c -0.5 -0.866025 -1.2364 -1.1832 -2.20919 -0.951517 l -22.0746 5.25731 c -0.972792 0.23168 -1.66357 0.803839 -2.07235 1.71648 l -6.53181 14.5831 c -0.408772 0.912636 -0.363158 1.80197 0.136842 2.66799 l 2.87452 4.97882" style="fill:none;stroke:#000000;stroke-width:0.9" /><path id="roundedregionstroke-7" d="m 69.282 -20 -2.13495 -3.55271e-15 c -1 0 -1.87253 0.333494 -2.6176 1.00048 l -12.2936 11.0053 c -0.745069 0.666988 -0.876548 1.43854 -0.394439 2.31465 l 13.4079 24.3654 c 0.48211 0.876111 1.22316 1.31417 2.22316 1.31417 l 1.80958 -3.55271e-15" style="fill:none;stroke:#000000;stroke-width:0.9" /><path id="roundedregionstroke-8" d="m 33.3192 -60.7632 -4.70206 13.2323 c -0.334835 0.942277 -0.107609 1.72043 0.68168 2.33445 l 3.29615 2.56422 c 0.789288 0.614023 1.68299 0.951639 2.68112 1.01285 l 16.2766 0.998172 c 0.998125 0.0612105 1.79748 -0.307968 2.39805 -1.10753 l 3.7318 -4.96826" style="fill:none;stroke:#000000;stroke-width:0.9" /><path id="roundedregionstroke-9" d="m 10.1534 -74.1379 -2.33365 3.22308 c -0.586459 0.809979 -0.722003 1.68945 -0.406631 2.63842 l 5.83495 17.5576 c 0.315372 0.948968 0.854185 1.74709 1.61644 2.39437 l 2.66688 2.26462 c 0.762255 0.647277 1.64044 0.91676 2.63456 0.808446 l 6.45775 -0.703599 c 0.994117 -0.108313 1.65859 -0.633608 1.99343 -1.57588 l 4.70206 -13.2323" style="fill:none;stroke:#000000;stroke-width:0.9" /><path id="roundedregionstroke-10" d="m -34.641 -60 10.5748 11.1452 c 0.688301 0.725426 1.42255 0.775378 2.20276 0.149857 l 3.03226 -2.43107 c 0.780207 -0.625521 1.35543 -1.40275 1.72567 -2.33169 l 6.12435 -15.3661 c 0.37024 -0.928936 0.358732 -1.85312 -0.0345234 -2.77255 l -0.697624 -1.63104" style="fill:none;stroke:#000000;stroke-width:0.9" /><path id="roundedregionstroke-11" d="m -57.5688 -46.7627 2.11094 4.93536 c 0.393256 0.919429 1.07678 1.49285 2.05058 1.72027 l 17.9644 4.19532 c 0.973798 0.227416 1.88797 0.0814287 2.7425 -0.437962 l 7.01008 -4.26075 c 0.854537 -0.51939 1.38717 -1.26786 1.59789 -2.2454 l 0.742513 -3.44449 c 0.210725 -0.977545 -0.028063 -1.82903 -0.716364 -2.55446 l -10.5748 -11.1452" style="fill:none;stroke:#000000;stroke-width:0.9" /><path id="roundedregionstroke-12" d="m -69.282 0 5.97797 -1.43471 c 0.972387 -0.233373 1.7529 -0.754259 2.34153 -1.56266 l 4.56746 -6.27271 c 0.588634 -0.8084 0.624531 -1.64064 0.107691 -2.49672 l -7.78286 -12.8914 c -0.51684 -0.856082 -1.2717 -1.3437 -2.26458 -1.46284 l -2.94722 -0.353666" style="fill:none;stroke:#000000;stroke-width:0.9" /><path id="roundedregionstroke-13" d="m -69.282 26.4747 5.34173 0.641007 c 0.992877 0.119145 1.76497 -0.238432 2.31628 -1.07273 l 6.60759 -9.99929 c 0.551311 -0.8343 0.617322 -1.70538 0.198033 -2.61323 l -6.39815 -13.8534 c -0.419288 -0.907853 -1.11513 -1.24509 -2.08751 -1.01172 l -5.97797 1.43471" style="fill:none;stroke:#000000;stroke-width:0.9" /><path id="roundedregionstroke-14" d="m -35.9628 59.2368 4.6226 -13.0087 c 0.334835 -0.942277 0.127038 -1.74389 -0.623391 -2.40484 l -2.68789 -2.3674 c -0.750429 -0.660951 -1.62415 -1.02999 -2.62118 -1.10711 l -15.4211 -1.19291 c -0.997021 -0.0771255 -1.78876 0.289301 -2.37522 1.09928 l -4.05964 5.60691" style="fill:none;stroke:#000000;stroke-width:0.9" /><path id="roundedregionstroke-15" d="m -11.5995 73.303 7.24272 -9.64247 c 0.600577 -0.799567 0.594845 -1.59476 -0.0171965 -2.38559 l -12.6385 -16.3303 c -0.612041 -0.790826 -1.4164 -1.14546 -2.41306 -1.06389 l -9.91748 0.811633 c -0.996668 0.0815659 -1.66242 0.593487 -1.99725 1.53576 l -4.6226 13.0087" style="fill:none;stroke:#000000;stroke-width:0.9" /><path id="roundedregionstroke-16" d="m 29.2988 -45.1964 c -0.789288 -0.614023 -1.68099 -0.866877 -2.67511 -0.758564 l -6.45775 0.703599 c -0.994117 0.108313 -1.76738 0.579254 -2.3198 1.41282 l -9.37404 14.1449 c -0.552417 0.833568 -0.652877 1.71845 -0.30138 2.65464 l 4.51612 12.0284 c 0.351496 0.936189 1.02502 1.45138 2.02058 1.54556 l 19.4638 1.84142 c 0.995555 0.0941869 1.4622 -0.35775 1.39994 -1.35581 l -1.69888 -27.2347 c -0.0622584 -0.99806 -0.488032 -1.8041 -1.27732 -2.41812 z" style="fill:none;stroke:#000000;stroke-width:0.9" /><path id="roundedregionstroke-17" d="m 31.7869 13.4617 c -0.626029 -0.7798 -1.42945 -1.07224 -2.41027 -0.877319 l -19.2656 3.82869 c -0.980819 0.19492 -1.72114 0.725442 -2.22098 1.59156 l -2.14651 3.71952 c -0.499833 0.866122 -0.461894 1.70801 0.113817 2.52566 l 14.7332 20.9248 c 0.575711 0.817653 1.34996 1.11064 2.32275 0.87896 l 22.0746 -5.25731 c 0.972792 -0.23168 1.59262 -0.829387 1.85949 -1.79312 l 0.995981 -3.59674 c 0.266869 -0.963733 0.0872892 -1.8355 -0.53874 -2.6153 z" style="fill:none;stroke:#000000;stroke-width:0.9" /><path id="roundedregionstroke-18" d="m -61.624 26.0429 c -0.551311 0.8343 -0.53931 1.66042 0.0360032 2.47835 l 6.53575 9.292 c 0.575313 0.817933 1.36148 1.26546 2.3585 1.34259 l 15.4211 1.19291 c 0.997021 0.0771255 1.47736 -0.383981 1.44102 -1.38332 l -0.805914 -22.163 c -0.036339 -0.99934 -0.554295 -1.51361 -1.55387 -1.54282 l -14.4986 -0.423654 c -0.999573 -0.0292077 -1.77502 0.373338 -2.32633 1.20764 z" style="fill:none;stroke:#000000;stroke-width:0.9" /><path id="roundedregionstroke-19" d="m -35.8317 38.9655 c 0.036339 0.99934 0.429723 1.82948 1.18015 2.49044 l 2.68789 2.3674 c 0.750429 0.660951 1.62398 0.950643 2.62065 0.869077 l 9.91748 -0.811633 c 0.996668 -0.0815659 1.80453 -0.515019 2.4236 -1.30036 l 12.1061 -15.3577 c 0.619065 -0.785339 0.534454 -1.48566 -0.253835 -2.10097 l -22.821 -17.8131 c -0.788289 -0.615306 -1.50524 -0.541123 -2.15084 0.222548 l -5.60226 6.62678 c -0.645606 0.763671 -0.950239 1.64518 -0.9139 2.64452 z" style="fill:none;stroke:#000000;stroke-width:0.9" /><path id="roundedregionstroke-20" d="m -54.8184 13.4304 c 0.419288 0.907853 1.12872 1.37638 2.12829 1.40559 l 14.4986 0.423654 c 0.999573 0.0292077 1.82216 -0.338024 2.46777 -1.10169 l 5.60226 -6.62678 c 0.645606 -0.763671 0.991983 -1.64495 1.03913 -2.64384 l 0.166983 -3.53776 c 0.0471478 -0.998888 -0.297937 -1.8361 -1.03526 -2.51165 l -10.3082 -9.44461 c -0.737318 -0.675546 -1.60437 -0.973254 -2.60115 -0.893123 l -11.157 0.896899 c -0.996784 0.0801304 -1.78949 0.524395 -2.37813 1.3328 l -4.56746 6.27271 c -0.588634 0.8084 -0.673306 1.66653 -0.254018 2.57438 z" style="fill:none;stroke:#000000;stroke-width:0.9" /><path id="roundedregionstroke-21" d="m -14.9344 -9.51556 c -0.175162 0.98454 0.198222 1.67049 1.12015 2.05785 l 17.162 7.21085 c 0.921928 0.387361 1.64282 0.153915 2.16268 -0.700339 l 6.9239 -11.3777 c 0.519856 -0.854254 0.604035 -1.74948 0.252539 -2.68566 l -4.51612 -12.0284 c -0.351496 -0.936189 -1.0271 -1.39222 -2.02681 -1.3681 l -16.2941 0.393173 c -0.999709 0.0241228 -1.58714 0.528454 -1.76231 1.51299 z" style="fill:none;stroke:#000000;stroke-width:0.9" /><path id="roundedregionstroke-22" d="m -27.546 -0.899491 c -0.865733 0.500506 -1.32217 1.2502 -1.36932 2.24909 l -0.166983 3.53776 c -0.0471478 0.998888 0.323423 1.80598 1.11171 2.42129 l 22.821 17.8131 c 0.788289 0.615306 1.65623 0.763211 2.60381 0.443715 l 6.11823 -2.06287 c 0.947588 -0.319496 1.6713 -0.912304 2.17113 -1.77843 l 2.14651 -3.71952 c 0.499833 -0.866122 0.633623 -1.78551 0.40137 -2.75817 l -3.21241 -13.4533 c -0.232252 -0.972656 -0.809342 -1.65266 -1.73127 -2.04003 l -17.162 -7.21085 c -0.921928 -0.387361 -1.81576 -0.330789 -2.68149 0.169717 z" style="fill:none;stroke:#000000;stroke-width:0.9" /><path id="roundedregionstroke-23" d="m -40.9229 -13.0534 c -0.294568 0.95563 -0.0731934 1.77122 0.664124 2.44676 l 10.3082 9.44461 c 0.737318 0.675546 1.53884 0.763066 2.40458 0.26256 l 11.0503 -6.3885 c 0.865733 -0.500506 1.38618 -1.24303 1.56134 -2.22757 l 3.0219 -16.9854 c 0.175162 -0.98454 -0.0818805 -1.83907 -0.771126 -2.5636 l -10.691 -11.2382 c -0.689246 -0.724527 -1.46114 -0.827096 -2.31567 -0.307706 l -7.01008 4.26075 c -0.854537 0.51939 -1.42909 1.2569 -1.72366 2.21253 z" style="fill:none;stroke:#000000;stroke-width:0.9" /><path id="roundedregionstroke-24" d="m -56.2874 -11.7668 c 0.51684 0.856082 1.27365 1.24406 2.27044 1.16393 l 11.157 -0.896899 c 0.996784 -0.0801304 1.64246 -0.598011 1.93703 -1.55364 l 6.49895 -21.0837 c 0.294568 -0.95563 -0.0450465 -1.54715 -1.01884 -1.77457 l -17.9644 -4.19532 c -0.973798 -0.227416 -1.74405 0.0708339 -2.31077 0.894749 l -8.27743 12.0341 c -0.566713 0.823915 -0.591649 1.66391 -0.0748096 2.52 z" style="fill:none;stroke:#000000;stroke-width:0.9" /><path id="roundedregionstroke-25" d="m 49.6189 -6.94879 c 0.999551 -0.0299598 1.87186 -0.378434 2.61693 -1.04542 l 12.2936 -11.0053 c 0.745069 -0.666988 0.8561 -1.42665 0.333095 -2.27898 l -11.0282 -17.9724 c -0.523006 -0.852329 -1.28357 -1.3091 -2.2817 -1.37031 l -16.2766 -0.998172 c -0.998125 -0.0612105 -1.46606 0.407214 -1.4038 1.40527 l 1.69888 27.2347 c 0.0622584 0.99806 0.445653 1.85193 1.15018 2.5616 l 2.66026 2.67967 c 0.704531 0.709673 1.55657 1.04953 2.55612 1.01957 z" style="fill:none;stroke:#000000;stroke-width:0.9" /><path id="roundedregionstroke-26" d="m -12.6836 -29.0645 c 0.689246 0.724527 1.53372 1.07473 2.53343 1.05061 l 16.2941 -0.393173 c 0.999709 -0.0241228 1.77577 -0.452968 2.32819 -1.28654 l 9.37404 -14.1449 c 0.552417 -0.833568 0.447498 -1.57399 -0.314757 -2.22127 l -2.66688 -2.26462 c -0.762255 -0.647277 -1.64143 -1.01502 -2.63754 -1.10323 l -28.3937 -2.5143 c -0.996102 -0.0882064 -1.88426 0.180451 -2.66446 0.805972 l -3.03226 2.43107 c -0.780207 0.625521 -1.27567 1.42705 -1.4864 2.4046 l -0.742513 3.44449 c -0.210725 0.977545 0.0285357 1.82858 0.717782 2.55311 z" style="fill:none;stroke:#000000;stroke-width:0.9" /><path id="roundedregionstroke-27" d="m 12.2 63.6122 c 0.997309 0.0733178 1.70035 -0.346341 2.10912 -1.25898 l 6.53181 -14.5831 c 0.408772 -0.912636 0.325303 -1.77778 -0.250408 -2.59543 l -14.7332 -20.9248 c -0.575711 -0.817653 -1.33736 -1.06673 -2.28495 -0.747237 l -6.11823 2.06287 c -0.947588 0.319496 -1.73091 0.871913 -2.34998 1.65725 l -12.1061 15.3577 c -0.619065 0.785339 -0.622578 1.57342 -0.0105364 2.36425 l 12.6385 16.3303 c 0.612041 0.790826 1.41672 1.2229 2.41402 1.29622 z" style="fill:none;stroke:#000000;stroke-width:0.9" /><path id="roundedregionstroke-28" d="m 39.7615 -5.33504 c 0.451265 -0.89239 0.324632 -1.69342 -0.3799 -2.40309 l -2.66026 -2.67967 c -0.704531 -0.709673 -1.55457 -1.1116 -2.55013 -1.20579 l -19.4638 -1.84142 c -0.995555 -0.0941869 -1.75326 0.285847 -2.27312 1.1401 l -6.9239 11.3777 c -0.519856 0.854254 -0.663657 1.76771 -0.431405 2.74036 l 3.21241 13.4533 c 0.232252 0.972656 0.838788 1.36152 1.81961 1.1666 l 19.2656 -3.82869 c 0.980819 -0.19492 1.69686 -0.738576 2.14813 -1.63097 z" style="fill:none;stroke:#000000;stroke-width:0.9" /><path id="roundedregionstroke-29" d="m 41.9377 -6.71856 c -0.999551 0.0299598 -1.72496 0.491135 -2.17622 1.38352 l -8.23677 16.2885 c -0.451265 0.89239 -0.363883 1.72849 0.262146 2.50829 l 15.5178 19.3294 c 0.626029 0.7798 1.33187 0.860363 2.11751 0.241689 l 15.3718 -12.1048 c 0.785648 -0.618674 0.937417 -1.36607 0.455307 -2.24218 l -13.4079 -24.3654 c -0.48211 -0.876111 -1.22294 -1.29919 -2.22249 -1.26923 z" style="fill:none;stroke:#000000;stroke-width:0.9" /><path id="roundedregionstroke-30" d="m -17.1055 -53.4677 c -0.37024 0.928936 -0.0573089 1.43751 0.938793 1.52571 l 28.3937 2.5143 c 0.996102 0.0882064 1.33647 -0.342175 1.0211 -1.29114 l -5.83495 -17.5576 c -0.315372 -0.948968 -0.972827 -1.43863 -1.97237 -1.46897 l -14.3672 -0.436223 c -0.999539 -0.0303484 -1.68443 0.418946 -2.05467 1.34788 z" style="fill:none;stroke:#000000;stroke-width:0.9" /></g><g id="region" inkscape:label="Region" inkscape:groupmode="layer" style="display:none"><path id="region-0" d="m 13.696 63.7221 -17.1519 -1.26093 -14.268 18.9954 10.7957 14.5434 19.245 0 8.3395 -20.2222 z" style="fill:#ffffff;stroke:#000000;stroke-width:0.3" /><path id="region-1" d="m 48.2437 33.9608 -1.79659 6.48794 8.85019 15.329 21.6827 2.88889 12.3168 -21.3333 -13.3432 -17.3333 -9.98118 3.55271e-15 z" style="fill:#ffffff;stroke:#000000;stroke-width:0.3" /><path id="region-2" d="m 53.0499 -40.5294 12.5972 20.5294 10.3065 3.55271e-15 13.3432 -17.3333 -9.6225 -16.6667 -15.1889 -1.75386 z" style="fill:#ffffff;stroke:#000000;stroke-width:0.3" /><path id="region-3" d="m -10.4258 -70.2271 -5.71513 -13.3619 9.21271 -12.4109 13.8564 0 9.6458 12.9944 -9.63394 13.3058 z" style="fill:#ffffff;stroke:#000000;stroke-width:0.3" /><path id="region-4" d="m -80.4607 -27.8161 -6.1418 -14.1839 6.9282 -12 18.1154 -2.09178 6.69104 15.6436 -9.97757 14.5059 z" style="fill:#ffffff;stroke:#000000;stroke-width:0.3" /><path id="region-5" d="m -62.451 27.2944 8.26169 11.7458 -11.9621 16.5213 -13.5229 -1.56149 -6.9282 -12 7.24615 -16.7343 z" style="fill:#ffffff;stroke:#000000;stroke-width:0.3" /><path id="region-6" d="m 13.696 63.7221 7.75812 -17.321 24.993 -5.95235 8.85019 15.329 -10.5848 21.6667 -24.0563 -1.66667 z" style="fill:#ffffff;stroke:#000000;stroke-width:0.3" /><path id="region-7" d="m 51.1182 -6.99373 14.5288 -13.0063 10.3065 3.55271e-15 13.4715 20 -13.4715 20 -9.98118 3.55271e-15 z" style="fill:#ffffff;stroke:#000000;stroke-width:0.3" /><path id="region-8" d="m 28.1149 -46.1174 8.55181 -24.0661 19.8242 0.338407 7.99453 14.0912 -11.4355 15.2245 -19.271 -1.1818 z" style="fill:#ffffff;stroke:#000000;stroke-width:0.3" /><path id="region-9" d="m 28.1149 -46.1174 -9.4401 1.02854 -4.95365 -4.20645 -6.78106 -20.4045 9.63394 -13.3058 13.833 2.3392 6.25969 10.4829 z" style="fill:#ffffff;stroke:#000000;stroke-width:0.3" /><path id="region-10" d="m -17.6608 -52.0743 -5.37288 4.30763 -19.0143 -20.0399 9.80874 -16.0336 16.0984 0.250983 5.71513 13.3619 z" style="fill:#ffffff;stroke:#000000;stroke-width:0.3" /><path id="region-11" d="m -54.8679 -40.4482 20.8858 4.87757 9.57369 -5.81892 1.37469 -6.37713 -19.0143 -20.0399 -12.4271 1.45291 -7.08389 10.2618 z" style="fill:#ffffff;stroke:#000000;stroke-width:0.3" /><path id="region-12" d="m -61.8455 -1.78477 6.33336 -8.69791 -9.33338 -15.4596 -15.6152 -1.87383 -8.26655 13.8161 8.9811 16.5114 z" style="fill:#ffffff;stroke:#000000;stroke-width:0.3" /><path id="region-13" d="m -62.451 27.2944 -16.9054 -2.02865 -5.34506 -11.2657 4.95527 -11.4886 17.9007 -4.29617 7.65601 16.577 z" style="fill:#ffffff;stroke:#000000;stroke-width:0.3" /><path id="region-14" d="m -66.1514 55.5615 9.9995 13.6965 17.0053 -1.06156 8.30862 -23.3817 -4.93918 -4.35025 -18.4121 -1.42429 z" style="fill:#ffffff;stroke:#000000;stroke-width:0.3" /><path id="region-15" d="m -3.4559 62.4612 -14.4746 -18.7028 -12.9075 1.05633 -8.30862 23.3817 8.91793 12.1612 12.5048 1.09901 z" style="fill:#ffffff;stroke:#000000;stroke-width:0.3" /><path id="region-16" d="m 28.1149 -46.1174 -9.4401 1.02854 -11.0313 16.6456 5.57061 14.837 22.4505 2.12398 -1.88566 -30.2288 z" style="fill:#ffffff;stroke:#000000;stroke-width:0.3" /><path id="region-17" d="m 30.8478 12.292 -22.208 4.41345 -3.64601 6.31789 16.4603 23.3778 24.993 -5.95235 1.79659 -6.48794 z" style="fill:#ffffff;stroke:#000000;stroke-width:0.3" /><path id="region-18" d="m -62.451 27.2944 8.26169 11.7458 18.4121 1.42429 -0.914931 -25.161 -17.4974 -0.511277 z" style="fill:#ffffff;stroke:#000000;stroke-width:0.3" /><path id="region-19" d="m -36.6921 15.3035 7.53908 -8.91779 25.1858 19.659 -13.9633 17.7137 -12.9075 1.05633 -4.93918 -4.35025 z" style="fill:#ffffff;stroke:#000000;stroke-width:0.3" /><path id="region-20" d="m -54.1895 14.7922 17.4974 0.511277 7.53908 -8.91779 0.308427 -6.53443 -12.5202 -11.4712 -14.1474 1.13729 -6.33336 8.69791 z" style="fill:#ffffff;stroke:#000000;stroke-width:0.3" /><path id="region-21" d="m -15.1971 -8.03875 19.9277 8.37293 8.48346 -13.9405 -5.57061 -14.837 -19.2932 0.465541 z" style="fill:#ffffff;stroke:#000000;stroke-width:0.3" /><path id="region-22" d="m -28.8446 -0.148731 -0.308427 6.53443 25.1858 19.659 8.96099 -3.02135 3.64601 -6.31789 -3.90916 -16.3713 -19.9277 -8.37293 z" style="fill:#ffffff;stroke:#000000;stroke-width:0.3" /><path id="region-23" d="m -41.3648 -11.62 12.5202 11.4712 13.6475 -7.89002 3.54739 -19.939 -12.7587 -13.4118 -9.57369 5.81892 z" style="fill:#ffffff;stroke:#000000;stroke-width:0.3" /><path id="region-24" d="m -64.8455 -25.9423 9.97757 -14.5059 20.8858 4.87757 -7.38266 23.9506 -14.1474 1.13729 z" style="fill:#ffffff;stroke:#000000;stroke-width:0.3" /><path id="region-25" d="m 40.4384 -6.67362 -4.77385 -4.80869 -1.88566 -30.2288 19.271 1.1818 12.5972 20.5294 -14.5288 13.0063 z" style="fill:#ffffff;stroke:#000000;stroke-width:0.3" /><path id="region-26" d="m -11.6497 -27.9777 19.2932 -0.465541 11.0313 -16.6456 -4.95365 -4.20645 -31.382 -2.77892 -5.37288 4.30763 -1.37469 6.37713 z" style="fill:#ffffff;stroke:#000000;stroke-width:0.3" /><path id="region-27" d="m 13.696 63.7221 7.75812 -17.321 -16.4603 -23.3778 -8.96099 3.02135 -13.9633 17.7137 14.4746 18.7028 z" style="fill:#ffffff;stroke:#000000;stroke-width:0.3" /><path id="region-28" d="m 40.4384 -6.67362 -4.77385 -4.80869 -22.4505 -2.12398 -8.48346 13.9405 3.90916 16.3713 22.208 -4.41345 z" style="fill:#ffffff;stroke:#000000;stroke-width:0.3" /><path id="region-29" d="m 40.4384 -6.67362 -9.59057 18.9656 17.3959 21.6688 17.7287 -13.9608 -14.8542 -26.9937 z" style="fill:#ffffff;stroke:#000000;stroke-width:0.3" /><path id="region-30" d="m -17.6608 -52.0743 31.382 2.77892 -6.78106 -20.4045 -17.3658 -0.527268 z" style="fill:#ffffff;stroke:#000000;stroke-width:0.3" /></g><g id="seeds" inkscape:label="Seeds" inkscape:groupmode="layer" style="display:none"><circle id="seed-0" cx="0.0" cy="80.0" r="1.0" style="fill:#000000;stroke:none;stroke-width:0" /><circle id="seed-1" cx="69.28203230275508" cy="40.0" r="1.0" style="fill:#000000;stroke:none;stroke-width:0" /><circle id="seed-2" cx="69.28203230275508" cy="-40.0" r="1.0" style="fill:#000000;stroke:none;stroke-width:0" /><circle id="seed-3" cx="0.0" cy="-80.0" r="1.0" style="fill:#000000;stroke:none;stroke-width:0" /><circle id="seed-4" cx="-69.28203230275508" cy="-40.0" r="1.0" style="fill:#000000;stroke:none;stroke-width:0" /><circle id="seed-5" cx="-69.28203230275508" cy="40.0" r="1.0" style="fill:#000000;stroke:none;stroke-width:0" /><circle id="seed-6" cx="34.64101615137754" cy="60.0" r="1.0" style="fill:#000000;stroke:none;stroke-width:0" /><circle id="seed-7" cx="69.28203230275508" cy="0.0" r="1.0" style="fill:#000000;stroke:none;stroke-width:0" /><circle id="seed-8" cx="48.0189616428459" cy="-55.971281292110206" r="1.0" style="fill:#000000;stroke:none;stroke-width:0" /><circle id="seed-9" cx="18.891789367798975" cy="-66.32153903091735" r="1.0" style="fill:#000000;stroke:none;stroke-width:0" /><circle id="seed-10" cx="-24.694010767585027" cy="-69.43794795877687" r="1.0" style="fill:#000000;stroke:none;stroke-width:0" /><circle id="seed-11" cx="-44.58802153517005" cy="-50.56205204122313" r="1.0" style="fill:#000000;stroke:none;stroke-width:0" /><circle id="seed-12" cx="-72.48203230275509" cy="-13.333333333333336" r="1.0" style="fill:#000000;stroke:none;stroke-width:0" /><circle id="seed-13" cx="-66.08203230275508" cy="13.333333333333329" r="1.0" style="fill:#000000;stroke:none;stroke-width:0" /><circle id="seed-14" cx="-50.390242934956106" cy="53.67846096908266" r="1.0" style="fill:#000000;stroke:none;stroke-width:0" /><circle id="seed-15" cx="-21.263070659909182" cy="64.0287187078898" r="1.0" style="fill:#000000;stroke:none;stroke-width:0" /><circle id="seed-16" cx="23.459186955716486" cy="-24.401204912067698" r="1.0" style="fill:#000000;stroke:none;stroke-width:0" /><circle id="seed-17" cx="27.095641594138762" cy="28.318090430546444" r="1.0" style="fill:#000000;stroke:none;stroke-width:0" /><circle id="seed-18" cx="-48.18419703555028" cy="25.160337153556213" r="1.0" style="fill:#000000;stroke:none;stroke-width:0" /><circle id="seed-19" cx="-24.514444929174598" cy="24.29963278756001" r="1.0" style="fill:#000000;stroke:none;stroke-width:0" /><circle id="seed-20" cx="-47.589042059573934" cy="4.792416203175565" r="1.0" style="fill:#000000;stroke:none;stroke-width:0" /><circle id="seed-21" cx="-1.6039430294445367" cy="-14.991138595196432" r="1.0" style="fill:#000000;stroke:none;stroke-width:0" /><circle id="seed-22" cx="-10.648885267516816" cy="6.536002365428397" r="1.0" style="fill:#000000;stroke:none;stroke-width:0" /><circle id="seed-23" cx="-25.55822404584609" cy="-19.252897703309344" r="1.0" style="fill:#000000;stroke:none;stroke-width:0" /><circle id="seed-24" cx="-50.13091584664148" cy="-26.827305639663898" r="1.0" style="fill:#000000;stroke:none;stroke-width:0" /><circle id="seed-25" cx="46.169788527178966" cy="-25.817879827987056" r="1.0" style="fill:#000000;stroke:none;stroke-width:0" /><circle id="seed-26" cx="-2.2419966032625274" cy="-41.43371933930717" r="1.0" style="fill:#000000;stroke:none;stroke-width:0" /><circle id="seed-27" cx="2.527735518289838" cy="45.61637885286196" r="1.0" style="fill:#000000;stroke:none;stroke-width:0" /><circle id="seed-28" cx="21.252976665858206" cy="-1.0815786671141807" r="1.0" style="fill:#000000;stroke:none;stroke-width:0" /><circle id="seed-29" cx="47.30610006319534" cy="12.093000087168805" r="1.0" style="fill:#000000;stroke:none;stroke-width:0" /><circle id="seed-30" cx="-0.6121115225382133" cy="-59.83978225930966" r="1.0" style="fill:#000000;stroke:none;stroke-width:0" /></g><g id="seed_exclusion" inkscape:label="Seed Exclusion" inkscape:groupmode="layer" style="display:none"><circle id="seed-ex-0" cx="0.0" cy="80.0" r="24.0" style="fill:#800000;stroke:none;stroke-width:0;fill-opacity:0.15" /><circle id="seed-ex-1" cx="69.28203230275508" cy="40.0" r="24.0" style="fill:#800000;stroke:none;stroke-width:0;fill-opacity:0.15" /><circle id="seed-ex-2" cx="69.28203230275508" cy="-40.0" r="24.0" style="fill:#800000;stroke:none;stroke-width:0;fill-opacity:0.15" /><circle id="seed-ex-3" cx="0.0" cy="-80.0" r="19.2" style="fill:#800000;stroke:none;stroke-width:0;fill-opacity:0.15" /><circle id="seed-ex-4" cx="-69.28203230275508" cy="-40.0" r="19.2" style="fill:#800000;stroke:none;stroke-width:0;fill-opacity:0.15" /><circle id="seed-ex-5" cx="-69.28203230275508" cy="40.0" r="19.2" style="fill:#800000;stroke:none;stroke-width:0;fill-opacity:0.15" /><circle id="seed-ex-6" cx="34.64101615137754" cy="60.0" r="24.0" style="fill:#800000;stroke:none;stroke-width:0;fill-opacity:0.15" /><circle id="seed-ex-7" cx="69.28203230275508" cy="0.0" r="24.0" style="fill:#800000;stroke:none;stroke-width:0;fill-opacity:0.15" /><circle id="seed-ex-8" cx="48.0189616428459" cy="-55.971281292110206" r="22.416" style="fill:#800000;stroke:none;stroke-width:0;fill-opacity:0.15" /><circle id="seed-ex-9" cx="18.891789367798975" cy="-66.32153903091735" r="20.592" style="fill:#800000;stroke:none;stroke-width:0;fill-opacity:0.15" /><circle id="seed-ex-10" cx="-24.694010767585027" cy="-69.43794795877687" r="19.08914874831559" style="fill:#800000;stroke:none;stroke-width:0;fill-opacity:0.15" /><circle id="seed-ex-11" cx="-44.58802153517005" cy="-50.56205204122313" r="19.310851251684404" style="fill:#800000;stroke:none;stroke-width:0;fill-opacity:0.15" /><circle id="seed-ex-12" cx="-72.48203230275509" cy="-13.333333333333336" r="19.08914874831559" style="fill:#800000;stroke:none;stroke-width:0;fill-opacity:0.15" /><circle id="seed-ex-13" cx="-66.08203230275508" cy="13.333333333333329" r="19.310851251684408" style="fill:#800000;stroke:none;stroke-width:0;fill-opacity:0.15" /><circle id="seed-ex-14" cx="-50.390242934956106" cy="53.67846096908266" r="20.592" style="fill:#800000;stroke:none;stroke-width:0;fill-opacity:0.15" /><circle id="seed-ex-15" cx="-21.263070659909182" cy="64.0287187078898" r="22.415999999999997" style="fill:#800000;stroke:none;stroke-width:0;fill-opacity:0.15" /><circle id="seed-ex-16" cx="23.459186955716486" cy="-24.401204912067698" r="22.086938963984707" style="fill:#800000;stroke:none;stroke-width:0;fill-opacity:0.15" /><circle id="seed-ex-17" cx="27.095641594138762" cy="28.318090430546444" r="22.91885299196364" style="fill:#800000;stroke:none;stroke-width:0;fill-opacity:0.15" /><circle id="seed-ex-18" cx="-48.18419703555028" cy="25.160337153556213" r="19.930850452250343" style="fill:#800000;stroke:none;stroke-width:0;fill-opacity:0.15" /><circle id="seed-ex-19" cx="-24.514444929174598" cy="24.29963278756001" r="21.05518105952641" style="fill:#800000;stroke:none;stroke-width:0;fill-opacity:0.15" /><circle id="seed-ex-20" cx="-47.589042059573934" cy="4.792416203175565" r="19.951467225385713" style="fill:#800000;stroke:none;stroke-width:0;fill-opacity:0.15" /><circle id="seed-ex-21" cx="-1.6039430294445367" cy="-14.991138595196432" r="21.12248473394967" style="fill:#800000;stroke:none;stroke-width:0;fill-opacity:0.15" /><circle id="seed-ex-22" cx="-10.648885267516816" cy="6.536002365428397" r="21.242747761143523" style="fill:#800000;stroke:none;stroke-width:0;fill-opacity:0.15" /><circle id="seed-ex-23" cx="-25.55822404584609" cy="-19.252897703309344" r="20.57973164291438" style="fill:#800000;stroke:none;stroke-width:0;fill-opacity:0.15" /><circle id="seed-ex-24" cx="-50.13091584664148" cy="-26.827305639663898" r="19.863414134473146" style="fill:#800000;stroke:none;stroke-width:0;fill-opacity:0.15" /><circle id="seed-ex-25" cx="46.169788527178966" cy="-25.817879827987056" r="23.19936839007569" style="fill:#800000;stroke:none;stroke-width:0;fill-opacity:0.15" /><circle id="seed-ex-26" cx="-2.2419966032625274" cy="-41.43371933930717" r="20.31815589954831" style="fill:#800000;stroke:none;stroke-width:0;fill-opacity:0.15" /><circle id="seed-ex-27" cx="2.527735518289838" cy="45.61637885286196" r="23.012273029043605" style="fill:#800000;stroke:none;stroke-width:0;fill-opacity:0.15" /><circle id="seed-ex-28" cx="21.252976665858206" cy="-1.0815786671141807" r="22.336224707946844" style="fill:#800000;stroke:none;stroke-width:0;fill-opacity:0.15" /><circle id="seed-ex-29" cx="47.30610006319534" cy="12.093000087168805" r="23.238731376347832" style="fill:#800000;stroke:none;stroke-width:0;fill-opacity:0.15" /><circle id="seed-ex-30" cx="-0.6121115225382133" cy="-59.83978225930966" r="19.794204449651364" style="fill:#800000;stroke:none;stroke-width:0;fill-opacity:0.15" /></g><g id="margin_exclusion" inkscape:label="Margin Exclusion" inkscape:groupmode="layer" style="display:none"><circle id="circle1315" cx="17.32050807568877" cy="70.0" r="22.0" style="fill:#000080;stroke:none;stroke-width:0;fill-opacity:0.15" /><circle id="circle1316" cx="51.96152422706631" cy="50.0" r="22.0" style="fill:#000080;stroke:none;stroke-width:0;fill-opacity:0.15" /><circle id="circle1317" cx="69.28203230275508" cy="20.0" r="22.0" style="fill:#000080;stroke:none;stroke-width:0;fill-opacity:0.15" /><circle id="circle1318" cx="69.28203230275508" cy="-20.0" r="22.0" style="fill:#000080;stroke:none;stroke-width:0;fill-opacity:0.15" /><circle id="circle1319" cx="57.682540530854425" cy="-46.696969696969695" r="14.626277721963305" style="fill:#000080;stroke:none;stroke-width:0;fill-opacity:0.15" /><circle id="circle1320" cx="33.31918790349603" cy="-60.76315789473684" r="17.001317595998255" style="fill:#000080;stroke:none;stroke-width:0;fill-opacity:0.15" /><circle id="circle1321" cx="10.153401285748608" cy="-74.13793103448275" r="12.828094168659659" style="fill:#000080;stroke:none;stroke-width:0;fill-opacity:0.15" /><circle id="circle1322" cx="-11.713282261319124" cy="-73.23733333333334" r="14.77188921942996" style="fill:#000080;stroke:none;stroke-width:0;fill-opacity:0.15" /><circle id="circle1323" cx="-34.64101615137754" cy="-60.0" r="15.08315322176073" style="fill:#000080;stroke:none;stroke-width:0;fill-opacity:0.15" /><circle id="circle1324" cx="-57.56875004143595" cy="-46.762666666666675" r="14.771889219429964" style="fill:#000080;stroke:none;stroke-width:0;fill-opacity:0.15" /><circle id="circle1325" cx="-69.28203230275508" cy="-26.474666666666668" r="14.77188921942996" style="fill:#000080;stroke:none;stroke-width:0;fill-opacity:0.15" /><circle id="circle1326" cx="-69.28203230275508" cy="0.0" r="15.083153221760732" style="fill:#000080;stroke:none;stroke-width:0;fill-opacity:0.15" /><circle id="circle1327" cx="-69.28203230275508" cy="26.47466666666665" r="14.771889219429964" style="fill:#000080;stroke:none;stroke-width:0;fill-opacity:0.15" /><circle id="circle1328" cx="-59.12863101700649" cy="45.862068965517246" r="12.828094168659664" style="fill:#000080;stroke:none;stroke-width:0;fill-opacity:0.15" /><circle id="circle1329" cx="-35.962844399259055" cy="59.23684210526316" r="17.001317595998252" style="fill:#000080;stroke:none;stroke-width:0;fill-opacity:0.15" /><circle id="circle1330" cx="-11.59949177190066" cy="73.30303030303031" r="14.626277721963305" style="fill:#000080;stroke:none;stroke-width:0;fill-opacity:0.15" /></g><g id="circles" inkscape:label="Inscribed Circles" inkscape:groupmode="layer" style="display:none"><circle id="incircle-0" cx="0.0" cy="80.0" r="13.296616110875734" style="fill:#008000;stroke:none;stroke-width:0;fill-opacity:0.15" /><circle id="incircle-ctr-0" cx="0.0" cy="80.0" r="0.5" style="fill:#000000;stroke:none;stroke-width:0" /><circle id="incircle-1" cx="69.28203230275508" cy="40.0" r="17.760505637034115" style="fill:#008000;stroke:none;stroke-width:0;fill-opacity:0.15" /><circle id="incircle-ctr-1" cx="69.28203230275508" cy="40.0" r="0.5" style="fill:#000000;stroke:none;stroke-width:0" /><circle id="incircle-2" cx="69.28203230275508" cy="-40.0" r="13.296616110875725" style="fill:#008000;stroke:none;stroke-width:0;fill-opacity:0.15" /><circle id="incircle-ctr-2" cx="69.28203230275508" cy="-40.0" r="0.5" style="fill:#000000;stroke:none;stroke-width:0" /><circle id="incircle-3" cx="0.0" cy="-80.0" r="10.084754085599583" style="fill:#008000;stroke:none;stroke-width:0;fill-opacity:0.15" /><circle id="incircle-ctr-3" cx="0.0" cy="-80.0" r="0.5" style="fill:#000000;stroke:none;stroke-width:0" /><circle id="incircle-4" cx="-69.28203230275508" cy="-40.0" r="11.622017232675846" style="fill:#008000;stroke:none;stroke-width:0;fill-opacity:0.15" /><circle id="incircle-ctr-4" cx="-69.28203230275508" cy="-40.0" r="0.5" style="fill:#000000;stroke:none;stroke-width:0" /><circle id="incircle-5" cx="-69.28203230275508" cy="40.0" r="11.661903789690609" style="fill:#008000;stroke:none;stroke-width:0;fill-opacity:0.15" /><circle id="incircle-ctr-5" cx="-69.28203230275508" cy="40.0" r="0.5" style="fill:#000000;stroke:none;stroke-width:0" /><circle id="incircle-6" cx="34.64101615137754" cy="60.0" r="16.28401110887655" style="fill:#008000;stroke:none;stroke-width:0;fill-opacity:0.15" /><circle id="incircle-ctr-6" cx="34.64101615137754" cy="60.0" r="0.5" style="fill:#000000;stroke:none;stroke-width:0" /><circle id="incircle-7" cx="69.28203230275508" cy="0.0" r="12.541752757350007" style="fill:#008000;stroke:none;stroke-width:0;fill-opacity:0.15" /><circle id="incircle-ctr-7" cx="69.28203230275508" cy="0.0" r="0.5" style="fill:#000000;stroke:none;stroke-width:0" /><circle id="incircle-8" cx="45.50086421717523" cy="-53.73006379585327" r="12.71387548681796" style="fill:#008000;stroke:none;stroke-width:0;fill-opacity:0.15" /><circle id="incircle-ctr-8" cx="45.50086421717523" cy="-53.73006379585327" r="0.5" style="fill:#000000;stroke:none;stroke-width:0" /><circle id="incircle-9" cx="21.73629459462231" cy="-67.4505444646098" r="13.153463290938609" style="fill:#008000;stroke:none;stroke-width:0;fill-opacity:0.15" /><circle id="incircle-ctr-9" cx="21.73629459462231" cy="-67.4505444646098" r="0.5" style="fill:#000000;stroke:none;stroke-width:0" /><circle id="incircle-10" cx="-23.177149206348332" cy="-66.61866666666667" r="10.509207368721297" style="fill:#008000;stroke:none;stroke-width:0;fill-opacity:0.15" /><circle id="incircle-ctr-10" cx="-23.177149206348332" cy="-66.61866666666667" r="0.5" style="fill:#000000;stroke:none;stroke-width:0" /><circle id="incircle-11" cx="-46.10488309640675" cy="-53.38133333333333" r="12.871814845416772" style="fill:#008000;stroke:none;stroke-width:0;fill-opacity:0.15" /><circle id="incircle-ctr-11" cx="-46.10488309640675" cy="-53.38133333333333" r="0.5" style="fill:#000000;stroke:none;stroke-width:0" /><circle id="incircle-12" cx="-69.28203230275508" cy="-13.237333333333334" r="10.364460643868625" style="fill:#008000;stroke:none;stroke-width:0;fill-opacity:0.15" /><circle id="incircle-ctr-12" cx="-69.28203230275508" cy="-13.237333333333334" r="0.5" style="fill:#000000;stroke:none;stroke-width:0" /><circle id="incircle-13" cx="-69.28203230275508" cy="13.237333333333332" r="12.871814845416765" style="fill:#008000;stroke:none;stroke-width:0;fill-opacity:0.15" /><circle id="incircle-ctr-13" cx="-69.28203230275508" cy="13.237333333333332" r="0.5" style="fill:#000000;stroke:none;stroke-width:0" /><circle id="incircle-14" cx="-47.545737708132776" cy="52.5494555353902" r="12.956634460892396" style="fill:#008000;stroke:none;stroke-width:0;fill-opacity:0.15" /><circle id="incircle-ctr-14" cx="-47.545737708132776" cy="52.5494555353902" r="0.5" style="fill:#000000;stroke:none;stroke-width:0" /><circle id="incircle-15" cx="-23.78116808557986" cy="66.26993620414673" r="13.833437634388082" style="fill:#008000;stroke:none;stroke-width:0;fill-opacity:0.15" /><circle id="incircle-ctr-15" cx="-23.78116808557986" cy="66.26993620414673" r="0.5" style="fill:#000000;stroke:none;stroke-width:0" /><circle id="incircle-16" cx="21.807374584987862" cy="-27.158600086884192" r="12.516237018023787" style="fill:#008000;stroke:none;stroke-width:0;fill-opacity:0.15" /><circle id="incircle-ctr-16" cx="21.807374584987862" cy="-27.158600086884192" r="0.5" style="fill:#000000;stroke:none;stroke-width:0" /><circle id="incircle-17" cx="27.136156435671296" cy="30.62620259489769" r="13.727743931319447" style="fill:#008000;stroke:none;stroke-width:0;fill-opacity:0.15" /><circle id="incircle-ctr-17" cx="27.136156435671296" cy="30.62620259489769" r="0.5" style="fill:#000000;stroke:none;stroke-width:0" /><circle id="incircle-18" cx="-48.095622343774345" cy="27.10522636396575" r="11.824857129257257" style="fill:#008000;stroke:none;stroke-width:0;fill-opacity:0.15" /><circle id="incircle-ctr-18" cx="-48.095622343774345" cy="27.10522636396575" r="0.5" style="fill:#000000;stroke:none;stroke-width:0" /><circle id="incircle-19" cx="-22.719668577367763" cy="28.250500063435375" r="13.277300072121978" style="fill:#008000;stroke:none;stroke-width:0;fill-opacity:0.15" /><circle id="incircle-ctr-19" cx="-22.719668577367763" cy="28.250500063435375" r="0.5" style="fill:#000000;stroke:none;stroke-width:0" /><circle id="incircle-20" cx="-45.70036916989954" cy="1.901633235923546" r="12.898623701653964" style="fill:#008000;stroke:none;stroke-width:0;fill-opacity:0.15" /><circle id="incircle-ctr-20" cx="-45.70036916989954" cy="1.901633235923546" r="0.5" style="fill:#000000;stroke:none;stroke-width:0" /><circle id="incircle-21" cx="-0.9542513192519038" cy="-15.678130113208132" r="12.536008968065127" style="fill:#008000;stroke:none;stroke-width:0;fill-opacity:0.15" /><circle id="incircle-ctr-21" cx="-0.9542513192519038" cy="-15.678130113208132" r="0.5" style="fill:#000000;stroke:none;stroke-width:0" /><circle id="incircle-22" cx="-6.086531696171205" cy="8.896488934261932" r="12.083985743514164" style="fill:#008000;stroke:none;stroke-width:0;fill-opacity:0.15" /><circle id="incircle-ctr-22" cx="-6.086531696171205" cy="8.896488934261932" r="0.5" style="fill:#000000;stroke:none;stroke-width:0" /><circle id="incircle-23" cx="-26.539716166841806" cy="-16.49916498158737" r="12.649188179510846" style="fill:#008000;stroke:none;stroke-width:0;fill-opacity:0.15" /><circle id="incircle-ctr-23" cx="-26.539716166841806" cy="-16.49916498158737" r="0.5" style="fill:#000000;stroke:none;stroke-width:0" /><circle id="incircle-24" cx="-50.02278142572041" cy="-25.488984208503283" r="12.35923269041415" style="fill:#008000;stroke:none;stroke-width:0;fill-opacity:0.15" /><circle id="incircle-ctr-24" cx="-50.02278142572041" cy="-25.488984208503283" r="0.5" style="fill:#000000;stroke:none;stroke-width:0" /><circle id="incircle-25" cx="47.916725252523655" cy="-22.511420788205058" r="12.91506497707766" style="fill:#008000;stroke:none;stroke-width:0;fill-opacity:0.15" /><circle id="incircle-ctr-25" cx="47.916725252523655" cy="-22.511420788205058" r="0.5" style="fill:#000000;stroke:none;stroke-width:0" /><circle id="incircle-26" cx="-6.781662320941539" cy="-39.454751984375136" r="11.356256596101199" style="fill:#008000;stroke:none;stroke-width:0;fill-opacity:0.15" /><circle id="incircle-ctr-26" cx="-6.781662320941539" cy="-39.454751984375136" r="0.5" style="fill:#000000;stroke:none;stroke-width:0" /><circle id="incircle-27" cx="1.2082638635315543" cy="43.83678461339817" r="15.077760835955845" style="fill:#008000;stroke:none;stroke-width:0;fill-opacity:0.15" /><circle id="incircle-ctr-27" cx="1.2082638635315543" cy="43.83678461339817" r="0.5" style="fill:#000000;stroke:none;stroke-width:0" /><circle id="incircle-28" cx="20.646664074585246" cy="0.7263383507217167" r="13.332248539812223" style="fill:#008000;stroke:none;stroke-width:0;fill-opacity:0.15" /><circle id="incircle-ctr-28" cx="20.646664074585246" cy="0.7263383507217167" r="0.5" style="fill:#000000;stroke:none;stroke-width:0" /><circle id="incircle-29" cx="46.014499836334494" cy="11.350436276506521" r="12.416420345754327" style="fill:#008000;stroke:none;stroke-width:0;fill-opacity:0.15" /><circle id="incircle-ctr-29" cx="46.014499836334494" cy="11.350436276506521" r="0.5" style="fill:#000000;stroke:none;stroke-width:0" /><circle id="incircle-30" cx="-4.163339742488491" cy="-60.35133087109982" r="9.435356936502126" style="fill:#008000;stroke:none;stroke-width:0;fill-opacity:0.15" /><circle id="incircle-ctr-30" cx="-4.163339742488491" cy="-60.35133087109982" r="0.5" style="fill:#000000;stroke:none;stroke-width:0" /></g><g id="tile-id" inkscape:label="Tile Id" inkscape:groupmode="layer" transform="scale(1,-1)"><ns0:text xml:space="preserve" style="font-style:normal;font-weight:normal;font-size:4.23333px;line-height:1.25;font-family:sans-serif;text-align:center;text-anchor:middle;fill:#dddddd;fill-opacity:1;stroke:#565656;stroke-width:0.15;stroke-dasharray:none;stroke-opacity:1" x="-1.7974526e-07" y="0" id="tile-id" transform="translate(0 -72)"><ns0:tspan ns1:role="line" id="tspan439" style="font-style:normal;font-variant:normal;font-weight:bold;font-stretch:normal;font-size:4.23333px;font-family:'Arial Black';-inkscape-font-specification:'Arial Black,  Bold';text-align:center;text-anchor:middle;fill:#dddddd;fill-opacity:1;stroke:#565656;stroke-width:0.15;stroke-dasharray:none;stroke-opacity:1" x="-1.4621764e-07" y="0">403</ns0:tspan></ns0:text>
  </g><g id="annotations" inkscape:label="Annotations" inkscape:groupmode="layer" transform="scale(1,-1)"><text id="text1331" x="-92" y="84.5" style="font-style:normal;font-weight:normal;font-size:4px;font-family:sans-serif;fill:#000000;fill-opacity:1;stroke:none"><tspan x="-92" y="84.5">id: 403</tspan></text><text id="text1332" x="-92" y="90.0" style="font-style:normal;font-weight:normal;font-size:4px;font-family:sans-serif;fill:#000000;fill-opacity:1;stroke:none"><tspan x="-92" y="90.0">size: 80</tspan></text><text id="text1333" x="-92" y="95.5" style="font-style:normal;font-weight:normal;font-size:4px;font-family:sans-serif;fill:#000000;fill-opacity:1;stroke:none"><tspan x="-92" y="95.5">rng seed 3058</tspan></text><text id="text1334" x="-92" y="101.0" style="font-style:normal;font-weight:normal;font-size:4px;font-family:sans-serif;fill:#000000;fill-opacity:1;stroke:none"><tspan x="-92" y="101.0">pattern 111222 / lllmmm</tspan></text><text id="text1335" x="-92" y="106.5" style="font-style:normal;font-weight:normal;font-size:4px;font-family:sans-serif;fill:#000000;fill-opacity:1;stroke:none"><tspan x="-92" y="106.5">seed attempts: 20</tspan></text><text id="text1336" x="-92" y="112.0" style="font-style:normal;font-weight:normal;font-size:4px;font-family:sans-serif;fill:#000000;fill-opacity:1;stroke:none"><tspan x="-92" y="112.0">seed distance: l 0.3; m 0.24; h 0.2</tspan></text><text id="text1337" x="-92" y="117.5" style="font-style:normal;font-weight:normal;font-size:4px;font-family:sans-serif;fill:#000000;fill-opacity:1;stroke:none"><tspan x="-92" y="117.5">center: (AVG) 0.27</tspan></text><text id="text1338" x="-92" y="123.0" style="font-style:normal;font-weight:normal;font-size:4px;font-family:sans-serif;fill:#000000;fill-opacity:1;stroke:none"><tspan x="-92" y="123.0">min ridge length: 0.08; at edge: 0.04</tspan></text><text id="text1339" x="-92" y="128.5" style="font-style:normal;font-weight:normal;font-size:4px;font-family:sans-serif;fill:#000000;fill-opacity:1;stroke:none"><tspan x="-92" y="128.5">edge margin exclusion zone scale: 1.1</tspan></text><text id="text1340" x="-92" y="134.0" style="font-style:normal;font-weight:normal;font-size:4px;font-family:sans-serif;fill:#000000;fill-opacity:1;stroke:none"><tspan x="-92" y="134.0">iterations: 53</tspan></text><text id="text1341" x="-92" y="139.5" style="font-style:normal;font-weight:normal;font-size:4px;font-family:sans-serif;fill:#000000;fill-opacity:1;stroke:none"><tspan x="-92" y="139.5">adjustments: side 0.011, neighbor -0.009</tspan></text><text id="text1342" x="-92" y="145.0" style="font-style:normal;font-weight:normal;font-size:4px;font-family:sans-serif;fill:#000000;fill-opacity:1;stroke:none"><tspan x="-92" y="145.0">closeness: 0.9, adjust -0.013</tspan></text><text id="text1343" x="-1.5" y="-82" style="font-style:normal;font-weight:normal;font-size:4px;font-family:sans-serif;fill:#000000;fill-opacity:1;stroke:none"><tspan x="-1.5" y="-82">L</tspan></text><text id="text1344" x="-1.5" y="-82" style="font-style:normal;font-weight:normal;font-size:4px;font-family:sans-serif;fill:#000000;fill-opacity:1;stroke:none" transform="rotate(60)"><tspan x="-1.5" y="-82">L</tspan></text><text id="text1345" x="-1.5" y="-82" style="font-style:normal;font-weight:normal;font-size:4px;font-family:sans-serif;fill:#000000;fill-opacity:1;stroke:none" transform="rotate(120)"><tspan x="-1.5" y="-82">L</tspan></text><text id="text1346" x="-1.5" y="-82" style="font-style:normal;font-weight:normal;font-size:4px;font-family:sans-serif;fill:#000000;fill-opacity:1;stroke:none" transform="rotate(180)"><tspan x="-1.5" y="-82">M</tspan></text><text id="text1347" x="-1.5" y="-82" style="font-style:normal;font-weight:normal;font-size:4px;font-family:sans-serif;fill:#000000;fill-opacity:1;stroke:none" transform="rotate(240)"><tspan x="-1.5" y="-82">M</tspan></text><text id="text1348" x="-1.5" y="-82" style="font-style:normal;font-weight:normal;font-size:4px;font-family:sans-serif;fill:#000000;fill-opacity:1;stroke:none" transform="rotate(300)"><tspan x="-1.5" y="-82">M</tspan></text><g id="node1349" transform="rotate(30)"><text id="text1350" x="-1.5" y="-72.28203230275508" style="font-style:normal;font-weight:normal;font-size:4px;font-family:sans-serif;fill:#000000;fill-opacity:1;stroke:none"><tspan x="-1.5" y="-72.28203230275508">L</tspan></text></g><g id="node1351" transform="rotate(90)"><text id="text1352" x="-1.5" y="-72.28203230275508" style="font-style:normal;font-weight:normal;font-size:4px;font-family:sans-serif;fill:#000000;fill-opacity:1;stroke:none"><tspan x="-1.5" y="-72.28203230275508">L</tspan></text></g><g id="node1353" transform="rotate(150)"><text id="text1354" x="-15.099999999999998" y="-72.28203230275508" style="font-style:normal;font-weight:normal;font-size:4px;font-family:sans-serif;fill:#000000;fill-opacity:1;stroke:none"><tspan x="-15.099999999999998" y="-72.28203230275508">L</tspan></text><text id="text1355" x="15.299999999999997" y="-72.28203230275508" style="font-style:normal;font-weight:normal;font-size:4px;font-family:sans-serif;fill:#000000;fill-opacity:1;stroke:none"><tspan x="15.299999999999997" y="-72.28203230275508">L</tspan></text></g><g id="node1356" transform="rotate(210)"><text id="text1357" x="-14.833333333333336" y="-72.28203230275508" style="font-style:normal;font-weight:normal;font-size:4px;font-family:sans-serif;fill:#000000;fill-opacity:1;stroke:none"><tspan x="-14.833333333333336" y="-72.28203230275508">M</tspan></text><text id="text1358" x="11.833333333333329" y="-72.28203230275508" style="font-style:normal;font-weight:normal;font-size:4px;font-family:sans-serif;fill:#000000;fill-opacity:1;stroke:none"><tspan x="11.833333333333329" y="-72.28203230275508">M</tspan></text></g><g id="node1359" transform="rotate(270)"><text id="text1360" x="-14.833333333333336" y="-72.28203230275508" style="font-style:normal;font-weight:normal;font-size:4px;font-family:sans-serif;fill:#000000;fill-opacity:1;stroke:none"><tspan x="-14.833333333333336" y="-72.28203230275508">M</tspan></text><text id="text1361" x="11.833333333333329" y="-72.28203230275508" style="font-style:normal;font-weight:normal;font-size:4px;font-family:sans-serif;fill:#000000;fill-opacity:1;stroke:none"><tspan x="11.833333333333329" y="-72.28203230275508">M</tspan></text></g><g id="node1362" transform="rotate(330)"><text id="text1363" x="-18.299999999999997" y="-72.28203230275508" style="font-style:normal;font-weight:normal;font-size:4px;font-family:sans-serif;fill:#000000;fill-opacity:1;stroke:none"><tspan x="-18.299999999999997" y="-72.28203230275508">L</tspan></text><text id="text1364" x="12.099999999999994" y="-72.28203230275508" style="font-style:normal;font-weight:normal;font-size:4px;font-family:sans-serif;fill:#000000;fill-opacity:1;stroke:none"><tspan x="12.099999999999994" y="-72.28203230275508">L</tspan></text></g><g id="node1365" transform="rotate(150)"><rect id="rect1366" x="-28.299999999999997" y="-77.28203230275508" width="3" height="8" style="fill:#a2c6ff;stroke:#000000;stroke-width:0.3" /><text id="text1367" x="-28.299999999999997" y="-79.28203230275508" style="font-style:normal;font-weight:normal;font-size:4px;font-family:sans-serif;fill:#000000;fill-opacity:1;stroke:none"><tspan x="-28.299999999999997" y="-79.28203230275508">R</tspan></text></g><g id="node1368" transform="rotate(210)"><rect id="rect1369" x="-1.5" y="-77.28203230275508" width="3" height="8" style="fill:#a2c6ff;stroke:#000000;stroke-width:0.3" /><text id="text1370" x="-1.5" y="-79.28203230275508" style="font-style:normal;font-weight:normal;font-size:4px;font-family:sans-serif;fill:#000000;fill-opacity:1;stroke:none"><tspan x="-1.5" y="-79.28203230275508">R</tspan></text></g><g id="node1371" transform="rotate(270)"><rect id="rect1372" x="-1.5" y="-77.28203230275508" width="3" height="8" style="fill:#a2c6ff;stroke:#000000;stroke-width:0.3" /><text id="text1373" x="-1.5" y="-79.28203230275508" style="font-style:normal;font-weight:normal;font-size:4px;font-family:sans-serif;fill:#000000;fill-opacity:1;stroke:none"><tspan x="-1.5" y="-79.28203230275508">R</tspan></text></g><g id="node1374" transform="rotate(330)"><rect id="rect1375" x="25.299999999999997" y="-77.28203230275508" width="3" height="8" style="fill:#a2c6ff;stroke:#000000;stroke-width:0.3" /><text id="text1376" x="25.299999999999997" y="-79.28203230275508" style="font-style:normal;font-weight:normal;font-size:4px;font-family:sans-serif;fill:#000000;fill-opacity:1;stroke:none"><tspan x="25.299999999999997" y="-79.28203230275508">R</tspan></text></g><circle id="mana" cx="50" cy="110" r="7.5" style="fill:#000000;stroke:none;stroke-width:0" /><rect id="rect1377" x="75" y="90" width="15" height="6" style="fill:#be850a;stroke:#000000;stroke-width:0.3" /><text id="text1378" x="70" y="94.5" style="font-style:normal;font-weight:normal;font-size:4px;font-family:sans-serif;fill:#000000;fill-opacity:1;stroke:none"><tspan x="70" y="94.5">V</tspan></text><rect id="rect1379" x="75" y="100" width="15" height="6" style="fill:#e7a311;stroke:#000000;stroke-width:0.3" /><text id="text1380" x="70" y="104.5" style="font-style:normal;font-weight:normal;font-size:4px;font-family:sans-serif;fill:#000000;fill-opacity:1;stroke:none"><tspan x="70" y="104.5">H</tspan></text><rect id="rect1381" x="75" y="110" width="15" height="6" style="fill:#f0ce76;stroke:#000000;stroke-width:0.3" /><text id="text1382" x="70" y="114.5" style="font-style:normal;font-weight:normal;font-size:4px;font-family:sans-serif;fill:#000000;fill-opacity:1;stroke:none"><tspan x="70" y="114.5">M</tspan></text><rect id="rect1383" x="75" y="120" width="15" height="6" style="fill:#f0eaac;stroke:#000000;stroke-width:0.3" /><text id="text1384" x="70" y="124.5" style="font-style:normal;font-weight:normal;font-size:4px;font-family:sans-serif;fill:#000000;fill-opacity:1;stroke:none"><tspan x="70" y="124.5">L</tspan></text><rect id="rect1385" x="75" y="130" width="15" height="6" style="fill:#a2c6ff;stroke:#000000;stroke-width:0.3" /><text id="text1386" x="70" y="134.5" style="font-style:normal;font-weight:normal;font-size:4px;font-family:sans-serif;fill:#000000;fill-opacity:1;stroke:none"><tspan x="70" y="134.5">R</tspan></text></g><g id="river-border" inkscape:label="River Border" inkscape:groupmode="layer"><g id="river-border-group" clip-path="url(#clippath-1388)"><path id="path1391" d="m -42.048 -67.8065 19.0143 20.0399 z" style="fill:none;stroke:#000000;stroke-width:2.6;stroke-linecap:round;stroke-linejoin:round" /><path id="path1392" d="m 64.4854 -55.7539 -11.4355 15.2245 z" style="fill:none;stroke:#000000;stroke-width:2.6;stroke-linecap:round;stroke-linejoin:round" /><path id="path1393" d="m 53.0499 -40.5294 -19.271 -1.1818 z" style="fill:none;stroke:#000000;stroke-width:2.6;stroke-linecap:round;stroke-linejoin:round" /><path id="path1394" d="m 35.6645 -11.4823 -1.88566 -30.2288 z" style="fill:none;stroke:#000000;stroke-width:2.6;stroke-linecap:round;stroke-linejoin:round" /><path id="path1395" d="m -23.0337 -47.7666 -1.37469 6.37713 z" style="fill:none;stroke:#000000;stroke-width:2.6;stroke-linecap:round;stroke-linejoin:round" /><path id="path1396" d="m -24.4084 -41.3895 -9.57369 5.81892 z" style="fill:none;stroke:#000000;stroke-width:2.6;stroke-linecap:round;stroke-linejoin:round" /><path id="path1397" d="m -33.9821 -35.5706 -7.38266 23.9506 z" style="fill:none;stroke:#000000;stroke-width:2.6;stroke-linecap:round;stroke-linejoin:round" /><path id="path1398" d="m 48.2437 33.9608 -17.3959 -21.6688 z" style="fill:none;stroke:#000000;stroke-width:2.6;stroke-linecap:round;stroke-linejoin:round" /><path id="path1399" d="m 30.8478 12.292 9.59057 -18.9656 z" style="fill:none;stroke:#000000;stroke-width:2.6;stroke-linecap:round;stroke-linejoin:round" /><path id="path1400" d="m 46.4471 40.4488 1.79659 -6.48794 z" style="fill:none;stroke:#000000;stroke-width:2.6;stroke-linecap:round;stroke-linejoin:round" /><path id="path1401" d="m 46.4471 40.4488 -24.993 5.95235 z" style="fill:none;stroke:#000000;stroke-width:2.6;stroke-linecap:round;stroke-linejoin:round" /><path id="path1402" d="m 35.6645 -11.4823 4.77385 4.80869 z" style="fill:none;stroke:#000000;stroke-width:2.6;stroke-linecap:round;stroke-linejoin:round" /><path id="path1403" d="m -17.7239 81.4566 14.268 -18.9954 z" style="fill:none;stroke:#000000;stroke-width:2.6;stroke-linecap:round;stroke-linejoin:round" /><path id="path1404" d="m -3.4559 62.4612 17.1519 1.26093 z" style="fill:none;stroke:#000000;stroke-width:2.6;stroke-linecap:round;stroke-linejoin:round" /><path id="path1405" d="m 21.4541 46.4011 -7.75812 17.321 z" style="fill:none;stroke:#000000;stroke-width:2.6;stroke-linecap:round;stroke-linejoin:round" /><path id="path1406" d="m -41.3648 -11.62 -14.1474 1.13729 z" style="fill:none;stroke:#000000;stroke-width:2.6;stroke-linecap:round;stroke-linejoin:round" /><path id="path1407" d="m -79.7462 2.5114 17.9007 -4.29617 z" style="fill:none;stroke:#000000;stroke-width:2.6;stroke-linecap:round;stroke-linejoin:round" /><path id="path1408" d="m -55.5121 -10.4827 -6.33336 8.69791 z" style="fill:none;stroke:#000000;stroke-width:2.6;stroke-linecap:round;stroke-linejoin:round" /></g></g><g id="river" inkscape:label="River" inkscape:groupmode="layer"><g id="river-group" clip-path="url(#clippath-1390)"><path id="path1391" d="m -42.048 -67.8065 19.0143 20.0399 z" style="fill:none;stroke:#a2c6ff;stroke-width:2.0;stroke-linecap:round;stroke-linejoin:round" /><path id="path1392" d="m 64.4854 -55.7539 -11.4355 15.2245 z" style="fill:none;stroke:#a2c6ff;stroke-width:2.0;stroke-linecap:round;stroke-linejoin:round" /><path id="path1393" d="m 53.0499 -40.5294 -19.271 -1.1818 z" style="fill:none;stroke:#a2c6ff;stroke-width:2.0;stroke-linecap:round;stroke-linejoin:round" /><path id="path1394" d="m 35.6645 -11.4823 -1.88566 -30.2288 z" style="fill:none;stroke:#a2c6ff;stroke-width:2.0;stroke-linecap:round;stroke-linejoin:round" /><path id="path1395" d="m -23.0337 -47.7666 -1.37469 6.37713 z" style="fill:none;stroke:#a2c6ff;stroke-width:2.0;stroke-linecap:round;stroke-linejoin:round" /><path id="path1396" d="m -24.4084 -41.3895 -9.57369 5.81892 z" style="fill:none;stroke:#a2c6ff;stroke-width:2.0;stroke-linecap:round;stroke-linejoin:round" /><path id="path1397" d="m -33.9821 -35.5706 -7.38266 23.9506 z" style="fill:none;stroke:#a2c6ff;stroke-width:2.0;stroke-linecap:round;stroke-linejoin:round" /><path id="path1398" d="m 48.2437 33.9608 -17.3959 -21.6688 z" style="fill:none;stroke:#a2c6ff;stroke-width:2.0;stroke-linecap:round;stroke-linejoin:round" /><path id="path1399" d="m 30.8478 12.292 9.59057 -18.9656 z" style="fill:none;stroke:#a2c6ff;stroke-width:2.0;stroke-linecap:round;stroke-linejoin:round" /><path id="path1400" d="m 46.4471 40.4488 1.79659 -6.48794 z" style="fill:none;stroke:#a2c6ff;stroke-width:2.0;stroke-linecap:round;stroke-linejoin:round" /><path id="path1401" d="m 46.4471 40.4488 -24.993 5.95235 z" style="fill:none;stroke:#a2c6ff;stroke-width:2.0;stroke-linecap:round;stroke-linejoin:round" /><path id="path1402" d="m 35.6645 -11.4823 4.77385 4.80869 z" style="fill:none;stroke:#a2c6ff;stroke-width:2.0;stroke-linecap:round;stroke-linejoin:round" /><path id="path1403" d="m -17.7239 81.4566 14.268 -18.9954 z" style="fill:none;stroke:#a2c6ff;stroke-width:2.0;stroke-linecap:round;stroke-linejoin:round" /><path id="path1404" d="m -3.4559 62.4612 17.1519 1.26093 z" style="fill:none;stroke:#a2c6ff;stroke-width:2.0;stroke-linecap:round;stroke-linejoin:round" /><path id="path1405" d="m 21.4541 46.4011 -7.75812 17.321 z" style="fill:none;stroke:#a2c6ff;stroke-width:2.0;stroke-linecap:round;stroke-linejoin:round" /><path id="path1406" d="m -41.3648 -11.62 -14.1474 1.13729 z" style="fill:none;stroke:#a2c6ff;stroke-width:2.0;stroke-linecap:round;stroke-linejoin:round" /><path id="path1407" d="m -79.7462 2.5114 17.9007 -4.29617 z" style="fill:none;stroke:#a2c6ff;stroke-width:2.0;stroke-linecap:round;stroke-linejoin:round" /><path id="path1408" d="m -55.5121 -10.4827 -6.33336 8.69791 z" style="fill:none;stroke:#a2c6ff;stroke-width:2.0;stroke-linecap:round;stroke-linejoin:round" /></g></g><g id="overlay" inkscape:label="Overlay" inkscape:groupmode="layer" transform="scale(1,-1)"><ns0:path ns1:nodetypes="ccccc" ns2:connector-curvature="0" id="obj-bridge" d="m -1.3629478,2.973799 c 0.6829002,-2.17565439 0.68923869,-3.60295062 0.015075,-5.9083917 l 2.8035417,0.00714 C 0.73648446,-0.63363961 0.73738591,0.81474035 1.4406036,2.9809656 Z" style="display:inline;fill:#000000;fill-opacity:1;stroke:none;stroke-width:2.14313;stroke-linecap:round;stroke-miterlimit:4;stroke-dasharray:2.14313, 4.28625;stroke-dashoffset:0;stroke-opacity:1" transform="translate(34.72171742596659 26.59673583189783) rotate(93.56945439554686)" />
  <ns0:path ns2:connector-curvature="0" style="display:inline;fill:#000000;fill-opacity:1;fill-rule:evenodd;stroke:none;stroke-width:0.197555px;stroke-linecap:butt;stroke-linejoin:miter;stroke-opacity:1" d="m -3.9511112,-5.6797224 v 2.4694446 l 0.9877778,0.9877777 V 3.7041668 L -3.4572223,5.6797224 H 3.4572223 L 2.9633335,3.7041668 V -2.2225001 L 3.9511112,-3.2102778 V -5.6797224 H 2.9633335 v 0.9877778 H 1.9755556 V -5.6797224 H 0.49388891 v 0.9877778 h -0.9877778 V -5.6797224 H -1.9755556 v 0.9877778 h -0.9877778 v -0.9877778 z m 1.9755556,4.4450002 h 0.4938889 v 1.48166666 h -0.4938889 z m 3.4572223,0.98777775 H 1.9755556 V 1.2347222 H 1.4816667 Z" id="obj-tower" transform="translate(-45.589042059573934 -2.7924162031755646)" />
  <ns0:path style="display:inline;fill:#5ba22d;fill-opacity:1;fill-rule:evenodd;stroke:#000000;stroke-width:0.7;stroke-linecap:round;stroke-linejoin:round;stroke-dasharray:none;stroke-opacity:1" d="m -0.17067971,-5.0753774 -1.75261489,3.0262859 0.8024176,0.028472 -1.1479124,3.1523128 0.9279943,-0.023195 -1.0490969,2.6640674 1.89541622,-0.2588784 0.0251775,0.86149 H 0.47941659 L 0.45423909,3.5136881 2.3758854,3.8500731 1.2249508,1.1891557 l 0.9007594,0.051666 -1.37638922,-3.2108035 0.85286092,0.02585 z" id="obj-tree3" ns2:connector-curvature="0" ns1:nodetypes="cccccccccccccccc" transform="translate(28.641016151377542 -55.0)" />
  <ns0:path ns1:nodetypes="cccccccccccccccc" style="display:inline;fill:#5ba22d;fill-opacity:1;fill-rule:evenodd;stroke:#000000;stroke-width:0.7;stroke-linecap:round;stroke-linejoin:round;stroke-dasharray:none;stroke-opacity:1" d="m -0.11754863,-3.5938692 -1.51308197,1.919478 0.90784897,0.1234394 -1.14277797,1.86485304 0.87624741,0.0811789 -0.98717141,2.11215816 1.45917122,-0.2697811 0.00913,0.8116163 H 0.63276386 L 0.62289412,2.1922623 1.9571211,2.4168533 0.88373104,0.40905041 1.7837593,0.33762228 0.57239737,-1.6512284 1.4352893,-1.762644 Z" id="obj-tree1" ns2:connector-curvature="0" transform="translate(37.64101615137754 -51.0)" />
  <ns0:path ns1:nodetypes="cccccccccccccccc" style="display:inline;fill:#5ba22d;fill-opacity:1;fill-rule:evenodd;stroke:#000000;stroke-width:0.7;stroke-linecap:round;stroke-linejoin:round;stroke-dasharray:none;stroke-opacity:1" d="m -0.06765203,-4.389909 -1.62369897,2.3766988 0.83957497,0.1115608 -1.12383527,2.13200681 0.9140676,0.0246987 -1.2554238,2.79163369 1.88001547,-0.4347033 -0.1025277,0.8737981 h 1.1508144 L 0.50670157,2.6655719 2.3908972,2.937327 0.92673727,0.37297512 1.9739956,0.36732364 0.71541647,-1.8972641 1.5523539,-2.0115734 Z" id="obj-tree2" ns2:connector-curvature="0" transform="translate(40.0189616428459 48.971281292110206)" />
  <ns0:path ns1:nodetypes="cccccccccccccccc" style="display:inline;fill:#5ba22d;fill-opacity:1;fill-rule:evenodd;stroke:#000000;stroke-width:0.7;stroke-linecap:round;stroke-linejoin:round;stroke-dasharray:none;stroke-opacity:1" d="m -0.11754863,-3.5938692 -1.51308197,1.919478 0.90784897,0.1234394 -1.14277797,1.86485304 0.87624741,0.0811789 -0.98717141,2.11215816 1.45917122,-0.2697811 0.00913,0.8116163 H 0.63276386 L 0.62289412,2.1922623 1.9571211,2.4168533 0.88373104,0.40905041 1.7837593,0.33762228 0.57239737,-1.6512284 1.4352893,-1.762644 Z" id="obj-tree1" ns2:connector-curvature="0" transform="translate(-63.48203230275509 12.333333333333336)" />
  <ns0:path style="display:inline;fill:#5ba22d;fill-opacity:1;fill-rule:evenodd;stroke:#000000;stroke-width:0.7;stroke-linecap:round;stroke-linejoin:round;stroke-dasharray:none;stroke-opacity:1" d="m -0.17067971,-5.0753774 -1.75261489,3.0262859 0.8024176,0.028472 -1.1479124,3.1523128 0.9279943,-0.023195 -1.0490969,2.6640674 1.89541622,-0.2588784 0.0251775,0.86149 H 0.47941659 L 0.45423909,3.5136881 2.3758854,3.8500731 1.2249508,1.1891557 l 0.9007594,0.051666 -1.37638922,-3.2108035 0.85286092,0.02585 z" id="obj-tree3" ns2:connector-curvature="0" ns1:nodetypes="cccccccccccccccc" transform="translate(-64.08203230275508 -15.333333333333329)" />
  <ns0:path ns1:nodetypes="cccccccccccccccc" style="display:inline;fill:#5ba22d;fill-opacity:1;fill-rule:evenodd;stroke:#000000;stroke-width:0.7;stroke-linecap:round;stroke-linejoin:round;stroke-dasharray:none;stroke-opacity:1" d="m -0.06765203,-4.389909 -1.62369897,2.3766988 0.83957497,0.1115608 -1.12383527,2.13200681 0.9140676,0.0246987 -1.2554238,2.79163369 1.88001547,-0.4347033 -0.1025277,0.8737981 h 1.1508144 L 0.50670157,2.6655719 2.3908972,2.937327 0.92673727,0.37297512 1.9739956,0.36732364 0.71541647,-1.8972641 1.5523539,-2.0115734 Z" id="obj-tree2" ns2:connector-curvature="0" transform="translate(-50.18419703555028 -24.160337153556213)" />
  <ns0:path style="display:inline;fill:#5ba22d;fill-opacity:1;fill-rule:evenodd;stroke:#000000;stroke-width:0.7;stroke-linecap:round;stroke-linejoin:round;stroke-dasharray:none;stroke-opacity:1" d="m -0.17067971,-5.0753774 -1.75261489,3.0262859 0.8024176,0.028472 -1.1479124,3.1523128 0.9279943,-0.023195 -1.0490969,2.6640674 1.89541622,-0.2588784 0.0251775,0.86149 H 0.47941659 L 0.45423909,3.5136881 2.3758854,3.8500731 1.2249508,1.1891557 l 0.9007594,0.051666 -1.37638922,-3.2108035 0.85286092,0.02585 z" id="obj-tree3" ns2:connector-curvature="0" ns1:nodetypes="cccccccccccccccc" transform="translate(-44.18419703555028 -31.160337153556213)" />
  <ns0:path ns2:connector-curvature="0" id="obj-tree4" d="m 0.02668703,-5.9619146 -2.09811723,3.282356 1.0029208,0.1521268 L -3.0225036,0.99947393 -1.547374,0.90155468 -3.2093694,4.3782552 -0.54442427,3.9810758 -0.82976707,5.1244031 1.024844,5.0746938 0.73952693,4.0307847 3.2104285,4.2788337 1.5479561,0.95326125 2.9726722,1.0476884 1.0210344,-2.5294321 2.2127515,-2.5811391 Z" style="display:inline;fill:#5ba22d;fill-opacity:1;fill-rule:evenodd;stroke:#000000;stroke-width:0.7;stroke-linecap:butt;stroke-linejoin:round;stroke-dasharray:none;stroke-opacity:1" ns1:nodetypes="cccccccccccccccc" transform="translate(-27.514444929174598 -19.29963278756001)" />
  <ns0:path ns1:nodetypes="cccccccccccccccc" style="display:inline;fill:#5ba22d;fill-opacity:1;fill-rule:evenodd;stroke:#000000;stroke-width:0.7;stroke-linecap:round;stroke-linejoin:round;stroke-dasharray:none;stroke-opacity:1" d="m -0.06765203,-4.389909 -1.62369897,2.3766988 0.83957497,0.1115608 -1.12383527,2.13200681 0.9140676,0.0246987 -1.2554238,2.79163369 1.88001547,-0.4347033 -0.1025277,0.8737981 h 1.1508144 L 0.50670157,2.6655719 2.3908972,2.937327 0.92673727,0.37297512 1.9739956,0.36732364 0.71541647,-1.8972641 1.5523539,-2.0115734 Z" id="obj-tree2" ns2:connector-curvature="0" transform="translate(-25.514444929174598 -32.299632787560014)" />
  <ns0:path style="display:inline;fill:#5ba22d;fill-opacity:1;fill-rule:evenodd;stroke:#000000;stroke-width:0.7;stroke-linecap:round;stroke-linejoin:round;stroke-dasharray:none;stroke-opacity:1" d="m -0.17067971,-5.0753774 -1.75261489,3.0262859 0.8024176,0.028472 -1.1479124,3.1523128 0.9279943,-0.023195 -1.0490969,2.6640674 1.89541622,-0.2588784 0.0251775,0.86149 H 0.47941659 L 0.45423909,3.5136881 2.3758854,3.8500731 1.2249508,1.1891557 l 0.9007594,0.051666 -1.37638922,-3.2108035 0.85286092,0.02585 z" id="obj-tree3" ns2:connector-curvature="0" ns1:nodetypes="cccccccccccccccc" transform="translate(-18.514444929174598 -29.29963278756001)" />
  <ns0:path ns1:nodetypes="cccccccccccccccc" style="display:inline;fill:#5ba22d;fill-opacity:1;fill-rule:evenodd;stroke:#000000;stroke-width:0.7;stroke-linecap:round;stroke-linejoin:round;stroke-dasharray:none;stroke-opacity:1" d="m -0.06765203,-4.389909 -1.62369897,2.3766988 0.83957497,0.1115608 -1.12383527,2.13200681 0.9140676,0.0246987 -1.2554238,2.79163369 1.88001547,-0.4347033 -0.1025277,0.8737981 h 1.1508144 L 0.50670157,2.6655719 2.3908972,2.937327 0.92673727,0.37297512 1.9739956,0.36732364 0.71541647,-1.8972641 1.5523539,-2.0115734 Z" id="obj-tree2" ns2:connector-curvature="0" transform="translate(-5.603943029444537 13.991138595196432)" />
  <ns0:path ns1:nodetypes="cccccccccccccccc" style="display:inline;fill:#5ba22d;fill-opacity:1;fill-rule:evenodd;stroke:#000000;stroke-width:0.7;stroke-linecap:round;stroke-linejoin:round;stroke-dasharray:none;stroke-opacity:1" d="m -0.11754863,-3.5938692 -1.51308197,1.919478 0.90784897,0.1234394 -1.14277797,1.86485304 0.87624741,0.0811789 -0.98717141,2.11215816 1.45917122,-0.2697811 0.00913,0.8116163 H 0.63276386 L 0.62289412,2.1922623 1.9571211,2.4168533 0.88373104,0.40905041 1.7837593,0.33762228 0.57239737,-1.6512284 1.4352893,-1.762644 Z" id="obj-tree1" ns2:connector-curvature="0" transform="translate(-17.648885267516818 -2.5360023654283967)" />
  <ns0:path ns2:connector-curvature="0" id="obj-tree4" d="m 0.02668703,-5.9619146 -2.09811723,3.282356 1.0029208,0.1521268 L -3.0225036,0.99947393 -1.547374,0.90155468 -3.2093694,4.3782552 -0.54442427,3.9810758 -0.82976707,5.1244031 1.024844,5.0746938 0.73952693,4.0307847 3.2104285,4.2788337 1.5479561,0.95326125 2.9726722,1.0476884 1.0210344,-2.5294321 2.2127515,-2.5811391 Z" style="display:inline;fill:#5ba22d;fill-opacity:1;fill-rule:evenodd;stroke:#000000;stroke-width:0.7;stroke-linecap:butt;stroke-linejoin:round;stroke-dasharray:none;stroke-opacity:1" ns1:nodetypes="cccccccccccccccc" transform="translate(-10.648885267516816 -6.536002365428397)" />
  <ns0:path ns1:nodetypes="cccccccccccccccc" style="display:inline;fill:#5ba22d;fill-opacity:1;fill-rule:evenodd;stroke:#000000;stroke-width:0.7;stroke-linecap:round;stroke-linejoin:round;stroke-dasharray:none;stroke-opacity:1" d="m -0.06765203,-4.389909 -1.62369897,2.3766988 0.83957497,0.1115608 -1.12383527,2.13200681 0.9140676,0.0246987 -1.2554238,2.79163369 1.88001547,-0.4347033 -0.1025277,0.8737981 h 1.1508144 L 0.50670157,2.6655719 2.3908972,2.937327 0.92673727,0.37297512 1.9739956,0.36732364 0.71541647,-1.8972641 1.5523539,-2.0115734 Z" id="obj-tree2" ns2:connector-curvature="0" transform="translate(-3.6488852675168157 -9.536002365428397)" />
  <ns0:path ns1:nodetypes="cccccccccccccccc" style="display:inline;fill:#5ba22d;fill-opacity:1;fill-rule:evenodd;stroke:#000000;stroke-width:0.7;stroke-linecap:round;stroke-linejoin:round;stroke-dasharray:none;stroke-opacity:1" d="m -0.06765203,-4.389909 -1.62369897,2.3766988 0.83957497,0.1115608 -1.12383527,2.13200681 0.9140676,0.0246987 -1.2554238,2.79163369 1.88001547,-0.4347033 -0.1025277,0.8737981 h 1.1508144 L 0.50670157,2.6655719 2.3908972,2.937327 0.92673727,0.37297512 1.9739956,0.36732364 0.71541647,-1.8972641 1.5523539,-2.0115734 Z" id="obj-tree2" ns2:connector-curvature="0" transform="translate(-29.55822404584609 13.252897703309344)" />
  <ns0:path ns1:nodetypes="cccccccccccccccc" style="display:inline;fill:#5ba22d;fill-opacity:1;fill-rule:evenodd;stroke:#000000;stroke-width:0.7;stroke-linecap:round;stroke-linejoin:round;stroke-dasharray:none;stroke-opacity:1" d="m -0.06765203,-4.389909 -1.62369897,2.3766988 0.83957497,0.1115608 -1.12383527,2.13200681 0.9140676,0.0246987 -1.2554238,2.79163369 1.88001547,-0.4347033 -0.1025277,0.8737981 h 1.1508144 L 0.50670157,2.6655719 2.3908972,2.937327 0.92673727,0.37297512 1.9739956,0.36732364 0.71541647,-1.8972641 1.5523539,-2.0115734 Z" id="obj-tree2" ns2:connector-curvature="0" transform="translate(-24.55822404584609 28.252897703309344)" />
  <ns0:path style="display:inline;fill:#5ba22d;fill-opacity:1;fill-rule:evenodd;stroke:#000000;stroke-width:0.7;stroke-linecap:round;stroke-linejoin:round;stroke-dasharray:none;stroke-opacity:1" d="m -0.17067971,-5.0753774 -1.75261489,3.0262859 0.8024176,0.028472 -1.1479124,3.1523128 0.9279943,-0.023195 -1.0490969,2.6640674 1.89541622,-0.2588784 0.0251775,0.86149 H 0.47941659 L 0.45423909,3.5136881 2.3758854,3.8500731 1.2249508,1.1891557 l 0.9007594,0.051666 -1.37638922,-3.2108035 0.85286092,0.02585 z" id="obj-tree3" ns2:connector-curvature="0" ns1:nodetypes="cccccccccccccccc" transform="translate(-20.55822404584609 19.252897703309344)" />
  <ns0:path ns1:nodetypes="cccccccccccccccc" style="display:inline;fill:#5ba22d;fill-opacity:1;fill-rule:evenodd;stroke:#000000;stroke-width:0.7;stroke-linecap:round;stroke-linejoin:round;stroke-dasharray:none;stroke-opacity:1" d="m -0.11754863,-3.5938692 -1.51308197,1.919478 0.90784897,0.1234394 -1.14277797,1.86485304 0.87624741,0.0811789 -0.98717141,2.11215816 1.45917122,-0.2697811 0.00913,0.8116163 H 0.63276386 L 0.62289412,2.1922623 1.9571211,2.4168533 0.88373104,0.40905041 1.7837593,0.33762228 0.57239737,-1.6512284 1.4352893,-1.762644 Z" id="obj-tree1" ns2:connector-curvature="0" transform="translate(-54.13091584664148 28.827305639663898)" />
  <ns0:path ns1:nodetypes="cccccccccccccccc" style="display:inline;fill:#5ba22d;fill-opacity:1;fill-rule:evenodd;stroke:#000000;stroke-width:0.7;stroke-linecap:round;stroke-linejoin:round;stroke-dasharray:none;stroke-opacity:1" d="m -0.06765203,-4.389909 -1.62369897,2.3766988 0.83957497,0.1115608 -1.12383527,2.13200681 0.9140676,0.0246987 -1.2554238,2.79163369 1.88001547,-0.4347033 -0.1025277,0.8737981 h 1.1508144 L 0.50670157,2.6655719 2.3908972,2.937327 0.92673727,0.37297512 1.9739956,0.36732364 0.71541647,-1.8972641 1.5523539,-2.0115734 Z" id="obj-tree2" ns2:connector-curvature="0" transform="translate(-48.13091584664148 20.827305639663898)" />
  <ns0:path ns1:nodetypes="cccccccccccccccc" style="display:inline;fill:#5ba22d;fill-opacity:1;fill-rule:evenodd;stroke:#000000;stroke-width:0.7;stroke-linecap:round;stroke-linejoin:round;stroke-dasharray:none;stroke-opacity:1" d="m -0.11754863,-3.5938692 -1.51308197,1.919478 0.90784897,0.1234394 -1.14277797,1.86485304 0.87624741,0.0811789 -0.98717141,2.11215816 1.45917122,-0.2697811 0.00913,0.8116163 H 0.63276386 L 0.62289412,2.1922623 1.9571211,2.4168533 0.88373104,0.40905041 1.7837593,0.33762228 0.57239737,-1.6512284 1.4352893,-1.762644 Z" id="obj-tree1" ns2:connector-curvature="0" transform="translate(1.3878884774617868 62.83978225930966)" />
  </g><g id="region_ids" inkscape:label="Region Ids" inkscape:groupmode="layer" style="display:none" transform="scale(1,-1)"><text id="text1409" x="-1.4" y="-80.0" style="font-style:normal;font-weight:normal;font-size:4px;font-family:sans-serif;fill:#000000;fill-opacity:1;stroke:none"><tspan x="-1.4" y="-80.0">0</tspan></text><text id="text1410" x="67.88203230275508" y="-40.0" style="font-style:normal;font-weight:normal;font-size:4px;font-family:sans-serif;fill:#000000;fill-opacity:1;stroke:none"><tspan x="67.88203230275508" y="-40.0">1</tspan></text><text id="text1411" x="67.88203230275508" y="40.0" style="font-style:normal;font-weight:normal;font-size:4px;font-family:sans-serif;fill:#000000;fill-opacity:1;stroke:none"><tspan x="67.88203230275508" y="40.0">2</tspan></text><text id="text1412" x="-1.4" y="80.0" style="font-style:normal;font-weight:normal;font-size:4px;font-family:sans-serif;fill:#000000;fill-opacity:1;stroke:none"><tspan x="-1.4" y="80.0">3</tspan></text><text id="text1413" x="-70.68203230275509" y="40.0" style="font-style:normal;font-weight:normal;font-size:4px;font-family:sans-serif;fill:#000000;fill-opacity:1;stroke:none"><tspan x="-70.68203230275509" y="40.0">4</tspan></text><text id="text1414" x="-70.68203230275509" y="-40.0" style="font-style:normal;font-weight:normal;font-size:4px;font-family:sans-serif;fill:#000000;fill-opacity:1;stroke:none"><tspan x="-70.68203230275509" y="-40.0">5</tspan></text><text id="text1415" x="33.24101615137754" y="-60.0" style="font-style:normal;font-weight:normal;font-size:4px;font-family:sans-serif;fill:#000000;fill-opacity:1;stroke:none"><tspan x="33.24101615137754" y="-60.0">6</tspan></text><text id="text1416" x="67.88203230275508" y="-0.0" style="font-style:normal;font-weight:normal;font-size:4px;font-family:sans-serif;fill:#000000;fill-opacity:1;stroke:none"><tspan x="67.88203230275508" y="-0.0">7</tspan></text><text id="text1417" x="46.6189616428459" y="55.971281292110206" style="font-style:normal;font-weight:normal;font-size:4px;font-family:sans-serif;fill:#000000;fill-opacity:1;stroke:none"><tspan x="46.6189616428459" y="55.971281292110206">8</tspan></text><text id="text1418" x="17.491789367798976" y="66.32153903091735" style="font-style:normal;font-weight:normal;font-size:4px;font-family:sans-serif;fill:#000000;fill-opacity:1;stroke:none"><tspan x="17.491789367798976" y="66.32153903091735">9</tspan></text><text id="text1419" x="-26.094010767585026" y="69.43794795877687" style="font-style:normal;font-weight:normal;font-size:4px;font-family:sans-serif;fill:#000000;fill-opacity:1;stroke:none"><tspan x="-26.094010767585026" y="69.43794795877687">10</tspan></text><text id="text1420" x="-45.98802153517005" y="50.56205204122313" style="font-style:normal;font-weight:normal;font-size:4px;font-family:sans-serif;fill:#000000;fill-opacity:1;stroke:none"><tspan x="-45.98802153517005" y="50.56205204122313">11</tspan></text><text id="text1421" x="-73.88203230275509" y="13.333333333333336" style="font-style:normal;font-weight:normal;font-size:4px;font-family:sans-serif;fill:#000000;fill-opacity:1;stroke:none"><tspan x="-73.88203230275509" y="13.333333333333336">12</tspan></text><text id="text1422" x="-67.48203230275509" y="-13.333333333333329" style="font-style:normal;font-weight:normal;font-size:4px;font-family:sans-serif;fill:#000000;fill-opacity:1;stroke:none"><tspan x="-67.48203230275509" y="-13.333333333333329">13</tspan></text><text id="text1423" x="-51.790242934956105" y="-53.67846096908266" style="font-style:normal;font-weight:normal;font-size:4px;font-family:sans-serif;fill:#000000;fill-opacity:1;stroke:none"><tspan x="-51.790242934956105" y="-53.67846096908266">14</tspan></text><text id="text1424" x="-22.66307065990918" y="-64.0287187078898" style="font-style:normal;font-weight:normal;font-size:4px;font-family:sans-serif;fill:#000000;fill-opacity:1;stroke:none"><tspan x="-22.66307065990918" y="-64.0287187078898">15</tspan></text><text id="text1425" x="22.059186955716488" y="24.401204912067698" style="font-style:normal;font-weight:normal;font-size:4px;font-family:sans-serif;fill:#000000;fill-opacity:1;stroke:none"><tspan x="22.059186955716488" y="24.401204912067698">16</tspan></text><text id="text1426" x="25.695641594138763" y="-28.318090430546444" style="font-style:normal;font-weight:normal;font-size:4px;font-family:sans-serif;fill:#000000;fill-opacity:1;stroke:none"><tspan x="25.695641594138763" y="-28.318090430546444">17</tspan></text><text id="text1427" x="-49.584197035550275" y="-25.160337153556213" style="font-style:normal;font-weight:normal;font-size:4px;font-family:sans-serif;fill:#000000;fill-opacity:1;stroke:none"><tspan x="-49.584197035550275" y="-25.160337153556213">18</tspan></text><text id="text1428" x="-25.914444929174596" y="-24.29963278756001" style="font-style:normal;font-weight:normal;font-size:4px;font-family:sans-serif;fill:#000000;fill-opacity:1;stroke:none"><tspan x="-25.914444929174596" y="-24.29963278756001">19</tspan></text><text id="text1429" x="-48.98904205957393" y="-4.792416203175565" style="font-style:normal;font-weight:normal;font-size:4px;font-family:sans-serif;fill:#000000;fill-opacity:1;stroke:none"><tspan x="-48.98904205957393" y="-4.792416203175565">20</tspan></text><text id="text1430" x="-3.0039430294445366" y="14.991138595196432" style="font-style:normal;font-weight:normal;font-size:4px;font-family:sans-serif;fill:#000000;fill-opacity:1;stroke:none"><tspan x="-3.0039430294445366" y="14.991138595196432">21</tspan></text><text id="text1431" x="-12.048885267516816" y="-6.536002365428397" style="font-style:normal;font-weight:normal;font-size:4px;font-family:sans-serif;fill:#000000;fill-opacity:1;stroke:none"><tspan x="-12.048885267516816" y="-6.536002365428397">22</tspan></text><text id="text1432" x="-26.958224045846087" y="19.252897703309344" style="font-style:normal;font-weight:normal;font-size:4px;font-family:sans-serif;fill:#000000;fill-opacity:1;stroke:none"><tspan x="-26.958224045846087" y="19.252897703309344">23</tspan></text><text id="text1433" x="-51.53091584664148" y="26.827305639663898" style="font-style:normal;font-weight:normal;font-size:4px;font-family:sans-serif;fill:#000000;fill-opacity:1;stroke:none"><tspan x="-51.53091584664148" y="26.827305639663898">24</tspan></text><text id="text1434" x="44.76978852717897" y="25.817879827987056" style="font-style:normal;font-weight:normal;font-size:4px;font-family:sans-serif;fill:#000000;fill-opacity:1;stroke:none"><tspan x="44.76978852717897" y="25.817879827987056">25</tspan></text><text id="text1435" x="-3.6419966032625273" y="41.43371933930717" style="font-style:normal;font-weight:normal;font-size:4px;font-family:sans-serif;fill:#000000;fill-opacity:1;stroke:none"><tspan x="-3.6419966032625273" y="41.43371933930717">26</tspan></text><text id="text1436" x="1.127735518289838" y="-45.61637885286196" style="font-style:normal;font-weight:normal;font-size:4px;font-family:sans-serif;fill:#000000;fill-opacity:1;stroke:none"><tspan x="1.127735518289838" y="-45.61637885286196">27</tspan></text><text id="text1437" x="19.852976665858208" y="1.0815786671141807" style="font-style:normal;font-weight:normal;font-size:4px;font-family:sans-serif;fill:#000000;fill-opacity:1;stroke:none"><tspan x="19.852976665858208" y="1.0815786671141807">28</tspan></text><text id="text1438" x="45.90610006319534" y="-12.093000087168805" style="font-style:normal;font-weight:normal;font-size:4px;font-family:sans-serif;fill:#000000;fill-opacity:1;stroke:none"><tspan x="45.90610006319534" y="-12.093000087168805">29</tspan></text><text id="text1439" x="-2.012111522538213" y="59.83978225930966" style="font-style:normal;font-weight:normal;font-size:4px;font-family:sans-serif;fill:#000000;fill-opacity:1;stroke:none"><tspan x="-2.012111522538213" y="59.83978225930966">30</tspan></text></g><g id="border" inkscape:label="Border" inkscape:groupmode="layer"><path id="path1440" d="m 0 80 69.282 -40 0 -80 -69.282 -40 -69.282 40 0 80 z" style="fill:none;stroke:#000000;stroke-width:0.3" /></g></g></svg>