<?xml version='1.0' encoding='UTF-8'?>
<svg xmlns:ns0="http://www.w3.org/2000/svg" xmlns:ns1="http://sodipodi.sourceforge.net/DTD/sodipodi-0.dtd" xmlns:ns2="http://www.inkscape.org/namespaces/inkscape" version="1.1" id="svg_root" xmlns="http://www.w3.org/2000/svg" xmlns:sodipodi="http://sodipodi.sourceforge.net/DTD/sodipodi-0.dtd" xmlns:inkscape="http://www.inkscape.org/namespaces/inkscape" xmlns:xlink="http://www.w3.org/1999/xlink" width="215.9mm" height="279.4mm" viewBox="0 0 215.9 279.4"><defs /><g id="layer" inkscape:label="Layer" inkscape:groupmode="layer" transform="translate(107.95 120) scale(1, -1)"><g id="background" inkscape:label="Tile Background" inkscape:groupmode="layer"><path id="path2298" d="m 0 80 69.282 -40 0 -80 -69.282 -40 -69.282 40 0 80 z" style="fill:#000000;stroke:none;stroke-width:0" /></g><g id="region-clip" inkscape:label="Region Clipped" inkscape:groupmode="layer" style="display:none"><g id="clip"><path id="clipregion-0" d="m 13.0281 62.5654 -17.4065 1.12389 -7.22116 9.61375 11.5995 6.69697 17.3205 -10 z" style="fill:#f0eaac;stroke:#000000;stroke-width:0.3" /><path id="clipregion-1" d="m 58.3692 25.2833 -12.9817 13.3301 6.57404 11.3866 17.3205 -10 0 -13.3939 z" style="fill:#f0eaac;stroke:#000000;stroke-width:0.3" /><path id="clipregion-2" d="m 55.2438 -40.4967 6.02373 11.3917 8.01446 0.829082 0 -11.7241 -10.1534 -5.86207 z" style="fill:#f0ce76;stroke:#000000;stroke-width:0.3" /><path id="clipregion-3" d="m -9.73712 -56.8652 9.29865 -0.411311 12.038 -16.0265 -11.5995 -6.69697 -17.3205 10 z" style="fill:#f0eaac;stroke:#000000;stroke-width:0.3" /><path id="clipregion-4" d="m -55.6438 -24.9529 6.68621 -4.10357 3.31453 -9.99953 -6.3185 -10.944 -17.3205 10 0 13.3939 z" style="fill:#f0eaac;stroke:#000000;stroke-width:0.3" /><path id="clipregion-5" d="m -50.9823 34.6109 -4.72394 -4.93066 -13.5758 -1.40439 0 11.7241 10.1534 5.86207 z" style="fill:#f0ce76;stroke:#000000;stroke-width:0.3" /><path id="clipregion-6" d="m 45.3875 38.6134 -7.23768 -1.39642 -19.8429 10.4718 -5.27873 14.8765 4.29238 7.43461 34.641 -20 z" style="fill:#f0eaac;stroke:#000000;stroke-width:0.3" /><path id="clipregion-7" d="m 57.385 0.665246 0.984244 24.618 10.9128 1.32276 0 -28.1324 z" style="fill:#f0eaac;stroke:#000000;stroke-width:0.3" /><path id="clipregion-8" d="m 61.2676 -29.1049 -11.5193 18.6524 1.42996 6.49415 6.20678 4.62369 11.8971 -2.19156 0 -26.7495 z" style="fill:#f0eaac;stroke:#000000;stroke-width:0.3" /><path id="clipregion-9" d="m 32.6475 -49.907 5.64202 7.62514 16.9543 1.78521 3.88479 -5.36541 -23.1658 -13.3748 z" style="fill:#f0eaac;stroke:#000000;stroke-width:0.3" /><path id="clipregion-10" d="m -0.438475 -57.2765 13.7722 9.03739 19.3138 -1.6679 3.31533 -9.32983 -24.3634 -14.0662 z" style="fill:#f0eaac;stroke:#000000;stroke-width:0.3" /><path id="clipregion-11" d="m -45.643 -39.056 28.49 -7.07591 7.41591 -10.7332 -7.58338 -13.1348 -34.641 20 z" style="fill:#f0eaac;stroke:#000000;stroke-width:0.3" /><path id="clipregion-12" d="m -63.6979 0.497667 8.05418 -25.4506 -13.6383 -1.65312 0 28.1324 z" style="fill:#f0eaac;stroke:#000000;stroke-width:0.3" /><path id="clipregion-13" d="m -55.7063 29.6803 -0.250487 -22.9028 -7.74119 -6.27983 -5.58409 1.02865 0 26.7495 z" style="fill:#f0eaac;stroke:#000000;stroke-width:0.3" /><path id="clipregion-14" d="m -32.1823 48.5977 -11.863 -12.9448 -6.93709 -1.04195 -8.14631 11.2512 23.1658 13.3748 z" style="fill:#f0eaac;stroke:#000000;stroke-width:0.3" /><path id="clipregion-15" d="m -4.37834 63.6893 -14.9529 -16.749 -12.851 1.65746 -3.78059 10.6392 24.3634 14.0662 z" style="fill:#f0eaac;stroke:#000000;stroke-width:0.3" /><path id="clipregion-16" d="m 34.0171 -23.4704 -16.2944 5.00066 0.414491 25.1246 6.56399 2.56455 26.477 -13.1778 -1.42996 -6.49415 z" style="fill:#f0eaac;stroke:#000000;stroke-width:0.3" /><path id="clipregion-17" d="m 38.2895 -42.2819 -4.27242 18.8114 15.7311 13.0178 11.5193 -18.6524 -6.02373 -11.3917 z" style="fill:#f0ce76;stroke:#000000;stroke-width:0.3" /><path id="clipregion-18" d="m -27.6314 13.5894 -16.4138 22.0634 11.863 12.9448 12.851 -1.65746 11.5808 -16.8856 z" style="fill:#f0ce76;stroke:#000000;stroke-width:0.3" /><path id="clipregion-19" d="m 18.1372 6.65485 -9.32152 3.41643 -9.90227 18.4203 19.3934 19.1972 19.8429 -10.4718 -13.4486 -27.9976 z" style="fill:#f0eaac;stroke:#000000;stroke-width:0.3" /><path id="clipregion-20" d="m 32.6475 -49.907 -19.3138 1.6679 -0.753445 25.8089 5.14243 3.96044 16.2944 -5.00066 4.27242 -18.8114 z" style="fill:#f0ce76;stroke:#000000;stroke-width:0.3" /><path id="clipregion-21" d="m -19.3312 46.9402 14.9529 16.749 17.4065 -1.12389 5.27873 -14.8765 -19.3934 -19.1972 -6.66392 1.56302 z" style="fill:#f0eaac;stroke:#000000;stroke-width:0.3" /><path id="clipregion-22" d="m -8.99144 -20.5905 21.5717 -1.83973 0.753445 -25.8089 -13.7722 -9.03739 -9.29865 0.411311 -7.41591 10.7332 z" style="fill:#f0eaac;stroke:#000000;stroke-width:0.3" /><path id="clipregion-23" d="m -27.6314 13.5894 -1.32851 -11.1094 -26.9968 4.29743 0.250487 22.9028 4.72394 4.93066 6.93709 1.04195 z" style="fill:#f0eaac;stroke:#000000;stroke-width:0.3" /><path id="clipregion-24" d="m 24.7012 9.21939 13.4486 27.9976 7.23768 1.39642 12.9817 -13.3301 -0.984244 -24.618 -6.20678 -4.62369 z" style="fill:#f0eaac;stroke:#000000;stroke-width:0.3" /><path id="clipregion-25" d="m -63.6979 0.497667 7.74119 6.27983 26.9968 -4.29743 2.78781 -5.78232 -22.7854 -25.7543 -6.68621 4.10357 z" style="fill:#f0eaac;stroke:#000000;stroke-width:0.3" /><path id="clipregion-26" d="m -7.75047 30.0546 6.66392 -1.56302 9.90227 -18.4203 -25.279 -17.4205 -9.70884 4.04693 -2.78781 5.78232 1.32851 11.1094 z" style="fill:#f0ce76;stroke:#000000;stroke-width:0.3" /><path id="clipregion-27" d="m 17.7227 -18.4698 -5.14243 -3.96044 -21.5717 1.83973 -7.47186 13.2413 25.279 17.4205 9.32152 -3.41643 z" style="fill:#f0eaac;stroke:#000000;stroke-width:0.3" /><path id="clipregion-28" d="m -16.4633 -7.34918 7.47186 -13.2413 -8.16159 -25.5415 -28.49 7.07591 -3.31453 9.99953 22.7854 25.7543 z" style="fill:#f0eaac;stroke:#000000;stroke-width:0.3" /></g></g><g id="region-rounded" inkscape:label="Region Rounded" inkscape:groupmode="layer"><g id="rounded"><path id="roundedregion-0" d="m 13.5281 63.4314 c -0.35 -0.606218 -0.799377 -0.846695 -1.49792 -0.801592 l -15.4106 0.995024 c -0.698545 0.0451033 -1.1781 0.304303 -1.5985 0.864 l -6.62058 8.81419 11.5995 6.69697 17.3205 -10 z" style="fill:#f0eaac;stroke:#000000;stroke-width:0.3" /><path id="roundedregion-1" d="m 59.362 25.4036 c -0.694914 -0.084232 -1.20204 0.0945906 -1.69042 0.596075 l -11.5864 11.8973 c -0.488378 0.501485 -0.547683 0.976214 -0.197683 1.58243 l 6.07404 10.5205 17.3205 -10 0 -13.3939 z" style="fill:#f0eaac;stroke:#000000;stroke-width:0.3" /><path id="roundedregion-2" d="m 55.8303 -41.3066 c -0.410521 0.566985 -0.446223 1.07518 -0.119007 1.694 l 5.08883 9.62368 c 0.327217 0.618813 0.76586 0.914888 1.46214 0.986917 l 7.01976 0.726183 0 -11.7241 -10.1534 -5.86207 z" style="fill:#f0ce76;stroke:#000000;stroke-width:0.3" /><path id="roundedregion-3" d="m -10.2371 -57.7312 c 0.35 0.606218 0.799707 0.852768 1.49902 0.821835 l 7.3006 -0.322931 c 0.699316 -0.0309332 1.1792 -0.28406 1.5996 -0.843757 l 11.4374 -15.227 -11.5995 -6.69697 -17.3205 10 z" style="fill:#f0eaac;stroke:#000000;stroke-width:0.3" /><path id="roundedregion-4" d="m -56.6365 -25.0733 c 0.694914 0.084232 1.24842 -0.0365919 1.84502 -0.402746 l 4.98164 -3.05741 c 0.5966 -0.366154 0.946675 -0.807842 1.16692 -1.47229 l 2.68526 -8.10111 c 0.220244 -0.664449 0.164634 -1.20902 -0.185366 -1.81524 l -5.8185 -10.0779 -17.3205 10 0 13.3939 z" style="fill:#f0eaac;stroke:#000000;stroke-width:0.3" /><path id="roundedregion-5" d="m -51.5688 35.4209 c 0.410521 -0.566985 0.378917 -1.0266 -0.105348 -1.53206 l -3.34032 -3.4865 c -0.484265 -0.505457 -0.990215 -0.752952 -1.6865 -0.824981 l -12.5811 -1.30149 0 11.7241 10.1534 5.86207 z" style="fill:#f0ce76;stroke:#000000;stroke-width:0.3" /><path id="roundedregion-6" d="m 45.8875 39.4795 c -0.35 -0.606218 -0.794567 -0.922859 -1.48189 -1.05547 l -5.2739 -1.01753 c -0.687324 -0.132611 -1.24721 -0.0494247 -1.86629 0.277286 l -18.0741 9.53838 c -0.61908 0.326711 -0.984722 0.749458 -1.21881 1.40916 l -4.60992 12.9917 c -0.234085 0.6597 -0.184408 1.20224 0.165592 1.80845 l 3.79238 6.56859 34.641 -20 z" style="fill:#f0eaac;stroke:#000000;stroke-width:0.3" /><path id="roundedregion-7" d="m 58.3684 0.484084 c -0.688417 0.126814 -0.971469 0.480923 -0.943505 1.18036 l 0.904347 22.6196 c 0.0279641 0.699441 0.337769 1.0353 1.03268 1.11953 l 9.92007 1.20243 0 -28.1324 z" style="fill:#f0eaac;stroke:#000000;stroke-width:0.3" /><path id="roundedregion-8" d="m 62.2623 -29.002 c -0.696284 -0.0720294 -1.15233 0.152348 -1.52014 0.747924 l -10.4684 16.9507 c -0.367817 0.595576 -0.46094 1.1438 -0.310412 1.82743 l 0.999879 4.54094 c 0.150528 0.683624 0.455624 1.15583 1.01698 1.57401 l 4.6029 3.42888 c 0.56136 0.41818 1.09698 0.543052 1.7854 0.416238 l 10.9136 -2.0104 0 -26.7495 z" style="fill:#f0eaac;stroke:#000000;stroke-width:0.3" /><path id="roundedregion-9" d="m 32.9824 -50.8493 c -0.234385 0.659594 -0.156394 1.18344 0.259967 1.74615 l 4.45241 6.0174 c 0.416362 0.56271 0.893153 0.835287 1.5893 0.908588 l 14.9653 1.57578 c 0.696151 0.0733017 1.17044 -0.138277 1.58096 -0.705262 l 3.29833 -4.55543 -23.1658 -13.3748 z" style="fill:#f0eaac;stroke:#000000;stroke-width:0.3" /><path id="roundedregion-10" d="m 0.162102 -58.0761 c -0.420404 0.559697 -0.349757 0.964156 0.235489 1.3482 l 12.1001 7.94013 c 0.585246 0.384041 1.13495 0.522818 1.83236 0.462592 l 17.3212 -1.49582 c 0.697404 -0.0602264 1.09674 -0.368721 1.33113 -1.02831 l 2.98049 -8.38755 -24.3634 -14.0662 z" style="fill:#f0eaac;stroke:#000000;stroke-width:0.3" /><path id="roundedregion-11" d="m -46.143 -39.9221 c 0.35 0.606218 0.791154 0.793713 1.47051 0.624984 l 26.549 -6.59383 c 0.67936 -0.168729 1.14105 -0.487859 1.53896 -1.06376 l 6.27902 -9.0878 c 0.39791 -0.575906 0.418443 -1.08253 0.0684426 -1.68875 l -7.08338 -12.2688 -34.641 20 z" style="fill:#f0eaac;stroke:#000000;stroke-width:0.3" /><path id="roundedregion-12" d="m -64.6814 0.678829 c 0.688417 -0.126814 1.07397 -0.467182 1.28517 -1.13456 l 7.45075 -23.5438 c 0.211201 -0.667379 0.00389517 -0.989497 -0.691018 -1.07373 l -12.6455 -1.53279 0 28.1324 z" style="fill:#f0eaac;stroke:#000000;stroke-width:0.3" /><path id="roundedregion-13" d="m -56.7009 29.5774 c 0.696284 0.0720294 0.991411 -0.197083 0.983755 -0.897041 l -0.228614 -20.9029 c -0.00765542 -0.699958 -0.243916 -1.18894 -0.787536 -1.62994 l -6.188 -5.01984 c -0.54362 -0.440996 -1.07164 -0.575646 -1.76005 -0.448832 l -4.60064 0.847487 0 26.7495 z" style="fill:#f0eaac;stroke:#000000;stroke-width:0.3" /><path id="roundedregion-14" d="m -32.5171 49.54 c 0.234385 -0.659594 0.132147 -1.16345 -0.340793 -1.67952 l -10.5117 -11.4703 c -0.47294 -0.51607 -0.9723 -0.781803 -1.66454 -0.885776 l -4.95928 -0.744882 c -0.692235 -0.103973 -1.16485 0.0944601 -1.57537 0.661445 l -7.55985 10.4412 23.1658 13.3748 z" style="fill:#f0eaac;stroke:#000000;stroke-width:0.3" /><path id="roundedregion-15" d="m -4.97891 64.4888 c 0.420404 -0.559697 0.400784 -1.02336 -0.0653989 -1.54554 l -13.6209 -15.2571 c -0.466183 -0.522181 -0.963511 -0.707599 -1.65776 -0.618058 l -10.8675 1.40163 c -0.69425 0.0895409 -1.09224 0.410599 -1.32662 1.07019 l -3.44576 9.69687 24.3634 14.0662 z" style="fill:#f0eaac;stroke:#000000;stroke-width:0.3" /><path id="roundedregion-16" d="m 34.7875 -22.8329 c -0.539293 -0.446277 -1.05722 -0.549521 -1.72641 -0.344149 l -14.3824 4.41388 c -0.669195 0.205373 -0.951044 0.593349 -0.939498 1.29325 l 0.381501 23.1249 c 0.0115466 0.699905 0.295925 1.10904 0.947929 1.36377 l 4.70112 1.83672 c 0.652004 0.254737 1.20001 0.230239 1.82668 -0.0816614 l 24.6865 -12.2867 c 0.626672 -0.3119 0.830734 -0.738553 0.680206 -1.42218 l -0.999879 -4.54094 c -0.150528 -0.683624 -0.446166 -1.16787 -0.985459 -1.61414 z" style="fill:#f0eaac;stroke:#000000;stroke-width:0.3" /><path id="roundedregion-17" d="m 39.284 -42.1772 c -0.696151 -0.0733017 -1.06095 0.187833 -1.21598 0.870449 l -3.82946 16.8611 c -0.155034 0.682616 0.00964776 1.16643 0.548941 1.6127 l 14.1903 11.7428 c 0.539293 0.446277 0.928054 0.382291 1.29587 -0.213285 l 10.4684 -16.9507 c 0.367817 -0.595576 0.385216 -1.11603 0.0579995 -1.73484 l -5.08883 -9.62368 c -0.327217 -0.618813 -0.765803 -0.915433 -1.46195 -0.988735 z" style="fill:#f0ce76;stroke:#000000;stroke-width:0.3" /><path id="roundedregion-18" d="m -26.8613 14.2273 c -0.539116 -0.446491 -0.949231 -0.397145 -1.36705 0.164485 l -15.22 20.4588 c -0.417817 0.56163 -0.394194 1.0235 0.0787461 1.53957 l 10.5117 11.4703 c 0.47294 0.51607 0.973164 0.698868 1.66741 0.609327 l 10.8675 -1.40163 c 0.69425 -0.0895409 1.16146 -0.37532 1.55738 -0.952597 l 10.4496 -15.2362 c 0.395918 -0.577277 0.334547 -1.01603 -0.204569 -1.46253 z" style="fill:#f0ce76;stroke:#000000;stroke-width:0.3" /><path id="roundedregion-19" d="m 19.0687 7.01876 c -0.652004 -0.254737 -1.21311 -0.260673 -1.87036 -0.0197854 l -7.44367 2.72818 c -0.657247 0.240888 -1.08097 0.608364 -1.41242 1.22492 l -8.95528 16.6587 c -0.331445 0.616558 -0.260285 1.09185 0.2372 1.5843 l 17.972 17.7902 c 0.497485 0.492452 0.976013 0.563484 1.59509 0.236773 l 18.0741 -9.53838 c 0.61908 -0.326711 0.754504 -0.73715 0.451414 -1.36813 l -12.5826 -26.1948 c -0.30309 -0.630981 -0.712416 -1.01057 -1.36442 -1.26531 z" style="fill:#f0eaac;stroke:#000000;stroke-width:0.3" /><path id="roundedregion-20" d="m 33.2423 -49.1031 c -0.416362 -0.56271 -0.89369 -0.77806 -1.59109 -0.717834 l -17.3212 1.49582 c -0.697404 0.0602264 -1.00505 0.38591 -1.02547 1.08561 l -0.695083 23.8097 c -0.0204265 0.699702 0.208501 1.18262 0.763091 1.60974 l 3.55788 2.7401 c 0.55459 0.427118 1.07907 0.522151 1.74827 0.316779 l 14.3824 -4.41388 c 0.669195 -0.205373 1.02244 -0.585939 1.17747 -1.26855 l 3.82946 -16.8611 c 0.155034 -0.682616 0.043037 -1.21633 -0.373325 -1.77904 z" style="fill:#f0ce76;stroke:#000000;stroke-width:0.3" /><path id="roundedregion-21" d="m -18.7656 46.1155 c -0.395918 0.577277 -0.365804 1.04847 0.100379 1.57066 l 13.6209 15.2571 c 0.466183 0.522181 0.965352 0.726643 1.6639 0.68154 l 15.4106 -0.995024 c 0.698545 -0.0451033 1.09824 -0.347162 1.33233 -1.00686 l 4.60992 -12.9917 c 0.234085 -0.6597 0.1212 -1.15348 -0.376285 -1.64593 l -17.972 -17.7902 c -0.497485 -0.492452 -1.00277 -0.634997 -1.68427 -0.47515 l -4.71676 1.10632 c -0.681505 0.159847 -1.14326 0.475757 -1.53918 1.05303 z" style="fill:#f0eaac;stroke:#000000;stroke-width:0.3" /><path id="roundedregion-22" d="m -9.29582 -21.543 c 0.213067 0.666785 0.603296 0.927058 1.30076 0.867575 l 19.579 -1.66978 c 0.697468 -0.059483 1.00514 -0.384848 1.02556 -1.08455 l 0.695083 -23.8097 c 0.0204265 -0.699702 -0.221639 -1.16416 -0.806885 -1.5482 l -12.1001 -7.94013 c -0.585246 -0.384041 -1.13577 -0.535372 -1.83509 -0.504439 l -7.3006 0.322931 c -0.699316 0.0309332 -1.16956 0.291007 -1.56747 0.866913 l -6.27902 9.0878 c -0.39791 0.575906 -0.477128 1.10849 -0.264062 1.77527 z" style="fill:#f0eaac;stroke:#000000;stroke-width:0.3" /><path id="roundedregion-23" d="m -28.2283 14.3918 c 0.417817 -0.56163 0.56126 -1.10021 0.478143 -1.79525 l -1.09104 -9.12352 c -0.0831173 -0.695048 -0.415009 -0.945764 -1.10631 -0.835722 l -25.0217 3.98302 c -0.691296 0.110043 -0.984285 0.457186 -0.97663 1.15714 l 0.228614 20.9029 c 0.00765542 0.699958 0.218479 1.21656 0.702744 1.72202 l 3.34032 3.4865 c 0.484265 0.505457 0.98848 0.766642 1.68071 0.870615 l 4.95928 0.744882 c 0.692235 0.103973 1.16797 -0.0921652 1.58579 -0.653796 z" style="fill:#f0eaac;stroke:#000000;stroke-width:0.3" /><path id="roundedregion-24" d="m 25.5965 8.77382 c -0.626672 0.3119 -0.76535 0.715992 -0.46226 1.34697 l 12.5826 26.1948 c 0.30309 0.630981 0.727553 0.958234 1.41488 1.09084 l 5.2739 1.01753 c 0.687324 0.132611 1.1912 -0.0254783 1.67957 -0.526963 l 11.5864 -11.8973 c 0.488378 -0.501485 0.685698 -1.01617 0.657734 -1.71561 l -0.904347 -22.6196 c -0.0279641 -0.699441 -0.280532 -1.17842 -0.841892 -1.5966 l -4.6029 -3.42888 c -0.56136 -0.41818 -1.07052 -0.463729 -1.69719 -0.151828 z" style="fill:#f0eaac;stroke:#000000;stroke-width:0.3" /><path id="roundedregion-25" d="m -63.3962 -0.455731 c -0.211201 0.667379 -0.0687355 1.1424 0.474884 1.58339 l 6.188 5.01984 c 0.54362 0.440996 1.07287 0.582834 1.76417 0.472791 l 25.0217 -3.98302 c 0.691296 -0.110043 1.11785 -0.427436 1.42185 -1.05798 l 1.91923 -3.98077 c 0.304001 -0.630542 0.235501 -1.12546 -0.228333 -1.64973 l -21.4602 -24.2563 c -0.463834 -0.524269 -0.918305 -0.592033 -1.5149 -0.225878 l -4.98164 3.05741 c -0.5966 0.366154 -0.9428 0.809097 -1.154 1.47648 z" style="fill:#f0eaac;stroke:#000000;stroke-width:0.3" /><path id="roundedregion-26" d="m -8.52064 29.4168 c 0.539116 0.446491 1.06224 0.569338 1.74374 0.409491 l 4.71676 -1.10632 c 0.681505 -0.159847 1.11563 -0.492592 1.44707 -1.10915 l 8.95528 -16.6587 c 0.331445 -0.616558 0.226468 -1.05103 -0.349923 -1.44824 l -23.6322 -16.2856 c -0.576391 -0.397207 -1.10032 -0.452015 -1.74644 -0.182695 l -7.86279 3.27744 c -0.646116 0.26932 -1.05331 0.654976 -1.35731 1.28552 l -1.91923 3.98077 c -0.304001 0.630542 -0.398665 1.19865 -0.315548 1.8937 l 1.09104 9.12352 c 0.0831173 0.695048 0.349789 1.18428 0.888905 1.63077 z" style="fill:#f0ce76;stroke:#000000;stroke-width:0.3" /><path id="roundedregion-27" d="m 17.7392 -17.4699 c -0.0115466 -0.699905 -0.254177 -1.18291 -0.808767 -1.61003 l -3.55788 -2.7401 c -0.55459 -0.427118 -1.09119 -0.584675 -1.78866 -0.525192 l -19.579 1.66978 c -0.697468 0.059483 -1.14382 0.346249 -1.48782 0.955887 l -6.48898 11.4995 c -0.344009 0.609638 -0.244416 1.04114 0.331975 1.43835 l 23.6322 16.2856 c 0.576391 0.397207 1.10509 0.464201 1.76234 0.223313 l 7.44367 -2.72818 c 0.657247 -0.240888 0.933975 -0.644084 0.922429 -1.34399 z" style="fill:#f0eaac;stroke:#000000;stroke-width:0.3" /><path id="roundedregion-28" d="m -17.3863 -6.96443 c 0.646116 -0.26932 1.07046 -0.646017 1.41446 -1.25565 l 6.48898 -11.4995 c 0.344009 -0.609638 0.400127 -1.15668 0.18706 -1.82346 l -7.55283 -23.6364 c -0.213067 -0.666785 -0.595535 -0.880238 -1.2749 -0.711509 l -26.549 6.59383 c -0.67936 0.168729 -1.0649 0.525806 -1.28515 1.19025 l -2.68526 8.10111 c -0.220244 0.664449 -0.115848 1.1739 0.347986 1.69817 l 21.4602 24.2563 c 0.463834 0.524269 0.939527 0.633533 1.58564 0.364213 z" style="fill:#f0eaac;stroke:#000000;stroke-width:0.3" /></g></g><g id="region" inkscape:label="Region" inkscape:groupmode="layer" style="display:none"><path id="region-0" d="m -4.37834 63.6893 17.4065 -1.12389 7.62818 13.2124 -8.3395 20.2222 -19.245 0 -10.7957 -14.5434 z" style="fill:#ffffff;stroke:#000000;stroke-width:0.3" /><path id="region-1" d="m 55.2973 55.7778 -9.90984 -17.1644 12.9817 -13.3301 22.1578 2.68579 6.07556 14.0309 -9.6225 16.6667 z" style="fill:#ffffff;stroke:#000000;stroke-width:0.3" /><path id="region-2" d="m 55.2438 -40.4967 6.02373 11.3917 18.9044 1.95563 6.43054 -14.8507 -6.9282 -12 -13.5229 -1.56149 z" style="fill:#ffffff;stroke:#000000;stroke-width:0.3" /><path id="region-3" d="m 17.7239 -81.4566 -18.1623 24.1801 -9.29865 0.411311 -10.9192 -18.9126 8.3395 -20.2222 19.245 0 z" style="fill:#ffffff;stroke:#000000;stroke-width:0.3" /><path id="region-4" d="m -80.527 -27.9691 -6.07556 -14.0309 9.6225 -16.6667 21.6827 2.88889 9.6543 16.7217 -3.31453 9.99953 -6.68621 4.10357 z" style="fill:#ffffff;stroke:#000000;stroke-width:0.3" /><path id="region-5" d="m -50.9823 34.6109 -4.72394 -4.93066 -24.4657 -2.53094 -6.43054 14.8507 6.9282 12 13.5229 1.56149 z" style="fill:#ffffff;stroke:#000000;stroke-width:0.3" /><path id="region-6" d="m 55.2973 55.7778 -9.90984 -17.1644 -7.23768 -1.39642 -19.8429 10.4718 -5.27873 14.8765 7.62818 13.2124 24.0563 1.66667 z" style="fill:#ffffff;stroke:#000000;stroke-width:0.3" /><path id="region-7" d="m 57.385 0.665246 0.984244 24.618 22.1578 2.68579 8.20611 -13.9691 -9.61904 -17.3375 z" style="fill:#ffffff;stroke:#000000;stroke-width:0.3" /><path id="region-8" d="m 49.7482 -10.4526 1.42996 6.49415 6.20678 4.62369 21.7291 -4.00272 5.94864 -10.6625 -4.89069 -13.1493 -18.9044 -1.95563 z" style="fill:#ffffff;stroke:#000000;stroke-width:0.3" /><path id="region-9" d="m 38.2895 -42.2819 16.9543 1.78521 10.9076 -15.0648 -9.9995 -13.6965 -17.0053 1.06156 -6.49909 18.2894 z" style="fill:#ffffff;stroke:#000000;stroke-width:0.3" /><path id="region-10" d="m 32.6475 -49.907 -19.3138 1.6679 -13.7722 -9.03739 18.1623 -24.1801 12.5048 1.09901 8.91793 12.1612 z" style="fill:#ffffff;stroke:#000000;stroke-width:0.3" /><path id="region-11" d="m -45.643 -39.056 -9.6543 -16.7217 10.5848 -21.6667 24.0563 1.66667 10.9192 18.9126 -7.41591 10.7332 z" style="fill:#ffffff;stroke:#000000;stroke-width:0.3" /><path id="region-12" d="m -80.527 -27.9691 24.8832 3.01615 -8.05418 25.4506 -15.4161 2.83981 -9.61904 -17.3375 z" style="fill:#ffffff;stroke:#000000;stroke-width:0.3" /><path id="region-13" d="m -79.114 3.33748 -5.94864 10.6625 4.89069 13.1493 24.4657 2.53094 -0.250487 -22.9028 -7.74119 -6.27983 z" style="fill:#ffffff;stroke:#000000;stroke-width:0.3" /><path id="region-14" d="m -32.1823 48.5977 -6.96435 19.5987 -17.0053 1.06156 -9.9995 -13.6965 15.1691 -20.9506 6.93709 1.04195 z" style="fill:#ffffff;stroke:#000000;stroke-width:0.3" /><path id="region-15" d="m -19.3312 46.9402 14.9529 16.749 -13.3455 17.7673 -12.5048 -1.09901 -8.91793 -12.1612 6.96435 -19.5987 z" style="fill:#ffffff;stroke:#000000;stroke-width:0.3" /><path id="region-16" d="m 49.7482 -10.4526 1.42996 6.49415 -26.477 13.1778 -6.56399 -2.56455 -0.414491 -25.1246 16.2944 -5.00066 z" style="fill:#ffffff;stroke:#000000;stroke-width:0.3" /><path id="region-17" d="m 38.2895 -42.2819 -4.27242 18.8114 15.7311 13.0178 11.5193 -18.6524 -6.02373 -11.3917 z" style="fill:#ffffff;stroke:#000000;stroke-width:0.3" /><path id="region-18" d="m -7.75047 30.0546 -11.5808 16.8856 -12.851 1.65746 -11.863 -12.9448 16.4138 -22.0634 z" style="fill:#ffffff;stroke:#000000;stroke-width:0.3" /><path id="region-19" d="m 24.7012 9.21939 13.4486 27.9976 -19.8429 10.4718 -19.3934 -19.1972 9.90227 -18.4203 9.32152 -3.41643 z" style="fill:#ffffff;stroke:#000000;stroke-width:0.3" /><path id="region-20" d="m 38.2895 -42.2819 -4.27242 18.8114 -16.2944 5.00066 -5.14243 -3.96044 0.753445 -25.8089 19.3138 -1.6679 z" style="fill:#ffffff;stroke:#000000;stroke-width:0.3" /><path id="region-21" d="m -7.75047 30.0546 6.66392 -1.56302 19.3934 19.1972 -5.27873 14.8765 -17.4065 1.12389 -14.9529 -16.749 z" style="fill:#ffffff;stroke:#000000;stroke-width:0.3" /><path id="region-22" d="m -8.99144 -20.5905 21.5717 -1.83973 0.753445 -25.8089 -13.7722 -9.03739 -9.29865 0.411311 -7.41591 10.7332 z" style="fill:#ffffff;stroke:#000000;stroke-width:0.3" /><path id="region-23" d="m -27.6314 13.5894 -1.32851 -11.1094 -26.9968 4.29743 0.250487 22.9028 4.72394 4.93066 6.93709 1.04195 z" style="fill:#ffffff;stroke:#000000;stroke-width:0.3" /><path id="region-24" d="m 24.7012 9.21939 13.4486 27.9976 7.23768 1.39642 12.9817 -13.3301 -0.984244 -24.618 -6.20678 -4.62369 z" style="fill:#ffffff;stroke:#000000;stroke-width:0.3" /><path id="region-25" d="m -55.6438 -24.9529 6.68621 -4.10357 22.7854 25.7543 -2.78781 5.78232 -26.9968 4.29743 -7.74119 -6.27983 z" style="fill:#ffffff;stroke:#000000;stroke-width:0.3" /><path id="region-26" d="m -7.75047 30.0546 6.66392 -1.56302 9.90227 -18.4203 -25.279 -17.4205 -9.70884 4.04693 -2.78781 5.78232 1.32851 11.1094 z" style="fill:#ffffff;stroke:#000000;stroke-width:0.3" /><path id="region-27" d="m 18.1372 6.65485 -9.32152 3.41643 -25.279 -17.4205 7.47186 -13.2413 21.5717 -1.83973 5.14243 3.96044 z" style="fill:#ffffff;stroke:#000000;stroke-width:0.3" /><path id="region-28" d="m -26.1721 -3.30225 -22.7854 -25.7543 3.31453 -9.99953 28.49 -7.07591 8.16159 25.5415 -7.47186 13.2413 z" style="fill:#ffffff;stroke:#000000;stroke-width:0.3" /></g><g id="seeds" inkscape:label="Seeds" inkscape:groupmode="layer" style="display:none"><circle id="seed-0" cx="0.0" cy="80.0" r="1.0" style="fill:#000000;stroke:none;stroke-width:0" /><circle id="seed-1" cx="69.28203230275508" cy="40.0" r="1.0" style="fill:#000000;stroke:none;stroke-width:0" /><circle id="seed-2" cx="69.28203230275508" cy="-40.0" r="1.0" style="fill:#000000;stroke:none;stroke-width:0" /><circle id="seed-3" cx="0.0" cy="-80.0" r="1.0" style="fill:#000000;stroke:none;stroke-width:0" /><circle id="seed-4" cx="-69.28203230275508" cy="-40.0" r="1.0" style="fill:#000000;stroke:none;stroke-width:0" /><circle id="seed-5" cx="-69.28203230275508" cy="40.0" r="1.0" style="fill:#000000;stroke:none;stroke-width:0" /><circle id="seed-6" cx="34.64101615137754" cy="60.0" r="1.0" style="fill:#000000;stroke:none;stroke-width:0" /><circle id="seed-7" cx="72.48203230275509" cy="13.599999999999998" r="1.0" style="fill:#000000;stroke:none;stroke-width:0" /><circle id="seed-8" cx="66.88203230275508" cy="-16.799999999999997" r="1.0" style="fill:#000000;stroke:none;stroke-width:0" /><circle id="seed-9" cx="50.390242934956106" cy="-53.67846096908266" r="1.0" style="fill:#000000;stroke:none;stroke-width:0" /><circle id="seed-10" cx="21.263070659909182" cy="-64.0287187078898" r="1.0" style="fill:#000000;stroke:none;stroke-width:0" /><circle id="seed-11" cx="-34.64101615137754" cy="-60.0" r="1.0" style="fill:#000000;stroke:none;stroke-width:0" /><circle id="seed-12" cx="-72.48203230275509" cy="-13.599999999999998" r="1.0" style="fill:#000000;stroke:none;stroke-width:0" /><circle id="seed-13" cx="-66.88203230275508" cy="16.799999999999997" r="1.0" style="fill:#000000;stroke:none;stroke-width:0" /><circle id="seed-14" cx="-50.390242934956106" cy="53.67846096908266" r="1.0" style="fill:#000000;stroke:none;stroke-width:0" /><circle id="seed-15" cx="-21.263070659909182" cy="64.0287187078898" r="1.0" style="fill:#000000;stroke:none;stroke-width:0" /><circle id="seed-16" cx="31.5330269553437" cy="-9.016432751004924" r="1.0" style="fill:#000000;stroke:none;stroke-width:0" /><circle id="seed-17" cx="47.751156843555684" cy="-28.61486519977559" r="1.0" style="fill:#000000;stroke:none;stroke-width:0" /><circle id="seed-18" cx="-25.53570367925884" cy="30.901123618317552" r="1.0" style="fill:#000000;stroke:none;stroke-width:0" /><circle id="seed-19" cx="17.36116268304403" cy="27.25664404205501" r="1.0" style="fill:#000000;stroke:none;stroke-width:0" /><circle id="seed-20" cx="23.852605402967715" cy="-34.04266222942942" r="1.0" style="fill:#000000;stroke:none;stroke-width:0" /><circle id="seed-21" cx="-2.1338928441633227" cy="46.95093918477287" r="1.0" style="fill:#000000;stroke:none;stroke-width:0" /><circle id="seed-22" cx="2.0046394786502684" cy="-34.680474653513144" r="1.0" style="fill:#000000;stroke:none;stroke-width:0" /><circle id="seed-23" cx="-44.81486197258926" cy="16.558651922105515" r="1.0" style="fill:#000000;stroke:none;stroke-width:0" /><circle id="seed-24" cx="43.368742918023045" cy="14.763966609029115" r="1.0" style="fill:#000000;stroke:none;stroke-width:0" /><circle id="seed-25" cx="-48.40259060420951" cy="-5.979745355953759" r="1.0" style="fill:#000000;stroke:none;stroke-width:0" /><circle id="seed-26" cx="-10.232398463322337" cy="12.423107202054368" r="1.0" style="fill:#000000;stroke:none;stroke-width:0" /><circle id="seed-27" cx="4.231787900454645" cy="-8.566033089502898" r="1.0" style="fill:#000000;stroke:none;stroke-width:0" /><circle id="seed-28" cx="-26.120441642920024" cy="-25.693303356924385" r="1.0" style="fill:#000000;stroke:none;stroke-width:0" /></g><g id="region_ids" inkscape:label="Region Ids" inkscape:groupmode="layer" style="display:none" transform="scale(1,-1)"><text id="text2299" x="-1.4" y="-80.0" style="font-style:normal;font-weight:normal;font-size:4px;font-family:sans-serif;fill:#000000;fill-opacity:1;stroke:none"><tspan x="-1.4" y="-80.0">0</tspan></text><text id="text2300" x="67.88203230275508" y="-40.0" style="font-style:normal;font-weight:normal;font-size:4px;font-family:sans-serif;fill:#000000;fill-opacity:1;stroke:none"><tspan x="67.88203230275508" y="-40.0">1</tspan></text><text id="text2301" x="67.88203230275508" y="40.0" style="font-style:normal;font-weight:normal;font-size:4px;font-family:sans-serif;fill:#000000;fill-opacity:1;stroke:none"><tspan x="67.88203230275508" y="40.0">2</tspan></text><text id="text2302" x="-1.4" y="80.0" style="font-style:normal;font-weight:normal;font-size:4px;font-family:sans-serif;fill:#000000;fill-opacity:1;stroke:none"><tspan x="-1.4" y="80.0">3</tspan></text><text id="text2303" x="-70.68203230275509" y="40.0" style="font-style:normal;font-weight:normal;font-size:4px;font-family:sans-serif;fill:#000000;fill-opacity:1;stroke:none"><tspan x="-70.68203230275509" y="40.0">4</tspan></text><text id="text2304" x="-70.68203230275509" y="-40.0" style="font-style:normal;font-weight:normal;font-size:4px;font-family:sans-serif;fill:#000000;fill-opacity:1;stroke:none"><tspan x="-70.68203230275509" y="-40.0">5</tspan></text><text id="text2305" x="33.24101615137754" y="-60.0" style="font-style:normal;font-weight:normal;font-size:4px;font-family:sans-serif;fill:#000000;fill-opacity:1;stroke:none"><tspan x="33.24101615137754" y="-60.0">6</tspan></text><text id="text2306" x="71.08203230275508" y="-13.599999999999998" style="font-style:normal;font-weight:normal;font-size:4px;font-family:sans-serif;fill:#000000;fill-opacity:1;stroke:none"><tspan x="71.08203230275508" y="-13.599999999999998">7</tspan></text><text id="text2307" x="65.48203230275507" y="16.799999999999997" style="font-style:normal;font-weight:normal;font-size:4px;font-family:sans-serif;fill:#000000;fill-opacity:1;stroke:none"><tspan x="65.48203230275507" y="16.799999999999997">8</tspan></text><text id="text2308" x="48.99024293495611" y="53.67846096908266" style="font-style:normal;font-weight:normal;font-size:4px;font-family:sans-serif;fill:#000000;fill-opacity:1;stroke:none"><tspan x="48.99024293495611" y="53.67846096908266">9</tspan></text><text id="text2309" x="19.863070659909184" y="64.0287187078898" style="font-style:normal;font-weight:normal;font-size:4px;font-family:sans-serif;fill:#000000;fill-opacity:1;stroke:none"><tspan x="19.863070659909184" y="64.0287187078898">10</tspan></text><text id="text2310" x="-36.04101615137754" y="60.0" style="font-style:normal;font-weight:normal;font-size:4px;font-family:sans-serif;fill:#000000;fill-opacity:1;stroke:none"><tspan x="-36.04101615137754" y="60.0">11</tspan></text><text id="text2311" x="-73.88203230275509" y="13.599999999999998" style="font-style:normal;font-weight:normal;font-size:4px;font-family:sans-serif;fill:#000000;fill-opacity:1;stroke:none"><tspan x="-73.88203230275509" y="13.599999999999998">12</tspan></text><text id="text2312" x="-68.28203230275508" y="-16.799999999999997" style="font-style:normal;font-weight:normal;font-size:4px;font-family:sans-serif;fill:#000000;fill-opacity:1;stroke:none"><tspan x="-68.28203230275508" y="-16.799999999999997">13</tspan></text><text id="text2313" x="-51.790242934956105" y="-53.67846096908266" style="font-style:normal;font-weight:normal;font-size:4px;font-family:sans-serif;fill:#000000;fill-opacity:1;stroke:none"><tspan x="-51.790242934956105" y="-53.67846096908266">14</tspan></text><text id="text2314" x="-22.66307065990918" y="-64.0287187078898" style="font-style:normal;font-weight:normal;font-size:4px;font-family:sans-serif;fill:#000000;fill-opacity:1;stroke:none"><tspan x="-22.66307065990918" y="-64.0287187078898">15</tspan></text><text id="text2315" x="30.133026955343702" y="9.016432751004924" style="font-style:normal;font-weight:normal;font-size:4px;font-family:sans-serif;fill:#000000;fill-opacity:1;stroke:none"><tspan x="30.133026955343702" y="9.016432751004924">16</tspan></text><text id="text2316" x="46.351156843555685" y="28.61486519977559" style="font-style:normal;font-weight:normal;font-size:4px;font-family:sans-serif;fill:#000000;fill-opacity:1;stroke:none"><tspan x="46.351156843555685" y="28.61486519977559">17</tspan></text><text id="text2317" x="-26.93570367925884" y="-30.901123618317552" style="font-style:normal;font-weight:normal;font-size:4px;font-family:sans-serif;fill:#000000;fill-opacity:1;stroke:none"><tspan x="-26.93570367925884" y="-30.901123618317552">18</tspan></text><text id="text2318" x="15.961162683044028" y="-27.25664404205501" style="font-style:normal;font-weight:normal;font-size:4px;font-family:sans-serif;fill:#000000;fill-opacity:1;stroke:none"><tspan x="15.961162683044028" y="-27.25664404205501">19</tspan></text><text id="text2319" x="22.452605402967716" y="34.04266222942942" style="font-style:normal;font-weight:normal;font-size:4px;font-family:sans-serif;fill:#000000;fill-opacity:1;stroke:none"><tspan x="22.452605402967716" y="34.04266222942942">20</tspan></text><text id="text2320" x="-3.5338928441633226" y="-46.95093918477287" style="font-style:normal;font-weight:normal;font-size:4px;font-family:sans-serif;fill:#000000;fill-opacity:1;stroke:none"><tspan x="-3.5338928441633226" y="-46.95093918477287">21</tspan></text><text id="text2321" x="0.6046394786502685" y="34.680474653513144" style="font-style:normal;font-weight:normal;font-size:4px;font-family:sans-serif;fill:#000000;fill-opacity:1;stroke:none"><tspan x="0.6046394786502685" y="34.680474653513144">22</tspan></text><text id="text2322" x="-46.21486197258926" y="-16.558651922105515" style="font-style:normal;font-weight:normal;font-size:4px;font-family:sans-serif;fill:#000000;fill-opacity:1;stroke:none"><tspan x="-46.21486197258926" y="-16.558651922105515">23</tspan></text><text id="text2323" x="41.96874291802305" y="-14.763966609029115" style="font-style:normal;font-weight:normal;font-size:4px;font-family:sans-serif;fill:#000000;fill-opacity:1;stroke:none"><tspan x="41.96874291802305" y="-14.763966609029115">24</tspan></text><text id="text2324" x="-49.802590604209506" y="5.979745355953759" style="font-style:normal;font-weight:normal;font-size:4px;font-family:sans-serif;fill:#000000;fill-opacity:1;stroke:none"><tspan x="-49.802590604209506" y="5.979745355953759">25</tspan></text><text id="text2325" x="-11.632398463322337" y="-12.423107202054368" style="font-style:normal;font-weight:normal;font-size:4px;font-family:sans-serif;fill:#000000;fill-opacity:1;stroke:none"><tspan x="-11.632398463322337" y="-12.423107202054368">26</tspan></text><text id="text2326" x="2.831787900454645" y="8.566033089502898" style="font-style:normal;font-weight:normal;font-size:4px;font-family:sans-serif;fill:#000000;fill-opacity:1;stroke:none"><tspan x="2.831787900454645" y="8.566033089502898">27</tspan></text><text id="text2327" x="-27.520441642920023" y="25.693303356924385" style="font-style:normal;font-weight:normal;font-size:4px;font-family:sans-serif;fill:#000000;fill-opacity:1;stroke:none"><tspan x="-27.520441642920023" y="25.693303356924385">28</tspan></text></g><g id="seed_exclusion" inkscape:label="Seed Exclusion" inkscape:groupmode="layer" style="display:none"><circle id="seed-ex-0" cx="0.0" cy="80.0" r="24.0" style="fill:#800000;stroke:none;stroke-width:0;fill-opacity:0.15" /><circle id="seed-ex-1" cx="69.28203230275508" cy="40.0" r="24.0" style="fill:#800000;stroke:none;stroke-width:0;fill-opacity:0.15" /><circle id="seed-ex-2" cx="69.28203230275508" cy="-40.0" r="19.2" style="fill:#800000;stroke:none;stroke-width:0;fill-opacity:0.15" /><circle id="seed-ex-3" cx="0.0" cy="-80.0" r="24.0" style="fill:#800000;stroke:none;stroke-width:0;fill-opacity:0.15" /><circle id="seed-ex-4" cx="-69.28203230275508" cy="-40.0" r="24.0" style="fill:#800000;stroke:none;stroke-width:0;fill-opacity:0.15" /><circle id="seed-ex-5" cx="-69.28203230275508" cy="40.0" r="19.2" style="fill:#800000;stroke:none;stroke-width:0;fill-opacity:0.15" /><circle id="seed-ex-6" cx="34.64101615137754" cy="60.0" r="24.0" style="fill:#800000;stroke:none;stroke-width:0;fill-opacity:0.15" /><circle id="seed-ex-7" cx="72.48203230275509" cy="13.599999999999998" r="22.37904958277186" style="fill:#800000;stroke:none;stroke-width:0;fill-opacity:0.15" /><circle id="seed-ex-8" cx="66.88203230275508" cy="-16.799999999999997" r="20.619712812921104" style="fill:#800000;stroke:none;stroke-width:0;fill-opacity:0.15" /><circle id="seed-ex-9" cx="50.390242934956106" cy="-53.67846096908266" r="20.564287187078897" style="fill:#800000;stroke:none;stroke-width:0;fill-opacity:0.15" /><circle id="seed-ex-10" cx="21.263070659909182" cy="-64.0287187078898" r="22.452950417228134" style="fill:#800000;stroke:none;stroke-width:0;fill-opacity:0.15" /><circle id="seed-ex-11" cx="-34.64101615137754" cy="-60.0" r="24.0" style="fill:#800000;stroke:none;stroke-width:0;fill-opacity:0.15" /><circle id="seed-ex-12" cx="-72.48203230275509" cy="-13.599999999999998" r="22.37904958277186" style="fill:#800000;stroke:none;stroke-width:0;fill-opacity:0.15" /><circle id="seed-ex-13" cx="-66.88203230275508" cy="16.799999999999997" r="20.619712812921104" style="fill:#800000;stroke:none;stroke-width:0;fill-opacity:0.15" /><circle id="seed-ex-14" cx="-50.390242934956106" cy="53.67846096908266" r="20.564287187078897" style="fill:#800000;stroke:none;stroke-width:0;fill-opacity:0.15" /><circle id="seed-ex-15" cx="-21.263070659909182" cy="64.0287187078898" r="22.452950417228134" style="fill:#800000;stroke:none;stroke-width:0;fill-opacity:0.15" /><circle id="seed-ex-16" cx="31.5330269553437" cy="-9.016432751004924" r="21.494902002919076" style="fill:#800000;stroke:none;stroke-width:0;fill-opacity:0.15" /><circle id="seed-ex-17" cx="47.751156843555684" cy="-28.61486519977559" r="20.21538297822122" style="fill:#800000;stroke:none;stroke-width:0;fill-opacity:0.15" /><circle id="seed-ex-18" cx="-25.53570367925884" cy="30.901123618317552" r="21.54371793304969" style="fill:#800000;stroke:none;stroke-width:0;fill-opacity:0.15" /><circle id="seed-ex-19" cx="17.36116268304403" cy="27.25664404205501" r="23.145602319811104" style="fill:#800000;stroke:none;stroke-width:0;fill-opacity:0.15" /><circle id="seed-ex-20" cx="23.852605402967715" cy="-34.04266222942942" r="21.703722429560855" style="fill:#800000;stroke:none;stroke-width:0;fill-opacity:0.15" /><circle id="seed-ex-21" cx="-2.1338928441633227" cy="46.95093918477287" r="23.21581842289551" style="fill:#800000;stroke:none;stroke-width:0;fill-opacity:0.15" /><circle id="seed-ex-22" cx="2.0046394786502684" cy="-34.680474653513144" r="22.977871578807573" style="fill:#800000;stroke:none;stroke-width:0;fill-opacity:0.15" /><circle id="seed-ex-23" cx="-44.81486197258926" cy="16.558651922105515" r="20.889003432202262" style="fill:#800000;stroke:none;stroke-width:0;fill-opacity:0.15" /><circle id="seed-ex-24" cx="43.368742918023045" cy="14.763966609029115" r="22.78505888857902" style="fill:#800000;stroke:none;stroke-width:0;fill-opacity:0.15" /><circle id="seed-ex-25" cx="-48.40259060420951" cy="-5.979745355953759" r="22.199879747060915" style="fill:#800000;stroke:none;stroke-width:0;fill-opacity:0.15" /><circle id="seed-ex-26" cx="-10.232398463322337" cy="12.423107202054368" r="22.057694343315625" style="fill:#800000;stroke:none;stroke-width:0;fill-opacity:0.15" /><circle id="seed-ex-27" cx="4.231787900454645" cy="-8.566033089502898" r="22.326998273441973" style="fill:#800000;stroke:none;stroke-width:0;fill-opacity:0.15" /><circle id="seed-ex-28" cx="-26.120441642920024" cy="-25.693303356924385" r="23.215478947416326" style="fill:#800000;stroke:none;stroke-width:0;fill-opacity:0.15" /></g><g id="margin_exclusion" inkscape:label="Margin Exclusion" inkscape:groupmode="layer" style="display:none"><circle id="circle2328" cx="17.32050807568877" cy="70.0" r="22.0" style="fill:#000080;stroke:none;stroke-width:0;fill-opacity:0.15" /><circle id="circle2329" cx="51.96152422706631" cy="50.0" r="22.0" style="fill:#000080;stroke:none;stroke-width:0;fill-opacity:0.15" /><circle id="circle2330" cx="69.28203230275508" cy="26.606060606060602" r="14.626277721963305" style="fill:#000080;stroke:none;stroke-width:0;fill-opacity:0.15" /><circle id="circle2331" cx="69.28203230275508" cy="-1.526315789473685" r="17.00131759599826" style="fill:#000080;stroke:none;stroke-width:0;fill-opacity:0.15" /><circle id="circle2332" cx="69.28203230275508" cy="-28.275862068965523" r="12.828094168659662" style="fill:#000080;stroke:none;stroke-width:0;fill-opacity:0.15" /><circle id="circle2333" cx="59.12863101700649" cy="-45.862068965517246" r="12.828094168659664" style="fill:#000080;stroke:none;stroke-width:0;fill-opacity:0.15" /><circle id="circle2334" cx="35.962844399259055" cy="-59.23684210526316" r="17.001317595998252" style="fill:#000080;stroke:none;stroke-width:0;fill-opacity:0.15" /><circle id="circle2335" cx="11.59949177190066" cy="-73.30303030303031" r="14.626277721963305" style="fill:#000080;stroke:none;stroke-width:0;fill-opacity:0.15" /><circle id="circle2336" cx="-17.32050807568877" cy="-70.0" r="22.0" style="fill:#000080;stroke:none;stroke-width:0;fill-opacity:0.15" /><circle id="circle2337" cx="-51.96152422706631" cy="-50.0" r="22.0" style="fill:#000080;stroke:none;stroke-width:0;fill-opacity:0.15" /><circle id="circle2338" cx="-69.28203230275508" cy="-26.606060606060602" r="14.626277721963305" style="fill:#000080;stroke:none;stroke-width:0;fill-opacity:0.15" /><circle id="circle2339" cx="-69.28203230275508" cy="1.526315789473685" r="17.00131759599826" style="fill:#000080;stroke:none;stroke-width:0;fill-opacity:0.15" /><circle id="circle2340" cx="-69.28203230275508" cy="28.275862068965523" r="12.828094168659662" style="fill:#000080;stroke:none;stroke-width:0;fill-opacity:0.15" /><circle id="circle2341" cx="-59.12863101700649" cy="45.862068965517246" r="12.828094168659664" style="fill:#000080;stroke:none;stroke-width:0;fill-opacity:0.15" /><circle id="circle2342" cx="-35.962844399259055" cy="59.23684210526316" r="17.001317595998252" style="fill:#000080;stroke:none;stroke-width:0;fill-opacity:0.15" /><circle id="circle2343" cx="-11.59949177190066" cy="73.30303030303031" r="14.626277721963305" style="fill:#000080;stroke:none;stroke-width:0;fill-opacity:0.15" /></g><g id="circles" inkscape:label="Inscribed Circles" inkscape:groupmode="layer" style="display:none"><circle id="incircle-0" cx="0.0" cy="80.0" r="13.296616110875734" style="fill:#008000;stroke:none;stroke-width:0;fill-opacity:0.15" /><circle id="incircle-ctr-0" cx="0.0" cy="80.0" r="0.5" style="fill:#000000;stroke:none;stroke-width:0" /><circle id="incircle-1" cx="69.28203230275508" cy="40.0" r="13.296616110875734" style="fill:#008000;stroke:none;stroke-width:0;fill-opacity:0.15" /><circle id="incircle-ctr-1" cx="69.28203230275508" cy="40.0" r="0.5" style="fill:#000000;stroke:none;stroke-width:0" /><circle id="incircle-2" cx="69.28203230275508" cy="-40.0" r="11.661903789690601" style="fill:#008000;stroke:none;stroke-width:0;fill-opacity:0.15" /><circle id="incircle-ctr-2" cx="69.28203230275508" cy="-40.0" r="0.5" style="fill:#000000;stroke:none;stroke-width:0" /><circle id="incircle-3" cx="0.0" cy="-80.0" r="13.296616110875734" style="fill:#008000;stroke:none;stroke-width:0;fill-opacity:0.15" /><circle id="incircle-ctr-3" cx="0.0" cy="-80.0" r="0.5" style="fill:#000000;stroke:none;stroke-width:0" /><circle id="incircle-4" cx="-69.28203230275508" cy="-40.0" r="13.296616110875734" style="fill:#008000;stroke:none;stroke-width:0;fill-opacity:0.15" /><circle id="incircle-ctr-4" cx="-69.28203230275508" cy="-40.0" r="0.5" style="fill:#000000;stroke:none;stroke-width:0" /><circle id="incircle-5" cx="-69.28203230275508" cy="40.0" r="11.661903789690601" style="fill:#008000;stroke:none;stroke-width:0;fill-opacity:0.15" /><circle id="incircle-ctr-5" cx="-69.28203230275508" cy="40.0" r="0.5" style="fill:#000000;stroke:none;stroke-width:0" /><circle id="incircle-6" cx="34.64101615137754" cy="60.0" r="18.511622668446496" style="fill:#008000;stroke:none;stroke-width:0;fill-opacity:0.15" /><circle id="incircle-ctr-6" cx="34.64101615137754" cy="60.0" r="0.5" style="fill:#000000;stroke:none;stroke-width:0" /><circle id="incircle-7" cx="69.28203230275508" cy="12.539872408293459" r="11.413179217728352" style="fill:#008000;stroke:none;stroke-width:0;fill-opacity:0.15" /><circle id="incircle-ctr-7" cx="69.28203230275508" cy="12.539872408293459" r="0.5" style="fill:#000000;stroke:none;stroke-width:0" /><circle id="incircle-8" cx="69.28203230275508" cy="-14.9010889292196" r="13.153463290938609" style="fill:#008000;stroke:none;stroke-width:0;fill-opacity:0.15" /><circle id="incircle-ctr-8" cx="69.28203230275508" cy="-14.9010889292196" r="0.5" style="fill:#000000;stroke:none;stroke-width:0" /><circle id="incircle-9" cx="47.545737708132776" cy="-52.5494555353902" r="11.180411992713465" style="fill:#008000;stroke:none;stroke-width:0;fill-opacity:0.15" /><circle id="incircle-ctr-9" cx="47.545737708132776" cy="-52.5494555353902" r="0.5" style="fill:#000000;stroke:none;stroke-width:0" /><circle id="incircle-10" cx="23.78116808557986" cy="-66.26993620414673" r="13.833437634388083" style="fill:#008000;stroke:none;stroke-width:0;fill-opacity:0.15" /><circle id="incircle-ctr-10" cx="23.78116808557986" cy="-66.26993620414673" r="0.5" style="fill:#000000;stroke:none;stroke-width:0" /><circle id="incircle-11" cx="-34.64101615137754" cy="-60.0" r="17.674484607154696" style="fill:#008000;stroke:none;stroke-width:0;fill-opacity:0.15" /><circle id="incircle-ctr-11" cx="-34.64101615137754" cy="-60.0" r="0.5" style="fill:#000000;stroke:none;stroke-width:0" /><circle id="incircle-12" cx="-69.28203230275508" cy="-12.539872408293459" r="9.25748978062145" style="fill:#008000;stroke:none;stroke-width:0;fill-opacity:0.15" /><circle id="incircle-ctr-12" cx="-69.28203230275508" cy="-12.539872408293459" r="0.5" style="fill:#000000;stroke:none;stroke-width:0" /><circle id="incircle-13" cx="-69.28203230275508" cy="14.9010889292196" r="13.153463290938609" style="fill:#008000;stroke:none;stroke-width:0;fill-opacity:0.15" /><circle id="incircle-ctr-13" cx="-69.28203230275508" cy="14.9010889292196" r="0.5" style="fill:#000000;stroke:none;stroke-width:0" /><circle id="incircle-14" cx="-47.545737708132776" cy="52.5494555353902" r="13.15346329093861" style="fill:#008000;stroke:none;stroke-width:0;fill-opacity:0.15" /><circle id="incircle-ctr-14" cx="-47.545737708132776" cy="52.5494555353902" r="0.5" style="fill:#000000;stroke:none;stroke-width:0" /><circle id="incircle-15" cx="-23.78116808557986" cy="66.26993620414673" r="13.83343763438808" style="fill:#008000;stroke:none;stroke-width:0;fill-opacity:0.15" /><circle id="incircle-ctr-15" cx="-23.78116808557986" cy="66.26993620414673" r="0.5" style="fill:#000000;stroke:none;stroke-width:0" /><circle id="incircle-16" cx="30.937240590752452" cy="-8.674981676258113" r="13.051139411471677" style="fill:#008000;stroke:none;stroke-width:0;fill-opacity:0.15" /><circle id="incircle-ctr-16" cx="30.937240590752452" cy="-8.674981676258113" r="0.5" style="fill:#000000;stroke:none;stroke-width:0" /><circle id="incircle-17" cx="47.582306076216916" cy="-29.499985757669194" r="11.73850466083865" style="fill:#008000;stroke:none;stroke-width:0;fill-opacity:0.15" /><circle id="incircle-ctr-17" cx="47.582306076216916" cy="-29.499985757669194" r="0.5" style="fill:#000000;stroke:none;stroke-width:0" /><circle id="incircle-18" cx="-25.321888466484126" cy="32.5753206193601" r="13.065137089675229" style="fill:#008000;stroke:none;stroke-width:0;fill-opacity:0.15" /><circle id="incircle-ctr-18" cx="-25.321888466484126" cy="32.5753206193601" r="0.5" style="fill:#000000;stroke:none;stroke-width:0" /><circle id="incircle-19" cx="16.969678462093697" cy="25.9780072173292" r="14.225454794567247" style="fill:#008000;stroke:none;stroke-width:0;fill-opacity:0.15" /><circle id="incircle-ctr-19" cx="16.969678462093697" cy="25.9780072173292" r="0.5" style="fill:#000000;stroke:none;stroke-width:0" /><circle id="incircle-20" cx="24.87900752105214" cy="-37.160790441519225" r="11.863612513799321" style="fill:#008000;stroke:none;stroke-width:0;fill-opacity:0.15" /><circle id="incircle-ctr-20" cx="24.87900752105214" cy="-37.160790441519225" r="0.5" style="fill:#000000;stroke:none;stroke-width:0" /><circle id="incircle-21" cx="0.8572663243016372" cy="49.648549941714926" r="13.256404050031936" style="fill:#008000;stroke:none;stroke-width:0;fill-opacity:0.15" /><circle id="incircle-ctr-21" cx="0.8572663243016372" cy="49.648549941714926" r="0.5" style="fill:#000000;stroke:none;stroke-width:0" /><circle id="incircle-22" cx="-0.5038002146690737" cy="-40.23316668330972" r="13.598040311016995" style="fill:#008000;stroke:none;stroke-width:0;fill-opacity:0.15" /><circle id="incircle-ctr-22" cx="-0.5038002146690737" cy="-40.23316668330972" r="0.5" style="fill:#000000;stroke:none;stroke-width:0" /><circle id="incircle-23" cx="-44.19507562927731" cy="16.296080281158005" r="11.249207600878423" style="fill:#008000;stroke:none;stroke-width:0;fill-opacity:0.15" /><circle id="incircle-ctr-23" cx="-44.19507562927731" cy="16.296080281158005" r="0.5" style="fill:#000000;stroke:none;stroke-width:0" /><circle id="incircle-24" cx="43.76079523503576" cy="15.79678264526867" r="14.217794347919131" style="fill:#008000;stroke:none;stroke-width:0;fill-opacity:0.15" /><circle id="incircle-ctr-24" cx="43.76079523503576" cy="15.79678264526867" r="0.5" style="fill:#000000;stroke:none;stroke-width:0" /><circle id="incircle-25" cx="-47.422759807346914" cy="-7.51819566436541" r="12.77637026134533" style="fill:#008000;stroke:none;stroke-width:0;fill-opacity:0.15" /><circle id="incircle-ctr-25" cx="-47.422759807346914" cy="-7.51819566436541" r="0.5" style="fill:#000000;stroke:none;stroke-width:0" /><circle id="incircle-26" cx="-7.727210795198054" cy="13.64519479218171" r="12.329909810543791" style="fill:#008000;stroke:none;stroke-width:0;fill-opacity:0.15" /><circle id="incircle-ctr-26" cx="-7.727210795198054" cy="13.64519479218171" r="0.5" style="fill:#000000;stroke:none;stroke-width:0" /><circle id="incircle-27" cx="4.934728872603031" cy="-8.613216160470902" r="12.948853381402765" style="fill:#008000;stroke:none;stroke-width:0;fill-opacity:0.15" /><circle id="incircle-ctr-27" cx="4.934728872603031" cy="-8.613216160470902" r="0.5" style="fill:#000000;stroke:none;stroke-width:0" /><circle id="incircle-28" cx="-27.396669341467693" cy="-27.732656844132848" r="15.270947992485848" style="fill:#008000;stroke:none;stroke-width:0;fill-opacity:0.15" /><circle id="incircle-ctr-28" cx="-27.396669341467693" cy="-27.732656844132848" r="0.5" style="fill:#000000;stroke:none;stroke-width:0" /></g><g id="annotations" inkscape:label="Annotations" inkscape:groupmode="layer" transform="scale(1,-1)"><text id="text2344" x="-92" y="84.5" style="font-style:normal;font-weight:normal;font-size:4px;font-family:sans-serif;fill:#000000;fill-opacity:1;stroke:none"><tspan x="-92" y="84.5">id: 500</tspan></text><ns0:text xml:space="preserve" style="font-style:normal;font-weight:normal;font-size:4.23333px;line-height:1.25;font-family:sans-serif;text-align:center;text-anchor:middle;fill:#000000;fill-opacity:1;stroke:none;stroke-width:0.264583" x="-1.7974526e-07" y="0" id="tile-id" transform="translate(0 -72)"><ns0:tspan ns1:role="line" id="tspan439" style="font-style:normal;font-variant:normal;font-weight:bold;font-stretch:normal;font-size:4.23333px;font-family:'Arial Black';-inkscape-font-specification:'Arial Black,  Bold';text-align:center;text-anchor:middle;fill:#808080;fill-opacity:1;stroke-width:0.264583" x="-1.4621764e-07" y="0">500</ns0:tspan></ns0:text>
  <text id="text2345" x="-92" y="90.0" style="font-style:normal;font-weight:normal;font-size:4px;font-family:sans-serif;fill:#000000;fill-opacity:1;stroke:none"><tspan x="-92" y="90.0">size: 80</tspan></text><text id="text2346" x="-92" y="95.5" style="font-style:normal;font-weight:normal;font-size:4px;font-family:sans-serif;fill:#000000;fill-opacity:1;stroke:none"><tspan x="-92" y="95.5">rng seed 160</tspan></text><text id="text2347" x="-92" y="101.0" style="font-style:normal;font-weight:normal;font-size:4px;font-family:sans-serif;fill:#000000;fill-opacity:1;stroke:none"><tspan x="-92" y="101.0">pattern 112112 / llmllm</tspan></text><text id="text2348" x="-92" y="106.5" style="font-style:normal;font-weight:normal;font-size:4px;font-family:sans-serif;fill:#000000;fill-opacity:1;stroke:none"><tspan x="-92" y="106.5">seed attempts: 20</tspan></text><text id="text2349" x="-92" y="112.0" style="font-style:normal;font-weight:normal;font-size:4px;font-family:sans-serif;fill:#000000;fill-opacity:1;stroke:none"><tspan x="-92" y="112.0">seed distance: l 0.3; m 0.24; h 0.2</tspan></text><text id="text2350" x="-92" y="117.5" style="font-style:normal;font-weight:normal;font-size:4px;font-family:sans-serif;fill:#000000;fill-opacity:1;stroke:none"><tspan x="-92" y="117.5">center: (AVG) 0.28</tspan></text><text id="text2351" x="-92" y="123.0" style="font-style:normal;font-weight:normal;font-size:4px;font-family:sans-serif;fill:#000000;fill-opacity:1;stroke:none"><tspan x="-92" y="123.0">min ridge length: 0.08; at edge: 0.04</tspan></text><text id="text2352" x="-92" y="128.5" style="font-style:normal;font-weight:normal;font-size:4px;font-family:sans-serif;fill:#000000;fill-opacity:1;stroke:none"><tspan x="-92" y="128.5">edge margin exclusion zone scale: 1.1</tspan></text><text id="text2353" x="-92" y="134.0" style="font-style:normal;font-weight:normal;font-size:4px;font-family:sans-serif;fill:#000000;fill-opacity:1;stroke:none"><tspan x="-92" y="134.0">iterations: 8</tspan></text><text id="text2354" x="-92" y="139.5" style="font-style:normal;font-weight:normal;font-size:4px;font-family:sans-serif;fill:#000000;fill-opacity:1;stroke:none"><tspan x="-92" y="139.5">adjustments: side 0.011, neighbor -0.009</tspan></text><text id="text2355" x="-92" y="145.0" style="font-style:normal;font-weight:normal;font-size:4px;font-family:sans-serif;fill:#000000;fill-opacity:1;stroke:none"><tspan x="-92" y="145.0">closeness: 0.9, adjust -0.013</tspan></text><text id="text2356" x="-1.5" y="-82" style="font-style:normal;font-weight:normal;font-size:4px;font-family:sans-serif;fill:#000000;fill-opacity:1;stroke:none"><tspan x="-1.5" y="-82">L</tspan></text><text id="text2357" x="-1.5" y="-82" style="font-style:normal;font-weight:normal;font-size:4px;font-family:sans-serif;fill:#000000;fill-opacity:1;stroke:none" transform="rotate(60)"><tspan x="-1.5" y="-82">L</tspan></text><text id="text2358" x="-1.5" y="-82" style="font-style:normal;font-weight:normal;font-size:4px;font-family:sans-serif;fill:#000000;fill-opacity:1;stroke:none" transform="rotate(120)"><tspan x="-1.5" y="-82">M</tspan></text><text id="text2359" x="-1.5" y="-82" style="font-style:normal;font-weight:normal;font-size:4px;font-family:sans-serif;fill:#000000;fill-opacity:1;stroke:none" transform="rotate(180)"><tspan x="-1.5" y="-82">L</tspan></text><text id="text2360" x="-1.5" y="-82" style="font-style:normal;font-weight:normal;font-size:4px;font-family:sans-serif;fill:#000000;fill-opacity:1;stroke:none" transform="rotate(240)"><tspan x="-1.5" y="-82">L</tspan></text><text id="text2361" x="-1.5" y="-82" style="font-style:normal;font-weight:normal;font-size:4px;font-family:sans-serif;fill:#000000;fill-opacity:1;stroke:none" transform="rotate(300)"><tspan x="-1.5" y="-82">M</tspan></text><g id="node2362" transform="rotate(30)"><text id="text2363" x="-1.5" y="-72.28203230275508" style="font-style:normal;font-weight:normal;font-size:4px;font-family:sans-serif;fill:#000000;fill-opacity:1;stroke:none"><tspan x="-1.5" y="-72.28203230275508">L</tspan></text></g><g id="node2364" transform="rotate(90)"><text id="text2365" x="-15.099999999999998" y="-72.28203230275508" style="font-style:normal;font-weight:normal;font-size:4px;font-family:sans-serif;fill:#000000;fill-opacity:1;stroke:none"><tspan x="-15.099999999999998" y="-72.28203230275508">L</tspan></text><text id="text2366" x="15.299999999999997" y="-72.28203230275508" style="font-style:normal;font-weight:normal;font-size:4px;font-family:sans-serif;fill:#000000;fill-opacity:1;stroke:none"><tspan x="15.299999999999997" y="-72.28203230275508">L</tspan></text></g><g id="node2367" transform="rotate(150)"><text id="text2368" x="-18.299999999999997" y="-72.28203230275508" style="font-style:normal;font-weight:normal;font-size:4px;font-family:sans-serif;fill:#000000;fill-opacity:1;stroke:none"><tspan x="-18.299999999999997" y="-72.28203230275508">L</tspan></text><text id="text2369" x="12.099999999999994" y="-72.28203230275508" style="font-style:normal;font-weight:normal;font-size:4px;font-family:sans-serif;fill:#000000;fill-opacity:1;stroke:none"><tspan x="12.099999999999994" y="-72.28203230275508">L</tspan></text></g><g id="node2370" transform="rotate(210)"><text id="text2371" x="-1.5" y="-72.28203230275508" style="font-style:normal;font-weight:normal;font-size:4px;font-family:sans-serif;fill:#000000;fill-opacity:1;stroke:none"><tspan x="-1.5" y="-72.28203230275508">L</tspan></text></g><g id="node2372" transform="rotate(270)"><text id="text2373" x="-15.099999999999998" y="-72.28203230275508" style="font-style:normal;font-weight:normal;font-size:4px;font-family:sans-serif;fill:#000000;fill-opacity:1;stroke:none"><tspan x="-15.099999999999998" y="-72.28203230275508">L</tspan></text><text id="text2374" x="15.299999999999997" y="-72.28203230275508" style="font-style:normal;font-weight:normal;font-size:4px;font-family:sans-serif;fill:#000000;fill-opacity:1;stroke:none"><tspan x="15.299999999999997" y="-72.28203230275508">L</tspan></text></g><g id="node2375" transform="rotate(330)"><text id="text2376" x="-18.299999999999997" y="-72.28203230275508" style="font-style:normal;font-weight:normal;font-size:4px;font-family:sans-serif;fill:#000000;fill-opacity:1;stroke:none"><tspan x="-18.299999999999997" y="-72.28203230275508">L</tspan></text><text id="text2377" x="12.099999999999994" y="-72.28203230275508" style="font-style:normal;font-weight:normal;font-size:4px;font-family:sans-serif;fill:#000000;fill-opacity:1;stroke:none"><tspan x="12.099999999999994" y="-72.28203230275508">L</tspan></text></g><g id="node2378" transform="rotate(90)"><rect id="rect2379" x="0.10000000000000142" y="-77.28203230275508" width="3" height="8" style="fill:#a2c6ff;stroke:#000000;stroke-width:0.3" /><text id="text2380" x="0.10000000000000142" y="-79.28203230275508" style="font-style:normal;font-weight:normal;font-size:4px;font-family:sans-serif;fill:#000000;fill-opacity:1;stroke:none"><tspan x="0.10000000000000142" y="-79.28203230275508">R</tspan></text></g><g id="node2381" transform="rotate(150)"><rect id="rect2382" x="-3.1000000000000014" y="-77.28203230275508" width="3" height="8" style="fill:#a2c6ff;stroke:#000000;stroke-width:0.3" /><text id="text2383" x="-3.1000000000000014" y="-79.28203230275508" style="font-style:normal;font-weight:normal;font-size:4px;font-family:sans-serif;fill:#000000;fill-opacity:1;stroke:none"><tspan x="-3.1000000000000014" y="-79.28203230275508">R</tspan></text></g><g id="node2384" transform="rotate(270)"><rect id="rect2385" x="0.10000000000000142" y="-77.28203230275508" width="3" height="8" style="fill:#a2c6ff;stroke:#000000;stroke-width:0.3" /><text id="text2386" x="0.10000000000000142" y="-79.28203230275508" style="font-style:normal;font-weight:normal;font-size:4px;font-family:sans-serif;fill:#000000;fill-opacity:1;stroke:none"><tspan x="0.10000000000000142" y="-79.28203230275508">R</tspan></text></g><g id="node2387" transform="rotate(330)"><rect id="rect2388" x="-3.1000000000000014" y="-77.28203230275508" width="3" height="8" style="fill:#a2c6ff;stroke:#000000;stroke-width:0.3" /><text id="text2389" x="-3.1000000000000014" y="-79.28203230275508" style="font-style:normal;font-weight:normal;font-size:4px;font-family:sans-serif;fill:#000000;fill-opacity:1;stroke:none"><tspan x="-3.1000000000000014" y="-79.28203230275508">R</tspan></text></g><circle id="mana" cx="50" cy="110" r="7.5" style="fill:#000000;stroke:none;stroke-width:0" /><rect id="rect2390" x="75" y="90" width="15" height="6" style="fill:#be850a;stroke:#000000;stroke-width:0.3" /><text id="text2391" x="70" y="94.5" style="font-style:normal;font-weight:normal;font-size:4px;font-family:sans-serif;fill:#000000;fill-opacity:1;stroke:none"><tspan x="70" y="94.5">V</tspan></text><rect id="rect2392" x="75" y="100" width="15" height="6" style="fill:#e7a311;stroke:#000000;stroke-width:0.3" /><text id="text2393" x="70" y="104.5" style="font-style:normal;font-weight:normal;font-size:4px;font-family:sans-serif;fill:#000000;fill-opacity:1;stroke:none"><tspan x="70" y="104.5">H</tspan></text><rect id="rect2394" x="75" y="110" width="15" height="6" style="fill:#f0ce76;stroke:#000000;stroke-width:0.3" /><text id="text2395" x="70" y="114.5" style="font-style:normal;font-weight:normal;font-size:4px;font-family:sans-serif;fill:#000000;fill-opacity:1;stroke:none"><tspan x="70" y="114.5">M</tspan></text><rect id="rect2396" x="75" y="120" width="15" height="6" style="fill:#f0eaac;stroke:#000000;stroke-width:0.3" /><text id="text2397" x="70" y="124.5" style="font-style:normal;font-weight:normal;font-size:4px;font-family:sans-serif;fill:#000000;fill-opacity:1;stroke:none"><tspan x="70" y="124.5">L</tspan></text><rect id="rect2398" x="75" y="130" width="15" height="6" style="fill:#a2c6ff;stroke:#000000;stroke-width:0.3" /><text id="text2399" x="70" y="134.5" style="font-style:normal;font-weight:normal;font-size:4px;font-family:sans-serif;fill:#000000;fill-opacity:1;stroke:none"><tspan x="70" y="134.5">R</tspan></text></g><g id="river-border" inkscape:label="River Border" inkscape:groupmode="layer"><path id="path2400" d="m -55.7063 29.6803 4.72394 4.93066 z" style="fill:none;stroke:#000000;stroke-width:2.6;stroke-linecap:round;stroke-linejoin:round" /><path id="path2401" d="m 79.114 -3.33748 -21.7291 4.00272 z" style="fill:none;stroke:#000000;stroke-width:2.6;stroke-linecap:round;stroke-linejoin:round" /><path id="path2402" d="m -63.6979 0.497667 -15.4161 2.83981 z" style="fill:none;stroke:#000000;stroke-width:2.6;stroke-linecap:round;stroke-linejoin:round" /><path id="path2403" d="m -55.9567 6.7775 -7.74119 -6.27983 z" style="fill:none;stroke:#000000;stroke-width:2.6;stroke-linecap:round;stroke-linejoin:round" /><path id="path2404" d="m -55.9567 6.7775 0.250487 22.9028 z" style="fill:none;stroke:#000000;stroke-width:2.6;stroke-linecap:round;stroke-linejoin:round" /><path id="path2405" d="m 57.385 0.665246 -6.20678 -4.62369 z" style="fill:none;stroke:#000000;stroke-width:2.6;stroke-linecap:round;stroke-linejoin:round" /><path id="path2406" d="m -44.0452 35.6529 11.863 12.9448 z" style="fill:none;stroke:#000000;stroke-width:2.6;stroke-linecap:round;stroke-linejoin:round" /><path id="path2407" d="m -50.9823 34.6109 6.93709 1.04195 z" style="fill:none;stroke:#000000;stroke-width:2.6;stroke-linecap:round;stroke-linejoin:round" /><path id="path2408" d="m -39.1466 68.1964 6.96435 -19.5987 z" style="fill:none;stroke:#000000;stroke-width:2.6;stroke-linecap:round;stroke-linejoin:round" /><path id="path2409" d="m 51.1782 -3.95844 -1.42996 -6.49415 z" style="fill:none;stroke:#000000;stroke-width:2.6;stroke-linecap:round;stroke-linejoin:round" /><path id="path2410" d="m 34.0171 -23.4704 15.7311 13.0178 z" style="fill:none;stroke:#000000;stroke-width:2.6;stroke-linecap:round;stroke-linejoin:round" /><path id="path2411" d="m 39.1466 -68.1964 -6.49909 18.2894 z" style="fill:none;stroke:#000000;stroke-width:2.6;stroke-linecap:round;stroke-linejoin:round" /><path id="path2412" d="m 32.6475 -49.907 5.64202 7.62514 z" style="fill:none;stroke:#000000;stroke-width:2.6;stroke-linecap:round;stroke-linejoin:round" /><path id="path2413" d="m 34.0171 -23.4704 4.27242 -18.8114 z" style="fill:none;stroke:#000000;stroke-width:2.6;stroke-linecap:round;stroke-linejoin:round" /></g><g id="river" inkscape:label="River" inkscape:groupmode="layer"><path id="path2400" d="m -55.7063 29.6803 4.72394 4.93066 z" style="fill:none;stroke:#a2c6ff;stroke-width:2.0;stroke-linecap:round;stroke-linejoin:round" /><path id="path2401" d="m 79.114 -3.33748 -21.7291 4.00272 z" style="fill:none;stroke:#a2c6ff;stroke-width:2.0;stroke-linecap:round;stroke-linejoin:round" /><path id="path2402" d="m -63.6979 0.497667 -15.4161 2.83981 z" style="fill:none;stroke:#a2c6ff;stroke-width:2.0;stroke-linecap:round;stroke-linejoin:round" /><path id="path2403" d="m -55.9567 6.7775 -7.74119 -6.27983 z" style="fill:none;stroke:#a2c6ff;stroke-width:2.0;stroke-linecap:round;stroke-linejoin:round" /><path id="path2404" d="m -55.9567 6.7775 0.250487 22.9028 z" style="fill:none;stroke:#a2c6ff;stroke-width:2.0;stroke-linecap:round;stroke-linejoin:round" /><path id="path2405" d="m 57.385 0.665246 -6.20678 -4.62369 z" style="fill:none;stroke:#a2c6ff;stroke-width:2.0;stroke-linecap:round;stroke-linejoin:round" /><path id="path2406" d="m -44.0452 35.6529 11.863 12.9448 z" style="fill:none;stroke:#a2c6ff;stroke-width:2.0;stroke-linecap:round;stroke-linejoin:round" /><path id="path2407" d="m -50.9823 34.6109 6.93709 1.04195 z" style="fill:none;stroke:#a2c6ff;stroke-width:2.0;stroke-linecap:round;stroke-linejoin:round" /><path id="path2408" d="m -39.1466 68.1964 6.96435 -19.5987 z" style="fill:none;stroke:#a2c6ff;stroke-width:2.0;stroke-linecap:round;stroke-linejoin:round" /><path id="path2409" d="m 51.1782 -3.95844 -1.42996 -6.49415 z" style="fill:none;stroke:#a2c6ff;stroke-width:2.0;stroke-linecap:round;stroke-linejoin:round" /><path id="path2410" d="m 34.0171 -23.4704 15.7311 13.0178 z" style="fill:none;stroke:#a2c6ff;stroke-width:2.0;stroke-linecap:round;stroke-linejoin:round" /><path id="path2411" d="m 39.1466 -68.1964 -6.49909 18.2894 z" style="fill:none;stroke:#a2c6ff;stroke-width:2.0;stroke-linecap:round;stroke-linejoin:round" /><path id="path2412" d="m 32.6475 -49.907 5.64202 7.62514 z" style="fill:none;stroke:#a2c6ff;stroke-width:2.0;stroke-linecap:round;stroke-linejoin:round" /><path id="path2413" d="m 34.0171 -23.4704 4.27242 -18.8114 z" style="fill:none;stroke:#a2c6ff;stroke-width:2.0;stroke-linecap:round;stroke-linejoin:round" /></g><g id="overlay" inkscape:label="Overlay" inkscape:groupmode="layer" transform="scale(1,-1)"><ns0:path ns1:nodetypes="ccccc" ns2:connector-curvature="0" id="obj-bridge" d="m -1.3629478,2.973799 c 0.6829002,-2.17565439 0.68923869,-3.60295062 0.015075,-5.9083917 l 2.8035417,0.00714 C 0.73648446,-0.63363961 0.73738591,0.81474035 1.4406036,2.9809656 Z" style="display:inline;fill:#000000;fill-opacity:1;stroke:none;stroke-width:2.14313;stroke-linecap:round;stroke-miterlimit:4;stroke-dasharray:2.14313, 4.28625;stroke-dashoffset:0;stroke-opacity:1" transform="translate(55.12538761038906 1.018016695485441) rotate(-36.68393269659316)" />
  <ns0:path ns1:nodetypes="ccccc" ns2:connector-curvature="0" id="obj-bridge" d="m -1.3629478,2.973799 c 0.6829002,-2.17565439 0.68923869,-3.60295062 0.015075,-5.9083917 l 2.8035417,0.00714 C 0.73648446,-0.63363961 0.73738591,0.81474035 1.4406036,2.9809656 Z" style="display:inline;fill:#000000;fill-opacity:1;stroke:none;stroke-width:2.14313;stroke-linecap:round;stroke-miterlimit:4;stroke-dasharray:2.14313, 4.28625;stroke-dashoffset:0;stroke-opacity:1" transform="translate(-57.64231145348229 -5.4101273220231185) rotate(140.95025854985022)" />
  <ns0:path ns1:nodetypes="cccccccccccccccc" style="display:inline;fill:#5ba22d;fill-opacity:1;fill-rule:evenodd;stroke:#000000;stroke-width:0.225018px;stroke-linecap:butt;stroke-linejoin:miter;stroke-opacity:1" d="m -0.03929664,-3.4250467 -1.21990906,1.785649 0.63078516,0.083817 -0.84435416,1.6018086 0.68675246,-0.0203464 -0.94321836,2.1362987 1.41248336,-0.326599 -0.0770308,0.6564974 h 0.8646239 L 0.39222286,1.8758406 1.8078469,2.0800142 0.70780196,0.0885405 1.4946226,0.1491327 0.54903346,-1.6560267 1.1778369,-1.6381673 Z" id="obj-tree" ns2:connector-curvature="0" transform="translate(-10.232398463322337 -12.423107202054368)" />
  <ns0:path ns1:nodetypes="cccccccccccccccc" style="display:inline;fill:#5ba22d;fill-opacity:1;fill-rule:evenodd;stroke:#000000;stroke-width:0.225018px;stroke-linecap:butt;stroke-linejoin:miter;stroke-opacity:1" d="m -0.03929664,-3.4250467 -1.21990906,1.785649 0.63078516,0.083817 -0.84435416,1.6018086 0.68675246,-0.0203464 -0.94321836,2.1362987 1.41248336,-0.326599 -0.0770308,0.6564974 h 0.8646239 L 0.39222286,1.8758406 1.8078469,2.0800142 0.70780196,0.0885405 1.4946226,0.1491327 0.54903346,-1.6560267 1.1778369,-1.6381673 Z" id="obj-tree" ns2:connector-curvature="0" transform="translate(-2.1338928441633227 -46.95093918477287)" />
  <ns0:path ns1:nodetypes="cccccccccccccccc" style="display:inline;fill:#5ba22d;fill-opacity:1;fill-rule:evenodd;stroke:#000000;stroke-width:0.225018px;stroke-linecap:butt;stroke-linejoin:miter;stroke-opacity:1" d="m -0.03929664,-3.4250467 -1.21990906,1.785649 0.63078516,0.083817 -0.84435416,1.6018086 0.68675246,-0.0203464 -0.94321836,2.1362987 1.41248336,-0.326599 -0.0770308,0.6564974 h 0.8646239 L 0.39222286,1.8758406 1.8078469,2.0800142 0.70780196,0.0885405 1.4946226,0.1491327 0.54903346,-1.6560267 1.1778369,-1.6381673 Z" id="obj-tree" ns2:connector-curvature="0" transform="translate(19.263070659909182 60.028718707889794)" />
  <ns0:path ns1:nodetypes="cccccccccccccccc" style="display:inline;fill:#5ba22d;fill-opacity:1;fill-rule:evenodd;stroke:#000000;stroke-width:0.225018px;stroke-linecap:butt;stroke-linejoin:miter;stroke-opacity:1" d="m -0.03929664,-3.4250467 -1.21990906,1.785649 0.63078516,0.083817 -0.84435416,1.6018086 0.68675246,-0.0203464 -0.94321836,2.1362987 1.41248336,-0.326599 -0.0770308,0.6564974 h 0.8646239 L 0.39222286,1.8758406 1.8078469,2.0800142 0.70780196,0.0885405 1.4946226,0.1491327 0.54903346,-1.6560267 1.1778369,-1.6381673 Z" id="obj-tree" ns2:connector-curvature="0" transform="translate(23.852605402967715 34.04266222942942)" />
  <ns0:path ns1:nodetypes="cccccccccccccccc" style="display:inline;fill:#5ba22d;fill-opacity:1;fill-rule:evenodd;stroke:#000000;stroke-width:0.225018px;stroke-linecap:butt;stroke-linejoin:miter;stroke-opacity:1" d="m -0.03929664,-3.4250467 -1.21990906,1.785649 0.63078516,0.083817 -0.84435416,1.6018086 0.68675246,-0.0203464 -0.94321836,2.1362987 1.41248336,-0.326599 -0.0770308,0.6564974 h 0.8646239 L 0.39222286,1.8758406 1.8078469,2.0800142 0.70780196,0.0885405 1.4946226,0.1491327 0.54903346,-1.6560267 1.1778369,-1.6381673 Z" id="obj-tree" ns2:connector-curvature="0" transform="translate(47.751156843555684 28.61486519977559)" />
  <ns0:path ns1:nodetypes="cccccccccccccccc" style="display:inline;fill:#5ba22d;fill-opacity:1;fill-rule:evenodd;stroke:#000000;stroke-width:0.225018px;stroke-linecap:butt;stroke-linejoin:miter;stroke-opacity:1" d="m -0.03929664,-3.4250467 -1.21990906,1.785649 0.63078516,0.083817 -0.84435416,1.6018086 0.68675246,-0.0203464 -0.94321836,2.1362987 1.41248336,-0.326599 -0.0770308,0.6564974 h 0.8646239 L 0.39222286,1.8758406 1.8078469,2.0800142 0.70780196,0.0885405 1.4946226,0.1491327 0.54903346,-1.6560267 1.1778369,-1.6381673 Z" id="obj-tree" ns2:connector-curvature="0" transform="translate(-63.282032302755084 -37.0)" />
  </g><g id="border" inkscape:label="Border" inkscape:groupmode="layer"><path id="path2414" d="m 0 80 69.282 -40 0 -80 -69.282 -40 -69.282 40 0 80 z" style="fill:none;stroke:#000000;stroke-width:0.3" /></g></g></svg>