<?xml version='1.0' encoding='UTF-8'?>
<svg xmlns:ns0="http://www.w3.org/2000/svg" xmlns:ns1="http://sodipodi.sourceforge.net/DTD/sodipodi-0.dtd" xmlns:ns2="http://www.inkscape.org/namespaces/inkscape" version="1.1" id="svg_root" xmlns="http://www.w3.org/2000/svg" xmlns:sodipodi="http://sodipodi.sourceforge.net/DTD/sodipodi-0.dtd" xmlns:inkscape="http://www.inkscape.org/namespaces/inkscape" xmlns:xlink="http://www.w3.org/1999/xlink" width="215.9mm" height="279.4mm" viewBox="0 0 215.9 279.4"><defs><clipPath id="clippath-1264"><path id="path1263" d="m 0 80 69.282 -40 0 -80 -69.282 -40 -69.282 40 0 80 z" /></clipPath><clipPath id="clippath-1266"><path id="path1265" d="m 0 80 69.282 -40 0 -80 -69.282 -40 -69.282 40 0 80 z" /></clipPath></defs><g id="layer" inkscape:label="Layer" inkscape:groupmode="layer" transform="translate(107.95 120) scale(1, -1)"><g id="background" inkscape:label="Tile Background" inkscape:groupmode="layer"><path id="path1190" d="m 0 80 69.282 -40 0 -80 -69.282 -40 -69.282 40 0 80 z" style="fill:#000000;stroke:none;stroke-width:0" /></g><g id="region-clip" inkscape:label="Region Clipped" inkscape:groupmode="layer" style="display:none"><g id="clip"><path id="clipregion-0" d="m 15.3876 66.6521 -20.4705 -2.02473 -6.51656 8.67571 11.5995 6.69697 17.3205 -10 z" style="fill:#f0eaac;stroke:#000000;stroke-width:0.3" /><path id="clipregion-1" d="m 61.8072 20 -9.42765 6.54606 -5.07489 15.388 4.65688 8.06595 17.3205 -10 0 -20 z" style="fill:#f0eaac;stroke:#000000;stroke-width:0.3" /><path id="clipregion-2" d="m 50.206 -36.7432 15.8084 16.7432 3.26769 -3.55271e-15 0 -20 -11.5995 -6.69697 z" style="fill:#f0eaac;stroke:#000000;stroke-width:0.3" /><path id="clipregion-3" d="m -7.40656 -67.9955 10.7593 3.25018 6.80063 -9.39258 -10.1534 -5.86207 -10.1534 5.86207 z" style="fill:#f0ce76;stroke:#000000;stroke-width:0.3" /><path id="clipregion-4" d="m -60.2635 -25.5129 5.51906 -3.74649 1.88687 -6.11943 -4.82498 -11.3181 -11.5995 6.69697 0 13.3939 z" style="fill:#f0eaac;stroke:#000000;stroke-width:0.3" /><path id="clipregion-5" d="m -51.5361 35.3758 -3.74211 -5.65127 -14.0038 -1.44867 0 11.7241 10.1534 5.86207 z" style="fill:#f0ce76;stroke:#000000;stroke-width:0.3" /><path id="clipregion-6" d="m 47.3046 41.9341 -25.4466 2.99761 -6.47048 21.7204 1.93294 3.34794 34.641 -20 z" style="fill:#f0eaac;stroke:#000000;stroke-width:0.3" /><path id="clipregion-7" d="m 66.0143 -20 -10.7917 14.1324 6.58454 25.8676 7.47484 0 0 -40 z" style="fill:#f0eaac;stroke:#000000;stroke-width:0.3" /><path id="clipregion-8" d="m 31.5022 -55.6499 8.19852 18.3111 10.5053 0.595572 7.47655 -9.95377 -24.3634 -14.0662 z" style="fill:#f0eaac;stroke:#000000;stroke-width:0.3" /><path id="clipregion-9" d="m 3.35278 -64.7454 4.86968 10.4958 23.2798 -1.40039 1.81698 -5.11324 -23.1658 -13.3748 z" style="fill:#f0eaac;stroke:#000000;stroke-width:0.3" /><path id="clipregion-10" d="m -26.3967 -52.64 18.9901 -15.3555 -2.74684 -6.1424 -23.1658 13.3748 z" style="fill:#f0eaac;stroke:#000000;stroke-width:0.3" /><path id="clipregion-11" d="m -52.8576 -35.3788 27.0721 -10.755 -0.611167 -6.5062 -6.92253 -8.12317 -24.3634 14.0662 z" style="fill:#f0eaac;stroke:#000000;stroke-width:0.3" /><path id="clipregion-12" d="m -62.3566 0.250579 2.0931 -25.7635 -9.01853 -1.09316 0 28.1324 z" style="fill:#f0eaac;stroke:#000000;stroke-width:0.3" /><path id="clipregion-13" d="m -55.2782 29.7245 3.54284 -23.2486 -10.6212 -6.2254 -6.92543 1.27574 0 26.7495 z" style="fill:#f0eaac;stroke:#000000;stroke-width:0.3" /><path id="clipregion-14" d="m -33.3225 51.8066 -9.13129 -13.654 -9.08231 -2.77675 -7.5925 10.4863 23.1658 13.3748 z" style="fill:#f0eaac;stroke:#000000;stroke-width:0.3" /><path id="clipregion-15" d="m -5.08293 64.6273 -8.67273 -15.5539 -19.5669 2.73314 -2.64032 7.43027 24.3634 14.0662 z" style="fill:#f0eaac;stroke:#000000;stroke-width:0.3" /><path id="clipregion-16" d="m -60.2635 -25.5129 -2.0931 25.7635 10.6212 6.2254 18.0616 -5.41223 7.00519 -9.54099 -28.0758 -20.7821 z" style="fill:#f0eaac;stroke:#000000;stroke-width:0.3" /><path id="clipregion-17" d="m 3.35278 -64.7454 -10.7593 -3.25018 -18.9901 15.3555 0.611167 6.5062 12.3104 14.8022 15.2297 -5.33631 6.46792 -17.5817 z" style="fill:#f0eaac;stroke:#000000;stroke-width:0.3" /><path id="clipregion-18" d="m 18.4289 19.8643 -1.12248 19.6083 4.55163 5.45902 25.4466 -2.99761 5.07489 -15.388 -20.3555 -14.2316 z" style="fill:#f0eaac;stroke:#000000;stroke-width:0.3" /><path id="clipregion-19" d="m 32.024 12.3145 20.3555 14.2316 9.42765 -6.54606 -6.58454 -25.8676 -22.8119 -0.171902 z" style="fill:#f0eaac;stroke:#000000;stroke-width:0.3" /><path id="clipregion-20" d="m -5.08293 64.6273 20.4705 2.02473 6.47048 -21.7204 -4.55163 -5.45902 -25.1305 -2.42815 -5.93158 12.0289 z" style="fill:#f0eaac;stroke:#000000;stroke-width:0.3" /><path id="clipregion-21" d="m -54.7444 -29.2594 28.0758 20.7821 7.23853 -3.41033 5.95496 -19.444 -12.3104 -14.8022 -27.0721 10.755 z" style="fill:#f0eaac;stroke:#000000;stroke-width:0.3" /><path id="clipregion-22" d="m -13.7557 49.0734 5.93158 -12.0289 -3.11026 -8.66571 -15.5229 -5.59215 -15.9966 15.3659 9.13129 13.654 z" style="fill:#f0eaac;stroke:#000000;stroke-width:0.3" /><path id="clipregion-23" d="m 8.22246 -54.2495 -6.46792 17.5817 23.5711 13.6704 14.375 -14.3413 -8.19852 -18.3111 z" style="fill:#f0eaac;stroke:#000000;stroke-width:0.3" /><path id="clipregion-24" d="m 25.4767 -14.1299 -26.0135 15.7138 1.45296 6.82741 17.5128 11.453 13.5951 -7.54983 0.3867 -18.3539 z" style="fill:#f0ce76;stroke:#000000;stroke-width:0.3" /><path id="clipregion-25" d="m -55.2782 29.7245 3.74211 5.65127 9.08231 2.77675 15.9966 -15.3659 -7.21657 -21.7229 -18.0616 5.41223 z" style="fill:#f0eaac;stroke:#000000;stroke-width:0.3" /><path id="clipregion-26" d="m 32.4107 -6.03946 22.8119 0.171902 10.7917 -14.1324 -15.8084 -16.7432 -10.5053 -0.595572 -14.375 14.3413 0.151004 8.86756 z" style="fill:#f0eaac;stroke:#000000;stroke-width:0.3" /><path id="clipregion-27" d="m 25.4767 -14.1299 -0.151004 -8.86756 -23.5711 -13.6704 -15.2297 5.33631 -5.95496 19.444 18.8932 13.4715 z" style="fill:#f0eaac;stroke:#000000;stroke-width:0.3" /><path id="clipregion-28" d="m -33.6738 1.06375 7.21657 21.7229 15.5229 5.59215 11.8504 -19.9675 -1.45296 -6.82741 -18.8932 -13.4715 -7.23853 3.41033 z" style="fill:#f0eaac;stroke:#000000;stroke-width:0.3" /><path id="clipregion-29" d="m 0.916111 8.41132 -11.8504 19.9675 3.11026 8.66571 25.1305 2.42815 1.12248 -19.6083 z" style="fill:#f0ce76;stroke:#000000;stroke-width:0.3" /></g></g><g id="region-rounded-fill" inkscape:label="Region Rounded Fill" inkscape:groupmode="layer"><path id="roundedregionfill-0" d="m 16.1376 67.9511 c -0.5 -0.866025 -1.24757 -1.34825 -2.24272 -1.44668 l -17.4851 -1.72944 c -0.995144 -0.0984295 -1.793 0.252139 -2.39358 1.05171 l -5.6157 7.47636 11.5995 6.69697 17.3205 -10 z" style="fill:#f0eaac;stroke:none;stroke-width:0" /><path id="roundedregionfill-1" d="m 63.3072 20 c -1 0 -1.9107 0.285171 -2.73211 0.855513 l -6.96343 4.83504 c -0.821407 0.570342 -1.38871 1.33036 -1.70191 2.28004 l -4.13528 12.5389 c -0.313202 0.949686 -0.219804 1.85754 0.280196 2.72357 l 3.90688 6.76691 17.3205 -10 0 -20 z" style="fill:#f0eaac;stroke:none;stroke-width:0" /><path id="roundedregionfill-2" d="m 51.1069 -37.9425 c -0.600577 0.799567 -0.557607 1.56291 0.128909 2.29002 l 13.7488 14.5619 c 0.686517 0.727114 1.52977 1.09067 2.52977 1.09067 l 1.76769 -3.55271e-15 0 -20 -11.5995 -6.69697 z" style="fill:#f0eaac;stroke:none;stroke-width:0" /><path id="roundedregionfill-3" d="m -8.01891 -69.3648 c 0.408233 0.912878 1.09099 1.5139 2.04826 1.80308 l 7.88751 2.38266 c 0.957277 0.289174 1.72914 0.0287713 2.3156 -0.781207 l 5.92094 -8.17761 -10.1534 -5.86207 -10.1534 5.86207 z" style="fill:#f0ce76;stroke:none;stroke-width:0" /><path id="roundedregionfill-4" d="m -61.7526 -25.6934 c 0.992734 0.120331 1.90279 -0.100326 2.73017 -0.661972 l 3.03693 -2.06155 c 0.827378 -0.561646 1.38839 -1.32027 1.68304 -2.27588 l 1.00292 -3.25262 c 0.294652 -0.955605 0.2459 -1.89336 -0.146257 -2.81325 l -4.23674 -9.9383 -11.5995 6.69697 0 13.3939 z" style="fill:#f0eaac;stroke:none;stroke-width:0" /><path id="roundedregionfill-5" d="m -52.4158 36.5908 c 0.586459 -0.809979 0.603638 -1.63186 0.0515355 -2.46563 l -2.0858 -3.14994 c -0.552102 -0.833776 -1.3255 -1.30211 -2.32019 -1.40501 l -12.5118 -1.29432 0 11.7241 10.1534 5.86207 z" style="fill:#f0ce76;stroke:none;stroke-width:0" /><path id="roundedregionfill-6" d="m 48.0546 43.2331 c -0.5 -0.866025 -1.24657 -1.24054 -2.2397 -1.12355 l -22.4672 2.64664 c -0.993133 0.116991 -1.63245 0.654676 -1.91795 1.61305 l -5.61398 18.8453 c -0.2855 0.958379 -0.17825 1.87058 0.32175 2.73661 l 1.18294 2.0489 34.641 -20 z" style="fill:#f0eaac;stroke:none;stroke-width:0" /><path id="roundedregionfill-7" d="m 67.5143 -20 c -1 0 -1.80345 0.397389 -2.41035 1.19217 l -8.97099 11.7481 c -0.606901 0.794777 -0.787011 1.67671 -0.540329 2.64581 l 5.84449 22.9603 c 0.246682 0.969097 0.870023 1.45364 1.87002 1.45364 l 5.97484 0 0 -40 z" style="fill:#f0eaac;stroke:none;stroke-width:0" /><path id="roundedregionfill-8" d="m 32.0045 -57.0633 c -0.334835 0.942277 -0.297931 1.86976 0.110713 2.78246 l 6.97259 15.5731 c 0.408644 0.912694 1.11216 1.39734 2.11056 1.45394 l 7.51007 0.425766 c 0.998397 0.0566018 1.79788 -0.314881 2.39846 -1.11445 l 6.57569 -8.75442 -24.3634 -14.0662 z" style="fill:#f0eaac;stroke:none;stroke-width:0" /><path id="roundedregionfill-9" d="m 4.23246 -65.9603 c -0.586459 0.809979 -0.669253 1.66853 -0.248383 2.57565 l 3.60707 7.77447 c 0.420871 0.907121 1.1304 1.33066 2.1286 1.27061 l 20.2852 -1.22025 c 0.998196 -0.0600464 1.66471 -0.561208 1.99955 -1.50348 l 1.31472 -3.69983 -23.1658 -13.3748 z" style="fill:#f0eaac;stroke:none;stroke-width:0" /><path id="roundedregionfill-10" d="m -27.3696 -53.7817 c 0.648618 0.761114 1.36172 0.827287 2.13932 0.198519 l 16.6573 -13.4692 c 0.777593 -0.628768 0.962273 -1.39959 0.554041 -2.31247 l -2.13449 -4.77308 -23.1658 13.3748 z" style="fill:#f0eaac;stroke:none;stroke-width:0" /><path id="roundedregionfill-11" d="m -53.4458 -36.7587 c 0.392157 0.919898 1.05291 1.19525 1.98226 0.826042 l 24.284 -9.64736 c 0.929348 -0.369204 1.34726 -1.05161 1.25374 -2.04723 l -0.330594 -3.51934 c -0.0935244 -0.995617 -0.464596 -1.87398 -1.11321 -2.6351 l -5.9496 -6.9815 -24.3634 14.0662 z" style="fill:#f0eaac;stroke:none;stroke-width:0" /><path id="roundedregionfill-12" d="m -63.8318 0.522322 c 0.983453 -0.181162 1.51567 -0.770102 1.59664 -1.76682 l 1.85018 -22.7733 c 0.0809763 -0.996716 -0.374902 -1.55524 -1.36764 -1.67557 l -7.52943 -0.912659 0 28.1324 z" style="fill:#f0eaac;stroke:none;stroke-width:0" /><path id="roundedregionfill-13" d="m -56.7703 29.5702 c 0.994692 0.102899 1.56736 -0.339945 1.71801 -1.32853 l 3.09089 -20.2828 c 0.150651 -0.988587 -0.205388 -1.73572 -1.06812 -2.24138 l -8.03303 -4.70839 c -0.862727 -0.505669 -1.78582 -0.667922 -2.76927 -0.48676 l -5.45025 1.00399 0 26.7495 z" style="fill:#f0eaac;stroke:none;stroke-width:0" /><path id="roundedregionfill-14" d="m -33.8248 53.22 c 0.334835 -0.942277 0.2243 -1.82904 -0.331605 -2.66028 l -7.46358 -11.1603 c -0.555906 -0.831245 -1.31201 -1.39305 -2.26832 -1.68543 l -6.2134 -1.89963 c -0.956305 -0.292372 -1.72769 -0.033569 -2.31415 0.77641 l -6.71281 9.2713 23.1658 13.3748 z" style="fill:#f0eaac;stroke:none;stroke-width:0" /><path id="roundedregionfill-15" d="m -5.98379 65.8267 c 0.600577 -0.799567 0.657364 -1.63605 0.170362 -2.50945 l -7.21173 -12.9337 c -0.487002 -0.873401 -1.2257 -1.24093 -2.21608 -1.10259 l -16.5957 2.31812 c -0.990385 0.138339 -1.653 0.678647 -1.98783 1.62092 l -2.13807 6.01685 24.3634 14.0662 z" style="fill:#f0eaac;stroke:none;stroke-width:0" /><path id="roundedregionfill-16" d="m -59.0224 -26.3554 c -0.827378 0.561646 -1.28155 1.34083 -1.36253 2.33754 l -1.85018 22.7733 c -0.0809763 0.996716 0.309899 1.74791 1.17263 2.25358 l 8.03303 4.70839 c 0.862727 0.505669 1.77305 0.614982 2.73097 0.327938 l 15.1878 -4.5511 c 0.957917 -0.287044 1.73279 -0.833598 2.32462 -1.63966 l 5.2297 -7.1228 c 0.591828 -0.806064 0.485863 -1.50657 -0.317897 -2.10153 l -25.6646 -18.9973 c -0.803759 -0.594954 -1.61933 -0.611609 -2.44671 -0.0499626 z" style="fill:#f0eaac;stroke:none;stroke-width:0" /><path id="roundedregionfill-17" d="m 3.98408 -63.3847 c -0.420871 -0.907121 -1.10994 -1.50527 -2.06722 -1.79444 l -7.88751 -2.38266 c -0.957277 -0.289174 -1.82471 -0.119377 -2.6023 0.509391 l -16.6573 13.4692 c -0.777593 0.628768 -1.11963 1.44096 -1.0261 2.43658 l 0.330594 3.51934 c 0.0935244 0.995617 0.459998 1.87785 1.09942 2.64671 l 10.3921 12.4957 c 0.639423 0.768855 1.43101 0.987944 2.37475 0.657266 l 12.3984 -4.34427 c 0.943744 -0.330678 1.58824 -0.96527 1.9335 -1.90378 l 5.43215 -14.7661 c 0.345257 -0.938508 0.30745 -1.86132 -0.113421 -2.76844 z" style="fill:#f0eaac;stroke:none;stroke-width:0" /><path id="roundedregionfill-18" d="m 19.7403 19.1361 c -0.87424 0.485494 -1.33994 1.22742 -1.39709 2.22579 l -0.951027 16.6132 c -0.0571516 0.998366 0.234466 1.88157 0.874854 2.64963 l 2.63047 3.15487 c 0.640388 0.768052 1.45715 1.09358 2.45028 0.976591 l 22.4672 -2.64664 c 0.993133 -0.116991 1.6463 -0.65033 1.9595 -1.60002 l 4.13528 -12.5389 c 0.313202 -0.949686 0.0600245 -1.71103 -0.759534 -2.28402 l -17.8968 -12.5126 c -0.819558 -0.572996 -1.66646 -0.616747 -2.5407 -0.131253 z" style="fill:#f0eaac;stroke:none;stroke-width:0" /><path id="roundedregionfill-19" d="m 32.0556 10.8148 c -0.0210644 0.999778 0.378183 1.78617 1.19774 2.35916 l 17.8968 12.5126 c 0.819558 0.572996 1.64004 0.574323 2.46145 0.00398063 l 6.96343 -4.83504 c 0.821407 -0.570342 1.10877 -1.34006 0.862088 -2.30916 l -5.84449 -22.9603 c -0.246682 -0.969097 -0.870008 -1.45741 -1.86998 -1.46495 l -19.812 -0.149296 c -0.999972 -0.00753542 -1.51049 0.488586 -1.53155 1.48836 z" style="fill:#f0eaac;stroke:none;stroke-width:0" /><path id="roundedregionfill-20" d="m -5.81343 63.3172 c 0.487002 0.873401 1.22807 1.35932 2.22322 1.45775 l 17.4851 1.72944 c 0.995144 0.0984295 1.63547 -0.331545 1.92097 -1.28992 l 5.61398 -18.8453 c 0.2855 -0.958379 0.108056 -1.82159 -0.532332 -2.58965 l -2.63047 -3.15487 c -0.640388 -0.768052 -1.45826 -1.20016 -2.45363 -1.29634 l -22.1444 -2.13963 c -0.995365 -0.0961738 -1.71418 0.304182 -2.15644 1.20107 l -4.6048 9.33829 c -0.442263 0.896886 -0.419893 1.78203 0.0671091 2.65543 z" style="fill:#f0eaac;stroke:none;stroke-width:0" /><path id="roundedregionfill-21" d="m -54.3025 -30.6928 c -0.294652 0.955605 -0.0400986 1.73088 0.763661 2.32584 l 25.6646 18.9973 c 0.803759 0.594954 1.65795 0.67933 2.56258 0.253128 l 4.52465 -2.13172 c 0.904628 -0.426203 1.50336 -1.11739 1.7962 -2.07355 l 5.07645 -16.5755 c 0.292837 -0.956163 0.119543 -1.81867 -0.51988 -2.58753 l -10.3921 -12.4957 c -0.639423 -0.768855 -1.42381 -0.968681 -2.35316 -0.599477 l -24.284 9.64736 c -0.929348 0.369204 -1.54135 1.03161 -1.836 1.98721 z" style="fill:#f0eaac;stroke:none;stroke-width:0" /><path id="roundedregionfill-22" d="m -15.2412 49.2809 c 0.990385 -0.138339 1.70671 -0.655951 2.14897 -1.55284 l 4.6048 -9.33829 c 0.442263 -0.896886 0.494486 -1.81593 0.15667 -2.75715 l -2.09681 -5.84207 c -0.337816 -0.941212 -0.97713 -1.58128 -1.91794 -1.92021 l -12.7004 -4.57536 c -0.940812 -0.338929 -1.77181 -0.16202 -2.49299 0.530727 l -13.8331 13.2877 c -0.72118 0.692747 -0.803818 1.45474 -0.247912 2.28599 l 7.46358 11.1603 c 0.555906 0.831245 1.32905 1.1777 2.31944 1.03936 z" style="fill:#f0eaac;stroke:none;stroke-width:0" /><path id="roundedregionfill-23" d="m 9.71975 -54.3396 c -0.998196 0.0600464 -1.66992 0.559324 -2.01518 1.49783 l -5.43215 14.7661 c -0.345257 0.938508 -0.0853628 1.65861 0.779683 2.1603 l 20.976 12.1653 c 0.865045 0.501693 1.65154 0.399403 2.35948 -0.306872 l 12.2512 -12.2225 c 0.707938 -0.706275 0.857585 -1.51576 0.448941 -2.42845 l -6.97259 -15.5731 c -0.408644 -0.912694 -1.11206 -1.33902 -2.11026 -1.27897 z" style="fill:#f0eaac;stroke:none;stroke-width:0" /><path id="roundedregionfill-24" d="m 26.4528 -12.991 c -0.650757 -0.759286 -1.40411 -0.880403 -2.26007 -0.363352 l -23.4457 14.1627 c -0.855954 0.517051 -1.17986 1.26463 -0.971705 2.24272 l 0.828504 3.89312 c 0.208151 0.978097 0.730686 1.74081 1.5676 2.28814 l 15.002 9.81101 c 0.836919 0.547327 1.6925 0.578244 2.56674 0.0927496 l 10.9724 -6.09335 c 0.87424 -0.485494 1.32189 -1.22813 1.34296 -2.22791 l 0.323507 -15.3546 c 0.0210644 -0.999778 -0.293782 -1.87931 -0.944539 -2.6386 z" style="fill:#f0ce76;stroke:none;stroke-width:0" /><path id="roundedregionfill-25" d="m -55.0523 28.2417 c -0.150651 0.988587 0.0500751 1.89977 0.602177 2.73355 l 2.0858 3.14994 c 0.552102 0.833776 1.30631 1.39685 2.26261 1.68922 l 6.2134 1.89963 c 0.956305 0.292372 1.79505 0.0921847 2.51623 -0.600563 l 13.8331 -13.2877 c 0.72118 -0.692747 0.924136 -1.51362 0.608868 -2.46262 l -6.27077 -18.8759 c -0.315269 -0.949002 -0.951862 -1.27998 -1.90978 -0.992938 l -15.1878 4.5511 c -0.957917 0.287044 -1.5122 0.924859 -1.66285 1.91345 z" style="fill:#f0eaac;stroke:none;stroke-width:0" /><path id="roundedregionfill-26" d="m 31.4346 -7.17838 c 0.650757 0.759286 1.47612 1.1427 2.47609 1.15023 l 19.812 0.149296 c 0.999972 0.00753542 1.80341 -0.386086 2.41031 -1.18086 l 8.97099 -11.7481 c 0.606901 -0.794777 0.567093 -1.55572 -0.119423 -2.28284 l -13.7488 -14.5619 c -0.686517 -0.727114 -1.52897 -1.11897 -2.52737 -1.17557 l -7.51007 -0.425766 c -0.998397 -0.0566018 -1.85156 0.268235 -2.5595 0.974509 l -12.2512 12.2225 c -0.707938 0.706275 -1.05339 1.55934 -1.03637 2.55919 l 0.0999252 5.86799 c 0.0170264 0.999855 0.350918 1.87943 1.00167 2.63871 z" style="fill:#f0eaac;stroke:none;stroke-width:0" /><path id="roundedregionfill-27" d="m 24.1928 -13.3544 c 0.855954 -0.517051 1.27542 -1.2755 1.25839 -2.27536 l -0.0999252 -5.86799 c -0.0170264 -0.999855 -0.458062 -1.75063 -1.32311 -2.25232 l -20.976 -12.1653 c -0.865045 -0.501693 -1.76944 -0.587201 -2.71318 -0.256524 l -12.3984 4.34427 c -0.943744 0.330678 -1.56203 0.974098 -1.85487 1.93026 l -5.07645 16.5755 c -0.292837 0.956163 -0.032147 1.72453 0.782069 2.30509 l 16.4506 11.7298 c 0.814216 0.580563 1.6493 0.612318 2.50525 0.0952667 z" style="fill:#f0eaac;stroke:none;stroke-width:0" /><path id="roundedregionfill-28" d="m -32.786 -0.14535 c -0.591828 0.806064 -0.730108 1.6836 -0.414839 2.6326 l 6.27077 18.8759 c 0.315269 0.949002 0.943309 1.59297 1.88412 1.9319 l 12.7004 4.57536 c 0.940812 0.338929 1.6664 0.0784171 2.17678 -0.781537 l 10.3193 -17.3876 c 0.510372 -0.859954 0.661483 -1.77898 0.453332 -2.75708 l -0.828504 -3.89312 c -0.208151 -0.978097 -0.719334 -1.75743 -1.53355 -2.33799 l -16.4506 -11.7298 c -0.814216 -0.580563 -1.67364 -0.657743 -2.57827 -0.23154 l -4.52465 2.13172 c -0.904628 0.426203 -1.65286 1.04234 -2.24468 1.8484 z" style="fill:#f0eaac;stroke:none;stroke-width:0" /><path id="roundedregionfill-29" d="m 2.17149 9.23231 c -0.836919 -0.547327 -1.51056 -0.391014 -2.02094 0.46894 l -10.3193 17.3876 c -0.510372 0.859954 -0.59665 1.76054 -0.258835 2.70175 l 2.09681 5.84207 c 0.337816 0.941212 1.00441 1.45991 1.99977 1.55608 l 22.1444 2.13963 c 0.995365 0.0961738 1.52162 -0.354922 1.57877 -1.35329 l 0.951027 -16.6132 c 0.0571516 -0.998366 -0.332732 -1.77121 -1.16965 -2.31854 z" style="fill:#f0ce76;stroke:none;stroke-width:0" /></g><g id="region-rounded-stroke" inkscape:label="Region Rounded Stroke" inkscape:groupmode="layer"><path id="roundedregionstroke-0" d="m 17.3205 70 -1.18294 -2.0489 c -0.5 -0.866025 -1.24757 -1.34825 -2.24272 -1.44668 l -17.4851 -1.72944 c -0.995144 -0.0984295 -1.793 0.252139 -2.39358 1.05171 l -5.6157 7.47636" style="fill:none;stroke:#000000;stroke-width:0.9" /><path id="roundedregionstroke-1" d="m 69.282 20 -5.97484 0 c -1 0 -1.9107 0.285171 -2.73211 0.855513 l -6.96343 4.83504 c -0.821407 0.570342 -1.38871 1.33036 -1.70191 2.28004 l -4.13528 12.5389 c -0.313202 0.949686 -0.219804 1.85754 0.280196 2.72357 l 3.90688 6.76691" style="fill:none;stroke:#000000;stroke-width:0.9" /><path id="roundedregionstroke-2" d="m 57.6825 -46.697 -6.57569 8.75442 c -0.600577 0.799567 -0.557607 1.56291 0.128909 2.29002 l 13.7488 14.5619 c 0.686517 0.727114 1.52977 1.09067 2.52977 1.09067 l 1.76769 -3.55271e-15" style="fill:none;stroke:#000000;stroke-width:0.9" /><path id="roundedregionstroke-3" d="m -10.1534 -74.1379 2.13449 4.77308 c 0.408233 0.912878 1.09099 1.5139 2.04826 1.80308 l 7.88751 2.38266 c 0.957277 0.289174 1.72914 0.0287713 2.3156 -0.781207 l 5.92094 -8.17761" style="fill:none;stroke:#000000;stroke-width:0.9" /><path id="roundedregionstroke-4" d="m -69.282 -26.6061 7.52943 0.912659 c 0.992734 0.120331 1.90279 -0.100326 2.73017 -0.661972 l 3.03693 -2.06155 c 0.827378 -0.561646 1.38839 -1.32027 1.68304 -2.27588 l 1.00292 -3.25262 c 0.294652 -0.955605 0.2459 -1.89336 -0.146257 -2.81325 l -4.23674 -9.9383" style="fill:none;stroke:#000000;stroke-width:0.9" /><path id="roundedregionstroke-5" d="m -59.1286 45.8621 6.71281 -9.2713 c 0.586459 -0.809979 0.603638 -1.63186 0.0515355 -2.46563 l -2.0858 -3.14994 c -0.552102 -0.833776 -1.3255 -1.30211 -2.32019 -1.40501 l -12.5118 -1.29432" style="fill:none;stroke:#000000;stroke-width:0.9" /><path id="roundedregionstroke-6" d="m 51.9615 50 -3.90688 -6.76691 c -0.5 -0.866025 -1.24657 -1.24054 -2.2397 -1.12355 l -22.4672 2.64664 c -0.993133 0.116991 -1.63245 0.654676 -1.91795 1.61305 l -5.61398 18.8453 c -0.2855 0.958379 -0.17825 1.87058 0.32175 2.73661 l 1.18294 2.0489" style="fill:none;stroke:#000000;stroke-width:0.9" /><path id="roundedregionstroke-7" d="m 69.282 -20 -1.76769 3.55271e-15 c -1 0 -1.80345 0.397389 -2.41035 1.19217 l -8.97099 11.7481 c -0.606901 0.794777 -0.787011 1.67671 -0.540329 2.64581 l 5.84449 22.9603 c 0.246682 0.969097 0.870023 1.45364 1.87002 1.45364 l 5.97484 0" style="fill:none;stroke:#000000;stroke-width:0.9" /><path id="roundedregionstroke-8" d="m 33.3192 -60.7632 -1.31472 3.69983 c -0.334835 0.942277 -0.297931 1.86976 0.110713 2.78246 l 6.97259 15.5731 c 0.408644 0.912694 1.11216 1.39734 2.11056 1.45394 l 7.51007 0.425766 c 0.998397 0.0566018 1.79788 -0.314881 2.39846 -1.11445 l 6.57569 -8.75442" style="fill:none;stroke:#000000;stroke-width:0.9" /><path id="roundedregionstroke-9" d="m 10.1534 -74.1379 -5.92094 8.17761 c -0.586459 0.809979 -0.669253 1.66853 -0.248383 2.57565 l 3.60707 7.77447 c 0.420871 0.907121 1.1304 1.33066 2.1286 1.27061 l 20.2852 -1.22025 c 0.998196 -0.0600464 1.66471 -0.561208 1.99955 -1.50348 l 1.31472 -3.69983" style="fill:none;stroke:#000000;stroke-width:0.9" /><path id="roundedregionstroke-10" d="m -33.3192 -60.7632 5.9496 6.9815 c 0.648618 0.761114 1.36172 0.827287 2.13932 0.198519 l 16.6573 -13.4692 c 0.777593 -0.628768 0.962273 -1.39959 0.554041 -2.31247 l -2.13449 -4.77308" style="fill:none;stroke:#000000;stroke-width:0.9" /><path id="roundedregionstroke-11" d="m -57.6825 -46.697 4.23674 9.9383 c 0.392157 0.919898 1.05291 1.19525 1.98226 0.826042 l 24.284 -9.64736 c 0.929348 -0.369204 1.34726 -1.05161 1.25374 -2.04723 l -0.330594 -3.51934 c -0.0935244 -0.995617 -0.464596 -1.87398 -1.11321 -2.6351 l -5.9496 -6.9815" style="fill:none;stroke:#000000;stroke-width:0.9" /><path id="roundedregionstroke-12" d="m -69.282 1.52632 5.45025 -1.00399 c 0.983453 -0.181162 1.51567 -0.770102 1.59664 -1.76682 l 1.85018 -22.7733 c 0.0809763 -0.996716 -0.374902 -1.55524 -1.36764 -1.67557 l -7.52943 -0.912659" style="fill:none;stroke:#000000;stroke-width:0.9" /><path id="roundedregionstroke-13" d="m -69.282 28.2759 12.5118 1.29432 c 0.994692 0.102899 1.56736 -0.339945 1.71801 -1.32853 l 3.09089 -20.2828 c 0.150651 -0.988587 -0.205388 -1.73572 -1.06812 -2.24138 l -8.03303 -4.70839 c -0.862727 -0.505669 -1.78582 -0.667922 -2.76927 -0.48676 l -5.45025 1.00399" style="fill:none;stroke:#000000;stroke-width:0.9" /><path id="roundedregionstroke-14" d="m -35.9628 59.2368 2.13807 -6.01685 c 0.334835 -0.942277 0.2243 -1.82904 -0.331605 -2.66028 l -7.46358 -11.1603 c -0.555906 -0.831245 -1.31201 -1.39305 -2.26832 -1.68543 l -6.2134 -1.89963 c -0.956305 -0.292372 -1.72769 -0.033569 -2.31415 0.77641 l -6.71281 9.2713" style="fill:none;stroke:#000000;stroke-width:0.9" /><path id="roundedregionstroke-15" d="m -11.5995 73.303 5.6157 -7.47636 c 0.600577 -0.799567 0.657364 -1.63605 0.170362 -2.50945 l -7.21173 -12.9337 c -0.487002 -0.873401 -1.2257 -1.24093 -2.21608 -1.10259 l -16.5957 2.31812 c -0.990385 0.138339 -1.653 0.678647 -1.98783 1.62092 l -2.13807 6.01685" style="fill:none;stroke:#000000;stroke-width:0.9" /><path id="roundedregionstroke-16" d="m -59.0224 -26.3554 c -0.827378 0.561646 -1.28155 1.34083 -1.36253 2.33754 l -1.85018 22.7733 c -0.0809763 0.996716 0.309899 1.74791 1.17263 2.25358 l 8.03303 4.70839 c 0.862727 0.505669 1.77305 0.614982 2.73097 0.327938 l 15.1878 -4.5511 c 0.957917 -0.287044 1.73279 -0.833598 2.32462 -1.63966 l 5.2297 -7.1228 c 0.591828 -0.806064 0.485863 -1.50657 -0.317897 -2.10153 l -25.6646 -18.9973 c -0.803759 -0.594954 -1.61933 -0.611609 -2.44671 -0.0499626 z" style="fill:none;stroke:#000000;stroke-width:0.9" /><path id="roundedregionstroke-17" d="m 3.98408 -63.3847 c -0.420871 -0.907121 -1.10994 -1.50527 -2.06722 -1.79444 l -7.88751 -2.38266 c -0.957277 -0.289174 -1.82471 -0.119377 -2.6023 0.509391 l -16.6573 13.4692 c -0.777593 0.628768 -1.11963 1.44096 -1.0261 2.43658 l 0.330594 3.51934 c 0.0935244 0.995617 0.459998 1.87785 1.09942 2.64671 l 10.3921 12.4957 c 0.639423 0.768855 1.43101 0.987944 2.37475 0.657266 l 12.3984 -4.34427 c 0.943744 -0.330678 1.58824 -0.96527 1.9335 -1.90378 l 5.43215 -14.7661 c 0.345257 -0.938508 0.30745 -1.86132 -0.113421 -2.76844 z" style="fill:none;stroke:#000000;stroke-width:0.9" /><path id="roundedregionstroke-18" d="m 19.7403 19.1361 c -0.87424 0.485494 -1.33994 1.22742 -1.39709 2.22579 l -0.951027 16.6132 c -0.0571516 0.998366 0.234466 1.88157 0.874854 2.64963 l 2.63047 3.15487 c 0.640388 0.768052 1.45715 1.09358 2.45028 0.976591 l 22.4672 -2.64664 c 0.993133 -0.116991 1.6463 -0.65033 1.9595 -1.60002 l 4.13528 -12.5389 c 0.313202 -0.949686 0.0600245 -1.71103 -0.759534 -2.28402 l -17.8968 -12.5126 c -0.819558 -0.572996 -1.66646 -0.616747 -2.5407 -0.131253 z" style="fill:none;stroke:#000000;stroke-width:0.9" /><path id="roundedregionstroke-19" d="m 32.0556 10.8148 c -0.0210644 0.999778 0.378183 1.78617 1.19774 2.35916 l 17.8968 12.5126 c 0.819558 0.572996 1.64004 0.574323 2.46145 0.00398063 l 6.96343 -4.83504 c 0.821407 -0.570342 1.10877 -1.34006 0.862088 -2.30916 l -5.84449 -22.9603 c -0.246682 -0.969097 -0.870008 -1.45741 -1.86998 -1.46495 l -19.812 -0.149296 c -0.999972 -0.00753542 -1.51049 0.488586 -1.53155 1.48836 z" style="fill:none;stroke:#000000;stroke-width:0.9" /><path id="roundedregionstroke-20" d="m -5.81343 63.3172 c 0.487002 0.873401 1.22807 1.35932 2.22322 1.45775 l 17.4851 1.72944 c 0.995144 0.0984295 1.63547 -0.331545 1.92097 -1.28992 l 5.61398 -18.8453 c 0.2855 -0.958379 0.108056 -1.82159 -0.532332 -2.58965 l -2.63047 -3.15487 c -0.640388 -0.768052 -1.45826 -1.20016 -2.45363 -1.29634 l -22.1444 -2.13963 c -0.995365 -0.0961738 -1.71418 0.304182 -2.15644 1.20107 l -4.6048 9.33829 c -0.442263 0.896886 -0.419893 1.78203 0.0671091 2.65543 z" style="fill:none;stroke:#000000;stroke-width:0.9" /><path id="roundedregionstroke-21" d="m -54.3025 -30.6928 c -0.294652 0.955605 -0.0400986 1.73088 0.763661 2.32584 l 25.6646 18.9973 c 0.803759 0.594954 1.65795 0.67933 2.56258 0.253128 l 4.52465 -2.13172 c 0.904628 -0.426203 1.50336 -1.11739 1.7962 -2.07355 l 5.07645 -16.5755 c 0.292837 -0.956163 0.119543 -1.81867 -0.51988 -2.58753 l -10.3921 -12.4957 c -0.639423 -0.768855 -1.42381 -0.968681 -2.35316 -0.599477 l -24.284 9.64736 c -0.929348 0.369204 -1.54135 1.03161 -1.836 1.98721 z" style="fill:none;stroke:#000000;stroke-width:0.9" /><path id="roundedregionstroke-22" d="m -15.2412 49.2809 c 0.990385 -0.138339 1.70671 -0.655951 2.14897 -1.55284 l 4.6048 -9.33829 c 0.442263 -0.896886 0.494486 -1.81593 0.15667 -2.75715 l -2.09681 -5.84207 c -0.337816 -0.941212 -0.97713 -1.58128 -1.91794 -1.92021 l -12.7004 -4.57536 c -0.940812 -0.338929 -1.77181 -0.16202 -2.49299 0.530727 l -13.8331 13.2877 c -0.72118 0.692747 -0.803818 1.45474 -0.247912 2.28599 l 7.46358 11.1603 c 0.555906 0.831245 1.32905 1.1777 2.31944 1.03936 z" style="fill:none;stroke:#000000;stroke-width:0.9" /><path id="roundedregionstroke-23" d="m 9.71975 -54.3396 c -0.998196 0.0600464 -1.66992 0.559324 -2.01518 1.49783 l -5.43215 14.7661 c -0.345257 0.938508 -0.0853628 1.65861 0.779683 2.1603 l 20.976 12.1653 c 0.865045 0.501693 1.65154 0.399403 2.35948 -0.306872 l 12.2512 -12.2225 c 0.707938 -0.706275 0.857585 -1.51576 0.448941 -2.42845 l -6.97259 -15.5731 c -0.408644 -0.912694 -1.11206 -1.33902 -2.11026 -1.27897 z" style="fill:none;stroke:#000000;stroke-width:0.9" /><path id="roundedregionstroke-24" d="m 26.4528 -12.991 c -0.650757 -0.759286 -1.40411 -0.880403 -2.26007 -0.363352 l -23.4457 14.1627 c -0.855954 0.517051 -1.17986 1.26463 -0.971705 2.24272 l 0.828504 3.89312 c 0.208151 0.978097 0.730686 1.74081 1.5676 2.28814 l 15.002 9.81101 c 0.836919 0.547327 1.6925 0.578244 2.56674 0.0927496 l 10.9724 -6.09335 c 0.87424 -0.485494 1.32189 -1.22813 1.34296 -2.22791 l 0.323507 -15.3546 c 0.0210644 -0.999778 -0.293782 -1.87931 -0.944539 -2.6386 z" style="fill:none;stroke:#000000;stroke-width:0.9" /><path id="roundedregionstroke-25" d="m -55.0523 28.2417 c -0.150651 0.988587 0.0500751 1.89977 0.602177 2.73355 l 2.0858 3.14994 c 0.552102 0.833776 1.30631 1.39685 2.26261 1.68922 l 6.2134 1.89963 c 0.956305 0.292372 1.79505 0.0921847 2.51623 -0.600563 l 13.8331 -13.2877 c 0.72118 -0.692747 0.924136 -1.51362 0.608868 -2.46262 l -6.27077 -18.8759 c -0.315269 -0.949002 -0.951862 -1.27998 -1.90978 -0.992938 l -15.1878 4.5511 c -0.957917 0.287044 -1.5122 0.924859 -1.66285 1.91345 z" style="fill:none;stroke:#000000;stroke-width:0.9" /><path id="roundedregionstroke-26" d="m 31.4346 -7.17838 c 0.650757 0.759286 1.47612 1.1427 2.47609 1.15023 l 19.812 0.149296 c 0.999972 0.00753542 1.80341 -0.386086 2.41031 -1.18086 l 8.97099 -11.7481 c 0.606901 -0.794777 0.567093 -1.55572 -0.119423 -2.28284 l -13.7488 -14.5619 c -0.686517 -0.727114 -1.52897 -1.11897 -2.52737 -1.17557 l -7.51007 -0.425766 c -0.998397 -0.0566018 -1.85156 0.268235 -2.5595 0.974509 l -12.2512 12.2225 c -0.707938 0.706275 -1.05339 1.55934 -1.03637 2.55919 l 0.0999252 5.86799 c 0.0170264 0.999855 0.350918 1.87943 1.00167 2.63871 z" style="fill:none;stroke:#000000;stroke-width:0.9" /><path id="roundedregionstroke-27" d="m 24.1928 -13.3544 c 0.855954 -0.517051 1.27542 -1.2755 1.25839 -2.27536 l -0.0999252 -5.86799 c -0.0170264 -0.999855 -0.458062 -1.75063 -1.32311 -2.25232 l -20.976 -12.1653 c -0.865045 -0.501693 -1.76944 -0.587201 -2.71318 -0.256524 l -12.3984 4.34427 c -0.943744 0.330678 -1.56203 0.974098 -1.85487 1.93026 l -5.07645 16.5755 c -0.292837 0.956163 -0.032147 1.72453 0.782069 2.30509 l 16.4506 11.7298 c 0.814216 0.580563 1.6493 0.612318 2.50525 0.0952667 z" style="fill:none;stroke:#000000;stroke-width:0.9" /><path id="roundedregionstroke-28" d="m -32.786 -0.14535 c -0.591828 0.806064 -0.730108 1.6836 -0.414839 2.6326 l 6.27077 18.8759 c 0.315269 0.949002 0.943309 1.59297 1.88412 1.9319 l 12.7004 4.57536 c 0.940812 0.338929 1.6664 0.0784171 2.17678 -0.781537 l 10.3193 -17.3876 c 0.510372 -0.859954 0.661483 -1.77898 0.453332 -2.75708 l -0.828504 -3.89312 c -0.208151 -0.978097 -0.719334 -1.75743 -1.53355 -2.33799 l -16.4506 -11.7298 c -0.814216 -0.580563 -1.67364 -0.657743 -2.57827 -0.23154 l -4.52465 2.13172 c -0.904628 0.426203 -1.65286 1.04234 -2.24468 1.8484 z" style="fill:none;stroke:#000000;stroke-width:0.9" /><path id="roundedregionstroke-29" d="m 2.17149 9.23231 c -0.836919 -0.547327 -1.51056 -0.391014 -2.02094 0.46894 l -10.3193 17.3876 c -0.510372 0.859954 -0.59665 1.76054 -0.258835 2.70175 l 2.09681 5.84207 c 0.337816 0.941212 1.00441 1.45991 1.99977 1.55608 l 22.1444 2.13963 c 0.995365 0.0961738 1.52162 -0.354922 1.57877 -1.35329 l 0.951027 -16.6132 c 0.0571516 -0.998366 -0.332732 -1.77121 -1.16965 -2.31854 z" style="fill:none;stroke:#000000;stroke-width:0.9" /></g><g id="region" inkscape:label="Region" inkscape:groupmode="layer" style="display:none"><path id="region-0" d="m -17.7239 81.4566 10.7957 14.5434 19.245 0 8.3395 -20.2222 -5.26874 -9.12572 -20.4705 -2.02473 z" style="fill:#ffffff;stroke:#000000;stroke-width:0.3" /><path id="region-1" d="m 52.3795 26.5461 9.42765 -6.54606 14.1464 0 13.3432 17.3333 -12.3168 21.3333 -21.6827 -2.88889 -7.99268 -13.8437 z" style="fill:#ffffff;stroke:#000000;stroke-width:0.3" /><path id="region-2" d="m 64.4854 -55.7539 -14.2794 19.0107 15.8084 16.7432 9.93929 -3.55271e-15 13.3432 -17.3333 -9.6225 -16.6667 z" style="fill:#ffffff;stroke:#000000;stroke-width:0.3" /><path id="region-3" d="m 16.574 -83.0056 -9.6458 -12.9944 -13.8564 0 -8.11375 10.9304 7.63539 17.074 10.7593 3.25018 z" style="fill:#ffffff;stroke:#000000;stroke-width:0.3" /><path id="region-4" d="m -86.6025 -42 6.07556 14.0309 20.2635 2.45618 5.51906 -3.74649 1.88687 -6.11943 -8.82399 -20.6988 -17.9928 2.07763 z" style="fill:#ffffff;stroke:#000000;stroke-width:0.3" /><path id="region-5" d="m -80.172 27.1493 24.8938 2.57522 3.74211 5.65127 -14.6153 20.1857 -13.5229 -1.56149 -6.9282 -12 z" style="fill:#ffffff;stroke:#000000;stroke-width:0.3" /><path id="region-6" d="m 21.8581 44.9317 25.4466 -2.99761 7.99268 13.8437 -10.5848 21.6667 -24.0563 -1.66667 -5.26874 -9.12572 z" style="fill:#ffffff;stroke:#000000;stroke-width:0.3" /><path id="region-7" d="m 66.0143 -20 -10.7917 14.1324 6.58454 25.8676 14.1464 0 13.4715 -20 -13.4715 -20 z" style="fill:#ffffff;stroke:#000000;stroke-width:0.3" /><path id="region-8" d="m 56.4909 -69.8451 7.99453 14.0912 -14.2794 19.0107 -10.5053 -0.595572 -8.19852 -18.3111 5.16447 -14.5336 z" style="fill:#ffffff;stroke:#000000;stroke-width:0.3" /><path id="region-9" d="m 30.407 -80.6665 -13.833 -2.3392 -13.2212 18.2603 4.86968 10.4958 23.2798 -1.40039 5.16447 -14.5336 z" style="fill:#ffffff;stroke:#000000;stroke-width:0.3" /><path id="region-10" d="m -15.0419 -85.0696 7.63539 17.074 -18.9901 15.3555 -13.0899 -15.3602 7.58332 -15.2578 z" style="fill:#ffffff;stroke:#000000;stroke-width:0.3" /><path id="region-11" d="m -52.8576 -35.3788 27.0721 -10.755 -0.611167 -6.5062 -13.0899 -15.3602 -14.9908 1.64257 -7.20417 10.28 z" style="fill:#ffffff;stroke:#000000;stroke-width:0.3" /><path id="region-12" d="m -88.7331 -14 8.20611 -13.9691 20.2635 2.45618 -2.0931 25.7635 -16.7574 3.0869 z" style="fill:#ffffff;stroke:#000000;stroke-width:0.3" /><path id="region-13" d="m -85.0627 14 5.94864 -10.6625 16.7574 -3.0869 10.6212 6.2254 -3.54284 23.2486 -24.8938 -2.57522 z" style="fill:#ffffff;stroke:#000000;stroke-width:0.3" /><path id="region-14" d="m -39.1466 68.1964 -17.0053 1.06156 -9.9995 -13.6965 14.6153 -20.1857 9.08231 2.77675 9.13129 13.654 z" style="fill:#ffffff;stroke:#000000;stroke-width:0.3" /><path id="region-15" d="m -17.7239 81.4566 12.6409 -16.8293 -8.67273 -15.5539 -19.5669 2.73314 -5.82409 16.3899 8.91793 12.1612 z" style="fill:#ffffff;stroke:#000000;stroke-width:0.3" /><path id="region-16" d="m -54.7444 -29.2594 28.0758 20.7821 -7.00519 9.54099 -18.0616 5.41223 -10.6212 -6.2254 2.0931 -25.7635 z" style="fill:#ffffff;stroke:#000000;stroke-width:0.3" /><path id="region-17" d="m 8.22246 -54.2495 -6.46792 17.5817 -15.2297 5.33631 -12.3104 -14.8022 -0.611167 -6.5062 18.9901 -15.3555 10.7593 3.25018 z" style="fill:#ffffff;stroke:#000000;stroke-width:0.3" /><path id="region-18" d="m 32.024 12.3145 20.3555 14.2316 -5.07489 15.388 -25.4466 2.99761 -4.55163 -5.45902 1.12248 -19.6083 z" style="fill:#ffffff;stroke:#000000;stroke-width:0.3" /><path id="region-19" d="m 32.4107 -6.03946 22.8119 0.171902 6.58454 25.8676 -9.42765 6.54606 -20.3555 -14.2316 z" style="fill:#ffffff;stroke:#000000;stroke-width:0.3" /><path id="region-20" d="m -5.08293 64.6273 20.4705 2.02473 6.47048 -21.7204 -4.55163 -5.45902 -25.1305 -2.42815 -5.93158 12.0289 z" style="fill:#ffffff;stroke:#000000;stroke-width:0.3" /><path id="region-21" d="m -54.7444 -29.2594 28.0758 20.7821 7.23853 -3.41033 5.95496 -19.444 -12.3104 -14.8022 -27.0721 10.755 z" style="fill:#ffffff;stroke:#000000;stroke-width:0.3" /><path id="region-22" d="m -33.3225 51.8066 -9.13129 -13.654 15.9966 -15.3659 15.5229 5.59215 3.11026 8.66571 -5.93158 12.0289 z" style="fill:#ffffff;stroke:#000000;stroke-width:0.3" /><path id="region-23" d="m 31.5022 -55.6499 8.19852 18.3111 -14.375 14.3413 -23.5711 -13.6704 6.46792 -17.5817 z" style="fill:#ffffff;stroke:#000000;stroke-width:0.3" /><path id="region-24" d="m 32.4107 -6.03946 -0.3867 18.3539 -13.5951 7.54983 -17.5128 -11.453 -1.45296 -6.82741 26.0135 -15.7138 z" style="fill:#ffffff;stroke:#000000;stroke-width:0.3" /><path id="region-25" d="m -51.7354 6.47597 18.0616 -5.41223 7.21657 21.7229 -15.9966 15.3659 -9.08231 -2.77675 -3.74211 -5.65127 z" style="fill:#ffffff;stroke:#000000;stroke-width:0.3" /><path id="region-26" d="m 32.4107 -6.03946 22.8119 0.171902 10.7917 -14.1324 -15.8084 -16.7432 -10.5053 -0.595572 -14.375 14.3413 0.151004 8.86756 z" style="fill:#ffffff;stroke:#000000;stroke-width:0.3" /><path id="region-27" d="m 25.4767 -14.1299 -0.151004 -8.86756 -23.5711 -13.6704 -15.2297 5.33631 -5.95496 19.444 18.8932 13.4715 z" style="fill:#ffffff;stroke:#000000;stroke-width:0.3" /><path id="region-28" d="m -26.6686 -8.47725 7.23853 -3.41033 18.8932 13.4715 1.45296 6.82741 -11.8504 19.9675 -15.5229 -5.59215 -7.21657 -21.7229 z" style="fill:#ffffff;stroke:#000000;stroke-width:0.3" /><path id="region-29" d="m 0.916111 8.41132 -11.8504 19.9675 3.11026 8.66571 25.1305 2.42815 1.12248 -19.6083 z" style="fill:#ffffff;stroke:#000000;stroke-width:0.3" /></g><g id="seeds" inkscape:label="Seeds" inkscape:groupmode="layer" style="display:none"><circle id="seed-0" cx="0.0" cy="80.0" r="1.0" style="fill:#000000;stroke:none;stroke-width:0" /><circle id="seed-1" cx="69.28203230275508" cy="40.0" r="1.0" style="fill:#000000;stroke:none;stroke-width:0" /><circle id="seed-2" cx="69.28203230275508" cy="-40.0" r="1.0" style="fill:#000000;stroke:none;stroke-width:0" /><circle id="seed-3" cx="0.0" cy="-80.0" r="1.0" style="fill:#000000;stroke:none;stroke-width:0" /><circle id="seed-4" cx="-69.28203230275508" cy="-40.0" r="1.0" style="fill:#000000;stroke:none;stroke-width:0" /><circle id="seed-5" cx="-69.28203230275508" cy="40.0" r="1.0" style="fill:#000000;stroke:none;stroke-width:0" /><circle id="seed-6" cx="34.64101615137754" cy="60.0" r="1.0" style="fill:#000000;stroke:none;stroke-width:0" /><circle id="seed-7" cx="69.28203230275508" cy="0.0" r="1.0" style="fill:#000000;stroke:none;stroke-width:0" /><circle id="seed-8" cx="48.0189616428459" cy="-55.971281292110206" r="1.0" style="fill:#000000;stroke:none;stroke-width:0" /><circle id="seed-9" cx="18.891789367798975" cy="-66.32153903091735" r="1.0" style="fill:#000000;stroke:none;stroke-width:0" /><circle id="seed-10" cx="-21.291789367798977" cy="-70.47846096908266" r="1.0" style="fill:#000000;stroke:none;stroke-width:0" /><circle id="seed-11" cx="-44.8189616428459" cy="-50.4287187078898" r="1.0" style="fill:#000000;stroke:none;stroke-width:0" /><circle id="seed-12" cx="-72.48203230275509" cy="-13.599999999999998" r="1.0" style="fill:#000000;stroke:none;stroke-width:0" /><circle id="seed-13" cx="-66.88203230275508" cy="16.799999999999997" r="1.0" style="fill:#000000;stroke:none;stroke-width:0" /><circle id="seed-14" cx="-50.390242934956106" cy="53.67846096908266" r="1.0" style="fill:#000000;stroke:none;stroke-width:0" /><circle id="seed-15" cx="-21.263070659909182" cy="64.0287187078898" r="1.0" style="fill:#000000;stroke:none;stroke-width:0" /><circle id="seed-16" cx="-50.12819165492774" cy="-11.783905292912342" r="1.0" style="fill:#000000;stroke:none;stroke-width:0" /><circle id="seed-17" cx="-7.884833243867394" cy="-53.89816851174655" r="1.0" style="fill:#000000;stroke:none;stroke-width:0" /><circle id="seed-18" cx="30.7895820728073" cy="27.305357003828664" r="1.0" style="fill:#000000;stroke:none;stroke-width:0" /><circle id="seed-19" cx="45.67972324216603" cy="6.007924560759022" r="1.0" style="fill:#000000;stroke:none;stroke-width:0" /><circle id="seed-20" cx="2.9130638666892645" cy="50.54828222106636" r="1.0" style="fill:#000000;stroke:none;stroke-width:0" /><circle id="seed-21" cx="-36.68266010122426" cy="-29.948273381932427" r="1.0" style="fill:#000000;stroke:none;stroke-width:0" /><circle id="seed-22" cx="-25.073732940706368" cy="36.74773390507562" r="1.0" style="fill:#000000;stroke:none;stroke-width:0" /><circle id="seed-23" cx="20.261998385236296" cy="-43.54355296681402" r="1.0" style="fill:#000000;stroke:none;stroke-width:0" /><circle id="seed-24" cx="18.646116740054342" cy="5.438351861800643" r="1.0" style="fill:#000000;stroke:none;stroke-width:0" /><circle id="seed-25" cx="-40.351413596891554" cy="20.84299781239428" r="1.0" style="fill:#000000;stroke:none;stroke-width:0" /><circle id="seed-26" cx="45.85977528787523" cy="-17.885498153982947" r="1.0" style="fill:#000000;stroke:none;stroke-width:0" /><circle id="seed-27" cx="4.977547937251949" cy="-17.189320643390605" r="1.0" style="fill:#000000;stroke:none;stroke-width:0" /><circle id="seed-28" cx="-16.488067664614636" cy="12.915341900348258" r="1.0" style="fill:#000000;stroke:none;stroke-width:0" /><circle id="seed-29" cx="5.299820926220516" cy="25.84619095828087" r="1.0" style="fill:#000000;stroke:none;stroke-width:0" /></g><g id="seed_exclusion" inkscape:label="Seed Exclusion" inkscape:groupmode="layer" style="display:none"><circle id="seed-ex-0" cx="0.0" cy="80.0" r="24.0" style="fill:#800000;stroke:none;stroke-width:0;fill-opacity:0.15" /><circle id="seed-ex-1" cx="69.28203230275508" cy="40.0" r="24.0" style="fill:#800000;stroke:none;stroke-width:0;fill-opacity:0.15" /><circle id="seed-ex-2" cx="69.28203230275508" cy="-40.0" r="24.0" style="fill:#800000;stroke:none;stroke-width:0;fill-opacity:0.15" /><circle id="seed-ex-3" cx="0.0" cy="-80.0" r="19.2" style="fill:#800000;stroke:none;stroke-width:0;fill-opacity:0.15" /><circle id="seed-ex-4" cx="-69.28203230275508" cy="-40.0" r="24.0" style="fill:#800000;stroke:none;stroke-width:0;fill-opacity:0.15" /><circle id="seed-ex-5" cx="-69.28203230275508" cy="40.0" r="19.2" style="fill:#800000;stroke:none;stroke-width:0;fill-opacity:0.15" /><circle id="seed-ex-6" cx="34.64101615137754" cy="60.0" r="24.0" style="fill:#800000;stroke:none;stroke-width:0;fill-opacity:0.15" /><circle id="seed-ex-7" cx="69.28203230275508" cy="0.0" r="24.0" style="fill:#800000;stroke:none;stroke-width:0;fill-opacity:0.15" /><circle id="seed-ex-8" cx="48.0189616428459" cy="-55.971281292110206" r="22.379049582771863" style="fill:#800000;stroke:none;stroke-width:0;fill-opacity:0.15" /><circle id="seed-ex-9" cx="18.891789367798975" cy="-66.32153903091735" r="20.6197128129211" style="fill:#800000;stroke:none;stroke-width:0;fill-opacity:0.15" /><circle id="seed-ex-10" cx="-21.291789367798977" cy="-70.47846096908266" r="20.564287187078897" style="fill:#800000;stroke:none;stroke-width:0;fill-opacity:0.15" /><circle id="seed-ex-11" cx="-44.8189616428459" cy="-50.4287187078898" r="22.452950417228138" style="fill:#800000;stroke:none;stroke-width:0;fill-opacity:0.15" /><circle id="seed-ex-12" cx="-72.48203230275509" cy="-13.599999999999998" r="22.37904958277186" style="fill:#800000;stroke:none;stroke-width:0;fill-opacity:0.15" /><circle id="seed-ex-13" cx="-66.88203230275508" cy="16.799999999999997" r="20.619712812921104" style="fill:#800000;stroke:none;stroke-width:0;fill-opacity:0.15" /><circle id="seed-ex-14" cx="-50.390242934956106" cy="53.67846096908266" r="20.564287187078897" style="fill:#800000;stroke:none;stroke-width:0;fill-opacity:0.15" /><circle id="seed-ex-15" cx="-21.263070659909182" cy="64.0287187078898" r="22.452950417228134" style="fill:#800000;stroke:none;stroke-width:0;fill-opacity:0.15" /><circle id="seed-ex-16" cx="-50.12819165492774" cy="-11.783905292912342" r="22.52820381865551" style="fill:#800000;stroke:none;stroke-width:0;fill-opacity:0.15" /><circle id="seed-ex-17" cx="-7.884833243867394" cy="-53.89816851174655" r="20.608258107199113" style="fill:#800000;stroke:none;stroke-width:0;fill-opacity:0.15" /><circle id="seed-ex-18" cx="30.7895820728073" cy="27.305357003828664" r="23.301634610036" style="fill:#800000;stroke:none;stroke-width:0;fill-opacity:0.15" /><circle id="seed-ex-19" cx="45.67972324216603" cy="6.007924560759022" r="23.45492802041489" style="fill:#800000;stroke:none;stroke-width:0;fill-opacity:0.15" /><circle id="seed-ex-20" cx="2.9130638666892645" cy="50.54828222106636" r="23.444602808573322" style="fill:#800000;stroke:none;stroke-width:0;fill-opacity:0.15" /><circle id="seed-ex-21" cx="-36.68266010122426" cy="-29.948273381932427" r="22.896368559445374" style="fill:#800000;stroke:none;stroke-width:0;fill-opacity:0.15" /><circle id="seed-ex-22" cx="-25.073732940706368" cy="36.74773390507562" r="21.68732203181095" style="fill:#800000;stroke:none;stroke-width:0;fill-opacity:0.15" /><circle id="seed-ex-23" cx="20.261998385236296" cy="-43.54355296681402" r="21.594119499090315" style="fill:#800000;stroke:none;stroke-width:0;fill-opacity:0.15" /><circle id="seed-ex-24" cx="18.646116740054342" cy="5.438351861800643" r="22.83061362076846" style="fill:#800000;stroke:none;stroke-width:0;fill-opacity:0.15" /><circle id="seed-ex-25" cx="-40.351413596891554" cy="20.84299781239428" r="20.683482141209396" style="fill:#800000;stroke:none;stroke-width:0;fill-opacity:0.15" /><circle id="seed-ex-26" cx="45.85977528787523" cy="-17.885498153982947" r="23.45908614429722" style="fill:#800000;stroke:none;stroke-width:0;fill-opacity:0.15" /><circle id="seed-ex-27" cx="4.977547937251949" cy="-17.189320643390605" r="21.942330265582513" style="fill:#800000;stroke:none;stroke-width:0;fill-opacity:0.15" /><circle id="seed-ex-28" cx="-16.488067664614636" cy="12.915341900348258" r="21.706367807548766" style="fill:#800000;stroke:none;stroke-width:0;fill-opacity:0.15" /><circle id="seed-ex-29" cx="5.299820926220516" cy="25.84619095828087" r="22.978120879933822" style="fill:#800000;stroke:none;stroke-width:0;fill-opacity:0.15" /></g><g id="margin_exclusion" inkscape:label="Margin Exclusion" inkscape:groupmode="layer" style="display:none"><circle id="circle1191" cx="17.32050807568877" cy="70.0" r="22.0" style="fill:#000080;stroke:none;stroke-width:0;fill-opacity:0.15" /><circle id="circle1192" cx="51.96152422706631" cy="50.0" r="22.0" style="fill:#000080;stroke:none;stroke-width:0;fill-opacity:0.15" /><circle id="circle1193" cx="69.28203230275508" cy="20.0" r="22.0" style="fill:#000080;stroke:none;stroke-width:0;fill-opacity:0.15" /><circle id="circle1194" cx="69.28203230275508" cy="-20.0" r="22.0" style="fill:#000080;stroke:none;stroke-width:0;fill-opacity:0.15" /><circle id="circle1195" cx="57.682540530854425" cy="-46.696969696969695" r="14.626277721963305" style="fill:#000080;stroke:none;stroke-width:0;fill-opacity:0.15" /><circle id="circle1196" cx="33.31918790349603" cy="-60.76315789473684" r="17.001317595998255" style="fill:#000080;stroke:none;stroke-width:0;fill-opacity:0.15" /><circle id="circle1197" cx="10.153401285748608" cy="-74.13793103448275" r="12.828094168659659" style="fill:#000080;stroke:none;stroke-width:0;fill-opacity:0.15" /><circle id="circle1198" cx="-10.153401285748588" cy="-74.13793103448276" r="12.828094168659659" style="fill:#000080;stroke:none;stroke-width:0;fill-opacity:0.15" /><circle id="circle1199" cx="-33.31918790349603" cy="-60.76315789473684" r="17.001317595998255" style="fill:#000080;stroke:none;stroke-width:0;fill-opacity:0.15" /><circle id="circle1200" cx="-57.68254053085442" cy="-46.6969696969697" r="14.626277721963307" style="fill:#000080;stroke:none;stroke-width:0;fill-opacity:0.15" /><circle id="circle1201" cx="-69.28203230275508" cy="-26.606060606060602" r="14.626277721963305" style="fill:#000080;stroke:none;stroke-width:0;fill-opacity:0.15" /><circle id="circle1202" cx="-69.28203230275508" cy="1.526315789473685" r="17.00131759599826" style="fill:#000080;stroke:none;stroke-width:0;fill-opacity:0.15" /><circle id="circle1203" cx="-69.28203230275508" cy="28.275862068965523" r="12.828094168659662" style="fill:#000080;stroke:none;stroke-width:0;fill-opacity:0.15" /><circle id="circle1204" cx="-59.12863101700649" cy="45.862068965517246" r="12.828094168659664" style="fill:#000080;stroke:none;stroke-width:0;fill-opacity:0.15" /><circle id="circle1205" cx="-35.962844399259055" cy="59.23684210526316" r="17.001317595998252" style="fill:#000080;stroke:none;stroke-width:0;fill-opacity:0.15" /><circle id="circle1206" cx="-11.59949177190066" cy="73.30303030303031" r="14.626277721963305" style="fill:#000080;stroke:none;stroke-width:0;fill-opacity:0.15" /></g><g id="circles" inkscape:label="Inscribed Circles" inkscape:groupmode="layer" style="display:none"><circle id="incircle-0" cx="0.0" cy="80.0" r="13.296616110875735" style="fill:#008000;stroke:none;stroke-width:0;fill-opacity:0.15" /><circle id="incircle-ctr-0" cx="0.0" cy="80.0" r="0.5" style="fill:#000000;stroke:none;stroke-width:0" /><circle id="incircle-1" cx="69.28203230275508" cy="40.0" r="19.999999999999996" style="fill:#008000;stroke:none;stroke-width:0;fill-opacity:0.15" /><circle id="incircle-ctr-1" cx="69.28203230275508" cy="40.0" r="0.5" style="fill:#000000;stroke:none;stroke-width:0" /><circle id="incircle-2" cx="69.28203230275508" cy="-40.0" r="13.296616110875723" style="fill:#008000;stroke:none;stroke-width:0;fill-opacity:0.15" /><circle id="incircle-ctr-2" cx="69.28203230275508" cy="-40.0" r="0.5" style="fill:#000000;stroke:none;stroke-width:0" /><circle id="incircle-3" cx="0.0" cy="-80.0" r="11.661903789690598" style="fill:#008000;stroke:none;stroke-width:0;fill-opacity:0.15" /><circle id="incircle-ctr-3" cx="0.0" cy="-80.0" r="0.5" style="fill:#000000;stroke:none;stroke-width:0" /><circle id="incircle-4" cx="-69.28203230275508" cy="-40.0" r="13.296616110875734" style="fill:#008000;stroke:none;stroke-width:0;fill-opacity:0.15" /><circle id="incircle-ctr-4" cx="-69.28203230275508" cy="-40.0" r="0.5" style="fill:#000000;stroke:none;stroke-width:0" /><circle id="incircle-5" cx="-69.28203230275508" cy="40.0" r="11.661903789690601" style="fill:#008000;stroke:none;stroke-width:0;fill-opacity:0.15" /><circle id="incircle-ctr-5" cx="-69.28203230275508" cy="40.0" r="0.5" style="fill:#000000;stroke:none;stroke-width:0" /><circle id="incircle-6" cx="34.64101615137754" cy="60.0" r="16.46035559388578" style="fill:#008000;stroke:none;stroke-width:0;fill-opacity:0.15" /><circle id="incircle-ctr-6" cx="34.64101615137754" cy="60.0" r="0.5" style="fill:#000000;stroke:none;stroke-width:0" /><circle id="incircle-7" cx="69.28203230275508" cy="0.0" r="12.177480758754424" style="fill:#008000;stroke:none;stroke-width:0;fill-opacity:0.15" /><circle id="incircle-ctr-7" cx="69.28203230275508" cy="0.0" r="0.5" style="fill:#000000;stroke:none;stroke-width:0" /><circle id="incircle-8" cx="45.50086421717523" cy="-53.73006379585327" r="11.991951301261409" style="fill:#008000;stroke:none;stroke-width:0;fill-opacity:0.15" /><circle id="incircle-ctr-8" cx="45.50086421717523" cy="-53.73006379585327" r="0.5" style="fill:#000000;stroke:none;stroke-width:0" /><circle id="incircle-9" cx="21.73629459462231" cy="-67.4505444646098" r="12.36574651914639" style="fill:#008000;stroke:none;stroke-width:0;fill-opacity:0.15" /><circle id="incircle-ctr-9" cx="21.73629459462231" cy="-67.4505444646098" r="0.5" style="fill:#000000;stroke:none;stroke-width:0" /><circle id="incircle-10" cx="-21.736294594622308" cy="-67.4505444646098" r="8.58629562663672" style="fill:#008000;stroke:none;stroke-width:0;fill-opacity:0.15" /><circle id="incircle-ctr-10" cx="-21.736294594622308" cy="-67.4505444646098" r="0.5" style="fill:#000000;stroke:none;stroke-width:0" /><circle id="incircle-11" cx="-45.50086421717522" cy="-53.73006379585327" r="13.833437634388076" style="fill:#008000;stroke:none;stroke-width:0;fill-opacity:0.15" /><circle id="incircle-ctr-11" cx="-45.50086421717522" cy="-53.73006379585327" r="0.5" style="fill:#000000;stroke:none;stroke-width:0" /><circle id="incircle-12" cx="-69.28203230275508" cy="-12.539872408293459" r="7.9384094609109" style="fill:#008000;stroke:none;stroke-width:0;fill-opacity:0.15" /><circle id="incircle-ctr-12" cx="-69.28203230275508" cy="-12.539872408293459" r="0.5" style="fill:#000000;stroke:none;stroke-width:0" /><circle id="incircle-13" cx="-69.28203230275508" cy="14.9010889292196" r="13.153463290938605" style="fill:#008000;stroke:none;stroke-width:0;fill-opacity:0.15" /><circle id="incircle-ctr-13" cx="-69.28203230275508" cy="14.9010889292196" r="0.5" style="fill:#000000;stroke:none;stroke-width:0" /><circle id="incircle-14" cx="-47.545737708132776" cy="52.5494555353902" r="12.235957188227646" style="fill:#008000;stroke:none;stroke-width:0;fill-opacity:0.15" /><circle id="incircle-ctr-14" cx="-47.545737708132776" cy="52.5494555353902" r="0.5" style="fill:#000000;stroke:none;stroke-width:0" /><circle id="incircle-15" cx="-23.78116808557986" cy="66.26993620414673" r="13.83343763438808" style="fill:#008000;stroke:none;stroke-width:0;fill-opacity:0.15" /><circle id="incircle-ctr-15" cx="-23.78116808557986" cy="66.26993620414673" r="0.5" style="fill:#000000;stroke:none;stroke-width:0" /><circle id="incircle-16" cx="-48.71303460633122" cy="-8.167717581781858" r="12.9170810544034" style="fill:#008000;stroke:none;stroke-width:0;fill-opacity:0.15" /><circle id="incircle-ctr-16" cx="-48.71303460633122" cy="-8.167717581781858" r="0.5" style="fill:#000000;stroke:none;stroke-width:0" /><circle id="incircle-17" cx="-9.031774282912172" cy="-48.3578705618015" r="14.159104371662664" style="fill:#008000;stroke:none;stroke-width:0;fill-opacity:0.15" /><circle id="incircle-ctr-17" cx="-9.031774282912172" cy="-48.3578705618015" r="0.5" style="fill:#000000;stroke:none;stroke-width:0" /><circle id="incircle-18" cx="32.08833443241864" cy="29.430387346913513" r="13.990644639040053" style="fill:#008000;stroke:none;stroke-width:0;fill-opacity:0.15" /><circle id="incircle-ctr-18" cx="32.08833443241864" cy="29.430387346913513" r="0.5" style="fill:#000000;stroke:none;stroke-width:0" /><circle id="incircle-19" cx="45.54675233209873" cy="6.899820091598993" r="12.186085809851242" style="fill:#008000;stroke:none;stroke-width:0;fill-opacity:0.15" /><circle id="incircle-ctr-19" cx="45.54675233209873" cy="6.899820091598993" r="0.5" style="fill:#000000;stroke:none;stroke-width:0" /><circle id="incircle-20" cx="5.472785628337009" cy="51.941229041563695" r="13.548876594857521" style="fill:#008000;stroke:none;stroke-width:0;fill-opacity:0.15" /><circle id="incircle-ctr-20" cx="5.472785628337009" cy="51.941229041563695" r="0.5" style="fill:#000000;stroke:none;stroke-width:0" /><circle id="incircle-21" cx="-29.462564078628986" cy="-28.05158490887653" r="14.070777718441382" style="fill:#008000;stroke:none;stroke-width:0;fill-opacity:0.15" /><circle id="incircle-ctr-21" cx="-29.462564078628986" cy="-28.05158490887653" r="0.5" style="fill:#000000;stroke:none;stroke-width:0" /><circle id="incircle-22" cx="-23.631249303899864" cy="37.52155258614664" r="12.584217567970548" style="fill:#008000;stroke:none;stroke-width:0;fill-opacity:0.15" /><circle id="incircle-ctr-22" cx="-23.631249303899864" cy="37.52155258614664" r="0.5" style="fill:#000000;stroke:none;stroke-width:0" /><circle id="incircle-23" cx="22.475581940394818" cy="-40.937729419319425" r="14.089243499179847" style="fill:#008000;stroke:none;stroke-width:0;fill-opacity:0.15" /><circle id="incircle-ctr-23" cx="22.475581940394818" cy="-40.937729419319425" r="0.5" style="fill:#000000;stroke:none;stroke-width:0" /><circle id="incircle-24" cx="19.410431119215332" cy="4.587469085270082" r="12.77358153790031" style="fill:#008000;stroke:none;stroke-width:0;fill-opacity:0.15" /><circle id="incircle-ctr-24" cx="19.410431119215332" cy="4.587469085270082" r="0.5" style="fill:#000000;stroke:none;stroke-width:0" /><circle id="incircle-25" cx="-40.682132306966864" cy="19.203742962048572" r="12.36990494122134" style="fill:#008000;stroke:none;stroke-width:0;fill-opacity:0.15" /><circle id="incircle-ctr-25" cx="-40.682132306966864" cy="19.203742962048572" r="0.5" style="fill:#000000;stroke:none;stroke-width:0" /><circle id="incircle-26" cx="44.74040446144276" cy="-21.130267393560075" r="14.692635866303538" style="fill:#008000;stroke:none;stroke-width:0;fill-opacity:0.15" /><circle id="incircle-ctr-26" cx="44.74040446144276" cy="-21.130267393560075" r="0.5" style="fill:#000000;stroke:none;stroke-width:0" /><circle id="incircle-27" cx="0.6118890487710704" cy="-18.35605482444958" r="16.4138033132937" style="fill:#008000;stroke:none;stroke-width:0;fill-opacity:0.15" /><circle id="incircle-ctr-27" cx="0.6118890487710704" cy="-18.35605482444958" r="0.5" style="fill:#000000;stroke:none;stroke-width:0" /><circle id="incircle-28" cx="-15.78467817781352" cy="8.372554244329436" r="14.379739592129994" style="fill:#008000;stroke:none;stroke-width:0;fill-opacity:0.15" /><circle id="incircle-ctr-28" cx="-15.78467817781352" cy="8.372554244329436" r="0.5" style="fill:#000000;stroke:none;stroke-width:0" /><circle id="incircle-29" cx="5.085874908675614" cy="25.764573457322182" r="12.241037853563624" style="fill:#008000;stroke:none;stroke-width:0;fill-opacity:0.15" /><circle id="incircle-ctr-29" cx="5.085874908675614" cy="25.764573457322182" r="0.5" style="fill:#000000;stroke:none;stroke-width:0" /></g><g id="tile-id" inkscape:label="Tile Id" inkscape:groupmode="layer" transform="scale(1,-1)"><ns0:text xml:space="preserve" style="font-style:normal;font-weight:normal;font-size:4.23333px;line-height:1.25;font-family:sans-serif;text-align:center;text-anchor:middle;fill:#dddddd;fill-opacity:1;stroke:#565656;stroke-width:0.15;stroke-dasharray:none;stroke-opacity:1" x="-1.7974526e-07" y="0" id="tile-id" transform="translate(0 -72)"><ns0:tspan ns1:role="line" id="tspan439" style="font-style:normal;font-variant:normal;font-weight:bold;font-stretch:normal;font-size:4.23333px;font-family:'Arial Black';-inkscape-font-specification:'Arial Black,  Bold';text-align:center;text-anchor:middle;fill:#dddddd;fill-opacity:1;stroke:#565656;stroke-width:0.15;stroke-dasharray:none;stroke-opacity:1" x="-1.4621764e-07" y="0">402</ns0:tspan></ns0:text>
  </g><g id="annotations" inkscape:label="Annotations" inkscape:groupmode="layer" transform="scale(1,-1)"><text id="text1207" x="-92" y="84.5" style="font-style:normal;font-weight:normal;font-size:4px;font-family:sans-serif;fill:#000000;fill-opacity:1;stroke:none"><tspan x="-92" y="84.5">id: 402</tspan></text><text id="text1208" x="-92" y="90.0" style="font-style:normal;font-weight:normal;font-size:4px;font-family:sans-serif;fill:#000000;fill-opacity:1;stroke:none"><tspan x="-92" y="90.0">size: 80</tspan></text><text id="text1209" x="-92" y="95.5" style="font-style:normal;font-weight:normal;font-size:4px;font-family:sans-serif;fill:#000000;fill-opacity:1;stroke:none"><tspan x="-92" y="95.5">rng seed 1713</tspan></text><text id="text1210" x="-92" y="101.0" style="font-style:normal;font-weight:normal;font-size:4px;font-family:sans-serif;fill:#000000;fill-opacity:1;stroke:none"><tspan x="-92" y="101.0">pattern 111212 / lllmlm</tspan></text><text id="text1211" x="-92" y="106.5" style="font-style:normal;font-weight:normal;font-size:4px;font-family:sans-serif;fill:#000000;fill-opacity:1;stroke:none"><tspan x="-92" y="106.5">seed attempts: 20</tspan></text><text id="text1212" x="-92" y="112.0" style="font-style:normal;font-weight:normal;font-size:4px;font-family:sans-serif;fill:#000000;fill-opacity:1;stroke:none"><tspan x="-92" y="112.0">seed distance: l 0.3; m 0.24; h 0.2</tspan></text><text id="text1213" x="-92" y="117.5" style="font-style:normal;font-weight:normal;font-size:4px;font-family:sans-serif;fill:#000000;fill-opacity:1;stroke:none"><tspan x="-92" y="117.5">center: (AVG) 0.28</tspan></text><text id="text1214" x="-92" y="123.0" style="font-style:normal;font-weight:normal;font-size:4px;font-family:sans-serif;fill:#000000;fill-opacity:1;stroke:none"><tspan x="-92" y="123.0">min ridge length: 0.08; at edge: 0.04</tspan></text><text id="text1215" x="-92" y="128.5" style="font-style:normal;font-weight:normal;font-size:4px;font-family:sans-serif;fill:#000000;fill-opacity:1;stroke:none"><tspan x="-92" y="128.5">edge margin exclusion zone scale: 1.1</tspan></text><text id="text1216" x="-92" y="134.0" style="font-style:normal;font-weight:normal;font-size:4px;font-family:sans-serif;fill:#000000;fill-opacity:1;stroke:none"><tspan x="-92" y="134.0">iterations: 179</tspan></text><text id="text1217" x="-92" y="139.5" style="font-style:normal;font-weight:normal;font-size:4px;font-family:sans-serif;fill:#000000;fill-opacity:1;stroke:none"><tspan x="-92" y="139.5">adjustments: side 0.011, neighbor -0.009</tspan></text><text id="text1218" x="-92" y="145.0" style="font-style:normal;font-weight:normal;font-size:4px;font-family:sans-serif;fill:#000000;fill-opacity:1;stroke:none"><tspan x="-92" y="145.0">closeness: 0.9, adjust -0.013</tspan></text><text id="text1219" x="-1.5" y="-82" style="font-style:normal;font-weight:normal;font-size:4px;font-family:sans-serif;fill:#000000;fill-opacity:1;stroke:none"><tspan x="-1.5" y="-82">L</tspan></text><text id="text1220" x="-1.5" y="-82" style="font-style:normal;font-weight:normal;font-size:4px;font-family:sans-serif;fill:#000000;fill-opacity:1;stroke:none" transform="rotate(60)"><tspan x="-1.5" y="-82">L</tspan></text><text id="text1221" x="-1.5" y="-82" style="font-style:normal;font-weight:normal;font-size:4px;font-family:sans-serif;fill:#000000;fill-opacity:1;stroke:none" transform="rotate(120)"><tspan x="-1.5" y="-82">L</tspan></text><text id="text1222" x="-1.5" y="-82" style="font-style:normal;font-weight:normal;font-size:4px;font-family:sans-serif;fill:#000000;fill-opacity:1;stroke:none" transform="rotate(180)"><tspan x="-1.5" y="-82">M</tspan></text><text id="text1223" x="-1.5" y="-82" style="font-style:normal;font-weight:normal;font-size:4px;font-family:sans-serif;fill:#000000;fill-opacity:1;stroke:none" transform="rotate(240)"><tspan x="-1.5" y="-82">L</tspan></text><text id="text1224" x="-1.5" y="-82" style="font-style:normal;font-weight:normal;font-size:4px;font-family:sans-serif;fill:#000000;fill-opacity:1;stroke:none" transform="rotate(300)"><tspan x="-1.5" y="-82">M</tspan></text><g id="node1225" transform="rotate(30)"><text id="text1226" x="-1.5" y="-72.28203230275508" style="font-style:normal;font-weight:normal;font-size:4px;font-family:sans-serif;fill:#000000;fill-opacity:1;stroke:none"><tspan x="-1.5" y="-72.28203230275508">L</tspan></text></g><g id="node1227" transform="rotate(90)"><text id="text1228" x="-1.5" y="-72.28203230275508" style="font-style:normal;font-weight:normal;font-size:4px;font-family:sans-serif;fill:#000000;fill-opacity:1;stroke:none"><tspan x="-1.5" y="-72.28203230275508">L</tspan></text></g><g id="node1229" transform="rotate(150)"><text id="text1230" x="-15.099999999999998" y="-72.28203230275508" style="font-style:normal;font-weight:normal;font-size:4px;font-family:sans-serif;fill:#000000;fill-opacity:1;stroke:none"><tspan x="-15.099999999999998" y="-72.28203230275508">L</tspan></text><text id="text1231" x="15.299999999999997" y="-72.28203230275508" style="font-style:normal;font-weight:normal;font-size:4px;font-family:sans-serif;fill:#000000;fill-opacity:1;stroke:none"><tspan x="15.299999999999997" y="-72.28203230275508">L</tspan></text></g><g id="node1232" transform="rotate(210)"><text id="text1233" x="-18.299999999999997" y="-72.28203230275508" style="font-style:normal;font-weight:normal;font-size:4px;font-family:sans-serif;fill:#000000;fill-opacity:1;stroke:none"><tspan x="-18.299999999999997" y="-72.28203230275508">L</tspan></text><text id="text1234" x="12.099999999999994" y="-72.28203230275508" style="font-style:normal;font-weight:normal;font-size:4px;font-family:sans-serif;fill:#000000;fill-opacity:1;stroke:none"><tspan x="12.099999999999994" y="-72.28203230275508">L</tspan></text></g><g id="node1235" transform="rotate(270)"><text id="text1236" x="-15.099999999999998" y="-72.28203230275508" style="font-style:normal;font-weight:normal;font-size:4px;font-family:sans-serif;fill:#000000;fill-opacity:1;stroke:none"><tspan x="-15.099999999999998" y="-72.28203230275508">L</tspan></text><text id="text1237" x="15.299999999999997" y="-72.28203230275508" style="font-style:normal;font-weight:normal;font-size:4px;font-family:sans-serif;fill:#000000;fill-opacity:1;stroke:none"><tspan x="15.299999999999997" y="-72.28203230275508">L</tspan></text></g><g id="node1238" transform="rotate(330)"><text id="text1239" x="-18.299999999999997" y="-72.28203230275508" style="font-style:normal;font-weight:normal;font-size:4px;font-family:sans-serif;fill:#000000;fill-opacity:1;stroke:none"><tspan x="-18.299999999999997" y="-72.28203230275508">L</tspan></text><text id="text1240" x="12.099999999999994" y="-72.28203230275508" style="font-style:normal;font-weight:normal;font-size:4px;font-family:sans-serif;fill:#000000;fill-opacity:1;stroke:none"><tspan x="12.099999999999994" y="-72.28203230275508">L</tspan></text></g><g id="node1241" transform="rotate(150)"><rect id="rect1242" x="-28.299999999999997" y="-77.28203230275508" width="3" height="8" style="fill:#a2c6ff;stroke:#000000;stroke-width:0.3" /><text id="text1243" x="-28.299999999999997" y="-79.28203230275508" style="font-style:normal;font-weight:normal;font-size:4px;font-family:sans-serif;fill:#000000;fill-opacity:1;stroke:none"><tspan x="-28.299999999999997" y="-79.28203230275508">R</tspan></text></g><g id="node1244" transform="rotate(210)"><rect id="rect1245" x="25.299999999999997" y="-77.28203230275508" width="3" height="8" style="fill:#a2c6ff;stroke:#000000;stroke-width:0.3" /><text id="text1246" x="25.299999999999997" y="-79.28203230275508" style="font-style:normal;font-weight:normal;font-size:4px;font-family:sans-serif;fill:#000000;fill-opacity:1;stroke:none"><tspan x="25.299999999999997" y="-79.28203230275508">R</tspan></text></g><g id="node1247" transform="rotate(270)"><rect id="rect1248" x="-28.299999999999997" y="-77.28203230275508" width="3" height="8" style="fill:#a2c6ff;stroke:#000000;stroke-width:0.3" /><text id="text1249" x="-28.299999999999997" y="-79.28203230275508" style="font-style:normal;font-weight:normal;font-size:4px;font-family:sans-serif;fill:#000000;fill-opacity:1;stroke:none"><tspan x="-28.299999999999997" y="-79.28203230275508">R</tspan></text></g><g id="node1250" transform="rotate(330)"><rect id="rect1251" x="25.299999999999997" y="-77.28203230275508" width="3" height="8" style="fill:#a2c6ff;stroke:#000000;stroke-width:0.3" /><text id="text1252" x="25.299999999999997" y="-79.28203230275508" style="font-style:normal;font-weight:normal;font-size:4px;font-family:sans-serif;fill:#000000;fill-opacity:1;stroke:none"><tspan x="25.299999999999997" y="-79.28203230275508">R</tspan></text></g><circle id="mana" cx="50" cy="110" r="7.5" style="fill:#000000;stroke:none;stroke-width:0" /><rect id="rect1253" x="75" y="90" width="15" height="6" style="fill:#be850a;stroke:#000000;stroke-width:0.3" /><text id="text1254" x="70" y="94.5" style="font-style:normal;font-weight:normal;font-size:4px;font-family:sans-serif;fill:#000000;fill-opacity:1;stroke:none"><tspan x="70" y="94.5">V</tspan></text><rect id="rect1255" x="75" y="100" width="15" height="6" style="fill:#e7a311;stroke:#000000;stroke-width:0.3" /><text id="text1256" x="70" y="104.5" style="font-style:normal;font-weight:normal;font-size:4px;font-family:sans-serif;fill:#000000;fill-opacity:1;stroke:none"><tspan x="70" y="104.5">H</tspan></text><rect id="rect1257" x="75" y="110" width="15" height="6" style="fill:#f0ce76;stroke:#000000;stroke-width:0.3" /><text id="text1258" x="70" y="114.5" style="font-style:normal;font-weight:normal;font-size:4px;font-family:sans-serif;fill:#000000;fill-opacity:1;stroke:none"><tspan x="70" y="114.5">M</tspan></text><rect id="rect1259" x="75" y="120" width="15" height="6" style="fill:#f0eaac;stroke:#000000;stroke-width:0.3" /><text id="text1260" x="70" y="124.5" style="font-style:normal;font-weight:normal;font-size:4px;font-family:sans-serif;fill:#000000;fill-opacity:1;stroke:none"><tspan x="70" y="124.5">L</tspan></text><rect id="rect1261" x="75" y="130" width="15" height="6" style="fill:#a2c6ff;stroke:#000000;stroke-width:0.3" /><text id="text1262" x="70" y="134.5" style="font-style:normal;font-weight:normal;font-size:4px;font-family:sans-serif;fill:#000000;fill-opacity:1;stroke:none"><tspan x="70" y="134.5">R</tspan></text></g><g id="river-border" inkscape:label="River Border" inkscape:groupmode="layer"><g id="river-border-group" clip-path="url(#clippath-1264)"><path id="path1267" d="m 39.7007 -37.3388 -14.375 14.3413 z" style="fill:none;stroke:#000000;stroke-width:2.6;stroke-linecap:round;stroke-linejoin:round" /><path id="path1268" d="m 50.206 -36.7432 14.2794 -19.0107 z" style="fill:none;stroke:#000000;stroke-width:2.6;stroke-linecap:round;stroke-linejoin:round" /><path id="path1269" d="m 39.7007 -37.3388 10.5053 0.595572 z" style="fill:none;stroke:#000000;stroke-width:2.6;stroke-linecap:round;stroke-linejoin:round" /><path id="path1270" d="m 18.4289 19.8643 13.5951 -7.54983 z" style="fill:none;stroke:#000000;stroke-width:2.6;stroke-linecap:round;stroke-linejoin:round" /><path id="path1271" d="m 32.024 12.3145 0.3867 -18.3539 z" style="fill:none;stroke:#000000;stroke-width:2.6;stroke-linecap:round;stroke-linejoin:round" /><path id="path1272" d="m 25.4767 -14.1299 6.93406 8.09048 z" style="fill:none;stroke:#000000;stroke-width:2.6;stroke-linecap:round;stroke-linejoin:round" /><path id="path1273" d="m 17.3064 39.4726 1.12248 -19.6083 z" style="fill:none;stroke:#000000;stroke-width:2.6;stroke-linecap:round;stroke-linejoin:round" /><path id="path1274" d="m 17.3064 39.4726 -25.1305 -2.42815 z" style="fill:none;stroke:#000000;stroke-width:2.6;stroke-linecap:round;stroke-linejoin:round" /><path id="path1275" d="m 25.3257 -22.9975 0.151004 8.86756 z" style="fill:none;stroke:#000000;stroke-width:2.6;stroke-linecap:round;stroke-linejoin:round" /><path id="path1276" d="m -13.7557 49.0734 8.67273 15.5539 z" style="fill:none;stroke:#000000;stroke-width:2.6;stroke-linecap:round;stroke-linejoin:round" /><path id="path1277" d="m -5.08293 64.6273 -12.6409 16.8293 z" style="fill:none;stroke:#000000;stroke-width:2.6;stroke-linecap:round;stroke-linejoin:round" /><path id="path1278" d="m -7.82408 37.0445 -5.93158 12.0289 z" style="fill:none;stroke:#000000;stroke-width:2.6;stroke-linecap:round;stroke-linejoin:round" /><path id="path1279" d="m -60.2635 -25.5129 5.51906 -3.74649 z" style="fill:none;stroke:#000000;stroke-width:2.6;stroke-linecap:round;stroke-linejoin:round" /><path id="path1280" d="m -60.2635 -25.5129 -20.2635 -2.45618 z" style="fill:none;stroke:#000000;stroke-width:2.6;stroke-linecap:round;stroke-linejoin:round" /><path id="path1281" d="m -61.6816 -56.0776 8.82399 20.6988 z" style="fill:none;stroke:#000000;stroke-width:2.6;stroke-linecap:round;stroke-linejoin:round" /><path id="path1282" d="m -52.8576 -35.3788 -1.88687 6.11943 z" style="fill:none;stroke:#000000;stroke-width:2.6;stroke-linecap:round;stroke-linejoin:round" /></g></g><g id="river" inkscape:label="River" inkscape:groupmode="layer"><g id="river-group" clip-path="url(#clippath-1266)"><path id="path1267" d="m 39.7007 -37.3388 -14.375 14.3413 z" style="fill:none;stroke:#a2c6ff;stroke-width:2.0;stroke-linecap:round;stroke-linejoin:round" /><path id="path1268" d="m 50.206 -36.7432 14.2794 -19.0107 z" style="fill:none;stroke:#a2c6ff;stroke-width:2.0;stroke-linecap:round;stroke-linejoin:round" /><path id="path1269" d="m 39.7007 -37.3388 10.5053 0.595572 z" style="fill:none;stroke:#a2c6ff;stroke-width:2.0;stroke-linecap:round;stroke-linejoin:round" /><path id="path1270" d="m 18.4289 19.8643 13.5951 -7.54983 z" style="fill:none;stroke:#a2c6ff;stroke-width:2.0;stroke-linecap:round;stroke-linejoin:round" /><path id="path1271" d="m 32.024 12.3145 0.3867 -18.3539 z" style="fill:none;stroke:#a2c6ff;stroke-width:2.0;stroke-linecap:round;stroke-linejoin:round" /><path id="path1272" d="m 25.4767 -14.1299 6.93406 8.09048 z" style="fill:none;stroke:#a2c6ff;stroke-width:2.0;stroke-linecap:round;stroke-linejoin:round" /><path id="path1273" d="m 17.3064 39.4726 1.12248 -19.6083 z" style="fill:none;stroke:#a2c6ff;stroke-width:2.0;stroke-linecap:round;stroke-linejoin:round" /><path id="path1274" d="m 17.3064 39.4726 -25.1305 -2.42815 z" style="fill:none;stroke:#a2c6ff;stroke-width:2.0;stroke-linecap:round;stroke-linejoin:round" /><path id="path1275" d="m 25.3257 -22.9975 0.151004 8.86756 z" style="fill:none;stroke:#a2c6ff;stroke-width:2.0;stroke-linecap:round;stroke-linejoin:round" /><path id="path1276" d="m -13.7557 49.0734 8.67273 15.5539 z" style="fill:none;stroke:#a2c6ff;stroke-width:2.0;stroke-linecap:round;stroke-linejoin:round" /><path id="path1277" d="m -5.08293 64.6273 -12.6409 16.8293 z" style="fill:none;stroke:#a2c6ff;stroke-width:2.0;stroke-linecap:round;stroke-linejoin:round" /><path id="path1278" d="m -7.82408 37.0445 -5.93158 12.0289 z" style="fill:none;stroke:#a2c6ff;stroke-width:2.0;stroke-linecap:round;stroke-linejoin:round" /><path id="path1279" d="m -60.2635 -25.5129 5.51906 -3.74649 z" style="fill:none;stroke:#a2c6ff;stroke-width:2.0;stroke-linecap:round;stroke-linejoin:round" /><path id="path1280" d="m -60.2635 -25.5129 -20.2635 -2.45618 z" style="fill:none;stroke:#a2c6ff;stroke-width:2.0;stroke-linecap:round;stroke-linejoin:round" /><path id="path1281" d="m -61.6816 -56.0776 8.82399 20.6988 z" style="fill:none;stroke:#a2c6ff;stroke-width:2.0;stroke-linecap:round;stroke-linejoin:round" /><path id="path1282" d="m -52.8576 -35.3788 -1.88687 6.11943 z" style="fill:none;stroke:#a2c6ff;stroke-width:2.0;stroke-linecap:round;stroke-linejoin:round" /></g></g><g id="overlay" inkscape:label="Overlay" inkscape:groupmode="layer" transform="scale(1,-1)"><ns0:path ns1:nodetypes="ccccc" ns2:connector-curvature="0" id="obj-bridge" d="m -1.3629478,2.973799 c 0.6829002,-2.17565439 0.68923869,-3.60295062 0.015075,-5.9083917 l 2.8035417,0.00714 C 0.73648446,-0.63363961 0.73738591,0.81474035 1.4406036,2.9809656 Z" style="display:inline;fill:#000000;fill-opacity:1;stroke:none;stroke-width:2.14313;stroke-linecap:round;stroke-miterlimit:4;stroke-dasharray:2.14313, 4.28625;stroke-dashoffset:0;stroke-opacity:1" transform="translate(32.51320531517917 30.168130695309756) rotate(44.93261901828299)" />
  <ns0:path ns1:nodetypes="cccccccccccccccc" style="display:inline;fill:#5ba22d;fill-opacity:1;fill-rule:evenodd;stroke:#000000;stroke-width:0.7;stroke-linecap:round;stroke-linejoin:round;stroke-dasharray:none;stroke-opacity:1" d="m -0.11754863,-3.5938692 -1.51308197,1.919478 0.90784897,0.1234394 -1.14277797,1.86485304 0.87624741,0.0811789 -0.98717141,2.11215816 1.45917122,-0.2697811 0.00913,0.8116163 H 0.63276386 L 0.62289412,2.1922623 1.9571211,2.4168533 0.88373104,0.40905041 1.7837593,0.33762228 0.57239737,-1.6512284 1.4352893,-1.762644 Z" id="obj-tree1" ns2:connector-curvature="0" transform="translate(58.282032302755084 -38.0)" />
  <ns0:path ns1:nodetypes="cccccccccccccccc" style="display:inline;fill:#5ba22d;fill-opacity:1;fill-rule:evenodd;stroke:#000000;stroke-width:0.7;stroke-linecap:round;stroke-linejoin:round;stroke-dasharray:none;stroke-opacity:1" d="m -0.11754863,-3.5938692 -1.51308197,1.919478 0.90784897,0.1234394 -1.14277797,1.86485304 0.87624741,0.0811789 -0.98717141,2.11215816 1.45917122,-0.2697811 0.00913,0.8116163 H 0.63276386 L 0.62289412,2.1922623 1.9571211,2.4168533 0.88373104,0.40905041 1.7837593,0.33762228 0.57239737,-1.6512284 1.4352893,-1.762644 Z" id="obj-tree1" ns2:connector-curvature="0" transform="translate(64.28203230275508 -31.0)" />
  <ns0:path ns1:nodetypes="cccccccccccccccc" style="display:inline;fill:#5ba22d;fill-opacity:1;fill-rule:evenodd;stroke:#000000;stroke-width:0.7;stroke-linecap:round;stroke-linejoin:round;stroke-dasharray:none;stroke-opacity:1" d="m -0.11754863,-3.5938692 -1.51308197,1.919478 0.90784897,0.1234394 -1.14277797,1.86485304 0.87624741,0.0811789 -0.98717141,2.11215816 1.45917122,-0.2697811 0.00913,0.8116163 H 0.63276386 L 0.62289412,2.1922623 1.9571211,2.4168533 0.88373104,0.40905041 1.7837593,0.33762228 0.57239737,-1.6512284 1.4352893,-1.762644 Z" id="obj-tree1" ns2:connector-curvature="0" transform="translate(62.282032302755084 35.0)" />
  <ns0:path style="display:inline;fill:#5ba22d;fill-opacity:1;fill-rule:evenodd;stroke:#000000;stroke-width:0.7;stroke-linecap:round;stroke-linejoin:round;stroke-dasharray:none;stroke-opacity:1" d="m -0.17067971,-5.0753774 -1.75261489,3.0262859 0.8024176,0.028472 -1.1479124,3.1523128 0.9279943,-0.023195 -1.0490969,2.6640674 1.89541622,-0.2588784 0.0251775,0.86149 H 0.47941659 L 0.45423909,3.5136881 2.3758854,3.8500731 1.2249508,1.1891557 l 0.9007594,0.051666 -1.37638922,-3.2108035 0.85286092,0.02585 z" id="obj-tree3" ns2:connector-curvature="0" ns1:nodetypes="cccccccccccccccc" transform="translate(-38.8189616428459 49.4287187078898)" />
  <ns0:path ns1:nodetypes="cccccccccccccccc" style="display:inline;fill:#5ba22d;fill-opacity:1;fill-rule:evenodd;stroke:#000000;stroke-width:0.7;stroke-linecap:round;stroke-linejoin:round;stroke-dasharray:none;stroke-opacity:1" d="m -0.11754863,-3.5938692 -1.51308197,1.919478 0.90784897,0.1234394 -1.14277797,1.86485304 0.87624741,0.0811789 -0.98717141,2.11215816 1.45917122,-0.2697811 0.00913,0.8116163 H 0.63276386 L 0.62289412,2.1922623 1.9571211,2.4168533 0.88373104,0.40905041 1.7837593,0.33762228 0.57239737,-1.6512284 1.4352893,-1.762644 Z" id="obj-tree1" ns2:connector-curvature="0" transform="translate(-47.8189616428459 45.4287187078898)" />
  <ns0:path ns1:nodetypes="cccccccccccccccc" style="display:inline;fill:#5ba22d;fill-opacity:1;fill-rule:evenodd;stroke:#000000;stroke-width:0.7;stroke-linecap:round;stroke-linejoin:round;stroke-dasharray:none;stroke-opacity:1" d="m -0.11754863,-3.5938692 -1.51308197,1.919478 0.90784897,0.1234394 -1.14277797,1.86485304 0.87624741,0.0811789 -0.98717141,2.11215816 1.45917122,-0.2697811 0.00913,0.8116163 H 0.63276386 L 0.62289412,2.1922623 1.9571211,2.4168533 0.88373104,0.40905041 1.7837593,0.33762228 0.57239737,-1.6512284 1.4352893,-1.762644 Z" id="obj-tree1" ns2:connector-curvature="0" transform="translate(-62.88203230275508 -20.799999999999997)" />
  <ns0:path ns1:nodetypes="cccccccccccccccc" style="display:inline;fill:#5ba22d;fill-opacity:1;fill-rule:evenodd;stroke:#000000;stroke-width:0.7;stroke-linecap:round;stroke-linejoin:round;stroke-dasharray:none;stroke-opacity:1" d="m -0.11754863,-3.5938692 -1.51308197,1.919478 0.90784897,0.1234394 -1.14277797,1.86485304 0.87624741,0.0811789 -0.98717141,2.11215816 1.45917122,-0.2697811 0.00913,0.8116163 H 0.63276386 L 0.62289412,2.1922623 1.9571211,2.4168533 0.88373104,0.40905041 1.7837593,0.33762228 0.57239737,-1.6512284 1.4352893,-1.762644 Z" id="obj-tree1" ns2:connector-curvature="0" transform="translate(-60.88203230275508 -10.799999999999997)" />
  <ns0:path ns2:connector-curvature="0" id="obj-tree4" d="m 0.02668703,-5.9619146 -2.09811723,3.282356 1.0029208,0.1521268 L -3.0225036,0.99947393 -1.547374,0.90155468 -3.2093694,4.3782552 -0.54442427,3.9810758 -0.82976707,5.1244031 1.024844,5.0746938 0.73952693,4.0307847 3.2104285,4.2788337 1.5479561,0.95326125 2.9726722,1.0476884 1.0210344,-2.5294321 2.2127515,-2.5811391 Z" style="display:inline;fill:#5ba22d;fill-opacity:1;fill-rule:evenodd;stroke:#000000;stroke-width:0.7;stroke-linecap:butt;stroke-linejoin:round;stroke-dasharray:none;stroke-opacity:1" ns1:nodetypes="cccccccccccccccc" transform="translate(-16.263070659909182 -60.028718707889794)" />
  <ns0:path ns1:nodetypes="cccccccccccccccc" style="display:inline;fill:#5ba22d;fill-opacity:1;fill-rule:evenodd;stroke:#000000;stroke-width:0.7;stroke-linecap:round;stroke-linejoin:round;stroke-dasharray:none;stroke-opacity:1" d="m -0.11754863,-3.5938692 -1.51308197,1.919478 0.90784897,0.1234394 -1.14277797,1.86485304 0.87624741,0.0811789 -0.98717141,2.11215816 1.45917122,-0.2697811 0.00913,0.8116163 H 0.63276386 L 0.62289412,2.1922623 1.9571211,2.4168533 0.88373104,0.40905041 1.7837593,0.33762228 0.57239737,-1.6512284 1.4352893,-1.762644 Z" id="obj-tree1" ns2:connector-curvature="0" transform="translate(-24.263070659909182 -60.028718707889794)" />
  <ns0:path ns2:connector-curvature="0" id="obj-tree4" d="m 0.02668703,-5.9619146 -2.09811723,3.282356 1.0029208,0.1521268 L -3.0225036,0.99947393 -1.547374,0.90155468 -3.2093694,4.3782552 -0.54442427,3.9810758 -0.82976707,5.1244031 1.024844,5.0746938 0.73952693,4.0307847 3.2104285,4.2788337 1.5479561,0.95326125 2.9726722,1.0476884 1.0210344,-2.5294321 2.2127515,-2.5811391 Z" style="display:inline;fill:#5ba22d;fill-opacity:1;fill-rule:evenodd;stroke:#000000;stroke-width:0.7;stroke-linecap:butt;stroke-linejoin:round;stroke-dasharray:none;stroke-opacity:1" ns1:nodetypes="cccccccccccccccc" transform="translate(-2.8848332438673943 55.89816851174655)" />
  <ns0:path ns1:nodetypes="cccccccccccccccc" style="display:inline;fill:#5ba22d;fill-opacity:1;fill-rule:evenodd;stroke:#000000;stroke-width:0.7;stroke-linecap:round;stroke-linejoin:round;stroke-dasharray:none;stroke-opacity:1" d="m -0.06765203,-4.389909 -1.62369897,2.3766988 0.83957497,0.1115608 -1.12383527,2.13200681 0.9140676,0.0246987 -1.2554238,2.79163369 1.88001547,-0.4347033 -0.1025277,0.8737981 h 1.1508144 L 0.50670157,2.6655719 2.3908972,2.937327 0.92673727,0.37297512 1.9739956,0.36732364 0.71541647,-1.8972641 1.5523539,-2.0115734 Z" id="obj-tree2" ns2:connector-curvature="0" transform="translate(-12.884833243867394 47.89816851174655)" />
  <ns0:path ns1:nodetypes="cccccccccccccccc" style="display:inline;fill:#5ba22d;fill-opacity:1;fill-rule:evenodd;stroke:#000000;stroke-width:0.7;stroke-linecap:round;stroke-linejoin:round;stroke-dasharray:none;stroke-opacity:1" d="m -0.11754863,-3.5938692 -1.51308197,1.919478 0.90784897,0.1234394 -1.14277797,1.86485304 0.87624741,0.0811789 -0.98717141,2.11215816 1.45917122,-0.2697811 0.00913,0.8116163 H 0.63276386 L 0.62289412,2.1922623 1.9571211,2.4168533 0.88373104,0.40905041 1.7837593,0.33762228 0.57239737,-1.6512284 1.4352893,-1.762644 Z" id="obj-tree1" ns2:connector-curvature="0" transform="translate(-5.884833243867394 43.89816851174655)" />
  <ns0:path ns1:nodetypes="cccccccccccccccc" style="display:inline;fill:#5ba22d;fill-opacity:1;fill-rule:evenodd;stroke:#000000;stroke-width:0.7;stroke-linecap:round;stroke-linejoin:round;stroke-dasharray:none;stroke-opacity:1" d="m -0.11754863,-3.5938692 -1.51308197,1.919478 0.90784897,0.1234394 -1.14277797,1.86485304 0.87624741,0.0811789 -0.98717141,2.11215816 1.45917122,-0.2697811 0.00913,0.8116163 H 0.63276386 L 0.62289412,2.1922623 1.9571211,2.4168533 0.88373104,0.40905041 1.7837593,0.33762228 0.57239737,-1.6512284 1.4352893,-1.762644 Z" id="obj-tree1" ns2:connector-curvature="0" transform="translate(39.67972324216603 -10.007924560759022)" />
  <ns0:path ns1:nodetypes="cccccccccccccccc" style="display:inline;fill:#5ba22d;fill-opacity:1;fill-rule:evenodd;stroke:#000000;stroke-width:0.7;stroke-linecap:round;stroke-linejoin:round;stroke-dasharray:none;stroke-opacity:1" d="m -0.06765203,-4.389909 -1.62369897,2.3766988 0.83957497,0.1115608 -1.12383527,2.13200681 0.9140676,0.0246987 -1.2554238,2.79163369 1.88001547,-0.4347033 -0.1025277,0.8737981 h 1.1508144 L 0.50670157,2.6655719 2.3908972,2.937327 0.92673727,0.37297512 1.9739956,0.36732364 0.71541647,-1.8972641 1.5523539,-2.0115734 Z" id="obj-tree2" ns2:connector-curvature="0" transform="translate(43.67972324216603 -0.00792456075902237)" />
  <ns0:path ns1:nodetypes="cccccccccccccccc" style="display:inline;fill:#5ba22d;fill-opacity:1;fill-rule:evenodd;stroke:#000000;stroke-width:0.7;stroke-linecap:round;stroke-linejoin:round;stroke-dasharray:none;stroke-opacity:1" d="m -0.11754863,-3.5938692 -1.51308197,1.919478 0.90784897,0.1234394 -1.14277797,1.86485304 0.87624741,0.0811789 -0.98717141,2.11215816 1.45917122,-0.2697811 0.00913,0.8116163 H 0.63276386 L 0.62289412,2.1922623 1.9571211,2.4168533 0.88373104,0.40905041 1.7837593,0.33762228 0.57239737,-1.6512284 1.4352893,-1.762644 Z" id="obj-tree1" ns2:connector-curvature="0" transform="translate(49.67972324216603 -8.007924560759022)" />
  <ns0:path ns2:connector-curvature="0" id="obj-tree4" d="m 0.02668703,-5.9619146 -2.09811723,3.282356 1.0029208,0.1521268 L -3.0225036,0.99947393 -1.547374,0.90155468 -3.2093694,4.3782552 -0.54442427,3.9810758 -0.82976707,5.1244031 1.024844,5.0746938 0.73952693,4.0307847 3.2104285,4.2788337 1.5479561,0.95326125 2.9726722,1.0476884 1.0210344,-2.5294321 2.2127515,-2.5811391 Z" style="display:inline;fill:#5ba22d;fill-opacity:1;fill-rule:evenodd;stroke:#000000;stroke-width:0.7;stroke-linecap:butt;stroke-linejoin:round;stroke-dasharray:none;stroke-opacity:1" ns1:nodetypes="cccccccccccccccc" transform="translate(22.646116740054342 -1.4383518618006432)" />
  <ns0:path ns1:nodetypes="cccccccccccccccc" style="display:inline;fill:#5ba22d;fill-opacity:1;fill-rule:evenodd;stroke:#000000;stroke-width:0.7;stroke-linecap:round;stroke-linejoin:round;stroke-dasharray:none;stroke-opacity:1" d="m -0.11754863,-3.5938692 -1.51308197,1.919478 0.90784897,0.1234394 -1.14277797,1.86485304 0.87624741,0.0811789 -0.98717141,2.11215816 1.45917122,-0.2697811 0.00913,0.8116163 H 0.63276386 L 0.62289412,2.1922623 1.9571211,2.4168533 0.88373104,0.40905041 1.7837593,0.33762228 0.57239737,-1.6512284 1.4352893,-1.762644 Z" id="obj-tree1" ns2:connector-curvature="0" transform="translate(14.646116740054342 -7.438351861800643)" />
  <ns0:path ns2:connector-curvature="0" id="obj-tree4" d="m 0.02668703,-5.9619146 -2.09811723,3.282356 1.0029208,0.1521268 L -3.0225036,0.99947393 -1.547374,0.90155468 -3.2093694,4.3782552 -0.54442427,3.9810758 -0.82976707,5.1244031 1.024844,5.0746938 0.73952693,4.0307847 3.2104285,4.2788337 1.5479561,0.95326125 2.9726722,1.0476884 1.0210344,-2.5294321 2.2127515,-2.5811391 Z" style="display:inline;fill:#5ba22d;fill-opacity:1;fill-rule:evenodd;stroke:#000000;stroke-width:0.7;stroke-linecap:butt;stroke-linejoin:round;stroke-dasharray:none;stroke-opacity:1" ns1:nodetypes="cccccccccccccccc" transform="translate(1.2998209262205158 -21.84619095828087)" />
  <ns0:path ns2:connector-curvature="0" id="obj-tree4" d="m 0.02668703,-5.9619146 -2.09811723,3.282356 1.0029208,0.1521268 L -3.0225036,0.99947393 -1.547374,0.90155468 -3.2093694,4.3782552 -0.54442427,3.9810758 -0.82976707,5.1244031 1.024844,5.0746938 0.73952693,4.0307847 3.2104285,4.2788337 1.5479561,0.95326125 2.9726722,1.0476884 1.0210344,-2.5294321 2.2127515,-2.5811391 Z" style="display:inline;fill:#5ba22d;fill-opacity:1;fill-rule:evenodd;stroke:#000000;stroke-width:0.7;stroke-linecap:butt;stroke-linejoin:round;stroke-dasharray:none;stroke-opacity:1" ns1:nodetypes="cccccccccccccccc" transform="translate(10.299820926220516 -29.84619095828087)" />
  </g><g id="region_ids" inkscape:label="Region Ids" inkscape:groupmode="layer" style="display:none" transform="scale(1,-1)"><text id="text1283" x="-1.4" y="-80.0" style="font-style:normal;font-weight:normal;font-size:4px;font-family:sans-serif;fill:#000000;fill-opacity:1;stroke:none"><tspan x="-1.4" y="-80.0">0</tspan></text><text id="text1284" x="67.88203230275508" y="-40.0" style="font-style:normal;font-weight:normal;font-size:4px;font-family:sans-serif;fill:#000000;fill-opacity:1;stroke:none"><tspan x="67.88203230275508" y="-40.0">1</tspan></text><text id="text1285" x="67.88203230275508" y="40.0" style="font-style:normal;font-weight:normal;font-size:4px;font-family:sans-serif;fill:#000000;fill-opacity:1;stroke:none"><tspan x="67.88203230275508" y="40.0">2</tspan></text><text id="text1286" x="-1.4" y="80.0" style="font-style:normal;font-weight:normal;font-size:4px;font-family:sans-serif;fill:#000000;fill-opacity:1;stroke:none"><tspan x="-1.4" y="80.0">3</tspan></text><text id="text1287" x="-70.68203230275509" y="40.0" style="font-style:normal;font-weight:normal;font-size:4px;font-family:sans-serif;fill:#000000;fill-opacity:1;stroke:none"><tspan x="-70.68203230275509" y="40.0">4</tspan></text><text id="text1288" x="-70.68203230275509" y="-40.0" style="font-style:normal;font-weight:normal;font-size:4px;font-family:sans-serif;fill:#000000;fill-opacity:1;stroke:none"><tspan x="-70.68203230275509" y="-40.0">5</tspan></text><text id="text1289" x="33.24101615137754" y="-60.0" style="font-style:normal;font-weight:normal;font-size:4px;font-family:sans-serif;fill:#000000;fill-opacity:1;stroke:none"><tspan x="33.24101615137754" y="-60.0">6</tspan></text><text id="text1290" x="67.88203230275508" y="-0.0" style="font-style:normal;font-weight:normal;font-size:4px;font-family:sans-serif;fill:#000000;fill-opacity:1;stroke:none"><tspan x="67.88203230275508" y="-0.0">7</tspan></text><text id="text1291" x="46.6189616428459" y="55.971281292110206" style="font-style:normal;font-weight:normal;font-size:4px;font-family:sans-serif;fill:#000000;fill-opacity:1;stroke:none"><tspan x="46.6189616428459" y="55.971281292110206">8</tspan></text><text id="text1292" x="17.491789367798976" y="66.32153903091735" style="font-style:normal;font-weight:normal;font-size:4px;font-family:sans-serif;fill:#000000;fill-opacity:1;stroke:none"><tspan x="17.491789367798976" y="66.32153903091735">9</tspan></text><text id="text1293" x="-22.691789367798975" y="70.47846096908266" style="font-style:normal;font-weight:normal;font-size:4px;font-family:sans-serif;fill:#000000;fill-opacity:1;stroke:none"><tspan x="-22.691789367798975" y="70.47846096908266">10</tspan></text><text id="text1294" x="-46.2189616428459" y="50.4287187078898" style="font-style:normal;font-weight:normal;font-size:4px;font-family:sans-serif;fill:#000000;fill-opacity:1;stroke:none"><tspan x="-46.2189616428459" y="50.4287187078898">11</tspan></text><text id="text1295" x="-73.88203230275509" y="13.599999999999998" style="font-style:normal;font-weight:normal;font-size:4px;font-family:sans-serif;fill:#000000;fill-opacity:1;stroke:none"><tspan x="-73.88203230275509" y="13.599999999999998">12</tspan></text><text id="text1296" x="-68.28203230275508" y="-16.799999999999997" style="font-style:normal;font-weight:normal;font-size:4px;font-family:sans-serif;fill:#000000;fill-opacity:1;stroke:none"><tspan x="-68.28203230275508" y="-16.799999999999997">13</tspan></text><text id="text1297" x="-51.790242934956105" y="-53.67846096908266" style="font-style:normal;font-weight:normal;font-size:4px;font-family:sans-serif;fill:#000000;fill-opacity:1;stroke:none"><tspan x="-51.790242934956105" y="-53.67846096908266">14</tspan></text><text id="text1298" x="-22.66307065990918" y="-64.0287187078898" style="font-style:normal;font-weight:normal;font-size:4px;font-family:sans-serif;fill:#000000;fill-opacity:1;stroke:none"><tspan x="-22.66307065990918" y="-64.0287187078898">15</tspan></text><text id="text1299" x="-51.52819165492774" y="11.783905292912342" style="font-style:normal;font-weight:normal;font-size:4px;font-family:sans-serif;fill:#000000;fill-opacity:1;stroke:none"><tspan x="-51.52819165492774" y="11.783905292912342">16</tspan></text><text id="text1300" x="-9.284833243867395" y="53.89816851174655" style="font-style:normal;font-weight:normal;font-size:4px;font-family:sans-serif;fill:#000000;fill-opacity:1;stroke:none"><tspan x="-9.284833243867395" y="53.89816851174655">17</tspan></text><text id="text1301" x="29.3895820728073" y="-27.305357003828664" style="font-style:normal;font-weight:normal;font-size:4px;font-family:sans-serif;fill:#000000;fill-opacity:1;stroke:none"><tspan x="29.3895820728073" y="-27.305357003828664">18</tspan></text><text id="text1302" x="44.27972324216603" y="-6.007924560759022" style="font-style:normal;font-weight:normal;font-size:4px;font-family:sans-serif;fill:#000000;fill-opacity:1;stroke:none"><tspan x="44.27972324216603" y="-6.007924560759022">19</tspan></text><text id="text1303" x="1.5130638666892646" y="-50.54828222106636" style="font-style:normal;font-weight:normal;font-size:4px;font-family:sans-serif;fill:#000000;fill-opacity:1;stroke:none"><tspan x="1.5130638666892646" y="-50.54828222106636">20</tspan></text><text id="text1304" x="-38.082660101224256" y="29.948273381932427" style="font-style:normal;font-weight:normal;font-size:4px;font-family:sans-serif;fill:#000000;fill-opacity:1;stroke:none"><tspan x="-38.082660101224256" y="29.948273381932427">21</tspan></text><text id="text1305" x="-26.473732940706366" y="-36.74773390507562" style="font-style:normal;font-weight:normal;font-size:4px;font-family:sans-serif;fill:#000000;fill-opacity:1;stroke:none"><tspan x="-26.473732940706366" y="-36.74773390507562">22</tspan></text><text id="text1306" x="18.861998385236298" y="43.54355296681402" style="font-style:normal;font-weight:normal;font-size:4px;font-family:sans-serif;fill:#000000;fill-opacity:1;stroke:none"><tspan x="18.861998385236298" y="43.54355296681402">23</tspan></text><text id="text1307" x="17.246116740054344" y="-5.438351861800643" style="font-style:normal;font-weight:normal;font-size:4px;font-family:sans-serif;fill:#000000;fill-opacity:1;stroke:none"><tspan x="17.246116740054344" y="-5.438351861800643">24</tspan></text><text id="text1308" x="-41.75141359689155" y="-20.84299781239428" style="font-style:normal;font-weight:normal;font-size:4px;font-family:sans-serif;fill:#000000;fill-opacity:1;stroke:none"><tspan x="-41.75141359689155" y="-20.84299781239428">25</tspan></text><text id="text1309" x="44.45977528787523" y="17.885498153982947" style="font-style:normal;font-weight:normal;font-size:4px;font-family:sans-serif;fill:#000000;fill-opacity:1;stroke:none"><tspan x="44.45977528787523" y="17.885498153982947">26</tspan></text><text id="text1310" x="3.5775479372519494" y="17.189320643390605" style="font-style:normal;font-weight:normal;font-size:4px;font-family:sans-serif;fill:#000000;fill-opacity:1;stroke:none"><tspan x="3.5775479372519494" y="17.189320643390605">27</tspan></text><text id="text1311" x="-17.888067664614635" y="-12.915341900348258" style="font-style:normal;font-weight:normal;font-size:4px;font-family:sans-serif;fill:#000000;fill-opacity:1;stroke:none"><tspan x="-17.888067664614635" y="-12.915341900348258">28</tspan></text><text id="text1312" x="3.899820926220516" y="-25.84619095828087" style="font-style:normal;font-weight:normal;font-size:4px;font-family:sans-serif;fill:#000000;fill-opacity:1;stroke:none"><tspan x="3.899820926220516" y="-25.84619095828087">29</tspan></text></g><g id="border" inkscape:label="Border" inkscape:groupmode="layer"><path id="path1313" d="m 0 80 69.282 -40 0 -80 -69.282 -40 -69.282 40 0 80 z" style="fill:none;stroke:#000000;stroke-width:0.3" /></g></g></svg>