<?xml version='1.0' encoding='UTF-8'?>
<svg xmlns:ns0="http://www.w3.org/2000/svg" xmlns:ns1="http://sodipodi.sourceforge.net/DTD/sodipodi-0.dtd" xmlns:ns2="http://www.inkscape.org/namespaces/inkscape" version="1.1" id="svg_root" xmlns="http://www.w3.org/2000/svg" xmlns:sodipodi="http://sodipodi.sourceforge.net/DTD/sodipodi-0.dtd" xmlns:inkscape="http://www.inkscape.org/namespaces/inkscape" xmlns:xlink="http://www.w3.org/1999/xlink" width="215.9mm" height="279.4mm" viewBox="0 0 215.9 279.4"><defs /><g id="layer" inkscape:label="Layer" inkscape:groupmode="layer" transform="translate(107.95 120) scale(1, -1)"><g id="background" inkscape:label="Tile Background" inkscape:groupmode="layer"><path id="path1797" d="m 0 80 69.282 -40 0 -80 -69.282 -40 -69.282 40 0 80 z" style="fill:#000000;stroke:none;stroke-width:0" /></g><g id="region-clip" inkscape:label="Region Clipped" inkscape:groupmode="layer" style="display:none"><g id="clip"><path id="clipregion-0" d="m 15.6839 67.1653 -21.176 -1.99323 -6.10741 8.13098 11.5995 6.69697 17.3205 -10 z" style="fill:#f0eaac;stroke:#000000;stroke-width:0.3" /><path id="clipregion-1" d="m 62.7718 25.8169 -15.5778 15.9254 4.76754 8.25762 17.3205 -10 0 -13.3939 z" style="fill:#f0eaac;stroke:#000000;stroke-width:0.3" /><path id="clipregion-2" d="m 54.0447 -29.8521 15.2374 1.57628 0 -11.7241 -9.21984 -5.32308 z" style="fill:#f0ce76;stroke:#000000;stroke-width:0.3" /><path id="clipregion-3" d="m -2.594 -65.4238 6.41736 0.399081 4.27962 -10.297 -8.10299 -4.67826 -10.0088 5.77857 z" style="fill:#e7a311;stroke:#000000;stroke-width:0.3" /><path id="clipregion-4" d="m -59.3568 -31.9381 2.24392 -11.2773 -2.16033 -2.56323 -10.0088 5.77857 0 9.35652 z" style="fill:#e7a311;stroke:#000000;stroke-width:0.3" /><path id="clipregion-5" d="m -52.6386 36.8985 -8.8738 -8.74 -7.7696 1.19532 0 10.6462 10.1534 5.86207 z" style="fill:#f0ce76;stroke:#000000;stroke-width:0.3" /><path id="clipregion-6" d="m 47.194 41.7424 -6.30638 -2.15646 -21.4823 13.366 -3.72138 14.2133 1.63663 2.83473 34.641 -20 z" style="fill:#f0eaac;stroke:#000000;stroke-width:0.3" /><path id="clipregion-7" d="m 56.5107 0.826294 6.26105 24.9906 6.51026 0.789122 0 -28.1324 z" style="fill:#f0eaac;stroke:#000000;stroke-width:0.3" /><path id="clipregion-8" d="m 54.0447 -29.8521 -5.69072 3.17744 1.68039 24.2232 6.47637 3.27782 12.7713 -2.35261 0 -26.7495 z" style="fill:#f0eaac;stroke:#000000;stroke-width:0.3" /><path id="clipregion-9" d="m 33.7265 -46.1981 0.904248 11.9794 13.7232 7.54406 5.69072 -3.17744 6.01751 -15.4709 -18.6483 -10.7666 z" style="fill:#f0ce76;stroke:#000000;stroke-width:0.3" /><path id="clipregion-10" d="m 17.6596 -59.0538 16.0669 12.8556 7.68742 -9.89154 -17.9998 -10.3922 z" style="fill:#e7a311;stroke:#000000;stroke-width:0.3" /><path id="clipregion-11" d="m 3.82336 -65.0247 7.17736 6.11909 6.65888 -0.148144 5.75457 -7.42807 -15.3112 -8.83992 z" style="fill:#f0ce76;stroke:#000000;stroke-width:0.3" /><path id="clipregion-12" d="m -22.4257 -51.0537 6.60542 -0.355837 13.2263 -14.0143 -7.41478 -8.79765 -16.6176 9.59416 z" style="fill:#e7a311;stroke:#000000;stroke-width:0.3" /><path id="clipregion-13" d="m -40.2048 -47.4531 8.31812 4.24554 9.46097 -7.84607 -4.20063 -13.5736 -16.0293 9.25455 z" style="fill:#f0ce76;stroke:#000000;stroke-width:0.3" /><path id="clipregion-14" d="m -57.1129 -43.2153 16.9081 -4.23779 -2.45088 -7.9196 -16.6176 9.59416 z" style="fill:#e7a311;stroke:#000000;stroke-width:0.3" /><path id="clipregion-15" d="m -56.4679 -11.2163 5.7267 -8.53721 -8.61561 -12.1846 -9.92519 1.29459 0 17.6798 z" style="fill:#f0ce76;stroke:#000000;stroke-width:0.3" /><path id="clipregion-16" d="m -60.6602 9.00991 5.12017 -4.12231 -0.927911 -16.1039 -12.8141 -1.74738 0 20.7843 z" style="fill:#e7a311;stroke:#000000;stroke-width:0.3" /><path id="clipregion-17" d="m -61.5124 28.1585 0.852242 -19.1486 -8.62184 -1.18922 0 21.5332 z" style="fill:#f0ce76;stroke:#000000;stroke-width:0.3" /><path id="clipregion-18" d="m -31.8265 47.5964 -9.73114 -10.4993 -11.081 -0.198614 -6.48999 8.96355 23.1658 13.3748 z" style="fill:#f0eaac;stroke:#000000;stroke-width:0.3" /><path id="clipregion-19" d="m -5.49208 65.172 -9.87016 -19.0516 -16.4642 1.47597 -4.13639 11.6404 24.3634 14.0662 z" style="fill:#f0eaac;stroke:#000000;stroke-width:0.3" /><path id="clipregion-20" d="m 34.6308 -34.2188 -0.904248 -11.9794 -16.0669 -12.8556 -6.65888 0.148144 -5.77649 20.8672 18.0411 8.83076 z" style="fill:#e7a311;stroke:#000000;stroke-width:0.3" /><path id="clipregion-21" d="m -40.7445 8.84421 -14.7955 -3.95661 -5.12017 4.12231 -0.852242 19.1486 8.8738 8.74 11.081 0.198614 6.73202 -18.3389 z" style="fill:#f0ce76;stroke:#000000;stroke-width:0.3" /><path id="clipregion-22" d="m 31.0485 22.5613 9.8391 17.0247 6.30638 2.15646 15.5778 -15.9254 -6.26105 -24.9906 -6.47637 -3.27782 -6.97627 3.50927 z" style="fill:#f0eaac;stroke:#000000;stroke-width:0.3" /><path id="clipregion-23" d="m -40.2048 -47.4531 -16.9081 4.23779 -2.24392 11.2773 8.61561 12.1846 10.0261 -1.39777 9.56225 -9.38738 -0.733761 -12.669 z" style="fill:#e7a311;stroke:#000000;stroke-width:0.3" /><path id="clipregion-24" d="m -50.7412 -19.7535 -5.7267 8.53721 0.927911 16.1039 14.7955 3.95661 9.29064 -12.9686 -9.26129 -17.0268 z" style="fill:#e7a311;stroke:#000000;stroke-width:0.3" /><path id="clipregion-25" d="m -7.64753 8.38942 -11.6917 -12.4861 -12.1147 -0.0277248 -9.29064 12.9686 5.91894 9.91406 20.185 -1.81564 z" style="fill:#f0ce76;stroke:#000000;stroke-width:0.3" /><path id="clipregion-26" d="m 3.64079 6.34422 -11.2883 2.04521 -6.99308 8.55321 3.38253 24.155 17.2022 -3.07353 8.15846 -18.0706 z" style="fill:#f0eaac;stroke:#000000;stroke-width:0.3" /><path id="clipregion-27" d="m 14.1026 19.9535 -8.15846 18.0706 13.4612 14.9278 21.4823 -13.366 -9.8391 -17.0247 z" style="fill:#f0eaac;stroke:#000000;stroke-width:0.3" /><path id="clipregion-28" d="m -31.1529 -30.5386 16.0702 7.37471 7.61653 -2.08772 6.27076 -10.6237 -14.6249 -15.5341 -6.60542 0.355837 -9.46097 7.84607 z" style="fill:#f0ce76;stroke:#000000;stroke-width:0.3" /><path id="clipregion-29" d="m 9.44791 -5.10419 -16.9141 -20.1474 -7.61653 2.08772 -4.25649 19.0672 11.6917 12.4861 11.2883 -2.04521 z" style="fill:#f0eaac;stroke:#000000;stroke-width:0.3" /><path id="clipregion-30" d="m 9.44791 -5.10419 -5.80712 11.4484 10.4618 13.6093 16.9459 2.60777 12.0096 -21.5035 -27.9125 -9.43235 z" style="fill:#f0ce76;stroke:#000000;stroke-width:0.3" /><path id="clipregion-31" d="m 43.0581 1.05775 6.97627 -3.50927 -1.68039 -24.2232 -13.7232 -7.54406 -11.3655 5.01113 -8.11975 20.833 z" style="fill:#f0ce76;stroke:#000000;stroke-width:0.3" /><path id="clipregion-32" d="m 5.22423 -38.0384 5.77649 -20.8672 -7.17736 -6.11909 -6.41736 -0.399081 -13.2263 14.0143 14.6249 15.5341 z" style="fill:#f0ce76;stroke:#000000;stroke-width:0.3" /><path id="clipregion-33" d="m -40.7152 -21.1512 9.26129 17.0268 12.1147 0.0277248 4.25649 -19.0672 -16.0702 -7.37471 z" style="fill:#e7a311;stroke:#000000;stroke-width:0.3" /><path id="clipregion-34" d="m 15.1455 -8.3746 8.11975 -20.833 -18.0411 -8.83076 -6.41963 2.16304 -6.27076 10.6237 16.9141 20.1474 z" style="fill:#f0ce76;stroke:#000000;stroke-width:0.3" /><path id="clipregion-35" d="m -11.2581 41.0977 -4.10417 5.0228 9.87016 19.0516 21.176 1.99323 3.72138 -14.2133 -13.4612 -14.9278 z" style="fill:#f0eaac;stroke:#000000;stroke-width:0.3" /><path id="clipregion-36" d="m -14.6406 16.9426 -20.185 1.81564 -6.73202 18.3389 9.73114 10.4993 16.4642 -1.47597 4.10417 -5.0228 z" style="fill:#f0eaac;stroke:#000000;stroke-width:0.3" /></g></g><g id="region-rounded" inkscape:label="Region Rounded" inkscape:groupmode="layer"><g id="rounded"><path id="roundedregion-0" d="m 16.1839 68.0313 c -0.35 -0.606218 -0.79868 -0.894139 -1.4956 -0.959738 l -19.1848 -1.8058 c -0.69692 -0.0655989 -1.17577 0.146157 -1.59618 0.705854 l -5.50683 7.33142 11.5995 6.69697 17.3205 -10 z" style="fill:#f0eaac;stroke:#000000;stroke-width:0.3" /><path id="roundedregion-1" d="m 63.7645 25.9373 c -0.694914 -0.084232 -1.20251 0.0941286 -1.69199 0.594535 l -14.1793 14.4957 c -0.489483 0.500407 -0.549261 0.974674 -0.199261 1.58089 l 4.26754 7.39159 17.3205 -10 0 -13.3939 z" style="fill:#f0eaac;stroke:#000000;stroke-width:0.3" /><path id="roundedregion-2" d="m 54.4072 -30.7841 c -0.25375 0.652389 -0.0640929 0.962853 0.632191 1.03488 l 14.2427 1.47338 0 -11.7241 -9.21984 -5.32308 z" style="fill:#f0ce76;stroke:#000000;stroke-width:0.3" /><path id="roundedregion-3" d="m -3.23845 -66.1884 c 0.451117 0.535251 0.943875 0.783264 1.64252 0.826712 l 4.42121 0.274945 c 0.69865 0.0434474 1.11321 -0.214958 1.38186 -0.861353 l 3.89583 -9.37362 -8.10299 -4.67826 -10.0088 5.77857 z" style="fill:#e7a311;stroke:#000000;stroke-width:0.3" /><path id="roundedregion-4" d="m -60.3484 -31.8087 c 0.69412 -0.0905374 1.05015 -0.423571 1.18675 -1.11011 l 1.85362 -9.31573 c 0.136606 -0.686541 0.00181549 -1.21017 -0.449302 -1.74542 l -1.51588 -1.79859 -10.0088 5.77857 0 9.35652 z" style="fill:#e7a311;stroke:#000000;stroke-width:0.3" /><path id="roundedregion-5" d="m -53.2251 37.7085 c 0.410521 -0.566985 0.372722 -1.02049 -0.125998 -1.51169 l -7.44888 -7.33657 c -0.49872 -0.491201 -1.00897 -0.656098 -1.70083 -0.549658 l -6.78122 1.04327 0 10.6462 10.1534 5.86207 z" style="fill:#f0ce76;stroke:#000000;stroke-width:0.3" /><path id="roundedregion-6" d="m 47.694 42.6084 c -0.35 -0.606218 -0.783863 -0.963092 -1.44621 -1.18958 l -4.41397 -1.50935 c -0.662346 -0.226489 -1.20093 -0.165072 -1.79528 0.204724 l -19.7842 12.3095 c -0.594349 0.369796 -0.925056 0.818497 -1.10236 1.49567 l -3.21481 12.2786 c -0.1773 0.677174 -0.103286 1.2272 0.246714 1.83342 l 1.13663 1.9687 34.641 -20 z" style="fill:#f0eaac;stroke:#000000;stroke-width:0.3" /><path id="roundedregion-7" d="m 57.4942 0.645132 c -0.688417 0.126814 -0.910546 0.472168 -0.740428 1.15118 l 5.775 23.0506 c 0.170117 0.679014 0.540845 1.00612 1.23576 1.09035 l 5.51752 0.668791 0 -28.1324 z" style="fill:#f0eaac;stroke:#000000;stroke-width:0.3" /><path id="roundedregion-8" d="m 55.0394 -29.7492 c -0.696284 -0.0720294 -1.25663 0.0433535 -1.86781 0.38461 l -3.94449 2.20242 c -0.611183 0.341256 -0.852357 0.786789 -0.803913 1.48511 l 1.54198 22.228 c 0.0484434 0.698322 0.336874 1.13308 0.961437 1.44918 l 4.69191 2.37467 c 0.624563 0.316104 1.18727 0.397228 1.87569 0.270414 l 11.7879 -2.17145 0 -26.7495 z" style="fill:#f0eaac;stroke:#000000;stroke-width:0.3" /><path id="roundedregion-9" d="m 34.3402 -46.9877 c -0.429549 0.552709 -0.591061 1.08873 -0.538372 1.78675 l 0.753709 9.98503 c 0.0526888 0.698014 0.338164 1.14168 0.951585 1.4789 l 11.9706 6.58058 c 0.613421 0.337216 1.13825 0.335485 1.74943 -0.00577135 l 3.94449 -2.20242 c 0.611183 -0.341256 0.981868 -0.767104 1.23562 -1.41949 l 5.65501 -14.539 -18.6483 -10.7666 z" style="fill:#f0ce76;stroke:#000000;stroke-width:0.3" /><path id="roundedregion-10" d="m 18.272 -59.8443 c -0.428699 0.553369 -0.378181 0.977955 0.168392 1.41529 l 14.5053 11.6061 c 0.546573 0.43733 0.964911 0.387882 1.39446 -0.164827 l 7.07378 -9.10196 -17.9998 -10.3922 z" style="fill:#e7a311;stroke:#000000;stroke-width:0.3" /><path id="roundedregion-11" d="m 4.20715 -65.9481 c -0.268652 0.646395 -0.155495 1.11805 0.37719 1.5722 l 5.6554 4.82154 c 0.532685 0.454143 1.06091 0.642104 1.76073 0.626534 l 4.65938 -0.10366 c 0.699827 -0.0155695 1.18348 -0.2594 1.61218 -0.81277 l 5.14214 -6.63754 -15.3112 -8.83992 z" style="fill:#f0ce76;stroke:#000000;stroke-width:0.3" /><path id="roundedregion-12" d="m -22.7214 -52.009 c 0.206946 0.66871 0.595203 0.939163 1.29419 0.901508 l 4.60831 -0.248252 c 0.698986 -0.0376547 1.20446 -0.27197 1.68492 -0.781049 l 11.8536 -12.5598 c 0.480456 -0.50908 0.493029 -0.95665 0.0419123 -1.4919 l -6.77033 -8.033 -16.6176 9.59416 z" style="fill:#e7a311;stroke:#000000;stroke-width:0.3" /><path id="roundedregion-13" d="m -40.5004 -48.4084 c 0.206946 0.66871 0.562845 1.09168 1.18633 1.40991 l 6.53674 3.33633 c 0.623485 0.318225 1.12162 0.2631 1.66043 -0.183748 l 7.92149 -6.56936 c 0.53882 -0.446848 0.681052 -0.924944 0.474106 -1.59365 l -3.90499 -12.6183 -16.0293 9.25455 z" style="fill:#f0ce76;stroke:#000000;stroke-width:0.3" /><path id="roundedregion-14" d="m -57.7574 -43.98 c 0.451117 0.535251 0.935452 0.691709 1.61445 0.521527 l 14.9681 -3.75156 c 0.678998 -0.170182 0.881306 -0.529707 0.67436 -1.19842 l -2.15524 -6.9643 -16.6176 9.59416 z" style="fill:#e7a311;stroke:#000000;stroke-width:0.3" /><path id="roundedregion-15" d="m -57.4588 -11.3514 c 0.693581 0.0945792 1.15795 -0.114026 1.5479 -0.695352 l 4.61256 -6.87628 c 0.389949 -0.581326 0.383868 -1.07542 -0.0202709 -1.64697 l -7.46093 -10.5516 c -0.404139 -0.571552 -0.874821 -0.777701 -1.56894 -0.687164 l -8.93359 1.16525 0 17.6798 z" style="fill:#f0ce76;stroke:#000000;stroke-width:0.3" /><path id="roundedregion-16" d="m -61.6508 8.87327 c 0.693435 0.0956462 1.2243 -0.0514984 1.76954 -0.490482 l 3.56233 -2.86807 c 0.545246 -0.438984 0.761666 -0.926623 0.721398 -1.62546 l -0.812861 -14.1072 c -0.0402675 -0.698841 -0.354774 -1.03888 -1.04836 -1.13346 l -11.8233 -1.61226 0 20.7843 z" style="fill:#e7a311;stroke:#000000;stroke-width:0.3" /><path id="roundedregion-17" d="m -62.5008 28.3106 c 0.69186 -0.10644 1.00171 -0.45176 1.03283 -1.15107 l 0.763316 -17.1506 c 0.0311239 -0.699308 -0.252724 -1.04 -0.946158 -1.13565 l -7.63122 -1.05258 0 21.5332 z" style="fill:#f0ce76;stroke:#000000;stroke-width:0.3" /><path id="roundedregion-18" d="m -32.1613 48.5387 c 0.234385 -0.659594 0.130905 -1.1623 -0.344933 -1.6757 l -8.37161 -9.03243 c -0.475838 -0.513399 -0.97972 -0.738803 -1.67961 -0.751348 l -9.08136 -0.162773 c -0.699888 -0.0125446 -1.17578 0.225073 -1.5863 0.792058 l -5.90353 8.15357 23.1658 13.3748 z" style="fill:#f0eaac;stroke:#000000;stroke-width:0.3" /><path id="roundedregion-19" d="m -6.09266 65.9716 c 0.420404 -0.559697 0.462575 -1.06594 0.14057 -1.68748 l -8.95015 -17.2758 c -0.322005 -0.621541 -0.758809 -0.861129 -1.45601 -0.798626 l -14.4722 1.29739 c -0.697204 0.0625023 -1.09646 0.371972 -1.33084 1.03157 l -3.80156 10.6981 24.3634 14.0662 z" style="fill:#f0eaac;stroke:#000000;stroke-width:0.3" /><path id="roundedregion-20" d="m 33.7158 -33.8153 c 0.640506 -0.282404 0.892428 -0.702584 0.839739 -1.4006 l -0.753709 -9.98503 c -0.0526888 -0.698014 -0.309515 -1.18459 -0.856088 -1.62192 l -14.5053 -11.6061 c -0.546573 -0.43733 -1.08074 -0.618085 -1.78057 -0.602516 l -4.65938 0.10366 c -0.699827 0.0155695 -1.07979 0.311369 -1.26654 0.985997 l -5.24292 18.9397 c -0.186752 0.674629 0.00266413 1.09565 0.631386 1.40339 l 16.2447 7.95148 c 0.628722 0.307748 1.17268 0.318609 1.81318 0.0362048 z" style="fill:#e7a311;stroke:#000000;stroke-width:0.3" /><path id="roundedregion-21" d="m -40.2319 9.70283 c -0.358832 -0.601032 -0.802433 -0.93612 -1.47867 -1.11696 l -12.8634 -3.43992 c -0.676238 -0.180839 -1.19973 -0.070206 -1.74498 0.368778 l -3.56233 2.86807 c -0.545246 0.438984 -0.792262 0.926823 -0.823386 1.62613 l -0.763316 17.1506 c -0.0311239 0.699308 0.169275 1.20953 0.667995 1.70073 l 7.44888 7.33657 c 0.49872 0.491201 1.01241 0.707091 1.7123 0.719636 l 9.08136 0.162773 c 0.699888 0.0125446 1.10322 -0.263703 1.34444 -0.920827 l 6.04281 -16.4614 c 0.241224 -0.657123 0.19082 -1.19633 -0.168011 -1.79737 z" style="fill:#f0ce76;stroke:#000000;stroke-width:0.3" /><path id="roundedregion-22" d="m 31.5361 21.6882 c -0.341321 0.611146 -0.337489 1.13281 0.0127761 1.73887 l 8.83835 15.293 c 0.350265 0.606065 0.784241 0.962874 1.44659 1.18936 l 4.41397 1.50935 c 0.662346 0.226489 1.15599 0.109096 1.64547 -0.391311 l 14.1793 -14.4957 c 0.489483 -0.500407 0.626353 -1.00587 0.456236 -1.68489 l -5.775 -23.0506 c -0.170117 -0.679014 -0.510695 -1.10549 -1.13526 -1.4216 l -4.69191 -2.37467 c -0.624563 -0.316104 -1.16023 -0.316763 -1.78557 -0.00219884 l -5.18959 2.61052 c -0.625339 0.314565 -1.03962 0.711298 -1.38094 1.32244 z" style="fill:#f0eaac;stroke:#000000;stroke-width:0.3" /><path id="roundedregion-23" d="m -39.3141 -46.9985 c -0.623485 -0.318225 -1.18169 -0.381672 -1.86069 -0.21149 l -14.9681 3.75156 c -0.678998 0.170182 -1.02854 0.537349 -1.16515 1.22389 l -1.85362 9.31573 c -0.136606 0.686541 -0.021949 1.22572 0.38219 1.79728 l 7.46093 10.5516 c 0.404139 0.571552 0.874468 0.775079 1.56776 0.678424 l 8.04521 -1.12162 c 0.693295 -0.096655 1.2045 -0.348244 1.70402 -0.83863 l 8.13505 -7.98628 c 0.499521 -0.490386 0.696255 -1.00005 0.655781 -1.69888 l -0.618119 -10.6723 c -0.0404748 -0.698829 -0.325029 -1.13471 -0.948513 -1.45293 z" style="fill:#e7a311;stroke:#000000;stroke-width:0.3" /><path id="roundedregion-24" d="m -49.7508 -19.8915 c -0.693295 0.096655 -1.15754 0.387218 -1.54749 0.968544 l -4.61256 6.87628 c -0.389949 0.581326 -0.539813 1.12997 -0.499545 1.82881 l 0.812861 14.1072 c 0.0402675 0.698841 0.347341 1.07585 1.02358 1.25669 l 12.8634 3.43992 c 0.676238 0.180839 1.14077 0.0144651 1.54843 -0.55458 l 8.12589 -11.3428 c 0.407661 -0.569046 0.439028 -1.07646 0.104557 -1.69138 l -8.30566 -15.2699 c -0.334471 -0.614922 -0.774941 -0.837037 -1.46824 -0.740382 z" style="fill:#e7a311;stroke:#000000;stroke-width:0.3" /><path id="roundedregion-25" d="m -8.2805 9.1636 c 0.443077 -0.541925 0.427916 -0.993163 -0.0505367 -1.50413 l -10.3246 -11.0262 c -0.478452 -0.510963 -0.983502 -0.730634 -1.6835 -0.732236 l -10.1147 -0.0231478 c -0.699998 -0.00160196 -1.17471 0.241588 -1.58237 0.810634 l -8.12589 11.3428 c -0.407661 0.569046 -0.428587 1.07051 -0.0697558 1.67154 l 4.89371 8.19682 c 0.358832 0.601032 0.81141 0.831741 1.5086 0.76903 l 18.193 -1.63646 c 0.697185 -0.0627117 1.18587 -0.321842 1.62895 -0.863767 z" style="fill:#f0ce76;stroke:#000000;stroke-width:0.3" /><path id="roundedregion-26" d="m 4.25024 7.13703 c -0.426621 -0.554973 -0.904652 -0.739335 -1.59344 -0.614541 l -9.32036 1.68865 c -0.688786 0.124794 -1.17387 0.41053 -1.61695 0.952456 l -5.72714 7.00485 c -0.443077 0.541925 -0.591362 1.07128 -0.494285 1.76452 l 3.10517 22.1743 c 0.0970768 0.693236 0.434004 0.937571 1.12309 0.814451 l 15.2334 -2.72176 c 0.689087 -0.12312 1.10786 -0.449311 1.39589 -1.0873 l 7.33549 -16.2478 c 0.288038 -0.637992 0.228646 -1.14926 -0.197975 -1.70424 z" style="fill:#f0eaac;stroke:#000000;stroke-width:0.3" /><path id="roundedregion-27" d="m 15.0909 20.1056 c -0.691856 -0.106468 -1.11181 0.121328 -1.39985 0.75932 l -7.33549 16.2478 c -0.288038 0.637992 -0.210578 1.13421 0.258199 1.65407 l 12.1218 13.4425 c 0.468778 0.519853 0.924403 0.584164 1.51875 0.214368 l 19.7842 -12.3095 c 0.594349 -0.369796 0.698957 -0.788022 0.348692 -1.39409 l -8.83835 -15.293 c -0.350265 -0.606065 -0.796888 -0.911436 -1.48874 -1.0179 z" style="fill:#f0eaac;stroke:#000000;stroke-width:0.3" /><path id="roundedregion-28" d="m -31.2107 -31.5369 c 0.0404748 0.698829 0.330481 1.12345 0.966689 1.41541 l 14.2525 6.54054 c 0.636208 0.291959 1.1982 0.337778 1.87329 0.152732 l 5.68768 -1.55901 c 0.675098 -0.185047 1.11692 -0.522704 1.47274 -1.12552 l 5.25413 -8.90139 c 0.35582 -0.60282 0.302671 -1.0796 -0.177163 -1.58927 l -13.2539 -14.0779 c -0.479834 -0.509666 -0.985043 -0.711956 -1.68403 -0.674301 l -4.60831 0.248252 c -0.698986 0.0376547 -1.22947 0.245299 -1.76829 0.692147 l -7.92149 6.56936 c -0.53882 0.446848 -0.752396 0.937852 -0.711922 1.63668 z" style="fill:#f0ce76;stroke:#000000;stroke-width:0.3" /><path id="roundedregion-29" d="m 8.99553 -4.21236 c 0.316662 -0.62428 0.259482 -1.12159 -0.1906 -1.65772 l -15.6281 -18.6157 c -0.450082 -0.536122 -0.932302 -0.686582 -1.6074 -0.501536 l -5.68768 1.55901 c -0.675098 0.185047 -1.02979 0.557146 -1.1823 1.24033 l -3.82074 17.1153 c -0.152511 0.683184 -0.0128221 1.19496 0.46563 1.70592 l 10.3246 11.0262 c 0.478452 0.510963 0.978697 0.676464 1.66748 0.551671 l 9.32036 -1.68865 c 0.688786 -0.124794 1.11969 -0.445825 1.43635 -1.07011 z" style="fill:#f0eaac;stroke:#000000;stroke-width:0.3" /><path id="roundedregion-30" d="m 10.3152 -5.602 c -0.607098 0.348471 -1.00299 0.765364 -1.31966 1.38964 l -4.90237 9.66474 c -0.316662 0.62428 -0.269536 1.12967 0.157085 1.68465 l 9.24286 12.0236 c 0.426621 0.554973 0.905968 0.838447 1.59782 0.944915 l 14.9692 2.30358 c 0.691856 0.106468 1.13465 -0.109823 1.47597 -0.720969 l 11.0344 -19.7574 c 0.341321 -0.611146 0.203391 -0.969108 -0.459768 -1.19321 l -26.0178 -8.79206 c -0.663159 -0.224098 -1.20756 -0.170795 -1.81465 0.177676 z" style="fill:#f0ce76;stroke:#000000;stroke-width:0.3" /><path id="roundedregion-31" d="m 42.1107 0.737605 c 0.663159 0.224098 1.21537 0.185327 1.84071 -0.129238 l 5.18959 -2.61052 c 0.625339 -0.314565 0.87258 -0.748659 0.824137 -1.44698 l -1.54198 -22.228 c -0.0484434 -0.698322 -0.332099 -1.14212 -0.94552 -1.47934 l -11.9706 -6.58058 c -0.613421 -0.337216 -1.15082 -0.360707 -1.79132 -0.0783027 l -9.53545 4.20426 c -0.640506 0.282404 -1.02395 0.682954 -1.27815 1.33517 l -7.39346 18.9696 c -0.254202 0.652213 -0.078935 1.02777 0.584224 1.25187 z" style="fill:#f0ce76;stroke:#000000;stroke-width:0.3" /><path id="roundedregion-32" d="m 4.27658 -37.7191 c 0.663357 -0.223512 1.02769 -0.608429 1.21444 -1.28306 l 5.24292 -18.9397 c 0.186752 -0.674629 0.0384944 -1.15839 -0.494191 -1.61253 l -5.6554 -4.82154 c -0.532685 -0.454143 -1.0604 -0.667397 -1.75905 -0.710844 l -4.42121 -0.274945 c -0.69865 -0.0434474 -1.20398 0.156109 -1.68444 0.665189 l -11.8536 12.5598 c -0.480456 0.50908 -0.480722 0.945685 -0.000887807 1.45535 l 13.2539 14.0779 c 0.479834 0.509666 0.969773 0.632303 1.63313 0.408791 z" style="fill:#f0ce76;stroke:#000000;stroke-width:0.3" /><path id="roundedregion-33" d="m -40.0016 -21.8518 c -0.499521 0.490386 -0.570257 0.96409 -0.235787 1.57901 l 8.30566 15.2699 c 0.334471 0.614922 0.777814 0.879147 1.47781 0.880749 l 10.1147 0.0231478 c 0.699998 0.00160196 1.06536 -0.290505 1.21787 -0.973689 l 3.82074 -17.1153 c 0.152511 -0.683184 -0.0547873 -1.1011 -0.690995 -1.39306 l -14.2525 -6.54054 c -0.636208 -0.291959 -1.12295 -0.206918 -1.62247 0.283468 z" style="fill:#e7a311;stroke:#000000;stroke-width:0.3" /><path id="roundedregion-34" d="m 14.2783 -7.87678 c 0.607098 -0.348471 0.976227 -0.777336 1.23043 -1.42955 l 7.39346 -18.9696 c 0.254202 -0.652213 0.0936937 -1.06362 -0.535028 -1.37137 l -16.2447 -7.95148 c -0.628722 -0.307748 -1.18247 -0.343849 -1.84583 -0.120337 l -4.52433 1.52443 c -0.663357 0.223512 -1.10015 0.577654 -1.45597 1.18047 l -5.25413 8.90139 c -0.35582 0.60282 -0.315422 1.09094 0.134659 1.62706 l 15.6281 18.6157 c 0.450082 0.536122 0.903159 0.616543 1.51026 0.268072 z" style="fill:#f0ce76;stroke:#000000;stroke-width:0.3" /><path id="roundedregion-35" d="m -10.2737 40.9218 c -0.689087 0.12312 -1.17423 0.408195 -1.61715 0.95025 l -2.83869 3.47407 c -0.442918 0.542055 -0.494737 1.04074 -0.172733 1.66228 l 8.95015 17.2758 c 0.322005 0.621541 0.758687 0.916029 1.45561 0.981628 l 19.1848 1.8058 c 0.69692 0.0655989 1.07158 -0.196505 1.24888 -0.873679 l 3.21481 -12.2786 c 0.1773 -0.677174 0.0523809 -1.19019 -0.416397 -1.71004 l -12.1218 -13.4425 c -0.468778 -0.519853 -0.965006 -0.689882 -1.65409 -0.566762 z" style="fill:#f0eaac;stroke:#000000;stroke-width:0.3" /><path id="roundedregion-36" d="m -14.5019 17.933 c -0.0970768 -0.693236 -0.437475 -0.963461 -1.13466 -0.900749 l -18.193 1.63646 c -0.697185 0.0627117 -1.09936 0.371213 -1.34058 1.02834 l -6.04281 16.4614 c -0.241224 0.657123 -0.140675 1.15878 0.335163 1.67217 l 8.37161 9.03243 c 0.475838 0.513399 0.97857 0.70664 1.67577 0.644138 l 14.4722 -1.29739 c 0.697204 -0.0625023 1.18583 -0.321598 1.62875 -0.863654 l 2.83869 -3.47407 c 0.442918 -0.542055 0.591135 -1.07147 0.494058 -1.7647 z" style="fill:#f0eaac;stroke:#000000;stroke-width:0.3" /></g></g><g id="region" inkscape:label="Region" inkscape:groupmode="layer" style="display:none"><path id="region-0" d="m 15.6839 67.1653 -21.176 -1.99323 -12.2318 16.2846 10.7957 14.5434 19.245 0 8.3395 -20.2222 z" style="fill:#ffffff;stroke:#000000;stroke-width:0.3" /><path id="region-1" d="m 80.527 27.9691 -17.7552 -2.15215 -15.5778 15.9254 8.10334 14.0354 21.6827 2.88889 9.6225 -16.6667 z" style="fill:#ffffff;stroke:#000000;stroke-width:0.3" /><path id="region-2" d="m 80.172 -27.1493 -26.1273 -2.70283 10.3161 -26.5226 16.9301 5.17479 5.31162 9.2 z" style="fill:#ffffff;stroke:#000000;stroke-width:0.3" /><path id="region-3" d="m 3.82336 -65.0247 9.24179 -22.2363 -9.37011 -8.73897 -7.39008 0 -13.8121 12.8818 14.9131 17.6945 z" style="fill:#ffffff;stroke:#000000;stroke-width:0.3" /><path id="region-4" d="m -59.3568 -31.9381 -21.9962 2.86907 -3.63292 -15.731 3.69504 -6.4 13.8742 -4.24075 10.3037 12.2254 z" style="fill:#ffffff;stroke:#000000;stroke-width:0.3" /><path id="region-5" d="m -66.1514 55.5615 -13.5229 -1.56149 -5.31162 -9.2 3.12004 -13.5102 20.3535 -3.13131 8.8738 8.74 z" style="fill:#ffffff;stroke:#000000;stroke-width:0.3" /><path id="region-6" d="m 15.6839 67.1653 3.72138 -14.2133 21.4823 -13.366 6.30638 2.15646 8.10334 14.0354 -10.5848 21.6667 -24.0563 -1.66667 z" style="fill:#ffffff;stroke:#000000;stroke-width:0.3" /><path id="region-7" d="m 79.114 -3.33748 -22.6033 4.16377 6.26105 24.9906 17.7552 2.15215 8.20611 -13.9691 z" style="fill:#ffffff;stroke:#000000;stroke-width:0.3" /><path id="region-8" d="m 85.0627 -14 -4.89069 -13.1493 -26.1273 -2.70283 -5.69072 3.17744 1.68039 24.2232 6.47637 3.27782 22.6033 -4.16377 z" style="fill:#ffffff;stroke:#000000;stroke-width:0.3" /><path id="region-9" d="m 34.6308 -34.2188 -0.904248 -11.9794 14.3339 -18.4438 13.0394 3.61384 3.26098 4.65324 -10.3161 26.5226 -5.69072 3.17744 z" style="fill:#ffffff;stroke:#000000;stroke-width:0.3" /><path id="region-10" d="m 48.0605 -64.6419 -14.3339 18.4438 -16.0669 -12.8556 13.7407 -17.7367 11.1561 3.08048 z" style="fill:#ffffff;stroke:#000000;stroke-width:0.3" /><path id="region-11" d="m 11.0007 -58.9056 6.65888 -0.148144 13.7407 -17.7367 -7.39753 -9.58364 -10.9377 -0.886914 -9.24179 22.2363 z" style="fill:#ffffff;stroke:#000000;stroke-width:0.3" /><path id="region-12" d="m -15.8203 -51.4095 -6.60542 0.355837 -7.63805 -24.6811 8.08627 -7.13143 4.47035 -0.252106 14.9131 17.6945 z" style="fill:#ffffff;stroke:#000000;stroke-width:0.3" /><path id="region-13" d="m -40.2048 -47.4531 -6.58363 -21.2739 4.08761 -5.233 12.6371 -1.77471 7.63805 24.6811 -9.46097 7.84607 z" style="fill:#ffffff;stroke:#000000;stroke-width:0.3" /><path id="region-14" d="m -40.2048 -47.4531 -6.58363 -21.2739 -16.2593 4.32505 -4.3689 8.9612 10.3037 12.2254 z" style="fill:#ffffff;stroke:#000000;stroke-width:0.3" /><path id="region-15" d="m -50.7412 -19.7535 -5.7267 8.53721 -24.8506 -3.38871 -2.69215 -7.79503 2.65761 -6.669 21.9962 -2.86907 z" style="fill:#ffffff;stroke:#000000;stroke-width:0.3" /><path id="region-16" d="m -56.4679 -11.2163 0.927911 16.1039 -5.12017 4.12231 -21.1079 -2.91143 -3.34491 -6.09848 3.79448 -14.605 z" style="fill:#ffffff;stroke:#000000;stroke-width:0.3" /><path id="region-17" d="m -60.6602 9.00991 -0.852242 19.1486 -20.3535 3.13131 -5.22231 -8.88983 5.32016 -16.3015 z" style="fill:#ffffff;stroke:#000000;stroke-width:0.3" /><path id="region-18" d="m -31.8265 47.5964 -7.32015 20.6 -17.0053 1.06156 -9.9995 -13.6965 13.5128 -18.663 11.081 0.198614 z" style="fill:#ffffff;stroke:#000000;stroke-width:0.3" /><path id="region-19" d="m -31.8265 47.5964 -7.32015 20.6 8.91793 12.1612 12.5048 1.09901 12.2318 -16.2846 -9.87016 -19.0516 z" style="fill:#ffffff;stroke:#000000;stroke-width:0.3" /><path id="region-20" d="m 34.6308 -34.2188 -0.904248 -11.9794 -16.0669 -12.8556 -6.65888 0.148144 -5.77649 20.8672 18.0411 8.83076 z" style="fill:#ffffff;stroke:#000000;stroke-width:0.3" /><path id="region-21" d="m -34.8256 18.7583 -6.73202 18.3389 -11.081 -0.198614 -8.8738 -8.74 0.852242 -19.1486 5.12017 -4.12231 14.7955 3.95661 z" style="fill:#ffffff;stroke:#000000;stroke-width:0.3" /><path id="region-22" d="m 43.0581 1.05775 6.97627 -3.50927 6.47637 3.27782 6.26105 24.9906 -15.5778 15.9254 -6.30638 -2.15646 -9.8391 -17.0247 z" style="fill:#ffffff;stroke:#000000;stroke-width:0.3" /><path id="region-23" d="m -40.2048 -47.4531 -16.9081 4.23779 -2.24392 11.2773 8.61561 12.1846 10.0261 -1.39777 9.56225 -9.38738 -0.733761 -12.669 z" style="fill:#ffffff;stroke:#000000;stroke-width:0.3" /><path id="region-24" d="m -50.7412 -19.7535 -5.7267 8.53721 0.927911 16.1039 14.7955 3.95661 9.29064 -12.9686 -9.26129 -17.0268 z" style="fill:#ffffff;stroke:#000000;stroke-width:0.3" /><path id="region-25" d="m -14.6406 16.9426 -20.185 1.81564 -5.91894 -9.91406 9.29064 -12.9686 12.1147 0.0277248 11.6917 12.4861 z" style="fill:#ffffff;stroke:#000000;stroke-width:0.3" /><path id="region-26" d="m 3.64079 6.34422 -11.2883 2.04521 -6.99308 8.55321 3.38253 24.155 17.2022 -3.07353 8.15846 -18.0706 z" style="fill:#ffffff;stroke:#000000;stroke-width:0.3" /><path id="region-27" d="m 14.1026 19.9535 -8.15846 18.0706 13.4612 14.9278 21.4823 -13.366 -9.8391 -17.0247 z" style="fill:#ffffff;stroke:#000000;stroke-width:0.3" /><path id="region-28" d="m -31.8867 -43.2076 9.46097 -7.84607 6.60542 -0.355837 14.6249 15.5341 -6.27076 10.6237 -7.61653 2.08772 -16.0702 -7.37471 z" style="fill:#ffffff;stroke:#000000;stroke-width:0.3" /><path id="region-29" d="m 9.44791 -5.10419 -16.9141 -20.1474 -7.61653 2.08772 -4.25649 19.0672 11.6917 12.4861 11.2883 -2.04521 z" style="fill:#ffffff;stroke:#000000;stroke-width:0.3" /><path id="region-30" d="m 15.1455 -8.3746 27.9125 9.43235 -12.0096 21.5035 -16.9459 -2.60777 -10.4618 -13.6093 5.80712 -11.4484 z" style="fill:#ffffff;stroke:#000000;stroke-width:0.3" /><path id="region-31" d="m 15.1455 -8.3746 8.11975 -20.833 11.3655 -5.01113 13.7232 7.54406 1.68039 24.2232 -6.97627 3.50927 z" style="fill:#ffffff;stroke:#000000;stroke-width:0.3" /><path id="region-32" d="m -1.1954 -35.8754 -14.6249 -15.5341 13.2263 -14.0143 6.41736 0.399081 7.17736 6.11909 -5.77649 20.8672 z" style="fill:#ffffff;stroke:#000000;stroke-width:0.3" /><path id="region-33" d="m -40.7152 -21.1512 9.26129 17.0268 12.1147 0.0277248 4.25649 -19.0672 -16.0702 -7.37471 z" style="fill:#ffffff;stroke:#000000;stroke-width:0.3" /><path id="region-34" d="m 15.1455 -8.3746 8.11975 -20.833 -18.0411 -8.83076 -6.41963 2.16304 -6.27076 10.6237 16.9141 20.1474 z" style="fill:#ffffff;stroke:#000000;stroke-width:0.3" /><path id="region-35" d="m -11.2581 41.0977 -4.10417 5.0228 9.87016 19.0516 21.176 1.99323 3.72138 -14.2133 -13.4612 -14.9278 z" style="fill:#ffffff;stroke:#000000;stroke-width:0.3" /><path id="region-36" d="m -14.6406 16.9426 -20.185 1.81564 -6.73202 18.3389 9.73114 10.4993 16.4642 -1.47597 4.10417 -5.0228 z" style="fill:#ffffff;stroke:#000000;stroke-width:0.3" /></g><g id="seeds" inkscape:label="Seeds" inkscape:groupmode="layer" style="display:none"><circle id="seed-0" cx="0.0" cy="80.0" r="1.0" style="fill:#000000;stroke:none;stroke-width:0" /><circle id="seed-1" cx="69.28203230275508" cy="40.0" r="1.0" style="fill:#000000;stroke:none;stroke-width:0" /><circle id="seed-2" cx="69.28203230275508" cy="-40.0" r="1.0" style="fill:#000000;stroke:none;stroke-width:0" /><circle id="seed-3" cx="0.0" cy="-80.0" r="1.0" style="fill:#000000;stroke:none;stroke-width:0" /><circle id="seed-4" cx="-69.28203230275508" cy="-40.0" r="1.0" style="fill:#000000;stroke:none;stroke-width:0" /><circle id="seed-5" cx="-69.28203230275508" cy="40.0" r="1.0" style="fill:#000000;stroke:none;stroke-width:0" /><circle id="seed-6" cx="34.64101615137754" cy="60.0" r="1.0" style="fill:#000000;stroke:none;stroke-width:0" /><circle id="seed-7" cx="72.48203230275509" cy="13.599999999999998" r="1.0" style="fill:#000000;stroke:none;stroke-width:0" /><circle id="seed-8" cx="66.88203230275508" cy="-16.799999999999997" r="1.0" style="fill:#000000;stroke:none;stroke-width:0" /><circle id="seed-9" cx="49.66870390403876" cy="-47.628718707889796" r="1.0" style="fill:#000000;stroke:none;stroke-width:0" /><circle id="seed-10" cx="31.176914536239785" cy="-62.0" r="1.0" style="fill:#000000;stroke:none;stroke-width:0" /><circle id="seed-11" cx="17.13486742963367" cy="-72.87846096908265" r="1.0" style="fill:#000000;stroke:none;stroke-width:0" /><circle id="seed-12" cx="-17.398969044771427" cy="-65.33589838486225" r="1.0" style="fill:#000000;stroke:none;stroke-width:0" /><circle id="seed-13" cx="-34.64101615137754" cy="-60.0" r="1.0" style="fill:#000000;stroke:none;stroke-width:0" /><circle id="seed-14" cx="-51.88306325798366" cy="-54.66410161513776" r="1.0" style="fill:#000000;stroke:none;stroke-width:0" /><circle id="seed-15" cx="-66.88203230275508" cy="-21.6" r="1.0" style="fill:#000000;stroke:none;stroke-width:0" /><circle id="seed-16" cx="-69.28203230275508" cy="-4.0" r="1.0" style="fill:#000000;stroke:none;stroke-width:0" /><circle id="seed-17" cx="-72.48203230275509" cy="19.200000000000003" r="1.0" style="fill:#000000;stroke:none;stroke-width:0" /><circle id="seed-18" cx="-50.390242934956106" cy="53.67846096908266" r="1.0" style="fill:#000000;stroke:none;stroke-width:0" /><circle id="seed-19" cx="-21.263070659909182" cy="64.0287187078898" r="1.0" style="fill:#000000;stroke:none;stroke-width:0" /><circle id="seed-20" cx="17.750215069420317" cy="-45.21938659273833" r="1.0" style="fill:#000000;stroke:none;stroke-width:0" /><circle id="seed-21" cx="-49.790359717897665" cy="20.209931596793933" r="1.0" style="fill:#000000;stroke:none;stroke-width:0" /><circle id="seed-22" cx="48.44849767933294" cy="19.621264371299617" r="1.0" style="fill:#000000;stroke:none;stroke-width:0" /><circle id="seed-23" cx="-47.10154258321252" cy="-35.58659102136514" r="1.0" style="fill:#000000;stroke:none;stroke-width:0" /><circle id="seed-24" cx="-42.909780131708374" cy="-5.51958011955291" r="1.0" style="fill:#000000;stroke:none;stroke-width:0" /><circle id="seed-25" cx="-26.447682364737997" cy="6.273762775368489" r="1.0" style="fill:#000000;stroke:none;stroke-width:0" /><circle id="seed-26" cx="-1.8383395419862474" cy="26.394285800553657" r="1.0" style="fill:#000000;stroke:none;stroke-width:0" /><circle id="seed-27" cx="19.814265790020237" cy="36.16991820656718" r="1.0" style="fill:#000000;stroke:none;stroke-width:0" /><circle id="seed-28" cx="-15.893730609310243" cy="-37.394085073376786" r="1.0" style="fill:#000000;stroke:none;stroke-width:0" /><circle id="seed-29" cx="-8.524457439922791" cy="-10.509063275884543" r="1.0" style="fill:#000000;stroke:none;stroke-width:0" /><circle id="seed-30" cx="24.42555665598432" cy="6.204601103120384" r="1.0" style="fill:#000000;stroke:none;stroke-width:0" /><circle id="seed-31" cx="31.366832446250186" cy="-14.336270619335428" r="1.0" style="fill:#000000;stroke:none;stroke-width:0" /><circle id="seed-32" cx="-1.8259243040958462" cy="-50.63848326038206" r="1.0" style="fill:#000000;stroke:none;stroke-width:0" /><circle id="seed-33" cx="-26.400142101153023" cy="-14.499557379889437" r="1.0" style="fill:#000000;stroke:none;stroke-width:0" /><circle id="seed-34" cx="7.236940937520041" cy="-23.74098431285868" r="1.0" style="fill:#000000;stroke:none;stroke-width:0" /><circle id="seed-35" cx="2.670439671529646" cy="51.62935956032199" r="1.0" style="fill:#000000;stroke:none;stroke-width:0" /><circle id="seed-36" cx="-24.354232119369982" cy="29.547283079504258" r="1.0" style="fill:#000000;stroke:none;stroke-width:0" /></g><g id="region_ids" inkscape:label="Region Ids" inkscape:groupmode="layer" style="display:none" transform="scale(1,-1)"><text id="text1798" x="-1.4" y="-80.0" style="font-style:normal;font-weight:normal;font-size:4px;font-family:sans-serif;fill:#000000;fill-opacity:1;stroke:none"><tspan x="-1.4" y="-80.0">0</tspan></text><text id="text1799" x="67.88203230275508" y="-40.0" style="font-style:normal;font-weight:normal;font-size:4px;font-family:sans-serif;fill:#000000;fill-opacity:1;stroke:none"><tspan x="67.88203230275508" y="-40.0">1</tspan></text><text id="text1800" x="67.88203230275508" y="40.0" style="font-style:normal;font-weight:normal;font-size:4px;font-family:sans-serif;fill:#000000;fill-opacity:1;stroke:none"><tspan x="67.88203230275508" y="40.0">2</tspan></text><text id="text1801" x="-1.4" y="80.0" style="font-style:normal;font-weight:normal;font-size:4px;font-family:sans-serif;fill:#000000;fill-opacity:1;stroke:none"><tspan x="-1.4" y="80.0">3</tspan></text><text id="text1802" x="-70.68203230275509" y="40.0" style="font-style:normal;font-weight:normal;font-size:4px;font-family:sans-serif;fill:#000000;fill-opacity:1;stroke:none"><tspan x="-70.68203230275509" y="40.0">4</tspan></text><text id="text1803" x="-70.68203230275509" y="-40.0" style="font-style:normal;font-weight:normal;font-size:4px;font-family:sans-serif;fill:#000000;fill-opacity:1;stroke:none"><tspan x="-70.68203230275509" y="-40.0">5</tspan></text><text id="text1804" x="33.24101615137754" y="-60.0" style="font-style:normal;font-weight:normal;font-size:4px;font-family:sans-serif;fill:#000000;fill-opacity:1;stroke:none"><tspan x="33.24101615137754" y="-60.0">6</tspan></text><text id="text1805" x="71.08203230275508" y="-13.599999999999998" style="font-style:normal;font-weight:normal;font-size:4px;font-family:sans-serif;fill:#000000;fill-opacity:1;stroke:none"><tspan x="71.08203230275508" y="-13.599999999999998">7</tspan></text><text id="text1806" x="65.48203230275507" y="16.799999999999997" style="font-style:normal;font-weight:normal;font-size:4px;font-family:sans-serif;fill:#000000;fill-opacity:1;stroke:none"><tspan x="65.48203230275507" y="16.799999999999997">8</tspan></text><text id="text1807" x="48.26870390403876" y="47.628718707889796" style="font-style:normal;font-weight:normal;font-size:4px;font-family:sans-serif;fill:#000000;fill-opacity:1;stroke:none"><tspan x="48.26870390403876" y="47.628718707889796">9</tspan></text><text id="text1808" x="29.776914536239786" y="62.0" style="font-style:normal;font-weight:normal;font-size:4px;font-family:sans-serif;fill:#000000;fill-opacity:1;stroke:none"><tspan x="29.776914536239786" y="62.0">10</tspan></text><text id="text1809" x="15.734867429633669" y="72.87846096908265" style="font-style:normal;font-weight:normal;font-size:4px;font-family:sans-serif;fill:#000000;fill-opacity:1;stroke:none"><tspan x="15.734867429633669" y="72.87846096908265">11</tspan></text><text id="text1810" x="-18.798969044771425" y="65.33589838486225" style="font-style:normal;font-weight:normal;font-size:4px;font-family:sans-serif;fill:#000000;fill-opacity:1;stroke:none"><tspan x="-18.798969044771425" y="65.33589838486225">12</tspan></text><text id="text1811" x="-36.04101615137754" y="60.0" style="font-style:normal;font-weight:normal;font-size:4px;font-family:sans-serif;fill:#000000;fill-opacity:1;stroke:none"><tspan x="-36.04101615137754" y="60.0">13</tspan></text><text id="text1812" x="-53.283063257983656" y="54.66410161513776" style="font-style:normal;font-weight:normal;font-size:4px;font-family:sans-serif;fill:#000000;fill-opacity:1;stroke:none"><tspan x="-53.283063257983656" y="54.66410161513776">14</tspan></text><text id="text1813" x="-68.28203230275508" y="21.6" style="font-style:normal;font-weight:normal;font-size:4px;font-family:sans-serif;fill:#000000;fill-opacity:1;stroke:none"><tspan x="-68.28203230275508" y="21.6">15</tspan></text><text id="text1814" x="-70.68203230275509" y="4.0" style="font-style:normal;font-weight:normal;font-size:4px;font-family:sans-serif;fill:#000000;fill-opacity:1;stroke:none"><tspan x="-70.68203230275509" y="4.0">16</tspan></text><text id="text1815" x="-73.88203230275509" y="-19.200000000000003" style="font-style:normal;font-weight:normal;font-size:4px;font-family:sans-serif;fill:#000000;fill-opacity:1;stroke:none"><tspan x="-73.88203230275509" y="-19.200000000000003">17</tspan></text><text id="text1816" x="-51.790242934956105" y="-53.67846096908266" style="font-style:normal;font-weight:normal;font-size:4px;font-family:sans-serif;fill:#000000;fill-opacity:1;stroke:none"><tspan x="-51.790242934956105" y="-53.67846096908266">18</tspan></text><text id="text1817" x="-22.66307065990918" y="-64.0287187078898" style="font-style:normal;font-weight:normal;font-size:4px;font-family:sans-serif;fill:#000000;fill-opacity:1;stroke:none"><tspan x="-22.66307065990918" y="-64.0287187078898">19</tspan></text><text id="text1818" x="16.35021506942032" y="45.21938659273833" style="font-style:normal;font-weight:normal;font-size:4px;font-family:sans-serif;fill:#000000;fill-opacity:1;stroke:none"><tspan x="16.35021506942032" y="45.21938659273833">20</tspan></text><text id="text1819" x="-51.190359717897664" y="-20.209931596793933" style="font-style:normal;font-weight:normal;font-size:4px;font-family:sans-serif;fill:#000000;fill-opacity:1;stroke:none"><tspan x="-51.190359717897664" y="-20.209931596793933">21</tspan></text><text id="text1820" x="47.04849767933294" y="-19.621264371299617" style="font-style:normal;font-weight:normal;font-size:4px;font-family:sans-serif;fill:#000000;fill-opacity:1;stroke:none"><tspan x="47.04849767933294" y="-19.621264371299617">22</tspan></text><text id="text1821" x="-48.50154258321252" y="35.58659102136514" style="font-style:normal;font-weight:normal;font-size:4px;font-family:sans-serif;fill:#000000;fill-opacity:1;stroke:none"><tspan x="-48.50154258321252" y="35.58659102136514">23</tspan></text><text id="text1822" x="-44.30978013170837" y="5.51958011955291" style="font-style:normal;font-weight:normal;font-size:4px;font-family:sans-serif;fill:#000000;fill-opacity:1;stroke:none"><tspan x="-44.30978013170837" y="5.51958011955291">24</tspan></text><text id="text1823" x="-27.847682364737995" y="-6.273762775368489" style="font-style:normal;font-weight:normal;font-size:4px;font-family:sans-serif;fill:#000000;fill-opacity:1;stroke:none"><tspan x="-27.847682364737995" y="-6.273762775368489">25</tspan></text><text id="text1824" x="-3.2383395419862473" y="-26.394285800553657" style="font-style:normal;font-weight:normal;font-size:4px;font-family:sans-serif;fill:#000000;fill-opacity:1;stroke:none"><tspan x="-3.2383395419862473" y="-26.394285800553657">26</tspan></text><text id="text1825" x="18.414265790020238" y="-36.16991820656718" style="font-style:normal;font-weight:normal;font-size:4px;font-family:sans-serif;fill:#000000;fill-opacity:1;stroke:none"><tspan x="18.414265790020238" y="-36.16991820656718">27</tspan></text><text id="text1826" x="-17.29373060931024" y="37.394085073376786" style="font-style:normal;font-weight:normal;font-size:4px;font-family:sans-serif;fill:#000000;fill-opacity:1;stroke:none"><tspan x="-17.29373060931024" y="37.394085073376786">28</tspan></text><text id="text1827" x="-9.924457439922792" y="10.509063275884543" style="font-style:normal;font-weight:normal;font-size:4px;font-family:sans-serif;fill:#000000;fill-opacity:1;stroke:none"><tspan x="-9.924457439922792" y="10.509063275884543">29</tspan></text><text id="text1828" x="23.02555665598432" y="-6.204601103120384" style="font-style:normal;font-weight:normal;font-size:4px;font-family:sans-serif;fill:#000000;fill-opacity:1;stroke:none"><tspan x="23.02555665598432" y="-6.204601103120384">30</tspan></text><text id="text1829" x="29.966832446250187" y="14.336270619335428" style="font-style:normal;font-weight:normal;font-size:4px;font-family:sans-serif;fill:#000000;fill-opacity:1;stroke:none"><tspan x="29.966832446250187" y="14.336270619335428">31</tspan></text><text id="text1830" x="-3.2259243040958463" y="50.63848326038206" style="font-style:normal;font-weight:normal;font-size:4px;font-family:sans-serif;fill:#000000;fill-opacity:1;stroke:none"><tspan x="-3.2259243040958463" y="50.63848326038206">32</tspan></text><text id="text1831" x="-27.80014210115302" y="14.499557379889437" style="font-style:normal;font-weight:normal;font-size:4px;font-family:sans-serif;fill:#000000;fill-opacity:1;stroke:none"><tspan x="-27.80014210115302" y="14.499557379889437">33</tspan></text><text id="text1832" x="5.8369409375200405" y="23.74098431285868" style="font-style:normal;font-weight:normal;font-size:4px;font-family:sans-serif;fill:#000000;fill-opacity:1;stroke:none"><tspan x="5.8369409375200405" y="23.74098431285868">34</tspan></text><text id="text1833" x="1.2704396715296462" y="-51.62935956032199" style="font-style:normal;font-weight:normal;font-size:4px;font-family:sans-serif;fill:#000000;fill-opacity:1;stroke:none"><tspan x="1.2704396715296462" y="-51.62935956032199">35</tspan></text><text id="text1834" x="-25.75423211936998" y="-29.547283079504258" style="font-style:normal;font-weight:normal;font-size:4px;font-family:sans-serif;fill:#000000;fill-opacity:1;stroke:none"><tspan x="-25.75423211936998" y="-29.547283079504258">36</tspan></text></g><g id="seed_exclusion" inkscape:label="Seed Exclusion" inkscape:groupmode="layer" style="display:none"><circle id="seed-ex-0" cx="0.0" cy="80.0" r="24.0" style="fill:#800000;stroke:none;stroke-width:0;fill-opacity:0.15" /><circle id="seed-ex-1" cx="69.28203230275508" cy="40.0" r="24.0" style="fill:#800000;stroke:none;stroke-width:0;fill-opacity:0.15" /><circle id="seed-ex-2" cx="69.28203230275508" cy="-40.0" r="19.2" style="fill:#800000;stroke:none;stroke-width:0;fill-opacity:0.15" /><circle id="seed-ex-3" cx="0.0" cy="-80.0" r="16.0" style="fill:#800000;stroke:none;stroke-width:0;fill-opacity:0.15" /><circle id="seed-ex-4" cx="-69.28203230275508" cy="-40.0" r="16.0" style="fill:#800000;stroke:none;stroke-width:0;fill-opacity:0.15" /><circle id="seed-ex-5" cx="-69.28203230275508" cy="40.0" r="19.2" style="fill:#800000;stroke:none;stroke-width:0;fill-opacity:0.15" /><circle id="seed-ex-6" cx="34.64101615137754" cy="60.0" r="24.0" style="fill:#800000;stroke:none;stroke-width:0;fill-opacity:0.15" /><circle id="seed-ex-7" cx="72.48203230275509" cy="13.599999999999998" r="22.50221764019898" style="fill:#800000;stroke:none;stroke-width:0;fill-opacity:0.15" /><circle id="seed-ex-8" cx="66.88203230275508" cy="-16.799999999999997" r="20.527336769850766" style="fill:#800000;stroke:none;stroke-width:0;fill-opacity:0.15" /><circle id="seed-ex-9" cx="49.66870390403876" cy="-47.628718707889796" r="18.466534445941697" style="fill:#800000;stroke:none;stroke-width:0;fill-opacity:0.15" /><circle id="seed-ex-10" cx="31.176914536239785" cy="-62.0" r="17.44" style="fill:#800000;stroke:none;stroke-width:0;fill-opacity:0.15" /><circle id="seed-ex-11" cx="17.13486742963367" cy="-72.87846096908265" r="16.662099165543726" style="fill:#800000;stroke:none;stroke-width:0;fill-opacity:0.15" /><circle id="seed-ex-12" cx="-17.398969044771427" cy="-65.33589838486225" r="16.21554410049746" style="fill:#800000;stroke:none;stroke-width:0;fill-opacity:0.15" /><circle id="seed-ex-13" cx="-34.64101615137754" cy="-60.0" r="16.0" style="fill:#800000;stroke:none;stroke-width:0;fill-opacity:0.15" /><circle id="seed-ex-14" cx="-51.88306325798366" cy="-54.66410161513776" r="15.78445589950254" style="fill:#800000;stroke:none;stroke-width:0;fill-opacity:0.15" /><circle id="seed-ex-15" cx="-66.88203230275508" cy="-21.6" r="16.809900834456275" style="fill:#800000;stroke:none;stroke-width:0;fill-opacity:0.15" /><circle id="seed-ex-16" cx="-69.28203230275508" cy="-4.0" r="17.439999999999998" style="fill:#800000;stroke:none;stroke-width:0;fill-opacity:0.15" /><circle id="seed-ex-17" cx="-72.48203230275509" cy="19.200000000000003" r="18.269465554058304" style="fill:#800000;stroke:none;stroke-width:0;fill-opacity:0.15" /><circle id="seed-ex-18" cx="-50.390242934956106" cy="53.67846096908266" r="20.65666323014924" style="fill:#800000;stroke:none;stroke-width:0;fill-opacity:0.15" /><circle id="seed-ex-19" cx="-21.263070659909182" cy="64.0287187078898" r="22.329782359801015" style="fill:#800000;stroke:none;stroke-width:0;fill-opacity:0.15" /><circle id="seed-ex-20" cx="17.750215069420317" cy="-45.21938659273833" r="17.964698340622327" style="fill:#800000;stroke:none;stroke-width:0;fill-opacity:0.15" /><circle id="seed-ex-21" cx="-49.790359717897665" cy="20.209931596793933" r="19.008585125942343" style="fill:#800000;stroke:none;stroke-width:0;fill-opacity:0.15" /><circle id="seed-ex-22" cx="48.44849767933294" cy="19.621264371299617" r="22.21595767720445" style="fill:#800000;stroke:none;stroke-width:0;fill-opacity:0.15" /><circle id="seed-ex-23" cx="-47.10154258321252" cy="-35.58659102136514" r="16.80356829881862" style="fill:#800000;stroke:none;stroke-width:0;fill-opacity:0.15" /><circle id="seed-ex-24" cx="-42.909780131708374" cy="-5.51958011955291" r="18.19127156268938" style="fill:#800000;stroke:none;stroke-width:0;fill-opacity:0.15" /><circle id="seed-ex-25" cx="-26.447682364737997" cy="6.273762775368489" r="19.169906429269503" style="fill:#800000;stroke:none;stroke-width:0;fill-opacity:0.15" /><circle id="seed-ex-26" cx="-1.8383395419862474" cy="26.394285800553657" r="21.070270854067683" style="fill:#800000;stroke:none;stroke-width:0;fill-opacity:0.15" /><circle id="seed-ex-27" cx="19.814265790020237" cy="36.16991820656718" r="22.272516794358943" style="fill:#800000;stroke:none;stroke-width:0;fill-opacity:0.15" /><circle id="seed-ex-28" cx="-15.893730609310243" cy="-37.394085073376786" r="17.560051046442492" style="fill:#800000;stroke:none;stroke-width:0;fill-opacity:0.15" /><circle id="seed-ex-29" cx="-8.524457439922791" cy="-10.509063275884543" r="19.01323581656909" style="fill:#800000;stroke:none;stroke-width:0;fill-opacity:0.15" /><circle id="seed-ex-30" cx="24.42555665598432" cy="6.204601103120384" r="20.763707479341043" style="fill:#800000;stroke:none;stroke-width:0;fill-opacity:0.15" /><circle id="seed-ex-31" cx="31.366832446250186" cy="-14.336270619335428" r="19.7182740568084" style="fill:#800000;stroke:none;stroke-width:0;fill-opacity:0.15" /><circle id="seed-ex-32" cx="-1.8259243040958462" cy="-50.63848326038206" r="17.321008213052657" style="fill:#800000;stroke:none;stroke-width:0;fill-opacity:0.15" /><circle id="seed-ex-33" cx="-26.400142101153023" cy="-14.499557379889437" r="18.340437483538018" style="fill:#800000;stroke:none;stroke-width:0;fill-opacity:0.15" /><circle id="seed-ex-34" cx="7.236940937520041" cy="-23.74098431285868" r="18.76469572534615" style="fill:#800000;stroke:none;stroke-width:0;fill-opacity:0.15" /><circle id="seed-ex-35" cx="2.670439671529646" cy="51.62935956032199" r="22.56912739325516" style="fill:#800000;stroke:none;stroke-width:0;fill-opacity:0.15" /><circle id="seed-ex-36" cx="-24.354232119369982" cy="29.547283079504258" r="20.3717935995719" style="fill:#800000;stroke:none;stroke-width:0;fill-opacity:0.15" /></g><g id="margin_exclusion" inkscape:label="Margin Exclusion" inkscape:groupmode="layer" style="display:none"><circle id="circle1835" cx="17.32050807568877" cy="70.0" r="22.0" style="fill:#000080;stroke:none;stroke-width:0;fill-opacity:0.15" /><circle id="circle1836" cx="51.96152422706631" cy="50.0" r="22.0" style="fill:#000080;stroke:none;stroke-width:0;fill-opacity:0.15" /><circle id="circle1837" cx="69.28203230275508" cy="26.606060606060602" r="14.626277721963305" style="fill:#000080;stroke:none;stroke-width:0;fill-opacity:0.15" /><circle id="circle1838" cx="69.28203230275508" cy="-1.526315789473685" r="17.00131759599826" style="fill:#000080;stroke:none;stroke-width:0;fill-opacity:0.15" /><circle id="circle1839" cx="69.28203230275508" cy="-28.275862068965523" r="12.828094168659662" style="fill:#000080;stroke:none;stroke-width:0;fill-opacity:0.15" /><circle id="circle1840" cx="60.06219261938844" cy="-45.323076923076925" r="11.574592865409999" style="fill:#000080;stroke:none;stroke-width:0;fill-opacity:0.15" /><circle id="circle1841" cx="41.41393206787101" cy="-56.0896551724138" r="12.880807428107913" style="fill:#000080;stroke:none;stroke-width:0;fill-opacity:0.15" /><circle id="circle1842" cx="23.414177735044724" cy="-66.48181818181818" r="9.769585456916786" style="fill:#000080;stroke:none;stroke-width:0;fill-opacity:0.15" /><circle id="circle1843" cx="8.10298551714832" cy="-75.32173913043478" r="10.205723884174018" style="fill:#000080;stroke:none;stroke-width:0;fill-opacity:0.15" /><circle id="circle1844" cx="-10.008779309451583" cy="-74.22142857142858" r="12.514887134928546" style="fill:#000080;stroke:none;stroke-width:0;fill-opacity:0.15" /><circle id="circle1845" cx="-26.62634468726338" cy="-64.62727272727273" r="9.926852471957059" style="fill:#000080;stroke:none;stroke-width:0;fill-opacity:0.15" /><circle id="circle1846" cx="-42.655687615491715" cy="-55.372727272727275" r="9.926852471957057" style="fill:#000080;stroke:none;stroke-width:0;fill-opacity:0.15" /><circle id="circle1847" cx="-59.273252993303494" cy="-45.77857142857143" r="12.514887134928548" style="fill:#000080;stroke:none;stroke-width:0;fill-opacity:0.15" /><circle id="circle1848" cx="-69.28203230275508" cy="-30.643478260869564" r="10.205723884174018" style="fill:#000080;stroke:none;stroke-width:0;fill-opacity:0.15" /><circle id="circle1849" cx="-69.28203230275508" cy="-12.963636363636365" r="9.76958545691679" style="fill:#000080;stroke:none;stroke-width:0;fill-opacity:0.15" /><circle id="circle1850" cx="-69.28203230275508" cy="7.8206896551724085" r="12.880807428107914" style="fill:#000080;stroke:none;stroke-width:0;fill-opacity:0.15" /><circle id="circle1851" cx="-69.28203230275508" cy="29.353846153846163" r="11.574592865409997" style="fill:#000080;stroke:none;stroke-width:0;fill-opacity:0.15" /><circle id="circle1852" cx="-59.12863101700649" cy="45.862068965517246" r="12.828094168659664" style="fill:#000080;stroke:none;stroke-width:0;fill-opacity:0.15" /><circle id="circle1853" cx="-35.962844399259055" cy="59.23684210526316" r="17.001317595998252" style="fill:#000080;stroke:none;stroke-width:0;fill-opacity:0.15" /><circle id="circle1854" cx="-11.59949177190066" cy="73.30303030303031" r="14.626277721963305" style="fill:#000080;stroke:none;stroke-width:0;fill-opacity:0.15" /></g><g id="circles" inkscape:label="Inscribed Circles" inkscape:groupmode="layer" style="display:none"><circle id="incircle-0" cx="0.0" cy="80.0" r="13.296616110875732" style="fill:#008000;stroke:none;stroke-width:0;fill-opacity:0.15" /><circle id="incircle-ctr-0" cx="0.0" cy="80.0" r="0.5" style="fill:#000000;stroke:none;stroke-width:0" /><circle id="incircle-1" cx="69.28203230275508" cy="40.0" r="13.296616110875734" style="fill:#008000;stroke:none;stroke-width:0;fill-opacity:0.15" /><circle id="incircle-ctr-1" cx="69.28203230275508" cy="40.0" r="0.5" style="fill:#000000;stroke:none;stroke-width:0" /><circle id="incircle-2" cx="69.28203230275508" cy="-40.0" r="10.522357150372722" style="fill:#008000;stroke:none;stroke-width:0;fill-opacity:0.15" /><circle id="incircle-ctr-2" cx="69.28203230275508" cy="-40.0" r="0.5" style="fill:#000000;stroke:none;stroke-width:0" /><circle id="incircle-3" cx="0.0" cy="-80.0" r="9.277930803794563" style="fill:#008000;stroke:none;stroke-width:0;fill-opacity:0.15" /><circle id="incircle-ctr-3" cx="0.0" cy="-80.0" r="0.5" style="fill:#000000;stroke:none;stroke-width:0" /><circle id="incircle-4" cx="-69.28203230275508" cy="-40.0" r="9.277930803794556" style="fill:#008000;stroke:none;stroke-width:0;fill-opacity:0.15" /><circle id="incircle-ctr-4" cx="-69.28203230275508" cy="-40.0" r="0.5" style="fill:#000000;stroke:none;stroke-width:0" /><circle id="incircle-5" cx="-69.28203230275508" cy="40.0" r="10.52235715037272" style="fill:#008000;stroke:none;stroke-width:0;fill-opacity:0.15" /><circle id="incircle-ctr-5" cx="-69.28203230275508" cy="40.0" r="0.5" style="fill:#000000;stroke:none;stroke-width:0" /><circle id="incircle-6" cx="34.64101615137754" cy="60.0" r="14.033044257748445" style="fill:#008000;stroke:none;stroke-width:0;fill-opacity:0.15" /><circle id="incircle-ctr-6" cx="34.64101615137754" cy="60.0" r="0.5" style="fill:#000000;stroke:none;stroke-width:0" /><circle id="incircle-7" cx="69.28203230275508" cy="12.539872408293459" r="9.541737045851889" style="fill:#008000;stroke:none;stroke-width:0;fill-opacity:0.15" /><circle id="incircle-ctr-7" cx="69.28203230275508" cy="12.539872408293459" r="0.5" style="fill:#000000;stroke:none;stroke-width:0" /><circle id="incircle-8" cx="69.28203230275508" cy="-14.9010889292196" r="13.153463290938609" style="fill:#008000;stroke:none;stroke-width:0;fill-opacity:0.15" /><circle id="incircle-ctr-8" cx="69.28203230275508" cy="-14.9010889292196" r="0.5" style="fill:#000000;stroke:none;stroke-width:0" /><circle id="incircle-9" cx="50.73806234362972" cy="-50.70636604774536" r="10.641381222185295" style="fill:#008000;stroke:none;stroke-width:0;fill-opacity:0.15" /><circle id="incircle-ctr-9" cx="50.73806234362972" cy="-50.70636604774536" r="0.5" style="fill:#000000;stroke:none;stroke-width:0" /><circle id="incircle-10" cx="32.41405490145787" cy="-61.28573667711599" r="10.294696255658442" style="fill:#008000;stroke:none;stroke-width:0;fill-opacity:0.15" /><circle id="incircle-ctr-10" cx="32.41405490145787" cy="-61.28573667711599" r="0.5" style="fill:#000000;stroke:none;stroke-width:0" /><circle id="incircle-11" cx="15.758581626096518" cy="-70.90177865612648" r="8.758860359016104" style="fill:#008000;stroke:none;stroke-width:0;fill-opacity:0.15" /><circle id="incircle-ctr-11" cx="15.758581626096518" cy="-70.90177865612648" r="0.5" style="fill:#000000;stroke:none;stroke-width:0" /><circle id="incircle-12" cx="-18.317561998357483" cy="-69.42435064935066" r="9.355576587220016" style="fill:#008000;stroke:none;stroke-width:0;fill-opacity:0.15" /><circle id="incircle-ctr-12" cx="-18.317561998357483" cy="-69.42435064935066" r="0.5" style="fill:#000000;stroke:none;stroke-width:0" /><circle id="incircle-13" cx="-34.64101615137755" cy="-60.0" r="9.024411338142778" style="fill:#008000;stroke:none;stroke-width:0;fill-opacity:0.15" /><circle id="incircle-ctr-13" cx="-34.64101615137755" cy="-60.0" r="0.5" style="fill:#000000;stroke:none;stroke-width:0" /><circle id="incircle-14" cx="-50.96447030439761" cy="-50.57564935064936" r="5.644686317495423" style="fill:#008000;stroke:none;stroke-width:0;fill-opacity:0.15" /><circle id="incircle-ctr-14" cx="-50.96447030439761" cy="-50.57564935064936" r="0.5" style="fill:#000000;stroke:none;stroke-width:0" /><circle id="incircle-15" cx="-69.28203230275508" cy="-21.803557312252963" r="8.7588603590161" style="fill:#008000;stroke:none;stroke-width:0;fill-opacity:0.15" /><circle id="incircle-ctr-15" cx="-69.28203230275508" cy="-21.803557312252963" r="0.5" style="fill:#000000;stroke:none;stroke-width:0" /><circle id="incircle-16" cx="-69.28203230275508" cy="-2.571473354231978" r="10.294696255658442" style="fill:#008000;stroke:none;stroke-width:0;fill-opacity:0.15" /><circle id="incircle-ctr-16" cx="-69.28203230275508" cy="-2.571473354231978" r="0.5" style="fill:#000000;stroke:none;stroke-width:0" /><circle id="incircle-17" cx="-69.28203230275508" cy="18.587267904509282" r="8.18747628717795" style="fill:#008000;stroke:none;stroke-width:0;fill-opacity:0.15" /><circle id="incircle-ctr-17" cx="-69.28203230275508" cy="18.587267904509282" r="0.5" style="fill:#000000;stroke:none;stroke-width:0" /><circle id="incircle-18" cx="-47.545737708132776" cy="52.5494555353902" r="13.15346329093861" style="fill:#008000;stroke:none;stroke-width:0;fill-opacity:0.15" /><circle id="incircle-ctr-18" cx="-47.545737708132776" cy="52.5494555353902" r="0.5" style="fill:#000000;stroke:none;stroke-width:0" /><circle id="incircle-19" cx="-23.78116808557986" cy="66.26993620414673" r="13.833437634388083" style="fill:#008000;stroke:none;stroke-width:0;fill-opacity:0.15" /><circle id="incircle-ctr-19" cx="-23.78116808557986" cy="66.26993620414673" r="0.5" style="fill:#000000;stroke:none;stroke-width:0" /><circle id="incircle-20" cx="18.439289487323954" cy="-44.04599408762998" r="11.133324728317682" style="fill:#008000;stroke:none;stroke-width:0;fill-opacity:0.15" /><circle id="incircle-ctr-20" cx="18.439289487323954" cy="-44.04599408762998" r="0.5" style="fill:#000000;stroke:none;stroke-width:0" /><circle id="incircle-21" cx="-48.53905477266029" cy="20.560835725876675" r="12.252320106119582" style="fill:#008000;stroke:none;stroke-width:0;fill-opacity:0.15" /><circle id="incircle-ctr-21" cx="-48.53905477266029" cy="20.560835725876675" r="0.5" style="fill:#000000;stroke:none;stroke-width:0" /><circle id="incircle-22" cx="46.955058455304204" cy="22.02992688230239" r="13.6284002587498" style="fill:#008000;stroke:none;stroke-width:0;fill-opacity:0.15" /><circle id="incircle-ctr-22" cx="46.955058455304204" cy="22.02992688230239" r="0.5" style="fill:#000000;stroke:none;stroke-width:0" /><circle id="incircle-23" cx="-45.4912078253511" cy="-33.50368995710916" r="12.160587227148158" style="fill:#008000;stroke:none;stroke-width:0;fill-opacity:0.15" /><circle id="incircle-ctr-23" cx="-45.4912078253511" cy="-33.50368995710916" r="0.5" style="fill:#000000;stroke:none;stroke-width:0" /><circle id="incircle-24" cx="-44.73463911864868" cy="-5.147417220665983" r="11.177807698858489" style="fill:#008000;stroke:none;stroke-width:0;fill-opacity:0.15" /><circle id="incircle-ctr-24" cx="-44.73463911864868" cy="-5.147417220665983" r="0.5" style="fill:#000000;stroke:none;stroke-width:0" /><circle id="incircle-25" cx="-26.047410186493515" cy="6.899635487863593" r="10.815141562746735" style="fill:#008000;stroke:none;stroke-width:0;fill-opacity:0.15" /><circle id="incircle-ctr-25" cx="-26.047410186493515" cy="6.899635487863593" r="0.5" style="fill:#000000;stroke:none;stroke-width:0" /><circle id="incircle-26" cx="-1.3520087324960528" cy="21.854016631663292" r="12.479073570580308" style="fill:#008000;stroke:none;stroke-width:0;fill-opacity:0.15" /><circle id="incircle-ctr-26" cx="-1.3520087324960528" cy="21.854016631663292" r="0.5" style="fill:#000000;stroke:none;stroke-width:0" /><circle id="incircle-27" cx="22.366041292045143" cy="34.972403454960165" r="13.5873253968489" style="fill:#008000;stroke:none;stroke-width:0;fill-opacity:0.15" /><circle id="incircle-ctr-27" cx="22.366041292045143" cy="34.972403454960165" r="0.5" style="fill:#000000;stroke:none;stroke-width:0" /><circle id="incircle-28" cx="-19.18055729960973" cy="-38.17709827782985" r="11.517090115883908" style="fill:#008000;stroke:none;stroke-width:0;fill-opacity:0.15" /><circle id="incircle-ctr-28" cx="-19.18055729960973" cy="-38.17709827782985" r="0.5" style="fill:#000000;stroke:none;stroke-width:0" /><circle id="incircle-29" cx="-3.8680898016452" cy="-3.7837223784218237" r="11.047586887352496" style="fill:#008000;stroke:none;stroke-width:0;fill-opacity:0.15" /><circle id="incircle-ctr-29" cx="-3.8680898016452" cy="-3.7837223784218237" r="0.5" style="fill:#000000;stroke:none;stroke-width:0" /><circle id="incircle-30" cx="21.3860878891743" cy="7.633193410803093" r="13.16745711267067" style="fill:#008000;stroke:none;stroke-width:0;fill-opacity:0.15" /><circle id="incircle-ctr-30" cx="21.3860878891743" cy="7.633193410803093" r="0.5" style="fill:#000000;stroke:none;stroke-width:0" /><circle id="incircle-31" cx="34.68377393933629" cy="-17.336257770983178" r="14.283673999153788" style="fill:#008000;stroke:none;stroke-width:0;fill-opacity:0.15" /><circle id="incircle-ctr-31" cx="34.68377393933629" cy="-17.336257770983178" r="0.5" style="fill:#000000;stroke:none;stroke-width:0" /><circle id="incircle-32" cx="-1.7404423227424477" cy="-51.36639709105277" r="10.221917274512775" style="fill:#008000;stroke:none;stroke-width:0;fill-opacity:0.15" /><circle id="incircle-ctr-32" cx="-1.7404423227424477" cy="-51.36639709105277" r="0.5" style="fill:#000000;stroke:none;stroke-width:0" /><circle id="incircle-33" cx="-26.864041195506125" cy="-17.24750042226716" r="10.20929792924646" style="fill:#008000;stroke:none;stroke-width:0;fill-opacity:0.15" /><circle id="incircle-ctr-33" cx="-26.864041195506125" cy="-17.24750042226716" r="0.5" style="fill:#000000;stroke:none;stroke-width:0" /><circle id="incircle-34" cx="8.794818215282724" cy="-23.55471708523543" r="11.363018095339124" style="fill:#008000;stroke:none;stroke-width:0;fill-opacity:0.15" /><circle id="incircle-ctr-34" cx="8.794818215282724" cy="-23.55471708523543" r="0.5" style="fill:#000000;stroke:none;stroke-width:0" /><circle id="incircle-35" cx="2.3906305117253126" cy="53.44826098897362" r="12.3922067447274" style="fill:#008000;stroke:none;stroke-width:0;fill-opacity:0.15" /><circle id="incircle-ctr-35" cx="2.3906305117253126" cy="53.44826098897362" r="0.5" style="fill:#000000;stroke:none;stroke-width:0" /><circle id="incircle-36" cx="-25.786044469468184" cy="33.455187216550016" r="13.327721883588707" style="fill:#008000;stroke:none;stroke-width:0;fill-opacity:0.15" /><circle id="incircle-ctr-36" cx="-25.786044469468184" cy="33.455187216550016" r="0.5" style="fill:#000000;stroke:none;stroke-width:0" /></g><g id="annotations" inkscape:label="Annotations" inkscape:groupmode="layer" transform="scale(1,-1)"><text id="text1855" x="-92" y="84.5" style="font-style:normal;font-weight:normal;font-size:4px;font-family:sans-serif;fill:#000000;fill-opacity:1;stroke:none"><tspan x="-92" y="84.5">id: 423</tspan></text><ns0:text xml:space="preserve" style="font-style:normal;font-weight:normal;font-size:4.23333px;line-height:1.25;font-family:sans-serif;text-align:center;text-anchor:middle;fill:#000000;fill-opacity:1;stroke:none;stroke-width:0.264583" x="-1.7974526e-07" y="0" id="tile-id" transform="translate(0 -72)"><ns0:tspan ns1:role="line" id="tspan439" style="font-style:normal;font-variant:normal;font-weight:bold;font-stretch:normal;font-size:4.23333px;font-family:'Arial Black';-inkscape-font-specification:'Arial Black,  Bold';text-align:center;text-anchor:middle;fill:#808080;fill-opacity:1;stroke-width:0.264583" x="-1.4621764e-07" y="0">423</ns0:tspan></ns0:text>
  <text id="text1856" x="-92" y="90.0" style="font-style:normal;font-weight:normal;font-size:4px;font-family:sans-serif;fill:#000000;fill-opacity:1;stroke:none"><tspan x="-92" y="90.0">size: 80</tspan></text><text id="text1857" x="-92" y="95.5" style="font-style:normal;font-weight:normal;font-size:4px;font-family:sans-serif;fill:#000000;fill-opacity:1;stroke:none"><tspan x="-92" y="95.5">rng seed 4989</tspan></text><text id="text1858" x="-92" y="101.0" style="font-style:normal;font-weight:normal;font-size:4px;font-family:sans-serif;fill:#000000;fill-opacity:1;stroke:none"><tspan x="-92" y="101.0">pattern 112332 / llmhhm</tspan></text><text id="text1859" x="-92" y="106.5" style="font-style:normal;font-weight:normal;font-size:4px;font-family:sans-serif;fill:#000000;fill-opacity:1;stroke:none"><tspan x="-92" y="106.5">seed attempts: 20</tspan></text><text id="text1860" x="-92" y="112.0" style="font-style:normal;font-weight:normal;font-size:4px;font-family:sans-serif;fill:#000000;fill-opacity:1;stroke:none"><tspan x="-92" y="112.0">seed distance: l 0.3; m 0.24; h 0.2</tspan></text><text id="text1861" x="-92" y="117.5" style="font-style:normal;font-weight:normal;font-size:4px;font-family:sans-serif;fill:#000000;fill-opacity:1;stroke:none"><tspan x="-92" y="117.5">center: (AVG) 0.247</tspan></text><text id="text1862" x="-92" y="123.0" style="font-style:normal;font-weight:normal;font-size:4px;font-family:sans-serif;fill:#000000;fill-opacity:1;stroke:none"><tspan x="-92" y="123.0">min ridge length: 0.08; at edge: 0.04</tspan></text><text id="text1863" x="-92" y="128.5" style="font-style:normal;font-weight:normal;font-size:4px;font-family:sans-serif;fill:#000000;fill-opacity:1;stroke:none"><tspan x="-92" y="128.5">edge margin exclusion zone scale: 1.1</tspan></text><text id="text1864" x="-92" y="134.0" style="font-style:normal;font-weight:normal;font-size:4px;font-family:sans-serif;fill:#000000;fill-opacity:1;stroke:none"><tspan x="-92" y="134.0">iterations: 53</tspan></text><text id="text1865" x="-92" y="139.5" style="font-style:normal;font-weight:normal;font-size:4px;font-family:sans-serif;fill:#000000;fill-opacity:1;stroke:none"><tspan x="-92" y="139.5">adjustments: side 0.011, neighbor -0.009</tspan></text><text id="text1866" x="-92" y="145.0" style="font-style:normal;font-weight:normal;font-size:4px;font-family:sans-serif;fill:#000000;fill-opacity:1;stroke:none"><tspan x="-92" y="145.0">closeness: 0.9, adjust -0.013</tspan></text><text id="text1867" x="-1.5" y="-82" style="font-style:normal;font-weight:normal;font-size:4px;font-family:sans-serif;fill:#000000;fill-opacity:1;stroke:none"><tspan x="-1.5" y="-82">L</tspan></text><text id="text1868" x="-1.5" y="-82" style="font-style:normal;font-weight:normal;font-size:4px;font-family:sans-serif;fill:#000000;fill-opacity:1;stroke:none" transform="rotate(60)"><tspan x="-1.5" y="-82">L</tspan></text><text id="text1869" x="-1.5" y="-82" style="font-style:normal;font-weight:normal;font-size:4px;font-family:sans-serif;fill:#000000;fill-opacity:1;stroke:none" transform="rotate(120)"><tspan x="-1.5" y="-82">M</tspan></text><text id="text1870" x="-1.5" y="-82" style="font-style:normal;font-weight:normal;font-size:4px;font-family:sans-serif;fill:#000000;fill-opacity:1;stroke:none" transform="rotate(180)"><tspan x="-1.5" y="-82">H</tspan></text><text id="text1871" x="-1.5" y="-82" style="font-style:normal;font-weight:normal;font-size:4px;font-family:sans-serif;fill:#000000;fill-opacity:1;stroke:none" transform="rotate(240)"><tspan x="-1.5" y="-82">H</tspan></text><text id="text1872" x="-1.5" y="-82" style="font-style:normal;font-weight:normal;font-size:4px;font-family:sans-serif;fill:#000000;fill-opacity:1;stroke:none" transform="rotate(300)"><tspan x="-1.5" y="-82">M</tspan></text><g id="node1873" transform="rotate(30)"><text id="text1874" x="-1.5" y="-72.28203230275508" style="font-style:normal;font-weight:normal;font-size:4px;font-family:sans-serif;fill:#000000;fill-opacity:1;stroke:none"><tspan x="-1.5" y="-72.28203230275508">L</tspan></text></g><g id="node1875" transform="rotate(90)"><text id="text1876" x="-15.099999999999998" y="-72.28203230275508" style="font-style:normal;font-weight:normal;font-size:4px;font-family:sans-serif;fill:#000000;fill-opacity:1;stroke:none"><tspan x="-15.099999999999998" y="-72.28203230275508">L</tspan></text><text id="text1877" x="15.299999999999997" y="-72.28203230275508" style="font-style:normal;font-weight:normal;font-size:4px;font-family:sans-serif;fill:#000000;fill-opacity:1;stroke:none"><tspan x="15.299999999999997" y="-72.28203230275508">L</tspan></text></g><g id="node1878" transform="rotate(150)"><text id="text1879" x="-20.7" y="-72.28203230275508" style="font-style:normal;font-weight:normal;font-size:4px;font-family:sans-serif;fill:#000000;fill-opacity:1;stroke:none"><tspan x="-20.7" y="-72.28203230275508">M</tspan></text><text id="text1880" x="2.5" y="-72.28203230275508" style="font-style:normal;font-weight:normal;font-size:4px;font-family:sans-serif;fill:#000000;fill-opacity:1;stroke:none"><tspan x="2.5" y="-72.28203230275508">H</tspan></text><text id="text1881" x="20.1" y="-72.28203230275508" style="font-style:normal;font-weight:normal;font-size:4px;font-family:sans-serif;fill:#000000;fill-opacity:1;stroke:none"><tspan x="20.1" y="-72.28203230275508">M</tspan></text></g><g id="node1882" transform="rotate(210)"><text id="text1883" x="-19.099999999999998" y="-72.28203230275508" style="font-style:normal;font-weight:normal;font-size:4px;font-family:sans-serif;fill:#000000;fill-opacity:1;stroke:none"><tspan x="-19.099999999999998" y="-72.28203230275508">H</tspan></text><text id="text1884" x="-1.5" y="-72.28203230275508" style="font-style:normal;font-weight:normal;font-size:4px;font-family:sans-serif;fill:#000000;fill-opacity:1;stroke:none"><tspan x="-1.5" y="-72.28203230275508">M</tspan></text><text id="text1885" x="16.099999999999994" y="-72.28203230275508" style="font-style:normal;font-weight:normal;font-size:4px;font-family:sans-serif;fill:#000000;fill-opacity:1;stroke:none"><tspan x="16.099999999999994" y="-72.28203230275508">H</tspan></text></g><g id="node1886" transform="rotate(270)"><text id="text1887" x="-23.1" y="-72.28203230275508" style="font-style:normal;font-weight:normal;font-size:4px;font-family:sans-serif;fill:#000000;fill-opacity:1;stroke:none"><tspan x="-23.1" y="-72.28203230275508">M</tspan></text><text id="text1888" x="-5.5" y="-72.28203230275508" style="font-style:normal;font-weight:normal;font-size:4px;font-family:sans-serif;fill:#000000;fill-opacity:1;stroke:none"><tspan x="-5.5" y="-72.28203230275508">H</tspan></text><text id="text1889" x="17.700000000000003" y="-72.28203230275508" style="font-style:normal;font-weight:normal;font-size:4px;font-family:sans-serif;fill:#000000;fill-opacity:1;stroke:none"><tspan x="17.700000000000003" y="-72.28203230275508">M</tspan></text></g><g id="node1890" transform="rotate(330)"><text id="text1891" x="-18.299999999999997" y="-72.28203230275508" style="font-style:normal;font-weight:normal;font-size:4px;font-family:sans-serif;fill:#000000;fill-opacity:1;stroke:none"><tspan x="-18.299999999999997" y="-72.28203230275508">L</tspan></text><text id="text1892" x="12.099999999999994" y="-72.28203230275508" style="font-style:normal;font-weight:normal;font-size:4px;font-family:sans-serif;fill:#000000;fill-opacity:1;stroke:none"><tspan x="12.099999999999994" y="-72.28203230275508">L</tspan></text></g><g id="node1893" transform="rotate(90)"><rect id="rect1894" x="0.10000000000000142" y="-77.28203230275508" width="3" height="8" style="fill:#a2c6ff;stroke:#000000;stroke-width:0.3" /><text id="text1895" x="0.10000000000000142" y="-79.28203230275508" style="font-style:normal;font-weight:normal;font-size:4px;font-family:sans-serif;fill:#000000;fill-opacity:1;stroke:none"><tspan x="0.10000000000000142" y="-79.28203230275508">R</tspan></text></g><g id="node1896" transform="rotate(330)"><rect id="rect1897" x="-3.1000000000000014" y="-77.28203230275508" width="3" height="8" style="fill:#a2c6ff;stroke:#000000;stroke-width:0.3" /><text id="text1898" x="-3.1000000000000014" y="-79.28203230275508" style="font-style:normal;font-weight:normal;font-size:4px;font-family:sans-serif;fill:#000000;fill-opacity:1;stroke:none"><tspan x="-3.1000000000000014" y="-79.28203230275508">R</tspan></text></g><circle id="mana" cx="50" cy="110" r="7.5" style="fill:#000000;stroke:none;stroke-width:0" /><rect id="rect1899" x="75" y="90" width="15" height="6" style="fill:#be850a;stroke:#000000;stroke-width:0.3" /><text id="text1900" x="70" y="94.5" style="font-style:normal;font-weight:normal;font-size:4px;font-family:sans-serif;fill:#000000;fill-opacity:1;stroke:none"><tspan x="70" y="94.5">V</tspan></text><rect id="rect1901" x="75" y="100" width="15" height="6" style="fill:#e7a311;stroke:#000000;stroke-width:0.3" /><text id="text1902" x="70" y="104.5" style="font-style:normal;font-weight:normal;font-size:4px;font-family:sans-serif;fill:#000000;fill-opacity:1;stroke:none"><tspan x="70" y="104.5">H</tspan></text><rect id="rect1903" x="75" y="110" width="15" height="6" style="fill:#f0ce76;stroke:#000000;stroke-width:0.3" /><text id="text1904" x="70" y="114.5" style="font-style:normal;font-weight:normal;font-size:4px;font-family:sans-serif;fill:#000000;fill-opacity:1;stroke:none"><tspan x="70" y="114.5">M</tspan></text><rect id="rect1905" x="75" y="120" width="15" height="6" style="fill:#f0eaac;stroke:#000000;stroke-width:0.3" /><text id="text1906" x="70" y="124.5" style="font-style:normal;font-weight:normal;font-size:4px;font-family:sans-serif;fill:#000000;fill-opacity:1;stroke:none"><tspan x="70" y="124.5">L</tspan></text><rect id="rect1907" x="75" y="130" width="15" height="6" style="fill:#a2c6ff;stroke:#000000;stroke-width:0.3" /><text id="text1908" x="70" y="134.5" style="font-style:normal;font-weight:normal;font-size:4px;font-family:sans-serif;fill:#000000;fill-opacity:1;stroke:none"><tspan x="70" y="134.5">R</tspan></text></g><g id="river-border" inkscape:label="River Border" inkscape:groupmode="layer"><path id="path1909" d="m -39.1466 68.1964 7.32015 -20.6 z" style="fill:none;stroke:#000000;stroke-width:2.6;stroke-linecap:round;stroke-linejoin:round" /><path id="path1910" d="m -15.3622 46.1205 -16.4642 1.47597 z" style="fill:none;stroke:#000000;stroke-width:2.6;stroke-linecap:round;stroke-linejoin:round" /><path id="path1911" d="m -15.3622 46.1205 4.10417 -5.0228 z" style="fill:none;stroke:#000000;stroke-width:2.6;stroke-linecap:round;stroke-linejoin:round" /><path id="path1912" d="m 5.9441 38.0241 -17.2022 3.07353 z" style="fill:none;stroke:#000000;stroke-width:2.6;stroke-linecap:round;stroke-linejoin:round" /><path id="path1913" d="m 31.0485 22.5613 -16.9459 -2.60777 z" style="fill:none;stroke:#000000;stroke-width:2.6;stroke-linecap:round;stroke-linejoin:round" /><path id="path1914" d="m 31.0485 22.5613 12.0096 -21.5035 z" style="fill:none;stroke:#000000;stroke-width:2.6;stroke-linecap:round;stroke-linejoin:round" /><path id="path1915" d="m 5.9441 38.0241 8.15846 -18.0706 z" style="fill:none;stroke:#000000;stroke-width:2.6;stroke-linecap:round;stroke-linejoin:round" /><path id="path1916" d="m 56.5107 0.826294 -6.47637 -3.27782 z" style="fill:none;stroke:#000000;stroke-width:2.6;stroke-linecap:round;stroke-linejoin:round" /><path id="path1917" d="m 50.0343 -2.45153 -6.97627 3.50927 z" style="fill:none;stroke:#000000;stroke-width:2.6;stroke-linecap:round;stroke-linejoin:round" /><path id="path1918" d="m 56.5107 0.826294 22.6033 -4.16377 z" style="fill:none;stroke:#000000;stroke-width:2.6;stroke-linecap:round;stroke-linejoin:round" /></g><g id="river" inkscape:label="River" inkscape:groupmode="layer"><path id="path1909" d="m -39.1466 68.1964 7.32015 -20.6 z" style="fill:none;stroke:#a2c6ff;stroke-width:2.0;stroke-linecap:round;stroke-linejoin:round" /><path id="path1910" d="m -15.3622 46.1205 -16.4642 1.47597 z" style="fill:none;stroke:#a2c6ff;stroke-width:2.0;stroke-linecap:round;stroke-linejoin:round" /><path id="path1911" d="m -15.3622 46.1205 4.10417 -5.0228 z" style="fill:none;stroke:#a2c6ff;stroke-width:2.0;stroke-linecap:round;stroke-linejoin:round" /><path id="path1912" d="m 5.9441 38.0241 -17.2022 3.07353 z" style="fill:none;stroke:#a2c6ff;stroke-width:2.0;stroke-linecap:round;stroke-linejoin:round" /><path id="path1913" d="m 31.0485 22.5613 -16.9459 -2.60777 z" style="fill:none;stroke:#a2c6ff;stroke-width:2.0;stroke-linecap:round;stroke-linejoin:round" /><path id="path1914" d="m 31.0485 22.5613 12.0096 -21.5035 z" style="fill:none;stroke:#a2c6ff;stroke-width:2.0;stroke-linecap:round;stroke-linejoin:round" /><path id="path1915" d="m 5.9441 38.0241 8.15846 -18.0706 z" style="fill:none;stroke:#a2c6ff;stroke-width:2.0;stroke-linecap:round;stroke-linejoin:round" /><path id="path1916" d="m 56.5107 0.826294 -6.47637 -3.27782 z" style="fill:none;stroke:#a2c6ff;stroke-width:2.0;stroke-linecap:round;stroke-linejoin:round" /><path id="path1917" d="m 50.0343 -2.45153 -6.97627 3.50927 z" style="fill:none;stroke:#a2c6ff;stroke-width:2.0;stroke-linecap:round;stroke-linejoin:round" /><path id="path1918" d="m 56.5107 0.826294 22.6033 -4.16377 z" style="fill:none;stroke:#a2c6ff;stroke-width:2.0;stroke-linecap:round;stroke-linejoin:round" /></g><g id="overlay" inkscape:label="Overlay" inkscape:groupmode="layer" transform="scale(1,-1)"><ns0:path ns1:nodetypes="ccccc" ns2:connector-curvature="0" id="obj-bridge" d="m -1.3629478,2.973799 c 0.6829002,-2.17565439 0.68923869,-3.60295062 0.015075,-5.9083917 l 2.8035417,0.00714 C 0.73648446,-0.63363961 0.73738591,0.81474035 1.4406036,2.9809656 Z" style="display:inline;fill:#000000;fill-opacity:1;stroke:none;stroke-width:2.14313;stroke-linecap:round;stroke-miterlimit:4;stroke-dasharray:2.14313, 4.28625;stroke-dashoffset:0;stroke-opacity:1" transform="translate(0.41605006477169937 -39.011822680437824) rotate(10.130207654474631) translate(-2.5 0)" />
  <ns0:path style="display:inline;fill:#000000;fill-opacity:1;stroke:none;stroke-width:0.560758;stroke-linecap:round;stroke-miterlimit:4;stroke-dasharray:none;stroke-dashoffset:0;stroke-opacity:1" d="m 0.0020996,-3.2191828 -1.0211245,1.81591 -2.042771,0.41030977 1.4118,1.53272403 -0.241329,2.069123 1.8934245,-0.86868 1.893424,0.86868 -0.240813,-2.069123 1.411285,-1.53272403 -2.042253,-0.41030977 z" id="obj-star" transform="translate(-8.524457439922791 10.509063275884543)" />
  <ns0:path ns1:nodetypes="cccccccccccccccc" style="display:inline;fill:#5ba22d;fill-opacity:1;fill-rule:evenodd;stroke:#000000;stroke-width:0.225018px;stroke-linecap:butt;stroke-linejoin:miter;stroke-opacity:1" d="m -0.03929664,-3.4250467 -1.21990906,1.785649 0.63078516,0.083817 -0.84435416,1.6018086 0.68675246,-0.0203464 -0.94321836,2.1362987 1.41248336,-0.326599 -0.0770308,0.6564974 h 0.8646239 L 0.39222286,1.8758406 1.8078469,2.0800142 0.70780196,0.0885405 1.4946226,0.1491327 0.54903346,-1.6560267 1.1778369,-1.6381673 Z" id="obj-tree" ns2:connector-curvature="0" transform="translate(24.42555665598432 -6.204601103120384)" />
  <ns0:path ns1:nodetypes="cccccccccccccccc" style="display:inline;fill:#5ba22d;fill-opacity:1;fill-rule:evenodd;stroke:#000000;stroke-width:0.225018px;stroke-linecap:butt;stroke-linejoin:miter;stroke-opacity:1" d="m -0.03929664,-3.4250467 -1.21990906,1.785649 0.63078516,0.083817 -0.84435416,1.6018086 0.68675246,-0.0203464 -0.94321836,2.1362987 1.41248336,-0.326599 -0.0770308,0.6564974 h 0.8646239 L 0.39222286,1.8758406 1.8078469,2.0800142 0.70780196,0.0885405 1.4946226,0.1491327 0.54903346,-1.6560267 1.1778369,-1.6381673 Z" id="obj-tree" ns2:connector-curvature="0" transform="translate(45.66870390403876 39.628718707889796)" />
  <ns0:path ns1:nodetypes="cccccccccccccccc" style="display:inline;fill:#5ba22d;fill-opacity:1;fill-rule:evenodd;stroke:#000000;stroke-width:0.225018px;stroke-linecap:butt;stroke-linejoin:miter;stroke-opacity:1" d="m -0.03929664,-3.4250467 -1.21990906,1.785649 0.63078516,0.083817 -0.84435416,1.6018086 0.68675246,-0.0203464 -0.94321836,2.1362987 1.41248336,-0.326599 -0.0770308,0.6564974 h 0.8646239 L 0.39222286,1.8758406 1.8078469,2.0800142 0.70780196,0.0885405 1.4946226,0.1491327 0.54903346,-1.6560267 1.1778369,-1.6381673 Z" id="obj-tree" ns2:connector-curvature="0" transform="translate(-15.893730609310243 37.394085073376786)" />
  <ns0:path ns1:nodetypes="cccccccccccccccc" style="display:inline;fill:#5ba22d;fill-opacity:1;fill-rule:evenodd;stroke:#000000;stroke-width:0.225018px;stroke-linecap:butt;stroke-linejoin:miter;stroke-opacity:1" d="m -0.03929664,-3.4250467 -1.21990906,1.785649 0.63078516,0.083817 -0.84435416,1.6018086 0.68675246,-0.0203464 -0.94321836,2.1362987 1.41248336,-0.326599 -0.0770308,0.6564974 h 0.8646239 L 0.39222286,1.8758406 1.8078469,2.0800142 0.70780196,0.0885405 1.4946226,0.1491327 0.54903346,-1.6560267 1.1778369,-1.6381673 Z" id="obj-tree" ns2:connector-curvature="0" transform="translate(-26.400142101153023 14.499557379889437)" />
  <ns0:path ns1:nodetypes="cccccccccccccccc" style="display:inline;fill:#5ba22d;fill-opacity:1;fill-rule:evenodd;stroke:#000000;stroke-width:0.225018px;stroke-linecap:butt;stroke-linejoin:miter;stroke-opacity:1" d="m -0.03929664,-3.4250467 -1.21990906,1.785649 0.63078516,0.083817 -0.84435416,1.6018086 0.68675246,-0.0203464 -0.94321836,2.1362987 1.41248336,-0.326599 -0.0770308,0.6564974 h 0.8646239 L 0.39222286,1.8758406 1.8078469,2.0800142 0.70780196,0.0885405 1.4946226,0.1491327 0.54903346,-1.6560267 1.1778369,-1.6381673 Z" id="obj-tree" ns2:connector-curvature="0" transform="translate(-26.447682364737997 -6.273762775368489)" />
  <ns0:path ns1:nodetypes="cccccccccccccccc" style="display:inline;fill:#5ba22d;fill-opacity:1;fill-rule:evenodd;stroke:#000000;stroke-width:0.225018px;stroke-linecap:butt;stroke-linejoin:miter;stroke-opacity:1" d="m -0.03929664,-3.4250467 -1.21990906,1.785649 0.63078516,0.083817 -0.84435416,1.6018086 0.68675246,-0.0203464 -0.94321836,2.1362987 1.41248336,-0.326599 -0.0770308,0.6564974 h 0.8646239 L 0.39222286,1.8758406 1.8078469,2.0800142 0.70780196,0.0885405 1.4946226,0.1491327 0.54903346,-1.6560267 1.1778369,-1.6381673 Z" id="obj-tree" ns2:connector-curvature="0" transform="translate(48.44849767933294 -19.621264371299617)" />
  <ns0:path ns1:nodetypes="cccccccccccccccc" style="display:inline;fill:#5ba22d;fill-opacity:1;fill-rule:evenodd;stroke:#000000;stroke-width:0.225018px;stroke-linecap:butt;stroke-linejoin:miter;stroke-opacity:1" d="m -0.03929664,-3.4250467 -1.21990906,1.785649 0.63078516,0.083817 -0.84435416,1.6018086 0.68675246,-0.0203464 -0.94321836,2.1362987 1.41248336,-0.326599 -0.0770308,0.6564974 h 0.8646239 L 0.39222286,1.8758406 1.8078469,2.0800142 0.70780196,0.0885405 1.4946226,0.1491327 0.54903346,-1.6560267 1.1778369,-1.6381673 Z" id="obj-tree" ns2:connector-curvature="0" transform="translate(58.88203230275508 16.799999999999997)" />
  <ns0:path ns1:nodetypes="cccccccccccccccc" style="display:inline;fill:#5ba22d;fill-opacity:1;fill-rule:evenodd;stroke:#000000;stroke-width:0.225018px;stroke-linecap:butt;stroke-linejoin:miter;stroke-opacity:1" d="m -0.03929664,-3.4250467 -1.21990906,1.785649 0.63078516,0.083817 -0.84435416,1.6018086 0.68675246,-0.0203464 -0.94321836,2.1362987 1.41248336,-0.326599 -0.0770308,0.6564974 h 0.8646239 L 0.39222286,1.8758406 1.8078469,2.0800142 0.70780196,0.0885405 1.4946226,0.1491327 0.54903346,-1.6560267 1.1778369,-1.6381673 Z" id="obj-tree" ns2:connector-curvature="0" transform="translate(-24.354232119369982 -29.547283079504258)" />
  <ns0:path ns1:nodetypes="cccccccccccccccc" style="display:inline;fill:#5ba22d;fill-opacity:1;fill-rule:evenodd;stroke:#000000;stroke-width:0.225018px;stroke-linecap:butt;stroke-linejoin:miter;stroke-opacity:1" d="m -0.03929664,-3.4250467 -1.21990906,1.785649 0.63078516,0.083817 -0.84435416,1.6018086 0.68675246,-0.0203464 -0.94321836,2.1362987 1.41248336,-0.326599 -0.0770308,0.6564974 h 0.8646239 L 0.39222286,1.8758406 1.8078469,2.0800142 0.70780196,0.0885405 1.4946226,0.1491327 0.54903346,-1.6560267 1.1778369,-1.6381673 Z" id="obj-tree" ns2:connector-curvature="0" transform="translate(-46.390242934956106 -45.67846096908266)" />
  <ns0:path ns1:nodetypes="cccccccccccccccc" style="display:inline;fill:#5ba22d;fill-opacity:1;fill-rule:evenodd;stroke:#000000;stroke-width:0.225018px;stroke-linecap:butt;stroke-linejoin:miter;stroke-opacity:1" d="m -0.03929664,-3.4250467 -1.21990906,1.785649 0.63078516,0.083817 -0.84435416,1.6018086 0.68675246,-0.0203464 -0.94321836,2.1362987 1.41248336,-0.326599 -0.0770308,0.6564974 h 0.8646239 L 0.39222286,1.8758406 1.8078469,2.0800142 0.70780196,0.0885405 1.4946226,0.1491327 0.54903346,-1.6560267 1.1778369,-1.6381673 Z" id="obj-tree" ns2:connector-curvature="0" transform="translate(-47.10154258321252 35.58659102136514)" />
  <ns0:path ns1:nodetypes="cccccccccccccccc" style="display:inline;fill:#5ba22d;fill-opacity:1;fill-rule:evenodd;stroke:#000000;stroke-width:0.225018px;stroke-linecap:butt;stroke-linejoin:miter;stroke-opacity:1" d="m -0.03929664,-3.4250467 -1.21990906,1.785649 0.63078516,0.083817 -0.84435416,1.6018086 0.68675246,-0.0203464 -0.94321836,2.1362987 1.41248336,-0.326599 -0.0770308,0.6564974 h 0.8646239 L 0.39222286,1.8758406 1.8078469,2.0800142 0.70780196,0.0885405 1.4946226,0.1491327 0.54903346,-1.6560267 1.1778369,-1.6381673 Z" id="obj-tree" ns2:connector-curvature="0" transform="translate(-60.88203230275508 21.6)" />
  <ns0:path ns1:nodetypes="cccccccccccccccc" style="display:inline;fill:#5ba22d;fill-opacity:1;fill-rule:evenodd;stroke:#000000;stroke-width:0.225018px;stroke-linecap:butt;stroke-linejoin:miter;stroke-opacity:1" d="m -0.03929664,-3.4250467 -1.21990906,1.785649 0.63078516,0.083817 -0.84435416,1.6018086 0.68675246,-0.0203464 -0.94321836,2.1362987 1.41248336,-0.326599 -0.0770308,0.6564974 h 0.8646239 L 0.39222286,1.8758406 1.8078469,2.0800142 0.70780196,0.0885405 1.4946226,0.1491327 0.54903346,-1.6560267 1.1778369,-1.6381673 Z" id="obj-tree" ns2:connector-curvature="0" transform="translate(-14.398969044771427 60.33589838486225)" />
  <ns0:path ns1:nodetypes="cccccccccccccccc" style="display:inline;fill:#5ba22d;fill-opacity:1;fill-rule:evenodd;stroke:#000000;stroke-width:0.225018px;stroke-linecap:butt;stroke-linejoin:miter;stroke-opacity:1" d="m -0.03929664,-3.4250467 -1.21990906,1.785649 0.63078516,0.083817 -0.84435416,1.6018086 0.68675246,-0.0203464 -0.94321836,2.1362987 1.41248336,-0.326599 -0.0770308,0.6564974 h 0.8646239 L 0.39222286,1.8758406 1.8078469,2.0800142 0.70780196,0.0885405 1.4946226,0.1491327 0.54903346,-1.6560267 1.1778369,-1.6381673 Z" id="obj-tree" ns2:connector-curvature="0" transform="translate(2.670439671529646 -51.62935956032199)" />
  </g><g id="border" inkscape:label="Border" inkscape:groupmode="layer"><path id="path1919" d="m 0 80 69.282 -40 0 -80 -69.282 -40 -69.282 40 0 80 z" style="fill:none;stroke:#000000;stroke-width:0.3" /></g></g></svg>