<?xml version='1.0' encoding='UTF-8'?>
<svg xmlns:ns0="http://www.w3.org/2000/svg" xmlns:ns1="http://sodipodi.sourceforge.net/DTD/sodipodi-0.dtd" version="1.1" id="svg_root" xmlns="http://www.w3.org/2000/svg" xmlns:sodipodi="http://sodipodi.sourceforge.net/DTD/sodipodi-0.dtd" xmlns:inkscape="http://www.inkscape.org/namespaces/inkscape" xmlns:xlink="http://www.w3.org/1999/xlink" width="215.9mm" height="279.4mm" viewBox="0 0 215.9 279.4"><defs /><g id="layer" inkscape:label="Layer" inkscape:groupmode="layer" transform="translate(107.95 120) scale(1, -1)"><g id="background" inkscape:label="Tile Background" inkscape:groupmode="layer"><path id="path2046" d="m 0 80 69.282 -40 0 -80 -69.282 -40 -69.282 40 0 80 z" style="fill:#000000;stroke:none;stroke-width:0" /></g><g id="region-clip" inkscape:label="Region Clipped" inkscape:groupmode="layer" style="display:none"><g id="clip"><path id="clipregion-0" d="m 13.628 63.6044 -13.7285 -5.61033 -11.499 15.309 11.5995 6.69697 17.3205 -10 z" style="fill:#f0eaac;stroke:#000000;stroke-width:0.3" /><path id="clipregion-1" d="m 55.4659 24.9314 -7.21477 4.54739 -4.10591 6.98293 7.81635 13.5383 17.3205 -10 0 -13.3939 z" style="fill:#f0eaac;stroke:#000000;stroke-width:0.3" /><path id="clipregion-2" d="m 54.0447 -29.8521 15.2374 1.57628 0 -11.7241 -9.21984 -5.32308 z" style="fill:#f0ce76;stroke:#000000;stroke-width:0.3" /><path id="clipregion-3" d="m -4.62956 -67.839 10.389 -1.84396 2.34358 -5.6388 -8.10299 -4.67826 -10.0088 5.77857 z" style="fill:#e7a311;stroke:#000000;stroke-width:0.3" /><path id="clipregion-4" d="m -56.6574 -32.2902 2.78572 -7.07942 -5.40158 -6.40898 -10.0088 5.77857 0 9.35652 z" style="fill:#e7a311;stroke:#000000;stroke-width:0.3" /><path id="clipregion-5" d="m -51.9177 35.9028 -8.15377 -7.96594 -9.21058 1.41701 0 10.6462 10.1534 5.86207 z" style="fill:#f0ce76;stroke:#000000;stroke-width:0.3" /><path id="clipregion-6" d="m 44.1452 36.4617 -6.43175 0.853287 -24.0854 26.2894 3.69252 6.39564 34.641 -20 z" style="fill:#f0eaac;stroke:#000000;stroke-width:0.3" /><path id="clipregion-7" d="m 63.3186 -0.427785 -7.85272 25.3592 13.8162 1.67469 0 -28.1324 z" style="fill:#f0eaac;stroke:#000000;stroke-width:0.3" /><path id="clipregion-8" d="m 54.0447 -29.8521 -5.67474 3.16851 0.260685 13.9651 14.688 12.2907 5.96345 -1.09853 0 -26.7495 z" style="fill:#f0eaac;stroke:#000000;stroke-width:0.3" /><path id="clipregion-9" d="m 35.8745 -48.9619 6.9237 18.843 5.57179 3.43527 5.67474 -3.16851 6.01751 -15.4709 -18.6483 -10.7666 z" style="fill:#f0ce76;stroke:#000000;stroke-width:0.3" /><path id="clipregion-10" d="m 17.6759 -59.0747 0.934377 6.39358 17.2642 3.71925 5.53948 -7.12774 -17.9998 -10.3922 z" style="fill:#e7a311;stroke:#000000;stroke-width:0.3" /><path id="clipregion-11" d="m 5.75941 -69.6829 11.9165 10.6082 5.7383 -7.40707 -15.3112 -8.83992 z" style="fill:#f0ce76;stroke:#000000;stroke-width:0.3" /><path id="clipregion-12" d="m -24.0945 -56.4459 15.7241 -0.510033 3.74082 -10.883 -5.37922 -6.38245 -16.6176 9.59416 z" style="fill:#e7a311;stroke:#000000;stroke-width:0.3" /><path id="clipregion-13" d="m -39.419 -44.9139 6.48595 1.5909 8.83859 -13.1229 -2.53189 -8.18136 -16.0293 9.25455 z" style="fill:#f0ce76;stroke:#000000;stroke-width:0.3" /><path id="clipregion-14" d="m -53.8717 -39.3696 14.4527 -5.54433 -3.23669 -10.4588 -16.6176 9.59416 z" style="fill:#e7a311;stroke:#000000;stroke-width:0.3" /><path id="clipregion-15" d="m -54.8299 -10.9929 2.98474 -5.90767 -4.81227 -15.3896 -12.6246 1.64669 0 17.6798 z" style="fill:#f0ce76;stroke:#000000;stroke-width:0.3" /><path id="clipregion-16" d="m -60.6585 9.01014 7.38369 -6.92588 -1.55507 -13.0771 -14.4522 -1.97075 0 20.7843 z" style="fill:#e7a311;stroke:#000000;stroke-width:0.3" /><path id="clipregion-17" d="m -60.0715 27.9368 -0.587036 -18.9267 -8.62355 -1.18945 0 21.5332 z" style="fill:#f0ce76;stroke:#000000;stroke-width:0.3" /><path id="clipregion-18" d="m -34.0151 53.7556 -11.2624 -17.4449 -6.64015 -0.407875 -7.21095 9.95929 23.1658 13.3748 z" style="fill:#f0eaac;stroke:#000000;stroke-width:0.3" /><path id="clipregion-19" d="m -0.10048 57.994 -4.07471 -6.8902 -5.95712 -3.10561 -23.8828 5.75738 -1.94774 5.48124 24.3634 14.0662 z" style="fill:#f0eaac;stroke:#000000;stroke-width:0.3" /><path id="clipregion-20" d="m 13.5397 24.8782 -2.60598 -6.22502 -19.4561 -3.04636 -5.82748 3.13267 -3.86417 7.97604 8.08173 21.2827 5.95712 3.10561 z" style="fill:#f0eaac;stroke:#000000;stroke-width:0.3" /><path id="clipregion-21" d="m 23.5715 -0.209721 8.87212 0.38619 16.187 -12.895 -0.260685 -13.9651 -5.57179 -3.43527 -22.9788 4.02854 z" style="fill:#f0eaac;stroke:#000000;stroke-width:0.3" /><path id="clipregion-22" d="m 37.7134 37.315 6.43175 -0.853287 4.10591 -6.98293 -15.8074 -29.3023 -8.87212 -0.38619 -5.65221 3.06901 -6.98561 15.7939 2.60598 6.22502 z" style="fill:#f0eaac;stroke:#000000;stroke-width:0.3" /><path id="clipregion-23" d="m 19.8193 -26.0904 22.9788 -4.02854 -6.9237 -18.843 -17.2642 -3.71925 -4.50335 5.29107 -0.489778 17.9937 z" style="fill:#f0ce76;stroke:#000000;stroke-width:0.3" /><path id="clipregion-24" d="m -0.10048 57.994 13.7285 5.61033 24.0854 -26.2894 -24.1737 -12.4367 -17.7149 26.2256 z" style="fill:#f0eaac;stroke:#000000;stroke-width:0.3" /><path id="clipregion-25" d="m 32.4436 0.176469 15.8074 29.3023 7.21477 -4.54739 7.85272 -25.3592 -14.688 -12.2907 z" style="fill:#f0eaac;stroke:#000000;stroke-width:0.3" /><path id="clipregion-26" d="m 5.75941 -69.6829 -10.389 1.84396 -3.74082 10.883 3.43645 7.12303 19.0408 2.44283 4.50335 -5.29107 -0.934377 -6.39358 z" style="fill:#e7a311;stroke:#000000;stroke-width:0.3" /><path id="clipregion-27" d="m -51.8451 -16.9006 -2.98474 5.90767 1.55507 13.0771 13.3726 4.66717 8.86385 -3.39655 8.58718 -16.7724 -3.192 -7.12599 z" style="fill:#e7a311;stroke:#000000;stroke-width:0.3" /><path id="clipregion-28" d="m -51.9177 35.9028 6.64015 0.407875 7.22247 -7.41006 -1.84711 -22.1492 -13.3726 -4.66717 -7.38369 6.92588 0.587036 18.9267 z" style="fill:#f0ce76;stroke:#000000;stroke-width:0.3" /><path id="clipregion-29" d="m -8.37037 -56.9559 -15.7241 0.510033 -8.83859 13.1229 9.3877 12.7287 11.9516 -4.524 6.65979 -14.7146 z" style="fill:#e7a311;stroke:#000000;stroke-width:0.3" /><path id="clipregion-30" d="m -0.545932 -9.88347 -7.67185 2.28824 -0.304607 23.2021 19.4561 3.04636 6.98561 -15.7939 z" style="fill:#f0eaac;stroke:#000000;stroke-width:0.3" /><path id="clipregion-31" d="m -8.52239 15.6069 0.304607 -23.2021 -14.2334 -5.82231 -8.58718 16.7724 16.6885 15.3847 z" style="fill:#f0ce76;stroke:#000000;stroke-width:0.3" /><path id="clipregion-32" d="m -18.214 26.7156 -19.841 2.18503 -7.22247 7.41006 11.2624 17.4449 23.8828 -5.75738 z" style="fill:#f0eaac;stroke:#000000;stroke-width:0.3" /><path id="clipregion-33" d="m 6.52281 -26.3788 -18.1165 -8.73949 -11.9516 4.524 -2.09779 10.0507 3.192 7.12599 14.2334 5.82231 7.67185 -2.28824 z" style="fill:#f0ce76;stroke:#000000;stroke-width:0.3" /><path id="clipregion-34" d="m 13.6171 -29.3964 0.489778 -17.9937 -19.0408 -2.44283 -6.65979 14.7146 18.1165 8.73949 z" style="fill:#f0ce76;stroke:#000000;stroke-width:0.3" /><path id="clipregion-35" d="m -39.419 -44.9139 -14.4527 5.54433 -2.78572 7.07942 4.81227 15.3896 26.202 -3.64298 2.09779 -10.0507 -9.3877 -12.7287 z" style="fill:#e7a311;stroke:#000000;stroke-width:0.3" /><path id="clipregion-36" d="m -14.3499 18.7395 -16.6885 -15.3847 -8.86385 3.39655 1.84711 22.1492 19.841 -2.18503 z" style="fill:#f0ce76;stroke:#000000;stroke-width:0.3" /><path id="clipregion-37" d="m 23.5715 -0.209721 -3.75222 -25.8806 -6.20219 -3.30603 -7.09431 3.01758 -7.06874 16.4953 18.4653 12.7428 z" style="fill:#f0eaac;stroke:#000000;stroke-width:0.3" /></g></g><g id="region-rounded" inkscape:label="Region Rounded" inkscape:groupmode="layer"><g id="rounded"><path id="roundedregion-0" d="m 14.128 64.4704 c -0.35 -0.606218 -0.777706 -0.979514 -1.42569 -1.24432 l -11.8771 -4.85374 c -0.64798 -0.264806 -1.10586 -0.138424 -1.52626 0.421273 l -10.8984 14.5094 11.5995 6.69697 17.3205 -10 z" style="fill:#f0eaac;stroke:#000000;stroke-width:0.3" /><path id="roundedregion-1" d="m 56.4586 25.0517 c -0.694914 -0.084232 -1.24653 0.0396323 -1.83872 0.412881 l -5.52281 3.48096 c -0.592187 0.373249 -0.998041 0.79182 -1.35285 1.39524 l -3.09218 5.25888 c -0.354806 0.603418 -0.356865 1.12183 -0.0068651 1.72805 l 7.31635 12.6723 17.3205 -10 0 -13.3939 z" style="fill:#f0eaac;stroke:#000000;stroke-width:0.3" /><path id="roundedregion-2" d="m 54.4072 -30.7841 c -0.25375 0.652389 -0.0640929 0.962853 0.632191 1.03488 l 14.2427 1.47338 0 -11.7241 -9.21984 -5.32308 z" style="fill:#f0ce76;stroke:#000000;stroke-width:0.3" /><path id="roundedregion-3" d="m -5.27401 -68.6036 c 0.451117 0.535251 0.939836 0.712216 1.62906 0.589883 l 8.41974 -1.49444 c 0.689228 -0.122333 1.09975 -0.451787 1.3684 -1.09818 l 1.95979 -4.71538 -8.10299 -4.67826 -10.0088 5.77857 z" style="fill:#e7a311;stroke:#000000;stroke-width:0.3" /><path id="roundedregion-4" d="m -57.649 -32.1608 c 0.69412 -0.0905374 1.10145 -0.408504 1.35777 -1.05989 l 2.05339 -5.21832 c 0.256317 -0.651384 0.172831 -1.15994 -0.278286 -1.69519 l -4.75713 -5.64434 -10.0088 5.77857 0 9.35652 z" style="fill:#e7a311;stroke:#000000;stroke-width:0.3" /><path id="roundedregion-5" d="m -52.5041 36.7128 c 0.410521 -0.566985 0.37187 -1.01962 -0.128838 -1.5088 l -6.72318 -6.5683 c -0.500708 -0.489174 -1.01181 -0.653203 -1.70367 -0.546763 l -8.22221 1.26496 0 10.6462 10.1534 5.86207 z" style="fill:#f0ce76;stroke:#000000;stroke-width:0.3" /><path id="roundedregion-6" d="m 44.6452 37.3277 c -0.35 -0.606218 -0.797394 -0.826571 -1.49131 -0.73451 l -4.44912 0.590256 c -0.69392 0.0920609 -1.19397 0.352717 -1.66684 0.868854 l -22.7344 24.8147 c -0.472867 0.516137 -0.525524 0.997146 -0.175524 1.60336 l 3.19252 5.52961 34.641 -20 z" style="fill:#f0eaac;stroke:#000000;stroke-width:0.3" /><path id="roundedregion-7" d="m 64.302 -0.608948 c -0.688417 0.126814 -1.07219 0.467737 -1.27926 1.13641 l -7.26111 23.4487 c -0.207062 0.668674 0.00201762 0.991349 0.696931 1.07558 l 12.8234 1.55436 0 -28.1324 z" style="fill:#f0eaac;stroke:#000000;stroke-width:0.3" /><path id="roundedregion-8" d="m 55.0394 -29.7492 c -0.696284 -0.0720294 -1.25663 0.0433535 -1.86781 0.38461 l -3.9285 2.19349 c -0.611183 0.341256 -0.867519 0.787456 -0.854455 1.48733 l 0.223357 11.9655 c 0.0130645 0.699878 0.248739 1.19235 0.78558 1.64157 l 13.1541 11.0072 c 0.536842 0.449223 1.06195 0.587398 1.75037 0.460584 l 4.98 -0.917368 0 -26.7495 z" style="fill:#f0eaac;stroke:#000000;stroke-width:0.3" /><path id="roundedregion-9" d="m 36.4881 -49.7515 c -0.429549 0.552709 -0.510173 1.07118 -0.268747 1.72823 l 6.23391 16.9657 c 0.241427 0.657049 0.60026 1.09609 1.19611 1.46346 l 3.86935 2.38564 c 0.595851 0.367371 1.11315 0.378563 1.72433 0.0373067 l 3.9285 -2.19349 c 0.611183 -0.341256 0.981868 -0.767104 1.23562 -1.41949 l 5.65501 -14.539 -18.6483 -10.7666 z" style="fill:#f0ce76;stroke:#000000;stroke-width:0.3" /><path id="roundedregion-10" d="m 18.2883 -59.8653 c -0.428699 0.553369 -0.569044 1.08737 -0.46782 1.78002 l 0.645163 4.4146 c 0.101225 0.692642 0.437879 1.05267 1.12218 1.20009 l 15.3091 3.29805 c 0.684301 0.14742 1.16166 -0.0262756 1.59121 -0.578985 l 4.92583 -6.33816 -17.9998 -10.3922 z" style="fill:#e7a311;stroke:#000000;stroke-width:0.3" /><path id="roundedregion-11" d="m 6.14319 -70.6064 c -0.268652 0.646395 -0.159714 1.1229 0.363129 1.58834 l 10.4226 9.27836 c 0.522843 0.465441 0.930646 0.427758 1.35934 -0.125611 l 5.12588 -6.61655 -15.3112 -8.83992 z" style="fill:#f0ce76;stroke:#000000;stroke-width:0.3" /><path id="roundedregion-12" d="m -24.3901 -57.4012 c 0.206946 0.66871 0.595479 0.945575 1.29511 0.922881 l 13.7251 -0.445194 c 0.699632 -0.0226936 1.09699 -0.316127 1.32454 -0.978112 l 3.09069 -8.99165 c 0.227544 -0.661985 0.131726 -1.17509 -0.319391 -1.71034 l -4.73477 -5.61781 -16.6176 9.59416 z" style="fill:#e7a311;stroke:#000000;stroke-width:0.3" /><path id="roundedregion-13" d="m -39.7146 -45.8692 c 0.206946 0.66871 0.587 1.02677 1.26685 1.19352 l 4.54353 1.11446 c 0.679847 0.166756 1.1388 -0.0106016 1.52984 -0.591193 l 7.72133 -11.4641 c 0.391042 -0.580591 0.469941 -1.11601 0.262995 -1.78472 l -2.23625 -7.22606 -16.0293 9.25455 z" style="fill:#f0ce76;stroke:#000000;stroke-width:0.3" /><path id="roundedregion-14" d="m -54.5161 -40.1342 c 0.451117 0.535251 0.92455 0.657193 1.57811 0.406475 l 12.5854 -4.82799 c 0.65356 -0.250718 0.844966 -0.644759 0.63802 -1.31347 l -2.94105 -9.50351 -16.6176 9.59416 z" style="fill:#e7a311;stroke:#000000;stroke-width:0.3" /><path id="roundedregion-15" d="m -55.8207 -11.128 c 0.693581 0.0945792 1.12611 -0.132652 1.44178 -0.757438 l 2.08285 -4.12257 c 0.315662 -0.624786 0.361412 -1.17888 0.1525 -1.84698 l -4.21538 -13.4808 c -0.208912 -0.668099 -0.595926 -0.915625 -1.29005 -0.825087 l -11.633 1.51735 0 17.6798 z" style="fill:#f0ce76;stroke:#000000;stroke-width:0.3" /><path id="roundedregion-16" d="m -61.6491 8.87351 c 0.693435 0.0956462 1.20943 -0.0686029 1.71998 -0.547497 l 5.92498 -5.55762 c 0.510549 -0.478894 0.693931 -0.982035 0.611273 -1.67714 l -1.3189 -11.0911 c -0.0826582 -0.695103 -0.415332 -1.03354 -1.10891 -1.12812 l -13.4613 -1.83564 0 20.7843 z" style="fill:#e7a311;stroke:#000000;stroke-width:0.3" /><path id="roundedregion-17" d="m -61.0598 28.0889 c 0.69186 -0.10644 0.979071 -0.451913 0.95737 -1.15158 l -0.525033 -16.9277 c -0.021701 -0.699664 -0.328188 -1.04051 -1.02162 -1.13616 l -7.63293 -1.05282 0 21.5332 z" style="fill:#f0ce76;stroke:#000000;stroke-width:0.3" /><path id="roundedregion-18" d="m -34.3499 54.6979 c 0.234385 -0.659594 0.17212 -1.19432 -0.207551 -1.78241 l -10.1777 -15.7647 c -0.37967 -0.588091 -0.841822 -0.858522 -1.5405 -0.901439 l -4.64392 -0.285255 c -0.698683 -0.042917 -1.17406 0.181684 -1.58458 0.748669 l -6.62449 9.14931 23.1658 13.3748 z" style="fill:#f0eaac;stroke:#000000;stroke-width:0.3" /><path id="roundedregion-19" d="m -0.701057 58.7936 c 0.420404 -0.559697 0.447869 -1.05779 0.0915492 -1.66032 l -3.05665 -5.1687 c -0.356319 -0.602525 -0.775048 -0.999434 -1.39576 -1.32303 l -4.18365 -2.18105 c -0.620714 -0.323596 -1.17838 -0.391973 -1.85889 -0.227925 l -21.9385 5.28867 c -0.680506 0.164048 -1.0726 0.517038 -1.30699 1.17663 l -1.61291 4.53897 24.3634 14.0662 z" style="fill:#f0eaac;stroke:#000000;stroke-width:0.3" /><path id="roundedregion-20" d="m 12.9799 25.7069 c 0.391822 -0.580065 0.443899 -1.10539 0.173589 -1.7511 l -1.83366 -4.38016 c -0.27031 -0.645703 -0.682546 -0.96884 -1.37412 -1.07712 l -17.4802 -2.73697 c -0.691574 -0.108284 -1.2522 -0.0126444 -1.86876 0.318798 l -4.06588 2.18569 c -0.61656 0.331443 -1.0116 0.743474 -1.3168 1.37344 l -2.99217 6.17615 c -0.3052 0.629963 -0.329499 1.18041 -0.0809996 1.83481 l 7.37173 19.4129 c 0.2485 0.654406 0.62102 1.07355 1.24173 1.39715 l 4.18365 2.18105 c 0.620714 0.323596 1.05466 0.21368 1.44648 -0.366384 z" style="fill:#f0eaac;stroke:#000000;stroke-width:0.3" /><path id="roundedregion-21" d="m 23.428 -1.19937 c 0.100437 0.692757 0.443198 1.0027 1.14254 1.03314 l 6.87401 0.299215 c 0.699338 0.0304411 1.2337 -0.143438 1.78121 -0.579597 l 14.6227 -11.6488 c 0.547508 -0.436159 0.776556 -0.923032 0.763491 -1.62291 l -0.223357 -11.9655 c -0.0130645 -0.699878 -0.274028 -1.15727 -0.86988 -1.52464 l -3.86935 -2.38564 c -0.595851 -0.367371 -1.14671 -0.473011 -1.83619 -0.352134 l -21.0089 3.68318 c -0.689484 0.120877 -0.941933 0.469578 -0.841496 1.16233 z" style="fill:#f0eaac;stroke:#000000;stroke-width:0.3" /><path id="roundedregion-22" d="m 36.8242 36.8575 c 0.622454 0.320236 1.18661 0.418025 1.88053 0.325964 l 4.44912 -0.590256 c 0.69392 -0.0920609 1.14337 -0.390123 1.49818 -0.993541 l 3.09218 -5.25888 c 0.354806 -0.603418 0.364431 -1.12606 0.0320835 -1.74213 l -14.8579 -27.5421 c -0.332347 -0.616073 -0.774498 -0.89315 -1.47384 -0.923591 l -6.87401 -0.299215 c -0.699338 -0.0304411 -1.2627 0.0996644 -1.87786 0.433685 l -3.89459 2.11467 c -0.615167 0.334021 -1.00016 0.751534 -1.28331 1.39171 l -6.17662 13.9648 c -0.283149 0.640177 -0.288651 1.19127 -0.0183411 1.83697 l 1.83366 4.38016 c 0.27031 0.645703 0.652923 1.05968 1.27538 1.37991 z" style="fill:#f0eaac;stroke:#000000;stroke-width:0.3" /><path id="roundedregion-23" d="m 18.9368 -26.5607 c 0.617722 0.329272 1.17795 0.418584 1.86744 0.297706 l 21.0089 -3.68318 c 0.689484 -0.120877 0.881509 -0.454274 0.640082 -1.11132 l -6.23391 -16.9657 c -0.241427 -0.657049 -0.638167 -1.00182 -1.32247 -1.14924 l -15.3091 -3.29805 c -0.684301 -0.14742 -1.17202 0.0178555 -1.62572 0.550918 l -3.20706 3.76804 c -0.453701 0.533062 -0.656307 1.06141 -0.675354 1.76115 l -0.435359 15.9944 c -0.0190465 0.699741 0.237529 1.14075 0.85525 1.47002 z" style="fill:#f0ce76;stroke:#000000;stroke-width:0.3" /><path id="roundedregion-24" d="m -0.609508 57.1333 c 0.356319 0.602525 0.786733 0.974238 1.43471 1.23904 l 11.8771 4.85374 c 0.64798 0.264806 1.12834 0.157093 1.60121 -0.359044 l 22.7344 -24.8147 c 0.472867 -0.516137 0.408758 -0.874582 -0.213696 -1.19482 l -22.3953 -11.5218 c -0.622454 -0.320236 -1.05714 -0.20888 -1.44897 0.371184 l -16.5954 24.5683 c -0.391822 0.580065 -0.407038 1.08689 -0.0507186 1.68941 z" style="fill:#f0eaac;stroke:#000000;stroke-width:0.3" /><path id="roundedregion-25" d="m 33.2258 -0.446615 c -0.547508 0.436159 -0.63972 0.887116 -0.307373 1.50319 l 14.8579 27.5421 c 0.332347 0.616073 0.728576 0.72014 1.32076 0.346891 l 5.52281 -3.48096 c 0.592187 -0.373249 0.934722 -0.819787 1.14178 -1.48846 l 7.26111 -23.4487 c 0.207062 -0.668674 0.0657275 -1.14777 -0.471114 -1.597 l -13.1541 -11.0072 c -0.536842 -0.449223 -1.00156 -0.454821 -1.54907 -0.0186624 z" style="fill:#f0eaac;stroke:#000000;stroke-width:0.3" /><path id="roundedregion-26" d="m 6.50632 -69.018 c -0.522843 -0.465441 -1.0423 -0.612488 -1.73153 -0.490155 l -8.41974 1.49444 c -0.689228 0.122333 -1.08213 0.458469 -1.30967 1.12045 l -3.09069 8.99165 c -0.227544 0.661985 -0.194707 1.21589 0.109456 1.84636 l 2.56741 5.3217 c 0.304163 0.630464 0.732079 0.938839 1.42639 1.02791 l 17.0571 2.18833 c 0.694309 0.089076 1.18631 -0.101204 1.64001 -0.634266 l 3.20706 -3.76804 c 0.453701 -0.533062 0.604762 -1.05836 0.503538 -1.75101 l -0.645163 -4.4146 c -0.101225 -0.692642 -0.368682 -1.18896 -0.891525 -1.65441 z" style="fill:#e7a311;stroke:#000000;stroke-width:0.3" /><path id="roundedregion-27" d="m -50.8546 -17.0383 c -0.693331 0.0963969 -1.12576 0.405475 -1.44142 1.03026 l -2.08285 4.12257 c -0.315662 0.624786 -0.41552 1.19045 -0.332862 1.88556 l 1.3189 11.0911 c 0.0826582 0.695103 0.401328 1.09186 1.06223 1.32252 l 11.4843 4.00813 c 0.660905 0.230662 1.22429 0.222171 1.87794 -0.0283036 l 6.99627 -2.68091 c 0.653653 -0.250474 1.07051 -0.624856 1.38952 -1.24794 l 7.67573 -14.9922 c 0.319008 -0.623084 0.333086 -1.16391 0.0469269 -1.80274 l -2.3744 -5.30074 c -0.286159 -0.638837 -0.705941 -0.871312 -1.39927 -0.774915 z" style="fill:#e7a311;stroke:#000000;stroke-width:0.3" /><path id="roundedregion-28" d="m -52.633 35.204 c 0.500708 0.489174 1.01473 0.717213 1.71342 0.76013 l 4.64392 0.285255 c 0.698683 0.042917 1.20751 -0.153524 1.6961 -0.654803 l 5.8265 -5.97784 c 0.488589 -0.501279 0.673052 -1.01508 0.614878 -1.71265 l -1.6809 -20.1561 c -0.058174 -0.697579 -0.366351 -1.0954 -1.02726 -1.32606 l -11.4843 -4.00813 c -0.660905 -0.230662 -1.16296 -0.124276 -1.67351 0.354617 l -5.92498 5.55762 c -0.510549 0.478894 -0.720056 0.98399 -0.698355 1.68365 l 0.525033 16.9277 c 0.021701 0.699664 0.245591 1.20917 0.746299 1.69834 z" style="fill:#f0ce76;stroke:#000000;stroke-width:0.3" /><path id="roundedregion-29" d="m -7.93586 -56.0553 c -0.304163 -0.630464 -0.73436 -0.890937 -1.43399 -0.868244 l -13.7251 0.445194 c -0.699632 0.0226936 -1.16706 0.281244 -1.55811 0.861835 l -7.72133 11.4641 c -0.391042 0.580591 -0.380566 1.07085 0.0349212 1.63421 l 8.2006 11.1191 c 0.415487 0.563356 0.874125 0.698591 1.52879 0.450782 l 10.0811 -3.81597 c 0.654668 -0.247809 1.05894 -0.627323 1.34757 -1.26505 l 5.83513 -12.8926 c 0.288632 -0.637724 0.281976 -1.18123 -0.0221869 -1.8117 z" style="fill:#e7a311;stroke:#000000;stroke-width:0.3" /><path id="roundedregion-30" d="m 0.277112 -9.31549 c -0.576131 -0.397584 -1.11053 -0.482231 -1.78133 -0.282156 l -5.75528 1.7166 c -0.670798 0.200075 -0.962221 0.585796 -0.97141 1.28574 l -0.278352 21.2023 c -0.0091891 0.69994 0.283262 1.04632 0.974836 1.15461 l 17.4802 2.73697 c 0.691574 0.108284 1.10931 -0.11967 1.39246 -0.759847 l 6.17662 -13.9648 c 0.283149 -0.640177 0.157585 -1.08493 -0.418546 -1.48252 z" style="fill:#f0eaac;stroke:#000000;stroke-width:0.3" /><path id="roundedregion-31" d="m -9.40319 16.0803 c 0.61656 -0.331443 0.884738 -0.773464 0.893927 -1.4734 l 0.278352 -21.2023 c 0.0091891 -0.69994 -0.26454 -1.1135 -0.912429 -1.37852 l -12.3822 -5.0651 c -0.64789 -0.265026 -1.06227 -0.111573 -1.38128 0.511511 l -7.67573 14.9922 c -0.319008 0.623084 -0.235152 1.09346 0.279518 1.56792 l 15.218 14.029 c 0.514671 0.474462 0.999484 0.535756 1.61604 0.204313 z" style="fill:#f0ce76;stroke:#000000;stroke-width:0.3" /><path id="roundedregion-32" d="m -17.859 27.6504 c -0.2485 -0.654406 -0.653197 -0.902027 -1.34899 -0.825401 l -17.853 1.9661 c -0.695793 0.0766254 -1.20339 0.324299 -1.69197 0.825578 l -5.8265 5.97784 c -0.488589 0.501279 -0.535268 0.968152 -0.155598 1.55624 l 10.1777 15.7647 c 0.37967 0.588091 0.834031 0.769823 1.51454 0.605775 l 21.9385 -5.28867 c 0.680506 -0.164048 0.865651 -0.514815 0.617151 -1.16922 z" style="fill:#f0eaac;stroke:#000000;stroke-width:0.3" /><path id="roundedregion-33" d="m 6.12893 -25.4596 c 0.275721 -0.643411 0.123684 -1.04951 -0.506789 -1.35365 l -16.3152 -7.87051 c -0.630474 -0.304143 -1.18125 -0.328286 -1.83592 -0.0804773 l -10.0811 3.81597 c -0.654668 0.247809 -0.996536 0.647684 -1.13956 1.33292 l -1.68916 8.09294 c -0.143022 0.685233 -0.0816772 1.25269 0.204482 1.89153 l 2.3744 5.30074 c 0.286159 0.638837 0.686466 1.02621 1.33436 1.29123 l 12.3822 5.0651 c 0.64789 0.265026 1.21304 0.292863 1.88384 0.0927877 l 5.75528 -1.7166 c 0.670798 -0.200075 1.07645 -0.561569 1.35217 -1.20498 z" style="fill:#f0ce76;stroke:#000000;stroke-width:0.3" /><path id="roundedregion-34" d="m 12.6969 -29.005 c 0.64415 -0.273991 0.928377 -0.691305 0.947423 -1.39105 l 0.435359 -15.9944 c 0.0190465 -0.699741 -0.270352 -1.03781 -0.964661 -1.12688 l -17.0571 -2.18833 c -0.694309 -0.089076 -1.11557 0.146059 -1.4042 0.783783 l -5.83513 12.8926 c -0.288632 0.637724 -0.142128 1.04138 0.488346 1.34552 l 16.3152 7.87051 c 0.630474 0.304143 1.17674 0.317065 1.82089 0.0430743 z" style="fill:#f0ce76;stroke:#000000;stroke-width:0.3" /><path id="roundedregion-35" d="m -38.4478 -44.6757 c -0.679847 -0.166756 -1.25131 -0.130772 -1.90487 0.119946 l -12.5854 4.82799 c -0.65356 0.250718 -1.04351 0.637334 -1.29982 1.28872 l -2.05339 5.21832 c -0.256317 0.651384 -0.276634 1.21688 -0.0677217 1.88498 l 4.21538 13.4808 c 0.208912 0.668099 0.595587 0.913114 1.28892 0.816717 l 24.221 -3.36756 c 0.693331 -0.0963969 1.05177 -0.431381 1.19479 -1.11661 l 1.68916 -8.09294 c 0.143022 -0.685233 0.026251 -1.22034 -0.389236 -1.7837 l -8.2006 -11.1191 c -0.415487 -0.563356 -0.884916 -0.876262 -1.56476 -1.04302 z" style="fill:#e7a311;stroke:#000000;stroke-width:0.3" /><path id="roundedregion-36" d="m -14.7859 19.6395 c 0.3052 -0.629963 0.215426 -1.10329 -0.299245 -1.57775 l -15.218 -14.029 c -0.514671 -0.474462 -1.01538 -0.570456 -1.66903 -0.319982 l -6.99627 2.68091 c -0.653653 0.250474 -0.908859 0.656783 -0.850685 1.35436 l 1.6809 20.1561 c 0.058174 0.697579 0.381303 0.963701 1.0771 0.887076 l 17.853 -1.9661 c 0.695793 -0.0766254 1.12479 -0.379449 1.42999 -1.00941 z" style="fill:#f0ce76;stroke:#000000;stroke-width:0.3" /><path id="roundedregion-37" d="m 22.6927 0.267452 c 0.615167 -0.334021 0.835765 -0.774068 0.735328 -1.46683 l -3.46526 -23.9013 c -0.100437 -0.692757 -0.40822 -1.13077 -1.02594 -1.46004 l -4.43727 -2.36525 c -0.617722 -0.329272 -1.15852 -0.352963 -1.80267 -0.0789724 l -5.25388 2.23475 c -0.64415 0.273991 -1.03838 0.667163 -1.3141 1.31057 l -6.28097 14.657 c -0.275721 0.643411 -0.146974 1.08955 0.429157 1.48714 l 16.8192 11.6068 c 0.576131 0.397584 1.08669 0.424826 1.70185 0.0908053 z" style="fill:#f0eaac;stroke:#000000;stroke-width:0.3" /></g></g><g id="region" inkscape:label="Region" inkscape:groupmode="layer" style="display:none"><path id="region-0" d="m -0.10048 57.994 -17.6234 23.4626 10.7957 14.5434 19.245 0 8.3395 -20.2222 -7.02832 -12.1734 z" style="fill:#ffffff;stroke:#000000;stroke-width:0.3" /><path id="region-1" d="m 48.2511 29.4788 -4.10591 6.98293 11.1522 19.3161 21.6827 2.88889 9.6225 -16.6667 -6.07556 -14.0309 -25.0611 -3.03771 z" style="fill:#ffffff;stroke:#000000;stroke-width:0.3" /><path id="region-2" d="m 54.0447 -29.8521 10.3161 -26.5226 16.9301 5.17479 5.31162 9.2 -6.43054 14.8507 z" style="fill:#ffffff;stroke:#000000;stroke-width:0.3" /><path id="region-3" d="m 5.75941 -69.6829 -10.389 1.84396 -12.8776 -15.2793 13.8121 -12.8818 7.39008 0 9.37011 8.73897 z" style="fill:#ffffff;stroke:#000000;stroke-width:0.3" /><path id="region-4" d="m -53.8717 -39.3696 -13.545 -16.0712 -13.8742 4.24075 -3.69504 6.4 3.63292 15.731 24.6956 -3.22117 z" style="fill:#ffffff;stroke:#000000;stroke-width:0.3" /><path id="region-5" d="m -60.0715 27.9368 -21.7945 3.353 -3.12004 13.5102 5.31162 9.2 13.5229 1.56149 14.2337 -19.6587 z" style="fill:#ffffff;stroke:#000000;stroke-width:0.3" /><path id="region-6" d="m 37.7134 37.315 6.43175 -0.853287 11.1522 19.3161 -10.5848 21.6667 -24.0563 -1.66667 -7.02832 -12.1734 z" style="fill:#ffffff;stroke:#000000;stroke-width:0.3" /><path id="region-7" d="m 55.4659 24.9314 25.0611 3.03771 8.20611 -13.9691 -9.61904 -17.3375 -15.7955 2.90969 z" style="fill:#ffffff;stroke:#000000;stroke-width:0.3" /><path id="region-8" d="m 48.6306 -12.7185 14.688 12.2907 15.7955 -2.90969 5.94864 -10.6625 -4.89069 -13.1493 -26.1273 -2.70283 -5.67474 3.16851 z" style="fill:#ffffff;stroke:#000000;stroke-width:0.3" /><path id="region-9" d="m 42.7982 -30.1189 -6.9237 -18.843 12.186 -15.68 13.0394 3.61384 3.26098 4.65324 -10.3161 26.5226 -5.67474 3.16851 z" style="fill:#ffffff;stroke:#000000;stroke-width:0.3" /><path id="region-10" d="m 17.6759 -59.0747 0.934377 6.39358 17.2642 3.71925 12.186 -15.68 -5.50398 -9.06813 -11.1561 -3.08048 z" style="fill:#ffffff;stroke:#000000;stroke-width:0.3" /><path id="region-11" d="m 5.75941 -69.6829 7.30575 -17.5781 10.9377 0.886914 7.39753 9.58364 -13.7245 17.7157 z" style="fill:#ffffff;stroke:#000000;stroke-width:0.3" /><path id="region-12" d="m -4.62956 -67.839 -3.74082 10.883 -15.7241 0.510033 -5.96931 -19.2888 8.08627 -7.13143 4.47035 -0.252106 z" style="fill:#ffffff;stroke:#000000;stroke-width:0.3" /><path id="region-13" d="m -39.419 -44.9139 -7.36944 -23.8131 4.08761 -5.233 12.6371 -1.77471 5.96931 19.2888 -8.83859 13.1229 z" style="fill:#ffffff;stroke:#000000;stroke-width:0.3" /><path id="region-14" d="m -39.419 -44.9139 -7.36944 -23.8131 -16.2593 4.32505 -4.3689 8.9612 13.545 16.0712 z" style="fill:#ffffff;stroke:#000000;stroke-width:0.3" /><path id="region-15" d="m -56.6574 -32.2902 -24.6956 3.22117 -2.65761 6.669 2.69215 7.79503 26.4886 3.61209 2.98474 -5.90767 z" style="fill:#ffffff;stroke:#000000;stroke-width:0.3" /><path id="region-16" d="m -60.6585 9.01014 -21.1096 -2.91167 -3.34491 -6.09848 3.79448 -14.605 26.4886 3.61209 1.55507 13.0771 z" style="fill:#ffffff;stroke:#000000;stroke-width:0.3" /><path id="region-17" d="m -60.0715 27.9368 -0.587036 -18.9267 -21.1096 -2.91167 -5.32016 16.3015 5.22231 8.88983 z" style="fill:#ffffff;stroke:#000000;stroke-width:0.3" /><path id="region-18" d="m -51.9177 35.9028 6.64015 0.407875 11.2624 17.4449 -5.13151 14.4408 -17.0053 1.06156 -9.9995 -13.6965 z" style="fill:#ffffff;stroke:#000000;stroke-width:0.3" /><path id="region-19" d="m -0.10048 57.994 -17.6234 23.4626 -12.5048 -1.09901 -8.91793 -12.1612 5.13151 -14.4408 23.8828 -5.75738 5.95712 3.10561 z" style="fill:#ffffff;stroke:#000000;stroke-width:0.3" /><path id="region-20" d="m -4.17519 51.1038 -5.95712 -3.10561 -8.08173 -21.2827 3.86417 -7.97604 5.82748 -3.13267 19.4561 3.04636 2.60598 6.22502 z" style="fill:#ffffff;stroke:#000000;stroke-width:0.3" /><path id="region-21" d="m 23.5715 -0.209721 8.87212 0.38619 16.187 -12.895 -0.260685 -13.9651 -5.57179 -3.43527 -22.9788 4.02854 z" style="fill:#ffffff;stroke:#000000;stroke-width:0.3" /><path id="region-22" d="m 13.5397 24.8782 -2.60598 -6.22502 6.98561 -15.7939 5.65221 -3.06901 8.87212 0.38619 15.8074 29.3023 -4.10591 6.98293 -6.43175 0.853287 z" style="fill:#ffffff;stroke:#000000;stroke-width:0.3" /><path id="region-23" d="m 19.8193 -26.0904 22.9788 -4.02854 -6.9237 -18.843 -17.2642 -3.71925 -4.50335 5.29107 -0.489778 17.9937 z" style="fill:#ffffff;stroke:#000000;stroke-width:0.3" /><path id="region-24" d="m -0.10048 57.994 13.7285 5.61033 24.0854 -26.2894 -24.1737 -12.4367 -17.7149 26.2256 z" style="fill:#ffffff;stroke:#000000;stroke-width:0.3" /><path id="region-25" d="m 32.4436 0.176469 15.8074 29.3023 7.21477 -4.54739 7.85272 -25.3592 -14.688 -12.2907 z" style="fill:#ffffff;stroke:#000000;stroke-width:0.3" /><path id="region-26" d="m 5.75941 -69.6829 -10.389 1.84396 -3.74082 10.883 3.43645 7.12303 19.0408 2.44283 4.50335 -5.29107 -0.934377 -6.39358 z" style="fill:#ffffff;stroke:#000000;stroke-width:0.3" /><path id="region-27" d="m -25.6431 -20.5435 3.192 7.12599 -8.58718 16.7724 -8.86385 3.39655 -13.3726 -4.66717 -1.55507 -13.0771 2.98474 -5.90767 z" style="fill:#ffffff;stroke:#000000;stroke-width:0.3" /><path id="region-28" d="m -60.0715 27.9368 -0.587036 -18.9267 7.38369 -6.92588 13.3726 4.66717 1.84711 22.1492 -7.22247 7.41006 -6.64015 -0.407875 z" style="fill:#ffffff;stroke:#000000;stroke-width:0.3" /><path id="region-29" d="m -8.37037 -56.9559 -15.7241 0.510033 -8.83859 13.1229 9.3877 12.7287 11.9516 -4.524 6.65979 -14.7146 z" style="fill:#ffffff;stroke:#000000;stroke-width:0.3" /><path id="region-30" d="m 17.9193 2.85929 -6.98561 15.7939 -19.4561 -3.04636 0.304607 -23.2021 7.67185 -2.28824 z" style="fill:#ffffff;stroke:#000000;stroke-width:0.3" /><path id="region-31" d="m -14.3499 18.7395 -16.6885 -15.3847 8.58718 -16.7724 14.2334 5.82231 -0.304607 23.2021 z" style="fill:#ffffff;stroke:#000000;stroke-width:0.3" /><path id="region-32" d="m -10.1323 47.9982 -23.8828 5.75738 -11.2624 -17.4449 7.22247 -7.41006 19.841 -2.18503 z" style="fill:#ffffff;stroke:#000000;stroke-width:0.3" /><path id="region-33" d="m -0.545932 -9.88347 -7.67185 2.28824 -14.2334 -5.82231 -3.192 -7.12599 2.09779 -10.0507 11.9516 -4.524 18.1165 8.73949 z" style="fill:#ffffff;stroke:#000000;stroke-width:0.3" /><path id="region-34" d="m 6.52281 -26.3788 -18.1165 -8.73949 6.65979 -14.7146 19.0408 2.44283 -0.489778 17.9937 z" style="fill:#ffffff;stroke:#000000;stroke-width:0.3" /><path id="region-35" d="m -39.419 -44.9139 -14.4527 5.54433 -2.78572 7.07942 4.81227 15.3896 26.202 -3.64298 2.09779 -10.0507 -9.3877 -12.7287 z" style="fill:#ffffff;stroke:#000000;stroke-width:0.3" /><path id="region-36" d="m -14.3499 18.7395 -16.6885 -15.3847 -8.86385 3.39655 1.84711 22.1492 19.841 -2.18503 z" style="fill:#ffffff;stroke:#000000;stroke-width:0.3" /><path id="region-37" d="m 23.5715 -0.209721 -3.75222 -25.8806 -6.20219 -3.30603 -7.09431 3.01758 -7.06874 16.4953 18.4653 12.7428 z" style="fill:#ffffff;stroke:#000000;stroke-width:0.3" /></g><g id="seeds" inkscape:label="Seeds" inkscape:groupmode="layer" style="display:none"><circle id="seed-0" cx="0.0" cy="80.0" r="1.0" style="fill:#000000;stroke:none;stroke-width:0" /><circle id="seed-1" cx="69.28203230275508" cy="40.0" r="1.0" style="fill:#000000;stroke:none;stroke-width:0" /><circle id="seed-2" cx="69.28203230275508" cy="-40.0" r="1.0" style="fill:#000000;stroke:none;stroke-width:0" /><circle id="seed-3" cx="0.0" cy="-80.0" r="1.0" style="fill:#000000;stroke:none;stroke-width:0" /><circle id="seed-4" cx="-69.28203230275508" cy="-40.0" r="1.0" style="fill:#000000;stroke:none;stroke-width:0" /><circle id="seed-5" cx="-69.28203230275508" cy="40.0" r="1.0" style="fill:#000000;stroke:none;stroke-width:0" /><circle id="seed-6" cx="34.64101615137754" cy="60.0" r="1.0" style="fill:#000000;stroke:none;stroke-width:0" /><circle id="seed-7" cx="72.48203230275509" cy="13.599999999999998" r="1.0" style="fill:#000000;stroke:none;stroke-width:0" /><circle id="seed-8" cx="66.88203230275508" cy="-16.799999999999997" r="1.0" style="fill:#000000;stroke:none;stroke-width:0" /><circle id="seed-9" cx="49.66870390403876" cy="-47.628718707889796" r="1.0" style="fill:#000000;stroke:none;stroke-width:0" /><circle id="seed-10" cx="31.176914536239785" cy="-62.0" r="1.0" style="fill:#000000;stroke:none;stroke-width:0" /><circle id="seed-11" cx="17.13486742963367" cy="-72.87846096908265" r="1.0" style="fill:#000000;stroke:none;stroke-width:0" /><circle id="seed-12" cx="-17.398969044771427" cy="-65.33589838486225" r="1.0" style="fill:#000000;stroke:none;stroke-width:0" /><circle id="seed-13" cx="-34.64101615137754" cy="-60.0" r="1.0" style="fill:#000000;stroke:none;stroke-width:0" /><circle id="seed-14" cx="-51.88306325798366" cy="-54.66410161513776" r="1.0" style="fill:#000000;stroke:none;stroke-width:0" /><circle id="seed-15" cx="-66.88203230275508" cy="-21.6" r="1.0" style="fill:#000000;stroke:none;stroke-width:0" /><circle id="seed-16" cx="-69.28203230275508" cy="-4.0" r="1.0" style="fill:#000000;stroke:none;stroke-width:0" /><circle id="seed-17" cx="-72.48203230275509" cy="19.200000000000003" r="1.0" style="fill:#000000;stroke:none;stroke-width:0" /><circle id="seed-18" cx="-50.390242934956106" cy="53.67846096908266" r="1.0" style="fill:#000000;stroke:none;stroke-width:0" /><circle id="seed-19" cx="-21.263070659909182" cy="64.0287187078898" r="1.0" style="fill:#000000;stroke:none;stroke-width:0" /><circle id="seed-20" cx="-3.3633073649949243" cy="29.69379968743703" r="1.0" style="fill:#000000;stroke:none;stroke-width:0" /><circle id="seed-21" cx="30.239609738083693" cy="-16.116002869338796" r="1.0" style="fill:#000000;stroke:none;stroke-width:0" /><circle id="seed-22" cx="28.83225544027713" cy="16.215804406697576" r="1.0" style="fill:#000000;stroke:none;stroke-width:0" /><circle id="seed-23" cx="26.225136851232982" cy="-39.014587024948696" r="1.0" style="fill:#000000;stroke:none;stroke-width:0" /><circle id="seed-24" cx="15.383406526063819" cy="42.35683744999354" r="1.0" style="fill:#000000;stroke:none;stroke-width:0" /><circle id="seed-25" cx="47.831193500093846" cy="5.966619351492599" r="1.0" style="fill:#000000;stroke:none;stroke-width:0" /><circle id="seed-26" cx="3.902344113038979" cy="-58.01401411498764" r="1.0" style="fill:#000000;stroke:none;stroke-width:0" /><circle id="seed-27" cx="-39.14079646923717" cy="-7.584246880121685" r="1.0" style="fill:#000000;stroke:none;stroke-width:0" /><circle id="seed-28" cx="-48.226170596358855" cy="18.447672917919316" r="1.0" style="fill:#000000;stroke:none;stroke-width:0" /><circle id="seed-29" cx="-16.836930544145805" cy="-48.00851306344409" r="1.0" style="fill:#000000;stroke:none;stroke-width:0" /><circle id="seed-30" cx="0.6955777634700304" cy="3.7710208407598595" r="1.0" style="fill:#000000;stroke:none;stroke-width:0" /><circle id="seed-31" cx="-17.426458039036508" cy="3.5331073007546974" r="1.0" style="fill:#000000;stroke:none;stroke-width:0" /><circle id="seed-32" cx="-27.34482246116123" cy="38.800378099845325" r="1.0" style="fill:#000000;stroke:none;stroke-width:0" /><circle id="seed-33" cx="-6.987142633806365" cy="-21.987075597289355" r="1.0" style="fill:#000000;stroke:none;stroke-width:0" /><circle id="seed-34" cx="1.5509876361431942" cy="-39.68620246117625" r="1.0" style="fill:#000000;stroke:none;stroke-width:0" /><circle id="seed-35" cx="-42.164095316951354" cy="-29.329204091754765" r="1.0" style="fill:#000000;stroke:none;stroke-width:0" /><circle id="seed-36" cx="-29.755828608956225" cy="16.907353988642786" r="1.0" style="fill:#000000;stroke:none;stroke-width:0" /><circle id="seed-37" cx="12.660705245519859" cy="-13.567380752346187" r="1.0" style="fill:#000000;stroke:none;stroke-width:0" /></g><g id="region_ids" inkscape:label="Region Ids" inkscape:groupmode="layer" style="display:none" transform="scale(1,-1)"><text id="text2047" x="-1.4" y="-80.0" style="font-style:normal;font-weight:normal;font-size:4px;font-family:sans-serif;fill:#000000;fill-opacity:1;stroke:none"><tspan x="-1.4" y="-80.0">0</tspan></text><text id="text2048" x="67.88203230275508" y="-40.0" style="font-style:normal;font-weight:normal;font-size:4px;font-family:sans-serif;fill:#000000;fill-opacity:1;stroke:none"><tspan x="67.88203230275508" y="-40.0">1</tspan></text><text id="text2049" x="67.88203230275508" y="40.0" style="font-style:normal;font-weight:normal;font-size:4px;font-family:sans-serif;fill:#000000;fill-opacity:1;stroke:none"><tspan x="67.88203230275508" y="40.0">2</tspan></text><text id="text2050" x="-1.4" y="80.0" style="font-style:normal;font-weight:normal;font-size:4px;font-family:sans-serif;fill:#000000;fill-opacity:1;stroke:none"><tspan x="-1.4" y="80.0">3</tspan></text><text id="text2051" x="-70.68203230275509" y="40.0" style="font-style:normal;font-weight:normal;font-size:4px;font-family:sans-serif;fill:#000000;fill-opacity:1;stroke:none"><tspan x="-70.68203230275509" y="40.0">4</tspan></text><text id="text2052" x="-70.68203230275509" y="-40.0" style="font-style:normal;font-weight:normal;font-size:4px;font-family:sans-serif;fill:#000000;fill-opacity:1;stroke:none"><tspan x="-70.68203230275509" y="-40.0">5</tspan></text><text id="text2053" x="33.24101615137754" y="-60.0" style="font-style:normal;font-weight:normal;font-size:4px;font-family:sans-serif;fill:#000000;fill-opacity:1;stroke:none"><tspan x="33.24101615137754" y="-60.0">6</tspan></text><text id="text2054" x="71.08203230275508" y="-13.599999999999998" style="font-style:normal;font-weight:normal;font-size:4px;font-family:sans-serif;fill:#000000;fill-opacity:1;stroke:none"><tspan x="71.08203230275508" y="-13.599999999999998">7</tspan></text><text id="text2055" x="65.48203230275507" y="16.799999999999997" style="font-style:normal;font-weight:normal;font-size:4px;font-family:sans-serif;fill:#000000;fill-opacity:1;stroke:none"><tspan x="65.48203230275507" y="16.799999999999997">8</tspan></text><text id="text2056" x="48.26870390403876" y="47.628718707889796" style="font-style:normal;font-weight:normal;font-size:4px;font-family:sans-serif;fill:#000000;fill-opacity:1;stroke:none"><tspan x="48.26870390403876" y="47.628718707889796">9</tspan></text><text id="text2057" x="29.776914536239786" y="62.0" style="font-style:normal;font-weight:normal;font-size:4px;font-family:sans-serif;fill:#000000;fill-opacity:1;stroke:none"><tspan x="29.776914536239786" y="62.0">10</tspan></text><text id="text2058" x="15.734867429633669" y="72.87846096908265" style="font-style:normal;font-weight:normal;font-size:4px;font-family:sans-serif;fill:#000000;fill-opacity:1;stroke:none"><tspan x="15.734867429633669" y="72.87846096908265">11</tspan></text><text id="text2059" x="-18.798969044771425" y="65.33589838486225" style="font-style:normal;font-weight:normal;font-size:4px;font-family:sans-serif;fill:#000000;fill-opacity:1;stroke:none"><tspan x="-18.798969044771425" y="65.33589838486225">12</tspan></text><text id="text2060" x="-36.04101615137754" y="60.0" style="font-style:normal;font-weight:normal;font-size:4px;font-family:sans-serif;fill:#000000;fill-opacity:1;stroke:none"><tspan x="-36.04101615137754" y="60.0">13</tspan></text><text id="text2061" x="-53.283063257983656" y="54.66410161513776" style="font-style:normal;font-weight:normal;font-size:4px;font-family:sans-serif;fill:#000000;fill-opacity:1;stroke:none"><tspan x="-53.283063257983656" y="54.66410161513776">14</tspan></text><text id="text2062" x="-68.28203230275508" y="21.6" style="font-style:normal;font-weight:normal;font-size:4px;font-family:sans-serif;fill:#000000;fill-opacity:1;stroke:none"><tspan x="-68.28203230275508" y="21.6">15</tspan></text><text id="text2063" x="-70.68203230275509" y="4.0" style="font-style:normal;font-weight:normal;font-size:4px;font-family:sans-serif;fill:#000000;fill-opacity:1;stroke:none"><tspan x="-70.68203230275509" y="4.0">16</tspan></text><text id="text2064" x="-73.88203230275509" y="-19.200000000000003" style="font-style:normal;font-weight:normal;font-size:4px;font-family:sans-serif;fill:#000000;fill-opacity:1;stroke:none"><tspan x="-73.88203230275509" y="-19.200000000000003">17</tspan></text><text id="text2065" x="-51.790242934956105" y="-53.67846096908266" style="font-style:normal;font-weight:normal;font-size:4px;font-family:sans-serif;fill:#000000;fill-opacity:1;stroke:none"><tspan x="-51.790242934956105" y="-53.67846096908266">18</tspan></text><text id="text2066" x="-22.66307065990918" y="-64.0287187078898" style="font-style:normal;font-weight:normal;font-size:4px;font-family:sans-serif;fill:#000000;fill-opacity:1;stroke:none"><tspan x="-22.66307065990918" y="-64.0287187078898">19</tspan></text><text id="text2067" x="-4.763307364994924" y="-29.69379968743703" style="font-style:normal;font-weight:normal;font-size:4px;font-family:sans-serif;fill:#000000;fill-opacity:1;stroke:none"><tspan x="-4.763307364994924" y="-29.69379968743703">20</tspan></text><text id="text2068" x="28.839609738083695" y="16.116002869338796" style="font-style:normal;font-weight:normal;font-size:4px;font-family:sans-serif;fill:#000000;fill-opacity:1;stroke:none"><tspan x="28.839609738083695" y="16.116002869338796">21</tspan></text><text id="text2069" x="27.43225544027713" y="-16.215804406697576" style="font-style:normal;font-weight:normal;font-size:4px;font-family:sans-serif;fill:#000000;fill-opacity:1;stroke:none"><tspan x="27.43225544027713" y="-16.215804406697576">22</tspan></text><text id="text2070" x="24.825136851232983" y="39.014587024948696" style="font-style:normal;font-weight:normal;font-size:4px;font-family:sans-serif;fill:#000000;fill-opacity:1;stroke:none"><tspan x="24.825136851232983" y="39.014587024948696">23</tspan></text><text id="text2071" x="13.983406526063819" y="-42.35683744999354" style="font-style:normal;font-weight:normal;font-size:4px;font-family:sans-serif;fill:#000000;fill-opacity:1;stroke:none"><tspan x="13.983406526063819" y="-42.35683744999354">24</tspan></text><text id="text2072" x="46.43119350009385" y="-5.966619351492599" style="font-style:normal;font-weight:normal;font-size:4px;font-family:sans-serif;fill:#000000;fill-opacity:1;stroke:none"><tspan x="46.43119350009385" y="-5.966619351492599">25</tspan></text><text id="text2073" x="2.502344113038979" y="58.01401411498764" style="font-style:normal;font-weight:normal;font-size:4px;font-family:sans-serif;fill:#000000;fill-opacity:1;stroke:none"><tspan x="2.502344113038979" y="58.01401411498764">26</tspan></text><text id="text2074" x="-40.54079646923717" y="7.584246880121685" style="font-style:normal;font-weight:normal;font-size:4px;font-family:sans-serif;fill:#000000;fill-opacity:1;stroke:none"><tspan x="-40.54079646923717" y="7.584246880121685">27</tspan></text><text id="text2075" x="-49.626170596358854" y="-18.447672917919316" style="font-style:normal;font-weight:normal;font-size:4px;font-family:sans-serif;fill:#000000;fill-opacity:1;stroke:none"><tspan x="-49.626170596358854" y="-18.447672917919316">28</tspan></text><text id="text2076" x="-18.236930544145803" y="48.00851306344409" style="font-style:normal;font-weight:normal;font-size:4px;font-family:sans-serif;fill:#000000;fill-opacity:1;stroke:none"><tspan x="-18.236930544145803" y="48.00851306344409">29</tspan></text><text id="text2077" x="-0.7044222365299695" y="-3.7710208407598595" style="font-style:normal;font-weight:normal;font-size:4px;font-family:sans-serif;fill:#000000;fill-opacity:1;stroke:none"><tspan x="-0.7044222365299695" y="-3.7710208407598595">30</tspan></text><text id="text2078" x="-18.826458039036506" y="-3.5331073007546974" style="font-style:normal;font-weight:normal;font-size:4px;font-family:sans-serif;fill:#000000;fill-opacity:1;stroke:none"><tspan x="-18.826458039036506" y="-3.5331073007546974">31</tspan></text><text id="text2079" x="-28.744822461161228" y="-38.800378099845325" style="font-style:normal;font-weight:normal;font-size:4px;font-family:sans-serif;fill:#000000;fill-opacity:1;stroke:none"><tspan x="-28.744822461161228" y="-38.800378099845325">32</tspan></text><text id="text2080" x="-8.387142633806365" y="21.987075597289355" style="font-style:normal;font-weight:normal;font-size:4px;font-family:sans-serif;fill:#000000;fill-opacity:1;stroke:none"><tspan x="-8.387142633806365" y="21.987075597289355">33</tspan></text><text id="text2081" x="0.15098763614319433" y="39.68620246117625" style="font-style:normal;font-weight:normal;font-size:4px;font-family:sans-serif;fill:#000000;fill-opacity:1;stroke:none"><tspan x="0.15098763614319433" y="39.68620246117625">34</tspan></text><text id="text2082" x="-43.56409531695135" y="29.329204091754765" style="font-style:normal;font-weight:normal;font-size:4px;font-family:sans-serif;fill:#000000;fill-opacity:1;stroke:none"><tspan x="-43.56409531695135" y="29.329204091754765">35</tspan></text><text id="text2083" x="-31.155828608956224" y="-16.907353988642786" style="font-style:normal;font-weight:normal;font-size:4px;font-family:sans-serif;fill:#000000;fill-opacity:1;stroke:none"><tspan x="-31.155828608956224" y="-16.907353988642786">36</tspan></text><text id="text2084" x="11.260705245519858" y="13.567380752346187" style="font-style:normal;font-weight:normal;font-size:4px;font-family:sans-serif;fill:#000000;fill-opacity:1;stroke:none"><tspan x="11.260705245519858" y="13.567380752346187">37</tspan></text></g><g id="seed_exclusion" inkscape:label="Seed Exclusion" inkscape:groupmode="layer" style="display:none"><circle id="seed-ex-0" cx="0.0" cy="80.0" r="24.0" style="fill:#800000;stroke:none;stroke-width:0;fill-opacity:0.15" /><circle id="seed-ex-1" cx="69.28203230275508" cy="40.0" r="24.0" style="fill:#800000;stroke:none;stroke-width:0;fill-opacity:0.15" /><circle id="seed-ex-2" cx="69.28203230275508" cy="-40.0" r="19.2" style="fill:#800000;stroke:none;stroke-width:0;fill-opacity:0.15" /><circle id="seed-ex-3" cx="0.0" cy="-80.0" r="16.0" style="fill:#800000;stroke:none;stroke-width:0;fill-opacity:0.15" /><circle id="seed-ex-4" cx="-69.28203230275508" cy="-40.0" r="16.0" style="fill:#800000;stroke:none;stroke-width:0;fill-opacity:0.15" /><circle id="seed-ex-5" cx="-69.28203230275508" cy="40.0" r="19.2" style="fill:#800000;stroke:none;stroke-width:0;fill-opacity:0.15" /><circle id="seed-ex-6" cx="34.64101615137754" cy="60.0" r="24.0" style="fill:#800000;stroke:none;stroke-width:0;fill-opacity:0.15" /><circle id="seed-ex-7" cx="72.48203230275509" cy="13.599999999999998" r="22.50221764019898" style="fill:#800000;stroke:none;stroke-width:0;fill-opacity:0.15" /><circle id="seed-ex-8" cx="66.88203230275508" cy="-16.799999999999997" r="20.527336769850766" style="fill:#800000;stroke:none;stroke-width:0;fill-opacity:0.15" /><circle id="seed-ex-9" cx="49.66870390403876" cy="-47.628718707889796" r="18.466534445941697" style="fill:#800000;stroke:none;stroke-width:0;fill-opacity:0.15" /><circle id="seed-ex-10" cx="31.176914536239785" cy="-62.0" r="17.44" style="fill:#800000;stroke:none;stroke-width:0;fill-opacity:0.15" /><circle id="seed-ex-11" cx="17.13486742963367" cy="-72.87846096908265" r="16.662099165543726" style="fill:#800000;stroke:none;stroke-width:0;fill-opacity:0.15" /><circle id="seed-ex-12" cx="-17.398969044771427" cy="-65.33589838486225" r="16.21554410049746" style="fill:#800000;stroke:none;stroke-width:0;fill-opacity:0.15" /><circle id="seed-ex-13" cx="-34.64101615137754" cy="-60.0" r="16.0" style="fill:#800000;stroke:none;stroke-width:0;fill-opacity:0.15" /><circle id="seed-ex-14" cx="-51.88306325798366" cy="-54.66410161513776" r="15.78445589950254" style="fill:#800000;stroke:none;stroke-width:0;fill-opacity:0.15" /><circle id="seed-ex-15" cx="-66.88203230275508" cy="-21.6" r="16.809900834456275" style="fill:#800000;stroke:none;stroke-width:0;fill-opacity:0.15" /><circle id="seed-ex-16" cx="-69.28203230275508" cy="-4.0" r="17.439999999999998" style="fill:#800000;stroke:none;stroke-width:0;fill-opacity:0.15" /><circle id="seed-ex-17" cx="-72.48203230275509" cy="19.200000000000003" r="18.269465554058304" style="fill:#800000;stroke:none;stroke-width:0;fill-opacity:0.15" /><circle id="seed-ex-18" cx="-50.390242934956106" cy="53.67846096908266" r="20.65666323014924" style="fill:#800000;stroke:none;stroke-width:0;fill-opacity:0.15" /><circle id="seed-ex-19" cx="-21.263070659909182" cy="64.0287187078898" r="22.329782359801015" style="fill:#800000;stroke:none;stroke-width:0;fill-opacity:0.15" /><circle id="seed-ex-20" cx="-3.3633073649949243" cy="29.69379968743703" r="21.187548889160162" style="fill:#800000;stroke:none;stroke-width:0;fill-opacity:0.15" /><circle id="seed-ex-21" cx="30.239609738083693" cy="-16.116002869338796" r="19.58111934622169" style="fill:#800000;stroke:none;stroke-width:0;fill-opacity:0.15" /><circle id="seed-ex-22" cx="28.83225544027713" cy="16.215804406697576" r="21.48310941825863" style="fill:#800000;stroke:none;stroke-width:0;fill-opacity:0.15" /><circle id="seed-ex-23" cx="26.225136851232982" cy="-39.014587024948696" r="18.4173555995222" style="fill:#800000;stroke:none;stroke-width:0;fill-opacity:0.15" /><circle id="seed-ex-24" cx="15.383406526063819" cy="42.35683744999354" r="22.4660507386064" style="fill:#800000;stroke:none;stroke-width:0;fill-opacity:0.15" /><circle id="seed-ex-25" cx="47.831193500093846" cy="5.966619351492599" r="21.3800469417601" style="fill:#800000;stroke:none;stroke-width:0;fill-opacity:0.15" /><circle id="seed-ex-26" cx="3.902344113038979" cy="-58.01401411498764" r="17.10111332210503" style="fill:#800000;stroke:none;stroke-width:0;fill-opacity:0.15" /><circle id="seed-ex-27" cx="-39.14079646923717" cy="-7.584246880121685" r="18.224739491311908" style="fill:#800000;stroke:none;stroke-width:0;fill-opacity:0.15" /><circle id="seed-ex-28" cx="-48.226170596358855" cy="18.447672917919316" r="18.986259312674502" style="fill:#800000;stroke:none;stroke-width:0;fill-opacity:0.15" /><circle id="seed-ex-29" cx="-16.836930544145805" cy="-48.00851306344409" r="17.03929842587976" style="fill:#800000;stroke:none;stroke-width:0;fill-opacity:0.15" /><circle id="seed-ex-30" cx="0.6955777634700304" cy="3.7710208407598595" r="19.95587268531955" style="fill:#800000;stroke:none;stroke-width:0;fill-opacity:0.15" /><circle id="seed-ex-31" cx="-17.426458039036508" cy="3.5331073007546974" r="19.338061879237685" style="fill:#800000;stroke:none;stroke-width:0;fill-opacity:0.15" /><circle id="seed-ex-32" cx="-27.34482246116123" cy="38.800378099845325" r="20.750184124732154" style="fill:#800000;stroke:none;stroke-width:0;fill-opacity:0.15" /><circle id="seed-ex-33" cx="-6.987142633806365" cy="-21.987075597289355" r="18.519015133703427" style="fill:#800000;stroke:none;stroke-width:0;fill-opacity:0.15" /><circle id="seed-ex-34" cx="1.5509876361431942" cy="-39.68620246117625" r="17.911159322786343" style="fill:#800000;stroke:none;stroke-width:0;fill-opacity:0.15" /><circle id="seed-ex-35" cx="-42.164095316951354" cy="-29.329204091754765" r="17.228609392587096" style="fill:#800000;stroke:none;stroke-width:0;fill-opacity:0.15" /><circle id="seed-ex-36" cx="-29.755828608956225" cy="16.907353988642786" r="19.49338559115418" style="fill:#800000;stroke:none;stroke-width:0;fill-opacity:0.15" /><circle id="seed-ex-37" cx="12.660705245519859" cy="-13.567380752346187" r="19.343844284278227" style="fill:#800000;stroke:none;stroke-width:0;fill-opacity:0.15" /></g><g id="margin_exclusion" inkscape:label="Margin Exclusion" inkscape:groupmode="layer" style="display:none"><circle id="circle2085" cx="17.32050807568877" cy="70.0" r="22.0" style="fill:#000080;stroke:none;stroke-width:0;fill-opacity:0.15" /><circle id="circle2086" cx="51.96152422706631" cy="50.0" r="22.0" style="fill:#000080;stroke:none;stroke-width:0;fill-opacity:0.15" /><circle id="circle2087" cx="69.28203230275508" cy="26.606060606060602" r="14.626277721963305" style="fill:#000080;stroke:none;stroke-width:0;fill-opacity:0.15" /><circle id="circle2088" cx="69.28203230275508" cy="-1.526315789473685" r="17.00131759599826" style="fill:#000080;stroke:none;stroke-width:0;fill-opacity:0.15" /><circle id="circle2089" cx="69.28203230275508" cy="-28.275862068965523" r="12.828094168659662" style="fill:#000080;stroke:none;stroke-width:0;fill-opacity:0.15" /><circle id="circle2090" cx="60.06219261938844" cy="-45.323076923076925" r="11.574592865409999" style="fill:#000080;stroke:none;stroke-width:0;fill-opacity:0.15" /><circle id="circle2091" cx="41.41393206787101" cy="-56.0896551724138" r="12.880807428107913" style="fill:#000080;stroke:none;stroke-width:0;fill-opacity:0.15" /><circle id="circle2092" cx="23.414177735044724" cy="-66.48181818181818" r="9.769585456916786" style="fill:#000080;stroke:none;stroke-width:0;fill-opacity:0.15" /><circle id="circle2093" cx="8.10298551714832" cy="-75.32173913043478" r="10.205723884174018" style="fill:#000080;stroke:none;stroke-width:0;fill-opacity:0.15" /><circle id="circle2094" cx="-10.008779309451583" cy="-74.22142857142858" r="12.514887134928546" style="fill:#000080;stroke:none;stroke-width:0;fill-opacity:0.15" /><circle id="circle2095" cx="-26.62634468726338" cy="-64.62727272727273" r="9.926852471957059" style="fill:#000080;stroke:none;stroke-width:0;fill-opacity:0.15" /><circle id="circle2096" cx="-42.655687615491715" cy="-55.372727272727275" r="9.926852471957057" style="fill:#000080;stroke:none;stroke-width:0;fill-opacity:0.15" /><circle id="circle2097" cx="-59.273252993303494" cy="-45.77857142857143" r="12.514887134928548" style="fill:#000080;stroke:none;stroke-width:0;fill-opacity:0.15" /><circle id="circle2098" cx="-69.28203230275508" cy="-30.643478260869564" r="10.205723884174018" style="fill:#000080;stroke:none;stroke-width:0;fill-opacity:0.15" /><circle id="circle2099" cx="-69.28203230275508" cy="-12.963636363636365" r="9.76958545691679" style="fill:#000080;stroke:none;stroke-width:0;fill-opacity:0.15" /><circle id="circle2100" cx="-69.28203230275508" cy="7.8206896551724085" r="12.880807428107914" style="fill:#000080;stroke:none;stroke-width:0;fill-opacity:0.15" /><circle id="circle2101" cx="-69.28203230275508" cy="29.353846153846163" r="11.574592865409997" style="fill:#000080;stroke:none;stroke-width:0;fill-opacity:0.15" /><circle id="circle2102" cx="-59.12863101700649" cy="45.862068965517246" r="12.828094168659664" style="fill:#000080;stroke:none;stroke-width:0;fill-opacity:0.15" /><circle id="circle2103" cx="-35.962844399259055" cy="59.23684210526316" r="17.001317595998252" style="fill:#000080;stroke:none;stroke-width:0;fill-opacity:0.15" /><circle id="circle2104" cx="-11.59949177190066" cy="73.30303030303031" r="14.626277721963305" style="fill:#000080;stroke:none;stroke-width:0;fill-opacity:0.15" /></g><g id="circles" inkscape:label="Inscribed Circles" inkscape:groupmode="layer" style="display:none"><circle id="incircle-0" cx="0.0" cy="80.0" r="13.296616110875734" style="fill:#008000;stroke:none;stroke-width:0;fill-opacity:0.15" /><circle id="incircle-ctr-0" cx="0.0" cy="80.0" r="0.5" style="fill:#000000;stroke:none;stroke-width:0" /><circle id="incircle-1" cx="69.28203230275508" cy="40.0" r="13.296616110875734" style="fill:#008000;stroke:none;stroke-width:0;fill-opacity:0.15" /><circle id="incircle-ctr-1" cx="69.28203230275508" cy="40.0" r="0.5" style="fill:#000000;stroke:none;stroke-width:0" /><circle id="incircle-2" cx="69.28203230275508" cy="-40.0" r="10.522357150372732" style="fill:#008000;stroke:none;stroke-width:0;fill-opacity:0.15" /><circle id="incircle-ctr-2" cx="69.28203230275508" cy="-40.0" r="0.5" style="fill:#000000;stroke:none;stroke-width:0" /><circle id="incircle-3" cx="0.0" cy="-80.0" r="9.277930803794563" style="fill:#008000;stroke:none;stroke-width:0;fill-opacity:0.15" /><circle id="incircle-ctr-3" cx="0.0" cy="-80.0" r="0.5" style="fill:#000000;stroke:none;stroke-width:0" /><circle id="incircle-4" cx="-69.28203230275508" cy="-40.0" r="9.277930803794556" style="fill:#008000;stroke:none;stroke-width:0;fill-opacity:0.15" /><circle id="incircle-ctr-4" cx="-69.28203230275508" cy="-40.0" r="0.5" style="fill:#000000;stroke:none;stroke-width:0" /><circle id="incircle-5" cx="-69.28203230275508" cy="40.0" r="10.522357150372724" style="fill:#008000;stroke:none;stroke-width:0;fill-opacity:0.15" /><circle id="incircle-ctr-5" cx="-69.28203230275508" cy="40.0" r="0.5" style="fill:#000000;stroke:none;stroke-width:0" /><circle id="incircle-6" cx="34.64101615137754" cy="60.0" r="13.058873546816033" style="fill:#008000;stroke:none;stroke-width:0;fill-opacity:0.15" /><circle id="incircle-ctr-6" cx="34.64101615137754" cy="60.0" r="0.5" style="fill:#000000;stroke:none;stroke-width:0" /><circle id="incircle-7" cx="69.28203230275508" cy="12.539872408293459" r="9.532446998143115" style="fill:#008000;stroke:none;stroke-width:0;fill-opacity:0.15" /><circle id="incircle-ctr-7" cx="69.28203230275508" cy="12.539872408293459" r="0.5" style="fill:#000000;stroke:none;stroke-width:0" /><circle id="incircle-8" cx="69.28203230275508" cy="-14.9010889292196" r="13.153463290938605" style="fill:#008000;stroke:none;stroke-width:0;fill-opacity:0.15" /><circle id="incircle-ctr-8" cx="69.28203230275508" cy="-14.9010889292196" r="0.5" style="fill:#000000;stroke:none;stroke-width:0" /><circle id="incircle-9" cx="50.73806234362972" cy="-50.70636604774536" r="10.641381222185295" style="fill:#008000;stroke:none;stroke-width:0;fill-opacity:0.15" /><circle id="incircle-ctr-9" cx="50.73806234362972" cy="-50.70636604774536" r="0.5" style="fill:#000000;stroke:none;stroke-width:0" /><circle id="incircle-10" cx="32.41405490145787" cy="-61.28573667711599" r="10.294696255658442" style="fill:#008000;stroke:none;stroke-width:0;fill-opacity:0.15" /><circle id="incircle-ctr-10" cx="32.41405490145787" cy="-61.28573667711599" r="0.5" style="fill:#000000;stroke:none;stroke-width:0" /><circle id="incircle-11" cx="15.758581626096518" cy="-70.90177865612648" r="7.558986471735785" style="fill:#008000;stroke:none;stroke-width:0;fill-opacity:0.15" /><circle id="incircle-ctr-11" cx="15.758581626096518" cy="-70.90177865612648" r="0.5" style="fill:#000000;stroke:none;stroke-width:0" /><circle id="incircle-12" cx="-18.317561998357483" cy="-69.42435064935066" r="9.355576587220014" style="fill:#008000;stroke:none;stroke-width:0;fill-opacity:0.15" /><circle id="incircle-ctr-12" cx="-18.317561998357483" cy="-69.42435064935066" r="0.5" style="fill:#000000;stroke:none;stroke-width:0" /><circle id="incircle-13" cx="-34.64101615137755" cy="-60.0" r="9.02441133814278" style="fill:#008000;stroke:none;stroke-width:0;fill-opacity:0.15" /><circle id="incircle-ctr-13" cx="-34.64101615137755" cy="-60.0" r="0.5" style="fill:#000000;stroke:none;stroke-width:0" /><circle id="incircle-14" cx="-50.96447030439761" cy="-50.57564935064936" r="9.35557658722001" style="fill:#008000;stroke:none;stroke-width:0;fill-opacity:0.15" /><circle id="incircle-ctr-14" cx="-50.96447030439761" cy="-50.57564935064936" r="0.5" style="fill:#000000;stroke:none;stroke-width:0" /><circle id="incircle-15" cx="-69.28203230275508" cy="-21.803557312252963" r="8.7588603590161" style="fill:#008000;stroke:none;stroke-width:0;fill-opacity:0.15" /><circle id="incircle-ctr-15" cx="-69.28203230275508" cy="-21.803557312252963" r="0.5" style="fill:#000000;stroke:none;stroke-width:0" /><circle id="incircle-16" cx="-69.28203230275508" cy="-2.571473354231978" r="10.29469625565844" style="fill:#008000;stroke:none;stroke-width:0;fill-opacity:0.15" /><circle id="incircle-ctr-16" cx="-69.28203230275508" cy="-2.571473354231978" r="0.5" style="fill:#000000;stroke:none;stroke-width:0" /><circle id="incircle-17" cx="-69.28203230275508" cy="18.587267904509282" r="8.91630561150166" style="fill:#008000;stroke:none;stroke-width:0;fill-opacity:0.15" /><circle id="incircle-ctr-17" cx="-69.28203230275508" cy="18.587267904509282" r="0.5" style="fill:#000000;stroke:none;stroke-width:0" /><circle id="incircle-18" cx="-47.545737708132776" cy="52.5494555353902" r="10.713290482839387" style="fill:#008000;stroke:none;stroke-width:0;fill-opacity:0.15" /><circle id="incircle-ctr-18" cx="-47.545737708132776" cy="52.5494555353902" r="0.5" style="fill:#000000;stroke:none;stroke-width:0" /><circle id="incircle-19" cx="-23.78116808557986" cy="66.26993620414673" r="13.833437634388085" style="fill:#008000;stroke:none;stroke-width:0;fill-opacity:0.15" /><circle id="incircle-ctr-19" cx="-23.78116808557986" cy="66.26993620414673" r="0.5" style="fill:#000000;stroke:none;stroke-width:0" /><circle id="incircle-20" cx="-4.446751594638573" cy="28.79223411336377" r="12.133352878991113" style="fill:#008000;stroke:none;stroke-width:0;fill-opacity:0.15" /><circle id="incircle-ctr-20" cx="-4.446751594638573" cy="28.79223411336377" r="0.5" style="fill:#000000;stroke:none;stroke-width:0" /><circle id="incircle-21" cx="33.4672552720769" cy="-16.14987931992933" r="12.080457472807353" style="fill:#008000;stroke:none;stroke-width:0;fill-opacity:0.15" /><circle id="incircle-ctr-21" cx="33.4672552720769" cy="-16.14987931992933" r="0.5" style="fill:#000000;stroke:none;stroke-width:0" /><circle id="incircle-22" cx="26.68514847203138" cy="17.259987646702683" r="12.788086969663107" style="fill:#008000;stroke:none;stroke-width:0;fill-opacity:0.15" /><circle id="incircle-ctr-22" cx="26.68514847203138" cy="17.259987646702683" r="0.5" style="fill:#000000;stroke:none;stroke-width:0" /><circle id="incircle-23" cx="25.892877245187222" cy="-38.857577911368864" r="11.526634829405184" style="fill:#008000;stroke:none;stroke-width:0;fill-opacity:0.15" /><circle id="incircle-ctr-23" cx="25.892877245187222" cy="-38.857577911368864" r="0.5" style="fill:#000000;stroke:none;stroke-width:0" /><circle id="incircle-24" cx="17.212938405002813" cy="40.797373482734656" r="11.954571095387163" style="fill:#008000;stroke:none;stroke-width:0;fill-opacity:0.15" /><circle id="incircle-ctr-24" cx="17.212938405002813" cy="40.797373482734656" r="0.5" style="fill:#000000;stroke:none;stroke-width:0" /><circle id="incircle-25" cx="48.64451068973879" cy="4.480316701836107" r="12.215052124127128" style="fill:#008000;stroke:none;stroke-width:0;fill-opacity:0.15" /><circle id="incircle-ctr-25" cx="48.64451068973879" cy="4.480316701836107" r="0.5" style="fill:#000000;stroke:none;stroke-width:0" /><circle id="incircle-26" cx="3.1105363700956836" cy="-58.77532296739168" r="9.893375598691165" style="fill:#008000;stroke:none;stroke-width:0;fill-opacity:0.15" /><circle id="incircle-ctr-26" cx="3.1105363700956836" cy="-58.77532296739168" r="0.5" style="fill:#000000;stroke:none;stroke-width:0" /><circle id="incircle-27" cx="-40.394108751222745" cy="-6.381834494165746" r="11.995424407557248" style="fill:#008000;stroke:none;stroke-width:0;fill-opacity:0.15" /><circle id="incircle-ctr-27" cx="-40.394108751222745" cy="-6.381834494165746" r="0.5" style="fill:#000000;stroke:none;stroke-width:0" /><circle id="incircle-28" cx="-49.54342826188097" cy="22.389612825646353" r="10.694932914165756" style="fill:#008000;stroke:none;stroke-width:0;fill-opacity:0.15" /><circle id="incircle-ctr-28" cx="-49.54342826188097" cy="22.389612825646353" r="0.5" style="fill:#000000;stroke:none;stroke-width:0" /><circle id="incircle-29" cx="-19.558782521221517" cy="-43.60885260072353" r="10.757367205893324" style="fill:#008000;stroke:none;stroke-width:0;fill-opacity:0.15" /><circle id="incircle-ctr-29" cx="-19.558782521221517" cy="-43.60885260072353" r="0.5" style="fill:#000000;stroke:none;stroke-width:0" /><circle id="incircle-30" cx="2.690249208062535" cy="5.991390611754855" r="11.085445711035378" style="fill:#008000;stroke:none;stroke-width:0;fill-opacity:0.15" /><circle id="incircle-ctr-30" cx="2.690249208062535" cy="5.991390611754855" r="0.5" style="fill:#000000;stroke:none;stroke-width:0" /><circle id="incircle-31" cx="-18.520958724984567" cy="1.4463668325332293" r="9.887514933747035" style="fill:#008000;stroke:none;stroke-width:0;fill-opacity:0.15" /><circle id="incircle-ctr-31" cx="-18.520958724984567" cy="1.4463668325332293" r="0.5" style="fill:#000000;stroke:none;stroke-width:0" /><circle id="incircle-32" cx="-28.272753416501054" cy="40.17498238377081" r="11.856665753241897" style="fill:#008000;stroke:none;stroke-width:0;fill-opacity:0.15" /><circle id="incircle-ctr-32" cx="-28.272753416501054" cy="40.17498238377081" r="0.5" style="fill:#000000;stroke:none;stroke-width:0" /><circle id="incircle-33" cx="-8.74945418580388" cy="-20.510172009222533" r="11.7260616746533" style="fill:#008000;stroke:none;stroke-width:0;fill-opacity:0.15" /><circle id="incircle-ctr-33" cx="-8.74945418580388" cy="-20.510172009222533" r="0.5" style="fill:#000000;stroke:none;stroke-width:0" /><circle id="incircle-34" cx="3.7963807572867223" cy="-38.57528203286308" r="9.800482202316251" style="fill:#008000;stroke:none;stroke-width:0;fill-opacity:0.15" /><circle id="incircle-ctr-34" cx="3.7963807572867223" cy="-38.57528203286308" r="0.5" style="fill:#000000;stroke:none;stroke-width:0" /><circle id="incircle-35" cx="-39.72810998778655" cy="-31.43276293482601" r="12.476058895953681" style="fill:#008000;stroke:none;stroke-width:0;fill-opacity:0.15" /><circle id="incircle-ctr-35" cx="-39.72810998778655" cy="-31.43276293482601" r="0.5" style="fill:#000000;stroke:none;stroke-width:0" /><circle id="incircle-36" cx="-29.281211542720364" cy="18.17247431063836" r="9.63506530084551" style="fill:#008000;stroke:none;stroke-width:0;fill-opacity:0.15" /><circle id="incircle-ctr-36" cx="-29.281211542720364" cy="18.17247431063836" r="0.5" style="fill:#000000;stroke:none;stroke-width:0" /><circle id="incircle-37" cx="11.663433897919344" cy="-13.092434873981869" r="9.575766779834458" style="fill:#008000;stroke:none;stroke-width:0;fill-opacity:0.15" /><circle id="incircle-ctr-37" cx="11.663433897919344" cy="-13.092434873981869" r="0.5" style="fill:#000000;stroke:none;stroke-width:0" /></g><g id="annotations" inkscape:label="Annotations" inkscape:groupmode="layer" transform="scale(1,-1)"><text id="text2105" x="-92" y="84.5" style="font-style:normal;font-weight:normal;font-size:4px;font-family:sans-serif;fill:#000000;fill-opacity:1;stroke:none"><tspan x="-92" y="84.5">id: 425</tspan></text><ns0:text xml:space="preserve" style="font-style:normal;font-weight:normal;font-size:4.23333px;line-height:1.25;font-family:sans-serif;text-align:center;text-anchor:middle;fill:#000000;fill-opacity:1;stroke:none;stroke-width:0.264583" x="-1.7974526e-07" y="0" id="tile-id" transform="translate(0 -72)"><ns0:tspan ns1:role="line" id="tspan439" style="font-style:normal;font-variant:normal;font-weight:bold;font-stretch:normal;font-size:4.23333px;font-family:'Arial Black';-inkscape-font-specification:'Arial Black,  Bold';text-align:center;text-anchor:middle;fill:#808080;fill-opacity:1;stroke-width:0.264583" x="-1.4621764e-07" y="0">425</ns0:tspan></ns0:text>
  <text id="text2106" x="-92" y="90.0" style="font-style:normal;font-weight:normal;font-size:4px;font-family:sans-serif;fill:#000000;fill-opacity:1;stroke:none"><tspan x="-92" y="90.0">size: 80</tspan></text><text id="text2107" x="-92" y="95.5" style="font-style:normal;font-weight:normal;font-size:4px;font-family:sans-serif;fill:#000000;fill-opacity:1;stroke:none"><tspan x="-92" y="95.5">rng seed 671</tspan></text><text id="text2108" x="-92" y="101.0" style="font-style:normal;font-weight:normal;font-size:4px;font-family:sans-serif;fill:#000000;fill-opacity:1;stroke:none"><tspan x="-92" y="101.0">pattern 112332 / llmhhm</tspan></text><text id="text2109" x="-92" y="106.5" style="font-style:normal;font-weight:normal;font-size:4px;font-family:sans-serif;fill:#000000;fill-opacity:1;stroke:none"><tspan x="-92" y="106.5">seed attempts: 20</tspan></text><text id="text2110" x="-92" y="112.0" style="font-style:normal;font-weight:normal;font-size:4px;font-family:sans-serif;fill:#000000;fill-opacity:1;stroke:none"><tspan x="-92" y="112.0">seed distance: l 0.3; m 0.24; h 0.2</tspan></text><text id="text2111" x="-92" y="117.5" style="font-style:normal;font-weight:normal;font-size:4px;font-family:sans-serif;fill:#000000;fill-opacity:1;stroke:none"><tspan x="-92" y="117.5">center: (AVG) 0.247</tspan></text><text id="text2112" x="-92" y="123.0" style="font-style:normal;font-weight:normal;font-size:4px;font-family:sans-serif;fill:#000000;fill-opacity:1;stroke:none"><tspan x="-92" y="123.0">min ridge length: 0.08; at edge: 0.04</tspan></text><text id="text2113" x="-92" y="128.5" style="font-style:normal;font-weight:normal;font-size:4px;font-family:sans-serif;fill:#000000;fill-opacity:1;stroke:none"><tspan x="-92" y="128.5">edge margin exclusion zone scale: 1.1</tspan></text><text id="text2114" x="-92" y="134.0" style="font-style:normal;font-weight:normal;font-size:4px;font-family:sans-serif;fill:#000000;fill-opacity:1;stroke:none"><tspan x="-92" y="134.0">iterations: 52</tspan></text><text id="text2115" x="-92" y="139.5" style="font-style:normal;font-weight:normal;font-size:4px;font-family:sans-serif;fill:#000000;fill-opacity:1;stroke:none"><tspan x="-92" y="139.5">adjustments: side 0.011, neighbor -0.009</tspan></text><text id="text2116" x="-92" y="145.0" style="font-style:normal;font-weight:normal;font-size:4px;font-family:sans-serif;fill:#000000;fill-opacity:1;stroke:none"><tspan x="-92" y="145.0">closeness: 0.9, adjust -0.013</tspan></text><text id="text2117" x="-1.5" y="-82" style="font-style:normal;font-weight:normal;font-size:4px;font-family:sans-serif;fill:#000000;fill-opacity:1;stroke:none"><tspan x="-1.5" y="-82">L</tspan></text><text id="text2118" x="-1.5" y="-82" style="font-style:normal;font-weight:normal;font-size:4px;font-family:sans-serif;fill:#000000;fill-opacity:1;stroke:none" transform="rotate(60)"><tspan x="-1.5" y="-82">L</tspan></text><text id="text2119" x="-1.5" y="-82" style="font-style:normal;font-weight:normal;font-size:4px;font-family:sans-serif;fill:#000000;fill-opacity:1;stroke:none" transform="rotate(120)"><tspan x="-1.5" y="-82">M</tspan></text><text id="text2120" x="-1.5" y="-82" style="font-style:normal;font-weight:normal;font-size:4px;font-family:sans-serif;fill:#000000;fill-opacity:1;stroke:none" transform="rotate(180)"><tspan x="-1.5" y="-82">H</tspan></text><text id="text2121" x="-1.5" y="-82" style="font-style:normal;font-weight:normal;font-size:4px;font-family:sans-serif;fill:#000000;fill-opacity:1;stroke:none" transform="rotate(240)"><tspan x="-1.5" y="-82">H</tspan></text><text id="text2122" x="-1.5" y="-82" style="font-style:normal;font-weight:normal;font-size:4px;font-family:sans-serif;fill:#000000;fill-opacity:1;stroke:none" transform="rotate(300)"><tspan x="-1.5" y="-82">M</tspan></text><g id="node2123" transform="rotate(30)"><text id="text2124" x="-1.5" y="-72.28203230275508" style="font-style:normal;font-weight:normal;font-size:4px;font-family:sans-serif;fill:#000000;fill-opacity:1;stroke:none"><tspan x="-1.5" y="-72.28203230275508">L</tspan></text></g><g id="node2125" transform="rotate(90)"><text id="text2126" x="-15.099999999999998" y="-72.28203230275508" style="font-style:normal;font-weight:normal;font-size:4px;font-family:sans-serif;fill:#000000;fill-opacity:1;stroke:none"><tspan x="-15.099999999999998" y="-72.28203230275508">L</tspan></text><text id="text2127" x="15.299999999999997" y="-72.28203230275508" style="font-style:normal;font-weight:normal;font-size:4px;font-family:sans-serif;fill:#000000;fill-opacity:1;stroke:none"><tspan x="15.299999999999997" y="-72.28203230275508">L</tspan></text></g><g id="node2128" transform="rotate(150)"><text id="text2129" x="-20.7" y="-72.28203230275508" style="font-style:normal;font-weight:normal;font-size:4px;font-family:sans-serif;fill:#000000;fill-opacity:1;stroke:none"><tspan x="-20.7" y="-72.28203230275508">M</tspan></text><text id="text2130" x="2.5" y="-72.28203230275508" style="font-style:normal;font-weight:normal;font-size:4px;font-family:sans-serif;fill:#000000;fill-opacity:1;stroke:none"><tspan x="2.5" y="-72.28203230275508">H</tspan></text><text id="text2131" x="20.1" y="-72.28203230275508" style="font-style:normal;font-weight:normal;font-size:4px;font-family:sans-serif;fill:#000000;fill-opacity:1;stroke:none"><tspan x="20.1" y="-72.28203230275508">M</tspan></text></g><g id="node2132" transform="rotate(210)"><text id="text2133" x="-19.099999999999998" y="-72.28203230275508" style="font-style:normal;font-weight:normal;font-size:4px;font-family:sans-serif;fill:#000000;fill-opacity:1;stroke:none"><tspan x="-19.099999999999998" y="-72.28203230275508">H</tspan></text><text id="text2134" x="-1.5" y="-72.28203230275508" style="font-style:normal;font-weight:normal;font-size:4px;font-family:sans-serif;fill:#000000;fill-opacity:1;stroke:none"><tspan x="-1.5" y="-72.28203230275508">M</tspan></text><text id="text2135" x="16.099999999999994" y="-72.28203230275508" style="font-style:normal;font-weight:normal;font-size:4px;font-family:sans-serif;fill:#000000;fill-opacity:1;stroke:none"><tspan x="16.099999999999994" y="-72.28203230275508">H</tspan></text></g><g id="node2136" transform="rotate(270)"><text id="text2137" x="-23.1" y="-72.28203230275508" style="font-style:normal;font-weight:normal;font-size:4px;font-family:sans-serif;fill:#000000;fill-opacity:1;stroke:none"><tspan x="-23.1" y="-72.28203230275508">M</tspan></text><text id="text2138" x="-5.5" y="-72.28203230275508" style="font-style:normal;font-weight:normal;font-size:4px;font-family:sans-serif;fill:#000000;fill-opacity:1;stroke:none"><tspan x="-5.5" y="-72.28203230275508">H</tspan></text><text id="text2139" x="17.700000000000003" y="-72.28203230275508" style="font-style:normal;font-weight:normal;font-size:4px;font-family:sans-serif;fill:#000000;fill-opacity:1;stroke:none"><tspan x="17.700000000000003" y="-72.28203230275508">M</tspan></text></g><g id="node2140" transform="rotate(330)"><text id="text2141" x="-18.299999999999997" y="-72.28203230275508" style="font-style:normal;font-weight:normal;font-size:4px;font-family:sans-serif;fill:#000000;fill-opacity:1;stroke:none"><tspan x="-18.299999999999997" y="-72.28203230275508">L</tspan></text><text id="text2142" x="12.099999999999994" y="-72.28203230275508" style="font-style:normal;font-weight:normal;font-size:4px;font-family:sans-serif;fill:#000000;fill-opacity:1;stroke:none"><tspan x="12.099999999999994" y="-72.28203230275508">L</tspan></text></g><g id="node2143" transform="rotate(90)"><rect id="rect2144" x="0.10000000000000142" y="-77.28203230275508" width="3" height="8" style="fill:#a2c6ff;stroke:#000000;stroke-width:0.3" /><text id="text2145" x="0.10000000000000142" y="-79.28203230275508" style="font-style:normal;font-weight:normal;font-size:4px;font-family:sans-serif;fill:#000000;fill-opacity:1;stroke:none"><tspan x="0.10000000000000142" y="-79.28203230275508">R</tspan></text></g><g id="node2146" transform="rotate(330)"><rect id="rect2147" x="-3.1000000000000014" y="-77.28203230275508" width="3" height="8" style="fill:#a2c6ff;stroke:#000000;stroke-width:0.3" /><text id="text2148" x="-3.1000000000000014" y="-79.28203230275508" style="font-style:normal;font-weight:normal;font-size:4px;font-family:sans-serif;fill:#000000;fill-opacity:1;stroke:none"><tspan x="-3.1000000000000014" y="-79.28203230275508">R</tspan></text></g><circle id="mana" cx="50" cy="110" r="7.5" style="fill:#000000;stroke:none;stroke-width:0" /><rect id="rect2149" x="75" y="90" width="15" height="6" style="fill:#be850a;stroke:#000000;stroke-width:0.3" /><text id="text2150" x="70" y="94.5" style="font-style:normal;font-weight:normal;font-size:4px;font-family:sans-serif;fill:#000000;fill-opacity:1;stroke:none"><tspan x="70" y="94.5">V</tspan></text><rect id="rect2151" x="75" y="100" width="15" height="6" style="fill:#e7a311;stroke:#000000;stroke-width:0.3" /><text id="text2152" x="70" y="104.5" style="font-style:normal;font-weight:normal;font-size:4px;font-family:sans-serif;fill:#000000;fill-opacity:1;stroke:none"><tspan x="70" y="104.5">H</tspan></text><rect id="rect2153" x="75" y="110" width="15" height="6" style="fill:#f0ce76;stroke:#000000;stroke-width:0.3" /><text id="text2154" x="70" y="114.5" style="font-style:normal;font-weight:normal;font-size:4px;font-family:sans-serif;fill:#000000;fill-opacity:1;stroke:none"><tspan x="70" y="114.5">M</tspan></text><rect id="rect2155" x="75" y="120" width="15" height="6" style="fill:#f0eaac;stroke:#000000;stroke-width:0.3" /><text id="text2156" x="70" y="124.5" style="font-style:normal;font-weight:normal;font-size:4px;font-family:sans-serif;fill:#000000;fill-opacity:1;stroke:none"><tspan x="70" y="124.5">L</tspan></text><rect id="rect2157" x="75" y="130" width="15" height="6" style="fill:#a2c6ff;stroke:#000000;stroke-width:0.3" /><text id="text2158" x="70" y="134.5" style="font-style:normal;font-weight:normal;font-size:4px;font-family:sans-serif;fill:#000000;fill-opacity:1;stroke:none"><tspan x="70" y="134.5">R</tspan></text></g><g id="river-border" inkscape:label="River Border" inkscape:groupmode="layer"><path id="path2159" d="m 79.114 -3.33748 -15.7955 2.90969 z" style="fill:none;stroke:#000000;stroke-width:2.6;stroke-linecap:round;stroke-linejoin:round" /><path id="path2160" d="m 63.3186 -0.427785 -14.688 -12.2907 z" style="fill:none;stroke:#000000;stroke-width:2.6;stroke-linecap:round;stroke-linejoin:round" /><path id="path2161" d="m 48.6306 -12.7185 -16.187 12.895 z" style="fill:none;stroke:#000000;stroke-width:2.6;stroke-linecap:round;stroke-linejoin:round" /><path id="path2162" d="m -39.1466 68.1964 5.13151 -14.4408 z" style="fill:none;stroke:#000000;stroke-width:2.6;stroke-linecap:round;stroke-linejoin:round" /><path id="path2163" d="m -34.0151 53.7556 23.8828 -5.75738 z" style="fill:none;stroke:#000000;stroke-width:2.6;stroke-linecap:round;stroke-linejoin:round" /><path id="path2164" d="m 17.9193 2.85929 5.65221 -3.06901 z" style="fill:none;stroke:#000000;stroke-width:2.6;stroke-linecap:round;stroke-linejoin:round" /><path id="path2165" d="m 32.4436 0.176469 -8.87212 -0.38619 z" style="fill:none;stroke:#000000;stroke-width:2.6;stroke-linecap:round;stroke-linejoin:round" /><path id="path2166" d="m 10.9337 18.6532 6.98561 -15.7939 z" style="fill:none;stroke:#000000;stroke-width:2.6;stroke-linecap:round;stroke-linejoin:round" /><path id="path2167" d="m 13.5397 24.8782 -17.7149 26.2256 z" style="fill:none;stroke:#000000;stroke-width:2.6;stroke-linecap:round;stroke-linejoin:round" /><path id="path2168" d="m 10.9337 18.6532 2.60598 6.22502 z" style="fill:none;stroke:#000000;stroke-width:2.6;stroke-linecap:round;stroke-linejoin:round" /><path id="path2169" d="m -10.1323 47.9982 5.95712 3.10561 z" style="fill:none;stroke:#000000;stroke-width:2.6;stroke-linecap:round;stroke-linejoin:round" /></g><g id="river" inkscape:label="River" inkscape:groupmode="layer"><path id="path2159" d="m 79.114 -3.33748 -15.7955 2.90969 z" style="fill:none;stroke:#a2c6ff;stroke-width:2.0;stroke-linecap:round;stroke-linejoin:round" /><path id="path2160" d="m 63.3186 -0.427785 -14.688 -12.2907 z" style="fill:none;stroke:#a2c6ff;stroke-width:2.0;stroke-linecap:round;stroke-linejoin:round" /><path id="path2161" d="m 48.6306 -12.7185 -16.187 12.895 z" style="fill:none;stroke:#a2c6ff;stroke-width:2.0;stroke-linecap:round;stroke-linejoin:round" /><path id="path2162" d="m -39.1466 68.1964 5.13151 -14.4408 z" style="fill:none;stroke:#a2c6ff;stroke-width:2.0;stroke-linecap:round;stroke-linejoin:round" /><path id="path2163" d="m -34.0151 53.7556 23.8828 -5.75738 z" style="fill:none;stroke:#a2c6ff;stroke-width:2.0;stroke-linecap:round;stroke-linejoin:round" /><path id="path2164" d="m 17.9193 2.85929 5.65221 -3.06901 z" style="fill:none;stroke:#a2c6ff;stroke-width:2.0;stroke-linecap:round;stroke-linejoin:round" /><path id="path2165" d="m 32.4436 0.176469 -8.87212 -0.38619 z" style="fill:none;stroke:#a2c6ff;stroke-width:2.0;stroke-linecap:round;stroke-linejoin:round" /><path id="path2166" d="m 10.9337 18.6532 6.98561 -15.7939 z" style="fill:none;stroke:#a2c6ff;stroke-width:2.0;stroke-linecap:round;stroke-linejoin:round" /><path id="path2167" d="m 13.5397 24.8782 -17.7149 26.2256 z" style="fill:none;stroke:#a2c6ff;stroke-width:2.0;stroke-linecap:round;stroke-linejoin:round" /><path id="path2168" d="m 10.9337 18.6532 2.60598 6.22502 z" style="fill:none;stroke:#a2c6ff;stroke-width:2.0;stroke-linecap:round;stroke-linejoin:round" /><path id="path2169" d="m -10.1323 47.9982 5.95712 3.10561 z" style="fill:none;stroke:#a2c6ff;stroke-width:2.0;stroke-linecap:round;stroke-linejoin:round" /></g><g id="overlay" inkscape:label="Overlay" inkscape:groupmode="layer" transform="scale(1,-1)" /><g id="border" inkscape:label="Border" inkscape:groupmode="layer"><path id="path2170" d="m 0 80 69.282 -40 0 -80 -69.282 -40 -69.282 40 0 80 z" style="fill:none;stroke:#000000;stroke-width:0.3" /></g></g></svg>