<?xml version='1.0' encoding='UTF-8'?>
<svg xmlns:ns0="http://www.w3.org/2000/svg" xmlns:ns1="http://sodipodi.sourceforge.net/DTD/sodipodi-0.dtd" xmlns:ns2="http://www.inkscape.org/namespaces/inkscape" version="1.1" id="svg_root" xmlns="http://www.w3.org/2000/svg" xmlns:sodipodi="http://sodipodi.sourceforge.net/DTD/sodipodi-0.dtd" xmlns:inkscape="http://www.inkscape.org/namespaces/inkscape" xmlns:xlink="http://www.w3.org/1999/xlink" width="215.9mm" height="279.4mm" viewBox="0 0 215.9 279.4"><defs><clipPath id="clippath-1388"><path id="path1387" d="m 0 80 69.282 -40 0 -80 -69.282 -40 -69.282 40 0 80 z" /></clipPath><clipPath id="clippath-1390"><path id="path1389" d="m 0 80 69.282 -40 0 -80 -69.282 -40 -69.282 40 0 80 z" /></clipPath></defs><g id="layer" inkscape:label="Layer" inkscape:groupmode="layer" transform="translate(107.95 120) scale(1, -1)"><g id="background" inkscape:label="Tile Background" inkscape:groupmode="layer"><path id="path1314" d="m 0 80 69.282 -40 0 -80 -69.282 -40 -69.282 40 0 80 z" style="fill:#000000;stroke:none;stroke-width:0" /></g><g id="region-clip" inkscape:label="Region Clipped" inkscape:groupmode="layer" style="display:none"><g id="clip"><path id="clipregion-0" d="m 13.696 63.7221 -17.1519 -1.26093 -8.14359 10.8418 11.5995 6.69697 17.3205 -10 z" style="fill:#f0eaac;stroke:#000000;stroke-width:0.3" /><path id="clipregion-1" d="m 65.9725 20 -17.7287 13.9608 -1.79659 6.48794 5.51439 9.55121 17.3205 -10 0 -20 z" style="fill:#f0eaac;stroke:#000000;stroke-width:0.3" /><path id="clipregion-2" d="m 53.0499 -40.5294 12.5972 20.5294 3.63495 3.55271e-15 0 -20 -11.5995 -6.69697 z" style="fill:#f0eaac;stroke:#000000;stroke-width:0.3" /><path id="clipregion-3" d="m -10.4258 -70.2271 17.3658 0.527268 3.21334 -4.43805 -10.1534 -5.86207 -11.7133 6.76267 z" style="fill:#f0ce76;stroke:#000000;stroke-width:0.3" /><path id="clipregion-4" d="m -64.8455 -25.9423 9.97757 -14.5059 -2.70082 -6.3145 -11.7133 6.76267 0 13.5253 z" style="fill:#f0ce76;stroke:#000000;stroke-width:0.3" /><path id="clipregion-5" d="m -54.1893 39.0402 -8.26169 -11.7458 -6.83104 -0.819725 0 13.5253 10.1534 5.86207 z" style="fill:#f0ce76;stroke:#000000;stroke-width:0.3" /><path id="clipregion-6" d="m 46.4471 40.4488 -24.993 5.95235 -7.75812 17.321 3.62452 6.27785 34.641 -20 z" style="fill:#f0eaac;stroke:#000000;stroke-width:0.3" /><path id="clipregion-7" d="m 65.6471 -20 -14.5288 13.0063 14.8542 26.9937 3.30958 -3.55271e-15 0 -40 z" style="fill:#f0eaac;stroke:#000000;stroke-width:0.3" /><path id="clipregion-8" d="m 28.1149 -46.1174 5.66401 4.40629 19.271 1.1818 4.63267 -6.16761 -24.3634 -14.0662 z" style="fill:#f0eaac;stroke:#000000;stroke-width:0.3" /><path id="clipregion-9" d="m 6.94006 -69.6999 6.78106 20.4045 4.95365 4.20645 9.4401 -1.02854 5.20431 -14.6457 -23.1658 -13.3748 z" style="fill:#f0eaac;stroke:#000000;stroke-width:0.3" /><path id="clipregion-10" d="m -23.0337 -47.7666 5.37288 -4.30763 7.23507 -18.1529 -1.28751 -3.01018 -22.9277 13.2373 z" style="fill:#f0ce76;stroke:#000000;stroke-width:0.3" /><path id="clipregion-11" d="m -54.8679 -40.4482 20.8858 4.87757 9.57369 -5.81892 1.37469 -6.37713 -11.6073 -12.2334 -22.9277 13.2373 z" style="fill:#f0ce76;stroke:#000000;stroke-width:0.3" /><path id="clipregion-12" d="m -61.8455 -1.78477 6.33336 -8.69791 -9.33338 -15.4596 -4.43653 -0.532384 0 26.4747 z" style="fill:#f0ce76;stroke:#000000;stroke-width:0.3" /><path id="clipregion-13" d="m -62.451 27.2944 8.26152 -12.5022 -7.65601 -16.577 -7.43655 1.78477 0 26.4747 z" style="fill:#f0ce76;stroke:#000000;stroke-width:0.3" /><path id="clipregion-14" d="m -30.838 44.8147 -4.93918 -4.35025 -18.4121 -1.42429 -4.93933 6.82188 23.1658 13.3748 z" style="fill:#f0eaac;stroke:#000000;stroke-width:0.3" /><path id="clipregion-15" d="m -3.4559 62.4612 -14.4746 -18.7028 -12.9075 1.05633 -5.12486 14.4221 24.3634 14.0662 z" style="fill:#f0eaac;stroke:#000000;stroke-width:0.3" /><path id="clipregion-16" d="m 28.1149 -46.1174 -9.4401 1.02854 -11.0313 16.6456 5.57061 14.837 22.4505 2.12398 -1.88566 -30.2288 z" style="fill:#f0eaac;stroke:#000000;stroke-width:0.3" /><path id="clipregion-17" d="m 30.8478 12.292 -22.208 4.41345 -3.64601 6.31789 16.4603 23.3778 24.993 -5.95235 1.79659 -6.48794 z" style="fill:#f0eaac;stroke:#000000;stroke-width:0.3" /><path id="clipregion-18" d="m -62.451 27.2944 8.26169 11.7458 18.4121 1.42429 -0.914931 -25.161 -17.4974 -0.511277 z" style="fill:#f0ce76;stroke:#000000;stroke-width:0.3" /><path id="clipregion-19" d="m -35.7772 40.4645 4.93918 4.35025 12.9075 -1.05633 13.9633 -17.7137 -25.1858 -19.659 -7.53908 8.91779 z" style="fill:#f0ce76;stroke:#000000;stroke-width:0.3" /><path id="clipregion-20" d="m -54.1895 14.7922 17.4974 0.511277 7.53908 -8.91779 0.308427 -6.53443 -12.5202 -11.4712 -14.1474 1.13729 -6.33336 8.69791 z" style="fill:#e7a311;stroke:#000000;stroke-width:0.3" /><path id="clipregion-21" d="m -15.1971 -8.03875 19.9277 8.37293 8.48346 -13.9405 -5.57061 -14.837 -19.2932 0.465541 z" style="fill:#f0eaac;stroke:#000000;stroke-width:0.3" /><path id="clipregion-22" d="m -28.8446 -0.148731 -0.308427 6.53443 25.1858 19.659 8.96099 -3.02135 3.64601 -6.31789 -3.90916 -16.3713 -19.9277 -8.37293 z" style="fill:#f0ce76;stroke:#000000;stroke-width:0.3" /><path id="clipregion-23" d="m -41.3648 -11.62 12.5202 11.4712 13.6475 -7.89002 3.54739 -19.939 -12.7587 -13.4118 -9.57369 5.81892 z" style="fill:#f0ce76;stroke:#000000;stroke-width:0.3" /><path id="clipregion-24" d="m -55.5121 -10.4827 14.1474 -1.13729 7.38266 -23.9506 -20.8858 -4.87757 -9.97757 14.5059 z" style="fill:#f0ce76;stroke:#000000;stroke-width:0.3" /><path id="clipregion-25" d="m 51.1182 -6.99373 14.5288 -13.0063 -12.5972 -20.5294 -19.271 -1.1818 1.88566 30.2288 4.77385 4.80869 z" style="fill:#f0eaac;stroke:#000000;stroke-width:0.3" /><path id="clipregion-26" d="m -11.6497 -27.9777 19.2932 -0.465541 11.0313 -16.6456 -4.95365 -4.20645 -31.382 -2.77892 -5.37288 4.30763 -1.37469 6.37713 z" style="fill:#f0ce76;stroke:#000000;stroke-width:0.3" /><path id="clipregion-27" d="m 13.696 63.7221 7.75812 -17.321 -16.4603 -23.3778 -8.96099 3.02135 -13.9633 17.7137 14.4746 18.7028 z" style="fill:#f0eaac;stroke:#000000;stroke-width:0.3" /><path id="clipregion-28" d="m 40.4384 -6.67362 -4.77385 -4.80869 -22.4505 -2.12398 -8.48346 13.9405 3.90916 16.3713 22.208 -4.41345 z" style="fill:#f0eaac;stroke:#000000;stroke-width:0.3" /><path id="clipregion-29" d="m 40.4384 -6.67362 -9.59057 18.9656 17.3959 21.6688 17.7287 -13.9608 -14.8542 -26.9937 z" style="fill:#f0eaac;stroke:#000000;stroke-width:0.3" /><path id="clipregion-30" d="m -17.6608 -52.0743 31.382 2.77892 -6.78106 -20.4045 -17.3658 -0.527268 z" style="fill:#f0ce76;stroke:#000000;stroke-width:0.3" /></g></g><g id="region-rounded" inkscape:label="Region Rounded" inkscape:groupmode="layer"><g id="rounded"><path id="roundedregion-0" d="m 14.196 64.5882 c -0.35 -0.606218 -0.799193 -0.888021 -1.49731 -0.939343 l -15.1573 -1.1143 c -0.698116 -0.0513225 -1.17748 0.166552 -1.59789 0.726249 l -7.54301 10.0423 11.5995 6.69697 17.3205 -10 z" style="fill:#f0eaac;stroke:#000000;stroke-width:0.3" /><path id="roundedregion-1" d="m 66.9725 20 c -0.7 0 -1.23569 0.185602 -1.78565 0.618674 l -16.1574 12.7235 c -0.549953 0.433072 -0.865708 0.907794 -1.05252 1.58241 l -1.26285 4.56048 c -0.186808 0.674613 -0.116869 1.22354 0.233131 1.82976 l 5.01439 8.68518 17.3205 -10 0 -20 z" style="fill:#f0eaac;stroke:#000000;stroke-width:0.3" /><path id="roundedregion-2" d="m 53.6505 -41.3289 c -0.420404 0.559697 -0.443675 1.05527 -0.0775712 1.6519 l 11.5512 18.8247 c 0.366104 0.59663 0.823006 0.852329 1.52301 0.852329 l 2.63495 3.55271e-15 0 -20 -11.5995 -6.69697 z" style="fill:#f0eaac;stroke:#000000;stroke-width:0.3" /><path id="roundedregion-3" d="m -10.819 -71.1466 c 0.275279 0.6436 0.693117 0.928534 1.3928 0.949778 l 15.3668 0.466571 c 0.699678 0.0212439 1.17548 -0.212645 1.586 -0.77963 l 2.62688 -3.62807 -10.1534 -5.86207 -11.7133 6.76267 z" style="fill:#f0ce76;stroke:#000000;stroke-width:0.3" /><path id="roundedregion-4" d="m -65.8384 -26.0614 c 0.695014 0.0834017 1.16289 -0.128029 1.55959 -0.70477 l 8.84414 -12.8581 c 0.396699 -0.576741 0.448736 -1.09974 0.173457 -1.74334 l -2.30756 -5.39507 -11.7133 6.76267 0 13.5253 z" style="fill:#f0ce76;stroke:#000000;stroke-width:0.3" /><path id="roundedregion-5" d="m -54.7758 39.8502 c 0.410521 -0.566985 0.413865 -1.05536 0.0111463 -1.62791 l -7.11106 -10.1099 c -0.402719 -0.572553 -0.873176 -0.853677 -1.56819 -0.937079 l -5.83816 -0.70058 0 13.5253 10.1534 5.86207 z" style="fill:#f0ce76;stroke:#000000;stroke-width:0.3" /><path id="roundedregion-6" d="m 46.9471 41.3148 c -0.35 -0.606218 -0.791838 -0.796521 -1.47279 -0.634345 l -23.0474 5.48899 c -0.680954 0.162176 -1.09542 0.505471 -1.38156 1.14432 l -6.94058 15.4957 c -0.286141 0.638846 -0.258772 1.17244 0.0912278 1.77866 l 3.12452 5.41183 34.641 -20 z" style="fill:#f0eaac;stroke:#000000;stroke-width:0.3" /><path id="roundedregion-7" d="m 66.6471 -20 c -0.7 0 -1.22352 0.200096 -1.74507 0.666988 l -13.0387 11.6723 c -0.521548 0.466891 -0.600436 0.929821 -0.262959 1.5431 l 13.89 25.2415 c 0.337477 0.613278 0.78211 0.876111 1.48211 0.876111 l 2.30958 -3.55271e-15 0 -40 z" style="fill:#f0eaac;stroke:#000000;stroke-width:0.3" /><path id="roundedregion-8" d="m 28.4497 -47.0597 c -0.234385 0.659594 -0.0980488 1.12648 0.454453 1.5563 l 4.08543 3.17824 c 0.552502 0.429816 1.08873 0.632386 1.78741 0.675233 l 17.2747 1.05938 c 0.698687 0.0428474 1.1783 -0.17866 1.5987 -0.738356 l 4.03209 -5.36805 -24.3634 -14.0662 z" style="fill:#f0eaac;stroke:#000000;stroke-width:0.3" /><path id="roundedregion-9" d="m 7.52652 -70.5099 c -0.410521 0.566985 -0.491848 1.09467 -0.271087 1.75895 l 6.15032 18.5066 c 0.22076 0.664278 0.544048 1.14315 1.07763 1.59625 l 3.42914 2.91189 c 0.533578 0.453094 1.06049 0.614783 1.75637 0.538964 l 7.45187 -0.811913 c 0.695882 -0.0758193 1.09457 -0.390996 1.32895 -1.05059 l 4.86948 -13.7034 -23.1658 -13.3748 z" style="fill:#f0eaac;stroke:#000000;stroke-width:0.3" /><path id="roundedregion-10" d="m -23.722 -48.4921 c 0.48181 0.507798 0.922363 0.537769 1.46851 0.0999048 l 3.81246 -3.05659 c 0.546145 -0.437865 0.891279 -0.904202 1.15045 -1.55446 l 6.49459 -16.295 c 0.259168 -0.650255 0.252263 -1.20476 -0.0230156 -1.84837 l -0.894252 -2.09075 -22.9277 13.2373 z" style="fill:#f0ce76;stroke:#000000;stroke-width:0.3" /><path id="roundedregion-11" d="m -55.2612 -41.3676 c 0.275279 0.6436 0.685395 0.987654 1.36705 1.14685 l 18.9382 4.42274 c 0.681658 0.159191 1.23016 0.0715988 1.82833 -0.291974 l 7.86462 -4.78014 c 0.598176 -0.363573 0.917755 -0.812654 1.06526 -1.49694 l 0.953237 -4.42204 c 0.147507 -0.684282 0.00423468 -1.19517 -0.477576 -1.70297 l -10.919 -11.5079 -22.9277 13.2373 z" style="fill:#f0ce76;stroke:#000000;stroke-width:0.3" /><path id="roundedregion-12" d="m -62.8179 -1.5514 c 0.680671 -0.163361 1.14898 -0.475893 1.56102 -1.04177 l 5.15609 -7.08111 c 0.412044 -0.56588 0.433582 -1.06522 0.0717939 -1.66448 l -8.2997 -13.7474 c -0.361788 -0.599257 -0.814703 -0.891826 -1.50972 -0.975227 l -3.44366 -0.413239 0 26.4747 z" style="fill:#f0ce76;stroke:#000000;stroke-width:0.3" /><path id="roundedregion-13" d="m -63.4439 27.1752 c 0.695014 0.0834017 1.15827 -0.131145 1.54419 -0.715155 l 7.1589 -10.8336 c 0.385918 -0.58401 0.425524 -1.10666 0.132022 -1.74215 l -6.81744 -14.7613 c -0.293502 -0.635497 -0.711005 -0.837841 -1.39168 -0.67448 l -6.46416 1.5514 0 26.4747 z" style="fill:#f0ce76;stroke:#000000;stroke-width:0.3" /><path id="roundedregion-14" d="m -31.1728 45.757 c 0.234385 -0.659594 0.109707 -1.14056 -0.415594 -1.60323 l -3.43832 -3.02835 c -0.525301 -0.462665 -1.04954 -0.684088 -1.74745 -0.738076 l -16.4181 -1.27004 c -0.697915 -0.0539879 -1.17296 0.165868 -1.58348 0.732853 l -4.35287 6.0119 23.1658 13.3748 z" style="fill:#f0eaac;stroke:#000000;stroke-width:0.3" /><path id="roundedregion-15" d="m -4.05648 63.2608 c 0.420404 -0.559697 0.416965 -1.03681 -0.0114643 -1.59039 l -13.2505 -17.1212 c -0.428429 -0.553578 -0.911042 -0.766356 -1.60871 -0.70926 l -10.9141 0.893199 c -0.697668 0.0570962 -1.09712 0.364249 -1.3315 1.02384 l -4.79002 13.4798 24.3634 14.0662 z" style="fill:#f0eaac;stroke:#000000;stroke-width:0.3" /><path id="roundedregion-16" d="m 28.9042 -45.5034 c -0.552502 -0.429816 -1.08752 -0.581529 -1.78341 -0.505709 l -7.45187 0.811913 c -0.695882 0.0758193 -1.15984 0.358384 -1.54653 0.941881 l -9.92645 14.9785 c -0.386692 0.583498 -0.446968 1.11442 -0.20092 1.76976 l 4.86762 12.9646 c 0.246048 0.655332 0.650163 0.964445 1.34705 1.03038 l 20.4593 1.93561 c 0.696888 0.0659308 0.976877 -0.205231 0.933296 -0.903873 l -1.76114 -28.2327 c -0.0435809 -0.698642 -0.299045 -1.18227 -0.851547 -1.61208 z" style="fill:#f0eaac;stroke:#000000;stroke-width:0.3" /><path id="roundedregion-17" d="m 31.4739 13.0718 c -0.43822 -0.54586 -0.920274 -0.721324 -1.60685 -0.58488 l -20.2464 4.02361 c -0.686573 0.136444 -1.13077 0.454757 -1.48065 1.06104 l -2.64634 4.58565 c -0.349883 0.606285 -0.327119 1.11142 0.075878 1.68378 l 15.3089 21.7425 c 0.402997 0.572357 0.867548 0.748149 1.5485 0.585973 l 23.0474 -5.48899 c 0.680954 -0.162176 1.05285 -0.5208 1.23966 -1.19541 l 1.26285 -4.56048 c 0.186808 -0.674613 0.0790604 -1.19767 -0.35916 -1.74353 z" style="fill:#f0eaac;stroke:#000000;stroke-width:0.3" /><path id="roundedregion-18" d="m -61.8997 26.4601 c -0.385918 0.58401 -0.378717 1.07968 0.0240021 1.65223 l 7.11106 10.1099 c 0.402719 0.572553 0.874419 0.841071 1.57233 0.895059 l 16.4181 1.27004 c 0.697915 0.0539879 0.98612 -0.222676 0.960682 -0.922214 l -0.842253 -23.1623 c -0.0254373 -0.699538 -0.336211 -1.0081 -1.03591 -1.02855 l -15.4982 -0.452861 c -0.699701 -0.0204454 -1.16497 0.221082 -1.55088 0.805092 z" style="fill:#f0ce76;stroke:#000000;stroke-width:0.3" /><path id="roundedregion-19" d="m -35.8135 39.4651 c 0.0254373 0.699538 0.261468 1.19762 0.786768 1.66029 l 3.43832 3.02835 c 0.525301 0.462665 1.04943 0.636481 1.7471 0.579385 l 10.9141 -0.893199 c 0.697668 -0.0570962 1.18239 -0.317168 1.61573 -0.866905 l 12.7252 -16.143 c 0.433346 -0.549738 0.382579 -0.969931 -0.169223 -1.40065 l -23.6092 -18.4284 c -0.551802 -0.430714 -0.98197 -0.386204 -1.43389 0.148365 l -6.24787 7.39045 c -0.451924 0.53457 -0.634704 1.06347 -0.609267 1.76301 z" style="fill:#f0ce76;stroke:#000000;stroke-width:0.3" /><path id="roundedregion-20" d="m -54.6088 13.8844 c 0.293502 0.635497 0.71916 0.916615 1.41886 0.937061 l 15.4982 0.452861 c 0.699701 0.0204454 1.19326 -0.199894 1.64518 -0.734463 l 6.24787 -7.39045 c 0.451924 -0.53457 0.65975 -1.06334 0.692754 -1.76256 l 0.214131 -4.53665 c 0.0330035 -0.699222 -0.174048 -1.20155 -0.69017 -1.67443 l -11.0455 -10.1202 c -0.516122 -0.472882 -1.03635 -0.651507 -1.7341 -0.595416 l -12.1538 0.977029 c -0.697749 0.0560913 -1.17337 0.32265 -1.58542 0.88853 l -5.15609 7.08111 c -0.412044 0.56588 -0.462847 1.08076 -0.169345 1.71625 z" style="fill:#e7a311;stroke:#000000;stroke-width:0.3" /><path id="roundedregion-21" d="m -15.0219 -9.02329 c -0.122613 0.689178 0.101417 1.10075 0.746766 1.3719 l 18.0839 7.59821 c 0.64535 0.271153 1.07788 0.131085 1.44178 -0.466893 l 7.44375 -12.232 c 0.363899 -0.597978 0.414407 -1.13511 0.168359 -1.79044 l -4.86762 -12.9646 c -0.246048 -0.655332 -0.651409 -0.928952 -1.35121 -0.912066 l -17.2938 0.417295 c -0.699796 0.0168859 -1.05226 0.319485 -1.17487 1.00866 z" style="fill:#f0eaac;stroke:#000000;stroke-width:0.3" /><path id="roundedregion-22" d="m -27.9789 -0.649238 c -0.606013 0.350354 -0.879877 0.800173 -0.912881 1.49939 l -0.214131 4.53665 c -0.0330035 0.699222 0.189339 1.18348 0.741141 1.61419 l 23.6092 18.4284 c 0.551802 0.430714 1.07256 0.519457 1.73588 0.29581 l 7.06582 -2.38236 c 0.663311 -0.223647 1.09754 -0.579332 1.44742 -1.18562 l 2.64634 -4.58565 c 0.349883 -0.606285 0.430157 -1.15792 0.26758 -1.83878 l -3.44466 -14.426 c -0.162577 -0.680859 -0.508831 -1.08886 -1.15418 -1.36002 l -18.0839 -7.59821 c -0.64535 -0.271153 -1.18165 -0.23721 -1.78766 0.113145 z" style="fill:#f0ce76;stroke:#000000;stroke-width:0.3" /><path id="roundedregion-23" d="m -41.0702 -12.5756 c -0.206198 0.668941 -0.0733729 1.15829 0.44275 1.63118 l 11.0455 10.1202 c 0.516122 0.472882 0.997038 0.525394 1.60305 0.17504 l 11.916 -6.88901 c 0.606013 -0.350354 0.918281 -0.795868 1.04089 -1.48505 l 3.19706 -17.9699 c 0.122613 -0.689178 -0.0316121 -1.2019 -0.514084 -1.70907 l -11.3802 -11.9627 c -0.482472 -0.507169 -0.945607 -0.56871 -1.54378 -0.205137 l -7.86462 4.78014 c -0.598176 0.363573 -0.942908 0.806079 -1.14911 1.47502 z" style="fill:#f0ce76;stroke:#000000;stroke-width:0.3" /><path id="roundedregion-24" d="m -56.029 -11.3388 c 0.361788 0.599257 0.815875 0.832043 1.51362 0.775952 l 12.1538 -0.977029 c 0.697749 -0.0560913 1.08515 -0.36682 1.29135 -1.03576 l 6.79352 -22.0394 c 0.206198 -0.668941 0.00242893 -1.02386 -0.679229 -1.18305 l -18.9382 -4.42274 c -0.681658 -0.159191 -1.14381 0.0197587 -1.54051 0.596499 l -8.84414 12.8581 c -0.396699 0.576741 -0.411661 1.08074 -0.049873 1.68 z" style="fill:#f0ce76;stroke:#000000;stroke-width:0.3" /><path id="roundedregion-25" d="m 50.1187 -6.96377 c 0.699686 -0.0209718 1.22307 -0.230056 1.74462 -0.696948 l 13.0387 -11.6723 c 0.521548 -0.466891 0.588167 -0.922686 0.222063 -1.51932 l -11.5512 -18.8247 c -0.366104 -0.59663 -0.822443 -0.870692 -1.52113 -0.91354 l -17.2747 -1.05938 c -0.698687 -0.0428474 -0.979447 0.238207 -0.935866 0.93685 l 1.76114 28.2327 c 0.0435809 0.698642 0.273618 1.21096 0.76679 1.70773 l 3.36479 3.38934 c 0.493172 0.496771 1.0044 0.700685 1.70408 0.679713 z" style="fill:#f0eaac;stroke:#000000;stroke-width:0.3" /><path id="roundedregion-26" d="m -12.339 -28.7023 c 0.482472 0.507169 0.989159 0.717291 1.68895 0.700405 l 17.2938 -0.417295 c 0.699796 -0.0168859 1.16543 -0.274193 1.55213 -0.857691 l 9.92645 -14.9785 c 0.386692 -0.583498 0.32374 -1.02775 -0.209838 -1.48085 l -3.42914 -2.91189 c -0.533578 -0.453094 -1.06109 -0.673739 -1.75836 -0.735484 l -29.3898 -2.60251 c -0.697272 -0.0617445 -1.23016 0.0994499 -1.77631 0.537314 l -3.81246 3.05659 c -0.546145 0.437865 -0.843425 0.918784 -0.990932 1.60307 l -0.953237 4.42204 c -0.147507 0.684282 -0.00395107 1.1949 0.478521 1.70207 z" style="fill:#f0ce76;stroke:#000000;stroke-width:0.3" /><path id="roundedregion-27" d="m 12.6987 63.6488 c 0.698116 0.0513225 1.11994 -0.200473 1.40608 -0.839319 l 6.94058 -15.4957 c 0.286141 -0.638846 0.236059 -1.15793 -0.166938 -1.73029 l -15.3089 -21.7425 c -0.402997 -0.572357 -0.859987 -0.721805 -1.5233 -0.498158 l -7.06582 2.38236 c -0.663311 0.223647 -1.13331 0.555097 -1.56665 1.10483 l -12.7252 16.143 c -0.433346 0.549738 -0.435453 1.02259 -0.00702424 1.57617 l 13.2505 17.1212 c 0.428429 0.553578 0.911234 0.812821 1.60935 0.864144 z" style="fill:#f0eaac;stroke:#000000;stroke-width:0.3" /><path id="roundedregion-28" d="m 39.9871 -5.78123 c 0.315885 -0.624673 0.239906 -1.10529 -0.253266 -1.60206 l -3.36479 -3.38934 c -0.493172 -0.496771 -1.0032 -0.737929 -1.70009 -0.80386 l -20.4593 -1.93561 c -0.696888 -0.0659308 -1.15151 0.162089 -1.51541 0.760067 l -7.44375 12.232 c -0.363899 0.597978 -0.45018 1.14605 -0.287603 1.82691 l 3.44466 14.426 c 0.162577 0.680859 0.526498 0.914179 1.21307 0.777735 l 20.2464 -4.02361 c 0.686573 -0.136444 1.1162 -0.462637 1.43208 -1.08731 z" style="fill:#f0eaac;stroke:#000000;stroke-width:0.3" /><path id="roundedregion-29" d="m 41.438 -6.70358 c -0.699686 0.0209718 -1.13493 0.297677 -1.45082 0.92235 l -8.68804 17.1809 c -0.315885 0.624673 -0.263456 1.12633 0.174764 1.67219 l 16.1438 20.1092 c 0.43822 0.54586 0.861723 0.594198 1.41168 0.161126 l 16.1574 -12.7235 c 0.549953 -0.433072 0.641015 -0.881507 0.303538 -1.49479 l -13.89 -25.2415 c -0.337477 -0.613278 -0.781975 -0.867123 -1.48166 -0.846151 z" style="fill:#f0eaac;stroke:#000000;stroke-width:0.3" /><path id="roundedregion-30" d="m -17.2906 -53.0032 c -0.259168 0.650255 -0.0714094 0.955398 0.625862 1.01714 l 29.3898 2.60251 c 0.697272 0.0617445 0.901491 -0.196484 0.68073 -0.860762 l -6.15032 -18.5066 c -0.22076 -0.664278 -0.615234 -0.958073 -1.31491 -0.979317 l -15.3668 -0.466571 c -0.699678 -0.0212439 -1.11061 0.248332 -1.36978 0.898588 z" style="fill:#f0ce76;stroke:#000000;stroke-width:0.3" /></g></g><g id="region" inkscape:label="Region" inkscape:groupmode="layer" style="display:none"><path id="region-0" d="m 13.696 63.7221 -17.1519 -1.26093 -14.268 18.9954 10.7957 14.5434 19.245 0 8.3395 -20.2222 z" style="fill:#ffffff;stroke:#000000;stroke-width:0.3" /><path id="region-1" d="m 48.2437 33.9608 -1.79659 6.48794 8.85019 15.329 21.6827 2.88889 12.3168 -21.3333 -13.3432 -17.3333 -9.98118 3.55271e-15 z" style="fill:#ffffff;stroke:#000000;stroke-width:0.3" /><path id="region-2" d="m 53.0499 -40.5294 12.5972 20.5294 10.3065 3.55271e-15 13.3432 -17.3333 -9.6225 -16.6667 -15.1889 -1.75386 z" style="fill:#ffffff;stroke:#000000;stroke-width:0.3" /><path id="region-3" d="m -10.4258 -70.2271 -5.71513 -13.3619 9.21271 -12.4109 13.8564 0 9.6458 12.9944 -9.63394 13.3058 z" style="fill:#ffffff;stroke:#000000;stroke-width:0.3" /><path id="region-4" d="m -80.4607 -27.8161 -6.1418 -14.1839 6.9282 -12 18.1154 -2.09178 6.69104 15.6436 -9.97757 14.5059 z" style="fill:#ffffff;stroke:#000000;stroke-width:0.3" /><path id="region-5" d="m -62.451 27.2944 8.26169 11.7458 -11.9621 16.5213 -13.5229 -1.56149 -6.9282 -12 7.24615 -16.7343 z" style="fill:#ffffff;stroke:#000000;stroke-width:0.3" /><path id="region-6" d="m 13.696 63.7221 7.75812 -17.321 24.993 -5.95235 8.85019 15.329 -10.5848 21.6667 -24.0563 -1.66667 z" style="fill:#ffffff;stroke:#000000;stroke-width:0.3" /><path id="region-7" d="m 51.1182 -6.99373 14.5288 -13.0063 10.3065 3.55271e-15 13.4715 20 -13.4715 20 -9.98118 3.55271e-15 z" style="fill:#ffffff;stroke:#000000;stroke-width:0.3" /><path id="region-8" d="m 28.1149 -46.1174 8.55181 -24.0661 19.8242 0.338407 7.99453 14.0912 -11.4355 15.2245 -19.271 -1.1818 z" style="fill:#ffffff;stroke:#000000;stroke-width:0.3" /><path id="region-9" d="m 28.1149 -46.1174 -9.4401 1.02854 -4.95365 -4.20645 -6.78106 -20.4045 9.63394 -13.3058 13.833 2.3392 6.25969 10.4829 z" style="fill:#ffffff;stroke:#000000;stroke-width:0.3" /><path id="region-10" d="m -17.6608 -52.0743 -5.37288 4.30763 -19.0143 -20.0399 9.80874 -16.0336 16.0984 0.250983 5.71513 13.3619 z" style="fill:#ffffff;stroke:#000000;stroke-width:0.3" /><path id="region-11" d="m -54.8679 -40.4482 20.8858 4.87757 9.57369 -5.81892 1.37469 -6.37713 -19.0143 -20.0399 -12.4271 1.45291 -7.08389 10.2618 z" style="fill:#ffffff;stroke:#000000;stroke-width:0.3" /><path id="region-12" d="m -61.8455 -1.78477 6.33336 -8.69791 -9.33338 -15.4596 -15.6152 -1.87383 -8.26655 13.8161 8.9811 16.5114 z" style="fill:#ffffff;stroke:#000000;stroke-width:0.3" /><path id="region-13" d="m -62.451 27.2944 -16.9054 -2.02865 -5.34506 -11.2657 4.95527 -11.4886 17.9007 -4.29617 7.65601 16.577 z" style="fill:#ffffff;stroke:#000000;stroke-width:0.3" /><path id="region-14" d="m -66.1514 55.5615 9.9995 13.6965 17.0053 -1.06156 8.30862 -23.3817 -4.93918 -4.35025 -18.4121 -1.42429 z" style="fill:#ffffff;stroke:#000000;stroke-width:0.3" /><path id="region-15" d="m -3.4559 62.4612 -14.4746 -18.7028 -12.9075 1.05633 -8.30862 23.3817 8.91793 12.1612 12.5048 1.09901 z" style="fill:#ffffff;stroke:#000000;stroke-width:0.3" /><path id="region-16" d="m 28.1149 -46.1174 -9.4401 1.02854 -11.0313 16.6456 5.57061 14.837 22.4505 2.12398 -1.88566 -30.2288 z" style="fill:#ffffff;stroke:#000000;stroke-width:0.3" /><path id="region-17" d="m 30.8478 12.292 -22.208 4.41345 -3.64601 6.31789 16.4603 23.3778 24.993 -5.95235 1.79659 -6.48794 z" style="fill:#ffffff;stroke:#000000;stroke-width:0.3" /><path id="region-18" d="m -62.451 27.2944 8.26169 11.7458 18.4121 1.42429 -0.914931 -25.161 -17.4974 -0.511277 z" style="fill:#ffffff;stroke:#000000;stroke-width:0.3" /><path id="region-19" d="m -36.6921 15.3035 7.53908 -8.91779 25.1858 19.659 -13.9633 17.7137 -12.9075 1.05633 -4.93918 -4.35025 z" style="fill:#ffffff;stroke:#000000;stroke-width:0.3" /><path id="region-20" d="m -54.1895 14.7922 17.4974 0.511277 7.53908 -8.91779 0.308427 -6.53443 -12.5202 -11.4712 -14.1474 1.13729 -6.33336 8.69791 z" style="fill:#ffffff;stroke:#000000;stroke-width:0.3" /><path id="region-21" d="m -15.1971 -8.03875 19.9277 8.37293 8.48346 -13.9405 -5.57061 -14.837 -19.2932 0.465541 z" style="fill:#ffffff;stroke:#000000;stroke-width:0.3" /><path id="region-22" d="m -28.8446 -0.148731 -0.308427 6.53443 25.1858 19.659 8.96099 -3.02135 3.64601 -6.31789 -3.90916 -16.3713 -19.9277 -8.37293 z" style="fill:#ffffff;stroke:#000000;stroke-width:0.3" /><path id="region-23" d="m -41.3648 -11.62 12.5202 11.4712 13.6475 -7.89002 3.54739 -19.939 -12.7587 -13.4118 -9.57369 5.81892 z" style="fill:#ffffff;stroke:#000000;stroke-width:0.3" /><path id="region-24" d="m -64.8455 -25.9423 9.97757 -14.5059 20.8858 4.87757 -7.38266 23.9506 -14.1474 1.13729 z" style="fill:#ffffff;stroke:#000000;stroke-width:0.3" /><path id="region-25" d="m 40.4384 -6.67362 -4.77385 -4.80869 -1.88566 -30.2288 19.271 1.1818 12.5972 20.5294 -14.5288 13.0063 z" style="fill:#ffffff;stroke:#000000;stroke-width:0.3" /><path id="region-26" d="m -11.6497 -27.9777 19.2932 -0.465541 11.0313 -16.6456 -4.95365 -4.20645 -31.382 -2.77892 -5.37288 4.30763 -1.37469 6.37713 z" style="fill:#ffffff;stroke:#000000;stroke-width:0.3" /><path id="region-27" d="m 13.696 63.7221 7.75812 -17.321 -16.4603 -23.3778 -8.96099 3.02135 -13.9633 17.7137 14.4746 18.7028 z" style="fill:#ffffff;stroke:#000000;stroke-width:0.3" /><path id="region-28" d="m 40.4384 -6.67362 -4.77385 -4.80869 -22.4505 -2.12398 -8.48346 13.9405 3.90916 16.3713 22.208 -4.41345 z" style="fill:#ffffff;stroke:#000000;stroke-width:0.3" /><path id="region-29" d="m 40.4384 -6.67362 -9.59057 18.9656 17.3959 21.6688 17.7287 -13.9608 -14.8542 -26.9937 z" style="fill:#ffffff;stroke:#000000;stroke-width:0.3" /><path id="region-30" d="m -17.6608 -52.0743 31.382 2.77892 -6.78106 -20.4045 -17.3658 -0.527268 z" style="fill:#ffffff;stroke:#000000;stroke-width:0.3" /></g><g id="seeds" inkscape:label="Seeds" inkscape:groupmode="layer" style="display:none"><circle id="seed-0" cx="0.0" cy="80.0" r="1.0" style="fill:#000000;stroke:none;stroke-width:0" /><circle id="seed-1" cx="69.28203230275508" cy="40.0" r="1.0" style="fill:#000000;stroke:none;stroke-width:0" /><circle id="seed-2" cx="69.28203230275508" cy="-40.0" r="1.0" style="fill:#000000;stroke:none;stroke-width:0" /><circle id="seed-3" cx="0.0" cy="-80.0" r="1.0" style="fill:#000000;stroke:none;stroke-width:0" /><circle id="seed-4" cx="-69.28203230275508" cy="-40.0" r="1.0" style="fill:#000000;stroke:none;stroke-width:0" /><circle id="seed-5" cx="-69.28203230275508" cy="40.0" r="1.0" style="fill:#000000;stroke:none;stroke-width:0" /><circle id="seed-6" cx="34.64101615137754" cy="60.0" r="1.0" style="fill:#000000;stroke:none;stroke-width:0" /><circle id="seed-7" cx="69.28203230275508" cy="0.0" r="1.0" style="fill:#000000;stroke:none;stroke-width:0" /><circle id="seed-8" cx="48.0189616428459" cy="-55.971281292110206" r="1.0" style="fill:#000000;stroke:none;stroke-width:0" /><circle id="seed-9" cx="18.891789367798975" cy="-66.32153903091735" r="1.0" style="fill:#000000;stroke:none;stroke-width:0" /><circle id="seed-10" cx="-24.694010767585027" cy="-69.43794795877687" r="1.0" style="fill:#000000;stroke:none;stroke-width:0" /><circle id="seed-11" cx="-44.58802153517005" cy="-50.56205204122313" r="1.0" style="fill:#000000;stroke:none;stroke-width:0" /><circle id="seed-12" cx="-72.48203230275509" cy="-13.333333333333336" r="1.0" style="fill:#000000;stroke:none;stroke-width:0" /><circle id="seed-13" cx="-66.08203230275508" cy="13.333333333333329" r="1.0" style="fill:#000000;stroke:none;stroke-width:0" /><circle id="seed-14" cx="-50.390242934956106" cy="53.67846096908266" r="1.0" style="fill:#000000;stroke:none;stroke-width:0" /><circle id="seed-15" cx="-21.263070659909182" cy="64.0287187078898" r="1.0" style="fill:#000000;stroke:none;stroke-width:0" /><circle id="seed-16" cx="23.459186955716486" cy="-24.401204912067698" r="1.0" style="fill:#000000;stroke:none;stroke-width:0" /><circle id="seed-17" cx="27.095641594138762" cy="28.318090430546444" r="1.0" style="fill:#000000;stroke:none;stroke-width:0" /><circle id="seed-18" cx="-48.18419703555028" cy="25.160337153556213" r="1.0" style="fill:#000000;stroke:none;stroke-width:0" /><circle id="seed-19" cx="-24.514444929174598" cy="24.29963278756001" r="1.0" style="fill:#000000;stroke:none;stroke-width:0" /><circle id="seed-20" cx="-47.589042059573934" cy="4.792416203175565" r="1.0" style="fill:#000000;stroke:none;stroke-width:0" /><circle id="seed-21" cx="-1.6039430294445367" cy="-14.991138595196432" r="1.0" style="fill:#000000;stroke:none;stroke-width:0" /><circle id="seed-22" cx="-10.648885267516816" cy="6.536002365428397" r="1.0" style="fill:#000000;stroke:none;stroke-width:0" /><circle id="seed-23" cx="-25.55822404584609" cy="-19.252897703309344" r="1.0" style="fill:#000000;stroke:none;stroke-width:0" /><circle id="seed-24" cx="-50.13091584664148" cy="-26.827305639663898" r="1.0" style="fill:#000000;stroke:none;stroke-width:0" /><circle id="seed-25" cx="46.169788527178966" cy="-25.817879827987056" r="1.0" style="fill:#000000;stroke:none;stroke-width:0" /><circle id="seed-26" cx="-2.2419966032625274" cy="-41.43371933930717" r="1.0" style="fill:#000000;stroke:none;stroke-width:0" /><circle id="seed-27" cx="2.527735518289838" cy="45.61637885286196" r="1.0" style="fill:#000000;stroke:none;stroke-width:0" /><circle id="seed-28" cx="21.252976665858206" cy="-1.0815786671141807" r="1.0" style="fill:#000000;stroke:none;stroke-width:0" /><circle id="seed-29" cx="47.30610006319534" cy="12.093000087168805" r="1.0" style="fill:#000000;stroke:none;stroke-width:0" /><circle id="seed-30" cx="-0.6121115225382133" cy="-59.83978225930966" r="1.0" style="fill:#000000;stroke:none;stroke-width:0" /></g><g id="seed_exclusion" inkscape:label="Seed Exclusion" inkscape:groupmode="layer" style="display:none"><circle id="seed-ex-0" cx="0.0" cy="80.0" r="24.0" style="fill:#800000;stroke:none;stroke-width:0;fill-opacity:0.15" /><circle id="seed-ex-1" cx="69.28203230275508" cy="40.0" r="24.0" style="fill:#800000;stroke:none;stroke-width:0;fill-opacity:0.15" /><circle id="seed-ex-2" cx="69.28203230275508" cy="-40.0" r="24.0" style="fill:#800000;stroke:none;stroke-width:0;fill-opacity:0.15" /><circle id="seed-ex-3" cx="0.0" cy="-80.0" r="19.2" style="fill:#800000;stroke:none;stroke-width:0;fill-opacity:0.15" /><circle id="seed-ex-4" cx="-69.28203230275508" cy="-40.0" r="19.2" style="fill:#800000;stroke:none;stroke-width:0;fill-opacity:0.15" /><circle id="seed-ex-5" cx="-69.28203230275508" cy="40.0" r="19.2" style="fill:#800000;stroke:none;stroke-width:0;fill-opacity:0.15" /><circle id="seed-ex-6" cx="34.64101615137754" cy="60.0" r="24.0" style="fill:#800000;stroke:none;stroke-width:0;fill-opacity:0.15" /><circle id="seed-ex-7" cx="69.28203230275508" cy="0.0" r="24.0" style="fill:#800000;stroke:none;stroke-width:0;fill-opacity:0.15" /><circle id="seed-ex-8" cx="48.0189616428459" cy="-55.971281292110206" r="22.416" style="fill:#800000;stroke:none;stroke-width:0;fill-opacity:0.15" /><circle id="seed-ex-9" cx="18.891789367798975" cy="-66.32153903091735" r="20.592" style="fill:#800000;stroke:none;stroke-width:0;fill-opacity:0.15" /><circle id="seed-ex-10" cx="-24.694010767585027" cy="-69.43794795877687" r="19.08914874831559" style="fill:#800000;stroke:none;stroke-width:0;fill-opacity:0.15" /><circle id="seed-ex-11" cx="-44.58802153517005" cy="-50.56205204122313" r="19.310851251684404" style="fill:#800000;stroke:none;stroke-width:0;fill-opacity:0.15" /><circle id="seed-ex-12" cx="-72.48203230275509" cy="-13.333333333333336" r="19.08914874831559" style="fill:#800000;stroke:none;stroke-width:0;fill-opacity:0.15" /><circle id="seed-ex-13" cx="-66.08203230275508" cy="13.333333333333329" r="19.310851251684408" style="fill:#800000;stroke:none;stroke-width:0;fill-opacity:0.15" /><circle id="seed-ex-14" cx="-50.390242934956106" cy="53.67846096908266" r="20.592" style="fill:#800000;stroke:none;stroke-width:0;fill-opacity:0.15" /><circle id="seed-ex-15" cx="-21.263070659909182" cy="64.0287187078898" r="22.415999999999997" style="fill:#800000;stroke:none;stroke-width:0;fill-opacity:0.15" /><circle id="seed-ex-16" cx="23.459186955716486" cy="-24.401204912067698" r="22.086938963984707" style="fill:#800000;stroke:none;stroke-width:0;fill-opacity:0.15" /><circle id="seed-ex-17" cx="27.095641594138762" cy="28.318090430546444" r="22.91885299196364" style="fill:#800000;stroke:none;stroke-width:0;fill-opacity:0.15" /><circle id="seed-ex-18" cx="-48.18419703555028" cy="25.160337153556213" r="19.930850452250343" style="fill:#800000;stroke:none;stroke-width:0;fill-opacity:0.15" /><circle id="seed-ex-19" cx="-24.514444929174598" cy="24.29963278756001" r="21.05518105952641" style="fill:#800000;stroke:none;stroke-width:0;fill-opacity:0.15" /><circle id="seed-ex-20" cx="-47.589042059573934" cy="4.792416203175565" r="19.951467225385713" style="fill:#800000;stroke:none;stroke-width:0;fill-opacity:0.15" /><circle id="seed-ex-21" cx="-1.6039430294445367" cy="-14.991138595196432" r="21.12248473394967" style="fill:#800000;stroke:none;stroke-width:0;fill-opacity:0.15" /><circle id="seed-ex-22" cx="-10.648885267516816" cy="6.536002365428397" r="21.242747761143523" style="fill:#800000;stroke:none;stroke-width:0;fill-opacity:0.15" /><circle id="seed-ex-23" cx="-25.55822404584609" cy="-19.252897703309344" r="20.57973164291438" style="fill:#800000;stroke:none;stroke-width:0;fill-opacity:0.15" /><circle id="seed-ex-24" cx="-50.13091584664148" cy="-26.827305639663898" r="19.863414134473146" style="fill:#800000;stroke:none;stroke-width:0;fill-opacity:0.15" /><circle id="seed-ex-25" cx="46.169788527178966" cy="-25.817879827987056" r="23.19936839007569" style="fill:#800000;stroke:none;stroke-width:0;fill-opacity:0.15" /><circle id="seed-ex-26" cx="-2.2419966032625274" cy="-41.43371933930717" r="20.31815589954831" style="fill:#800000;stroke:none;stroke-width:0;fill-opacity:0.15" /><circle id="seed-ex-27" cx="2.527735518289838" cy="45.61637885286196" r="23.012273029043605" style="fill:#800000;stroke:none;stroke-width:0;fill-opacity:0.15" /><circle id="seed-ex-28" cx="21.252976665858206" cy="-1.0815786671141807" r="22.336224707946844" style="fill:#800000;stroke:none;stroke-width:0;fill-opacity:0.15" /><circle id="seed-ex-29" cx="47.30610006319534" cy="12.093000087168805" r="23.238731376347832" style="fill:#800000;stroke:none;stroke-width:0;fill-opacity:0.15" /><circle id="seed-ex-30" cx="-0.6121115225382133" cy="-59.83978225930966" r="19.794204449651364" style="fill:#800000;stroke:none;stroke-width:0;fill-opacity:0.15" /></g><g id="margin_exclusion" inkscape:label="Margin Exclusion" inkscape:groupmode="layer" style="display:none"><circle id="circle1315" cx="17.32050807568877" cy="70.0" r="22.0" style="fill:#000080;stroke:none;stroke-width:0;fill-opacity:0.15" /><circle id="circle1316" cx="51.96152422706631" cy="50.0" r="22.0" style="fill:#000080;stroke:none;stroke-width:0;fill-opacity:0.15" /><circle id="circle1317" cx="69.28203230275508" cy="20.0" r="22.0" style="fill:#000080;stroke:none;stroke-width:0;fill-opacity:0.15" /><circle id="circle1318" cx="69.28203230275508" cy="-20.0" r="22.0" style="fill:#000080;stroke:none;stroke-width:0;fill-opacity:0.15" /><circle id="circle1319" cx="57.682540530854425" cy="-46.696969696969695" r="14.626277721963305" style="fill:#000080;stroke:none;stroke-width:0;fill-opacity:0.15" /><circle id="circle1320" cx="33.31918790349603" cy="-60.76315789473684" r="17.001317595998255" style="fill:#000080;stroke:none;stroke-width:0;fill-opacity:0.15" /><circle id="circle1321" cx="10.153401285748608" cy="-74.13793103448275" r="12.828094168659659" style="fill:#000080;stroke:none;stroke-width:0;fill-opacity:0.15" /><circle id="circle1322" cx="-11.713282261319124" cy="-73.23733333333334" r="14.77188921942996" style="fill:#000080;stroke:none;stroke-width:0;fill-opacity:0.15" /><circle id="circle1323" cx="-34.64101615137754" cy="-60.0" r="15.08315322176073" style="fill:#000080;stroke:none;stroke-width:0;fill-opacity:0.15" /><circle id="circle1324" cx="-57.56875004143595" cy="-46.762666666666675" r="14.771889219429964" style="fill:#000080;stroke:none;stroke-width:0;fill-opacity:0.15" /><circle id="circle1325" cx="-69.28203230275508" cy="-26.474666666666668" r="14.77188921942996" style="fill:#000080;stroke:none;stroke-width:0;fill-opacity:0.15" /><circle id="circle1326" cx="-69.28203230275508" cy="0.0" r="15.083153221760732" style="fill:#000080;stroke:none;stroke-width:0;fill-opacity:0.15" /><circle id="circle1327" cx="-69.28203230275508" cy="26.47466666666665" r="14.771889219429964" style="fill:#000080;stroke:none;stroke-width:0;fill-opacity:0.15" /><circle id="circle1328" cx="-59.12863101700649" cy="45.862068965517246" r="12.828094168659664" style="fill:#000080;stroke:none;stroke-width:0;fill-opacity:0.15" /><circle id="circle1329" cx="-35.962844399259055" cy="59.23684210526316" r="17.001317595998252" style="fill:#000080;stroke:none;stroke-width:0;fill-opacity:0.15" /><circle id="circle1330" cx="-11.59949177190066" cy="73.30303030303031" r="14.626277721963305" style="fill:#000080;stroke:none;stroke-width:0;fill-opacity:0.15" /></g><g id="circles" inkscape:label="Inscribed Circles" inkscape:groupmode="layer" style="display:none"><circle id="incircle-0" cx="0.0" cy="80.0" r="13.296616110875734" style="fill:#008000;stroke:none;stroke-width:0;fill-opacity:0.15" /><circle id="incircle-ctr-0" cx="0.0" cy="80.0" r="0.5" style="fill:#000000;stroke:none;stroke-width:0" /><circle id="incircle-1" cx="69.28203230275508" cy="40.0" r="17.760505637034115" style="fill:#008000;stroke:none;stroke-width:0;fill-opacity:0.15" /><circle id="incircle-ctr-1" cx="69.28203230275508" cy="40.0" r="0.5" style="fill:#000000;stroke:none;stroke-width:0" /><circle id="incircle-2" cx="69.28203230275508" cy="-40.0" r="13.296616110875725" style="fill:#008000;stroke:none;stroke-width:0;fill-opacity:0.15" /><circle id="incircle-ctr-2" cx="69.28203230275508" cy="-40.0" r="0.5" style="fill:#000000;stroke:none;stroke-width:0" /><circle id="incircle-3" cx="0.0" cy="-80.0" r="10.084754085599583" style="fill:#008000;stroke:none;stroke-width:0;fill-opacity:0.15" /><circle id="incircle-ctr-3" cx="0.0" cy="-80.0" r="0.5" style="fill:#000000;stroke:none;stroke-width:0" /><circle id="incircle-4" cx="-69.28203230275508" cy="-40.0" r="11.622017232675846" style="fill:#008000;stroke:none;stroke-width:0;fill-opacity:0.15" /><circle id="incircle-ctr-4" cx="-69.28203230275508" cy="-40.0" r="0.5" style="fill:#000000;stroke:none;stroke-width:0" /><circle id="incircle-5" cx="-69.28203230275508" cy="40.0" r="11.661903789690609" style="fill:#008000;stroke:none;stroke-width:0;fill-opacity:0.15" /><circle id="incircle-ctr-5" cx="-69.28203230275508" cy="40.0" r="0.5" style="fill:#000000;stroke:none;stroke-width:0" /><circle id="incircle-6" cx="34.64101615137754" cy="60.0" r="16.28401110887655" style="fill:#008000;stroke:none;stroke-width:0;fill-opacity:0.15" /><circle id="incircle-ctr-6" cx="34.64101615137754" cy="60.0" r="0.5" style="fill:#000000;stroke:none;stroke-width:0" /><circle id="incircle-7" cx="69.28203230275508" cy="0.0" r="12.541752757350007" style="fill:#008000;stroke:none;stroke-width:0;fill-opacity:0.15" /><circle id="incircle-ctr-7" cx="69.28203230275508" cy="0.0" r="0.5" style="fill:#000000;stroke:none;stroke-width:0" /><circle id="incircle-8" cx="45.50086421717523" cy="-53.73006379585327" r="12.71387548681796" style="fill:#008000;stroke:none;stroke-width:0;fill-opacity:0.15" /><circle id="incircle-ctr-8" cx="45.50086421717523" cy="-53.73006379585327" r="0.5" style="fill:#000000;stroke:none;stroke-width:0" /><circle id="incircle-9" cx="21.73629459462231" cy="-67.4505444646098" r="13.153463290938609" style="fill:#008000;stroke:none;stroke-width:0;fill-opacity:0.15" /><circle id="incircle-ctr-9" cx="21.73629459462231" cy="-67.4505444646098" r="0.5" style="fill:#000000;stroke:none;stroke-width:0" /><circle id="incircle-10" cx="-23.177149206348332" cy="-66.61866666666667" r="10.509207368721297" style="fill:#008000;stroke:none;stroke-width:0;fill-opacity:0.15" /><circle id="incircle-ctr-10" cx="-23.177149206348332" cy="-66.61866666666667" r="0.5" style="fill:#000000;stroke:none;stroke-width:0" /><circle id="incircle-11" cx="-46.10488309640675" cy="-53.38133333333333" r="12.871814845416772" style="fill:#008000;stroke:none;stroke-width:0;fill-opacity:0.15" /><circle id="incircle-ctr-11" cx="-46.10488309640675" cy="-53.38133333333333" r="0.5" style="fill:#000000;stroke:none;stroke-width:0" /><circle id="incircle-12" cx="-69.28203230275508" cy="-13.237333333333334" r="10.364460643868625" style="fill:#008000;stroke:none;stroke-width:0;fill-opacity:0.15" /><circle id="incircle-ctr-12" cx="-69.28203230275508" cy="-13.237333333333334" r="0.5" style="fill:#000000;stroke:none;stroke-width:0" /><circle id="incircle-13" cx="-69.28203230275508" cy="13.237333333333332" r="12.871814845416765" style="fill:#008000;stroke:none;stroke-width:0;fill-opacity:0.15" /><circle id="incircle-ctr-13" cx="-69.28203230275508" cy="13.237333333333332" r="0.5" style="fill:#000000;stroke:none;stroke-width:0" /><circle id="incircle-14" cx="-47.545737708132776" cy="52.5494555353902" r="12.956634460892396" style="fill:#008000;stroke:none;stroke-width:0;fill-opacity:0.15" /><circle id="incircle-ctr-14" cx="-47.545737708132776" cy="52.5494555353902" r="0.5" style="fill:#000000;stroke:none;stroke-width:0" /><circle id="incircle-15" cx="-23.78116808557986" cy="66.26993620414673" r="13.833437634388082" style="fill:#008000;stroke:none;stroke-width:0;fill-opacity:0.15" /><circle id="incircle-ctr-15" cx="-23.78116808557986" cy="66.26993620414673" r="0.5" style="fill:#000000;stroke:none;stroke-width:0" /><circle id="incircle-16" cx="21.807374584987862" cy="-27.158600086884192" r="12.516237018023787" style="fill:#008000;stroke:none;stroke-width:0;fill-opacity:0.15" /><circle id="incircle-ctr-16" cx="21.807374584987862" cy="-27.158600086884192" r="0.5" style="fill:#000000;stroke:none;stroke-width:0" /><circle id="incircle-17" cx="27.136156435671296" cy="30.62620259489769" r="13.727743931319447" style="fill:#008000;stroke:none;stroke-width:0;fill-opacity:0.15" /><circle id="incircle-ctr-17" cx="27.136156435671296" cy="30.62620259489769" r="0.5" style="fill:#000000;stroke:none;stroke-width:0" /><circle id="incircle-18" cx="-48.095622343774345" cy="27.10522636396575" r="11.824857129257257" style="fill:#008000;stroke:none;stroke-width:0;fill-opacity:0.15" /><circle id="incircle-ctr-18" cx="-48.095622343774345" cy="27.10522636396575" r="0.5" style="fill:#000000;stroke:none;stroke-width:0" /><circle id="incircle-19" cx="-22.719668577367763" cy="28.250500063435375" r="13.277300072121978" style="fill:#008000;stroke:none;stroke-width:0;fill-opacity:0.15" /><circle id="incircle-ctr-19" cx="-22.719668577367763" cy="28.250500063435375" r="0.5" style="fill:#000000;stroke:none;stroke-width:0" /><circle id="incircle-20" cx="-45.70036916989954" cy="1.901633235923546" r="12.898623701653964" style="fill:#008000;stroke:none;stroke-width:0;fill-opacity:0.15" /><circle id="incircle-ctr-20" cx="-45.70036916989954" cy="1.901633235923546" r="0.5" style="fill:#000000;stroke:none;stroke-width:0" /><circle id="incircle-21" cx="-0.9542513192519038" cy="-15.678130113208132" r="12.536008968065127" style="fill:#008000;stroke:none;stroke-width:0;fill-opacity:0.15" /><circle id="incircle-ctr-21" cx="-0.9542513192519038" cy="-15.678130113208132" r="0.5" style="fill:#000000;stroke:none;stroke-width:0" /><circle id="incircle-22" cx="-6.086531696171205" cy="8.896488934261932" r="12.083985743514164" style="fill:#008000;stroke:none;stroke-width:0;fill-opacity:0.15" /><circle id="incircle-ctr-22" cx="-6.086531696171205" cy="8.896488934261932" r="0.5" style="fill:#000000;stroke:none;stroke-width:0" /><circle id="incircle-23" cx="-26.539716166841806" cy="-16.49916498158737" r="12.649188179510846" style="fill:#008000;stroke:none;stroke-width:0;fill-opacity:0.15" /><circle id="incircle-ctr-23" cx="-26.539716166841806" cy="-16.49916498158737" r="0.5" style="fill:#000000;stroke:none;stroke-width:0" /><circle id="incircle-24" cx="-50.02278142572041" cy="-25.488984208503283" r="12.35923269041415" style="fill:#008000;stroke:none;stroke-width:0;fill-opacity:0.15" /><circle id="incircle-ctr-24" cx="-50.02278142572041" cy="-25.488984208503283" r="0.5" style="fill:#000000;stroke:none;stroke-width:0" /><circle id="incircle-25" cx="47.916725252523655" cy="-22.511420788205058" r="12.91506497707766" style="fill:#008000;stroke:none;stroke-width:0;fill-opacity:0.15" /><circle id="incircle-ctr-25" cx="47.916725252523655" cy="-22.511420788205058" r="0.5" style="fill:#000000;stroke:none;stroke-width:0" /><circle id="incircle-26" cx="-6.781662320941539" cy="-39.454751984375136" r="11.356256596101199" style="fill:#008000;stroke:none;stroke-width:0;fill-opacity:0.15" /><circle id="incircle-ctr-26" cx="-6.781662320941539" cy="-39.454751984375136" r="0.5" style="fill:#000000;stroke:none;stroke-width:0" /><circle id="incircle-27" cx="1.2082638635315543" cy="43.83678461339817" r="15.077760835955845" style="fill:#008000;stroke:none;stroke-width:0;fill-opacity:0.15" /><circle id="incircle-ctr-27" cx="1.2082638635315543" cy="43.83678461339817" r="0.5" style="fill:#000000;stroke:none;stroke-width:0" /><circle id="incircle-28" cx="20.646664074585246" cy="0.7263383507217167" r="13.332248539812223" style="fill:#008000;stroke:none;stroke-width:0;fill-opacity:0.15" /><circle id="incircle-ctr-28" cx="20.646664074585246" cy="0.7263383507217167" r="0.5" style="fill:#000000;stroke:none;stroke-width:0" /><circle id="incircle-29" cx="46.014499836334494" cy="11.350436276506521" r="12.416420345754327" style="fill:#008000;stroke:none;stroke-width:0;fill-opacity:0.15" /><circle id="incircle-ctr-29" cx="46.014499836334494" cy="11.350436276506521" r="0.5" style="fill:#000000;stroke:none;stroke-width:0" /><circle id="incircle-30" cx="-4.163339742488491" cy="-60.35133087109982" r="9.435356936502126" style="fill:#008000;stroke:none;stroke-width:0;fill-opacity:0.15" /><circle id="incircle-ctr-30" cx="-4.163339742488491" cy="-60.35133087109982" r="0.5" style="fill:#000000;stroke:none;stroke-width:0" /></g><g id="tile-id" inkscape:label="Tile Id" inkscape:groupmode="layer" transform="scale(1,-1)"><ns0:text xml:space="preserve" style="font-style:normal;font-weight:normal;font-size:4.23333px;line-height:1.25;font-family:sans-serif;text-align:center;text-anchor:middle;fill:#dddddd;fill-opacity:1;stroke:#565656;stroke-width:0.15;stroke-dasharray:none;stroke-opacity:1" x="-1.7974526e-07" y="0" id="tile-id" transform="translate(0 -72)"><ns0:tspan ns1:role="line" id="tspan439" style="font-style:normal;font-variant:normal;font-weight:bold;font-stretch:normal;font-size:4.23333px;font-family:'Arial Black';-inkscape-font-specification:'Arial Black,  Bold';text-align:center;text-anchor:middle;fill:#dddddd;fill-opacity:1;stroke:#565656;stroke-width:0.15;stroke-dasharray:none;stroke-opacity:1" x="-1.4621764e-07" y="0">403</ns0:tspan></ns0:text>
  </g><g id="annotations" inkscape:label="Annotations" inkscape:groupmode="layer" transform="scale(1,-1)"><text id="text1331" x="-92" y="84.5" style="font-style:normal;font-weight:normal;font-size:4px;font-family:sans-serif;fill:#000000;fill-opacity:1;stroke:none"><tspan x="-92" y="84.5">id: 403</tspan></text><text id="text1332" x="-92" y="90.0" style="font-style:normal;font-weight:normal;font-size:4px;font-family:sans-serif;fill:#000000;fill-opacity:1;stroke:none"><tspan x="-92" y="90.0">size: 80</tspan></text><text id="text1333" x="-92" y="95.5" style="font-style:normal;font-weight:normal;font-size:4px;font-family:sans-serif;fill:#000000;fill-opacity:1;stroke:none"><tspan x="-92" y="95.5">rng seed 3058</tspan></text><text id="text1334" x="-92" y="101.0" style="font-style:normal;font-weight:normal;font-size:4px;font-family:sans-serif;fill:#000000;fill-opacity:1;stroke:none"><tspan x="-92" y="101.0">pattern 111222 / lllmmm</tspan></text><text id="text1335" x="-92" y="106.5" style="font-style:normal;font-weight:normal;font-size:4px;font-family:sans-serif;fill:#000000;fill-opacity:1;stroke:none"><tspan x="-92" y="106.5">seed attempts: 20</tspan></text><text id="text1336" x="-92" y="112.0" style="font-style:normal;font-weight:normal;font-size:4px;font-family:sans-serif;fill:#000000;fill-opacity:1;stroke:none"><tspan x="-92" y="112.0">seed distance: l 0.3; m 0.24; h 0.2</tspan></text><text id="text1337" x="-92" y="117.5" style="font-style:normal;font-weight:normal;font-size:4px;font-family:sans-serif;fill:#000000;fill-opacity:1;stroke:none"><tspan x="-92" y="117.5">center: (AVG) 0.27</tspan></text><text id="text1338" x="-92" y="123.0" style="font-style:normal;font-weight:normal;font-size:4px;font-family:sans-serif;fill:#000000;fill-opacity:1;stroke:none"><tspan x="-92" y="123.0">min ridge length: 0.08; at edge: 0.04</tspan></text><text id="text1339" x="-92" y="128.5" style="font-style:normal;font-weight:normal;font-size:4px;font-family:sans-serif;fill:#000000;fill-opacity:1;stroke:none"><tspan x="-92" y="128.5">edge margin exclusion zone scale: 1.1</tspan></text><text id="text1340" x="-92" y="134.0" style="font-style:normal;font-weight:normal;font-size:4px;font-family:sans-serif;fill:#000000;fill-opacity:1;stroke:none"><tspan x="-92" y="134.0">iterations: 53</tspan></text><text id="text1341" x="-92" y="139.5" style="font-style:normal;font-weight:normal;font-size:4px;font-family:sans-serif;fill:#000000;fill-opacity:1;stroke:none"><tspan x="-92" y="139.5">adjustments: side 0.011, neighbor -0.009</tspan></text><text id="text1342" x="-92" y="145.0" style="font-style:normal;font-weight:normal;font-size:4px;font-family:sans-serif;fill:#000000;fill-opacity:1;stroke:none"><tspan x="-92" y="145.0">closeness: 0.9, adjust -0.013</tspan></text><text id="text1343" x="-1.5" y="-82" style="font-style:normal;font-weight:normal;font-size:4px;font-family:sans-serif;fill:#000000;fill-opacity:1;stroke:none"><tspan x="-1.5" y="-82">L</tspan></text><text id="text1344" x="-1.5" y="-82" style="font-style:normal;font-weight:normal;font-size:4px;font-family:sans-serif;fill:#000000;fill-opacity:1;stroke:none" transform="rotate(60)"><tspan x="-1.5" y="-82">L</tspan></text><text id="text1345" x="-1.5" y="-82" style="font-style:normal;font-weight:normal;font-size:4px;font-family:sans-serif;fill:#000000;fill-opacity:1;stroke:none" transform="rotate(120)"><tspan x="-1.5" y="-82">L</tspan></text><text id="text1346" x="-1.5" y="-82" style="font-style:normal;font-weight:normal;font-size:4px;font-family:sans-serif;fill:#000000;fill-opacity:1;stroke:none" transform="rotate(180)"><tspan x="-1.5" y="-82">M</tspan></text><text id="text1347" x="-1.5" y="-82" style="font-style:normal;font-weight:normal;font-size:4px;font-family:sans-serif;fill:#000000;fill-opacity:1;stroke:none" transform="rotate(240)"><tspan x="-1.5" y="-82">M</tspan></text><text id="text1348" x="-1.5" y="-82" style="font-style:normal;font-weight:normal;font-size:4px;font-family:sans-serif;fill:#000000;fill-opacity:1;stroke:none" transform="rotate(300)"><tspan x="-1.5" y="-82">M</tspan></text><g id="node1349" transform="rotate(30)"><text id="text1350" x="-1.5" y="-72.28203230275508" style="font-style:normal;font-weight:normal;font-size:4px;font-family:sans-serif;fill:#000000;fill-opacity:1;stroke:none"><tspan x="-1.5" y="-72.28203230275508">L</tspan></text></g><g id="node1351" transform="rotate(90)"><text id="text1352" x="-1.5" y="-72.28203230275508" style="font-style:normal;font-weight:normal;font-size:4px;font-family:sans-serif;fill:#000000;fill-opacity:1;stroke:none"><tspan x="-1.5" y="-72.28203230275508">L</tspan></text></g><g id="node1353" transform="rotate(150)"><text id="text1354" x="-15.099999999999998" y="-72.28203230275508" style="font-style:normal;font-weight:normal;font-size:4px;font-family:sans-serif;fill:#000000;fill-opacity:1;stroke:none"><tspan x="-15.099999999999998" y="-72.28203230275508">L</tspan></text><text id="text1355" x="15.299999999999997" y="-72.28203230275508" style="font-style:normal;font-weight:normal;font-size:4px;font-family:sans-serif;fill:#000000;fill-opacity:1;stroke:none"><tspan x="15.299999999999997" y="-72.28203230275508">L</tspan></text></g><g id="node1356" transform="rotate(210)"><text id="text1357" x="-14.833333333333336" y="-72.28203230275508" style="font-style:normal;font-weight:normal;font-size:4px;font-family:sans-serif;fill:#000000;fill-opacity:1;stroke:none"><tspan x="-14.833333333333336" y="-72.28203230275508">M</tspan></text><text id="text1358" x="11.833333333333329" y="-72.28203230275508" style="font-style:normal;font-weight:normal;font-size:4px;font-family:sans-serif;fill:#000000;fill-opacity:1;stroke:none"><tspan x="11.833333333333329" y="-72.28203230275508">M</tspan></text></g><g id="node1359" transform="rotate(270)"><text id="text1360" x="-14.833333333333336" y="-72.28203230275508" style="font-style:normal;font-weight:normal;font-size:4px;font-family:sans-serif;fill:#000000;fill-opacity:1;stroke:none"><tspan x="-14.833333333333336" y="-72.28203230275508">M</tspan></text><text id="text1361" x="11.833333333333329" y="-72.28203230275508" style="font-style:normal;font-weight:normal;font-size:4px;font-family:sans-serif;fill:#000000;fill-opacity:1;stroke:none"><tspan x="11.833333333333329" y="-72.28203230275508">M</tspan></text></g><g id="node1362" transform="rotate(330)"><text id="text1363" x="-18.299999999999997" y="-72.28203230275508" style="font-style:normal;font-weight:normal;font-size:4px;font-family:sans-serif;fill:#000000;fill-opacity:1;stroke:none"><tspan x="-18.299999999999997" y="-72.28203230275508">L</tspan></text><text id="text1364" x="12.099999999999994" y="-72.28203230275508" style="font-style:normal;font-weight:normal;font-size:4px;font-family:sans-serif;fill:#000000;fill-opacity:1;stroke:none"><tspan x="12.099999999999994" y="-72.28203230275508">L</tspan></text></g><g id="node1365" transform="rotate(150)"><rect id="rect1366" x="-28.299999999999997" y="-77.28203230275508" width="3" height="8" style="fill:#a2c6ff;stroke:#000000;stroke-width:0.3" /><text id="text1367" x="-28.299999999999997" y="-79.28203230275508" style="font-style:normal;font-weight:normal;font-size:4px;font-family:sans-serif;fill:#000000;fill-opacity:1;stroke:none"><tspan x="-28.299999999999997" y="-79.28203230275508">R</tspan></text></g><g id="node1368" transform="rotate(210)"><rect id="rect1369" x="-1.5" y="-77.28203230275508" width="3" height="8" style="fill:#a2c6ff;stroke:#000000;stroke-width:0.3" /><text id="text1370" x="-1.5" y="-79.28203230275508" style="font-style:normal;font-weight:normal;font-size:4px;font-family:sans-serif;fill:#000000;fill-opacity:1;stroke:none"><tspan x="-1.5" y="-79.28203230275508">R</tspan></text></g><g id="node1371" transform="rotate(270)"><rect id="rect1372" x="-1.5" y="-77.28203230275508" width="3" height="8" style="fill:#a2c6ff;stroke:#000000;stroke-width:0.3" /><text id="text1373" x="-1.5" y="-79.28203230275508" style="font-style:normal;font-weight:normal;font-size:4px;font-family:sans-serif;fill:#000000;fill-opacity:1;stroke:none"><tspan x="-1.5" y="-79.28203230275508">R</tspan></text></g><g id="node1374" transform="rotate(330)"><rect id="rect1375" x="25.299999999999997" y="-77.28203230275508" width="3" height="8" style="fill:#a2c6ff;stroke:#000000;stroke-width:0.3" /><text id="text1376" x="25.299999999999997" y="-79.28203230275508" style="font-style:normal;font-weight:normal;font-size:4px;font-family:sans-serif;fill:#000000;fill-opacity:1;stroke:none"><tspan x="25.299999999999997" y="-79.28203230275508">R</tspan></text></g><circle id="mana" cx="50" cy="110" r="7.5" style="fill:#000000;stroke:none;stroke-width:0" /><rect id="rect1377" x="75" y="90" width="15" height="6" style="fill:#be850a;stroke:#000000;stroke-width:0.3" /><text id="text1378" x="70" y="94.5" style="font-style:normal;font-weight:normal;font-size:4px;font-family:sans-serif;fill:#000000;fill-opacity:1;stroke:none"><tspan x="70" y="94.5">V</tspan></text><rect id="rect1379" x="75" y="100" width="15" height="6" style="fill:#e7a311;stroke:#000000;stroke-width:0.3" /><text id="text1380" x="70" y="104.5" style="font-style:normal;font-weight:normal;font-size:4px;font-family:sans-serif;fill:#000000;fill-opacity:1;stroke:none"><tspan x="70" y="104.5">H</tspan></text><rect id="rect1381" x="75" y="110" width="15" height="6" style="fill:#f0ce76;stroke:#000000;stroke-width:0.3" /><text id="text1382" x="70" y="114.5" style="font-style:normal;font-weight:normal;font-size:4px;font-family:sans-serif;fill:#000000;fill-opacity:1;stroke:none"><tspan x="70" y="114.5">M</tspan></text><rect id="rect1383" x="75" y="120" width="15" height="6" style="fill:#f0eaac;stroke:#000000;stroke-width:0.3" /><text id="text1384" x="70" y="124.5" style="font-style:normal;font-weight:normal;font-size:4px;font-family:sans-serif;fill:#000000;fill-opacity:1;stroke:none"><tspan x="70" y="124.5">L</tspan></text><rect id="rect1385" x="75" y="130" width="15" height="6" style="fill:#a2c6ff;stroke:#000000;stroke-width:0.3" /><text id="text1386" x="70" y="134.5" style="font-style:normal;font-weight:normal;font-size:4px;font-family:sans-serif;fill:#000000;fill-opacity:1;stroke:none"><tspan x="70" y="134.5">R</tspan></text></g><g id="river-border" inkscape:label="River Border" inkscape:groupmode="layer"><g id="river-border-group" clip-path="url(#clippath-1388)"><path id="path1391" d="m -42.048 -67.8065 19.0143 20.0399 z" style="fill:none;stroke:#000000;stroke-width:2.6;stroke-linecap:round;stroke-linejoin:round" /><path id="path1392" d="m 64.4854 -55.7539 -11.4355 15.2245 z" style="fill:none;stroke:#000000;stroke-width:2.6;stroke-linecap:round;stroke-linejoin:round" /><path id="path1393" d="m 53.0499 -40.5294 -19.271 -1.1818 z" style="fill:none;stroke:#000000;stroke-width:2.6;stroke-linecap:round;stroke-linejoin:round" /><path id="path1394" d="m 35.6645 -11.4823 -1.88566 -30.2288 z" style="fill:none;stroke:#000000;stroke-width:2.6;stroke-linecap:round;stroke-linejoin:round" /><path id="path1395" d="m -23.0337 -47.7666 -1.37469 6.37713 z" style="fill:none;stroke:#000000;stroke-width:2.6;stroke-linecap:round;stroke-linejoin:round" /><path id="path1396" d="m -24.4084 -41.3895 -9.57369 5.81892 z" style="fill:none;stroke:#000000;stroke-width:2.6;stroke-linecap:round;stroke-linejoin:round" /><path id="path1397" d="m -33.9821 -35.5706 -7.38266 23.9506 z" style="fill:none;stroke:#000000;stroke-width:2.6;stroke-linecap:round;stroke-linejoin:round" /><path id="path1398" d="m 48.2437 33.9608 -17.3959 -21.6688 z" style="fill:none;stroke:#000000;stroke-width:2.6;stroke-linecap:round;stroke-linejoin:round" /><path id="path1399" d="m 30.8478 12.292 9.59057 -18.9656 z" style="fill:none;stroke:#000000;stroke-width:2.6;stroke-linecap:round;stroke-linejoin:round" /><path id="path1400" d="m 46.4471 40.4488 1.79659 -6.48794 z" style="fill:none;stroke:#000000;stroke-width:2.6;stroke-linecap:round;stroke-linejoin:round" /><path id="path1401" d="m 46.4471 40.4488 -24.993 5.95235 z" style="fill:none;stroke:#000000;stroke-width:2.6;stroke-linecap:round;stroke-linejoin:round" /><path id="path1402" d="m 35.6645 -11.4823 4.77385 4.80869 z" style="fill:none;stroke:#000000;stroke-width:2.6;stroke-linecap:round;stroke-linejoin:round" /><path id="path1403" d="m -17.7239 81.4566 14.268 -18.9954 z" style="fill:none;stroke:#000000;stroke-width:2.6;stroke-linecap:round;stroke-linejoin:round" /><path id="path1404" d="m -3.4559 62.4612 17.1519 1.26093 z" style="fill:none;stroke:#000000;stroke-width:2.6;stroke-linecap:round;stroke-linejoin:round" /><path id="path1405" d="m 21.4541 46.4011 -7.75812 17.321 z" style="fill:none;stroke:#000000;stroke-width:2.6;stroke-linecap:round;stroke-linejoin:round" /><path id="path1406" d="m -41.3648 -11.62 -14.1474 1.13729 z" style="fill:none;stroke:#000000;stroke-width:2.6;stroke-linecap:round;stroke-linejoin:round" /><path id="path1407" d="m -79.7462 2.5114 17.9007 -4.29617 z" style="fill:none;stroke:#000000;stroke-width:2.6;stroke-linecap:round;stroke-linejoin:round" /><path id="path1408" d="m -55.5121 -10.4827 -6.33336 8.69791 z" style="fill:none;stroke:#000000;stroke-width:2.6;stroke-linecap:round;stroke-linejoin:round" /></g></g><g id="river" inkscape:label="River" inkscape:groupmode="layer"><g id="river-group" clip-path="url(#clippath-1390)"><path id="path1391" d="m -42.048 -67.8065 19.0143 20.0399 z" style="fill:none;stroke:#a2c6ff;stroke-width:2.0;stroke-linecap:round;stroke-linejoin:round" /><path id="path1392" d="m 64.4854 -55.7539 -11.4355 15.2245 z" style="fill:none;stroke:#a2c6ff;stroke-width:2.0;stroke-linecap:round;stroke-linejoin:round" /><path id="path1393" d="m 53.0499 -40.5294 -19.271 -1.1818 z" style="fill:none;stroke:#a2c6ff;stroke-width:2.0;stroke-linecap:round;stroke-linejoin:round" /><path id="path1394" d="m 35.6645 -11.4823 -1.88566 -30.2288 z" style="fill:none;stroke:#a2c6ff;stroke-width:2.0;stroke-linecap:round;stroke-linejoin:round" /><path id="path1395" d="m -23.0337 -47.7666 -1.37469 6.37713 z" style="fill:none;stroke:#a2c6ff;stroke-width:2.0;stroke-linecap:round;stroke-linejoin:round" /><path id="path1396" d="m -24.4084 -41.3895 -9.57369 5.81892 z" style="fill:none;stroke:#a2c6ff;stroke-width:2.0;stroke-linecap:round;stroke-linejoin:round" /><path id="path1397" d="m -33.9821 -35.5706 -7.38266 23.9506 z" style="fill:none;stroke:#a2c6ff;stroke-width:2.0;stroke-linecap:round;stroke-linejoin:round" /><path id="path1398" d="m 48.2437 33.9608 -17.3959 -21.6688 z" style="fill:none;stroke:#a2c6ff;stroke-width:2.0;stroke-linecap:round;stroke-linejoin:round" /><path id="path1399" d="m 30.8478 12.292 9.59057 -18.9656 z" style="fill:none;stroke:#a2c6ff;stroke-width:2.0;stroke-linecap:round;stroke-linejoin:round" /><path id="path1400" d="m 46.4471 40.4488 1.79659 -6.48794 z" style="fill:none;stroke:#a2c6ff;stroke-width:2.0;stroke-linecap:round;stroke-linejoin:round" /><path id="path1401" d="m 46.4471 40.4488 -24.993 5.95235 z" style="fill:none;stroke:#a2c6ff;stroke-width:2.0;stroke-linecap:round;stroke-linejoin:round" /><path id="path1402" d="m 35.6645 -11.4823 4.77385 4.80869 z" style="fill:none;stroke:#a2c6ff;stroke-width:2.0;stroke-linecap:round;stroke-linejoin:round" /><path id="path1403" d="m -17.7239 81.4566 14.268 -18.9954 z" style="fill:none;stroke:#a2c6ff;stroke-width:2.0;stroke-linecap:round;stroke-linejoin:round" /><path id="path1404" d="m -3.4559 62.4612 17.1519 1.26093 z" style="fill:none;stroke:#a2c6ff;stroke-width:2.0;stroke-linecap:round;stroke-linejoin:round" /><path id="path1405" d="m 21.4541 46.4011 -7.75812 17.321 z" style="fill:none;stroke:#a2c6ff;stroke-width:2.0;stroke-linecap:round;stroke-linejoin:round" /><path id="path1406" d="m -41.3648 -11.62 -14.1474 1.13729 z" style="fill:none;stroke:#a2c6ff;stroke-width:2.0;stroke-linecap:round;stroke-linejoin:round" /><path id="path1407" d="m -79.7462 2.5114 17.9007 -4.29617 z" style="fill:none;stroke:#a2c6ff;stroke-width:2.0;stroke-linecap:round;stroke-linejoin:round" /><path id="path1408" d="m -55.5121 -10.4827 -6.33336 8.69791 z" style="fill:none;stroke:#a2c6ff;stroke-width:2.0;stroke-linecap:round;stroke-linejoin:round" /></g></g><g id="overlay" inkscape:label="Overlay" inkscape:groupmode="layer" transform="scale(1,-1)"><ns0:path ns1:nodetypes="ccccc" ns2:connector-curvature="0" id="obj-bridge" d="m -1.3629478,2.973799 c 0.6829002,-2.17565439 0.68923869,-3.60295062 0.015075,-5.9083917 l 2.8035417,0.00714 C 0.73648446,-0.63363961 0.73738591,0.81474035 1.4406036,2.9809656 Z" style="display:inline;fill:#000000;fill-opacity:1;stroke:none;stroke-width:2.14313;stroke-linecap:round;stroke-miterlimit:4;stroke-dasharray:2.14313, 4.28625;stroke-dashoffset:0;stroke-opacity:1" transform="translate(34.72171742596659 26.59673583189783) rotate(93.56945439554686)" />
  <ns0:path ns2:connector-curvature="0" style="display:inline;fill:#000000;fill-opacity:1;fill-rule:evenodd;stroke:none;stroke-width:0.197555px;stroke-linecap:butt;stroke-linejoin:miter;stroke-opacity:1" d="m -3.9511112,-5.6797224 v 2.4694446 l 0.9877778,0.9877777 V 3.7041668 L -3.4572223,5.6797224 H 3.4572223 L 2.9633335,3.7041668 V -2.2225001 L 3.9511112,-3.2102778 V -5.6797224 H 2.9633335 v 0.9877778 H 1.9755556 V -5.6797224 H 0.49388891 v 0.9877778 h -0.9877778 V -5.6797224 H -1.9755556 v 0.9877778 h -0.9877778 v -0.9877778 z m 1.9755556,4.4450002 h 0.4938889 v 1.48166666 h -0.4938889 z m 3.4572223,0.98777775 H 1.9755556 V 1.2347222 H 1.4816667 Z" id="obj-tower" transform="translate(-45.589042059573934 -2.7924162031755646)" />
  <ns0:path style="display:inline;fill:#5ba22d;fill-opacity:1;fill-rule:evenodd;stroke:#000000;stroke-width:0.25;stroke-linecap:butt;stroke-linejoin:miter;stroke-dasharray:none;stroke-opacity:1" d="m -0.17067971,-5.0753774 -1.75261489,3.0262859 0.8024176,0.028472 -1.1479124,3.1523128 0.9279943,-0.023195 -1.0490969,2.6640674 1.89541622,-0.2588784 0.0251775,0.86149 H 0.47941659 L 0.45423909,3.5136881 2.3758854,3.8500731 1.2249508,1.1891557 l 0.9007594,0.051666 -1.37638922,-3.2108035 0.85286092,0.02585 z" id="obj-tree3" ns2:connector-curvature="0" ns1:nodetypes="cccccccccccccccc" transform="translate(28.641016151377542 -55.0)" />
  <ns0:path ns1:nodetypes="cccccccccccccccc" style="display:inline;fill:#5ba22d;fill-opacity:1;fill-rule:evenodd;stroke:#000000;stroke-width:0.25;stroke-linecap:butt;stroke-linejoin:miter;stroke-dasharray:none;stroke-opacity:1" d="m -0.11754863,-3.5938692 -1.51308197,1.919478 0.90784897,0.00262 -1.14277797,1.98567244 0.755428,-0.0223806 -0.866352,2.21571766 1.51095097,-0.2697811 0.04365,0.8116163 h 0.951087 L 0.57111437,2.1922623 1.9571211,2.4168533 0.91825087,0.27097108 1.7837593,0.33762228 0.57239737,-1.737528 1.4352893,-1.762644 Z" id="obj-tree1" ns2:connector-curvature="0" transform="translate(37.64101615137754 -51.0)" />
  <ns0:path ns1:nodetypes="cccccccccccccccc" style="display:inline;fill:#5ba22d;fill-opacity:1;fill-rule:evenodd;stroke:#000000;stroke-width:0.25;stroke-linecap:butt;stroke-linejoin:miter;stroke-dasharray:none;stroke-opacity:1" d="m -0.06765203,-4.389909 -1.62369897,2.3766988 0.83957497,0.1115608 -1.12383527,2.13200681 0.9140676,-0.027081 -1.2554238,2.84341349 1.88001547,-0.4347033 -0.1025277,0.8737981 h 1.1508144 L 0.50670157,2.6655719 2.3908972,2.937327 0.92673727,0.28667554 1.9739956,0.36732364 0.71541647,-2.0353434 l 0.83693743,0.02377 z" id="obj-tree2" ns2:connector-curvature="0" transform="translate(40.0189616428459 48.971281292110206)" />
  <ns0:path ns1:nodetypes="cccccccccccccccc" style="display:inline;fill:#5ba22d;fill-opacity:1;fill-rule:evenodd;stroke:#000000;stroke-width:0.25;stroke-linecap:butt;stroke-linejoin:miter;stroke-dasharray:none;stroke-opacity:1" d="m -0.11754863,-3.5938692 -1.51308197,1.919478 0.90784897,0.00262 -1.14277797,1.98567244 0.755428,-0.0223806 -0.866352,2.21571766 1.51095097,-0.2697811 0.04365,0.8116163 h 0.951087 L 0.57111437,2.1922623 1.9571211,2.4168533 0.91825087,0.27097108 1.7837593,0.33762228 0.57239737,-1.737528 1.4352893,-1.762644 Z" id="obj-tree1" ns2:connector-curvature="0" transform="translate(-63.48203230275509 12.333333333333336)" />
  <ns0:path style="display:inline;fill:#5ba22d;fill-opacity:1;fill-rule:evenodd;stroke:#000000;stroke-width:0.25;stroke-linecap:butt;stroke-linejoin:miter;stroke-dasharray:none;stroke-opacity:1" d="m -0.17067971,-5.0753774 -1.75261489,3.0262859 0.8024176,0.028472 -1.1479124,3.1523128 0.9279943,-0.023195 -1.0490969,2.6640674 1.89541622,-0.2588784 0.0251775,0.86149 H 0.47941659 L 0.45423909,3.5136881 2.3758854,3.8500731 1.2249508,1.1891557 l 0.9007594,0.051666 -1.37638922,-3.2108035 0.85286092,0.02585 z" id="obj-tree3" ns2:connector-curvature="0" ns1:nodetypes="cccccccccccccccc" transform="translate(-64.08203230275508 -15.333333333333329)" />
  <ns0:path ns1:nodetypes="cccccccccccccccc" style="display:inline;fill:#5ba22d;fill-opacity:1;fill-rule:evenodd;stroke:#000000;stroke-width:0.25;stroke-linecap:butt;stroke-linejoin:miter;stroke-dasharray:none;stroke-opacity:1" d="m -0.06765203,-4.389909 -1.62369897,2.3766988 0.83957497,0.1115608 -1.12383527,2.13200681 0.9140676,-0.027081 -1.2554238,2.84341349 1.88001547,-0.4347033 -0.1025277,0.8737981 h 1.1508144 L 0.50670157,2.6655719 2.3908972,2.937327 0.92673727,0.28667554 1.9739956,0.36732364 0.71541647,-2.0353434 l 0.83693743,0.02377 z" id="obj-tree2" ns2:connector-curvature="0" transform="translate(-50.18419703555028 -24.160337153556213)" />
  <ns0:path style="display:inline;fill:#5ba22d;fill-opacity:1;fill-rule:evenodd;stroke:#000000;stroke-width:0.25;stroke-linecap:butt;stroke-linejoin:miter;stroke-dasharray:none;stroke-opacity:1" d="m -0.17067971,-5.0753774 -1.75261489,3.0262859 0.8024176,0.028472 -1.1479124,3.1523128 0.9279943,-0.023195 -1.0490969,2.6640674 1.89541622,-0.2588784 0.0251775,0.86149 H 0.47941659 L 0.45423909,3.5136881 2.3758854,3.8500731 1.2249508,1.1891557 l 0.9007594,0.051666 -1.37638922,-3.2108035 0.85286092,0.02585 z" id="obj-tree3" ns2:connector-curvature="0" ns1:nodetypes="cccccccccccccccc" transform="translate(-44.18419703555028 -31.160337153556213)" />
  <ns0:path ns2:connector-curvature="0" id="obj-tree4" d="m 0.02668703,-5.9619146 -2.09811723,3.282356 1.0029208,0.1521268 L -3.0225036,0.99947393 -1.547374,0.90155468 -3.2093694,4.3782552 -0.54442427,3.9810758 -0.82976707,5.1244031 1.024844,5.0746938 0.73952693,4.0307847 3.2104285,4.2788337 1.5479561,0.95326125 2.9726722,1.0476884 1.0210344,-2.5294321 2.2127515,-2.5811391 Z" style="display:inline;fill:#5ba22d;fill-opacity:1;fill-rule:evenodd;stroke:#000000;stroke-width:0.25;stroke-linecap:butt;stroke-linejoin:miter;stroke-dasharray:none;stroke-opacity:1" ns1:nodetypes="cccccccccccccccc" transform="translate(-27.514444929174598 -19.29963278756001)" />
  <ns0:path ns1:nodetypes="cccccccccccccccc" style="display:inline;fill:#5ba22d;fill-opacity:1;fill-rule:evenodd;stroke:#000000;stroke-width:0.25;stroke-linecap:butt;stroke-linejoin:miter;stroke-dasharray:none;stroke-opacity:1" d="m -0.06765203,-4.389909 -1.62369897,2.3766988 0.83957497,0.1115608 -1.12383527,2.13200681 0.9140676,-0.027081 -1.2554238,2.84341349 1.88001547,-0.4347033 -0.1025277,0.8737981 h 1.1508144 L 0.50670157,2.6655719 2.3908972,2.937327 0.92673727,0.28667554 1.9739956,0.36732364 0.71541647,-2.0353434 l 0.83693743,0.02377 z" id="obj-tree2" ns2:connector-curvature="0" transform="translate(-25.514444929174598 -32.299632787560014)" />
  <ns0:path style="display:inline;fill:#5ba22d;fill-opacity:1;fill-rule:evenodd;stroke:#000000;stroke-width:0.25;stroke-linecap:butt;stroke-linejoin:miter;stroke-dasharray:none;stroke-opacity:1" d="m -0.17067971,-5.0753774 -1.75261489,3.0262859 0.8024176,0.028472 -1.1479124,3.1523128 0.9279943,-0.023195 -1.0490969,2.6640674 1.89541622,-0.2588784 0.0251775,0.86149 H 0.47941659 L 0.45423909,3.5136881 2.3758854,3.8500731 1.2249508,1.1891557 l 0.9007594,0.051666 -1.37638922,-3.2108035 0.85286092,0.02585 z" id="obj-tree3" ns2:connector-curvature="0" ns1:nodetypes="cccccccccccccccc" transform="translate(-18.514444929174598 -29.29963278756001)" />
  <ns0:path ns1:nodetypes="cccccccccccccccc" style="display:inline;fill:#5ba22d;fill-opacity:1;fill-rule:evenodd;stroke:#000000;stroke-width:0.25;stroke-linecap:butt;stroke-linejoin:miter;stroke-dasharray:none;stroke-opacity:1" d="m -0.06765203,-4.389909 -1.62369897,2.3766988 0.83957497,0.1115608 -1.12383527,2.13200681 0.9140676,-0.027081 -1.2554238,2.84341349 1.88001547,-0.4347033 -0.1025277,0.8737981 h 1.1508144 L 0.50670157,2.6655719 2.3908972,2.937327 0.92673727,0.28667554 1.9739956,0.36732364 0.71541647,-2.0353434 l 0.83693743,0.02377 z" id="obj-tree2" ns2:connector-curvature="0" transform="translate(-5.603943029444537 13.991138595196432)" />
  <ns0:path ns1:nodetypes="cccccccccccccccc" style="display:inline;fill:#5ba22d;fill-opacity:1;fill-rule:evenodd;stroke:#000000;stroke-width:0.25;stroke-linecap:butt;stroke-linejoin:miter;stroke-dasharray:none;stroke-opacity:1" d="m -0.11754863,-3.5938692 -1.51308197,1.919478 0.90784897,0.00262 -1.14277797,1.98567244 0.755428,-0.0223806 -0.866352,2.21571766 1.51095097,-0.2697811 0.04365,0.8116163 h 0.951087 L 0.57111437,2.1922623 1.9571211,2.4168533 0.91825087,0.27097108 1.7837593,0.33762228 0.57239737,-1.737528 1.4352893,-1.762644 Z" id="obj-tree1" ns2:connector-curvature="0" transform="translate(-17.648885267516818 -2.5360023654283967)" />
  <ns0:path ns2:connector-curvature="0" id="obj-tree4" d="m 0.02668703,-5.9619146 -2.09811723,3.282356 1.0029208,0.1521268 L -3.0225036,0.99947393 -1.547374,0.90155468 -3.2093694,4.3782552 -0.54442427,3.9810758 -0.82976707,5.1244031 1.024844,5.0746938 0.73952693,4.0307847 3.2104285,4.2788337 1.5479561,0.95326125 2.9726722,1.0476884 1.0210344,-2.5294321 2.2127515,-2.5811391 Z" style="display:inline;fill:#5ba22d;fill-opacity:1;fill-rule:evenodd;stroke:#000000;stroke-width:0.25;stroke-linecap:butt;stroke-linejoin:miter;stroke-dasharray:none;stroke-opacity:1" ns1:nodetypes="cccccccccccccccc" transform="translate(-10.648885267516816 -6.536002365428397)" />
  <ns0:path ns1:nodetypes="cccccccccccccccc" style="display:inline;fill:#5ba22d;fill-opacity:1;fill-rule:evenodd;stroke:#000000;stroke-width:0.25;stroke-linecap:butt;stroke-linejoin:miter;stroke-dasharray:none;stroke-opacity:1" d="m -0.06765203,-4.389909 -1.62369897,2.3766988 0.83957497,0.1115608 -1.12383527,2.13200681 0.9140676,-0.027081 -1.2554238,2.84341349 1.88001547,-0.4347033 -0.1025277,0.8737981 h 1.1508144 L 0.50670157,2.6655719 2.3908972,2.937327 0.92673727,0.28667554 1.9739956,0.36732364 0.71541647,-2.0353434 l 0.83693743,0.02377 z" id="obj-tree2" ns2:connector-curvature="0" transform="translate(-3.6488852675168157 -9.536002365428397)" />
  <ns0:path ns1:nodetypes="cccccccccccccccc" style="display:inline;fill:#5ba22d;fill-opacity:1;fill-rule:evenodd;stroke:#000000;stroke-width:0.25;stroke-linecap:butt;stroke-linejoin:miter;stroke-dasharray:none;stroke-opacity:1" d="m -0.06765203,-4.389909 -1.62369897,2.3766988 0.83957497,0.1115608 -1.12383527,2.13200681 0.9140676,-0.027081 -1.2554238,2.84341349 1.88001547,-0.4347033 -0.1025277,0.8737981 h 1.1508144 L 0.50670157,2.6655719 2.3908972,2.937327 0.92673727,0.28667554 1.9739956,0.36732364 0.71541647,-2.0353434 l 0.83693743,0.02377 z" id="obj-tree2" ns2:connector-curvature="0" transform="translate(-29.55822404584609 13.252897703309344)" />
  <ns0:path ns1:nodetypes="cccccccccccccccc" style="display:inline;fill:#5ba22d;fill-opacity:1;fill-rule:evenodd;stroke:#000000;stroke-width:0.25;stroke-linecap:butt;stroke-linejoin:miter;stroke-dasharray:none;stroke-opacity:1" d="m -0.06765203,-4.389909 -1.62369897,2.3766988 0.83957497,0.1115608 -1.12383527,2.13200681 0.9140676,-0.027081 -1.2554238,2.84341349 1.88001547,-0.4347033 -0.1025277,0.8737981 h 1.1508144 L 0.50670157,2.6655719 2.3908972,2.937327 0.92673727,0.28667554 1.9739956,0.36732364 0.71541647,-2.0353434 l 0.83693743,0.02377 z" id="obj-tree2" ns2:connector-curvature="0" transform="translate(-24.55822404584609 28.252897703309344)" />
  <ns0:path style="display:inline;fill:#5ba22d;fill-opacity:1;fill-rule:evenodd;stroke:#000000;stroke-width:0.25;stroke-linecap:butt;stroke-linejoin:miter;stroke-dasharray:none;stroke-opacity:1" d="m -0.17067971,-5.0753774 -1.75261489,3.0262859 0.8024176,0.028472 -1.1479124,3.1523128 0.9279943,-0.023195 -1.0490969,2.6640674 1.89541622,-0.2588784 0.0251775,0.86149 H 0.47941659 L 0.45423909,3.5136881 2.3758854,3.8500731 1.2249508,1.1891557 l 0.9007594,0.051666 -1.37638922,-3.2108035 0.85286092,0.02585 z" id="obj-tree3" ns2:connector-curvature="0" ns1:nodetypes="cccccccccccccccc" transform="translate(-20.55822404584609 19.252897703309344)" />
  <ns0:path ns1:nodetypes="cccccccccccccccc" style="display:inline;fill:#5ba22d;fill-opacity:1;fill-rule:evenodd;stroke:#000000;stroke-width:0.25;stroke-linecap:butt;stroke-linejoin:miter;stroke-dasharray:none;stroke-opacity:1" d="m -0.11754863,-3.5938692 -1.51308197,1.919478 0.90784897,0.00262 -1.14277797,1.98567244 0.755428,-0.0223806 -0.866352,2.21571766 1.51095097,-0.2697811 0.04365,0.8116163 h 0.951087 L 0.57111437,2.1922623 1.9571211,2.4168533 0.91825087,0.27097108 1.7837593,0.33762228 0.57239737,-1.737528 1.4352893,-1.762644 Z" id="obj-tree1" ns2:connector-curvature="0" transform="translate(-54.13091584664148 28.827305639663898)" />
  <ns0:path ns1:nodetypes="cccccccccccccccc" style="display:inline;fill:#5ba22d;fill-opacity:1;fill-rule:evenodd;stroke:#000000;stroke-width:0.25;stroke-linecap:butt;stroke-linejoin:miter;stroke-dasharray:none;stroke-opacity:1" d="m -0.06765203,-4.389909 -1.62369897,2.3766988 0.83957497,0.1115608 -1.12383527,2.13200681 0.9140676,-0.027081 -1.2554238,2.84341349 1.88001547,-0.4347033 -0.1025277,0.8737981 h 1.1508144 L 0.50670157,2.6655719 2.3908972,2.937327 0.92673727,0.28667554 1.9739956,0.36732364 0.71541647,-2.0353434 l 0.83693743,0.02377 z" id="obj-tree2" ns2:connector-curvature="0" transform="translate(-48.13091584664148 20.827305639663898)" />
  <ns0:path ns1:nodetypes="cccccccccccccccc" style="display:inline;fill:#5ba22d;fill-opacity:1;fill-rule:evenodd;stroke:#000000;stroke-width:0.25;stroke-linecap:butt;stroke-linejoin:miter;stroke-dasharray:none;stroke-opacity:1" d="m -0.11754863,-3.5938692 -1.51308197,1.919478 0.90784897,0.00262 -1.14277797,1.98567244 0.755428,-0.0223806 -0.866352,2.21571766 1.51095097,-0.2697811 0.04365,0.8116163 h 0.951087 L 0.57111437,2.1922623 1.9571211,2.4168533 0.91825087,0.27097108 1.7837593,0.33762228 0.57239737,-1.737528 1.4352893,-1.762644 Z" id="obj-tree1" ns2:connector-curvature="0" transform="translate(1.3878884774617868 62.83978225930966)" />
  </g><g id="region_ids" inkscape:label="Region Ids" inkscape:groupmode="layer" style="display:none" transform="scale(1,-1)"><text id="text1409" x="-1.4" y="-80.0" style="font-style:normal;font-weight:normal;font-size:4px;font-family:sans-serif;fill:#000000;fill-opacity:1;stroke:none"><tspan x="-1.4" y="-80.0">0</tspan></text><text id="text1410" x="67.88203230275508" y="-40.0" style="font-style:normal;font-weight:normal;font-size:4px;font-family:sans-serif;fill:#000000;fill-opacity:1;stroke:none"><tspan x="67.88203230275508" y="-40.0">1</tspan></text><text id="text1411" x="67.88203230275508" y="40.0" style="font-style:normal;font-weight:normal;font-size:4px;font-family:sans-serif;fill:#000000;fill-opacity:1;stroke:none"><tspan x="67.88203230275508" y="40.0">2</tspan></text><text id="text1412" x="-1.4" y="80.0" style="font-style:normal;font-weight:normal;font-size:4px;font-family:sans-serif;fill:#000000;fill-opacity:1;stroke:none"><tspan x="-1.4" y="80.0">3</tspan></text><text id="text1413" x="-70.68203230275509" y="40.0" style="font-style:normal;font-weight:normal;font-size:4px;font-family:sans-serif;fill:#000000;fill-opacity:1;stroke:none"><tspan x="-70.68203230275509" y="40.0">4</tspan></text><text id="text1414" x="-70.68203230275509" y="-40.0" style="font-style:normal;font-weight:normal;font-size:4px;font-family:sans-serif;fill:#000000;fill-opacity:1;stroke:none"><tspan x="-70.68203230275509" y="-40.0">5</tspan></text><text id="text1415" x="33.24101615137754" y="-60.0" style="font-style:normal;font-weight:normal;font-size:4px;font-family:sans-serif;fill:#000000;fill-opacity:1;stroke:none"><tspan x="33.24101615137754" y="-60.0">6</tspan></text><text id="text1416" x="67.88203230275508" y="-0.0" style="font-style:normal;font-weight:normal;font-size:4px;font-family:sans-serif;fill:#000000;fill-opacity:1;stroke:none"><tspan x="67.88203230275508" y="-0.0">7</tspan></text><text id="text1417" x="46.6189616428459" y="55.971281292110206" style="font-style:normal;font-weight:normal;font-size:4px;font-family:sans-serif;fill:#000000;fill-opacity:1;stroke:none"><tspan x="46.6189616428459" y="55.971281292110206">8</tspan></text><text id="text1418" x="17.491789367798976" y="66.32153903091735" style="font-style:normal;font-weight:normal;font-size:4px;font-family:sans-serif;fill:#000000;fill-opacity:1;stroke:none"><tspan x="17.491789367798976" y="66.32153903091735">9</tspan></text><text id="text1419" x="-26.094010767585026" y="69.43794795877687" style="font-style:normal;font-weight:normal;font-size:4px;font-family:sans-serif;fill:#000000;fill-opacity:1;stroke:none"><tspan x="-26.094010767585026" y="69.43794795877687">10</tspan></text><text id="text1420" x="-45.98802153517005" y="50.56205204122313" style="font-style:normal;font-weight:normal;font-size:4px;font-family:sans-serif;fill:#000000;fill-opacity:1;stroke:none"><tspan x="-45.98802153517005" y="50.56205204122313">11</tspan></text><text id="text1421" x="-73.88203230275509" y="13.333333333333336" style="font-style:normal;font-weight:normal;font-size:4px;font-family:sans-serif;fill:#000000;fill-opacity:1;stroke:none"><tspan x="-73.88203230275509" y="13.333333333333336">12</tspan></text><text id="text1422" x="-67.48203230275509" y="-13.333333333333329" style="font-style:normal;font-weight:normal;font-size:4px;font-family:sans-serif;fill:#000000;fill-opacity:1;stroke:none"><tspan x="-67.48203230275509" y="-13.333333333333329">13</tspan></text><text id="text1423" x="-51.790242934956105" y="-53.67846096908266" style="font-style:normal;font-weight:normal;font-size:4px;font-family:sans-serif;fill:#000000;fill-opacity:1;stroke:none"><tspan x="-51.790242934956105" y="-53.67846096908266">14</tspan></text><text id="text1424" x="-22.66307065990918" y="-64.0287187078898" style="font-style:normal;font-weight:normal;font-size:4px;font-family:sans-serif;fill:#000000;fill-opacity:1;stroke:none"><tspan x="-22.66307065990918" y="-64.0287187078898">15</tspan></text><text id="text1425" x="22.059186955716488" y="24.401204912067698" style="font-style:normal;font-weight:normal;font-size:4px;font-family:sans-serif;fill:#000000;fill-opacity:1;stroke:none"><tspan x="22.059186955716488" y="24.401204912067698">16</tspan></text><text id="text1426" x="25.695641594138763" y="-28.318090430546444" style="font-style:normal;font-weight:normal;font-size:4px;font-family:sans-serif;fill:#000000;fill-opacity:1;stroke:none"><tspan x="25.695641594138763" y="-28.318090430546444">17</tspan></text><text id="text1427" x="-49.584197035550275" y="-25.160337153556213" style="font-style:normal;font-weight:normal;font-size:4px;font-family:sans-serif;fill:#000000;fill-opacity:1;stroke:none"><tspan x="-49.584197035550275" y="-25.160337153556213">18</tspan></text><text id="text1428" x="-25.914444929174596" y="-24.29963278756001" style="font-style:normal;font-weight:normal;font-size:4px;font-family:sans-serif;fill:#000000;fill-opacity:1;stroke:none"><tspan x="-25.914444929174596" y="-24.29963278756001">19</tspan></text><text id="text1429" x="-48.98904205957393" y="-4.792416203175565" style="font-style:normal;font-weight:normal;font-size:4px;font-family:sans-serif;fill:#000000;fill-opacity:1;stroke:none"><tspan x="-48.98904205957393" y="-4.792416203175565">20</tspan></text><text id="text1430" x="-3.0039430294445366" y="14.991138595196432" style="font-style:normal;font-weight:normal;font-size:4px;font-family:sans-serif;fill:#000000;fill-opacity:1;stroke:none"><tspan x="-3.0039430294445366" y="14.991138595196432">21</tspan></text><text id="text1431" x="-12.048885267516816" y="-6.536002365428397" style="font-style:normal;font-weight:normal;font-size:4px;font-family:sans-serif;fill:#000000;fill-opacity:1;stroke:none"><tspan x="-12.048885267516816" y="-6.536002365428397">22</tspan></text><text id="text1432" x="-26.958224045846087" y="19.252897703309344" style="font-style:normal;font-weight:normal;font-size:4px;font-family:sans-serif;fill:#000000;fill-opacity:1;stroke:none"><tspan x="-26.958224045846087" y="19.252897703309344">23</tspan></text><text id="text1433" x="-51.53091584664148" y="26.827305639663898" style="font-style:normal;font-weight:normal;font-size:4px;font-family:sans-serif;fill:#000000;fill-opacity:1;stroke:none"><tspan x="-51.53091584664148" y="26.827305639663898">24</tspan></text><text id="text1434" x="44.76978852717897" y="25.817879827987056" style="font-style:normal;font-weight:normal;font-size:4px;font-family:sans-serif;fill:#000000;fill-opacity:1;stroke:none"><tspan x="44.76978852717897" y="25.817879827987056">25</tspan></text><text id="text1435" x="-3.6419966032625273" y="41.43371933930717" style="font-style:normal;font-weight:normal;font-size:4px;font-family:sans-serif;fill:#000000;fill-opacity:1;stroke:none"><tspan x="-3.6419966032625273" y="41.43371933930717">26</tspan></text><text id="text1436" x="1.127735518289838" y="-45.61637885286196" style="font-style:normal;font-weight:normal;font-size:4px;font-family:sans-serif;fill:#000000;fill-opacity:1;stroke:none"><tspan x="1.127735518289838" y="-45.61637885286196">27</tspan></text><text id="text1437" x="19.852976665858208" y="1.0815786671141807" style="font-style:normal;font-weight:normal;font-size:4px;font-family:sans-serif;fill:#000000;fill-opacity:1;stroke:none"><tspan x="19.852976665858208" y="1.0815786671141807">28</tspan></text><text id="text1438" x="45.90610006319534" y="-12.093000087168805" style="font-style:normal;font-weight:normal;font-size:4px;font-family:sans-serif;fill:#000000;fill-opacity:1;stroke:none"><tspan x="45.90610006319534" y="-12.093000087168805">29</tspan></text><text id="text1439" x="-2.012111522538213" y="59.83978225930966" style="font-style:normal;font-weight:normal;font-size:4px;font-family:sans-serif;fill:#000000;fill-opacity:1;stroke:none"><tspan x="-2.012111522538213" y="59.83978225930966">30</tspan></text></g><g id="border" inkscape:label="Border" inkscape:groupmode="layer"><path id="path1440" d="m 0 80 69.282 -40 0 -80 -69.282 -40 -69.282 40 0 80 z" style="fill:none;stroke:#000000;stroke-width:0.3" /></g></g></svg>