# Blender v2.82 (sub 7) OBJ File: 'cube.blend'
# www.blender.org
o rect1457_rect1457.003
v -0.049500 0.000500 0.055000
v -0.049500 0.100481 0.055000
v 0.050502 0.100481 0.055000
v 0.050502 0.000500 0.055000
v -0.049500 0.000500 -0.055000
v -0.049500 0.100481 -0.055000
v 0.050502 0.100481 -0.055000
v 0.050502 0.000500 -0.055000
v -0.049500 0.000500 -0.055000
v -0.051045 -0.001045 -0.054755
v -0.052439 -0.002439 -0.054045
v -0.053545 -0.003545 -0.052939
v -0.054255 -0.004255 -0.051545
v -0.054500 -0.004500 -0.050000
v -0.049500 0.100481 -0.055000
v -0.051045 0.102026 -0.054755
v -0.052439 0.103420 -0.054045
v -0.053545 0.104526 -0.052939
v -0.054255 0.105236 -0.051545
v -0.054500 0.105481 -0.050000
v 0.050502 0.100481 -0.055000
v 0.052047 0.102026 -0.054755
v 0.053441 0.103420 -0.054045
v 0.054547 0.104526 -0.052939
v 0.055257 0.105236 -0.051545
v 0.055502 0.105481 -0.050000
v 0.050502 0.000500 -0.055000
v 0.052047 -0.001045 -0.054755
v 0.053441 -0.002439 -0.054045
v 0.054547 -0.003545 -0.052939
v 0.055257 -0.004255 -0.051545
v 0.055502 -0.004500 -0.050000
v -0.054500 -0.004500 -0.050000
v -0.054500 -0.004500 0.050000
v -0.054500 0.105481 -0.050000
v -0.054500 0.105481 0.050000
v 0.055502 0.105481 -0.050000
v 0.055502 0.105481 0.050000
v 0.055502 -0.004500 -0.050000
v 0.055502 -0.004500 0.050000
v -0.054500 -0.004500 0.050000
v -0.054255 -0.004255 0.051545
v -0.053545 -0.003545 0.052939
v -0.052439 -0.002439 0.054045
v -0.051045 -0.001045 0.054755
v -0.049500 0.000500 0.055000
v -0.054500 0.105481 0.050000
v -0.054255 0.105236 0.051545
v -0.053545 0.104526 0.052939
v -0.052439 0.103420 0.054045
v -0.051045 0.102026 0.054755
v -0.049500 0.100481 0.055000
v 0.055502 0.105481 0.050000
v 0.055257 0.105236 0.051545
v 0.054547 0.104526 0.052939
v 0.053441 0.103420 0.054045
v 0.052047 0.102026 0.054755
v 0.050502 0.100481 0.055000
v 0.055502 -0.004500 0.050000
v 0.055257 -0.004255 0.051545
v 0.054547 -0.003545 0.052939
v 0.053441 -0.002439 0.054045
v 0.052047 -0.001045 0.054755
v 0.050502 0.000500 0.055000
vt 0.000000 0.000000
vt 0.666667 0.000000
vt 0.333333 0.000000
vt 1.000000 0.000000
vt 0.666667 0.000000
vt 0.000000 0.000000
vt 0.333333 0.000000
vt 1.000000 0.000000
vt 0.250000 0.200000
vt 0.000000 0.000000
vt 0.000000 0.200000
vt 0.250000 0.400000
vt 0.000000 0.400000
vt 0.250000 0.600000
vt 0.000000 0.600000
vt 0.250000 0.800000
vt 0.000000 0.800000
vt 0.000000 1.000000
vt 0.500000 0.200000
vt 0.250000 0.000000
vt 0.500000 0.400000
vt 0.500000 0.600000
vt 0.500000 0.800000
vt 0.250000 1.000000
vt 0.750000 0.200000
vt 0.500000 0.000000
vt 0.750000 0.400000
vt 0.750000 0.600000
vt 0.750000 0.800000
vt 0.750000 1.000000
vt 0.500000 1.000000
vt 1.000000 0.200000
vt 0.750000 0.000000
vt 1.000000 0.400000
vt 1.000000 0.600000
vt 1.000000 0.800000
vt 1.000000 1.000000
vt 0.250000 1.000000
vt 0.000000 0.000000
vt 0.000000 1.000000
vt 0.500000 1.000000
vt 0.250000 0.000000
vt 0.750000 1.000000
vt 0.500000 0.000000
vt 1.000000 1.000000
vt 0.750000 0.000000
vt 0.250000 0.200000
vt 0.000000 0.000000
vt 0.000000 0.200000
vt 0.250000 0.400000
vt 0.000000 0.400000
vt 0.250000 0.600000
vt 0.000000 0.600000
vt 0.250000 0.800000
vt 0.000000 0.800000
vt 0.250000 1.000000
vt 0.000000 1.000000
vt 0.500000 0.200000
vt 0.250000 0.000000
vt 0.500000 0.600000
vt 0.500000 0.800000
vt 0.500000 1.000000
vt 0.750000 0.200000
vt 0.500000 0.000000
vt 0.750000 0.400000
vt 0.500000 0.400000
vt 0.750000 0.600000
vt 0.750000 1.000000
vt 1.000000 0.200000
vt 0.750000 0.000000
vt 1.000000 0.600000
vt 1.000000 0.800000
vt 0.750000 0.800000
vt 1.000000 1.000000
vt 1.000000 0.000000
vt 1.000000 0.000000
vt 1.000000 0.000000
vt 1.000000 0.400000
vn 0.0000 -0.0000 1.0000
vn 0.0000 0.0000 -1.0000
vn -0.1980 0.1980 -0.9600
vn -0.0787 -0.0787 -0.9938
vn -0.1980 -0.1980 -0.9600
vn -0.3610 0.3610 -0.8599
vn -0.3610 -0.3610 -0.8599
vn -0.5226 0.5226 -0.6736
vn -0.5226 -0.5226 -0.6736
vn -0.6543 0.6543 -0.3793
vn -0.6543 -0.6543 -0.3792
vn -0.6900 -0.6900 -0.2186
vn 0.1980 0.1980 -0.9600
vn -0.0787 0.0787 -0.9938
vn 0.3610 0.3610 -0.8599
vn 0.5226 0.5226 -0.6736
vn 0.6543 0.6543 -0.3793
vn -0.6900 0.6900 -0.2185
vn 0.1980 -0.1980 -0.9600
vn 0.0787 0.0787 -0.9938
vn 0.3610 -0.3610 -0.8599
vn 0.5226 -0.5226 -0.6736
vn 0.6543 -0.6543 -0.3793
vn 0.6900 -0.6900 -0.2186
vn 0.6900 0.6900 -0.2186
vn 0.0787 -0.0787 -0.9938
vn -0.7071 0.7071 0.0000
vn -0.7071 -0.7071 0.0000
vn 0.7071 0.7071 0.0000
vn 0.7071 -0.7071 0.0000
vn -0.6543 0.6543 0.3792
vn -0.6900 -0.6900 0.2185
vn -0.6543 -0.6543 0.3792
vn -0.5226 0.5226 0.6736
vn -0.5226 -0.5226 0.6736
vn -0.3610 0.3610 0.8599
vn -0.3610 -0.3610 0.8599
vn -0.1980 0.1980 0.9600
vn -0.1980 -0.1980 0.9600
vn -0.0787 0.0787 0.9938
vn -0.0787 -0.0787 0.9938
vn 0.6543 0.6543 0.3793
vn -0.6900 0.6900 0.2185
vn 0.3610 0.3610 0.8599
vn 0.1980 0.1980 0.9600
vn 0.0787 0.0787 0.9938
vn 0.6543 -0.6543 0.3793
vn 0.6900 0.6900 0.2186
vn 0.5226 -0.5226 0.6736
vn 0.5226 0.5226 0.6736
vn 0.3610 -0.3610 0.8599
vn 0.0787 -0.0787 0.9938
vn 0.6900 -0.6900 0.2186
vn 0.1980 -0.1980 0.9600
s off
f 1/1/1 3/2/1 2/3/1
f 1/1/1 4/4/1 3/2/1
f 7/5/2 5/6/2 6/7/2
f 8/8/2 5/6/2 7/5/2
s 1
f 16/9/3 9/10/4 10/11/5
f 17/12/6 10/11/5 11/13/7
f 18/14/8 11/13/7 12/15/9
f 19/16/10 12/15/9 13/17/11
f 14/18/12 19/16/10 13/17/11
f 22/19/13 15/20/14 16/9/3
f 23/21/15 16/9/3 17/12/6
f 24/22/16 17/12/6 18/14/8
f 25/23/17 18/14/8 19/16/10
f 20/24/18 25/23/17 19/16/10
f 28/25/19 21/26/20 22/19/13
f 29/27/21 22/19/13 23/21/15
f 30/28/22 23/21/15 24/22/16
f 31/29/23 24/22/16 25/23/17
f 32/30/24 25/23/17 26/31/25
f 10/32/5 27/33/26 28/25/19
f 11/34/7 28/25/19 29/27/21
f 12/35/9 29/27/21 30/28/22
f 13/36/11 30/28/22 31/29/23
f 14/37/12 31/29/23 32/30/24
f 36/38/27 33/39/28 34/40/28
f 38/41/29 35/42/27 36/38/27
f 40/43/30 37/44/29 38/41/29
f 34/45/28 39/46/30 40/43/30
f 48/47/31 41/48/32 42/49/33
f 49/50/34 42/49/33 43/51/35
f 50/52/36 43/51/35 44/53/37
f 51/54/38 44/53/37 45/55/39
f 52/56/40 45/55/39 46/57/41
f 54/58/42 47/59/43 48/47/31
f 49/50/34 54/58/42 48/47/31
f 56/60/44 49/50/34 50/52/36
f 57/61/45 50/52/36 51/54/38
f 58/62/46 51/54/38 52/56/40
f 60/63/47 53/64/48 54/58/42
f 61/65/49 54/58/42 55/66/50
f 62/67/51 55/66/50 56/60/44
f 57/61/45 62/67/51 56/60/44
f 64/68/52 57/61/45 58/62/46
f 42/69/33 59/70/53 60/63/47
f 61/65/49 42/69/33 60/63/47
f 44/71/37 61/65/49 62/67/51
f 45/72/39 62/67/51 63/73/54
f 46/74/41 63/73/54 64/68/52
f 16/9/3 15/20/14 9/10/4
f 17/12/6 16/9/3 10/11/5
f 18/14/8 17/12/6 11/13/7
f 19/16/10 18/14/8 12/15/9
f 14/18/12 20/24/18 19/16/10
f 22/19/13 21/26/20 15/20/14
f 23/21/15 22/19/13 16/9/3
f 24/22/16 23/21/15 17/12/6
f 25/23/17 24/22/16 18/14/8
f 20/24/18 26/31/25 25/23/17
f 28/25/19 27/33/26 21/26/20
f 29/27/21 28/25/19 22/19/13
f 30/28/22 29/27/21 23/21/15
f 31/29/23 30/28/22 24/22/16
f 32/30/24 31/29/23 25/23/17
f 10/32/5 9/75/4 27/33/26
f 11/34/7 10/32/5 28/25/19
f 12/35/9 11/34/7 29/27/21
f 13/36/11 12/35/9 30/28/22
f 14/37/12 13/36/11 31/29/23
f 36/38/27 35/42/27 33/39/28
f 38/41/29 37/44/29 35/42/27
f 40/43/30 39/46/30 37/44/29
f 34/45/28 33/76/28 39/46/30
f 48/47/31 47/59/43 41/48/32
f 49/50/34 48/47/31 42/49/33
f 50/52/36 49/50/34 43/51/35
f 51/54/38 50/52/36 44/53/37
f 52/56/40 51/54/38 45/55/39
f 54/58/42 53/64/48 47/59/43
f 49/50/34 55/66/50 54/58/42
f 56/60/44 55/66/50 49/50/34
f 57/61/45 56/60/44 50/52/36
f 58/62/46 57/61/45 51/54/38
f 60/63/47 59/70/53 53/64/48
f 61/65/49 60/63/47 54/58/42
f 62/67/51 61/65/49 55/66/50
f 57/61/45 63/73/54 62/67/51
f 64/68/52 63/73/54 57/61/45
f 42/69/33 41/77/32 59/70/53
f 61/65/49 43/78/35 42/69/33
f 44/71/37 43/78/35 61/65/49
f 45/72/39 44/71/37 62/67/51
f 46/74/41 45/72/39 63/73/54
