<?xml version='1.0' encoding='UTF-8'?>
<svg xmlns:ns0="http://www.w3.org/2000/svg" xmlns:ns1="http://sodipodi.sourceforge.net/DTD/sodipodi-0.dtd" version="1.1" id="svg_root" xmlns="http://www.w3.org/2000/svg" xmlns:sodipodi="http://sodipodi.sourceforge.net/DTD/sodipodi-0.dtd" xmlns:inkscape="http://www.inkscape.org/namespaces/inkscape" xmlns:xlink="http://www.w3.org/1999/xlink" width="215.9mm" height="279.4mm" viewBox="0 0 215.9 279.4"><defs><filter id="filterInnerGlowH" style="color-interpolation-filters:sRGB;" inkscape:label="filterInnerGlowH" x="0.41051782" y="0.41051782" width="0.16543989" height="0.17009096"><feFlood id="node1293" flood-opacity="1" flood-color="rgb(217,104,14)" result="flood" /><feComposite id="node1294" in="flood" in2="SourceGraphic" operator="out" result="composite1" /><feGaussianBlur id="node1295" in="composite1" stdDeviation="2.5" result="blur" /><feOffset id="node1296" dx="0" dy="0" result="offset" /><feComposite id="node1297" in="offset" in2="SourceGraphic" operator="atop" result="composite2" /></filter><filter id="filterInnerGlowM" style="color-interpolation-filters:sRGB;" inkscape:label="filterInnerGlowM" x="0.41051782" y="0.41051782" width="0.16543989" height="0.17009096"><feFlood id="node1298" flood-opacity="1" flood-color="rgb(220,174,16)" result="flood" /><feComposite id="node1299" in="flood" in2="SourceGraphic" operator="out" result="composite1" /><feGaussianBlur id="node1300" in="composite1" stdDeviation="2.5" result="blur" /><feOffset id="node1301" dx="0" dy="0" result="offset" /><feComposite id="node1302" in="offset" in2="SourceGraphic" operator="atop" result="composite2" /></filter><filter id="filterInnerGlowL" style="color-interpolation-filters:sRGB;" inkscape:label="filterInnerGlowL" x="0.41051782" y="0.41051782" width="0.16543989" height="0.17009096"><feFlood id="node1303" flood-opacity="1" flood-color="rgb(219,217,86)" result="flood" /><feComposite id="node1304" in="flood" in2="SourceGraphic" operator="out" result="composite1" /><feGaussianBlur id="node1305" in="composite1" stdDeviation="2.5" result="blur" /><feOffset id="node1306" dx="0" dy="0" result="offset" /><feComposite id="node1307" in="offset" in2="SourceGraphic" operator="atop" result="composite2" /></filter><filter id="filterInnerGlowR" style="color-interpolation-filters:sRGB;" inkscape:label="filterInnerGlowR" x="0.41051782" y="0.41051782" width="0.16543989" height="0.17009096"><feFlood id="node1308" flood-opacity="1" flood-color="rgb(111,161,232)" result="flood" /><feComposite id="node1309" in="flood" in2="SourceGraphic" operator="out" result="composite1" /><feGaussianBlur id="node1310" in="composite1" stdDeviation="2.0" result="blur" /><feOffset id="node1311" dx="0" dy="0" result="offset" /><feComposite id="node1312" in="offset" in2="SourceGraphic" operator="atop" result="composite2" /></filter><clipPath id="clippath-1315"><path id="path1314" d="m 0 80 69.282 -40 0 -80 -69.282 -40 -69.282 40 0 80 z z" /></clipPath><clipPath id="clippath-1317"><path id="path1316" d="m 0 80 69.282 -40 0 -80 -69.282 -40 -69.282 40 0 80 z z" /></clipPath></defs><g id="layer" inkscape:label="Layer" inkscape:groupmode="layer" transform="translate(107.95 120) scale(1, -1)"><g id="background" inkscape:label="Tile Background" inkscape:groupmode="layer"><path id="path1313" d="m 0 80 69.282 -40 0 -80 -69.282 -40 -69.282 40 0 80 z z" style="fill:#000000;stroke:none;stroke-width:0" /></g><g id="region-clip" inkscape:label="Region Clipped" inkscape:groupmode="layer" style="display:none"><g id="clipped-regions"><path id="clippedregion-0" d="m 14.0141 64.2732 -19.7122 1.17309 -5.90141 7.85673 11.5995 6.69697 17.3205 -10 z z" style="fill:#f0eaac;stroke:#000000;stroke-width:0.3" /><path id="clippedregion-1" d="m 60.7444 20 -11.6171 13.5818 -1.07592 9.64557 3.91015 6.77258 17.3205 -10 0 -20 z z" style="fill:#f0eaac;stroke:#000000;stroke-width:0.3" /><path id="clippedregion-2" d="m 46.6251 -40.7571 7.51032 20.7571 15.1466 -3.55271e-15 0 -20 -17.3205 -10 z z" style="fill:#f0eaac;stroke:#000000;stroke-width:0.3" /><path id="clippedregion-3" d="m -7.51461 -63.7209 11.7261 3.28315 9.79761 -3.82661 3.31145 -5.73559 -17.3205 -10 -11.5995 6.69697 z z" style="fill:#f0eaac;stroke:#000000;stroke-width:0.3" /><path id="clippedregion-4" d="m -64.5678 -25.909 9.53901 -10.7852 -4.09981 -9.16787 -10.1534 5.86207 0 13.5253 z z" style="fill:#f0ce76;stroke:#000000;stroke-width:0.3" /><path id="clippedregion-5" d="m -50.8605 34.4427 -3.7317 -6.20521 -14.6898 -1.76278 0 13.5253 10.1534 5.86207 z z" style="fill:#f0ce76;stroke:#000000;stroke-width:0.3" /><path id="clippedregion-6" d="m 48.0514 43.2274 -30.6217 8.20017 -3.41557 12.8456 3.30636 5.72679 34.641 -20 z z" style="fill:#f0eaac;stroke:#000000;stroke-width:0.3" /><path id="clippedregion-7" d="m 54.1354 -20 -7.48399 11.5371 14.0929 28.4629 8.53765 -3.55271e-15 0 -40 z z" style="fill:#f0eaac;stroke:#000000;stroke-width:0.3" /><path id="clippedregion-8" d="m 14.0091 -64.2644 17.7057 21.36 14.9103 2.14731 5.33642 -9.24294 -34.641 -20 z z" style="fill:#f0eaac;stroke:#000000;stroke-width:0.3" /><path id="clippedregion-9" d="m -28.5071 -50.488 20.9925 -13.2329 -4.08489 -9.58208 -24.3634 14.0662 z z" style="fill:#f0eaac;stroke:#000000;stroke-width:0.3" /><path id="clippedregion-10" d="m -55.0288 -36.6942 16.6452 1.26306 9.2422 -8.31205 0.63422 -6.74484 -7.4557 -8.74881 -23.1658 13.3748 z z" style="fill:#f0eaac;stroke:#000000;stroke-width:0.3" /><path id="clippedregion-11" d="m -61.0071 -1.98597 3.70453 -6.94597 -7.26521 -16.977 -4.7142 -0.565704 0 26.4747 z z" style="fill:#f0eaac;stroke:#000000;stroke-width:0.3" /><path id="clippedregion-12" d="m -54.5922 28.2374 3.42731 -13.2467 -9.84227 -16.9767 -8.27489 1.98597 0 26.4747 z z" style="fill:#f0eaac;stroke:#000000;stroke-width:0.3" /><path id="clippedregion-13" d="m -34.063 53.8903 -7.64154 -15.8094 -9.15597 -3.63833 -8.26814 11.4194 23.1658 13.3748 z z" style="fill:#f0eaac;stroke:#000000;stroke-width:0.3" /><path id="clippedregion-14" d="m -5.69808 65.4463 -9.72942 -13.8369 -18.6355 2.28089 -1.89987 5.3465 24.3634 14.0662 z z" style="fill:#f0eaac;stroke:#000000;stroke-width:0.3" /><path id="clippedregion-15" d="m -55.0288 -36.6942 -9.53901 10.7852 7.26521 16.977 20.2311 -4.02994 -1.31203 -22.4693 z z" style="fill:#ffffff;stroke:#000000;stroke-width:0.3" /><path id="clippedregion-16" d="m -61.0071 -1.98597 9.84227 16.9767 17.5877 -7.08344 2.71838 -16.0651 -6.21279 -4.80407 -20.2311 4.02994 z z" style="fill:#ffffff;stroke:#000000;stroke-width:0.3" /><path id="clippedregion-17" d="m 46.6514 -8.46293 7.48399 -11.5371 -7.51032 -20.7571 -14.9103 -2.14731 -18.567 16.2393 15.2903 22.7008 z z" style="fill:#ffffff;stroke:#000000;stroke-width:0.3" /><path id="clippedregion-18" d="m -38.3836 -35.4311 1.31203 22.4693 6.21279 4.80407 19.5607 -3.26652 5.97554 -14.7829 -23.8188 -17.536 z z" style="fill:#ffffff;stroke:#000000;stroke-width:0.3" /><path id="clippedregion-19" d="m -6.13864 29.4483 -9.28886 22.1612 9.72942 13.8369 19.7122 -1.17309 3.41557 -12.8456 -9.0282 -18.0463 z z" style="fill:#ffffff;stroke:#000000;stroke-width:0.3" /><path id="clippedregion-20" d="m 17.4297 51.4276 30.6217 -8.20017 1.07592 -9.64557 -25.3886 -14.2141 -15.3371 14.0135 z z" style="fill:#ffffff;stroke:#000000;stroke-width:0.3" /><path id="clippedregion-21" d="m 31.7148 -42.9044 -17.7057 -21.36 -9.79761 3.82661 -3.53644 31.2466 12.4728 2.52612 z z" style="fill:#ffffff;stroke:#000000;stroke-width:0.3" /><path id="clippedregion-22" d="m -29.1414 -43.7432 23.8188 17.536 5.99754 -2.98397 3.53644 -31.2466 -11.7261 -3.28315 -20.9925 13.2329 z z" style="fill:#ffffff;stroke:#000000;stroke-width:0.3" /><path id="clippedregion-23" d="m -11.2981 -11.4243 7.48174 12.9112 28.1563 -0.361769 4.09818 -5.08943 -15.2903 -22.7008 -12.4728 -2.52612 -5.99754 2.98397 z z" style="fill:#ffffff;stroke:#000000;stroke-width:0.3" /><path id="clippedregion-24" d="m -33.5771 7.90732 -17.5877 7.08344 -3.42731 13.2467 3.7317 6.20521 9.15597 3.63833 22.2786 -14.5996 z z" style="fill:#ffffff;stroke:#000000;stroke-width:0.3" /><path id="clippedregion-25" d="m -30.8588 -8.15782 -2.71838 16.0651 14.1512 15.5741 9.01928 0.932623 6.59033 -22.9271 -7.48174 -12.9112 z z" style="fill:#ffffff;stroke:#000000;stroke-width:0.3" /><path id="clippedregion-26" d="m 23.7387 19.3678 25.3886 14.2141 11.6171 -13.5818 -14.0929 -28.4629 -18.2133 4.49864 -4.09818 5.08943 z z" style="fill:#ffffff;stroke:#000000;stroke-width:0.3" /><path id="clippedregion-27" d="m -6.13864 29.4483 -4.26801 -5.03422 -9.01928 -0.932623 -22.2786 14.5996 7.64154 15.8094 18.6355 -2.28089 z z" style="fill:#ffffff;stroke:#000000;stroke-width:0.3" /><path id="clippedregion-28" d="m 8.40152 33.3813 15.3371 -14.0135 0.6013 -18.2426 -28.1563 0.361769 -6.59033 22.9271 4.26801 5.03422 z z" style="fill:#ffffff;stroke:#000000;stroke-width:0.3" /></g></g><g id="region-rounded-fill" inkscape:label="Region Rounded Fill" inkscape:groupmode="layer"><g id="region-rounded-fill-group" clip-path="url(#clippath-1315)"><path id="roundedregionfill-0" d="m -4.20073 65.3572 c -0.998234 0.0594056 -1.79764 0.488892 -2.39822 1.28846 l -10.2241 13.6116 c -0.600577 0.799567 -0.602846 1.60083 -0.00680603 2.40378 l 9.00755 12.1345 c 0.59604 0.802955 1.39406 1.20443 2.39406 1.20443 l 16.245 0 c 1 0 1.69062 -0.462237 2.07187 -1.38671 l 7.19576 -17.4488 c 0.381246 -0.924473 0.32187 -1.81972 -0.17813 -2.68575 l -5.14217 -8.90649 c -0.5 -0.866025 -1.24912 -1.26934 -2.24735 -1.20993 z z" style="fill:#f0eaac;stroke:none;stroke-width:0" /><path id="roundedregionfill-1" d="m 75.4932 58.4686 c 0.991241 0.132068 1.73686 -0.234911 2.23686 -1.10094 l 10.8168 -18.7353 c 0.5 -0.866025 0.445003 -1.69524 -0.164991 -2.48765 l -11.5132 -14.9561 c -0.609994 -0.792406 -1.41499 -1.18861 -2.41499 -1.18861 l -12.2093 3.55271e-15 c -1 0 -1.825 0.379967 -2.475 1.1399 l -9.66709 11.302 c -0.650001 0.759933 -1.03043 1.63682 -1.14129 2.63065 l -0.743345 6.66406 c -0.110858 0.993836 0.0837131 1.92377 0.583713 2.78979 l 5.74595 9.95229 c 0.5 0.866025 1.24562 1.36507 2.23686 1.49714 z z" style="fill:#f0eaac;stroke:none;stroke-width:0" /><path id="roundedregionfill-2" d="m 56.7842 -55.9759 c -0.991241 0.132068 -1.73686 0.631114 -2.23686 1.49714 l -7.17222 12.4226 c -0.5 0.866025 -0.579883 1.76921 -0.239648 2.70955 l 6.48962 17.936 c 0.340234 0.940341 1.01035 1.41051 2.01035 1.41051 l 18.8182 -3.55271e-15 c 1 0 1.805 -0.396203 2.41499 -1.18861 l 11.5132 -14.9561 c 0.609994 -0.792406 0.664991 -1.62162 0.164991 -2.48765 l -10.8168 -18.7353 c -0.5 -0.866025 -1.24562 -1.233 -2.23686 -1.10094 z z" style="fill:#f0eaac;stroke:none;stroke-width:0" /><path id="roundedregionfill-3" d="m 12.8887 -94.6133 c -0.381246 -0.924473 -1.07187 -1.38671 -2.07187 -1.38671 l -16.245 0 c -1 0 -1.79802 0.401478 -2.39406 1.20443 l -7.32523 9.86819 c -0.59604 0.802955 -0.697981 1.66438 -0.305824 2.58428 l 7.35047 17.2423 c 0.392157 0.919898 1.06972 1.51466 2.03269 1.78428 l 8.83716 2.47429 c 0.962967 0.269619 1.91019 0.222527 2.84166 -0.141276 l 7.00318 -2.7352 c 0.931476 -0.363803 1.64721 -0.978717 2.14721 -1.84474 l 5.14725 -8.91529 c 0.5 -0.866025 0.559377 -1.76127 0.17813 -2.68575 z z" style="fill:#f0eaac;stroke:none;stroke-width:0" /><path id="roundedregionfill-4" d="m -62.9856 -54.487 c -0.408233 -0.912878 -1.10905 -1.31196 -2.10245 -1.19726 l -13.0961 1.51221 c -0.993399 0.114708 -1.7401 0.605075 -2.2401 1.4711 l -5.4282 9.40192 c -0.5 0.866025 -0.55132 1.75787 -0.15396 2.67553 l 4.94972 11.4309 c 0.39736 0.917663 1.09248 1.43607 2.08535 1.55521 l 12.9143 1.54971 c 0.992877 0.119145 1.82057 -0.195811 2.48307 -0.944869 l 7.55149 -8.53806 c 0.662505 -0.749058 0.789641 -1.58003 0.381408 -2.4929 z z" style="fill:#f0ce76;stroke:none;stroke-width:0" /><path id="roundedregionfill-5" d="m -53.8191 29.5229 c -0.515366 -0.85697 -1.26949 -1.34503 -2.26236 -1.46417 l -21.7856 -2.61427 c -0.992877 -0.119145 -1.688 0.280114 -2.08535 1.19778 l -6.05407 13.9813 c -0.39736 0.917663 -0.34604 1.80951 0.15396 2.67553 l 5.4282 9.40192 c 0.5 0.866025 1.2467 1.35639 2.2401 1.4711 l 10.5427 1.21737 c 0.993399 0.114708 1.78333 -0.232928 2.36979 -1.04291 l 13.5316 -18.6889 c 0.586459 -0.809979 0.622006 -1.64345 0.106639 -2.50042 z z" style="fill:#f0ce76;stroke:none;stroke-width:0" /><path id="roundedregionfill-6" d="m 14.3996 62.8236 c -0.256965 0.966421 -0.135448 1.88264 0.364552 2.74867 l 5.14217 8.90649 c 0.5 0.866025 1.2488 1.3336 2.24641 1.40271 l 21.0634 1.45932 c 0.997609 0.0691164 1.71589 -0.345582 2.15483 -1.24409 l 9.26791 -18.9711 c 0.438948 -0.898513 0.408422 -1.78078 -0.0915783 -2.64681 l -5.74595 -9.95229 c -0.5 -0.866025 -1.23298 -1.1697 -2.19895 -0.911025 l -27.7238 7.42414 c -0.965964 0.258676 -1.57743 0.871224 -1.83439 1.83764 z z" style="fill:#f0eaac;stroke:none;stroke-width:0" /><path id="roundedregionfill-7" d="m 47.4678 -9.72135 c -0.544216 0.838945 -0.594464 1.7065 -0.150743 2.60267 l 12.7618 25.7744 c 0.443721 0.896165 1.16558 1.34425 2.16558 1.34425 l 12.2093 -3.55271e-15 c 1 0 1.77933 -0.414698 2.33799 -1.24409 l 11.7955 -17.5118 c 0.558661 -0.829396 0.558661 -1.65879 0 -2.48819 l -11.7955 -17.5118 c -0.558661 -0.829396 -1.33799 -1.24409 -2.33799 -1.24409 l -18.8182 3.55271e-15 c -1 0 -1.77211 0.419473 -2.31632 1.25842 z z" style="fill:#f0eaac;stroke:none;stroke-width:0" /><path id="roundedregionfill-8" d="m 45.371 -76.0967 c -0.438948 -0.898513 -1.15723 -1.31321 -2.15483 -1.24409 l -21.0634 1.45932 c -0.997609 0.0691164 -1.74641 0.536687 -2.24641 1.40271 l -5.14725 8.91529 c -0.5 0.866025 -0.430912 1.68398 0.207264 2.45387 l 15.7912 19.0504 c 0.638176 0.769891 1.45216 1.22611 2.44195 1.36865 l 11.941 1.71967 c 0.989788 0.142544 1.73468 -0.219197 2.23468 -1.08522 l 7.17222 -12.4226 c 0.5 -0.866025 0.530526 -1.74829 0.0915783 -2.64681 z z" style="fill:#f0eaac;stroke:none;stroke-width:0" /><path id="roundedregionfill-9" d="m -29.4801 -51.6297 c 0.648618 0.761114 1.3959 0.875043 2.24186 0.341785 l 18.4547 -11.6331 c 0.845953 -0.533257 1.07285 -1.25984 0.680694 -2.17973 l -7.35047 -17.2423 c -0.392157 -0.919898 -1.08822 -1.38362 -2.08819 -1.39116 l -13.2007 -0.0995366 c -0.999972 -0.00754003 -1.75731 0.417373 -2.27202 1.27474 l -8.66105 14.427 c -0.514708 0.857365 -0.447754 1.66661 0.200864 2.42772 z z" style="fill:#f0eaac;stroke:none;stroke-width:0" /><path id="roundedregionfill-10" d="m -62.6419 -57.0121 c -0.637398 0.770535 -0.751981 1.61224 -0.343748 2.52512 l 7.34448 16.4235 c 0.408233 0.912878 1.11092 1.40715 2.10805 1.48281 l 13.6538 1.03607 c 0.997133 0.0756635 1.86747 -0.220855 2.611 -0.889556 l 7.01161 -6.30595 c 0.743532 -0.668701 1.16211 -1.50086 1.25572 -2.49646 l 0.353368 -3.75802 c 0.0936174 -0.995608 -0.183883 -1.87397 -0.832501 -2.63508 l -11.9944 -14.0747 c -0.648618 -0.761114 -1.47287 -1.13432 -2.47276 -1.11961 l -9.20866 0.13546 c -0.999892 0.0147085 -1.81854 0.40733 -2.45594 1.17786 z z" style="fill:#f0eaac;stroke:none;stroke-width:0" /><path id="roundedregionfill-11" d="m -78.9714 -27.6374 c -0.992877 -0.119145 -1.74603 0.250345 -2.25947 1.10847 l -6.72623 11.2417 c -0.513439 0.858126 -0.531248 1.72642 -0.0534264 2.60487 l 7.54763 13.876 c 0.477822 0.878457 1.20293 1.201 2.17531 0.967626 l 15.8219 -3.79725 c 0.972387 -0.233373 1.69388 -0.791236 2.16446 -1.67359 l 2.29276 -4.29892 c 0.470589 -0.882353 0.509167 -1.78321 0.115735 -2.70256 l -6.08492 -14.219 c -0.393432 -0.919354 -1.08659 -1.4386 -2.07946 -1.55775 z z" style="fill:#f0eaac;stroke:none;stroke-width:0" /><path id="roundedregionfill-12" d="m -78.2876 2.16134 c -0.972387 0.233373 -1.65661 0.809174 -2.05266 1.7274 l -3.76712 8.73392 c -0.396051 0.918229 -0.37975 1.82908 0.0489036 2.73255 l 4.0591 8.55534 c 0.428653 0.903469 1.13942 1.41478 2.1323 1.53392 l 21.7856 2.61427 c 0.992877 0.119145 1.61456 -0.305343 1.86504 -1.27346 l 2.67587 -10.3423 c 0.250482 -0.968121 0.124944 -1.88474 -0.376612 -2.74987 l -8.3376 -14.3814 c -0.501557 -0.865125 -1.23853 -1.181 -2.21092 -0.947628 z z" style="fill:#f0eaac;stroke:none;stroke-width:0" /><path id="roundedregionfill-13" d="m -49.4665 34.9966 c -0.929316 -0.369285 -1.6872 -0.148938 -2.27366 0.661041 l -13.5316 18.6889 c -0.586459 0.809979 -0.584863 1.6188 0.00478995 2.42645 l 8.23055 11.2735 c 0.589652 0.807657 1.38351 1.18033 2.38156 1.11803 l 14.0111 -0.874645 c 0.998057 -0.0623037 1.6645 -0.564594 1.99934 -1.50687 l 4.07912 -11.4793 c 0.334835 -0.942277 0.28466 -1.86359 -0.150525 -2.76393 l -6.33599 -13.1083 c -0.435185 -0.900341 -1.11744 -1.53515 -2.04675 -1.90444 z z" style="fill:#f0eaac;stroke:none;stroke-width:0" /><path id="roundedregionfill-14" d="m -14.5647 52.8365 c -0.575192 -0.818018 -1.35908 -1.16628 -2.35168 -1.04479 l -15.6577 1.91643 c -0.992593 0.121489 -1.65631 0.653371 -1.99114 1.59565 l -4.07912 11.4793 c -0.334835 0.942277 -0.206577 1.81662 0.384776 2.62303 l 7.14388 9.74193 c 0.591353 0.806413 1.38511 1.25339 2.38127 1.34094 l 9.51632 0.836363 c 0.99616 0.0875497 1.79453 -0.268459 2.39511 -1.06803 l 10.2241 -13.6116 c 0.600577 -0.799567 0.613269 -1.60836 0.0380774 -2.42638 z z" style="fill:#f0eaac;stroke:none;stroke-width:0" /><path id="roundedregionfill-15" d="m -53.5331 -36.5807 c -0.997133 -0.0756635 -1.82695 0.261034 -2.48946 1.01009 l -7.55149 8.53806 c -0.662505 0.749058 -0.797041 1.58326 -0.403609 2.50262 l 6.08492 14.219 c 0.393432 0.919354 1.08051 1.28135 2.06125 1.08599 l 17.2889 -3.44387 c 0.980732 -0.195357 1.44195 -0.792186 1.38366 -1.79049 l -1.13715 -19.4744 c -0.0582928 -0.9983 -0.586006 -1.53528 -1.58314 -1.61094 z z" style="fill:#ffffff;stroke:none;stroke-width:0" /><path id="roundedregionfill-16" d="m -60.3013 -3.3095 c -0.470589 0.882353 -0.455105 1.75609 0.0464516 2.62122 l 8.3376 14.3814 c 0.501557 0.865125 1.21613 1.11089 2.14373 0.737306 l 14.8049 -5.96267 c 0.927595 -0.373588 1.47481 -1.05337 1.64165 -2.03936 l 2.21787 -13.1072 c 0.166838 -0.985984 -0.145284 -1.78483 -0.936367 -2.39654 l -3.83954 -2.96894 c -0.791083 -0.611709 -1.67699 -0.819884 -2.65772 -0.624527 l -17.2889 3.44387 c -0.980732 0.195357 -1.70639 0.734212 -2.17698 1.61656 z z" style="fill:#ffffff;stroke:none;stroke-width:0" /><path id="roundedregionfill-17" d="m 45.1952 -8.10325 c 0.970825 -0.239791 1.72834 -0.779159 2.27256 -1.6181 l 5.85134 -9.02023 c 0.544216 -0.838945 0.646207 -1.72859 0.305973 -2.66893 l -6.48962 -17.936 c -0.340234 -0.940341 -1.00525 -1.48178 -1.99503 -1.62433 l -11.941 -1.71967 c -0.989788 -0.142544 -1.86104 0.115358 -2.61375 0.773706 l -16.3088 14.2642 c -0.752714 0.658348 -0.849745 1.40222 -0.291093 2.23162 l 13.6144 20.2126 c 0.558652 0.829402 1.32339 1.12421 2.29422 0.884417 z z" style="fill:#ffffff;stroke:none;stroke-width:0" /><path id="roundedregionfill-18" d="m -37.2683 -36.4342 c -0.743532 0.668701 -1.08615 1.5022 -1.02786 2.5005 l 1.13715 19.4744 c 0.0582928 0.9983 0.482981 1.8033 1.27406 2.41501 l 3.83954 2.96894 c 0.791083 0.611709 1.6798 0.835207 2.66614 0.670494 l 16.6017 -2.77238 c 0.986342 -0.164713 1.66689 -0.71063 2.04165 -1.63775 l 4.85126 -12.0015 c 0.374761 -0.927122 0.159494 -1.68712 -0.6458 -2.28 l -21.403 -15.7573 c -0.805294 -0.592875 -1.57971 -0.554962 -2.32324 0.113738 z z" style="fill:#ffffff;stroke:none;stroke-width:0" /><path id="roundedregionfill-19" d="m -4.69068 29.8399 c -0.965309 -0.26111 -1.64125 0.0694663 -2.02781 0.991728 l -8.12916 19.3944 c -0.386566 0.922262 -0.292253 1.7924 0.282939 2.61042 l 8.00385 11.3828 c 0.575192 0.818018 1.3619 1.19732 2.36014 1.13792 l 16.7175 -0.994871 c 0.998234 -0.0594056 1.62583 -0.572319 1.8828 -1.53874 l 2.64468 -9.94636 c 0.256965 -0.966421 0.161741 -1.89679 -0.285673 -2.79112 l -7.68596 -15.3633 c -0.447414 -0.894327 -1.15378 -1.47205 -2.11908 -1.73316 z z" style="fill:#ffffff;stroke:none;stroke-width:0" /><path id="roundedregionfill-20" d="m 16.7586 50.0861 c 0.447414 0.894327 1.1541 1.21215 2.12007 0.953477 l 27.7238 -7.42414 c 0.965964 -0.258676 1.50438 -0.884931 1.61523 -1.87877 l 0.743345 -6.66406 c 0.110858 -0.993836 -0.269992 -1.73501 -1.14255 -2.22352 l -22.771 -12.7485 c -0.872558 -0.48851 -1.67796 -0.395499 -2.4162 0.279034 l -13.1224 11.9899 c -0.738245 0.674533 -0.883661 1.45896 -0.436247 2.35329 z z" style="fill:#ffffff;stroke:none;stroke-width:0" /><path id="roundedregionfill-21" d="m 30.5857 -41.9168 c 0.752714 -0.658348 0.809983 -1.37247 0.171807 -2.14236 l -15.7912 -19.0504 c -0.638176 -0.769891 -1.423 -0.972935 -2.35448 -0.609132 l -7.00318 2.7352 c -0.931476 0.363803 -1.45344 1.04253 -1.5659 2.03619 l -3.19906 28.2656 c -0.11246 0.993656 0.32136 1.58973 1.30146 1.78824 l 9.53247 1.93062 c 0.980101 0.198501 1.84651 -0.0314225 2.59922 -0.68977 z z" style="fill:#ffffff;stroke:none;stroke-width:0" /><path id="roundedregionfill-22" d="m -29.0009 -45.2366 c -0.0936174 0.995608 0.262221 1.78985 1.06752 2.38273 l 21.403 15.7573 c 0.805294 0.592875 1.6556 0.66659 2.5509 0.221144 l 3.31161 -1.64764 c 0.895309 -0.445446 1.39919 -1.165 1.51165 -2.15865 l 3.19906 -28.2656 c 0.11246 -0.993656 -0.312793 -1.62529 -1.27576 -1.89491 l -8.83716 -2.47429 c -0.962967 -0.269619 -1.86743 -0.137799 -2.71338 0.395458 l -18.4547 11.6331 c -0.845953 0.533257 -1.31574 1.29769 -1.40936 2.2933 z z" style="fill:#ffffff;stroke:none;stroke-width:0" /><path id="roundedregionfill-23" d="m -10.7359 -12.815 c -0.374761 0.927122 -0.311452 1.8233 0.189926 2.68852 l 5.97761 10.3156 c 0.501378 0.865228 1.25203 1.29142 2.25194 1.27857 l 25.1565 -0.323226 c 0.999917 -0.0128476 1.81346 -0.40871 2.44064 -1.18759 l 2.21665 -2.7528 c 0.627177 -0.778877 0.661439 -1.58302 0.102787 -2.41242 l -13.6144 -20.2126 c -0.558652 -0.829402 -1.32803 -1.34335 -2.30813 -1.54185 l -9.53247 -1.93062 c -0.980101 -0.198501 -1.91781 -0.0750285 -2.81311 0.370417 l -3.31161 1.64764 c -0.895309 0.445446 -1.53034 1.13173 -1.9051 2.05885 z z" style="fill:#ffffff;stroke:none;stroke-width:0" /><path id="roundedregionfill-24" d="m -32.5684 9.01748 c -0.672489 -0.740107 -1.47253 -0.923367 -2.40013 -0.549779 l -14.8049 5.96267 c -0.927595 0.373588 -1.51663 1.04444 -1.76711 2.01256 l -2.67587 10.3423 c -0.250482 0.968121 -0.11804 1.88067 0.397327 2.73764 l 2.1856 3.6343 c 0.515366 0.85697 1.23771 1.4701 2.16702 1.83938 l 6.36802 2.53048 c 0.929316 0.369285 1.81218 0.279872 2.64858 -0.26824 l 19.7694 -12.9552 c 0.836405 -0.548111 0.918364 -1.19222 0.245875 -1.93233 z z" style="fill:#ffffff;stroke:none;stroke-width:0" /><path id="roundedregionfill-25" d="m -29.3792 -8.40489 c -0.986342 0.164713 -1.56293 0.740062 -1.72977 1.72605 l -2.21787 13.1072 c -0.166838 0.985984 0.0859867 1.84903 0.758476 2.58914 l 12.1337 13.3538 c 0.672489 0.740107 1.50608 1.16159 2.50078 1.26444 l 6.03519 0.624058 c 0.994696 0.102855 1.63017 -0.326259 1.90643 -1.28734 l 5.76155 -20.0439 c 0.27626 -0.961083 0.163701 -1.87424 -0.337677 -2.73947 l -5.97761 -10.3156 c -0.501378 -0.865228 -1.24524 -1.21549 -2.23158 -1.05077 z z" style="fill:#ffffff;stroke:none;stroke-width:0" /><path id="roundedregionfill-26" d="m 23.7881 17.8686 c -0.0329433 0.999457 0.386864 1.74344 1.25942 2.23195 l 22.771 12.7485 c 0.872558 0.48851 1.63384 0.352798 2.28384 -0.407135 l 9.66709 -11.302 c 0.650001 -0.759933 0.753141 -1.58798 0.30942 -2.48415 l -12.7618 -25.7744 c -0.443721 -0.896165 -1.15099 -1.22435 -2.12182 -0.984561 l -15.3008 3.77926 c -0.970825 0.239791 -1.76983 0.749125 -2.397 1.528 l -2.21665 2.7528 c -0.627177 0.778877 -0.957237 1.66804 -0.99018 2.6675 z z" style="fill:#ffffff;stroke:none;stroke-width:0" /><path id="roundedregionfill-27" d="m -6.71849 30.8317 c 0.386566 -0.922262 0.256513 -1.76478 -0.39016 -2.52754 l -2.32799 -2.74592 c -0.646673 -0.762767 -1.46736 -1.19558 -2.46205 -1.29843 l -6.03519 -0.624058 c -0.994696 -0.102855 -1.91025 0.119773 -2.74665 0.667885 l -19.7694 12.9552 c -0.836405 0.548111 -1.03702 1.27234 -0.60183 2.17268 l 6.33599 13.1083 c 0.435185 0.900341 1.14907 1.28977 2.14167 1.16828 l 15.6577 -1.91643 c 0.992593 -0.121489 1.68217 -0.643364 2.06874 -1.56563 z z" style="fill:#ffffff;stroke:none;stroke-width:0" /><path id="roundedregionfill-28" d="m 6.95355 32.9896 c 0.965309 0.26111 1.81709 0.0543982 2.55533 -0.620134 l 13.1224 -11.9899 c 0.738245 -0.674533 1.12384 -1.51153 1.15678 -2.51098 l 0.50247 -15.2443 c 0.0329433 -0.999457 -0.450544 -1.49276 -1.45046 -1.47991 l -25.1565 0.323226 c -0.999917 0.0128476 -1.63801 0.499813 -1.91427 1.4609 l -5.76155 20.0439 c -0.27626 0.961083 -0.0910536 1.82301 0.555619 2.58578 l 2.32799 2.74592 c 0.646673 0.762767 1.45266 1.27471 2.41797 1.53582 z z" style="fill:#ffffff;stroke:none;stroke-width:0" /></g></g><g id="region-rounded-stroke" inkscape:label="Region Rounded Stroke" inkscape:groupmode="layer"><g id="region-rounded-stroke-group" clip-path="url(#clippath-1317)"><path id="roundedregionstroke-0" d="m -4.20073 65.3572 c -0.998234 0.0594056 -1.79764 0.488892 -2.39822 1.28846 l -10.2241 13.6116 c -0.600577 0.799567 -0.602846 1.60083 -0.00680603 2.40378 l 9.00755 12.1345 c 0.59604 0.802955 1.39406 1.20443 2.39406 1.20443 l 16.245 0 c 1 0 1.69062 -0.462237 2.07187 -1.38671 l 7.19576 -17.4488 c 0.381246 -0.924473 0.32187 -1.81972 -0.17813 -2.68575 l -5.14217 -8.90649 c -0.5 -0.866025 -1.24912 -1.26934 -2.24735 -1.20993 z z" style="fill:none;stroke:#000000;stroke-width:1.0" /><path id="roundedregionstroke-1" d="m 75.4932 58.4686 c 0.991241 0.132068 1.73686 -0.234911 2.23686 -1.10094 l 10.8168 -18.7353 c 0.5 -0.866025 0.445003 -1.69524 -0.164991 -2.48765 l -11.5132 -14.9561 c -0.609994 -0.792406 -1.41499 -1.18861 -2.41499 -1.18861 l -12.2093 3.55271e-15 c -1 0 -1.825 0.379967 -2.475 1.1399 l -9.66709 11.302 c -0.650001 0.759933 -1.03043 1.63682 -1.14129 2.63065 l -0.743345 6.66406 c -0.110858 0.993836 0.0837131 1.92377 0.583713 2.78979 l 5.74595 9.95229 c 0.5 0.866025 1.24562 1.36507 2.23686 1.49714 z z" style="fill:none;stroke:#000000;stroke-width:1.0" /><path id="roundedregionstroke-2" d="m 56.7842 -55.9759 c -0.991241 0.132068 -1.73686 0.631114 -2.23686 1.49714 l -7.17222 12.4226 c -0.5 0.866025 -0.579883 1.76921 -0.239648 2.70955 l 6.48962 17.936 c 0.340234 0.940341 1.01035 1.41051 2.01035 1.41051 l 18.8182 -3.55271e-15 c 1 0 1.805 -0.396203 2.41499 -1.18861 l 11.5132 -14.9561 c 0.609994 -0.792406 0.664991 -1.62162 0.164991 -2.48765 l -10.8168 -18.7353 c -0.5 -0.866025 -1.24562 -1.233 -2.23686 -1.10094 z z" style="fill:none;stroke:#000000;stroke-width:1.0" /><path id="roundedregionstroke-3" d="m 12.8887 -94.6133 c -0.381246 -0.924473 -1.07187 -1.38671 -2.07187 -1.38671 l -16.245 0 c -1 0 -1.79802 0.401478 -2.39406 1.20443 l -7.32523 9.86819 c -0.59604 0.802955 -0.697981 1.66438 -0.305824 2.58428 l 7.35047 17.2423 c 0.392157 0.919898 1.06972 1.51466 2.03269 1.78428 l 8.83716 2.47429 c 0.962967 0.269619 1.91019 0.222527 2.84166 -0.141276 l 7.00318 -2.7352 c 0.931476 -0.363803 1.64721 -0.978717 2.14721 -1.84474 l 5.14725 -8.91529 c 0.5 -0.866025 0.559377 -1.76127 0.17813 -2.68575 z z" style="fill:none;stroke:#000000;stroke-width:1.0" /><path id="roundedregionstroke-4" d="m -62.9856 -54.487 c -0.408233 -0.912878 -1.10905 -1.31196 -2.10245 -1.19726 l -13.0961 1.51221 c -0.993399 0.114708 -1.7401 0.605075 -2.2401 1.4711 l -5.4282 9.40192 c -0.5 0.866025 -0.55132 1.75787 -0.15396 2.67553 l 4.94972 11.4309 c 0.39736 0.917663 1.09248 1.43607 2.08535 1.55521 l 12.9143 1.54971 c 0.992877 0.119145 1.82057 -0.195811 2.48307 -0.944869 l 7.55149 -8.53806 c 0.662505 -0.749058 0.789641 -1.58003 0.381408 -2.4929 z z" style="fill:none;stroke:#000000;stroke-width:1.0" /><path id="roundedregionstroke-5" d="m -53.8191 29.5229 c -0.515366 -0.85697 -1.26949 -1.34503 -2.26236 -1.46417 l -21.7856 -2.61427 c -0.992877 -0.119145 -1.688 0.280114 -2.08535 1.19778 l -6.05407 13.9813 c -0.39736 0.917663 -0.34604 1.80951 0.15396 2.67553 l 5.4282 9.40192 c 0.5 0.866025 1.2467 1.35639 2.2401 1.4711 l 10.5427 1.21737 c 0.993399 0.114708 1.78333 -0.232928 2.36979 -1.04291 l 13.5316 -18.6889 c 0.586459 -0.809979 0.622006 -1.64345 0.106639 -2.50042 z z" style="fill:none;stroke:#000000;stroke-width:1.0" /><path id="roundedregionstroke-6" d="m 14.3996 62.8236 c -0.256965 0.966421 -0.135448 1.88264 0.364552 2.74867 l 5.14217 8.90649 c 0.5 0.866025 1.2488 1.3336 2.24641 1.40271 l 21.0634 1.45932 c 0.997609 0.0691164 1.71589 -0.345582 2.15483 -1.24409 l 9.26791 -18.9711 c 0.438948 -0.898513 0.408422 -1.78078 -0.0915783 -2.64681 l -5.74595 -9.95229 c -0.5 -0.866025 -1.23298 -1.1697 -2.19895 -0.911025 l -27.7238 7.42414 c -0.965964 0.258676 -1.57743 0.871224 -1.83439 1.83764 z z" style="fill:none;stroke:#000000;stroke-width:1.0" /><path id="roundedregionstroke-7" d="m 47.4678 -9.72135 c -0.544216 0.838945 -0.594464 1.7065 -0.150743 2.60267 l 12.7618 25.7744 c 0.443721 0.896165 1.16558 1.34425 2.16558 1.34425 l 12.2093 -3.55271e-15 c 1 0 1.77933 -0.414698 2.33799 -1.24409 l 11.7955 -17.5118 c 0.558661 -0.829396 0.558661 -1.65879 0 -2.48819 l -11.7955 -17.5118 c -0.558661 -0.829396 -1.33799 -1.24409 -2.33799 -1.24409 l -18.8182 3.55271e-15 c -1 0 -1.77211 0.419473 -2.31632 1.25842 z z" style="fill:none;stroke:#000000;stroke-width:1.0" /><path id="roundedregionstroke-8" d="m 45.371 -76.0967 c -0.438948 -0.898513 -1.15723 -1.31321 -2.15483 -1.24409 l -21.0634 1.45932 c -0.997609 0.0691164 -1.74641 0.536687 -2.24641 1.40271 l -5.14725 8.91529 c -0.5 0.866025 -0.430912 1.68398 0.207264 2.45387 l 15.7912 19.0504 c 0.638176 0.769891 1.45216 1.22611 2.44195 1.36865 l 11.941 1.71967 c 0.989788 0.142544 1.73468 -0.219197 2.23468 -1.08522 l 7.17222 -12.4226 c 0.5 -0.866025 0.530526 -1.74829 0.0915783 -2.64681 z z" style="fill:none;stroke:#000000;stroke-width:1.0" /><path id="roundedregionstroke-9" d="m -29.4801 -51.6297 c 0.648618 0.761114 1.3959 0.875043 2.24186 0.341785 l 18.4547 -11.6331 c 0.845953 -0.533257 1.07285 -1.25984 0.680694 -2.17973 l -7.35047 -17.2423 c -0.392157 -0.919898 -1.08822 -1.38362 -2.08819 -1.39116 l -13.2007 -0.0995366 c -0.999972 -0.00754003 -1.75731 0.417373 -2.27202 1.27474 l -8.66105 14.427 c -0.514708 0.857365 -0.447754 1.66661 0.200864 2.42772 z z" style="fill:none;stroke:#000000;stroke-width:1.0" /><path id="roundedregionstroke-10" d="m -62.6419 -57.0121 c -0.637398 0.770535 -0.751981 1.61224 -0.343748 2.52512 l 7.34448 16.4235 c 0.408233 0.912878 1.11092 1.40715 2.10805 1.48281 l 13.6538 1.03607 c 0.997133 0.0756635 1.86747 -0.220855 2.611 -0.889556 l 7.01161 -6.30595 c 0.743532 -0.668701 1.16211 -1.50086 1.25572 -2.49646 l 0.353368 -3.75802 c 0.0936174 -0.995608 -0.183883 -1.87397 -0.832501 -2.63508 l -11.9944 -14.0747 c -0.648618 -0.761114 -1.47287 -1.13432 -2.47276 -1.11961 l -9.20866 0.13546 c -0.999892 0.0147085 -1.81854 0.40733 -2.45594 1.17786 z z" style="fill:none;stroke:#000000;stroke-width:1.0" /><path id="roundedregionstroke-11" d="m -78.9714 -27.6374 c -0.992877 -0.119145 -1.74603 0.250345 -2.25947 1.10847 l -6.72623 11.2417 c -0.513439 0.858126 -0.531248 1.72642 -0.0534264 2.60487 l 7.54763 13.876 c 0.477822 0.878457 1.20293 1.201 2.17531 0.967626 l 15.8219 -3.79725 c 0.972387 -0.233373 1.69388 -0.791236 2.16446 -1.67359 l 2.29276 -4.29892 c 0.470589 -0.882353 0.509167 -1.78321 0.115735 -2.70256 l -6.08492 -14.219 c -0.393432 -0.919354 -1.08659 -1.4386 -2.07946 -1.55775 z z" style="fill:none;stroke:#000000;stroke-width:1.0" /><path id="roundedregionstroke-12" d="m -78.2876 2.16134 c -0.972387 0.233373 -1.65661 0.809174 -2.05266 1.7274 l -3.76712 8.73392 c -0.396051 0.918229 -0.37975 1.82908 0.0489036 2.73255 l 4.0591 8.55534 c 0.428653 0.903469 1.13942 1.41478 2.1323 1.53392 l 21.7856 2.61427 c 0.992877 0.119145 1.61456 -0.305343 1.86504 -1.27346 l 2.67587 -10.3423 c 0.250482 -0.968121 0.124944 -1.88474 -0.376612 -2.74987 l -8.3376 -14.3814 c -0.501557 -0.865125 -1.23853 -1.181 -2.21092 -0.947628 z z" style="fill:none;stroke:#000000;stroke-width:1.0" /><path id="roundedregionstroke-13" d="m -49.4665 34.9966 c -0.929316 -0.369285 -1.6872 -0.148938 -2.27366 0.661041 l -13.5316 18.6889 c -0.586459 0.809979 -0.584863 1.6188 0.00478995 2.42645 l 8.23055 11.2735 c 0.589652 0.807657 1.38351 1.18033 2.38156 1.11803 l 14.0111 -0.874645 c 0.998057 -0.0623037 1.6645 -0.564594 1.99934 -1.50687 l 4.07912 -11.4793 c 0.334835 -0.942277 0.28466 -1.86359 -0.150525 -2.76393 l -6.33599 -13.1083 c -0.435185 -0.900341 -1.11744 -1.53515 -2.04675 -1.90444 z z" style="fill:none;stroke:#000000;stroke-width:1.0" /><path id="roundedregionstroke-14" d="m -14.5647 52.8365 c -0.575192 -0.818018 -1.35908 -1.16628 -2.35168 -1.04479 l -15.6577 1.91643 c -0.992593 0.121489 -1.65631 0.653371 -1.99114 1.59565 l -4.07912 11.4793 c -0.334835 0.942277 -0.206577 1.81662 0.384776 2.62303 l 7.14388 9.74193 c 0.591353 0.806413 1.38511 1.25339 2.38127 1.34094 l 9.51632 0.836363 c 0.99616 0.0875497 1.79453 -0.268459 2.39511 -1.06803 l 10.2241 -13.6116 c 0.600577 -0.799567 0.613269 -1.60836 0.0380774 -2.42638 z z" style="fill:none;stroke:#000000;stroke-width:1.0" /><path id="roundedregionstroke-15" d="m -53.5331 -36.5807 c -0.997133 -0.0756635 -1.82695 0.261034 -2.48946 1.01009 l -7.55149 8.53806 c -0.662505 0.749058 -0.797041 1.58326 -0.403609 2.50262 l 6.08492 14.219 c 0.393432 0.919354 1.08051 1.28135 2.06125 1.08599 l 17.2889 -3.44387 c 0.980732 -0.195357 1.44195 -0.792186 1.38366 -1.79049 l -1.13715 -19.4744 c -0.0582928 -0.9983 -0.586006 -1.53528 -1.58314 -1.61094 z z" style="fill:none;stroke:#000000;stroke-width:1.0" /><path id="roundedregionstroke-16" d="m -60.3013 -3.3095 c -0.470589 0.882353 -0.455105 1.75609 0.0464516 2.62122 l 8.3376 14.3814 c 0.501557 0.865125 1.21613 1.11089 2.14373 0.737306 l 14.8049 -5.96267 c 0.927595 -0.373588 1.47481 -1.05337 1.64165 -2.03936 l 2.21787 -13.1072 c 0.166838 -0.985984 -0.145284 -1.78483 -0.936367 -2.39654 l -3.83954 -2.96894 c -0.791083 -0.611709 -1.67699 -0.819884 -2.65772 -0.624527 l -17.2889 3.44387 c -0.980732 0.195357 -1.70639 0.734212 -2.17698 1.61656 z z" style="fill:none;stroke:#000000;stroke-width:1.0" /><path id="roundedregionstroke-17" d="m 45.1952 -8.10325 c 0.970825 -0.239791 1.72834 -0.779159 2.27256 -1.6181 l 5.85134 -9.02023 c 0.544216 -0.838945 0.646207 -1.72859 0.305973 -2.66893 l -6.48962 -17.936 c -0.340234 -0.940341 -1.00525 -1.48178 -1.99503 -1.62433 l -11.941 -1.71967 c -0.989788 -0.142544 -1.86104 0.115358 -2.61375 0.773706 l -16.3088 14.2642 c -0.752714 0.658348 -0.849745 1.40222 -0.291093 2.23162 l 13.6144 20.2126 c 0.558652 0.829402 1.32339 1.12421 2.29422 0.884417 z z" style="fill:none;stroke:#000000;stroke-width:1.0" /><path id="roundedregionstroke-18" d="m -37.2683 -36.4342 c -0.743532 0.668701 -1.08615 1.5022 -1.02786 2.5005 l 1.13715 19.4744 c 0.0582928 0.9983 0.482981 1.8033 1.27406 2.41501 l 3.83954 2.96894 c 0.791083 0.611709 1.6798 0.835207 2.66614 0.670494 l 16.6017 -2.77238 c 0.986342 -0.164713 1.66689 -0.71063 2.04165 -1.63775 l 4.85126 -12.0015 c 0.374761 -0.927122 0.159494 -1.68712 -0.6458 -2.28 l -21.403 -15.7573 c -0.805294 -0.592875 -1.57971 -0.554962 -2.32324 0.113738 z z" style="fill:none;stroke:#000000;stroke-width:1.0" /><path id="roundedregionstroke-19" d="m -4.69068 29.8399 c -0.965309 -0.26111 -1.64125 0.0694663 -2.02781 0.991728 l -8.12916 19.3944 c -0.386566 0.922262 -0.292253 1.7924 0.282939 2.61042 l 8.00385 11.3828 c 0.575192 0.818018 1.3619 1.19732 2.36014 1.13792 l 16.7175 -0.994871 c 0.998234 -0.0594056 1.62583 -0.572319 1.8828 -1.53874 l 2.64468 -9.94636 c 0.256965 -0.966421 0.161741 -1.89679 -0.285673 -2.79112 l -7.68596 -15.3633 c -0.447414 -0.894327 -1.15378 -1.47205 -2.11908 -1.73316 z z" style="fill:none;stroke:#000000;stroke-width:1.0" /><path id="roundedregionstroke-20" d="m 16.7586 50.0861 c 0.447414 0.894327 1.1541 1.21215 2.12007 0.953477 l 27.7238 -7.42414 c 0.965964 -0.258676 1.50438 -0.884931 1.61523 -1.87877 l 0.743345 -6.66406 c 0.110858 -0.993836 -0.269992 -1.73501 -1.14255 -2.22352 l -22.771 -12.7485 c -0.872558 -0.48851 -1.67796 -0.395499 -2.4162 0.279034 l -13.1224 11.9899 c -0.738245 0.674533 -0.883661 1.45896 -0.436247 2.35329 z z" style="fill:none;stroke:#000000;stroke-width:1.0" /><path id="roundedregionstroke-21" d="m 30.5857 -41.9168 c 0.752714 -0.658348 0.809983 -1.37247 0.171807 -2.14236 l -15.7912 -19.0504 c -0.638176 -0.769891 -1.423 -0.972935 -2.35448 -0.609132 l -7.00318 2.7352 c -0.931476 0.363803 -1.45344 1.04253 -1.5659 2.03619 l -3.19906 28.2656 c -0.11246 0.993656 0.32136 1.58973 1.30146 1.78824 l 9.53247 1.93062 c 0.980101 0.198501 1.84651 -0.0314225 2.59922 -0.68977 z z" style="fill:none;stroke:#000000;stroke-width:1.0" /><path id="roundedregionstroke-22" d="m -29.0009 -45.2366 c -0.0936174 0.995608 0.262221 1.78985 1.06752 2.38273 l 21.403 15.7573 c 0.805294 0.592875 1.6556 0.66659 2.5509 0.221144 l 3.31161 -1.64764 c 0.895309 -0.445446 1.39919 -1.165 1.51165 -2.15865 l 3.19906 -28.2656 c 0.11246 -0.993656 -0.312793 -1.62529 -1.27576 -1.89491 l -8.83716 -2.47429 c -0.962967 -0.269619 -1.86743 -0.137799 -2.71338 0.395458 l -18.4547 11.6331 c -0.845953 0.533257 -1.31574 1.29769 -1.40936 2.2933 z z" style="fill:none;stroke:#000000;stroke-width:1.0" /><path id="roundedregionstroke-23" d="m -10.7359 -12.815 c -0.374761 0.927122 -0.311452 1.8233 0.189926 2.68852 l 5.97761 10.3156 c 0.501378 0.865228 1.25203 1.29142 2.25194 1.27857 l 25.1565 -0.323226 c 0.999917 -0.0128476 1.81346 -0.40871 2.44064 -1.18759 l 2.21665 -2.7528 c 0.627177 -0.778877 0.661439 -1.58302 0.102787 -2.41242 l -13.6144 -20.2126 c -0.558652 -0.829402 -1.32803 -1.34335 -2.30813 -1.54185 l -9.53247 -1.93062 c -0.980101 -0.198501 -1.91781 -0.0750285 -2.81311 0.370417 l -3.31161 1.64764 c -0.895309 0.445446 -1.53034 1.13173 -1.9051 2.05885 z z" style="fill:none;stroke:#000000;stroke-width:1.0" /><path id="roundedregionstroke-24" d="m -32.5684 9.01748 c -0.672489 -0.740107 -1.47253 -0.923367 -2.40013 -0.549779 l -14.8049 5.96267 c -0.927595 0.373588 -1.51663 1.04444 -1.76711 2.01256 l -2.67587 10.3423 c -0.250482 0.968121 -0.11804 1.88067 0.397327 2.73764 l 2.1856 3.6343 c 0.515366 0.85697 1.23771 1.4701 2.16702 1.83938 l 6.36802 2.53048 c 0.929316 0.369285 1.81218 0.279872 2.64858 -0.26824 l 19.7694 -12.9552 c 0.836405 -0.548111 0.918364 -1.19222 0.245875 -1.93233 z z" style="fill:none;stroke:#000000;stroke-width:1.0" /><path id="roundedregionstroke-25" d="m -29.3792 -8.40489 c -0.986342 0.164713 -1.56293 0.740062 -1.72977 1.72605 l -2.21787 13.1072 c -0.166838 0.985984 0.0859867 1.84903 0.758476 2.58914 l 12.1337 13.3538 c 0.672489 0.740107 1.50608 1.16159 2.50078 1.26444 l 6.03519 0.624058 c 0.994696 0.102855 1.63017 -0.326259 1.90643 -1.28734 l 5.76155 -20.0439 c 0.27626 -0.961083 0.163701 -1.87424 -0.337677 -2.73947 l -5.97761 -10.3156 c -0.501378 -0.865228 -1.24524 -1.21549 -2.23158 -1.05077 z z" style="fill:none;stroke:#000000;stroke-width:1.0" /><path id="roundedregionstroke-26" d="m 23.7881 17.8686 c -0.0329433 0.999457 0.386864 1.74344 1.25942 2.23195 l 22.771 12.7485 c 0.872558 0.48851 1.63384 0.352798 2.28384 -0.407135 l 9.66709 -11.302 c 0.650001 -0.759933 0.753141 -1.58798 0.30942 -2.48415 l -12.7618 -25.7744 c -0.443721 -0.896165 -1.15099 -1.22435 -2.12182 -0.984561 l -15.3008 3.77926 c -0.970825 0.239791 -1.76983 0.749125 -2.397 1.528 l -2.21665 2.7528 c -0.627177 0.778877 -0.957237 1.66804 -0.99018 2.6675 z z" style="fill:none;stroke:#000000;stroke-width:1.0" /><path id="roundedregionstroke-27" d="m -6.71849 30.8317 c 0.386566 -0.922262 0.256513 -1.76478 -0.39016 -2.52754 l -2.32799 -2.74592 c -0.646673 -0.762767 -1.46736 -1.19558 -2.46205 -1.29843 l -6.03519 -0.624058 c -0.994696 -0.102855 -1.91025 0.119773 -2.74665 0.667885 l -19.7694 12.9552 c -0.836405 0.548111 -1.03702 1.27234 -0.60183 2.17268 l 6.33599 13.1083 c 0.435185 0.900341 1.14907 1.28977 2.14167 1.16828 l 15.6577 -1.91643 c 0.992593 -0.121489 1.68217 -0.643364 2.06874 -1.56563 z z" style="fill:none;stroke:#000000;stroke-width:1.0" /><path id="roundedregionstroke-28" d="m 6.95355 32.9896 c 0.965309 0.26111 1.81709 0.0543982 2.55533 -0.620134 l 13.1224 -11.9899 c 0.738245 -0.674533 1.12384 -1.51153 1.15678 -2.51098 l 0.50247 -15.2443 c 0.0329433 -0.999457 -0.450544 -1.49276 -1.45046 -1.47991 l -25.1565 0.323226 c -0.999917 0.0128476 -1.63801 0.499813 -1.91427 1.4609 l -5.76155 20.0439 c -0.27626 0.961083 -0.0910536 1.82301 0.555619 2.58578 l 2.32799 2.74592 c 0.646673 0.762767 1.45266 1.27471 2.41797 1.53582 z z" style="fill:none;stroke:#000000;stroke-width:1.0" /></g></g><g id="region" inkscape:label="Region" inkscape:groupmode="layer" style="display:none"><path id="region-0" d="m 14.0141 64.2732 6.64217 11.5046 -8.3395 20.2222 -19.245 0 -10.7957 -14.5434 12.0258 -16.0103 z z" style="fill:#ffffff;stroke:#000000;stroke-width:0.3" /><path id="region-1" d="m 55.2973 55.7778 -7.24595 -12.5504 1.07592 -9.64557 11.6171 -13.5818 15.2093 -3.55271e-15 13.3432 17.3333 -12.3168 21.3333 z z" style="fill:#ffffff;stroke:#000000;stroke-width:0.3" /><path id="region-2" d="m 55.2973 -55.7778 -8.67222 15.0207 7.51032 20.7571 21.8182 -3.55271e-15 13.3432 -17.3333 -12.3168 -21.3333 z z" style="fill:#ffffff;stroke:#000000;stroke-width:0.3" /><path id="region-3" d="m 20.6563 -75.7778 -6.64725 11.5134 -9.79761 3.82661 -11.7261 -3.28315 -8.52694 -20.002 9.11335 -12.2771 19.245 0 z z" style="fill:#ffffff;stroke:#000000;stroke-width:0.3" /><path id="region-4" d="m -63.598 -55.8563 -16.0763 1.85634 -6.9282 12 6.1418 14.1839 15.8929 1.90715 9.53901 -10.7852 z z" style="fill:#ffffff;stroke:#000000;stroke-width:0.3" /><path id="region-5" d="m -50.8605 34.4427 -15.2909 21.1188 -13.5229 -1.56149 -6.9282 -12 7.24615 -16.7343 24.7642 2.9717 z z" style="fill:#ffffff;stroke:#000000;stroke-width:0.3" /><path id="region-6" d="m 17.4297 51.4276 30.6217 -8.20017 7.24595 12.5504 -10.5848 21.6667 -24.0563 -1.66667 -6.64217 -11.5046 z z" style="fill:#ffffff;stroke:#000000;stroke-width:0.3" /><path id="region-7" d="m 46.6514 -8.46293 14.0929 28.4629 15.2093 -3.55271e-15 13.4715 -20 -13.4715 -20 -21.8182 3.55271e-15 z z" style="fill:#ffffff;stroke:#000000;stroke-width:0.3" /><path id="region-8" d="m 44.7126 -77.4444 -24.0563 1.66667 -6.64725 11.5134 17.7057 21.36 14.9103 2.14731 8.67222 -15.0207 z z" style="fill:#ffffff;stroke:#000000;stroke-width:0.3" /><path id="region-9" d="m -42.4474 -66.846 10.2052 -16.9991 16.2006 0.122157 8.52694 20.002 -20.9925 13.2329 z z" style="fill:#ffffff;stroke:#000000;stroke-width:0.3" /><path id="region-10" d="m -63.598 -55.8563 8.56917 19.1621 16.6452 1.26306 9.2422 -8.31205 0.63422 -6.74484 -13.9402 -16.358 -12.2083 0.179585 z z" style="fill:#ffffff;stroke:#000000;stroke-width:0.3" /><path id="region-11" d="m -64.5678 -25.909 7.26521 16.977 -3.70453 6.94597 -18.739 4.49737 -8.9811 -16.5114 8.26655 -13.8161 z z" style="fill:#ffffff;stroke:#000000;stroke-width:0.3" /><path id="region-12" d="m -79.7462 2.5114 -4.95527 11.4886 5.34506 11.2657 24.7642 2.9717 3.42731 -13.2467 -9.84227 -16.9767 z z" style="fill:#ffffff;stroke:#000000;stroke-width:0.3" /><path id="region-13" d="m -50.8605 34.4427 -15.2909 21.1188 9.9995 13.6965 17.0053 -1.06156 5.08363 -14.3061 -7.64154 -15.8094 z z" style="fill:#ffffff;stroke:#000000;stroke-width:0.3" /><path id="region-14" d="m -15.4275 51.6094 -18.6355 2.28089 -5.08363 14.3061 8.91793 12.1612 12.5048 1.09901 12.0258 -16.0103 z z" style="fill:#ffffff;stroke:#000000;stroke-width:0.3" /><path id="region-15" d="m -55.0288 -36.6942 -9.53901 10.7852 7.26521 16.977 20.2311 -4.02994 -1.31203 -22.4693 z z" style="fill:#ffffff;stroke:#000000;stroke-width:0.3" /><path id="region-16" d="m -57.3026 -8.93195 20.2311 -4.02994 6.21279 4.80407 -2.71838 16.0651 -17.5877 7.08344 -9.84227 -16.9767 z z" style="fill:#ffffff;stroke:#000000;stroke-width:0.3" /><path id="region-17" d="m 46.6514 -8.46293 7.48399 -11.5371 -7.51032 -20.7571 -14.9103 -2.14731 -18.567 16.2393 15.2903 22.7008 z z" style="fill:#ffffff;stroke:#000000;stroke-width:0.3" /><path id="region-18" d="m -29.1414 -43.7432 23.8188 17.536 -5.97554 14.7829 -19.5607 3.26652 -6.21279 -4.80407 -1.31203 -22.4693 z z" style="fill:#ffffff;stroke:#000000;stroke-width:0.3" /><path id="region-19" d="m 8.40152 33.3813 9.0282 18.0463 -3.41557 12.8456 -19.7122 1.17309 -9.72942 -13.8369 9.28886 -22.1612 z z" style="fill:#ffffff;stroke:#000000;stroke-width:0.3" /><path id="region-20" d="m 8.40152 33.3813 15.3371 -14.0135 25.3886 14.2141 -1.07592 9.64557 -30.6217 8.20017 z z" style="fill:#ffffff;stroke:#000000;stroke-width:0.3" /><path id="region-21" d="m 31.7148 -42.9044 -17.7057 -21.36 -9.79761 3.82661 -3.53644 31.2466 12.4728 2.52612 z z" style="fill:#ffffff;stroke:#000000;stroke-width:0.3" /><path id="region-22" d="m -29.1414 -43.7432 23.8188 17.536 5.99754 -2.98397 3.53644 -31.2466 -11.7261 -3.28315 -20.9925 13.2329 z z" style="fill:#ffffff;stroke:#000000;stroke-width:0.3" /><path id="region-23" d="m -11.2981 -11.4243 7.48174 12.9112 28.1563 -0.361769 4.09818 -5.08943 -15.2903 -22.7008 -12.4728 -2.52612 -5.99754 2.98397 z z" style="fill:#ffffff;stroke:#000000;stroke-width:0.3" /><path id="region-24" d="m -19.4259 23.4814 -22.2786 14.5996 -9.15597 -3.63833 -3.7317 -6.20521 3.42731 -13.2467 17.5877 -7.08344 z z" style="fill:#ffffff;stroke:#000000;stroke-width:0.3" /><path id="region-25" d="m -11.2981 -11.4243 7.48174 12.9112 -6.59033 22.9271 -9.01928 -0.932623 -14.1512 -15.5741 2.71838 -16.0651 z z" style="fill:#ffffff;stroke:#000000;stroke-width:0.3" /><path id="region-26" d="m 23.7387 19.3678 25.3886 14.2141 11.6171 -13.5818 -14.0929 -28.4629 -18.2133 4.49864 -4.09818 5.08943 z z" style="fill:#ffffff;stroke:#000000;stroke-width:0.3" /><path id="region-27" d="m -6.13864 29.4483 -4.26801 -5.03422 -9.01928 -0.932623 -22.2786 14.5996 7.64154 15.8094 18.6355 -2.28089 z z" style="fill:#ffffff;stroke:#000000;stroke-width:0.3" /><path id="region-28" d="m 8.40152 33.3813 15.3371 -14.0135 0.6013 -18.2426 -28.1563 0.361769 -6.59033 22.9271 4.26801 5.03422 z z" style="fill:#ffffff;stroke:#000000;stroke-width:0.3" /></g><g id="unmod-region" inkscape:label="Unmodified Region" inkscape:groupmode="layer" style="display:none"><path id="unmodregion-0" d="m 14.0141 64.2732 6.64217 11.5046 -8.3395 20.2222 -19.245 0 -10.7957 -14.5434 12.0258 -16.0103 z z" style="fill:#ffffff;stroke:#000000;stroke-width:0.3" /><path id="unmodregion-1" d="m 55.2973 55.7778 -7.24595 -12.5504 1.07592 -9.64557 11.6171 -13.5818 15.2093 -3.55271e-15 13.3432 17.3333 -12.3168 21.3333 z z" style="fill:#ffffff;stroke:#000000;stroke-width:0.3" /><path id="unmodregion-2" d="m 55.2973 -55.7778 -8.67222 15.0207 7.51032 20.7571 21.8182 -3.55271e-15 13.3432 -17.3333 -12.3168 -21.3333 z z" style="fill:#ffffff;stroke:#000000;stroke-width:0.3" /><path id="unmodregion-3" d="m 20.6563 -75.7778 -6.64725 11.5134 -9.79761 3.82661 -11.7261 -3.28315 -8.52694 -20.002 9.11335 -12.2771 19.245 0 z z" style="fill:#ffffff;stroke:#000000;stroke-width:0.3" /><path id="unmodregion-4" d="m -63.598 -55.8563 -16.0763 1.85634 -6.9282 12 6.1418 14.1839 15.8929 1.90715 9.53901 -10.7852 z z" style="fill:#ffffff;stroke:#000000;stroke-width:0.3" /><path id="unmodregion-5" d="m -50.8605 34.4427 -15.2909 21.1188 -13.5229 -1.56149 -6.9282 -12 7.24615 -16.7343 24.7642 2.9717 z z" style="fill:#ffffff;stroke:#000000;stroke-width:0.3" /><path id="unmodregion-6" d="m 17.4297 51.4276 30.6217 -8.20017 7.24595 12.5504 -10.5848 21.6667 -24.0563 -1.66667 -6.64217 -11.5046 z z" style="fill:#ffffff;stroke:#000000;stroke-width:0.3" /><path id="unmodregion-7" d="m 46.6514 -8.46293 14.0929 28.4629 15.2093 -3.55271e-15 13.4715 -20 -13.4715 -20 -21.8182 3.55271e-15 z z" style="fill:#ffffff;stroke:#000000;stroke-width:0.3" /><path id="unmodregion-8" d="m 44.7126 -77.4444 -24.0563 1.66667 -6.64725 11.5134 17.7057 21.36 14.9103 2.14731 8.67222 -15.0207 z z" style="fill:#ffffff;stroke:#000000;stroke-width:0.3" /><path id="unmodregion-9" d="m -42.4474 -66.846 10.2052 -16.9991 16.2006 0.122157 8.52694 20.002 -20.9925 13.2329 z z" style="fill:#ffffff;stroke:#000000;stroke-width:0.3" /><path id="unmodregion-10" d="m -63.598 -55.8563 8.56917 19.1621 16.6452 1.26306 9.2422 -8.31205 0.63422 -6.74484 -13.9402 -16.358 -12.2083 0.179585 z z" style="fill:#ffffff;stroke:#000000;stroke-width:0.3" /><path id="unmodregion-11" d="m -64.5678 -25.909 7.26521 16.977 -3.70453 6.94597 -18.739 4.49737 -8.9811 -16.5114 8.26655 -13.8161 z z" style="fill:#ffffff;stroke:#000000;stroke-width:0.3" /><path id="unmodregion-12" d="m -79.7462 2.5114 -4.95527 11.4886 5.34506 11.2657 24.7642 2.9717 3.42731 -13.2467 -9.84227 -16.9767 z z" style="fill:#ffffff;stroke:#000000;stroke-width:0.3" /><path id="unmodregion-13" d="m -50.8605 34.4427 -15.2909 21.1188 9.9995 13.6965 17.0053 -1.06156 5.08363 -14.3061 -7.64154 -15.8094 z z" style="fill:#ffffff;stroke:#000000;stroke-width:0.3" /><path id="unmodregion-14" d="m -15.4275 51.6094 -18.6355 2.28089 -5.08363 14.3061 8.91793 12.1612 12.5048 1.09901 12.0258 -16.0103 z z" style="fill:#ffffff;stroke:#000000;stroke-width:0.3" /><path id="unmodregion-15" d="m -55.0288 -36.6942 -9.53901 10.7852 7.26521 16.977 20.2311 -4.02994 -1.31203 -22.4693 z z" style="fill:#ffffff;stroke:#000000;stroke-width:0.3" /><path id="unmodregion-16" d="m -57.3026 -8.93195 20.2311 -4.02994 6.21279 4.80407 -2.71838 16.0651 -17.5877 7.08344 -9.84227 -16.9767 z z" style="fill:#ffffff;stroke:#000000;stroke-width:0.3" /><path id="unmodregion-17" d="m 46.6514 -8.46293 7.48399 -11.5371 -7.51032 -20.7571 -14.9103 -2.14731 -18.567 16.2393 15.2903 22.7008 z z" style="fill:#ffffff;stroke:#000000;stroke-width:0.3" /><path id="unmodregion-18" d="m -29.1414 -43.7432 23.8188 17.536 -5.97554 14.7829 -19.5607 3.26652 -6.21279 -4.80407 -1.31203 -22.4693 z z" style="fill:#ffffff;stroke:#000000;stroke-width:0.3" /><path id="unmodregion-19" d="m 8.40152 33.3813 9.0282 18.0463 -3.41557 12.8456 -19.7122 1.17309 -9.72942 -13.8369 9.28886 -22.1612 z z" style="fill:#ffffff;stroke:#000000;stroke-width:0.3" /><path id="unmodregion-20" d="m 8.40152 33.3813 15.3371 -14.0135 25.3886 14.2141 -1.07592 9.64557 -30.6217 8.20017 z z" style="fill:#ffffff;stroke:#000000;stroke-width:0.3" /><path id="unmodregion-21" d="m 31.7148 -42.9044 -17.7057 -21.36 -9.79761 3.82661 -3.53644 31.2466 12.4728 2.52612 z z" style="fill:#ffffff;stroke:#000000;stroke-width:0.3" /><path id="unmodregion-22" d="m -29.1414 -43.7432 23.8188 17.536 5.99754 -2.98397 3.53644 -31.2466 -11.7261 -3.28315 -20.9925 13.2329 z z" style="fill:#ffffff;stroke:#000000;stroke-width:0.3" /><path id="unmodregion-23" d="m -11.2981 -11.4243 7.48174 12.9112 28.1563 -0.361769 4.09818 -5.08943 -15.2903 -22.7008 -12.4728 -2.52612 -5.99754 2.98397 z z" style="fill:#ffffff;stroke:#000000;stroke-width:0.3" /><path id="unmodregion-24" d="m -19.4259 23.4814 -22.2786 14.5996 -9.15597 -3.63833 -3.7317 -6.20521 3.42731 -13.2467 17.5877 -7.08344 z z" style="fill:#ffffff;stroke:#000000;stroke-width:0.3" /><path id="unmodregion-25" d="m -11.2981 -11.4243 7.48174 12.9112 -6.59033 22.9271 -9.01928 -0.932623 -14.1512 -15.5741 2.71838 -16.0651 z z" style="fill:#ffffff;stroke:#000000;stroke-width:0.3" /><path id="unmodregion-26" d="m 23.7387 19.3678 25.3886 14.2141 11.6171 -13.5818 -14.0929 -28.4629 -18.2133 4.49864 -4.09818 5.08943 z z" style="fill:#ffffff;stroke:#000000;stroke-width:0.3" /><path id="unmodregion-27" d="m -6.13864 29.4483 -4.26801 -5.03422 -9.01928 -0.932623 -22.2786 14.5996 7.64154 15.8094 18.6355 -2.28089 z z" style="fill:#ffffff;stroke:#000000;stroke-width:0.3" /><path id="unmodregion-28" d="m 8.40152 33.3813 15.3371 -14.0135 0.6013 -18.2426 -28.1563 0.361769 -6.59033 22.9271 4.26801 5.03422 z z" style="fill:#ffffff;stroke:#000000;stroke-width:0.3" /></g><g id="seeds" inkscape:label="Seeds" inkscape:groupmode="layer" style="display:none"><circle id="seed-0" cx="0.0" cy="80.0" r="1.0" style="fill:#000000;stroke:none;stroke-width:0" /><circle id="seed-1" cx="69.28203230275508" cy="40.0" r="1.0" style="fill:#000000;stroke:none;stroke-width:0" /><circle id="seed-2" cx="69.28203230275508" cy="-40.0" r="1.0" style="fill:#000000;stroke:none;stroke-width:0" /><circle id="seed-3" cx="0.0" cy="-80.0" r="1.0" style="fill:#000000;stroke:none;stroke-width:0" /><circle id="seed-4" cx="-69.28203230275508" cy="-40.0" r="1.0" style="fill:#000000;stroke:none;stroke-width:0" /><circle id="seed-5" cx="-69.28203230275508" cy="40.0" r="1.0" style="fill:#000000;stroke:none;stroke-width:0" /><circle id="seed-6" cx="34.64101615137754" cy="60.0" r="1.0" style="fill:#000000;stroke:none;stroke-width:0" /><circle id="seed-7" cx="69.28203230275508" cy="0.0" r="1.0" style="fill:#000000;stroke:none;stroke-width:0" /><circle id="seed-8" cx="34.64101615137754" cy="-60.0" r="1.0" style="fill:#000000;stroke:none;stroke-width:0" /><circle id="seed-9" cx="-24.46307065990918" cy="-69.5712812921102" r="1.0" style="fill:#000000;stroke:none;stroke-width:0" /><circle id="seed-10" cx="-47.99024293495611" cy="-49.521539030917346" r="1.0" style="fill:#000000;stroke:none;stroke-width:0" /><circle id="seed-11" cx="-72.48203230275509" cy="-13.333333333333336" r="1.0" style="fill:#000000;stroke:none;stroke-width:0" /><circle id="seed-12" cx="-66.08203230275508" cy="13.333333333333329" r="1.0" style="fill:#000000;stroke:none;stroke-width:0" /><circle id="seed-13" cx="-50.390242934956106" cy="53.67846096908266" r="1.0" style="fill:#000000;stroke:none;stroke-width:0" /><circle id="seed-14" cx="-21.263070659909182" cy="64.0287187078898" r="1.0" style="fill:#000000;stroke:none;stroke-width:0" /><circle id="seed-15" cx="-50.006394434040764" cy="-22.95165035590638" r="1.0" style="fill:#000000;stroke:none;stroke-width:0" /><circle id="seed-16" cx="-45.191146273748615" cy="1.2218313542039092" r="1.0" style="fill:#000000;stroke:none;stroke-width:0" /><circle id="seed-17" cx="29.698109597696764" cy="-25.677733495337964" r="1.0" style="fill:#000000;stroke:none;stroke-width:0" /><circle id="seed-18" cx="-25.387287843724362" cy="-24.38921099665821" r="1.0" style="fill:#000000;stroke:none;stroke-width:0" /><circle id="seed-19" cx="-1.766306231239303" cy="50.31951344266322" r="1.0" style="fill:#000000;stroke:none;stroke-width:0" /><circle id="seed-20" cx="28.053696207422785" cy="35.40116663533425" r="1.0" style="fill:#000000;stroke:none;stroke-width:0" /><circle id="seed-21" cx="14.373011440917997" cy="-43.199502334111855" r="1.0" style="fill:#000000;stroke:none;stroke-width:0" /><circle id="seed-22" cx="-9.545727534195889" cy="-45.90658649714601" r="1.0" style="fill:#000000;stroke:none;stroke-width:0" /><circle id="seed-23" cx="7.84288529611473" cy="-10.956921770334263" r="1.0" style="fill:#000000;stroke:none;stroke-width:0" /><circle id="seed-24" cx="-37.31571541148798" cy="20.776034949881183" r="1.0" style="fill:#000000;stroke:none;stroke-width:0" /><circle id="seed-25" cx="-20.410163940579025" cy="5.415023718745977" r="1.0" style="fill:#000000;stroke:none;stroke-width:0" /><circle id="seed-26" cx="39.662768811739184" cy="14.665476737956846" r="1.0" style="fill:#000000;stroke:none;stroke-width:0" /><circle id="seed-27" cx="-24.086061220777104" cy="40.96418093900825" r="1.0" style="fill:#000000;stroke:none;stroke-width:0" /><circle id="seed-28" cx="8.158755406898187" cy="13.627066124868337" r="1.0" style="fill:#000000;stroke:none;stroke-width:0" /></g><g id="centroids" inkscape:label="Centroids" inkscape:groupmode="layer" style="display:none"><circle id="centroid-0" cx="2.4116426632153494" cy="80.27122511734994" r="1.0" style="fill:#008080;stroke:none;stroke-width:0" /><circle id="centroid-1" cx="67.7804388683352" cy="39.176148697434115" r="1.0" style="fill:#008080;stroke:none;stroke-width:0" /><circle id="centroid-2" cx="67.1705844767359" cy="-38.636214416866814" r="1.0" style="fill:#008080;stroke:none;stroke-width:0" /><circle id="centroid-3" cx="2.5353978676398374" cy="-79.10774708932253" r="1.0" style="fill:#008080;stroke:none;stroke-width:0" /><circle id="centroid-4" cx="-71.00294674642635" cy="-40.66136851993666" r="1.0" style="fill:#008080;stroke:none;stroke-width:0" /><circle id="centroid-5" cx="-69.87099827578463" cy="39.53613144749859" r="1.0" style="fill:#008080;stroke:none;stroke-width:0" /><circle id="centroid-6" cx="34.719234722524995" cy="61.09933494928863" r="1.0" style="fill:#008080;stroke:none;stroke-width:0" /><circle id="centroid-7" cx="67.71307563888965" cy="-1.177995610140218" r="1.0" style="fill:#008080;stroke:none;stroke-width:0" /><circle id="centroid-8" cx="35.73047307132293" cy="-60.28085083435476" r="1.0" style="fill:#008080;stroke:none;stroke-width:0" /><circle id="centroid-9" cx="-25.030878218819726" cy="-68.72635613736398" r="1.0" style="fill:#008080;stroke:none;stroke-width:0" /><circle id="centroid-10" cx="-46.07074515498387" cy="-50.8421217121404" r="1.0" style="fill:#008080;stroke:none;stroke-width:0" /><circle id="centroid-11" cx="-73.03279965502766" cy="-12.843576228666993" r="1.0" style="fill:#008080;stroke:none;stroke-width:0" /><circle id="centroid-12" cx="-67.53201402531309" cy="13.961965645638822" r="1.0" style="fill:#008080;stroke:none;stroke-width:0" /><circle id="centroid-13" cx="-49.08018458593606" cy="53.68907095653531" r="1.0" style="fill:#008080;stroke:none;stroke-width:0" /><circle id="centroid-14" cx="-23.018749356961752" cy="66.1696485844014" r="1.0" style="fill:#008080;stroke:none;stroke-width:0" /><circle id="centroid-15" cx="-49.67594382453614" cy="-23.24222106256971" r="1.0" style="fill:#008080;stroke:none;stroke-width:0" /><circle id="centroid-16" cx="-45.273658259705755" cy="-0.16757957593011627" r="1.0" style="fill:#008080;stroke:none;stroke-width:0" /><circle id="centroid-17" cx="34.98557146471039" cy="-23.755334305228136" r="1.0" style="fill:#008080;stroke:none;stroke-width:0" /><circle id="centroid-18" cx="-24.08394832355335" cy="-24.221104292492626" r="1.0" style="fill:#008080;stroke:none;stroke-width:0" /><circle id="centroid-19" cx="1.2442019586775617" cy="49.06863296036351" r="1.0" style="fill:#008080;stroke:none;stroke-width:0" /><circle id="centroid-20" cx="28.120070690781212" cy="36.205648549269135" r="1.0" style="fill:#008080;stroke:none;stroke-width:0" /><circle id="centroid-21" cx="13.564048308953847" cy="-44.47516549896577" r="1.0" style="fill:#008080;stroke:none;stroke-width:0" /><circle id="centroid-22" cx="-10.093784535548323" cy="-46.080777261872115" r="1.0" style="fill:#008080;stroke:none;stroke-width:0" /><circle id="centroid-23" cx="7.098348048211926" cy="-11.96367656465333" r="1.0" style="fill:#008080;stroke:none;stroke-width:0" /><circle id="centroid-24" cx="-38.91129327460873" cy="23.092892979934387" r="1.0" style="fill:#008080;stroke:none;stroke-width:0" /><circle id="centroid-25" cx="-18.348088780401593" cy="5.381664863277798" r="1.0" style="fill:#008080;stroke:none;stroke-width:0" /><circle id="centroid-26" cx="41.13341778892402" cy="12.06412584895798" r="1.0" style="fill:#008080;stroke:none;stroke-width:0" /><circle id="centroid-27" cx="-23.22458213128571" cy="38.92061560407966" r="1.0" style="fill:#008080;stroke:none;stroke-width:0" /><circle id="centroid-28" cx="7.384575942293323" cy="15.710231770534163" r="1.0" style="fill:#008080;stroke:none;stroke-width:0" /></g><g id="seed_exclusion" inkscape:label="Seed Exclusion" inkscape:groupmode="layer" style="display:none"><circle id="seed-ex-0" cx="0.0" cy="80.0" r="24.0" style="fill:#800000;stroke:none;stroke-width:0;fill-opacity:0.15" /><circle id="seed-ex-1" cx="69.28203230275508" cy="40.0" r="24.0" style="fill:#800000;stroke:none;stroke-width:0;fill-opacity:0.15" /><circle id="seed-ex-2" cx="69.28203230275508" cy="-40.0" r="24.0" style="fill:#800000;stroke:none;stroke-width:0;fill-opacity:0.15" /><circle id="seed-ex-3" cx="0.0" cy="-80.0" r="24.0" style="fill:#800000;stroke:none;stroke-width:0;fill-opacity:0.15" /><circle id="seed-ex-4" cx="-69.28203230275508" cy="-40.0" r="19.2" style="fill:#800000;stroke:none;stroke-width:0;fill-opacity:0.15" /><circle id="seed-ex-5" cx="-69.28203230275508" cy="40.0" r="19.2" style="fill:#800000;stroke:none;stroke-width:0;fill-opacity:0.15" /><circle id="seed-ex-6" cx="34.64101615137754" cy="60.0" r="24.0" style="fill:#800000;stroke:none;stroke-width:0;fill-opacity:0.15" /><circle id="seed-ex-7" cx="69.28203230275508" cy="0.0" r="24.0" style="fill:#800000;stroke:none;stroke-width:0;fill-opacity:0.15" /><circle id="seed-ex-8" cx="34.64101615137754" cy="-60.0" r="24.0" style="fill:#800000;stroke:none;stroke-width:0;fill-opacity:0.15" /><circle id="seed-ex-9" cx="-24.46307065990918" cy="-69.5712812921102" r="22.379049582771863" style="fill:#800000;stroke:none;stroke-width:0;fill-opacity:0.15" /><circle id="seed-ex-10" cx="-47.99024293495611" cy="-49.521539030917346" r="20.619712812921104" style="fill:#800000;stroke:none;stroke-width:0;fill-opacity:0.15" /><circle id="seed-ex-11" cx="-72.48203230275509" cy="-13.333333333333336" r="19.052198331087453" style="fill:#800000;stroke:none;stroke-width:0;fill-opacity:0.15" /><circle id="seed-ex-12" cx="-66.08203230275508" cy="13.333333333333329" r="19.347801668912545" style="fill:#800000;stroke:none;stroke-width:0;fill-opacity:0.15" /><circle id="seed-ex-13" cx="-50.390242934956106" cy="53.67846096908266" r="20.564287187078897" style="fill:#800000;stroke:none;stroke-width:0;fill-opacity:0.15" /><circle id="seed-ex-14" cx="-21.263070659909182" cy="64.0287187078898" r="22.452950417228134" style="fill:#800000;stroke:none;stroke-width:0;fill-opacity:0.15" /><circle id="seed-ex-15" cx="-50.006394434040764" cy="-22.95165035590638" r="20.090303576984315" style="fill:#800000;stroke:none;stroke-width:0;fill-opacity:0.15" /><circle id="seed-ex-16" cx="-45.191146273748615" cy="1.2218313542039092" r="20.31271036270908" style="fill:#800000;stroke:none;stroke-width:0;fill-opacity:0.15" /><circle id="seed-ex-17" cx="29.698109597696764" cy="-25.677733495337964" r="23.256478901319827" style="fill:#800000;stroke:none;stroke-width:0;fill-opacity:0.15" /><circle id="seed-ex-18" cx="-25.387287843724362" cy="-24.38921099665821" r="21.422048472876284" style="fill:#800000;stroke:none;stroke-width:0;fill-opacity:0.15" /><circle id="seed-ex-19" cx="-1.766306231239303" cy="50.31951344266322" r="23.304412531045532" style="fill:#800000;stroke:none;stroke-width:0;fill-opacity:0.15" /><circle id="seed-ex-20" cx="28.053696207422785" cy="35.40116663533425" r="23.431959513849076" style="fill:#800000;stroke:none;stroke-width:0;fill-opacity:0.15" /><circle id="seed-ex-21" cx="14.373011440917997" cy="-43.199502334111855" r="23.42995528717183" style="fill:#800000;stroke:none;stroke-width:0;fill-opacity:0.15" /><circle id="seed-ex-22" cx="-9.545727534195889" cy="-45.90658649714601" r="22.767008893795044" style="fill:#800000;stroke:none;stroke-width:0;fill-opacity:0.15" /><circle id="seed-ex-23" cx="7.84288529611473" cy="-10.956921770334263" r="22.70970027414539" style="fill:#800000;stroke:none;stroke-width:0;fill-opacity:0.15" /><circle id="seed-ex-24" cx="-37.31571541148798" cy="20.776034949881183" r="20.676460932973917" style="fill:#800000;stroke:none;stroke-width:0;fill-opacity:0.15" /><circle id="seed-ex-25" cx="-20.410163940579025" cy="5.415023718745977" r="21.457294908376184" style="fill:#800000;stroke:none;stroke-width:0;fill-opacity:0.15" /><circle id="seed-ex-26" cx="39.662768811739184" cy="14.665476737956846" r="23.315972410010545" style="fill:#800000;stroke:none;stroke-width:0;fill-opacity:0.15" /><circle id="seed-ex-27" cx="-24.086061220777104" cy="40.96418093900825" r="21.828674225826816" style="fill:#800000;stroke:none;stroke-width:0;fill-opacity:0.15" /><circle id="seed-ex-28" cx="8.158755406898187" cy="13.627066124868337" r="22.76675051510587" style="fill:#800000;stroke:none;stroke-width:0;fill-opacity:0.15" /></g><g id="margin_exclusion" inkscape:label="Margin Exclusion" inkscape:groupmode="layer" style="display:none"><circle id="circle1318" cx="17.32050807568877" cy="70.0" r="22.0" style="fill:#000080;stroke:none;stroke-width:0;fill-opacity:0.15" /><circle id="circle1319" cx="51.96152422706631" cy="50.0" r="22.0" style="fill:#000080;stroke:none;stroke-width:0;fill-opacity:0.15" /><circle id="circle1320" cx="69.28203230275508" cy="20.0" r="22.0" style="fill:#000080;stroke:none;stroke-width:0;fill-opacity:0.15" /><circle id="circle1321" cx="69.28203230275508" cy="-20.0" r="22.0" style="fill:#000080;stroke:none;stroke-width:0;fill-opacity:0.15" /><circle id="circle1322" cx="51.96152422706631" cy="-50.0" r="22.0" style="fill:#000080;stroke:none;stroke-width:0;fill-opacity:0.15" /><circle id="circle1323" cx="17.32050807568877" cy="-70.0" r="22.0" style="fill:#000080;stroke:none;stroke-width:0;fill-opacity:0.15" /><circle id="circle1324" cx="-11.599491771900665" cy="-73.3030303030303" r="14.626277721963305" style="fill:#000080;stroke:none;stroke-width:0;fill-opacity:0.15" /><circle id="circle1325" cx="-35.962844399259055" cy="-59.23684210526316" r="17.001317595998255" style="fill:#000080;stroke:none;stroke-width:0;fill-opacity:0.15" /><circle id="circle1326" cx="-59.1286310170065" cy="-45.86206896551724" r="12.828094168659662" style="fill:#000080;stroke:none;stroke-width:0;fill-opacity:0.15" /><circle id="circle1327" cx="-69.28203230275508" cy="-26.474666666666668" r="14.77188921942996" style="fill:#000080;stroke:none;stroke-width:0;fill-opacity:0.15" /><circle id="circle1328" cx="-69.28203230275508" cy="0.0" r="15.083153221760732" style="fill:#000080;stroke:none;stroke-width:0;fill-opacity:0.15" /><circle id="circle1329" cx="-69.28203230275508" cy="26.47466666666665" r="14.771889219429964" style="fill:#000080;stroke:none;stroke-width:0;fill-opacity:0.15" /><circle id="circle1330" cx="-59.12863101700649" cy="45.862068965517246" r="12.828094168659664" style="fill:#000080;stroke:none;stroke-width:0;fill-opacity:0.15" /><circle id="circle1331" cx="-35.962844399259055" cy="59.23684210526316" r="17.001317595998252" style="fill:#000080;stroke:none;stroke-width:0;fill-opacity:0.15" /><circle id="circle1332" cx="-11.59949177190066" cy="73.30303030303031" r="14.626277721963305" style="fill:#000080;stroke:none;stroke-width:0;fill-opacity:0.15" /></g><g id="circles" inkscape:label="Inscribed Circles" inkscape:groupmode="layer" style="display:none"><circle id="incircle-0" cx="1.9886479760486893" cy="80.57508754950474" r="15.23205769330363" style="fill:#008000;stroke:none;stroke-width:0;fill-opacity:0.15" /><circle id="incircle-ctr-0" cx="1.9886479760486893" cy="80.57508754950474" r="0.5" style="fill:#000000;stroke:none;stroke-width:0" /><circle id="incircle-1" cx="67.49596345985893" cy="39.444825824907305" r="17.769908742278215" style="fill:#008000;stroke:none;stroke-width:0;fill-opacity:0.15" /><circle id="incircle-ctr-1" cx="67.49596345985893" cy="39.444825824907305" r="0.5" style="fill:#000000;stroke:none;stroke-width:0" /><circle id="incircle-2" cx="66.98869938243656" cy="-38.675943621112665" r="18.440646151159427" style="fill:#008000;stroke:none;stroke-width:0;fill-opacity:0.15" /><circle id="incircle-ctr-2" cx="66.98869938243656" cy="-38.675943621112665" r="0.5" style="fill:#000000;stroke:none;stroke-width:0" /><circle id="incircle-3" cx="2.0102434338263375" cy="-80.60454525085262" r="15.382912318497489" style="fill:#008000;stroke:none;stroke-width:0;fill-opacity:0.15" /><circle id="incircle-ctr-3" cx="2.0102434338263375" cy="-80.60454525085262" r="0.5" style="fill:#000000;stroke:none;stroke-width:0" /><circle id="incircle-4" cx="-71.23169846576978" cy="-40.18510027113649" r="13.366147047953195" style="fill:#008000;stroke:none;stroke-width:0;fill-opacity:0.15" /><circle id="incircle-ctr-4" cx="-71.23169846576978" cy="-40.18510027113649" r="0.5" style="fill:#000000;stroke:none;stroke-width:0" /><circle id="incircle-5" cx="-70.90415428729288" cy="39.664994503609535" r="13.172255234139614" style="fill:#008000;stroke:none;stroke-width:0;fill-opacity:0.15" /><circle id="incircle-ctr-5" cx="-70.90415428729288" cy="39.664994503609535" r="0.5" style="fill:#000000;stroke:none;stroke-width:0" /><circle id="incircle-6" cx="35.78139032852712" cy="61.97518601446263" r="14.814974718490415" style="fill:#008000;stroke:none;stroke-width:0;fill-opacity:0.15" /><circle id="incircle-ctr-6" cx="35.78139032852712" cy="61.97518601446263" r="0.5" style="fill:#000000;stroke:none;stroke-width:0" /><circle id="incircle-7" cx="69.34440214468799" cy="-7.105427357601002e-15" r="16.581457032177095" style="fill:#008000;stroke:none;stroke-width:0;fill-opacity:0.15" /><circle id="incircle-ctr-7" cx="69.34440214468799" cy="-7.105427357601002e-15" r="0.5" style="fill:#000000;stroke:none;stroke-width:0" /><circle id="incircle-8" cx="35.64542138035229" cy="-61.73968088797211" r="15.040518981702773" style="fill:#008000;stroke:none;stroke-width:0;fill-opacity:0.15" /><circle id="incircle-ctr-8" cx="35.64542138035229" cy="-61.73968088797211" r="0.5" style="fill:#000000;stroke:none;stroke-width:0" /><circle id="incircle-9" cx="-24.90225161684454" cy="-69.16688656036072" r="13.848007933307136" style="fill:#008000;stroke:none;stroke-width:0;fill-opacity:0.15" /><circle id="incircle-ctr-9" cx="-24.90225161684454" cy="-69.16688656036072" r="0.5" style="fill:#000000;stroke:none;stroke-width:0" /><circle id="incircle-10" cx="-46.011159503280695" cy="-49.80862621438463" r="13.585763744308867" style="fill:#008000;stroke:none;stroke-width:0;fill-opacity:0.15" /><circle id="incircle-ctr-10" cx="-46.011159503280695" cy="-49.80862621438463" r="0.5" style="fill:#000000;stroke:none;stroke-width:0" /><circle id="incircle-11" cx="-73.58761396387939" cy="-13.581293108625744" r="13.099477004396059" style="fill:#008000;stroke:none;stroke-width:0;fill-opacity:0.15" /><circle id="incircle-ctr-11" cx="-73.58761396387939" cy="-13.581293108625744" r="0.5" style="fill:#000000;stroke:none;stroke-width:0" /><circle id="incircle-12" cx="-67.59119558650382" cy="13.3678826698263" r="13.214877371101348" style="fill:#008000;stroke:none;stroke-width:0;fill-opacity:0.15" /><circle id="incircle-ctr-12" cx="-67.59119558650382" cy="13.3678826698263" r="0.5" style="fill:#000000;stroke:none;stroke-width:0" /><circle id="incircle-13" cx="-49.00401132726624" cy="55.00054721662378" r="13.560071596620743" style="fill:#008000;stroke:none;stroke-width:0;fill-opacity:0.15" /><circle id="incircle-ctr-13" cx="-49.00401132726624" cy="55.00054721662378" r="0.5" style="fill:#000000;stroke:none;stroke-width:0" /><circle id="incircle-14" cx="-23.467516842289474" cy="66.39954532435964" r="13.63535478244231" style="fill:#008000;stroke:none;stroke-width:0;fill-opacity:0.15" /><circle id="incircle-ctr-14" cx="-23.467516842289474" cy="66.39954532435964" r="0.5" style="fill:#000000;stroke:none;stroke-width:0" /><circle id="incircle-15" cx="-50.123694806159065" cy="-23.522084927062703" r="12.340194176132615" style="fill:#008000;stroke:none;stroke-width:0;fill-opacity:0.15" /><circle id="incircle-ctr-15" cx="-50.123694806159065" cy="-23.522084927062703" r="0.5" style="fill:#000000;stroke:none;stroke-width:0" /><circle id="incircle-16" cx="-46.19128430539401" cy="0.5547509286397236" r="11.47459056933037" style="fill:#008000;stroke:none;stroke-width:0;fill-opacity:0.15" /><circle id="incircle-ctr-16" cx="-46.19128430539401" cy="0.5547509286397236" r="0.5" style="fill:#000000;stroke:none;stroke-width:0" /><circle id="incircle-17" cx="35.04022381682348" cy="-23.91978819984815" r="16.479260033151657" style="fill:#008000;stroke:none;stroke-width:0;fill-opacity:0.15" /><circle id="incircle-ctr-17" cx="35.04022381682348" cy="-23.91978819984815" r="0.5" style="fill:#000000;stroke:none;stroke-width:0" /><circle id="incircle-18" cx="-24.0880473391221" cy="-23.136557258406864" r="13.554531492648712" style="fill:#008000;stroke:none;stroke-width:0;fill-opacity:0.15" /><circle id="incircle-ctr-18" cx="-24.0880473391221" cy="-23.136557258406864" r="0.5" style="fill:#000000;stroke:none;stroke-width:0" /><circle id="incircle-19" cx="1.453457312253719" cy="50.86957810727928" r="14.038339576538842" style="fill:#008000;stroke:none;stroke-width:0;fill-opacity:0.15" /><circle id="incircle-ctr-19" cx="1.453457312253719" cy="50.86957810727928" r="0.5" style="fill:#000000;stroke:none;stroke-width:0" /><circle id="incircle-20" cx="26.20724236903139" cy="35.41737967417888" r="12.798281186396954" style="fill:#008000;stroke:none;stroke-width:0;fill-opacity:0.15" /><circle id="incircle-ctr-20" cx="26.20724236903139" cy="35.41737967417888" r="0.5" style="fill:#000000;stroke:none;stroke-width:0" /><circle id="incircle-21" cx="14.728582590329358" cy="-44.36593081868145" r="12.144772162787222" style="fill:#008000;stroke:none;stroke-width:0;fill-opacity:0.15" /><circle id="incircle-ctr-21" cx="14.728582590329358" cy="-44.36593081868145" r="0.5" style="fill:#000000;stroke:none;stroke-width:0" /><circle id="incircle-22" cx="-10.591135825210216" cy="-46.28730796242201" r="13.04674079026388" style="fill:#008000;stroke:none;stroke-width:0;fill-opacity:0.15" /><circle id="incircle-ctr-22" cx="-10.591135825210216" cy="-46.28730796242201" r="0.5" style="fill:#000000;stroke:none;stroke-width:0" /><circle id="incircle-23" cx="5.145624766110296" cy="-12.603598127277213" r="13.974202172828164" style="fill:#008000;stroke:none;stroke-width:0;fill-opacity:0.15" /><circle id="incircle-ctr-23" cx="5.145624766110296" cy="-12.603598127277213" r="0.5" style="fill:#000000;stroke:none;stroke-width:0" /><circle id="incircle-24" cx="-40.694028551505966" cy="23.695803399812963" r="11.477980801583007" style="fill:#008000;stroke:none;stroke-width:0;fill-opacity:0.15" /><circle id="incircle-ctr-24" cx="-40.694028551505966" cy="23.695803399812963" r="0.5" style="fill:#000000;stroke:none;stroke-width:0" /><circle id="incircle-25" cx="-18.87781725346649" cy="3.996920501556815" r="13.508774522984623" style="fill:#008000;stroke:none;stroke-width:0;fill-opacity:0.15" /><circle id="incircle-ctr-25" cx="-18.87781725346649" cy="3.996920501556815" r="0.5" style="fill:#000000;stroke:none;stroke-width:0" /><circle id="incircle-26" cx="39.37767605584815" cy="11.379203432845244" r="14.610317465990942" style="fill:#008000;stroke:none;stroke-width:0;fill-opacity:0.15" /><circle id="incircle-ctr-26" cx="39.37767605584815" cy="11.379203432845244" r="0.5" style="fill:#000000;stroke:none;stroke-width:0" /><circle id="incircle-27" cx="-23.089032011864866" cy="40.555861796712236" r="11.33887544821356" style="fill:#008000;stroke:none;stroke-width:0;fill-opacity:0.15" /><circle id="incircle-ctr-27" cx="-23.089032011864866" cy="40.555861796712236" r="0.5" style="fill:#000000;stroke:none;stroke-width:0" /><circle id="incircle-28" cx="7.027213868524398" cy="15.262596491983185" r="13.913866372643724" style="fill:#008000;stroke:none;stroke-width:0;fill-opacity:0.15" /><circle id="incircle-ctr-28" cx="7.027213868524398" cy="15.262596491983185" r="0.5" style="fill:#000000;stroke:none;stroke-width:0" /></g><g id="tile-id" inkscape:label="Tile Id" inkscape:groupmode="layer" transform="scale(1,-1)"><g id="tile-id-group"><ns0:text xml:space="preserve" style="font-style:normal;font-weight:normal;font-size:4.23333px;line-height:1.25;font-family:sans-serif;text-align:center;text-anchor:middle;fill:#dddddd;fill-opacity:1;stroke:#565656;stroke-width:0.1;stroke-dasharray:none;stroke-opacity:1" x="-1.7974526e-07" y="0" id="tile-id" transform="translate(0 -72)"><ns0:tspan ns1:role="line" id="tspan439" style="font-style:normal;font-variant:normal;font-weight:bold;font-stretch:normal;font-size:4.23333px;font-family:'Arial Black';-inkscape-font-specification:'Arial Black,  Bold';text-align:center;text-anchor:middle;fill:#000000;fill-opacity:1;stroke:#fffffe;stroke-width:0.1;stroke-dasharray:none;stroke-opacity:1" x="-1.4621764e-07" y="0">142</ns0:tspan></ns0:text>
  </g></g><g id="annotations" inkscape:label="Annotations" inkscape:groupmode="layer" transform="scale(1,-1)"><text id="text1333" x="-92" y="84.5" style="font-style:normal;font-weight:normal;font-size:4px;font-family:sans-serif;fill:#000000;fill-opacity:1;stroke:none"><tspan x="-92" y="84.5">id: 142</tspan></text><text id="text1334" x="-92" y="90.0" style="font-style:normal;font-weight:normal;font-size:4px;font-family:sans-serif;fill:#000000;fill-opacity:1;stroke:none"><tspan x="-92" y="90.0">size: 80</tspan></text><text id="text1335" x="-92" y="95.5" style="font-style:normal;font-weight:normal;font-size:4px;font-family:sans-serif;fill:#000000;fill-opacity:1;stroke:none"><tspan x="-92" y="95.5">rng seed 3103</tspan></text><text id="text1336" x="-92" y="101.0" style="font-style:normal;font-weight:normal;font-size:4px;font-family:sans-serif;fill:#000000;fill-opacity:1;stroke:none"><tspan x="-92" y="101.0">pattern llllmm</tspan></text><text id="text1337" x="-92" y="106.5" style="font-style:normal;font-weight:normal;font-size:4px;font-family:sans-serif;fill:#000000;fill-opacity:1;stroke:none"><tspan x="-92" y="106.5">seed attempts: 20</tspan></text><text id="text1338" x="-92" y="112.0" style="font-style:normal;font-weight:normal;font-size:4px;font-family:sans-serif;fill:#000000;fill-opacity:1;stroke:none"><tspan x="-92" y="112.0">seed distance: l 0.3; m 0.24; h 0.2</tspan></text><text id="text1339" x="-92" y="117.5" style="font-style:normal;font-weight:normal;font-size:4px;font-family:sans-serif;fill:#000000;fill-opacity:1;stroke:none"><tspan x="-92" y="117.5">center: (AVG) 0.28</tspan></text><text id="text1340" x="-92" y="123.0" style="font-style:normal;font-weight:normal;font-size:4px;font-family:sans-serif;fill:#000000;fill-opacity:1;stroke:none"><tspan x="-92" y="123.0">min ridge length: 0.08; at edge: 0.04</tspan></text><text id="text1341" x="-92" y="128.5" style="font-style:normal;font-weight:normal;font-size:4px;font-family:sans-serif;fill:#000000;fill-opacity:1;stroke:none"><tspan x="-92" y="128.5">edge margin exclusion zone scale: 1.1</tspan></text><text id="text1342" x="-92" y="134.0" style="font-style:normal;font-weight:normal;font-size:4px;font-family:sans-serif;fill:#000000;fill-opacity:1;stroke:none"><tspan x="-92" y="134.0">iterations: 4</tspan></text><text id="text1343" x="-92" y="139.5" style="font-style:normal;font-weight:normal;font-size:4px;font-family:sans-serif;fill:#000000;fill-opacity:1;stroke:none"><tspan x="-92" y="139.5">adjustments: side 0.011, neighbor -0.009</tspan></text><text id="text1344" x="-92" y="145.0" style="font-style:normal;font-weight:normal;font-size:4px;font-family:sans-serif;fill:#000000;fill-opacity:1;stroke:none"><tspan x="-92" y="145.0">closeness: 0.9, adjust -0.013</tspan></text><circle id="mana" cx="50" cy="110" r="7.5" style="fill:#000000;stroke:none;stroke-width:0" /><rect id="rect1345" x="75" y="90" width="15" height="6" style="fill:#be850a;stroke:#000000;stroke-width:0.3" /><text id="text1346" x="70" y="94.5" style="font-style:normal;font-weight:normal;font-size:4px;font-family:sans-serif;fill:#000000;fill-opacity:1;stroke:none"><tspan x="70" y="94.5">V</tspan></text><rect id="rect1347" x="75" y="100" width="15" height="6" style="fill:#e7a311;stroke:#000000;stroke-width:0.3" /><text id="text1348" x="70" y="104.5" style="font-style:normal;font-weight:normal;font-size:4px;font-family:sans-serif;fill:#000000;fill-opacity:1;stroke:none"><tspan x="70" y="104.5">H</tspan></text><rect id="rect1349" x="75" y="110" width="15" height="6" style="fill:#f0ce76;stroke:#000000;stroke-width:0.3" /><text id="text1350" x="70" y="114.5" style="font-style:normal;font-weight:normal;font-size:4px;font-family:sans-serif;fill:#000000;fill-opacity:1;stroke:none"><tspan x="70" y="114.5">M</tspan></text><rect id="rect1351" x="75" y="120" width="15" height="6" style="fill:#f0eaac;stroke:#000000;stroke-width:0.3" /><text id="text1352" x="70" y="124.5" style="font-style:normal;font-weight:normal;font-size:4px;font-family:sans-serif;fill:#000000;fill-opacity:1;stroke:none"><tspan x="70" y="124.5">L</tspan></text><rect id="rect1353" x="75" y="130" width="15" height="6" style="fill:#a2c6ff;stroke:#000000;stroke-width:0.3" /><text id="text1354" x="70" y="134.5" style="font-style:normal;font-weight:normal;font-size:4px;font-family:sans-serif;fill:#000000;fill-opacity:1;stroke:none"><tspan x="70" y="134.5">R</tspan></text></g><g id="edge-annotations" inkscape:label="Edge Annotations" inkscape:groupmode="layer" transform="scale(1,-1)" style="display:none"><text id="text1355" x="-1.5" y="-82" style="font-style:normal;font-weight:normal;font-size:4px;font-family:sans-serif;fill:#000000;fill-opacity:1;stroke:none"><tspan x="-1.5" y="-82">L</tspan></text><text id="text1356" x="-1.5" y="-82" style="font-style:normal;font-weight:normal;font-size:4px;font-family:sans-serif;fill:#000000;fill-opacity:1;stroke:none" transform="rotate(60)"><tspan x="-1.5" y="-82">L</tspan></text><text id="text1357" x="-1.5" y="-82" style="font-style:normal;font-weight:normal;font-size:4px;font-family:sans-serif;fill:#000000;fill-opacity:1;stroke:none" transform="rotate(120)"><tspan x="-1.5" y="-82">L</tspan></text><text id="text1358" x="-1.5" y="-82" style="font-style:normal;font-weight:normal;font-size:4px;font-family:sans-serif;fill:#000000;fill-opacity:1;stroke:none" transform="rotate(180)"><tspan x="-1.5" y="-82">L</tspan></text><text id="text1359" x="-1.5" y="-82" style="font-style:normal;font-weight:normal;font-size:4px;font-family:sans-serif;fill:#000000;fill-opacity:1;stroke:none" transform="rotate(240)"><tspan x="-1.5" y="-82">M</tspan></text><text id="text1360" x="-1.5" y="-82" style="font-style:normal;font-weight:normal;font-size:4px;font-family:sans-serif;fill:#000000;fill-opacity:1;stroke:none" transform="rotate(300)"><tspan x="-1.5" y="-82">M</tspan></text><g id="node1361" transform="rotate(30)"><text id="text1362" x="-1.5" y="-72.28203230275508" style="font-style:normal;font-weight:normal;font-size:4px;font-family:sans-serif;fill:#000000;fill-opacity:1;stroke:none"><tspan x="-1.5" y="-72.28203230275508">L</tspan></text></g><g id="node1363" transform="rotate(90)"><text id="text1364" x="-1.5" y="-72.28203230275508" style="font-style:normal;font-weight:normal;font-size:4px;font-family:sans-serif;fill:#000000;fill-opacity:1;stroke:none"><tspan x="-1.5" y="-72.28203230275508">L</tspan></text></g><g id="node1365" transform="rotate(150)"><text id="text1366" x="-1.5" y="-72.28203230275508" style="font-style:normal;font-weight:normal;font-size:4px;font-family:sans-serif;fill:#000000;fill-opacity:1;stroke:none"><tspan x="-1.5" y="-72.28203230275508">L</tspan></text></g><g id="node1367" transform="rotate(210)"><text id="text1368" x="-15.099999999999998" y="-72.28203230275508" style="font-style:normal;font-weight:normal;font-size:4px;font-family:sans-serif;fill:#000000;fill-opacity:1;stroke:none"><tspan x="-15.099999999999998" y="-72.28203230275508">L</tspan></text><text id="text1369" x="15.299999999999997" y="-72.28203230275508" style="font-style:normal;font-weight:normal;font-size:4px;font-family:sans-serif;fill:#000000;fill-opacity:1;stroke:none"><tspan x="15.299999999999997" y="-72.28203230275508">L</tspan></text></g><g id="node1370" transform="rotate(270)"><text id="text1371" x="-14.833333333333336" y="-72.28203230275508" style="font-style:normal;font-weight:normal;font-size:4px;font-family:sans-serif;fill:#000000;fill-opacity:1;stroke:none"><tspan x="-14.833333333333336" y="-72.28203230275508">L</tspan></text><text id="text1372" x="11.833333333333329" y="-72.28203230275508" style="font-style:normal;font-weight:normal;font-size:4px;font-family:sans-serif;fill:#000000;fill-opacity:1;stroke:none"><tspan x="11.833333333333329" y="-72.28203230275508">L</tspan></text></g><g id="node1373" transform="rotate(330)"><text id="text1374" x="-18.299999999999997" y="-72.28203230275508" style="font-style:normal;font-weight:normal;font-size:4px;font-family:sans-serif;fill:#000000;fill-opacity:1;stroke:none"><tspan x="-18.299999999999997" y="-72.28203230275508">L</tspan></text><text id="text1375" x="12.099999999999994" y="-72.28203230275508" style="font-style:normal;font-weight:normal;font-size:4px;font-family:sans-serif;fill:#000000;fill-opacity:1;stroke:none"><tspan x="12.099999999999994" y="-72.28203230275508">L</tspan></text></g><g id="node1376" transform="rotate(210)"><rect id="rect1377" x="-28.299999999999997" y="-77.28203230275508" width="3" height="8" style="fill:#a2c6ff;stroke:#000000;stroke-width:0.3" /><text id="text1378" x="-28.299999999999997" y="-79.28203230275508" style="font-style:normal;font-weight:normal;font-size:4px;font-family:sans-serif;fill:#000000;fill-opacity:1;stroke:none"><tspan x="-28.299999999999997" y="-79.28203230275508">R</tspan></text></g><g id="node1379" transform="rotate(270)"><rect id="rect1380" x="-1.5" y="-77.28203230275508" width="3" height="8" style="fill:#a2c6ff;stroke:#000000;stroke-width:0.3" /><text id="text1381" x="-1.5" y="-79.28203230275508" style="font-style:normal;font-weight:normal;font-size:4px;font-family:sans-serif;fill:#000000;fill-opacity:1;stroke:none"><tspan x="-1.5" y="-79.28203230275508">R</tspan></text></g><g id="node1382" transform="rotate(330)"><rect id="rect1383" x="25.299999999999997" y="-77.28203230275508" width="3" height="8" style="fill:#a2c6ff;stroke:#000000;stroke-width:0.3" /><text id="text1384" x="25.299999999999997" y="-79.28203230275508" style="font-style:normal;font-weight:normal;font-size:4px;font-family:sans-serif;fill:#000000;fill-opacity:1;stroke:none"><tspan x="25.299999999999997" y="-79.28203230275508">R</tspan></text></g></g><g id="overlay" inkscape:label="Overlay" inkscape:groupmode="layer" transform="scale(1,-1)" /><g id="region_ids" inkscape:label="Region Ids" inkscape:groupmode="layer" transform="scale(1,-1)" style="display:none"><text id="text1385" x="-1.4" y="-80.0" style="font-style:normal;font-weight:normal;font-size:4px;font-family:sans-serif;fill:#000000;fill-opacity:1;stroke:none"><tspan x="-1.4" y="-80.0">0</tspan></text><text id="text1386" x="67.88203230275508" y="-40.0" style="font-style:normal;font-weight:normal;font-size:4px;font-family:sans-serif;fill:#000000;fill-opacity:1;stroke:none"><tspan x="67.88203230275508" y="-40.0">1</tspan></text><text id="text1387" x="67.88203230275508" y="40.0" style="font-style:normal;font-weight:normal;font-size:4px;font-family:sans-serif;fill:#000000;fill-opacity:1;stroke:none"><tspan x="67.88203230275508" y="40.0">2</tspan></text><text id="text1388" x="-1.4" y="80.0" style="font-style:normal;font-weight:normal;font-size:4px;font-family:sans-serif;fill:#000000;fill-opacity:1;stroke:none"><tspan x="-1.4" y="80.0">3</tspan></text><text id="text1389" x="-70.68203230275509" y="40.0" style="font-style:normal;font-weight:normal;font-size:4px;font-family:sans-serif;fill:#000000;fill-opacity:1;stroke:none"><tspan x="-70.68203230275509" y="40.0">4</tspan></text><text id="text1390" x="-70.68203230275509" y="-40.0" style="font-style:normal;font-weight:normal;font-size:4px;font-family:sans-serif;fill:#000000;fill-opacity:1;stroke:none"><tspan x="-70.68203230275509" y="-40.0">5</tspan></text><text id="text1391" x="33.24101615137754" y="-60.0" style="font-style:normal;font-weight:normal;font-size:4px;font-family:sans-serif;fill:#000000;fill-opacity:1;stroke:none"><tspan x="33.24101615137754" y="-60.0">6</tspan></text><text id="text1392" x="67.88203230275508" y="-0.0" style="font-style:normal;font-weight:normal;font-size:4px;font-family:sans-serif;fill:#000000;fill-opacity:1;stroke:none"><tspan x="67.88203230275508" y="-0.0">7</tspan></text><text id="text1393" x="33.24101615137754" y="60.0" style="font-style:normal;font-weight:normal;font-size:4px;font-family:sans-serif;fill:#000000;fill-opacity:1;stroke:none"><tspan x="33.24101615137754" y="60.0">8</tspan></text><text id="text1394" x="-25.86307065990918" y="69.5712812921102" style="font-style:normal;font-weight:normal;font-size:4px;font-family:sans-serif;fill:#000000;fill-opacity:1;stroke:none"><tspan x="-25.86307065990918" y="69.5712812921102">9</tspan></text><text id="text1395" x="-49.390242934956106" y="49.521539030917346" style="font-style:normal;font-weight:normal;font-size:4px;font-family:sans-serif;fill:#000000;fill-opacity:1;stroke:none"><tspan x="-49.390242934956106" y="49.521539030917346">10</tspan></text><text id="text1396" x="-73.88203230275509" y="13.333333333333336" style="font-style:normal;font-weight:normal;font-size:4px;font-family:sans-serif;fill:#000000;fill-opacity:1;stroke:none"><tspan x="-73.88203230275509" y="13.333333333333336">11</tspan></text><text id="text1397" x="-67.48203230275509" y="-13.333333333333329" style="font-style:normal;font-weight:normal;font-size:4px;font-family:sans-serif;fill:#000000;fill-opacity:1;stroke:none"><tspan x="-67.48203230275509" y="-13.333333333333329">12</tspan></text><text id="text1398" x="-51.790242934956105" y="-53.67846096908266" style="font-style:normal;font-weight:normal;font-size:4px;font-family:sans-serif;fill:#000000;fill-opacity:1;stroke:none"><tspan x="-51.790242934956105" y="-53.67846096908266">13</tspan></text><text id="text1399" x="-22.66307065990918" y="-64.0287187078898" style="font-style:normal;font-weight:normal;font-size:4px;font-family:sans-serif;fill:#000000;fill-opacity:1;stroke:none"><tspan x="-22.66307065990918" y="-64.0287187078898">14</tspan></text><text id="text1400" x="-51.40639443404076" y="22.95165035590638" style="font-style:normal;font-weight:normal;font-size:4px;font-family:sans-serif;fill:#000000;fill-opacity:1;stroke:none"><tspan x="-51.40639443404076" y="22.95165035590638">15</tspan></text><text id="text1401" x="-46.59114627374861" y="-1.2218313542039092" style="font-style:normal;font-weight:normal;font-size:4px;font-family:sans-serif;fill:#000000;fill-opacity:1;stroke:none"><tspan x="-46.59114627374861" y="-1.2218313542039092">16</tspan></text><text id="text1402" x="28.298109597696765" y="25.677733495337964" style="font-style:normal;font-weight:normal;font-size:4px;font-family:sans-serif;fill:#000000;fill-opacity:1;stroke:none"><tspan x="28.298109597696765" y="25.677733495337964">17</tspan></text><text id="text1403" x="-26.78728784372436" y="24.38921099665821" style="font-style:normal;font-weight:normal;font-size:4px;font-family:sans-serif;fill:#000000;fill-opacity:1;stroke:none"><tspan x="-26.78728784372436" y="24.38921099665821">18</tspan></text><text id="text1404" x="-3.166306231239303" y="-50.31951344266322" style="font-style:normal;font-weight:normal;font-size:4px;font-family:sans-serif;fill:#000000;fill-opacity:1;stroke:none"><tspan x="-3.166306231239303" y="-50.31951344266322">19</tspan></text><text id="text1405" x="26.653696207422787" y="-35.40116663533425" style="font-style:normal;font-weight:normal;font-size:4px;font-family:sans-serif;fill:#000000;fill-opacity:1;stroke:none"><tspan x="26.653696207422787" y="-35.40116663533425">20</tspan></text><text id="text1406" x="12.973011440917997" y="43.199502334111855" style="font-style:normal;font-weight:normal;font-size:4px;font-family:sans-serif;fill:#000000;fill-opacity:1;stroke:none"><tspan x="12.973011440917997" y="43.199502334111855">21</tspan></text><text id="text1407" x="-10.945727534195889" y="45.90658649714601" style="font-style:normal;font-weight:normal;font-size:4px;font-family:sans-serif;fill:#000000;fill-opacity:1;stroke:none"><tspan x="-10.945727534195889" y="45.90658649714601">22</tspan></text><text id="text1408" x="6.44288529611473" y="10.956921770334263" style="font-style:normal;font-weight:normal;font-size:4px;font-family:sans-serif;fill:#000000;fill-opacity:1;stroke:none"><tspan x="6.44288529611473" y="10.956921770334263">23</tspan></text><text id="text1409" x="-38.71571541148798" y="-20.776034949881183" style="font-style:normal;font-weight:normal;font-size:4px;font-family:sans-serif;fill:#000000;fill-opacity:1;stroke:none"><tspan x="-38.71571541148798" y="-20.776034949881183">24</tspan></text><text id="text1410" x="-21.810163940579024" y="-5.415023718745977" style="font-style:normal;font-weight:normal;font-size:4px;font-family:sans-serif;fill:#000000;fill-opacity:1;stroke:none"><tspan x="-21.810163940579024" y="-5.415023718745977">25</tspan></text><text id="text1411" x="38.262768811739186" y="-14.665476737956846" style="font-style:normal;font-weight:normal;font-size:4px;font-family:sans-serif;fill:#000000;fill-opacity:1;stroke:none"><tspan x="38.262768811739186" y="-14.665476737956846">26</tspan></text><text id="text1412" x="-25.486061220777103" y="-40.96418093900825" style="font-style:normal;font-weight:normal;font-size:4px;font-family:sans-serif;fill:#000000;fill-opacity:1;stroke:none"><tspan x="-25.486061220777103" y="-40.96418093900825">27</tspan></text><text id="text1413" x="6.758755406898187" y="-13.627066124868337" style="font-style:normal;font-weight:normal;font-size:4px;font-family:sans-serif;fill:#000000;fill-opacity:1;stroke:none"><tspan x="6.758755406898187" y="-13.627066124868337">28</tspan></text></g><g id="border" inkscape:label="Border" inkscape:groupmode="layer"><path id="path1414" d="m 0 80 69.282 -40 0 -80 -69.282 -40 -69.282 40 0 80 z z" style="fill:none;stroke:#000000;stroke-width:0.3" /></g><g id="puzzle" inkscape:label="Puzzle Border" inkscape:groupmode="layer" style="display:none"><path id="path1415" d="m -0.779423 79.55 c 0.519615 0.3 1.03923 0.3 1.55885 0 l 6.40859 -3.7 c 0.519615 -0.3 0.581383 -0.675345 0.185304 -1.12603 l -1.50458 -1.71203 c -0.396079 -0.45069 -0.334311 -0.826035 0.185304 -1.12603 l 6.06218 -3.5 c 0.519615 -0.3 0.875557 -0.16582 1.06783 0.402539 l 0.730372 2.15902 c 0.192269 0.56836 0.548212 0.702539 1.06783 0.402539 l 39.3176 -22.7 c 0.519615 -0.3 0.875557 -0.16582 1.06783 0.402539 l 0.730372 2.15902 c 0.192269 0.56836 0.548212 0.702539 1.06783 0.402539 l 6.06218 -3.5 c 0.519615 -0.3 0.581383 -0.675345 0.185304 -1.12603 l -1.50458 -1.71203 c -0.396079 -0.45069 -0.334311 -0.826035 0.185304 -1.12603 l 6.40859 -3.7 c 0.519615 -0.3 0.779423 -0.75 0.779423 -1.35 l 0 -7.4 c 0 -0.6 -0.294174 -0.841165 -0.882523 -0.723495 l -2.23495 0.446991 c -0.588348 0.11767 -0.882523 -0.123495 -0.882523 -0.723495 l 0 -7 c 0 -0.6 0.294174 -0.841165 0.882523 -0.723495 l 2.23495 0.446991 c 0.588348 0.11767 0.882523 -0.123495 0.882523 -0.723495 l 0 -45.4 c 0 -0.6 0.294174 -0.841165 0.882523 -0.723495 l 2.23495 0.446991 c 0.588348 0.11767 0.882523 -0.123495 0.882523 -0.723495 l 0 -7 c 0 -0.6 -0.294174 -0.841165 -0.882523 -0.723495 l -2.23495 0.446991 c -0.588348 0.11767 -0.882523 -0.123495 -0.882523 -0.723495 l 0 -7.4 c 0 -0.6 -0.259808 -1.05 -0.779423 -1.35 l -6.40859 -3.7 c -0.519615 -0.3 -0.875557 -0.16582 -1.06783 0.402539 l -0.730372 2.15902 c -0.192269 0.56836 -0.548212 0.702539 -1.06783 0.402539 l -6.06218 -3.5 c -0.519615 -0.3 -0.581383 -0.675345 -0.185304 -1.12603 l 1.50458 -1.71203 c 0.396079 -0.45069 0.334311 -0.826035 -0.185304 -1.12603 l -39.3176 -22.7 c -0.519615 -0.3 -0.581383 -0.675345 -0.185304 -1.12603 l 1.50458 -1.71203 c 0.396079 -0.45069 0.334311 -0.826035 -0.185304 -1.12603 l -6.06218 -3.5 c -0.519615 -0.3 -0.875557 -0.16582 -1.06783 0.402539 l -0.730372 2.15902 c -0.192269 0.56836 -0.548212 0.702539 -1.06783 0.402539 l -6.40859 -3.7 c -0.519615 -0.3 -1.03923 -0.3 -1.55885 0 l -20.265 11.7 c -0.519615 0.3 -0.875557 0.16582 -1.06783 -0.402539 l -0.730372 -2.15902 c -0.192269 -0.56836 -0.548212 -0.702539 -1.06783 -0.402539 l -6.06218 3.5 c -0.519615 0.3 -0.581383 0.675345 -0.185304 1.12603 l 1.50458 1.71203 c 0.396079 0.45069 0.334311 0.826035 -0.185304 1.12603 l -39.664 22.9 c -0.519615 0.3 -0.779423 0.75 -0.779423 1.35 l 0 22.0667 c 0 0.6 -0.294174 0.841165 -0.882523 0.723495 l -2.23495 -0.446991 c -0.588348 -0.11767 -0.882523 0.123495 -0.882523 0.723495 l 0 5.4 c 0 0.6 0.294174 0.841165 0.882523 0.723495 l 2.23495 -0.446991 c 0.588348 -0.11767 0.882523 0.123495 0.882523 0.723495 l 0 19.2667 c 0 0.6 0.294174 0.841165 0.882523 0.723495 l 2.23495 -0.446991 c 0.588348 -0.11767 0.882523 0.123495 0.882523 0.723495 l 0 5.4 c 0 0.6 -0.294174 0.841165 -0.882523 0.723495 l -2.23495 -0.446991 c -0.588348 -0.11767 -0.882523 0.123495 -0.882523 0.723495 l 0 22.0667 c 0 0.6 0.259808 1.05 0.779423 1.35 l 39.664 22.9 c 0.519615 0.3 0.875557 0.16582 1.06783 -0.402539 l 0.730372 -2.15902 c 0.192269 -0.56836 0.548212 -0.702539 1.06783 -0.402539 l 6.06218 3.5 c 0.519615 0.3 0.581383 0.675345 0.185304 1.12603 l -1.50458 1.71203 c -0.396079 0.45069 -0.334311 0.826035 0.185304 1.12603 z z" style="fill:none;stroke:#000000;stroke-width:0.3" /></g><g id="regmarks" inkscape:label="Registration Marks" inkscape:groupmode="layer" style="display:none"><circle id="circle1416" cx="90.06664199358161" cy="0" r="2.0" style="fill:#000000;stroke:none;stroke-width:0" /><circle id="circle1417" cx="-90.06664199358161" cy="0" r="2.0" style="fill:#000000;stroke:none;stroke-width:0" /><circle id="circle1418" cx="0" cy="104.0" r="2.0" style="fill:#000000;stroke:none;stroke-width:0" /><circle id="circle1419" cx="0" cy="-104.0" r="2.0" style="fill:#000000;stroke:none;stroke-width:0" /><circle id="circle1420" cx="96.99484522385711" cy="0" r="2.0" style="fill:#000000;stroke:none;stroke-width:0" /><circle id="circle1421" cx="-96.99484522385711" cy="0" r="2.0" style="fill:#000000;stroke:none;stroke-width:0" /><circle id="circle1422" cx="0" cy="112.0" r="2.0" style="fill:#000000;stroke:none;stroke-width:0" /><circle id="circle1423" cx="0" cy="-112.0" r="2.0" style="fill:#000000;stroke:none;stroke-width:0" /><circle id="circle1424" cx="103.92304845413263" cy="0" r="2.0" style="fill:#000000;stroke:none;stroke-width:0" /><circle id="circle1425" cx="-103.92304845413263" cy="0" r="2.0" style="fill:#000000;stroke:none;stroke-width:0" /><circle id="circle1426" cx="0" cy="120.0" r="2.0" style="fill:#000000;stroke:none;stroke-width:0" /><circle id="circle1427" cx="0" cy="-120.0" r="2.0" style="fill:#000000;stroke:none;stroke-width:0" /></g></g></svg>