<?xml version='1.0' encoding='UTF-8'?>
<svg xmlns:ns0="http://www.w3.org/2000/svg" xmlns:ns1="http://www.inkscape.org/namespaces/inkscape" xmlns:ns2="http://sodipodi.sourceforge.net/DTD/sodipodi-0.dtd" xmlns:ns3="http://www.w3.org/1999/xlink" version="1.1" id="svg_root" xmlns="http://www.w3.org/2000/svg" xmlns:sodipodi="http://sodipodi.sourceforge.net/DTD/sodipodi-0.dtd" xmlns:inkscape="http://www.inkscape.org/namespaces/inkscape" xmlns:xlink="http://www.w3.org/1999/xlink" width="69.85mm" height="120.65mm" viewBox="0 0 69.85 120.65"><defs><clipPath id="clippath--1"><ns0:rect style="display:inline;fill:#f56363;fill-opacity:0.562327;stroke:#ed5f5f;stroke-width:0.799999;stroke-linecap:round;stroke-linejoin:round;stroke-opacity:0.501385" id="clip-image" width="62.340614" height="42.722939" x="3.5747764" y="13.25283" /></clipPath></defs><g id="card00" inkscape:label="Card 0" inkscape:groupmode="layer"><rect id="rect1312" x="0" y="0" width="69.85" height="120.65" rx="3" ry="3" style="fill:#ffffff;stroke:none;stroke-width:0" /><g id="masters" style="display:none"><ns0:path style="color:#000000;font-style:normal;font-variant:normal;font-weight:normal;font-stretch:normal;font-size:medium;line-height:normal;font-family:sans-serif;text-indent:0;text-align:start;text-decoration:none;text-decoration-line:none;text-decoration-style:solid;text-decoration-color:#000000;letter-spacing:normal;word-spacing:normal;text-transform:none;writing-mode:lr-tb;direction:ltr;baseline-shift:baseline;text-anchor:start;white-space:normal;clip-rule:nonzero;display:inline;overflow:visible;visibility:visible;isolation:auto;mix-blend-mode:normal;color-interpolation:sRGB;color-interpolation-filters:linearRGB;solid-color:#000000;solid-opacity:1;fill:#303030;fill-opacity:1;fill-rule:evenodd;stroke:none;stroke-width:0.386237;stroke-linecap:round;stroke-linejoin:miter;stroke-miterlimit:4;stroke-dasharray:none;stroke-dashoffset:0;stroke-opacity:1;color-rendering:auto;image-rendering:auto;shape-rendering:auto;text-rendering:auto;enable-background:accumulate" d="m 0.62088355,2.0810671 c -0.0687,0.1922034 -0.0828,0.3509989 -0.0582,0.5213718 0.0433,0.2989846 0.13342993,0.7148222 0.28337992,1.0475371 0.16190013,0.3591976 0.28515013,0.4422405 0.44826013,0.7368383 0.15196,0.2744548 0.25754,0.5523497 0.48869,0.7707908 0.11511,0.1087848 0.20373,0.012906 0.18313,-0.052274 -0.11352,-0.3591108 -0.25529,-0.5295022 -0.38605,-0.747699 -0.1203,-0.2007584 0.0132,-0.1330757 -0.2283,-0.498241 -0.2115,-0.3197999 -0.24584,-0.3829724 -0.27803,-0.5503033 -0.0389,-0.092334 -0.079,-0.1880876 -0.11456013,-0.3015931 -0.0679,-0.2662233 -0.0488,-0.3003648 -0.0228,-0.6319178 0.0213,-0.2717089 0.12149013,-0.5520487 0.23576013,-0.6730397 0.1289,-0.1364758 0.15035,-0.4251396 0.67643,-0.6886601 0.21632,-0.10835591 0.439,-0.14171861 0.65999,-0.11952291 0.17047,-0.023635 0.23446,-0.1274456 0.75022,0.00106 0.32232,0.095413 0.62503,0.36267581 0.76625,0.70568561 0.16507,0.4009091 0.19378,0.863329 0.0993,1.2611419 -0.091,0.3832045 -0.41514,0.7986336 -0.76142,0.8786415 -0.33762,0.078006 -0.63094,0.138911 -0.89924,0.1535277 -0.3312,-0.031234 -0.32412,-0.3751235 -0.55342,-0.678382 -0.0832,-0.2075911 -0.22088,-0.3545871 -0.22088,-0.6397438 0.0332,-0.2441998 0.1787,-0.5054253 0.33841,-0.6000705 0.1922,-0.2028356 0.44085,-0.2952371 0.75756,-0.2318363 0.15954,-0.00966 0.42581,0.2803522 0.45484,0.4478954 0.0362,0.2091213 -0.12632,0.471887 -0.18729,0.6017998 -0.035,0.1239994 -0.0832,0.115782 -0.26327,0.064469 -0.0875,-0.061824 -0.14247,-0.1784367 -0.18637,-0.2490646 -0.0531,-0.085416 -0.16088,-0.092072 -0.24788,-0.068349 -0.0723,0.051966 -0.12302,0.1034345 -0.0846,0.2290672 0.0263,0.085791 0.0425,0.2446352 0.0765,0.2815088 0.0545,0.059951 0.1434,0.2246423 0.20582,0.2701179 0.14551,0.043089 0.30527,-0.044586 0.43027,-0.06091 0.14818,-0.021073 0.31905,-0.1072048 0.40338,-0.2881381 0.12714,-0.2727985 0.19101,-0.611378 0.18132,-0.8216469 -0.0268,-0.2567908 -0.24043,-0.7600722 -0.7472,-0.765293 -0.23881,0.013638 -0.71743,0.1491208 -1.03208,0.3329096 -0.31994,0.1868734 -0.45637,0.4514287 -0.45379,0.8268327 0.0164,0.191143 0.0387,0.4682562 0.26891,0.8708041 0.17386,0.464952 0.24621,0.536699 0.59529,0.8575247 0.2275,0.2090832 0.6428,0.026589 0.6428,0.026589 0.3117,-0.1477368 0.34841,-0.076293 0.71063,-0.2225356 0.4739,-0.1913312 0.82729,-0.6183021 0.93231,-1.1098746 0.0849,-0.3973768 -0.0691,-1.3338608 -0.11551,-1.5369655 -0.13178,-0.57658901 -0.38362,-0.76706761 -1.04068,-0.93536221 -0.43681,-0.1118809 -0.8149,-0.026868 -0.96642,-0.00691 -0.19214,0.025304 -0.51027,0.096625 -0.65179,0.1533403 -0.29543,0.1305388 -0.58651,0.55309111 -0.87801013,0.89350401 -0.26447988,0.3168973 -0.10454,0.2456654 -0.21168992,0.5453801 z" id="element-air" ns1:connector-curvature="0" ns2:nodetypes="csssssssccsssccssscccccsccscscccsccsccsssssssccsc" ns1:label="#element-air" /><ns0:path id="element-earth" style="color:#000000;font-style:normal;font-variant:normal;font-weight:normal;font-stretch:normal;font-size:medium;line-height:normal;font-family:sans-serif;text-indent:0;text-align:start;text-decoration:none;text-decoration-line:none;text-decoration-style:solid;text-decoration-color:#000000;letter-spacing:normal;word-spacing:normal;text-transform:none;writing-mode:lr-tb;direction:ltr;baseline-shift:baseline;text-anchor:start;white-space:normal;clip-rule:nonzero;display:inline;overflow:visible;visibility:visible;isolation:auto;mix-blend-mode:normal;color-interpolation:sRGB;color-interpolation-filters:linearRGB;solid-color:#000000;solid-opacity:1;fill:#004c00;fill-opacity:1;fill-rule:nonzero;stroke:none;stroke-width:0.386237;stroke-linecap:round;stroke-linejoin:round;stroke-miterlimit:4;stroke-dasharray:none;stroke-dashoffset:0;stroke-opacity:1;color-rendering:auto;image-rendering:auto;shape-rendering:auto;text-rendering:auto;enable-background:accumulate" d="m 1.0170335,2.2192887 c 0.00209,0.04468 0.01812,0.087316 0.045521,0.1210844 0.1747774,0.2155491 0.4557043,0.3852772 0.7223557,0.5620938 0.2659215,0.1763326 0.7032768,0.5113923 0.7693846,0.5584746 0.4961847,0.473237 0.9699307,0.658581 1.5272499,1.2212876 C 4.2698956,4.8563954 4.2914602,4.4967021 4.1031087,4.3225359 3.4983756,3.7636395 3.2978087,3.6213046 2.8469303,3.1854092 2.8401603,3.1788992 2.6016618,2.9538222 2.4784315,2.8626997 2.3651313,2.7817127 2.23753,2.7610433 1.9814149,2.5912131 1.8072191,2.4757047 1.5928197,2.3411138 1.5402492,2.2347279 1.6820646,2.0971021 1.8745411,1.8826969 2.2776913,1.6899393 2.4930852,1.5281151 2.8144048,1.240128 2.8810318,1.1925154 3.0932912,1.0446641 3.4796644,0.72023411 3.5357475,0.68988511 3.7579627,0.56974751 3.4383695,0.51767011 3.1717128,0.59978711 3.0547855,0.66306301 2.8906292,0.70912661 2.6775602,0.85754101 2.464492,1.0059555 2.2996614,1.1936017 2.2352175,1.2320944 l -0.2430866,0.15397 C 1.6956745,1.5188132 1.5841658,1.7455943 1.1106686,2.035936 1.0497241,2.0733212 1.0135399,2.1441791 1.0170335,2.2192958 Z m 0.5585493,1.8486671 c 0.00143,0.065308 0.2727876,0.3734254 0.3236279,0.4095324 C 2.1876241,4.6822859 2.3500493,4.8176806 2.6663484,5.0437635 2.8733691,5.1916034 2.9203791,4.9163038 2.7134134,4.7683752 2.4722132,4.595971 2.0480153,4.1971572 2.0061893,4.0708157 c 0,0 0.299809,-0.4152461 0.3733568,-0.5528817 C 2.5051618,3.2862192 2.3746861,3.0192934 2.2514263,3.2524515 2.2681813,3.2211705 2.0949183,3.4539648 1.9810524,3.5474357 1.8279572,3.6788905 1.6323511,3.9077712 1.5755828,4.0679558 Z M 3.1304264,1.69466 c 0.00715,0.1515426 0.07423,0.1538821 0.1950221,0.074552 0,0 0.5115617,-0.3023383 0.8318262,-0.4071273 C 4.3781562,1.2280159 4.3394281,0.80631811 4.0557252,0.94222611 3.7176684,1.1041729 3.223738,1.5113001 3.223738,1.5113001 3.162919,1.5487781 3.126868,1.6196161 3.1304264,1.69466 Z m 0.1126923,0.4989915 c 0.00152,0.110301 0.1040005,0.1984242 0.2070074,0.1968912 l 0.9447333,0.057158 C 4.6472346,2.4515207 4.4515174,2.0632512 4.1991422,2.0670739 3.9951207,2.0932699 3.5596706,2.0127479 3.2431187,2.1936515 Z M 3.1175162,2.8732796 C 3.2172562,3.0301442 3.5551909,3.2196414 3.921033,3.3390524 4.1543958,3.4316294 4.2841288,3.0568393 4.050795,2.9641784 3.7483227,2.9165474 3.3624729,2.7519341 3.3624729,2.7519341 3.2430788,2.7024611 3.1225692,2.7362981 3.1175162,2.8732796 Z" ns1:connector-curvature="0" /><ns0:path style="color:#000000;font-style:normal;font-variant:normal;font-weight:normal;font-stretch:normal;font-size:medium;line-height:normal;font-family:sans-serif;text-indent:0;text-align:start;text-decoration:none;text-decoration-line:none;text-decoration-style:solid;text-decoration-color:#000000;letter-spacing:normal;word-spacing:normal;text-transform:none;writing-mode:lr-tb;direction:ltr;baseline-shift:baseline;text-anchor:start;white-space:normal;clip-rule:nonzero;display:inline;overflow:visible;visibility:visible;isolation:auto;mix-blend-mode:normal;color-interpolation:sRGB;color-interpolation-filters:linearRGB;solid-color:#000000;solid-opacity:1;fill:#860000;fill-opacity:0.97451;fill-rule:evenodd;stroke:none;stroke-width:0.386237;stroke-linecap:round;stroke-linejoin:miter;stroke-miterlimit:4;stroke-dasharray:none;stroke-dashoffset:0;stroke-opacity:1;color-rendering:auto;image-rendering:auto;shape-rendering:auto;text-rendering:auto;enable-background:accumulate" d="m 0.53446668,3.406603 c 0.0578,0.057158 0.17813,-0.00634 0.17813,-0.00634 0,0 0.19675984,-0.049014 0.37707952,-0.067362 0.18032,-0.018349 0.3307801,0.00336 0.4372101,0.015119 0.17136,0.018939 0.49491,0.1732176 0.6751,0.2918924 0.18018,0.1186747 0.3633,0.194819 0.58639,0.2044966 0.0457,0.00198 0.1338,-0.015138 0.17687,-0.022522 0.1464,0.1336148 0.21846,0.278576 0.25661,0.4152932 0.0514,0.1840774 0.19143,0.470824 0.41992,0.7184043 0.18218,0.1973966 0.35122,0.2763645 0.58596,0.342754 0.23474,0.06639 0.42753,0.1077413 0.59991,0.083128 0,0 0.20185,-0.00257 0.25967,-0.069249 0.0178,-0.090499 -0.0794,-0.226932 -0.0794,-0.226932 -0.19965,-0.2813394 -0.38792,-0.540284 -0.45516,-0.7610594 -0.0733,-0.2405211 -0.0497,-0.4947122 2.5e-4,-0.6595047 0.0656,-0.2164995 0.0362,-0.4509055 -0.013,-0.6777558 -0.0338,-0.1562802 -0.11156,-0.2608925 -0.21095,-0.3758642 0.11725,-0.1530829 0.1397,-0.2465769 0.22235,-0.3560003 0.10149,-0.134383 0.19655,-0.2893105 0.25865,-0.5278901 0.0649,-0.249165 0.0701,-0.5342059 0.0355,-0.79866619 -0.0346,-0.2644593 -0.0992,-0.5064601 -0.2464,-0.6784496 0,0 -0.10269,-0.147742 -0.16051,-0.1334522 -0.053,0.033364 -0.10955,0.1797992 -0.10955,0.1797992 0,0 -0.0627,0.1625587 -0.16362,0.3454974 -0.10094,0.1829388 -0.27767,0.3241919 -0.38596,0.44675239 -0.12818,0.1450661 -0.30027,0.1837026 -0.47474,0.2471656 -0.17355,0.063129 -0.39659,0.142185 -0.55549,0.3863226 -0.0761,0.116966 -0.14106,0.2307016 -0.18565,0.3524957 -0.12443,0.029073 -0.24053,0.027641 -0.36817,0.011996 -0.23358,-0.047928 -0.54645,0.025523 -0.77113,0.113089 -0.2370301,0.09238 -0.3596101,0.2832844 -0.4886998,0.4070686 -0.13755982,0.1318999 -0.28780982,0.3166221 -0.35756982,0.5033597 0,0 -0.048,0.1154151 -0.0436,0.2964138 z M 1.0200964,3.0089526 c 0.0341,-0.044259 0.1196398,-0.1785592 0.1858498,-0.2453209 0.1548101,-0.1561034 0.3757701,-0.2872118 0.5401201,-0.3144576 0.16004,-0.026532 0.3013,0.0045 0.45145,0.022913 0.0966,0.011843 0.20353,-0.00159 0.30571,-0.04124 0.002,0.031602 0.004,0.1106395 0.009,0.143256 0.0147,0.1088409 0.0444,0.2238243 0.0878,0.3478112 0.0842,0.2567606 0.13542,0.058515 0.11039,-0.2009645 -0.0104,-0.2025497 0.0903,-0.3928195 0.146,-0.5178668 0.0455,-0.1021911 0.1601,-0.269244 0.24335,-0.3198001 0.16217,-0.09849 0.35968,-0.2302253 0.44814,-0.2493647 0.16018,-0.034659 0.31421,-0.098115 0.52725,-0.2797813 0.19211,-0.1638075 0.25751,-0.37323259 0.36891,-0.57431069 0.0553,0.01796 0.10091,0.1803657 0.10756,0.23117499 0.0284,0.216749 -0.0192,0.4504944 -0.10076,0.6088313 -0.089,0.1729807 -0.0888,0.2892423 -0.18058,0.4345287 -0.0602,0.095403 -0.10236,0.2249292 -0.2284,0.291561 -0.1922,-0.087882 -0.36755,-0.183271 -0.55491,-0.2181629 -0.2514,-0.055506 -0.004,0.2066832 0.18763,0.3195111 0.2536,0.1198604 0.4485,0.3139565 0.54544,0.6060817 0.0628,0.1891463 0.004,0.3514661 -0.0316,0.5270632 -0.0354,0.1755949 -0.0747,0.421144 0.0224,0.7396844 0.0667,0.2190603 0.14324,0.5062951 0.37255,0.7145497 -0.1185,0.02276 -0.23941,-0.038295 -0.29708,-0.057419 -0.18961,-0.062885 -0.3814,-0.2435178 -0.49194,-0.3632957 -0.16829,-0.1823439 -0.21845,-0.4102884 -0.27113,-0.5990244 -0.0389,-0.1394981 -0.036,-0.1992609 -0.15642,-0.3444637 0.17192,-0.1063744 0.3139,-0.2566647 0.42833,-0.4348953 0.141,-0.2196063 -0.0969,-0.1683087 -0.32651,0.042889 -0.14976,0.1377306 -0.28056,0.187537 -0.60666,0.2072261 -0.16627,0.010039 -0.34856,-0.07268 -0.52077,-0.1861061 -0.20367,-0.1471071 -0.38318,-0.2711251 -0.66239,-0.3019857 -0.22097,-0.018518 -0.5060601,-0.036256 -0.6584199,0.011378 z" id="element-fire" ns1:connector-curvature="0" ns2:nodetypes="ccssssccsscccssscssscccssssccssccccsscsccsssscssscccscscssscccssccc" /><ns0:path id="element-water" style="color:#000000;font-style:normal;font-variant:normal;font-weight:normal;font-stretch:normal;font-size:medium;line-height:normal;font-family:sans-serif;text-indent:0;text-align:start;text-decoration:none;text-decoration-line:none;text-decoration-style:solid;text-decoration-color:#000000;letter-spacing:normal;word-spacing:normal;text-transform:none;writing-mode:lr-tb;direction:ltr;baseline-shift:baseline;text-anchor:start;white-space:normal;clip-rule:nonzero;display:inline;overflow:visible;visibility:visible;isolation:auto;mix-blend-mode:normal;color-interpolation:sRGB;color-interpolation-filters:linearRGB;solid-color:#000000;solid-opacity:1;fill:#00007e;fill-opacity:1;fill-rule:evenodd;stroke:none;stroke-width:0.386237;stroke-linecap:round;stroke-linejoin:miter;stroke-miterlimit:4;stroke-dasharray:none;stroke-dashoffset:0;stroke-opacity:1;color-rendering:auto;image-rendering:auto;shape-rendering:auto;text-rendering:auto;enable-background:accumulate" d="M 3.3252295,0.51342907 C 3.3461255,0.71830237 3.5531873,1.0063695 3.5644708,1.2159003 3.6177898,1.6064809 3.4904088,2.1010528 3.4791128,2.4913855 3.4627158,3.1523265 3.7583853,3.520731 3.9587064,4.133887 4.0354874,4.2889593 4.1395473,4.129447 4.1631182,3.9557541 4.1745562,3.8136839 4.0885502,3.5865316 4.0578092,3.451653 3.9360165,3.0853694 3.8394159,2.7613747 3.8899906,2.3699148 3.9802616,1.8525718 4.0249896,1.519824 3.9446466,1.0125743 3.8969836,0.84704547 3.7330799,0.68824377 3.6556137,0.53934527 3.5462538,0.40462997 3.3202635,0.33487427 3.3252295,0.51342907 Z m -0.914041,0.3311606 C 2.4042085,1.1219418 2.5674208,1.1563667 2.5735044,1.5448742 2.6103394,2.0186974 2.4926534,2.3335892 2.467292,2.8049282 2.411139,3.4283836 2.7631993,4.111584 2.9159909,4.6797067 3.0010139,4.829768 3.1840176,4.6687997 3.1981735,4.4939355 3.1976509,4.3384219 3.2323955,4.2874965 3.2046235,4.1358055 3.0643633,3.665988 2.7090892,3.3645121 2.7657039,2.8777819 2.8108309,2.3867458 3.0210064,1.7251654 2.9207765,1.2337705 2.8587305,1.0782586 2.7680433,0.93728787 2.6538157,0.82587757 2.5340846,0.74669157 2.4068283,0.69381527 2.4111885,0.84458967 Z M 1.3658756,1.5579588 C 1.3862496,1.6922246 1.4903189,1.8392891 1.5280471,1.9689932 1.6877233,2.3684733 1.6669614,2.773 1.5729051,3.1954173 1.5417781,3.3839578 1.4740631,3.6687964 1.4409014,3.8558546 1.3988764,4.3757902 1.6553206,4.7889651 1.9397696,5.1875836 2.0521668,5.3153391 2.180471,5.1897136 2.1602347,5.015533 2.1050187,4.8143927 2.0761217,4.5654223 1.9614428,4.3671793 1.845484,4.1168873 1.78838,3.7486329 1.8925398,3.4761889 2.0219506,3.0124509 2.0745851,2.5897414 1.9594608,2.113585 1.8998528,1.834175 1.7857585,1.656932 1.6138093,1.4343965 1.4962897,1.3232455 1.3527234,1.3905695 1.3658756,1.5579588 Z" ns1:connector-curvature="0" /><ns0:g id="a-clone" ns1:label="a-master" transform="matrix(0.89099999,0,0,0.89099999,55.294927,69.051455)" style="display:inline"><ns0:path ns2:type="star" style="display:inline;fill:#08e0b8;fill-opacity:1;fill-rule:evenodd;stroke-width:0.264583" id="path85" ns1:flatsided="true" ns2:sides="6" ns2:cx="-308.26138" ns2:cy="75.390007" ns2:r1="18.711763" ns2:r2="16.204863" ns2:arg1="0.52359878" ns2:arg2="1.0471976" ns1:rounded="0" ns1:randomized="0" d="m -292.05652,84.745889 -16.20486,9.355881 -16.20487,-9.355881 0,-18.711764 16.20487,-9.355881 16.20486,9.355881 z" transform="matrix(0,0.26458333,-0.26458333,0,-33.133149,71.99467)" /><ns0:path id="path86" style="fill:#d1fdf5;fill-opacity:1;stroke:none;stroke-width:1.31502;stroke-linecap:round;stroke-linejoin:round;stroke-dasharray:none;stroke-dashoffset:0;stroke-opacity:0.791086" d="m -55.810359,-12.415525 -0.09423,0.889116 0.57867,-0.09523 1.300945,0.02898 -1.577228,4.0470765 -0.33758,0.4319284 1.266826,0.1142384 0.0937,-0.3649423 0.39784,-0.7939884 2.102638,-0.02567 0.367279,0.6986484 -0.05709,0.4231322 1.543353,-0.055978 -0.242979,-0.3792589 -1.572574,-4.0900213 1.1273,0.0574 0.505926,0.197804 0.268046,-1.160895 -0.549278,0.124878 -4.599477,-0.02702 z m 2.762365,1.313024 0.74132,1.9471067 -1.529336,0.012379 z" ns1:label="a" ns2:nodetypes="ccccccccccccccccccccccccc" /></ns0:g><ns0:g id="b-clone" transform="matrix(0.89099999,0,0,0.89099999,60.366051,57.473821)" ns1:label="b-master" style="display:inline"><ns0:path ns2:type="star" style="fill:#d56d04;fill-opacity:1;fill-rule:evenodd;stroke-width:0.264583" id="path87" ns1:flatsided="true" ns2:sides="8" ns2:cx="-257.21057" ns2:cy="-11.565224" ns2:r1="22.350525" ns2:r2="20.649193" ns2:arg1="1.5707963" ns2:arg2="1.9634954" ns1:rounded="0" ns1:randomized="0" d="m -257.21057,10.785301 -15.80421,-6.5463165 -6.54632,-15.8042075 6.54632,-15.804208 15.80421,-6.546318 15.80421,6.546317 6.54631,15.804208 -6.54631,15.8042076 z" transform="matrix(0.20594784,-0.08530638,0.08530638,0.20594784,-4.8130289,-16.132047)" /><ns0:path id="path88" style="fill:#fee3c8;fill-opacity:1;stroke:none;stroke-width:1.3465;stroke-linecap:round;stroke-linejoin:round;stroke-dasharray:none;stroke-dashoffset:0;stroke-opacity:0.791086" d="m -60.269016,0.67066041 0.295164,0.57621799 0.05541,1.6609867 -0.852994,-0.054686 0.07261,-0.6439804 -0.833328,-0.1465586 0.06419,0.8231592 -0.674082,-0.2210918 v 1.0269284 l 0.707,-0.042654 -0.231174,0.7701072 0.832486,0.085666 -0.0397,-0.8557724 0.900979,0.172936 -0.0149,1.5974284 -0.281524,0.6861275 c 0,0 2.748809,0.01085 3.171507,-0.042829 0.298375,-0.08052 0.802173,-0.5548351 0.951361,-0.9842742 0.07459,-0.2415594 -0.09361,-0.6609938 -0.158565,-0.9414379 -0.06061,-0.2616844 -0.251916,-0.593253 -0.475697,-0.7274528 0.273509,-0.2147196 0.38644,-0.7419836 0.436169,-1.1982627 0,-0.1878796 -0.207602,-0.6730385 -0.356789,-0.9414379 -0.198917,-0.1610397 -0.598634,-0.45978421 -0.872143,-0.51346409 z m 2.373818,1.08322599 c 0.160276,0.086505 0.420975,0.4027057 0.420975,0.6622192 0,0.2471558 -0.300809,0.4181353 -0.49543,0.4799242 -0.160275,0.024716 -1.017392,-0.093867 -1.017392,-0.093867 l 0.0074,-1.1612987 c 0,0 0.889775,0.026517 1.084395,0.1130221 z m 0.09069,2.1417187 c 0.174052,0.1341997 0.404694,0.4001851 0.404694,0.6417445 0,0.2683995 -0.247291,0.5838714 -0.371614,0.5838714 -0.298375,0.1610397 -1.128816,0.096801 -1.128816,0.096801 l -0.0397,-1.3774872 c 0,0 0.886784,0.02823 1.13543,0.05507 z" ns2:nodetypes="ccccccccccccccccccsccccccccccccccccc" ns1:label="b" /></ns0:g><ns0:g id="c-clone" ns1:label="c-master" transform="matrix(0.89099999,0,0,0.89099999,60.143928,47.478292)" style="display:inline"><ns0:circle style="fill:#c9bb04;fill-opacity:1;stroke:none;stroke-width:0.25;stroke-dasharray:0.25, 0.25" id="circle88" cx="-58.522282" cy="14.646151" r="4.5606489" /><ns0:path id="path89" style="fill:#fef9b7;fill-opacity:1;stroke:none;stroke-width:1.296;stroke-linecap:round;stroke-linejoin:round;stroke-dasharray:none;stroke-dashoffset:0;stroke-opacity:0.791086" d="m -57.791618,11.548115 c -0.319989,-0.02974 -0.899529,-0.02966 -1.158787,0.07283 -0.233494,0.09231 -0.94518,0.440338 -1.147251,0.59455 -0.233095,0.177888 -0.659492,0.673247 -0.743548,0.837996 -0.202645,0.397187 -0.441423,1.238247 -0.466301,1.581558 -0.03237,0.44663 0.297024,1.474869 0.484056,1.633128 0.259844,0.219867 1.164489,0.807099 1.451618,0.846703 0.376989,0.052 1.707642,0.101157 2.327648,-0.111174 0.215802,-0.0739 0.906293,-0.88789 0.906293,-0.88789 0,0 -1.418694,0.2803 -1.878908,0.245955 -0.308247,-0.02301 -0.990979,-0.170545 -1.174533,-0.249807 -0.320174,-0.138257 -0.737399,-0.668726 -0.776369,-1.047284 -0.04118,-0.400046 -0.101697,-1.167094 0.04452,-1.409106 0.189535,-0.313713 0.671931,-0.996858 1.075687,-1.147513 0.229242,-0.08554 1.005469,-0.393992 1.72221,-0.519872 0.36052,-0.06332 0.657726,-0.317014 0.657726,-0.317014 z m 0.449906,1.307472 -1.374602,2.076989 2.684761,0.148347 z m -0.06211,1.128826 0.370688,0.500451 -0.696245,-0.03104 z" ns1:label="c" ns2:nodetypes="sssssssscsssssscscccccccc" /></ns0:g><ns0:g id="d-clone" ns1:label="d-master" transform="matrix(0.89099999,0,0,0.89099999,60.699235,36.705315)" style="display:inline"><ns0:path id="path90" style="fill:#9bc904;fill-opacity:1;stroke:none;stroke-width:0.25;stroke-dasharray:0.25, 0.25" d="m -61.844803,22.716443 -1.321367,1.321367 v 5.398119 l 1.321367,1.321366 h 5.398119 l 1.321883,-1.321366 V 24.03781 l -1.321883,-1.321367 z" ns2:nodetypes="ccccccccc" /><ns0:path id="path91" style="fill:#f0fec2;fill-opacity:1;stroke:none;stroke-width:1.33331;stroke-linecap:round;stroke-linejoin:round;stroke-dasharray:none;stroke-dashoffset:0;stroke-opacity:0.791086" d="m -61.45768,23.89037 v 1.054935 l 0.360677,-0.166925 0.540506,0.1329 0.04242,1.052597 h -0.953042 l -0.424634,-0.201986 v 1.259081 l 0.361033,-0.179542 1.006372,0.04489 v 1.359711 l -0.611994,0.0485 -0.476669,-0.218616 v 1.224877 l 0.448319,-0.0809 c 0,0 2.732138,0.171407 2.923118,0.148948 0.387228,-0.04554 1.086859,-0.302969 1.350173,-0.442316 0.314441,-0.166404 0.805411,-0.879923 0.964548,-1.361155 0.06543,-0.197867 0.02415,-1.182429 -0.06428,-1.463226 -0.168326,-0.534472 -0.781091,-1.150202 -0.932439,-1.360977 -0.1532,-0.213351 -0.979931,-0.618933 -1.221578,-0.680667 -0.22287,-0.05694 -2.94047,-0.02387 -2.94047,-0.02387 z m 4.347636,3.265068 c 0,0 -0.06774,0.388359 -0.167055,0.546021 -0.126242,0.200424 -0.49536,0.527838 -0.83579,0.612618 -0.476879,0.11876 -1.358165,0.12755 -1.358165,0.12755 l 0.01643,-1.438638 1.315815,0.06186 -0.0753,-1.006321 -1.201721,-0.01007 -0.05629,-1.138523 c 0,0 1.05442,0.174584 1.326957,0.205488 0.175862,0.01994 0.643552,0.340884 0.803682,0.510366 0.11209,0.118637 0.262857,0.643715 0.262857,0.643715" ns2:nodetypes="cccccccccccccccsssssscccssccccccssc" ns1:label="d" /></ns0:g><ns0:g id="e-clone" transform="matrix(0.89099999,0,0,0.89099999,60.699227,27.042985)" ns1:label="e-master" style="display:inline"><ns0:ellipse style="fill:#14c604;fill-opacity:1;stroke:none;stroke-width:0.25;stroke-dasharray:0.25, 0.25" id="ellipse91" cx="-59.145523" cy="37.581398" rx="3.7787178" ry="4.6935654" /><ns0:path style="fill:#c9fec5;fill-opacity:1;stroke:none;stroke-width:1.4124;stroke-linecap:round;stroke-linejoin:round;stroke-dasharray:none;stroke-dashoffset:0;stroke-opacity:0.791086" d="m -60.417296,34.851377 3.107246,-0.03082 0.405146,1.294146 -0.672294,-0.302969 -1.533826,-0.04651 0.08157,1.18144 1.179959,-0.015 0.430642,-0.15155 0.330856,1.358402 -0.604149,-0.143712 -1.411561,-0.02742 0.03846,1.357858 1.444728,-0.02984 0.809119,-0.284246 -0.498646,1.170893 -2.982566,0.08064 0.223292,-0.424893 -0.139132,-1.882195 -1.080776,0.07058 -0.508624,0.153031 0.186966,-1.294137 0.477445,0.178721 0.954215,-0.08364 -0.01455,-1.648047 z" id="path92" ns1:label="e" ns2:nodetypes="ccccccccccccccccccccccccc" /></ns0:g><ns0:g id="f-clone" transform="matrix(0.89099999,0,0,0.89099999,60.254969,16.714255)" ns1:label="f-master" style="display:inline"><ns0:path id="path93" style="display:inline;fill:#e33505;fill-opacity:1;stroke-width:0.223172;stroke-dasharray:0.223172, 0.223172" d="m -58.647039,43.935805 c -1.855187,1.546992 -3.132202,3.342015 -4.174215,5.23751 l 0.0033,4.13e-4 -0.0033,4.14e-4 c 1.042013,1.895495 2.319028,3.690105 4.174215,5.237096 v -0.0025 l 4.14e-4,0.0025 c 1.855187,-1.546991 3.131789,-3.341601 4.173802,-5.237096 l -0.0041,-4.14e-4 0.0041,-4.13e-4 c -1.042013,-1.895495 -2.318615,-3.690518 -4.173802,-5.23751 v 0.0025 z" /><ns0:path id="path94" style="fill:#fed4c9;fill-opacity:1;stroke:none;stroke-width:1.249;stroke-linecap:round;stroke-linejoin:round;stroke-dasharray:none;stroke-dashoffset:0;stroke-opacity:0.791086" d="m -56.77166,46.446902 -3.08295,0.02784 0.269355,0.30775 0.104875,1.480876 -0.849169,0.0796 -0.374139,-0.159281 -0.16927,1.015597 0.524954,-0.192818 0.952587,-0.06 0.0521,0.899372 c 0,0 -0.2412,0.03803 -0.48808,0.281396 -0.191885,0.189152 -0.340364,0.374691 -0.394469,0.578728 -0.07878,0.297075 -0.02507,0.542395 0.05191,0.710838 0.127029,0.278006 0.190899,0.40633 0.329804,0.506131 0.190552,0.136909 0.422256,0.312828 0.769502,0.332029 0.212097,0.01173 0.490751,0.01317 0.784923,-0.128145 0.202572,-0.09731 0.376241,-0.277956 0.501539,-0.503036 0.10995,-0.197514 0.110502,-0.467497 0.108266,-0.79313 -0.0018,-0.273446 -0.167739,-0.504914 -0.370619,-0.697857 -0.141256,-0.134337 -0.517226,-0.2781 -0.517226,-0.2781 l -0.01288,-0.952329 0.966205,-0.04031 0.475002,0.121155 0.130514,-1.021142 -0.522051,0.22822 -1.053396,0.04826 -0.06302,-1.016655 1.515379,-0.04386 0.586485,0.284187 z m -1.768771,4.252565 c 0.110651,0.146778 0.192564,0.362506 0.04157,0.548219 -0.143064,0.175948 -0.32819,0.254722 -0.533125,0.207862 -0.197416,-0.04514 -0.35926,-0.09066 -0.4059,-0.287725 -0.04485,-0.189492 -0.04121,-0.319527 0.05476,-0.488969 0.101559,-0.179326 0.281863,-0.173002 0.42938,-0.177407 0.190096,-0.0057 0.285978,0.02909 0.413323,0.19802 z" ns1:label="f" ns2:nodetypes="ccccccccccssssssssscccccccccccssssssss" /></ns0:g><ns0:g id="g-clone" ns1:label="g-master" transform="matrix(0.89099999,0,0,0.89099999,60.143928,5.1638791)" style="display:inline"><ns0:path id="path95" style="display:inline;fill:#04b1ab;fill-opacity:1;stroke:none;stroke-width:0.25;stroke-dasharray:0.25, 0.25" d="m -60.692432,57.58748 -1.321367,1.321367 V 65.3653 l 1.321367,1.321366 h 4.339785 l 1.321883,-1.321366 v -6.456453 l -1.321883,-1.321367 z" ns2:nodetypes="ccccccccc" /><ns0:path style="fill:#d2fefc;fill-opacity:1;stroke:none;stroke-width:1.296;stroke-linecap:round;stroke-linejoin:round;stroke-dasharray:none;stroke-dashoffset:0;stroke-opacity:0.791086" d="m -57.156009,60.182671 -0.145296,-1.071126 c 0,0 -1.211561,-0.149813 -1.764878,0.08314 -0.480976,0.202497 -0.924898,0.526872 -1.264476,0.923143 -0.362199,0.42267 -0.523466,0.616435 -0.60792,1.166622 -0.06204,0.404183 -0.108522,0.922111 0.07435,1.287856 0.182871,0.365739 0.40376,0.638675 0.738853,0.873025 0.327951,0.229355 0.832309,0.192972 1.232059,0.211827 0.240217,0.01133 0.837567,-0.125945 0.837567,-0.125945 l -0.03542,0.544228 -1.072819,0.08481 -0.125285,0.74142 1.165016,-0.07285 -0.101894,0.699222 1.01933,-0.0073 0.101894,-0.744498 1.063124,-0.06879 0.103414,-0.698247 -1.158441,0.05486 c 0,0 0.06109,-0.687783 0.07582,-1.039175 0.01314,-0.313412 0.0022,-1.031592 0.0022,-1.031592 l 0.865673,-0.01444 0.08062,-0.623373 -0.956137,0.02927 -0.0036,-0.507766 -0.761628,0.03909 -0.03722,0.434853 -0.651788,0.06216 -0.124338,0.652232 0.729025,-0.03946 -0.06852,0.741666 c 0,0 -0.683253,0.08992 -1.016235,0.07339 -0.436065,-0.02166 -0.967963,-0.336714 -1.059917,-0.948427 -0.0732,-0.48695 0.346533,-1.132765 0.710639,-1.464283 0.372974,-0.339592 0.976998,-0.550048 1.480411,-0.457263 0.222091,0.04094 0.675746,0.211679 0.675746,0.211679 z" id="path96" ns1:label="g" ns2:nodetypes="ccsssssscccccccccccscccccccccccsssscc" /></ns0:g><ns0:g id="h-clone" transform="matrix(0.89099999,0,0,0.89099999,49.926265,56.141085)" ns1:label="h-master" style="display:inline"><ns0:ellipse style="display:inline;fill:#0499d5;fill-opacity:1;stroke:none;stroke-width:0.25;stroke-dasharray:0.25, 0.25" id="ellipse96" cx="-47.054657" cy="4.9235997" rx="4.1203909" ry="4.6935654" /><ns0:path id="path97" style="fill:#cbeffe;fill-opacity:1;stroke:none;stroke-width:1.296;stroke-linecap:round;stroke-linejoin:round;stroke-dasharray:none;stroke-dashoffset:0;stroke-opacity:0.791086" d="m -47.847603,1.6694782 -1.243466,0.037792 0.14908,0.2369751 -0.02386,0.4566701 -1.037176,0.169439 -0.187907,0.616486 1.190447,-0.1915437 -0.0467,3.6133279 -0.170813,0.3346526 1.323554,0.060782 -0.156825,-0.4078539 0.02839,-1.7472437 c 0,0 0.364567,-0.2754896 0.617159,-0.352568 0.285236,-0.087039 0.672594,-0.102032 0.893552,0.1104005 0.215846,0.2075166 0.344913,0.6463931 0.258034,1.0753122 -0.04768,0.2354121 -0.211618,0.8328381 -0.02349,1.3589464 0.109039,0.3049318 0.43883,0.6036548 0.79489,0.7482298 0.298309,0.1211263 0.630478,0.028142 1.067529,-0.1428773 -0.285033,-0.076009 -0.499618,-0.2184728 -0.676096,-0.3648302 -0.454941,-0.3772946 -0.360398,-0.8808204 -0.22819,-1.615073 0.08326,-0.4624359 0.04778,-1.0702533 -0.157971,-1.386015 -0.323472,-0.4963455 -0.97776,-0.8341613 -1.353825,-0.8592322 -0.352954,-0.02353 -1.111024,0.352716 -1.111024,0.352716 l 0.04448,-0.9496169 1.029593,-0.1592539 0.116136,-0.6415737 -1.203854,0.1794863 -0.01377,-0.3144674 z" ns2:nodetypes="ccccccccccccssssscssssccccccc" ns1:label="h" /></ns0:g><ns0:g id="m-clone" transform="matrix(0.89099999,0,0,0.89099999,48.371409,46.376048)" ns1:label="m-master" style="display:inline"><ns0:path ns2:type="star" style="fill:#0455e1;fill-opacity:1;fill-rule:evenodd;stroke-width:0.264583" id="path98" ns1:flatsided="true" ns2:sides="7" ns2:cx="-181.66415" ns2:cy="58.691498" ns2:r1="19.315664" ns2:r2="19.691956" ns2:arg1="-1.5707963" ns2:arg2="-1.1219974" ns1:rounded="0" ns1:randomized="0" d="m -181.66415,39.375834 15.10159,7.272545 3.72979,16.341259 -10.45063,13.104672 -16.76151,0 -10.45062,-13.104673 3.72978,-16.341259 z" transform="matrix(-0.25378093,0,0,-0.25378093,-91.412482,30.62149)" ns1:transform-center-y="0.27465076" /><ns0:path style="fill:#d7e5fe;fill-opacity:1;stroke:none;stroke-width:1.22733;stroke-linecap:round;stroke-linejoin:round;stroke-dasharray:none;stroke-dashoffset:0;stroke-opacity:0.791086" d="m -48.738221,18.099621 0.204801,-0.409939 1.178885,-4.538364 -0.04672,-0.328954 1.03693,0.07319 0.950061,2.300576 1.03109,-2.431939 1.214676,0.03661 -0.07322,0.400346 1.169218,4.432053 0.252753,0.465001 -1.315634,0.02005 0.02786,-0.418154 -1.016032,-2.953564 -0.800245,1.558272 0.807519,1.494832 0.28039,0.329759 h -1.163555 l 0.0176,-0.273405 -0.481341,-0.71865 -0.385631,0.677794 0.0032,0.329301 h -1.030127 l 0.195145,-0.256844 0.661681,-1.606733 -0.753523,-1.456137 -0.939191,2.932122 0.04098,0.383909 z" id="path99" ns1:label="m" ns2:nodetypes="ccccccccccccccccccccccccccccc" /></ns0:g><ns0:g id="r-clone" transform="matrix(0.89099999,0,0,0.89099999,49.037775,36.987471)" ns1:label="r-master" style="display:inline"><ns0:path ns2:type="star" style="fill:#9100e0;fill-opacity:1;fill-rule:evenodd;stroke-width:0.264583" id="path100" ns1:flatsided="true" ns2:sides="5" ns2:cx="-148.95346" ns2:cy="104.07106" ns2:r1="20.20487" ns2:r2="16.346085" ns2:arg1="-1.5707963" ns2:arg2="-0.9424778" ns1:rounded="0" ns1:randomized="0" d="m -148.95346,83.86619 19.21597,13.961222 -7.33985,22.589728 -23.75225,0 -7.33984,-22.589729 z" transform="matrix(0.24781836,0,0,0.24781836,-9.1440705,0.58220043)" ns1:transform-center-y="-0.47813947" /><ns0:path id="path101" style="fill:#eeceff;fill-opacity:1;stroke:none;stroke-width:1.33163;stroke-linecap:round;stroke-linejoin:round;stroke-dasharray:none;stroke-dashoffset:0;stroke-opacity:0.791086" d="m -48.204514,23.722109 0.356011,0.506581 -0.07485,0.918379 -1.099849,0.136742 -0.211767,0.865516 1.328205,-0.08697 0.0336,2.46748 -0.175612,0.501325 1.40123,0.02542 -0.142916,-0.525265 0.03192,-1.117645 1.254657,0.08552 0.407171,1.205054 -0.0886,0.427084 1.420758,-0.05614 -0.462714,-0.574484 -0.375766,-1.19332 c 0,0 0.36816,-0.436208 0.558447,-0.707943 0.115545,-0.165001 0.167309,-0.602075 0.179961,-0.842518 l 0.829136,-0.08134 0.265551,-0.879408 -1.210529,0.0799 c -0.164484,-0.400739 -0.803239,-0.969497 -1.119809,-1.063951 -0.270345,-0.08066 -3.104244,-0.09001 -3.104243,-0.09001 z m 2.766506,0.920469 c 0.150684,0.02727 0.276793,0.217955 0.276793,0.311461 l -1.522476,0.10058 -0.05592,-0.377746 c 0,0 1.002049,-0.08851 1.301606,-0.0343 z m 0.551708,1.174607 c 0,0 -5.2e-4,0.297945 -0.181894,0.451133 -0.140422,0.118599 -0.394716,0.281421 -0.558835,0.292973 -0.216099,0.01521 -1.05731,6.84e-4 -1.05731,6.84e-4 l -0.0032,-0.70312 z" ns1:label="r" ns2:nodetypes="cccccccccccccccccsccccsccsccscsscccss" /></ns0:g><ns0:g id="w-clone" transform="matrix(0.89099999,0,0,0.89099999,49.160602,27.487847)" ns1:label="w-master" style="display:inline"><ns0:path id="path102" style="fill:#2000c1;fill-opacity:1;fill-rule:evenodd;stroke-width:0.111243" ns1:transform-center-y="1.6222393" d="m -50.320506,32.816437 -0.686628,1.189857 4.246317,7.354184 h 1.373256 l 4.246313,-7.354184 -0.687121,-1.189857 z" /><ns0:path style="fill:#d3cbff;fill-opacity:1;stroke:none;stroke-width:1.3205;stroke-linecap:round;stroke-linejoin:round;stroke-dasharray:none;stroke-dashoffset:0;stroke-opacity:0.791086" d="m -49.45155,33.974635 0.294614,0.333168 2.611926,5.023403 1.296227,-0.01561 1.886846,-4.799348 0.321936,-0.546086 -1.445601,-0.04233 0.06992,0.410714 -1.443356,3.710899 -0.548952,-0.934253 0.835239,-2.729009 0.387374,-0.411561 -1.588572,0.03246 0.06858,0.357981 -0.403898,1.834302 -0.901868,-1.856059 0.04612,-0.360591 z" id="path103" ns1:label="w" ns2:nodetypes="cccccccccccccccccc" /></ns0:g><ns0:g id="y-clone" ns1:label="y-master" transform="matrix(0.89099999,0,0,0.89099999,49.037778,16.50509)" style="display:inline"><ns0:path ns2:type="star" style="display:inline;fill:#b500a6;fill-opacity:1;fill-rule:evenodd;stroke-width:0.264583" id="path104" ns1:flatsided="true" ns2:sides="5" ns2:cx="-148.95346" ns2:cy="104.07106" ns2:r1="20.20487" ns2:r2="16.346085" ns2:arg1="-1.5707963" ns2:arg2="-0.9424778" ns1:rounded="0" ns1:randomized="0" d="m -148.95346,83.86619 19.21597,13.961222 -7.33985,22.589728 -23.75225,0 -7.33984,-22.589729 z" transform="matrix(-0.24355698,0,0,-0.24355698,-82.336128,74.419028)" ns1:transform-center-y="0.46991868" /><ns0:path style="fill:#ffc8fa;fill-opacity:1;stroke:none;stroke-width:1.33213;stroke-linecap:round;stroke-linejoin:round;stroke-dasharray:none;stroke-dashoffset:0;stroke-opacity:0.791086" d="m -48.810998,46.623632 1.236977,0.01321 1.160392,1.466712 -0.0878,-1.069351 -0.241698,-0.460528 1.434212,0.04433 -0.281852,0.504167 -0.0058,1.014672 1.275873,-0.925297 -0.290853,-0.42604 1.559412,-0.109835 -0.519825,1.647562 -0.264607,-0.399405 -1.732608,1.452288 -0.0064,1.995936 0.179603,0.540315 -1.294805,-0.03772 0.194983,-0.646415 -0.0049,-1.766685 -1.865637,-2.422603 z" id="path105" ns1:label="y" ns2:nodetypes="ccccccccccccccccccccc" /></ns0:g><ns0:g id="z-clone" ns1:label="z-master" transform="matrix(0.89099999,0,0,0.89099999,48.149286,4.6085729)" style="display:inline"><ns0:path id="path106" style="display:inline;fill:#c60049;fill-opacity:1;stroke:none;stroke-width:0.25;stroke-dasharray:0.25, 0.25" d="m -47.759605,58.739887 -1.321367,1.321367 v 5.398119 l 1.321367,1.321366 h 5.398119 l 1.321883,-1.321366 v -5.398119 l -1.321883,-1.321367 z" ns2:nodetypes="ccccccccc" /><ns0:path id="path107" style="fill:#ffe1ec;fill-opacity:1;stroke:none;stroke-width:1.36685;stroke-linecap:round;stroke-linejoin:round;stroke-dasharray:none;stroke-dashoffset:0;stroke-opacity:0.791086" d="m -47.888222,59.845746 -0.112119,1.518431 0.699826,-0.423922 2.054008,-0.07547 -2.577239,4.454081 c 0,0 1.174803,-0.0505 1.566318,-0.08236 0.273366,-0.02224 1.224882,0.437567 1.224882,0.437567 l -0.519457,0.576265 0.768902,0.07137 0.416601,-0.452825 0.631578,0.09022 c 0.47674,0.06811 1.290693,-0.327796 1.553712,-0.555342 0.170051,-0.147117 0.448928,-1.17997 0.448928,-1.17997 0,0 -0.631734,0.542589 -0.848006,0.699476 -0.152927,0.110938 -0.43971,0.153623 -0.64821,0.186753 -0.127804,0.02031 -0.592479,-0.10799 -0.592479,-0.10799 l 0.663941,-0.96707 -0.668777,0.02986 -0.580377,0.679356 c 0,0 -0.73329,-0.608972 -1.495361,-0.573349 l 2.462497,-4.22974 z" ns2:nodetypes="cccccsccccsscssccccccc" ns1:label="z" /></ns0:g></g><ns0:text xml:space="preserve" style="font-style:normal;font-weight:normal;font-size:4.93889px;line-height:1.25;font-family:sans-serif;display:inline;fill:#000000;fill-opacity:1;stroke:none;stroke-width:0.264583" x="34.925701" y="10.823263" id="monster-name" ns1:label="monster-name"><ns0:tspan ns2:role="line" id="tspan1" style="font-style:normal;font-variant:normal;font-weight:normal;font-stretch:normal;font-size:4.93889px;font-family:CCTreasureTrove;-inkscape-font-specification:CCTreasureTrove;text-align:center;text-anchor:middle;stroke-width:0.264583" x="34.925701" y="10.823263">Croco</ns0:tspan></ns0:text><ns0:image width="40.349148" height="44.188335" preserveAspectRatio="none" ns3:href="../images/cocodrillus.png" id="image-cocodrillus" x="14.750425" y="12.608825" clip-path="url(#clippath--1)" /><ns0:text xml:space="preserve" style="font-style:normal;font-weight:normal;font-size:3.52778px;line-height:1.25;font-family:sans-serif;display:inline;fill:#000000;fill-opacity:1;stroke:none;stroke-width:0.264583" x="35.541271" y="75.569283" id="weakness-i" ns1:label="weakness-i"><ns0:tspan ns2:role="line" id="tspan1-7" style="font-style:normal;font-variant:normal;font-weight:normal;font-stretch:normal;font-size:3.52778px;font-family:CCTreasureTrove;-inkscape-font-specification:CCTreasureTrove;text-align:center;text-anchor:middle;stroke-width:0.264583" x="35.541271" y="75.569283">I</ns0:tspan></ns0:text><ns0:text xml:space="preserve" style="font-style:normal;font-weight:normal;font-size:3.52778px;line-height:1.25;font-family:sans-serif;display:inline;fill:#000000;fill-opacity:1;stroke:none;stroke-width:0.264583" x="34.878155" y="96.735939" id="weakness-ii" ns1:label="weakness-ii"><ns0:tspan ns2:role="line" id="tspan112" style="font-style:normal;font-variant:normal;font-weight:normal;font-stretch:normal;font-size:3.52778px;font-family:CCTreasureTrove;-inkscape-font-specification:CCTreasureTrove;text-align:center;text-anchor:middle;stroke-width:0.264583" x="34.878155" y="96.735939">II</ns0:tspan></ns0:text><g id="weakness"><use id="use1314" xlink:href="#a-clone" width="100%" height="100%" x="3" y="1.25" /><use id="use1315" xlink:href="#f-clone" width="100%" height="100%" x="13" y="1.25" /><use id="use1316" xlink:href="#e-clone" width="100%" height="100%" x="23" y="1.25" /><use id="use1317" xlink:href="#w-clone" width="100%" height="100%" x="3" y="11.25" /><use id="use1318" xlink:href="#c-clone" width="100%" height="100%" x="3" y="22.5" /><use id="use1319" xlink:href="#g-clone" width="100%" height="100%" x="13" y="22.5" /><use id="use1320" xlink:href="#y-clone" width="100%" height="100%" x="23" y="22.5" /></g><g id="pattern_translate" transform="translate(52 76)"><g id="pattern_rotate" transform="rotate(90)"><use id="use1321" xlink:href="#element-air" width="100%" height="100%" x="-13.25" y="-9.75" /><circle id="circle1322" cx="-3.5" cy="-7.0" r="0.8" style="fill:#c0c0c0;stroke:none;stroke-width:0" /><circle id="circle1323" cx="3.5" cy="-7.0" r="0.8" style="fill:#c0c0c0;stroke:none;stroke-width:0" /><rect id="rect1324" x="7.75" y="-9.75" width="5.5" height="5.5" style="fill:none;stroke:#000000;stroke-width:0.5;stroke-linecap:round;stroke-miterlimit:2" /><circle id="circle1325" cx="-10.5" cy="0.0" r="0.8" style="fill:#c0c0c0;stroke:none;stroke-width:0" /><use id="use1326" xlink:href="#element-air" width="100%" height="100%" x="-6.25" y="-2.75" /><circle id="circle1327" cx="3.5" cy="0.0" r="0.8" style="fill:#c0c0c0;stroke:none;stroke-width:0" /><circle id="circle1328" cx="10.5" cy="0.0" r="0.8" style="fill:#c0c0c0;stroke:none;stroke-width:0" /><circle id="circle1329" cx="-10.5" cy="7.0" r="0.8" style="fill:#c0c0c0;stroke:none;stroke-width:0" /><circle id="circle1330" cx="-3.5" cy="7.0" r="0.8" style="fill:#c0c0c0;stroke:none;stroke-width:0" /><circle id="circle1331" cx="3.5" cy="7.0" r="0.8" style="fill:#c0c0c0;stroke:none;stroke-width:0" /><use id="use1332" xlink:href="#element-air" width="100%" height="100%" x="7.75" y="4.25" /></g></g><g id="actions"><ns0:path style="color:#000000;clip-rule:nonzero;display:inline;overflow:visible;visibility:visible;isolation:auto;mix-blend-mode:normal;color-interpolation:sRGB;color-interpolation-filters:linearRGB;solid-color:#000000;solid-opacity:1;fill:#000000;fill-opacity:1;fill-rule:evenodd;stroke:none;stroke-width:0.812556;stroke-linecap:butt;stroke-linejoin:miter;stroke-miterlimit:4;stroke-dasharray:none;stroke-dashoffset:0;stroke-opacity:1;color-rendering:auto;image-rendering:auto;shape-rendering:auto;text-rendering:auto;enable-background:accumulate" d="m 10.113623,104.8195 1.567076,-2.55376 0.522357,2.14746 2.147468,-0.29018 -0.870594,1.68314 1.276874,1.04472 -1.567073,0.2902 0.638435,3.25022 -1.799228,-1.39294 -1.044719,1.33491 -0.638436,-1.50903 -2.2635522,0.92863 1.5670729,-2.55375 -2.3796259,-0.98667 1.857272,-0.52238 -0.580399,-1.68315 z" id="attack-base1" ns1:connector-curvature="0" ns2:nodetypes="ccccccccccccccccc" /><ns0:path style="color:#000000;clip-rule:nonzero;display:inline;overflow:visible;visibility:visible;isolation:auto;mix-blend-mode:normal;color-interpolation:sRGB;color-interpolation-filters:linearRGB;solid-color:#000000;solid-opacity:1;fill:#000000;fill-opacity:1;fill-rule:evenodd;stroke:none;stroke-width:0.381;stroke-linecap:butt;stroke-linejoin:miter;stroke-miterlimit:4;stroke-dasharray:none;stroke-dashoffset:0;stroke-opacity:1;color-rendering:auto;image-rendering:auto;shape-rendering:auto;text-rendering:auto;enable-background:accumulate" d="m 18.937869,106.3263 v 0.65216 h -0.65164 v 0.57567 h 0.65164 v 0.64958 h 0.576192 v -0.64958 h 0.608232 c -0.01199,-0.0952 -0.01809,-0.19209 -0.01809,-0.29042 0,-0.0966 0.0066,-0.19165 0.01809,-0.28525 h -0.608232 v -0.65216 z" id="action-plus" /><ns0:path ns2:nodetypes="csssssssccsssccssscccccsccscscccsccsccsssssssccsc" ns1:connector-curvature="0" id="action-air" d="m 27.06252,100.50893 c -0.244293,-0.0935 -0.446125,-0.11273 -0.662672,-0.0792 -0.380015,0.0589 -0.908552,0.1816 -1.331438,0.38569 -0.456547,0.22034 -0.562095,0.38809 -0.936534,0.61009 -0.348837,0.20683 -0.702046,0.35052 -0.979689,0.66512 -0.138267,0.15668 -0.0164,0.27728 0.06644,0.24924 0.456436,-0.15451 0.673007,-0.34745 0.950339,-0.52541 0.255167,-0.16375 0.169141,0.018 0.633272,-0.31073 0.406472,-0.28786 0.486765,-0.3346 0.699445,-0.37842 0.117359,-0.053 0.239063,-0.10752 0.383331,-0.15591 0.338374,-0.0924 0.381768,-0.0664 0.803178,-0.0311 0.345346,0.0289 0.701663,0.16535 0.855446,0.32088 0.173462,0.17543 0.540359,0.20463 0.875298,0.92065 0.137722,0.2944 0.180126,0.59748 0.151916,0.89825 0.03004,0.23203 0.161985,0.31911 -0.0014,1.02107 -0.121272,0.43869 -0.460967,0.85069 -0.896938,1.0429 -0.509563,0.22466 -1.097306,0.26374 -1.602933,0.13516 -0.487051,-0.12386 -1.015068,-0.56502 -1.116759,-1.03631 -0.09915,-0.45951 -0.176559,-0.85873 -0.195137,-1.22389 0.0397,-0.45078 0.476789,-0.44114 0.862235,-0.75323 0.263852,-0.11327 0.450686,-0.30063 0.813126,-0.30063 0.310382,0.0452 0.642404,0.24323 0.7627,0.4606 0.257808,0.26159 0.375252,0.6 0.294668,1.03106 0.01227,0.21714 -0.356333,0.57954 -0.569283,0.61904 -0.265797,0.0494 -0.599777,-0.17192 -0.764898,-0.2549 -0.157605,-0.0476 -0.147161,-0.11328 -0.08194,-0.35832 0.07858,-0.11911 0.226796,-0.19391 0.316566,-0.25366 0.108565,-0.0722 0.117025,-0.21896 0.08687,-0.33737 -0.06605,-0.0984 -0.131468,-0.16743 -0.291149,-0.1151 -0.109042,0.0358 -0.310935,0.0578 -0.357803,0.1041 -0.0762,0.0742 -0.285524,0.19517 -0.343324,0.28013 -0.05477,0.19805 0.05667,0.41548 0.07742,0.58562 0.02678,0.20167 0.136259,0.43423 0.366228,0.549 0.346732,0.17305 0.777072,0.25998 1.044328,0.2468 0.326385,-0.0365 0.966064,-0.32725 0.9727,-1.01696 -0.01734,-0.32504 -0.189535,-0.97646 -0.423134,-1.40471 -0.237519,-0.43544 -0.573774,-0.62113 -1.050918,-0.61762 -0.242947,0.0223 -0.595162,0.0526 -1.106808,0.36599 -0.590961,0.23663 -0.682153,0.3351 -1.089928,0.81022 -0.265749,0.30963 -0.03379,0.87487 -0.03379,0.87487 0.187776,0.42423 0.09697,0.47419 0.282846,0.96719 0.243185,0.64499 0.785873,1.12596 1.41067,1.2689 0.505072,0.11554 1.69536,-0.094 1.953509,-0.15721 0.732855,-0.17935 0.974956,-0.52212 1.188862,-1.4164 0.142202,-0.59451 0.03415,-1.10911 0.0088,-1.31534 -0.03216,-0.2615 -0.122811,-0.69449 -0.194898,-0.8871 -0.165917,-0.40208 -0.702989,-0.79826 -1.135659,-1.195 -0.402782,-0.35996 -0.312245,-0.14228 -0.693187,-0.28811 z" style="color:#000000;font-style:normal;font-variant:normal;font-weight:normal;font-stretch:normal;font-size:medium;line-height:normal;font-family:sans-serif;text-indent:0;text-align:start;text-decoration:none;text-decoration-line:none;text-decoration-style:solid;text-decoration-color:#000000;letter-spacing:normal;word-spacing:normal;text-transform:none;writing-mode:lr-tb;direction:ltr;baseline-shift:baseline;text-anchor:start;white-space:normal;clip-rule:nonzero;display:inline;overflow:visible;visibility:visible;isolation:auto;mix-blend-mode:normal;color-interpolation:sRGB;color-interpolation-filters:linearRGB;solid-color:#000000;solid-opacity:1;fill:#303030;fill-opacity:1;fill-rule:evenodd;stroke:none;stroke-width:0.508;stroke-linecap:round;stroke-linejoin:miter;stroke-miterlimit:4;stroke-dasharray:none;stroke-dashoffset:0;stroke-opacity:1;color-rendering:auto;image-rendering:auto;shape-rendering:auto;text-rendering:auto;enable-background:accumulate" /><ns0:path id="action-earth" style="color:#000000;font-style:normal;font-variant:normal;font-weight:normal;font-stretch:normal;font-size:medium;line-height:normal;font-family:sans-serif;text-indent:0;text-align:start;text-decoration:none;text-decoration-line:none;text-decoration-style:solid;text-decoration-color:#000000;letter-spacing:normal;word-spacing:normal;text-transform:none;writing-mode:lr-tb;direction:ltr;baseline-shift:baseline;text-anchor:start;white-space:normal;clip-rule:nonzero;display:inline;overflow:visible;visibility:visible;isolation:auto;mix-blend-mode:normal;color-interpolation:sRGB;color-interpolation-filters:linearRGB;solid-color:#000000;solid-opacity:1;fill:#004c00;fill-opacity:1;fill-rule:evenodd;stroke:none;stroke-width:0.508;stroke-linecap:round;stroke-linejoin:round;stroke-miterlimit:4;stroke-dasharray:none;stroke-dashoffset:0;stroke-opacity:1;color-rendering:auto;image-rendering:auto;shape-rendering:auto;text-rendering:auto;enable-background:accumulate" d="m 48.406349,100.72982 c -0.05679,0.003 -0.111076,0.0247 -0.153997,0.062 -0.273966,0.23788 -0.489638,0.62017 -0.714374,0.98309 -0.117052,0.18903 -0.283308,0.43321 -0.429535,0.64431 -0.005,-0.003 -0.0098,-0.006 -0.0153,-0.009 0.03976,0.0228 -0.256162,-0.21317 -0.374965,-0.36815 -0.16708,-0.20836 -0.458067,-0.47443 -0.661664,-0.55169 -0.08301,0.002 -0.474593,0.37109 -0.520486,0.44029 -0.260301,0.39253 -0.432394,0.61378 -0.71975,1.04427 -0.187906,0.28176 0.162141,0.34556 0.35016,0.0638 0.219129,-0.32828 0.725979,-0.9055 0.886561,-0.96243 0,0 0.527656,0.40799 0.702594,0.50809 0.06453,0.0374 0.130978,0.0574 0.192649,0.0651 -0.0381,0.0545 -0.107838,0.15438 -0.120096,0.17281 -0.601492,0.67532 -0.837151,1.3201 -1.552361,2.07863 -0.221367,0.25635 0.235865,0.28571 0.457234,0.0294 0.710366,-0.82306 0.891257,-1.09601 1.445287,-1.70966 0.0083,-0.009 0.294286,-0.33396 0.410103,-0.50168 0.102936,-0.1542 0.129343,-0.32776 0.3452,-0.67634 0.146812,-0.23709 0.317881,-0.52893 0.453098,-0.60048 0.174925,0.19302 0.447467,0.45486 0.692464,1.00355 0.205682,0.29316 0.571591,0.73056 0.632107,0.82125 0.187922,0.28889 0.600353,0.81478 0.638928,0.89111 0.152696,0.30244 0.218887,-0.13255 0.114514,-0.49548 -0.08042,-0.15914 -0.138991,-0.38262 -0.327628,-0.67262 -0.188638,-0.28999 -0.427118,-0.51422 -0.476044,-0.60193 l -0.19575,-0.33093 c -0.168726,-0.40348 -0.456968,-0.55528 -0.825996,-1.19972 -0.04752,-0.0829 -0.137483,-0.13209 -0.232957,-0.12733 z m -0.831371,2.85875 c -0.199377,0.13574 -0.440232,0.59575 -0.592005,1.09368 -0.117667,0.3176 0.358683,0.49409 0.476457,0.17652 0.06054,-0.41168 0.269956,-0.93679 0.269956,-0.93679 0.06288,-0.1625 0.0197,-0.32654 -0.154408,-0.33341 z m 1.51598,0.0174 c -0.0059,-1.2e-4 -0.01182,-1e-4 -0.01778,2.2e-4 -0.192613,0.01 -0.195708,0.10101 -0.09488,0.26542 0,0 0.384402,0.69623 0.51759,1.13212 0.170404,0.30063 0.706249,0.24805 0.533508,-0.13808 -0.205837,-0.46011 -0.723264,-1.13233 -0.723264,-1.13233 -0.04466,-0.0776 -0.126522,-0.12563 -0.215181,-0.12733 z m -0.652157,0.15358 c -0.140194,0.002 -0.252062,0.14154 -0.250114,0.28174 l -0.07276,1.28592 c -0.0049,0.34348 0.488757,0.077 0.483899,-0.26645 -0.0333,-0.27767 0.0689,-0.87037 -0.161025,-1.30121 z" /><ns0:path ns2:nodetypes="ccssssccsscccssscssscccssssccssccccsscsccsssscssscccscscssscccssccc" ns1:connector-curvature="0" id="action-fire" d="m 36.047349,100.00873 c -0.07265,0.0787 0.0081,0.24245 0.0081,0.24245 0,0 0.0623,0.26779 0.08562,0.51321 0.02332,0.24543 -0.0042,0.45021 -0.01922,0.59506 -0.02407,0.23323 -0.220163,0.67359 -0.371001,0.91883 -0.150837,0.24524 -0.247618,0.49447 -0.259918,0.79809 -0.0025,0.0622 0.01924,0.18211 0.02862,0.24074 -0.169827,0.19924 -0.354075,0.29733 -0.527845,0.34925 -0.233965,0.0699 -0.598425,0.26054 -0.913104,0.57152 -0.250895,0.24796 -0.351264,0.47802 -0.435646,0.79751 -0.08438,0.31949 -0.136941,0.58188 -0.105658,0.81649 0,0 0.0033,0.27472 0.08802,0.35343 0.115025,0.0242 0.288434,-0.1081 0.288434,-0.1081 0.357587,-0.27173 0.68671,-0.52797 0.967319,-0.61949 0.305707,-0.0997 0.628788,-0.0676 0.838242,3.4e-4 0.275174,0.0893 0.573109,0.0492 0.861439,-0.0177 0.198635,-0.0461 0.331599,-0.15183 0.477731,-0.2871 0.19457,0.15958 0.313403,0.19014 0.452482,0.30262 0.170803,0.13814 0.367718,0.26752 0.670958,0.35203 0.316692,0.0883 0.678984,0.0954 1.015118,0.0483 0.336132,-0.0471 0.643719,-0.13497 0.862321,-0.33536 0,0 0.187783,-0.13975 0.16962,-0.21845 -0.04241,-0.0721 -0.228527,-0.1491 -0.228527,-0.1491 0,0 -0.206616,-0.0853 -0.439134,-0.22269 -0.232518,-0.13739 -0.412054,-0.37792 -0.56783,-0.52531 -0.184381,-0.17446 -0.233489,-0.40868 -0.314152,-0.64613 -0.08024,-0.23621 -0.180719,-0.53977 -0.491023,-0.75605 -0.148665,-0.10361 -0.293225,-0.19198 -0.448027,-0.25268 -0.03695,-0.16934 -0.03514,-0.32736 -0.01525,-0.50108 0.06092,-0.31791 -0.03244,-0.74374 -0.143738,-1.04953 -0.117417,-0.32261 -0.36006,-0.48944 -0.517392,-0.66514 -0.167647,-0.18722 -0.402432,-0.39172 -0.639778,-0.48666 0,0 -0.146695,-0.0654 -0.376748,-0.0593 z m 0.505421,0.66096 c 0.05626,0.0464 0.226952,0.16284 0.311807,0.25295 0.19841,0.2107 0.365051,0.51144 0.399681,0.73512 0.03372,0.21783 -0.0058,0.41008 -0.02912,0.61444 -0.01506,0.13152 0.002,0.277 0.05242,0.41608 -0.04017,0.002 -0.140624,0.006 -0.182081,0.0119 -0.138339,0.0201 -0.284484,0.0604 -0.442074,0.1195 -0.326347,0.11463 -0.07438,0.18431 0.255429,0.15024 0.257445,-0.0142 0.499281,0.12291 0.658218,0.19871 0.129887,0.0619 0.342214,0.21791 0.406472,0.3312 0.125182,0.22073 0.29262,0.48954 0.316946,0.60994 0.04406,0.21801 0.124706,0.42765 0.355607,0.71761 0.208202,0.26146 0.474385,0.35047 0.729959,0.50209 -0.02283,0.0753 -0.229248,0.13734 -0.293828,0.14639 -0.275491,0.0386 -0.572585,-0.0262 -0.773835,-0.13713 -0.219861,-0.12121 -0.367632,-0.12091 -0.552293,-0.24578 -0.121258,-0.082 -0.285888,-0.13932 -0.370579,-0.31085 0.1117,-0.2616 0.23294,-0.50026 0.277289,-0.75526 0.07055,-0.34216 -0.262698,-0.005 -0.406105,0.25538 -0.152344,0.34515 -0.399044,0.61042 -0.77034,0.74235 -0.240408,0.0854 -0.446719,0.006 -0.669906,-0.043 -0.223185,-0.0482 -0.535282,-0.10163 -0.940152,0.0304 -0.27843,0.0908 -0.643511,0.19496 -0.908205,0.50705 -0.02893,-0.16128 0.04867,-0.32584 0.07298,-0.40433 0.07993,-0.25807 0.309515,-0.5191 0.461755,-0.66955 0.231763,-0.22904 0.521483,-0.29732 0.761371,-0.36902 0.177304,-0.053 0.253264,-0.049 0.437819,-0.21288 0.135203,0.23398 0.326225,0.42722 0.552759,0.58296 0.279123,0.1919 0.213923,-0.13183 -0.05451,-0.44438 -0.175058,-0.20384 -0.238362,-0.38186 -0.263388,-0.82569 -0.01276,-0.22631 0.09238,-0.4744 0.236544,-0.70879 0.186976,-0.2772 0.344605,-0.52152 0.383829,-0.90153 0.02354,-0.30075 0.04608,-0.68876 -0.01446,-0.89613 z" style="color:#000000;font-style:normal;font-variant:normal;font-weight:normal;font-stretch:normal;font-size:medium;line-height:normal;font-family:sans-serif;text-indent:0;text-align:start;text-decoration:none;text-decoration-line:none;text-decoration-style:solid;text-decoration-color:#000000;letter-spacing:normal;word-spacing:normal;text-transform:none;writing-mode:lr-tb;direction:ltr;baseline-shift:baseline;text-anchor:start;white-space:normal;clip-rule:nonzero;display:inline;overflow:visible;visibility:visible;opacity:0.699;isolation:auto;mix-blend-mode:normal;color-interpolation:sRGB;color-interpolation-filters:linearRGB;solid-color:#000000;solid-opacity:1;fill:#860000;fill-opacity:0.97451;fill-rule:evenodd;stroke:none;stroke-width:0.508;stroke-linecap:round;stroke-linejoin:miter;stroke-miterlimit:4;stroke-dasharray:none;stroke-dashoffset:0;stroke-opacity:1;color-rendering:auto;image-rendering:auto;shape-rendering:auto;text-rendering:auto;enable-background:accumulate" /><ns0:path id="action-water" style="color:#000000;font-style:normal;font-variant:normal;font-weight:normal;font-stretch:normal;font-size:medium;line-height:normal;font-family:sans-serif;text-indent:0;text-align:start;text-decoration:none;text-decoration-line:none;text-decoration-style:solid;text-decoration-color:#000000;letter-spacing:normal;word-spacing:normal;text-transform:none;writing-mode:lr-tb;direction:ltr;baseline-shift:baseline;text-anchor:start;white-space:normal;clip-rule:nonzero;display:inline;overflow:visible;visibility:visible;isolation:auto;mix-blend-mode:normal;color-interpolation:sRGB;color-interpolation-filters:linearRGB;solid-color:#000000;solid-opacity:1;fill:#00007e;fill-opacity:1;fill-rule:evenodd;stroke:none;stroke-width:0.508;stroke-linecap:round;stroke-linejoin:miter;stroke-miterlimit:4;stroke-dasharray:none;stroke-dashoffset:0;stroke-opacity:1;color-rendering:auto;image-rendering:auto;shape-rendering:auto;text-rendering:auto;enable-background:accumulate" d="m 60.04499,101.20376 c -0.01228,-4.6e-4 -0.02515,-3.4e-4 -0.03845,7.9e-4 -0.170654,0.0278 -0.357489,0.16941 -0.522344,0.22076 -0.507747,0.21732 -1.022076,0.18899 -1.558976,0.061 -0.239638,-0.0423 -0.601677,-0.13449 -0.839432,-0.17962 -0.660846,-0.0572 -1.185856,0.29188 -1.692506,0.67902 -0.16238,0.15298 -0.0027,0.32747 0.218695,0.29993 0.255652,-0.0751 0.571958,-0.1145 0.823928,-0.27058 0.318126,-0.15782 0.78626,-0.2354 1.132541,-0.0936 0.589419,0.17613 1.126578,0.24763 1.731782,0.0909 0.355133,-0.0811 0.580563,-0.23622 0.863408,-0.47025 0.132446,-0.14995 0.06554,-0.33107 -0.118648,-0.33838 z m 0.868165,1.42358 c -0.352518,-0.01 -0.396277,0.21269 -0.890075,0.22097 -0.602238,0.0502 -1.002478,-0.11018 -1.601557,-0.1447 -0.792422,-0.0764 -1.660603,0.40287 -2.382696,0.61082 -0.19073,0.11572 0.0138,0.36479 0.236058,0.38406 0.197659,-6.8e-4 0.262364,0.0465 0.455165,0.009 0.597147,-0.19091 0.980228,-0.67444 1.598869,-0.59739 0.624115,0.0614 1.465018,0.34747 2.089588,0.21105 0.197659,-0.0845 0.376815,-0.20792 0.518419,-0.36339 0.100647,-0.16295 0.167866,-0.33604 -0.02377,-0.33011 z m 0.421059,1.24395 c -0.260396,0.0285 -0.626652,0.31021 -0.892968,0.32556 -0.496435,0.0726 -1.125074,-0.10079 -1.621193,-0.11616 -0.840067,-0.0223 -1.308191,0.38013 -2.087521,0.65277 -0.197101,0.10451 0.0056,0.24615 0.226342,0.27823 0.180573,0.0156 0.469355,-0.1014 0.640788,-0.14324 0.465552,-0.16577 0.877247,-0.29725 1.3748,-0.22842 0.657551,0.12286 1.080443,0.18377 1.725166,0.0744 0.21039,-0.0649 0.412261,-0.28793 0.601514,-0.39336 0.171224,-0.14884 0.260019,-0.45655 0.03307,-0.44979 z" /><g id="action0" transform="translate(0.0 0)"><ns0:path style="color:#000000;clip-rule:nonzero;display:inline;overflow:visible;visibility:visible;isolation:auto;mix-blend-mode:normal;color-interpolation:sRGB;color-interpolation-filters:linearRGB;solid-color:#000000;solid-opacity:1;fill:#000000;fill-opacity:1;fill-rule:evenodd;stroke:none;stroke-width:0.526534;stroke-linecap:butt;stroke-linejoin:miter;stroke-miterlimit:4;stroke-dasharray:none;stroke-dashoffset:0;stroke-opacity:1;color-rendering:auto;image-rendering:auto;shape-rendering:auto;text-rendering:auto;enable-background:accumulate" d="m 25.536521,109.52166 1.015461,-1.65483 0.338486,1.39155 1.391554,-0.18804 -0.564143,1.09067 0.827411,0.67698 -1.015459,0.18805 0.413704,2.10613 -1.165895,-0.90262 -0.676975,0.86502 -0.413705,-0.97785 -1.466776,0.60175 1.015459,-1.65482 -1.541991,-0.63936 1.203507,-0.3385 -0.376097,-1.09068 z" id="action-attack1" ns1:connector-curvature="0" ns2:nodetypes="ccccccccccccccccc" /></g><g id="action1" transform="translate(10.8 0)" /><g id="action2" transform="translate(21.6 0)"><ns0:path style="color:#000000;clip-rule:nonzero;display:inline;overflow:visible;visibility:visible;isolation:auto;mix-blend-mode:normal;color-interpolation:sRGB;color-interpolation-filters:linearRGB;solid-color:#000000;solid-opacity:1;fill:#000000;fill-opacity:1;fill-rule:evenodd;stroke:none;stroke-width:0.526534;stroke-linecap:butt;stroke-linejoin:miter;stroke-miterlimit:4;stroke-dasharray:none;stroke-dashoffset:0;stroke-opacity:1;color-rendering:auto;image-rendering:auto;shape-rendering:auto;text-rendering:auto;enable-background:accumulate" d="m 25.536521,109.52166 1.015461,-1.65483 0.338486,1.39155 1.391554,-0.18804 -0.564143,1.09067 0.827411,0.67698 -1.015459,0.18805 0.413704,2.10613 -1.165895,-0.90262 -0.676975,0.86502 -0.413705,-0.97785 -1.466776,0.60175 1.015459,-1.65482 -1.541991,-0.63936 1.203507,-0.3385 -0.376097,-1.09068 z" id="action-attack1" ns1:connector-curvature="0" ns2:nodetypes="ccccccccccccccccc" /></g><g id="action3" transform="translate(32.400000000000006 0)"><ns0:path style="color:#000000;clip-rule:nonzero;display:inline;overflow:visible;visibility:visible;isolation:auto;mix-blend-mode:normal;color-interpolation:sRGB;color-interpolation-filters:linearRGB;solid-color:#000000;solid-opacity:1;fill:#000000;fill-opacity:1;fill-rule:evenodd;stroke:none;stroke-width:0.526534;stroke-linecap:butt;stroke-linejoin:miter;stroke-miterlimit:4;stroke-dasharray:none;stroke-dashoffset:0;stroke-opacity:1;color-rendering:auto;image-rendering:auto;shape-rendering:auto;text-rendering:auto;enable-background:accumulate" d="m 25.536521,109.52166 1.015461,-1.65483 0.338486,1.39155 1.391554,-0.18804 -0.564143,1.09067 0.827411,0.67698 -1.015459,0.18805 0.413704,2.10613 -1.165895,-0.90262 -0.676975,0.86502 -0.413705,-0.97785 -1.466776,0.60175 1.015459,-1.65482 -1.541991,-0.63936 1.203507,-0.3385 -0.376097,-1.09068 z" id="action-attack1" ns1:connector-curvature="0" ns2:nodetypes="ccccccccccccccccc" /></g></g><g id="borders"><ns0:rect style="display:inline;fill:none;stroke:#000000;stroke-width:0.799999;stroke-linecap:round;stroke-linejoin:round" id="outer-border" width="62.411285" height="111.65322" x="3.626344" y="4.3897848" rx="0" ry="0" /><ns0:path style="display:inline;fill:none;stroke:#000000;stroke-width:0.799999;stroke-linecap:round;stroke-linejoin:round" d="M 2.0388439,-14.763754 H 64.450129" id="title-border" transform="translate(1.5875,28.045836)" /><ns0:path style="display:inline;fill:none;stroke:#000000;stroke-width:0.799999;stroke-linecap:round;stroke-linejoin:round" d="M 2.0388439,28.098751 H 64.450129" id="image-border" transform="translate(1.5875,28.045836)" /><ns0:path style="display:inline;fill:none;stroke:#000000;stroke-width:0.799999;stroke-linecap:round;stroke-linejoin:round" d="m 38.006989,56.144587 0,42.285761" id="vertical-border" ns2:nodetypes="cc" ns1:label="vertical-border" /><ns0:path style="display:inline;fill:none;stroke:#000000;stroke-width:0.799999;stroke-linecap:round;stroke-linejoin:round" d="m 3.6263439,77.311267 34.3343611,0" id="split-border" ns2:nodetypes="cc" /><ns0:path style="display:inline;fill:none;stroke:#000000;stroke-width:0.799999;stroke-linecap:round;stroke-linejoin:round" d="M 3.6263439,98.477947 H 66.037629" id="action-border" /></g></g></svg>