<?xml version='1.0' encoding='UTF-8'?>
<svg xmlns:ns0="http://www.w3.org/2000/svg" xmlns:ns1="http://www.inkscape.org/namespaces/inkscape" xmlns:ns2="http://sodipodi.sourceforge.net/DTD/sodipodi-0.dtd" version="1.1" id="svg_root" xmlns="http://www.w3.org/2000/svg" xmlns:sodipodi="http://sodipodi.sourceforge.net/DTD/sodipodi-0.dtd" xmlns:inkscape="http://www.inkscape.org/namespaces/inkscape" xmlns:xlink="http://www.w3.org/1999/xlink" width="63.5mm" height="88.9mm" viewBox="0 0 63.5 88.9"><defs><clipPath id="clippath-1160"><ns0:rect id="sidebar-clip" x="3.5527137e-15" y="0" width="63.5" height="88.900002" rx="3" ry="3" style="display:inline;fill:#ffffff;fill-opacity:1;stroke:none;stroke-width:0.2;stroke-miterlimit:4;stroke-dasharray:none;stroke-opacity:1" ns1:label="sidebar-clip" />
    </clipPath></defs><g id="card00" inkscape:label="Card 0" inkscape:groupmode="layer"><rect id="rect1158" x="0" y="0" width="63.5" height="88.9" rx="3" ry="3" style="fill:#ffffff;stroke:none;stroke-width:0" /><g id="masters" style="display:none"><ns0:path style="color:#000000;font-style:normal;font-variant:normal;font-weight:normal;font-stretch:normal;font-size:medium;line-height:normal;font-family:sans-serif;text-indent:0;text-align:start;text-decoration:none;text-decoration-line:none;text-decoration-style:solid;text-decoration-color:#000000;letter-spacing:normal;word-spacing:normal;text-transform:none;writing-mode:lr-tb;direction:ltr;baseline-shift:baseline;text-anchor:start;white-space:normal;clip-rule:nonzero;display:inline;overflow:visible;visibility:visible;opacity:1;isolation:auto;mix-blend-mode:normal;color-interpolation:sRGB;color-interpolation-filters:linearRGB;solid-color:#000000;solid-opacity:1;fill:#303030;fill-opacity:1;fill-rule:evenodd;stroke:none;stroke-width:0.467347;stroke-linecap:round;stroke-linejoin:miter;stroke-miterlimit:4;stroke-dasharray:none;stroke-dashoffset:0;stroke-opacity:1;filter:url(#filter9446);color-rendering:auto;image-rendering:auto;shape-rendering:auto;text-rendering:auto;enable-background:accumulate" d="M 3.3948831,0.4958934 C 3.162317,0.4127664 2.9701744,0.3957054 2.7640232,0.4254714 2.4022519,0.4778644 1.8990884,0.5869217 1.4965033,0.76836124 1.0618743,0.96426023 0.96139239,1.1133927 0.60492909,1.3107558 0.2728387,1.4946274 -0.06341404,1.6223792 -0.32772778,1.9020707 -0.45935738,2.0413538 -0.34334404,2.148584 -0.26447624,2.123658 0.17004774,1.9862988 0.37622143,1.8147571 0.64023955,1.6565375 0.8831572,1.5109745 0.80126109,1.6725095 1.2431111,1.3802945 1.630069,1.1243795 1.7065077,1.0828281 1.9089781,1.0438782 c 0.1117242,-0.047069 0.227586,-0.09559 0.3649277,-0.13861757 0.3221301,-0.082159 0.3634413,-0.059048 0.7646204,-0.027588 0.3287678,0.025773 0.667979,0.14700287 0.8143781,0.28526957 0.1651357,0.155969 0.514419,0.1819235 0.8332787,0.8184803 0.1311107,0.2617472 0.1714796,0.53119 0.1446227,0.7985879 C 4.8594046,2.9862791 4.985015,3.063707 4.8295187,3.6877766 4.714069,4.0777838 4.390681,4.4440629 3.9756392,4.6149391 3.4905391,4.8146738 2.9310111,4.8494129 2.4496575,4.7350921 1.98598,4.6249821 1.4833108,4.2327727 1.3865012,3.8137739 1.2921135,3.4052537 1.2184189,3.0503365 1.2007327,2.7256935 1.2385254,2.3249415 1.6546322,2.3335083 2.0215749,2.0560553 2.2727602,1.9553833 2.4506254,1.7887905 2.7956649,1.7887905 3.0911467,1.8289625 3.4072296,2.0050175 3.5217503,2.1982666 3.7671813,2.4308286 3.8789872,2.7316951 3.8022722,3.1149142 3.8139608,3.3079576 3.463046,3.6301443 3.2603188,3.6652706 3.0072819,3.7090726 2.6893355,3.5124234 2.532141,3.4386497 2.3821017,3.3962997 2.3920448,3.3379777 2.4541334,3.120093 2.52894,3.014218 2.6700419,2.9477043 2.7555015,2.8945853 2.8588553,2.8303343 2.8669086,2.6999205 2.8382039,2.5946505 2.7753246,2.5071675 2.7130482,2.4457963 2.5610326,2.4922845 2.4572256,2.5241075 2.2650241,2.5437095 2.220407,2.5848495 2.1478664,2.6507945 1.9485898,2.7583635 1.8935644,2.8338917 1.8414266,3.0099588 1.9475139,3.2032684 1.9672655,3.3545184 1.9927635,3.5338162 2.0969832,3.7405689 2.3159126,3.8426082 2.6459987,3.9964476 3.05568,4.0737303 3.3101053,4.0620054 3.6208221,4.0295774 4.2297927,3.7710851 4.2361099,3.1578934 4.2196123,2.8689333 4.0556781,2.2898031 3.8332936,1.9090766 3.6071768,1.5219492 3.2870649,1.3568689 2.832826,1.3599907 2.601543,1.3798347 2.266236,1.4068177 1.7791531,1.6853718 1.2165611,1.8957424 1.1297473,1.9832859 0.74154819,2.4056727 0.48855752,2.6809477 0.7093755,3.1834607 0.7093755,3.1834607 0.88813701,3.5606177 0.80169003,3.6050368 0.97864358,4.043323 1.2101543,4.616742 1.7267891,5.0443439 2.3215919,5.1714181 2.8024177,5.2741471 3.9355634,5.0878071 4.1813201,5.031651 4.8789928,4.8721972 5.1094719,4.5674708 5.3131083,3.7724282 5.4484842,3.2438881 5.3456188,2.7863992 5.3214683,2.60306 5.2908516,2.3705706 5.2045532,1.9856333 5.1359277,1.8143941 4.9779757,1.4569238 4.4666875,1.104717 4.0547879,0.75200204 3.6713422,0.4319812 3.7575328,0.62550864 3.3948779,0.4958571 Z" id="element-air" ns1:connector-curvature="0" ns2:nodetypes="csssssssccsssccssscccccsccscscccsccsccsssssssccsc" />
  <ns0:path id="element-earth" style="color:#000000;font-style:normal;font-variant:normal;font-weight:normal;font-stretch:normal;font-size:medium;line-height:normal;font-family:sans-serif;text-indent:0;text-align:start;text-decoration:none;text-decoration-line:none;text-decoration-style:solid;text-decoration-color:#000000;letter-spacing:normal;word-spacing:normal;text-transform:none;writing-mode:lr-tb;direction:ltr;baseline-shift:baseline;text-anchor:start;white-space:normal;clip-rule:nonzero;display:inline;overflow:visible;visibility:visible;opacity:1;isolation:auto;mix-blend-mode:normal;color-interpolation:sRGB;color-interpolation-filters:linearRGB;solid-color:#000000;solid-opacity:1;fill:#004c00;fill-opacity:1;fill-rule:nonzero;stroke:none;stroke-width:0.467347;stroke-linecap:round;stroke-linejoin:round;stroke-miterlimit:4;stroke-dasharray:none;stroke-dashoffset:0;stroke-opacity:1;color-rendering:auto;image-rendering:auto;shape-rendering:auto;text-rendering:auto;enable-background:accumulate" d="M 3.4615061,0.69226951 C 3.4074433,0.69479841 3.3558533,0.71419471 3.314994,0.74734992 3.0541796,0.95883041 2.8488086,1.298752 2.6348605,1.6214002 2.421498,1.9431652 2.0160758,2.4723652 1.9591062,2.5523555 1.3864894,3.1527391 1.1622232,3.7259717 0.48134819,4.4003279 0.27060697,4.6282325 0.7058359,4.6543257 0.91657699,4.4264204 1.5928416,3.6946933 1.7650668,3.4520074 2.2925003,2.9064445 2.3003774,2.8982528 2.5727206,2.6096696 2.6829788,2.460561 2.780973,2.3234678 2.8059831,2.1690702 3.0114776,1.8591708 3.1512427,1.648394 3.3140977,1.3889707 3.4428247,1.3253604 3.6093519,1.496957 3.8687822,1.7298536 4.1020189,2.2176654 4.2978262,2.478292 4.6462906,2.8670886 4.7039018,2.9477073 4.8828019,3.2045412 5.2753622,3.6720528 5.3120845,3.7399133 5.4574509,4.0087937 5.5204646,3.622086 5.4211025,3.2994313 5.3445392,3.1579493 5.2888022,2.9593202 5.1092208,2.7015067 4.9296392,2.4436942 4.7025873,2.2442492 4.6560113,2.166272 L 4.4697076,1.8721372 C 4.3090815,1.513425 4.0346764,1.3784994 3.6833629,0.80556799 3.6381268,0.73182514 3.5523887,0.68804226 3.4614975,0.69226951 Z M 1.2246189,1.368114 C 1.1455962,1.3698443 0.77277419,1.6981871 0.72908472,1.7597038 0.48127947,2.1086841 0.31745188,2.3052185 0.04389157,2.6879404 -0.13499471,2.9384355 0.19811781,2.9953176 0.37711141,2.7448891 0.5857205,2.4530369 1.0682852,1.9397574 1.2211584,1.8891479 c 0,0 0.5024478,0.3627689 0.6689869,0.4517618 0.2803749,0.1519949 0.6033552,-0.00588 0.3212338,-0.155025 C 2.2492291,2.2061583 1.967548,1.99651 1.8544482,1.8587323 1.6953879,1.6734871 1.4184423,1.4368037 1.2246189,1.368114 Z m 2.8716879,1.8813608 c -0.1833666,0.00865 -0.1861973,0.089818 -0.090208,0.2359767 0,0 0.3658293,0.6189897 0.492624,1.0065097 C 4.6609462,4.7592279 5.1712005,4.7123669 5.0067519,4.3690864 4.8107962,3.9600376 4.3181723,3.3623819 4.3181723,3.3623819 4.2728239,3.2887909 4.18711,3.2451692 4.0963068,3.2494748 Z M 3.4925271,3.3858325 C 3.3590629,3.3876717 3.2524338,3.5116731 3.2542887,3.6363115 L 3.1851276,4.7794387 C 3.1805054,5.0848127 3.6503115,4.8479949 3.645686,4.542621 3.6139888,4.2957549 3.7114205,3.7688603 3.4925271,3.3858325 Z m -0.82235,-0.151979 C 2.480371,3.3545389 2.2510794,3.7634398 2.1065921,4.2061088 1.9945739,4.4884777 2.4480699,4.6454547 2.5601896,4.3631209 2.617823,3.9971293 2.8170052,3.530251 2.8170052,3.530251 2.8768672,3.3857842 2.8359252,3.2399676 2.6701771,3.2338535 Z" ns1:connector-curvature="0" />
    <ns0:path style="color:#000000;font-style:normal;font-variant:normal;font-weight:normal;font-stretch:normal;font-size:medium;line-height:normal;font-family:sans-serif;text-indent:0;text-align:start;text-decoration:none;text-decoration-line:none;text-decoration-style:solid;text-decoration-color:#000000;letter-spacing:normal;word-spacing:normal;text-transform:none;writing-mode:lr-tb;direction:ltr;baseline-shift:baseline;text-anchor:start;white-space:normal;clip-rule:nonzero;display:inline;overflow:visible;visibility:visible;opacity:1;isolation:auto;mix-blend-mode:normal;color-interpolation:sRGB;color-interpolation-filters:linearRGB;solid-color:#000000;solid-opacity:1;fill:#860000;fill-opacity:0.97451;fill-rule:evenodd;stroke:none;stroke-width:0.467347;stroke-linecap:round;stroke-linejoin:miter;stroke-miterlimit:4;stroke-dasharray:none;stroke-dashoffset:0;stroke-opacity:1;filter:url(#filter9446);color-rendering:auto;image-rendering:auto;shape-rendering:auto;text-rendering:auto;enable-background:accumulate" d="m 1.9863515,-0.01966678 c -0.069161,0.069938 0.00767,0.2155373 0.00767,0.2155373 0,0 0.059307,0.2380796 0.081508,0.45626655 C 2.0977287,0.87032428 2.0714563,1.0523809 2.0572322,1.1811612 2.0343159,1.3885068 1.8476388,1.7800023 1.7040424,1.9980322 1.560446,2.21605 1.4683114,2.4376252 1.4566015,2.7075641 c -0.0024,0.055297 0.018317,0.161898 0.027251,0.2140127 C 1.322179,3.0987208 1.1467759,3.1859134 0.98134815,3.2320749 0.75861446,3.2942689 0.41165107,3.4637052 0.1120789,3.7401781 c -0.23884988,0.2204378 -0.33440104,0.4249762 -0.41473234,0.7090116 -0.0803319,0.2840354 -0.13036697,0.5173113 -0.10058488,0.7258911 0,0 0.00311,0.2442385 0.0837913,0.3142007 0.10950379,0.021538 0.27458772,-0.096074 0.27458772,-0.096074 0.3404207,-0.2415765 0.65374363,-0.4693832 0.9208819,-0.5507436 0.2910305,-0.088693 0.5986017,-0.060137 0.7980007,3.025e-4 0.2619644,0.079376 0.5455956,0.043802 0.8200844,-0.01573 0.1890992,-0.040898 0.31568,-0.1349876 0.4547958,-0.2552495 0.1852302,0.1418725 0.298358,0.169037 0.4307603,0.2690435 0.1626035,0.1228029 0.3500657,0.2378255 0.6387471,0.3129665 0.3014896,0.078529 0.6463891,0.084821 0.966386,0.042955 0.3199958,-0.041866 0.6128167,-0.120032 0.8209241,-0.298144 0,0 0.1787678,-0.1242549 0.1614771,-0.1942171 -0.04037,-0.06413 -0.217557,-0.1325555 -0.217557,-0.1325555 0,0 -0.196696,-0.075867 -0.4180519,-0.1979802 C 5.1102383,4.2517177 4.9393219,4.0378744 4.7910238,3.9068435 4.6154938,3.7517457 4.5687436,3.5435168 4.4919534,3.3324081 4.4155673,3.1224126 4.3199095,2.8525342 4.0245031,2.6602652 3.8829742,2.5681842 3.7453541,2.4895826 3.5979833,2.4356287 3.5628049,2.2850684 3.5645377,2.1445874 3.5834681,1.990143 3.641461,1.7075112 3.5525853,1.3289385 3.4466304,1.0570757 3.3348506,0.77026937 3.1038563,0.62194761 2.9540774,0.46574892 2.7944786,0.29930132 2.5709646,0.11749882 2.3450122,0.03308922 c 0,0 -0.1396523,-0.05808 -0.3586607,-0.052756 z m 0.4811569,0.58761229 c 0.053554,0.041261 0.2160567,0.14476416 0.2968383,0.22487826 0.1888852,0.18732011 0.3475263,0.45468173 0.3804938,0.65354523 0.032104,0.1936484 -0.00544,0.364573 -0.027724,0.5462545 -0.01433,0.116886 0.00192,0.2462713 0.0499,0.3699091 -0.038238,0.00242 -0.1338739,0.00484 -0.1733398,0.01089 -0.1316975,0.017787 -0.2708274,0.053724 -0.4208515,0.106238 -0.3106804,0.101882 -0.070803,0.1638582 0.243167,0.1335719 0.2450851,-0.012584 0.4753116,0.109263 0.6266188,0.17666 0.1236512,0.055055 0.3257853,0.193721 0.3869581,0.2944535 C 3.948742,3.2805717 4.1081417,3.5195588 4.1313004,3.6265954 4.1732379,3.8204132 4.2500196,4.0067895 4.4698358,4.2645679 4.6680429,4.497021 4.9214473,4.576155 5.1647518,4.710949 5.1430202,4.777862 4.9465092,4.8330501 4.88503,4.8410966 4.6227637,4.8754606 4.3399317,4.8178646 4.1483441,4.719177 3.9390375,4.611487 3.7983609,4.611729 3.6225644,4.5006752 3.5071268,4.4278332 3.3504001,4.3768196 3.2697756,4.2243112 3.3761126,3.9917492 3.4915335,3.7795757 3.5337527,3.5528701 3.6009154,3.2486761 3.283666,3.5480301 3.1471443,3.7799024 3.0021132,4.0867584 2.7672569,4.3225874 2.4137854,4.4398848 2.1849184,4.5158728 1.9885114,4.4447248 1.776039,4.4016488 1.5635691,4.3588148 1.2664547,4.3112618 0.88102078,4.4287528 0.61595783,4.5094598 0.26840375,4.6020732 0.01641565,4.8795383 -0.01112395,4.7361533 0.0627526,4.5898522 0.08589264,4.5200715 0.16198349,4.2906434 0.38054918,4.0585775 0.5254805,3.9248241 0.74611657,3.7211932 1.0219295,3.6604996 1.2503,3.5967568 1.4190927,3.5496878 1.4914057,3.5531968 1.667101,3.4074886 1.7958141,3.6155118 1.9776653,3.7873076 2.1933244,3.9257679 2.459048,4.0963779 2.3969779,3.8085189 2.1414286,3.5306908 1.9747743,3.3494812 1.9145086,3.1912132 1.8906848,2.7966322 1.8785376,2.5954455 1.9786276,2.3748746 2.1158732,2.1665005 2.2938728,1.9200598 2.4439345,1.7028527 2.4812758,1.3650086 2.5036826,1.0976349 2.5251456,0.75267597 2.4675084,0.56832061 Z" id="element-fire" ns1:connector-curvature="0" ns2:nodetypes="ccssssccsscccssscssscccssssccssccccsscsccsssscssscccscscssscccssccc" />
    <ns0:path id="element-water" style="color:#000000;font-style:normal;font-variant:normal;font-weight:normal;font-stretch:normal;font-size:medium;line-height:normal;font-family:sans-serif;text-indent:0;text-align:start;text-decoration:none;text-decoration-line:none;text-decoration-style:solid;text-decoration-color:#000000;letter-spacing:normal;word-spacing:normal;text-transform:none;writing-mode:lr-tb;direction:ltr;baseline-shift:baseline;text-anchor:start;white-space:normal;clip-rule:nonzero;display:inline;overflow:visible;visibility:visible;opacity:1;isolation:auto;mix-blend-mode:normal;color-interpolation:sRGB;color-interpolation-filters:linearRGB;solid-color:#000000;solid-opacity:1;fill:#00007e;fill-opacity:1;fill-rule:evenodd;stroke:none;stroke-width:0.467347;stroke-linecap:round;stroke-linejoin:miter;stroke-miterlimit:4;stroke-dasharray:none;stroke-dashoffset:0;stroke-opacity:1;color-rendering:auto;image-rendering:auto;shape-rendering:auto;text-rendering:auto;enable-background:accumulate" d="M 5.5256064,3.4851916 C 5.2777098,3.5104758 4.9291486,3.7610204 4.6756163,3.7746735 4.2030137,3.839189 3.6045817,3.6850584 3.1322792,3.6713902 2.3325406,3.6515499 1.8867711,4.0093099 1.1448523,4.2516984 0.95721489,4.3446038 1.1502257,4.4705159 1.3603932,4.4990367 1.5322981,4.5128767 1.8071523,4.4088095 1.9703555,4.3716128 2.4135587,4.2242436 2.8055922,4.107357 3.2792587,4.1685524 3.9052437,4.2777798 4.3078686,4.3319012 4.9216407,4.2346864 5.1219306,4.1770136 5.3140806,3.9786906 5.4942478,3.8849566 5.6572533,3.7526311 5.7416577,3.4791828 5.5256064,3.4851916 Z M 5.124902,2.379202 C 4.789306,2.3707505 4.7476519,2.568243 4.2775579,2.5756041 3.7042318,2.6201743 3.3232127,2.4777743 2.7528925,2.4470872 1.9985114,2.3791418 1.171839,2.805135 0.4844105,2.9900128 0.3028364,3.0928907 0.49760797,3.3143252 0.70919366,3.3314538 0.8973651,3.3308214 0.9589849,3.3728625 1.142531,3.3392583 1.7110101,3.1695434 2.075796,2.7396618 2.6647395,2.8081656 3.2588932,2.8627695 4.0594055,3.1170815 4.6539934,2.9958035 4.8421627,2.9207278 5.0127372,2.8109962 5.1475437,2.6727809 5.2433593,2.5279063 5.3073391,2.3739261 5.124902,2.3792018 Z M 4.2617254,1.1143734 C 4.0992638,1.1390255 3.9213158,1.2649497 3.7643739,1.3106008 3.281003,1.503809 2.7915256,1.4786871 2.2804007,1.3648787 2.0522667,1.3272153 1.707612,1.2452803 1.4812715,1.2051542 0.85214949,1.1543035 0.35220791,1.4646014 -0.13012048,1.8087847 -0.28470463,1.9447854 -0.13269984,2.1000334 0.07806075,2.0755474 0.32144051,2.0087367 0.62269469,1.9737704 0.86256869,1.8350093 1.165422,1.6946992 1.6110098,1.6256033 1.940667,1.7516369 2.50179,1.9082237 3.0132686,1.9719115 3.5894178,1.8326109 3.9275039,1.7604856 4.1419679,1.6224311 4.4112359,1.4143726 4.5457286,1.2721739 4.4642668,1.0984587 4.2617254,1.1143734 Z" ns1:connector-curvature="0" />
    </g><ns0:rect id="card-border" x="0" y="0" width="63.5" height="88.900002" rx="3" ry="3" style="fill:none;stroke:#000000;stroke-width:0.2;stroke-miterlimit:4;stroke-dasharray:none;stroke-opacity:1;fill-opacity:1" />
  <ns0:text id="spell-title" xml:space="preserve" style="font-style:normal;font-variant:normal;font-weight:bold;font-stretch:normal;font-size:3.175px;line-height:125%;font-family:Lato;-inkscape-font-specification:'Lato Bold';text-align:center;letter-spacing:0px;word-spacing:0px;text-anchor:middle;display:inline;fill:#000000;fill-opacity:1;stroke:none;stroke-width:0.264583" x="31.784822" y="8.0544901"><ns0:tspan x="31.784822" y="8.0544901" style="font-style:normal;font-variant:normal;font-weight:bold;font-stretch:normal;font-size:4.7625px;font-family:CCTreasureTrove;-inkscape-font-specification:'CCTreasureTrove Bold';fill:#000000;fill-opacity:1;stroke-width:0.264583" id="tspan64-5">Stallion</ns0:tspan></ns0:text>
    <ns0:text id="class-name" xml:space="preserve" style="font-style:normal;font-variant:normal;font-weight:bold;font-stretch:normal;font-size:1.5875px;line-height:125%;font-family:Lato;-inkscape-font-specification:'Lato Bold';text-align:center;letter-spacing:0px;word-spacing:0px;text-anchor:middle;display:inline;fill:#000000;fill-opacity:1;stroke:none;stroke-width:0.264583" x="31.784822" y="40.375942"><ns0:tspan x="31.784822" y="40.375942" style="font-style:normal;font-variant:normal;font-weight:bold;font-stretch:normal;font-size:1.5875px;font-family:CCTreasureTrove;-inkscape-font-specification:'CCTreasureTrove Bold';fill:#000000;fill-opacity:1;stroke-width:0.264583" id="tspan7315">Fundamental Techniques of Metamorphosis</ns0:tspan></ns0:text>
  <ns0:path id="sidebar-dots" clip-path="url(#clippath-1160)" style="display:inline;fill:#7b7b7b;stroke-width:1.9;stroke-linecap:round;stroke-linejoin:round;stroke-opacity:0.869565" d="M -14.679205,-3.4426839 V 91.177897 H 4.533574 v -1.560111 a 0.80736482,0.80736482 0 0 1 -0.0186,0.0031 0.80736482,0.80736482 0 0 1 -0.8071859,-0.807702 0.80736482,0.80736482 0 0 1 0.8071859,-0.807186 0.80736482,0.80736482 0 0 1 0.0186,0.0078 V 84.868771 A 0.80736482,0.80736482 0 0 1 4.2235161,84.267257 0.80736482,0.80736482 0 0 1 4.533574,83.665743 V 79.730066 A 0.80736482,0.80736482 0 0 1 3.8622981,78.979208 0.80736482,0.80736482 0 0 1 4.533574,78.227832 v -6.106087 a 0.80736482,0.80736482 0 0 1 -0.04134,0.01705 0.80736482,0.80736482 0 0 1 -0.8071859,-0.807186 0.80736482,0.80736482 0 0 1 0.8071859,-0.807186 0.80736482,0.80736482 0 0 1 0.04134,0.01705 V 67.377325 A 0.80736482,0.80736482 0 0 1 4.2235161,66.775811 0.80736482,0.80736482 0 0 1 4.533574,66.174297 v -3.93361 A 0.80736482,0.80736482 0 0 1 3.8721161,61.493446 0.80736482,0.80736482 0 0 1 4.533574,60.746722 v -6.122107 a 0.80736482,0.80736482 0 0 1 -0.03152,0.01292 0.80736482,0.80736482 0 0 1 -0.8077029,-0.807186 0.80736482,0.80736482 0 0 1 0.8077029,-0.807186 0.80736482,0.80736482 0 0 1 0.03152,0.01292 V 49.89674 A 0.80736482,0.80736482 0 0 1 4.2198981,49.293676 0.80736482,0.80736482 0 0 1 4.533574,48.690612 V 44.772505 A 0.80736482,0.80736482 0 0 1 3.8622981,44.021646 0.80736482,0.80736482 0 0 1 4.533574,43.270271 V 37.16259 a 0.80736482,0.80736482 0 0 1 -0.04134,0.0067 0.80736482,0.80736482 0 0 1 -0.8071859,-0.807702 0.80736482,0.80736482 0 0 1 0.8071859,-0.807186 0.80736482,0.80736482 0 0 1 0.04134,0.01705 V 32.405237 A 0.80736482,0.80736482 0 0 1 4.2333341,31.808374 0.80736482,0.80736482 0 0 1 4.533574,31.211512 V 27.276868 A 0.80736482,0.80736482 0 0 1 3.8721161,26.530144 0.80736482,0.80736482 0 0 1 4.533574,25.782902 v -6.106604 a 0.80736482,0.80736482 0 0 1 -0.04134,0.01705 0.80736482,0.80736482 0 0 1 -0.8071859,-0.807186 0.80736482,0.80736482 0 0 1 0.8071859,-0.807703 0.80736482,0.80736482 0 0 1 0.04134,0.0067 V 14.917394 A 0.80736482,0.80736482 0 0 1 4.2333341,14.320531 0.80736482,0.80736482 0 0 1 4.533574,13.723151 V 9.8019857 A 0.80736482,0.80736482 0 0 1 3.8783171,9.0578451 0.80736482,0.80736482 0 0 1 4.533574,8.3137044 V 2.2117513 a 0.80736482,0.80736482 0 0 1 -0.02222,0.0093 0.80736482,0.80736482 0 0 1 -0.8071859,-0.8071859 0.80736482,0.80736482 0 0 1 0.8071859,-0.80718588 0.80736482,0.80736482 0 0 1 0.02222,0.009302 V -2.5383464 A 0.80736482,0.80736482 0 0 1 4.2224821,-3.1403768 0.80736482,0.80736482 0 0 1 4.347539,-3.4426839 Z m 16.8837231,0.045475 a 0.80736482,0.80736482 0 0 1 0.807185,0.8071859 0.80736482,0.80736482 0 0 1 -0.807185,0.8077027 0.80736482,0.80736482 0 0 1 -0.807703,-0.8077027 0.80736482,0.80736482 0 0 1 0.807703,-0.8071859 z m -2.76262177,1.6934367 a 0.80736482,0.80736482 0 0 1 0.807702,0.8071859 0.80736482,0.80736482 0 0 1 -0.807702,0.80718587 0.80736482,0.80736482 0 0 1 -0.80718593,-0.80718587 0.80736482,0.80736482 0 0 1 0.80718593,-0.8071859 z m 2.56780077,1.07176923 a 0.80736482,0.80736482 0 0 1 0.807186,0.80770264 0.80736482,0.80736482 0 0 1 -0.807186,0.80718587 0.80736482,0.80736482 0 0 1 -0.807702,-0.80718587 0.80736482,0.80736482 0 0 1 0.807702,-0.80770264 z M -0.78031267,1.0485146 a 0.80736482,0.80736482 0 0 1 0.807703,0.8077026 0.80736482,0.80736482 0 0 1 -0.807703,0.8071859 A 0.80736482,0.80736482 0 0 1 -1.5874986,1.8562172 0.80736482,0.80736482 0 0 1 -0.78031267,1.0485146 Z M 2.0396701,2.1166665 A 0.80736482,0.80736482 0 0 1 2.8468561,2.9238523 0.80736482,0.80736482 0 0 1 2.0396701,3.731555 0.80736482,0.80736482 0 0 1 1.2324841,2.9238523 0.80736482,0.80736482 0 0 1 2.0396701,2.1166665 Z m 1.187524,2.3621297 A 0.80736482,0.80736482 0 0 1 4.0348971,5.2859821 0.80736482,0.80736482 0 0 1 3.2271941,6.0931679 0.80736482,0.80736482 0 0 1 2.4200081,5.2859821 0.80736482,0.80736482 0 0 1 3.2271941,4.4787962 Z M 0.64905703,4.7526813 A 0.80736482,0.80736482 0 0 1 1.4562431,5.5603839 0.80736482,0.80736482 0 0 1 0.64905703,6.3675698 0.80736482,0.80736482 0 0 1 -0.15812867,5.5603839 0.80736482,0.80736482 0 0 1 0.64905703,4.7526813 Z M 2.2654961,6.9758014 A 0.80736482,0.80736482 0 0 1 3.0731981,7.7829873 0.80736482,0.80736482 0 0 1 2.2654961,8.5906899 0.80736482,0.80736482 0 0 1 1.4583101,7.7829873 0.80736482,0.80736482 0 0 1 2.2654961,6.9758014 Z M 1.4428071,9.1152057 A 0.80736482,0.80736482 0 0 1 2.2499931,9.9229083 0.80736482,0.80736482 0 0 1 1.4428071,10.730094 0.80736482,0.80736482 0 0 1 0.63562103,9.9229083 0.80736482,0.80736482 0 0 1 1.4428071,9.1152057 Z m -1.99677677,0.9100223 a 0.80736482,0.80736482 0 0 1 0.807186,0.807186 0.80736482,0.80736482 0 0 1 -0.807186,0.807702 0.80736482,0.80736482 0 0 1 -0.80770293,-0.807702 0.80736482,0.80736482 0 0 1 0.80770293,-0.807186 z m 4.02662677,1.212846 a 0.80736482,0.80736482 0 0 1 0.807186,0.807702 0.80736482,0.80736482 0 0 1 -0.807186,0.807186 0.80736482,0.80736482 0 0 1 -0.807702,-0.807186 0.80736482,0.80736482 0 0 1 0.807702,-0.807702 z m -2.391068,0.649056 a 0.80736482,0.80736482 0 0 1 0.807186,0.807186 0.80736482,0.80736482 0 0 1 -0.807186,0.807185 A 0.80736482,0.80736482 0 0 1 0.27440333,12.694316 0.80736482,0.80736482 0 0 1 1.0815891,11.88713 Z m 1.126029,2.197282 a 0.80736482,0.80736482 0 0 1 0.807186,0.807702 0.80736482,0.80736482 0 0 1 -0.807186,0.807186 0.80736482,0.80736482 0 0 1 -0.807186,-0.807186 0.80736482,0.80736482 0 0 1 0.807186,-0.807702 z m -2.79466077,1.674833 a 0.80736482,0.80736482 0 0 1 0.807702,0.807186 0.80736482,0.80736482 0 0 1 -0.807702,0.807186 0.80736482,0.80736482 0 0 1 -0.80718593,-0.807186 0.80736482,0.80736482 0 0 1 0.80718593,-0.807186 z m 2.58795477,1.077453 a 0.80736482,0.80736482 0 0 1 0.807703,0.807186 0.80736482,0.80736482 0 0 1 -0.807703,0.807703 0.80736482,0.80736482 0 0 1 -0.807185,-0.807703 0.80736482,0.80736482 0 0 1 0.807185,-0.807186 z m -2.79414377,1.661398 a 0.80736482,0.80736482 0 0 1 0.807186,0.807186 0.80736482,0.80736482 0 0 1 -0.807186,0.807185 0.80736482,0.80736482 0 0 1 -0.80770293,-0.807185 0.80736482,0.80736482 0 0 1 0.80770293,-0.807186 z m 2.82308277,1.081071 a 0.80736482,0.80736482 0 0 1 0.807703,0.807186 0.80736482,0.80736482 0 0 1 -0.807703,0.807702 0.80736482,0.80736482 0 0 1 -0.807186,-0.807702 0.80736482,0.80736482 0 0 1 0.807186,-0.807186 z m 1.178223,2.40037 a 0.80736482,0.80736482 0 0 1 0.807186,0.807703 0.80736482,0.80736482 0 0 1 -0.807186,0.807185 0.80736482,0.80736482 0 0 1 -0.807703,-0.807185 0.80736482,0.80736482 0 0 1 0.807703,-0.807703 z M 0.66249303,22.24412 a 0.80736482,0.80736482 0 0 1 0.80718607,0.807703 0.80736482,0.80736482 0 0 1 -0.80718607,0.807186 0.80736482,0.80736482 0 0 1 -0.8077027,-0.807186 0.80736482,0.80736482 0 0 1 0.8077027,-0.807703 z m 1.60300307,2.22312 a 0.80736482,0.80736482 0 0 1 0.807702,0.807703 0.80736482,0.80736482 0 0 1 -0.807702,0.807186 0.80736482,0.80736482 0 0 1 -0.807186,-0.807186 0.80736482,0.80736482 0 0 1 0.807186,-0.807703 z m -0.799951,2.136304 A 0.80736482,0.80736482 0 0 1 2.2732471,27.41073 0.80736482,0.80736482 0 0 1 1.4655451,28.217916 0.80736482,0.80736482 0 0 1 0.65835903,27.41073 0.80736482,0.80736482 0 0 1 1.4655451,26.603544 Z m -2.01383077,0.874365 a 0.80736482,0.80736482 0 0 1 0.807703,0.807703 0.80736482,0.80736482 0 0 1 -0.807703,0.807186 0.80736482,0.80736482 0 0 1 -0.80718593,-0.807186 0.80736482,0.80736482 0 0 1 0.80718593,-0.807703 z m 4.02094277,1.222665 a 0.80736482,0.80736482 0 0 1 0.807186,0.807702 0.80736482,0.80736482 0 0 1 -0.807186,0.807186 0.80736482,0.80736482 0 0 1 -0.807702,-0.807186 0.80736482,0.80736482 0 0 1 0.807702,-0.807702 z m -2.394686,0.649056 a 0.80736482,0.80736482 0 0 1 0.807186,0.807186 0.80736482,0.80736482 0 0 1 -0.807186,0.807185 A 0.80736482,0.80736482 0 0 1 0.27078633,30.156816 0.80736482,0.80736482 0 0 1 1.0779711,29.34963 Z m 1.114144,2.222603 a 0.80736482,0.80736482 0 0 1 0.807186,0.807703 0.80736482,0.80736482 0 0 1 -0.807186,0.807186 0.80736482,0.80736482 0 0 1 -0.807702,-0.807186 0.80736482,0.80736482 0 0 1 0.807702,-0.807703 z m -2.75590377,1.665015 a 0.80736482,0.80736482 0 0 1 0.807186,0.807186 0.80736482,0.80736482 0 0 1 -0.807186,0.807702 0.80736482,0.80736482 0 0 1 -0.80770293,-0.807702 0.80736482,0.80736482 0 0 1 0.80770293,-0.807186 z M 2.0009121,34.32452 a 0.80736482,0.80736482 0 0 1 0.807703,0.807186 0.80736482,0.80736482 0 0 1 -0.807703,0.807702 0.80736482,0.80736482 0 0 1 -0.807185,-0.807702 0.80736482,0.80736482 0 0 1 0.807185,-0.807186 z m -2.78122477,1.658813 a 0.80736482,0.80736482 0 0 1 0.807703,0.807186 0.80736482,0.80736482 0 0 1 -0.807703,0.807703 0.80736482,0.80736482 0 0 1 -0.80718593,-0.807703 0.80736482,0.80736482 0 0 1 0.80718593,-0.807186 z M 2.0396701,37.05717 a 0.80736482,0.80736482 0 0 1 0.807186,0.807702 0.80736482,0.80736482 0 0 1 -0.807186,0.807186 0.80736482,0.80736482 0 0 1 -0.807186,-0.807186 0.80736482,0.80736482 0 0 1 0.807186,-0.807702 z m 1.177706,2.384867 a 0.80736482,0.80736482 0 0 1 0.807702,0.807703 0.80736482,0.80736482 0 0 1 -0.807702,0.807185 0.80736482,0.80736482 0 0 1 -0.807186,-0.807185 0.80736482,0.80736482 0 0 1 0.807186,-0.807703 z M 0.63923803,39.70662 a 0.80736482,0.80736482 0 0 1 0.80770307,0.807703 0.80736482,0.80736482 0 0 1 -0.80770307,0.807186 0.80736482,0.80736482 0 0 1 -0.8071847,-0.807186 0.80736482,0.80736482 0 0 1 0.8071847,-0.807703 z m 1.63607607,2.242757 a 0.80736482,0.80736482 0 0 1 0.807186,0.807186 0.80736482,0.80736482 0 0 1 -0.807186,0.807186 0.80736482,0.80736482 0 0 1 -0.807186,-0.807186 0.80736482,0.80736482 0 0 1 0.807186,-0.807186 z m -0.822688,2.145606 a 0.80736482,0.80736482 0 0 1 0.807185,0.807186 0.80736482,0.80736482 0 0 1 -0.807185,0.807186 0.80736482,0.80736482 0 0 1 -0.80770307,-0.807186 0.80736482,0.80736482 0 0 1 0.80770307,-0.807186 z m -1.96835577,0.884184 a 0.80736482,0.80736482 0 0 1 0.807703,0.807186 0.80736482,0.80736482 0 0 1 -0.807703,0.807702 0.80736482,0.80736482 0 0 1 -0.80718593,-0.807702 0.80736482,0.80736482 0 0 1 0.80718593,-0.807186 z m 3.98838677,1.193725 a 0.80736482,0.80736482 0 0 1 0.807186,0.807186 0.80736482,0.80736482 0 0 1 -0.807186,0.807703 0.80736482,0.80736482 0 0 1 -0.807702,-0.807703 0.80736482,0.80736482 0 0 1 0.807702,-0.807186 z m -2.400887,0.658358 a 0.80736482,0.80736482 0 0 1 0.807703,0.807186 0.80736482,0.80736482 0 0 1 -0.807703,0.807703 A 0.80736482,0.80736482 0 0 1 0.26458433,47.638436 0.80736482,0.80736482 0 0 1 1.0717701,46.83125 Z m 1.116728,2.203483 a 0.80736482,0.80736482 0 0 1 0.807186,0.807703 0.80736482,0.80736482 0 0 1 -0.807186,0.807186 0.80736482,0.80736482 0 0 1 -0.807703,-0.807186 0.80736482,0.80736482 0 0 1 0.807703,-0.807703 z m -2.74608577,1.678451 a 0.80736482,0.80736482 0 0 1 0.807186,0.807185 0.80736482,0.80736482 0 0 1 -0.807186,0.807186 0.80736482,0.80736482 0 0 1 -0.80770193,-0.807186 0.80736482,0.80736482 0 0 1 0.80770193,-0.807185 z m 2.56831877,1.096573 a 0.80736482,0.80736482 0 0 1 0.807186,0.807703 0.80736482,0.80736482 0 0 1 -0.807186,0.807186 0.80736482,0.80736482 0 0 1 -0.807186,-0.807186 0.80736482,0.80736482 0 0 1 0.807186,-0.807703 z m -2.79104377,1.636076 a 0.80736482,0.80736482 0 0 1 0.807703,0.807186 0.80736482,0.80736482 0 0 1 -0.807703,0.807703 0.80736482,0.80736482 0 0 1 -0.80718593,-0.807703 0.80736482,0.80736482 0 0 1 0.80718593,-0.807186 z m 2.81998277,1.116211 a 0.80736482,0.80736482 0 0 1 0.807186,0.807703 0.80736482,0.80736482 0 0 1 -0.807186,0.807186 0.80736482,0.80736482 0 0 1 -0.807186,-0.807186 0.80736482,0.80736482 0 0 1 0.807186,-0.807703 z m 1.187524,2.36213 a 0.80736482,0.80736482 0 0 1 0.807703,0.807186 0.80736482,0.80736482 0 0 1 -0.807703,0.807702 0.80736482,0.80736482 0 0 1 -0.807186,-0.807702 0.80736482,0.80736482 0 0 1 0.807186,-0.807186 z m -2.57813707,0.283704 a 0.80736482,0.80736482 0 0 1 0.80718607,0.807702 0.80736482,0.80736482 0 0 1 -0.80718607,0.807186 0.80736482,0.80736482 0 0 1 -0.8071857,-0.807186 0.80736482,0.80736482 0 0 1 0.8071857,-0.807702 z m 1.61643907,2.213301 a 0.80736482,0.80736482 0 0 1 0.807702,0.807703 0.80736482,0.80736482 0 0 1 -0.807702,0.807186 0.80736482,0.80736482 0 0 1 -0.807186,-0.807186 0.80736482,0.80736482 0 0 1 0.807186,-0.807703 z m -0.81287,2.126485 A 0.80736482,0.80736482 0 0 1 2.2598111,62.35485 0.80736482,0.80736482 0 0 1 1.4526261,63.162553 0.80736482,0.80736482 0 0 1 0.64492303,62.35485 0.80736482,0.80736482 0 0 1 1.4526261,61.547664 Z m -2.02261577,0.894003 a 0.80736482,0.80736482 0 0 1 0.807186,0.807186 0.80736482,0.80736482 0 0 1 -0.807186,0.807702 0.80736482,0.80736482 0 0 1 -0.80718593,-0.807702 0.80736482,0.80736482 0 0 1 0.80718593,-0.807186 z m 4.04264677,1.203544 a 0.80736482,0.80736482 0 0 1 0.807186,0.807186 0.80736482,0.80736482 0 0 1 -0.807186,0.807186 0.80736482,0.80736482 0 0 1 -0.807702,-0.807186 0.80736482,0.80736482 0 0 1 0.807702,-0.807186 z m -2.384867,0.658358 a 0.80736482,0.80736482 0 0 1 0.807186,0.807185 0.80736482,0.80736482 0 0 1 -0.807186,0.807186 0.80736482,0.80736482 0 0 1 -0.80770277,-0.807186 0.80736482,0.80736482 0 0 1 0.80770277,-0.807185 z m 1.100708,2.213301 a 0.80736482,0.80736482 0 0 1 0.807186,0.807186 0.80736482,0.80736482 0 0 1 -0.807186,0.807186 0.80736482,0.80736482 0 0 1 -0.807703,-0.807186 0.80736482,0.80736482 0 0 1 0.807703,-0.807186 z m -2.75228677,1.684135 a 0.80736482,0.80736482 0 0 1 0.807186,0.807186 0.80736482,0.80736482 0 0 1 -0.807186,0.807703 0.80736482,0.80736482 0 0 1 -0.80770293,-0.807703 0.80736482,0.80736482 0 0 1 0.80770293,-0.807186 z m 2.57451977,1.09089 a 0.80736482,0.80736482 0 0 1 0.807186,0.807185 0.80736482,0.80736482 0 0 1 -0.807186,0.807703 0.80736482,0.80736482 0 0 1 -0.807186,-0.807703 0.80736482,0.80736482 0 0 1 0.807186,-0.807185 z m -2.80034577,1.645377 a 0.80736482,0.80736482 0 0 1 0.807186,0.807186 0.80736482,0.80736482 0 0 1 -0.807186,0.807703 0.80736482,0.80736482 0 0 1 -0.80770293,-0.807703 0.80736482,0.80736482 0 0 1 0.80770293,-0.807186 z m 2.82928477,1.081071 a 0.80736482,0.80736482 0 0 1 0.807186,0.807703 0.80736482,0.80736482 0 0 1 -0.807186,0.807186 0.80736482,0.80736482 0 0 1 -0.807186,-0.807186 0.80736482,0.80736482 0 0 1 0.807186,-0.807703 z m 1.177706,2.39727 a 0.80736482,0.80736482 0 0 1 0.807702,0.807186 0.80736482,0.80736482 0 0 1 -0.807702,0.807702 0.80736482,0.80736482 0 0 1 -0.807186,-0.807702 0.80736482,0.80736482 0 0 1 0.807186,-0.807186 z m -2.56831907,0.264583 a 0.80736482,0.80736482 0 0 1 0.80718607,0.807186 0.80736482,0.80736482 0 0 1 -0.80718607,0.807703 0.80736482,0.80736482 0 0 1 -0.8071857,-0.807703 0.80736482,0.80736482 0 0 1 0.8071857,-0.807186 z m 1.62987507,2.216919 a 0.80736482,0.80736482 0 0 1 0.807186,0.807186 0.80736482,0.80736482 0 0 1 -0.807186,0.807703 0.80736482,0.80736482 0 0 1 -0.807186,-0.807703 0.80736482,0.80736482 0 0 1 0.807186,-0.807186 z m -0.826306,2.164726 a 0.80736482,0.80736482 0 0 1 0.807185,0.807702 0.80736482,0.80736482 0 0 1 -0.807185,0.807186 0.80736482,0.80736482 0 0 1 -0.80770307,-0.807186 0.80736482,0.80736482 0 0 1 0.80770307,-0.807702 z m -2.01641477,0.877466 a 0.80736482,0.80736482 0 0 1 0.807186,0.807186 0.80736482,0.80736482 0 0 1 -0.807186,0.807702 0.80736482,0.80736482 0 0 1 -0.80770293,-0.807702 0.80736482,0.80736482 0 0 1 0.80770293,-0.807186 z m 4.04574777,1.191141 a 0.80736482,0.80736482 0 0 1 0.807703,0.807186 0.80736482,0.80736482 0 0 1 -0.807703,0.807703 0.80736482,0.80736482 0 0 1 -0.807186,-0.807703 0.80736482,0.80736482 0 0 1 0.807186,-0.807186 z m -2.403988,0.664559 a 0.80736482,0.80736482 0 0 1 0.807186,0.807186 0.80736482,0.80736482 0 0 1 -0.807186,0.807703 0.80736482,0.80736482 0 0 1 -0.80718477,-0.807703 0.80736482,0.80736482 0 0 1 0.80718477,-0.807186 z m 1.116211,2.226738 a 0.80736482,0.80736482 0 0 1 0.807703,0.807186 0.80736482,0.80736482 0 0 1 -0.807703,0.807186 0.80736482,0.80736482 0 0 1 -0.807186,-0.807186 0.80736482,0.80736482 0 0 1 0.807186,-0.807186 z m -2.76778877,1.651579 a 0.80736482,0.80736482 0 0 1 0.807185,0.807185 0.80736482,0.80736482 0 0 1 -0.807185,0.807186 0.80736482,0.80736482 0 0 1 -0.80718593,-0.807186 0.80736482,0.80736482 0 0 1 0.80718593,-0.807185 z m 2.58433777,1.071252 a 0.80736482,0.80736482 0 0 1 0.807186,0.807703 0.80736482,0.80736482 0 0 1 -0.807186,0.807186 0.80736482,0.80736482 0 0 1 -0.807186,-0.807186 0.80736482,0.80736482 0 0 1 0.807186,-0.807703 z m -2.79104377,1.689819 a 0.80736482,0.80736482 0 0 1 0.807703,0.807186 0.80736482,0.80736482 0 0 1 -0.807703,0.807703 0.80736482,0.80736482 0 0 1 -0.80718593,-0.807703 0.80736482,0.80736482 0 0 1 0.80718593,-0.807186 z m 2.81533177,1.068669 a 0.80736482,0.80736482 0 0 1 0.807186,0.807703 0.80736482,0.80736482 0 0 1 -0.807186,0.807185 0.80736482,0.80736482 0 0 1 -0.807186,-0.807185 0.80736482,0.80736482 0 0 1 0.807186,-0.807703 z" ns1:label="sidebar-dots" />
    <ns0:text id="rev-id" xml:space="preserve" style="font-style:normal;font-weight:normal;font-size:1.76389px;line-height:125%;font-family:Georgia;text-align:end;letter-spacing:0px;word-spacing:0px;text-anchor:end;display:inline;fill:#000000;fill-opacity:1;stroke:none;stroke-width:0.264583" x="57.137505" y="86.014236"><ns0:tspan x="56.011604" y="86.014236" style="font-style:italic;font-variant:normal;font-weight:normal;font-stretch:normal;font-size:1.76389px;font-family:Georgia;text-align:end;text-anchor:end;fill:#000000;fill-opacity:1;stroke-width:0.264583" id="tspan71">15</ns0:tspan></ns0:text>
    <ns0:text xml:space="preserve" style="font-size:2.82222px;line-height:1.25;font-family:'Fira Sans';-inkscape-font-specification:'Fira Sans';display:inline;stroke-width:0.264583" x="59.0014" y="86.389885" id="spell-id"><ns0:tspan ns2:role="line" id="tspan3892" style="font-style:normal;font-variant:normal;font-weight:bold;font-stretch:condensed;font-size:2.82222px;font-family:'Arial Narrow';-inkscape-font-specification:'Arial Narrow Bold Condensed';text-align:center;text-anchor:middle;stroke-width:0.264583" x="59.0014" y="86.389885">15</ns0:tspan></ns0:text>
    <ns0:rect style="display:inline;fill:none;fill-opacity:0.458078;stroke:#000000;stroke-width:0.2;stroke-linecap:round;stroke-linejoin:round;stroke-dasharray:none;stroke-opacity:1" id="spell-id-border" width="4.4975996" height="2.8854792" x="56.713383" y="83.953461" ry="0.66162157" />
    <ns0:rect style="display:inline;fill:none;stroke:#000000;stroke-width:0.5;stroke-linecap:round;stroke-linejoin:round;stroke-dasharray:none;stroke-opacity:1" id="spell-pattern-border" width="44.64484" height="26.728304" x="9.4275799" y="11.164503" />
    <ns0:flowRoot transform="matrix(0.26458333,0,0,0.26458333,1.7941927,3.9407114)" xml:space="preserve" id="spell-description" style="font-style:normal;font-weight:normal;font-size:10.6667px;line-height:125%;font-family:sans-serif;letter-spacing:0px;word-spacing:0px;display:inline;fill:#000000;fill-opacity:1;stroke:none;stroke-width:1px;stroke-linecap:butt;stroke-linejoin:miter;stroke-opacity:1"><ns0:flowRegion id="flowRegion4270"><ns0:rect x="28.799999" y="146" width="171.75475" height="163.49103" id="rect88" /></ns0:flowRegion><ns0:flowPara id="flowPara91" style="font-style:normal;font-variant:normal;font-weight:normal;font-stretch:normal;font-size:10.6667px;font-family:'Slabo 27px';-inkscape-font-specification:'Slabo 27px, '">Target transforms into a stallion and charges into a neighboring room to trample-attack a foe there.</ns0:flowPara></ns0:flowRoot>
    <ns0:flowRoot transform="matrix(0.26458333,0,0,0.26458333,1.8072589,41.511549)" xml:space="preserve" id="spell-info" style="font-style:normal;font-weight:normal;font-size:9.33333px;line-height:125%;font-family:sans-serif;letter-spacing:0px;word-spacing:0px;display:inline;fill:#000000;fill-opacity:1;stroke:none;stroke-width:1px;stroke-linecap:butt;stroke-linejoin:miter;stroke-opacity:1"><ns0:flowRegion id="flowRegion1289"><ns0:rect x="28.799999" y="146" width="172.11678" height="130.35522" id="rect1287" /></ns0:flowRegion><ns0:flowPara id="flowPara1291" style="font-style:normal;font-variant:normal;font-weight:normal;font-stretch:normal;font-size:9.33333px;font-family:'Slabo 27px';-inkscape-font-specification:'Slabo 27px, '">Target: You or an ally within range</ns0:flowPara></ns0:flowRoot>
    <ns0:g id="range-cards" transform="translate(-4.0612153,-0.25842416)" style="display:inline" ns1:label="range-cards">
      <ns0:g id="use26838" style="display:inline" transform="translate(6.3499993,-8.4666653)">
        <ns0:rect style="fill:none;fill-opacity:0.623269;stroke:#000000;stroke-width:0.2;stroke-linecap:round;stroke-linejoin:round;stroke-dasharray:none;stroke-opacity:1" id="rect6629" width="5" height="7" x="12.735472" y="79.490578" ry="0.8010506" />
        <ns0:path id="path6631" style="fill:none;fill-opacity:0.623269;stroke:#000000;stroke-width:0.2;stroke-linecap:round;stroke-linejoin:round;stroke-dasharray:none;stroke-opacity:1" d="m 13.437939,80.594047 v 0.68523 H 12.75271 v 3.623551 h 0.685229 v 0.685229 h 3.624069 v -0.685229 h 0.685229 v -3.623551 h -0.685229 v -0.68523 z" />
      </ns0:g>
      <ns0:g id="use26840" style="display:inline" transform="translate(11.641664,-8.4666653)">
        <ns0:rect style="fill:none;fill-opacity:0.623269;stroke:#000000;stroke-width:0.2;stroke-linecap:round;stroke-linejoin:round;stroke-dasharray:none;stroke-opacity:1" id="rect6635" width="5" height="7" x="12.735472" y="79.490578" ry="0.8010506" />
        <ns0:path id="path6637" style="fill:none;fill-opacity:0.623269;stroke:#000000;stroke-width:0.2;stroke-linecap:round;stroke-linejoin:round;stroke-dasharray:none;stroke-opacity:1" d="m 13.437939,80.594047 v 0.68523 H 12.75271 v 3.623551 h 0.685229 v 0.685229 h 3.624069 v -0.685229 h 0.685229 v -3.623551 h -0.685229 v -0.68523 z" />
      </ns0:g>
      <ns0:g id="use27284" style="display:inline" transform="translate(1.0583336,-8.4666653)">
        <ns0:path id="path6623" style="fill:#000000;fill-opacity:1;stroke:#000000;stroke-width:0.2;stroke-linecap:round;stroke-linejoin:round;stroke-dasharray:none;stroke-opacity:1" d="m 13.536641,79.490702 c -0.443781,0 -0.800984,0.357203 -0.800984,0.800985 v 5.397603 c 0,0.443782 0.357203,0.801502 0.800984,0.801502 h 3.397726 c 0.443782,0 0.800985,-0.35772 0.800985,-0.801502 v -0.786515 h -0.673344 v 0.68523 h -3.624069 v -0.68523 H 12.75271 v -3.623551 h 0.685229 v -0.68523 h 3.624069 v 0.68523 h 0.673344 v -0.987537 c 0,-0.443782 -0.357203,-0.800985 -0.800985,-0.800985 z" />
        <ns0:path id="path6625" style="fill:none;fill-opacity:1;stroke:#000000;stroke-width:0.2;stroke-linecap:round;stroke-linejoin:round;stroke-dasharray:none;stroke-opacity:1" d="m 13.437939,80.594047 v 0.68523 H 12.75271 v 3.623551 h 0.685229 v 0.685229 h 3.624069 v -0.685229 h 0.685229 v -3.623551 h -0.685229 v -0.68523 z" />
      </ns0:g>
    </ns0:g>
    <ns0:g id="range-0" transform="translate(57.667107,-19.096248)" style="display:inline" ns1:label="range-0">
      <ns0:path id="path21899" style="fill:#010101;stroke-width:0.25;stroke-linecap:round" d="m -45.4288,91.789588 a 1.5722836,1.5722836 0 0 0 -1.571997,1.572514 1.5722836,1.5722836 0 0 0 1.571997,1.572001 1.5722836,1.5722836 0 0 0 1.572514,-1.572001 1.5722836,1.5722836 0 0 0 -1.572514,-1.572514 z m 0,0.31471 a 1.2578269,1.2578269 0 0 1 1.257805,1.257804 1.2578269,1.2578269 0 0 1 -1.257805,1.2578 1.2578269,1.2578269 0 0 1 -1.257804,-1.2578 1.2578269,1.2578269 0 0 1 1.257804,-1.257804 z m 0,0.314192 a 0.94337016,0.94337016 0 0 0 -0.943095,0.943612 0.94337016,0.94337016 0 0 0 0.943095,0.9431 0.94337016,0.94337016 0 0 0 0.943612,-0.9431 0.94337016,0.94337016 0 0 0 -0.943612,-0.943612 z m 0,0.31471 a 0.62891346,0.62891346 0 0 1 0.628902,0.628902 0.62891346,0.62891346 0 0 1 -0.628902,0.6289 0.62891346,0.62891346 0 0 1 -0.628902,-0.6289 0.62891346,0.62891346 0 0 1 0.628902,-0.628902 z m 0,0.314193 a 0.31445673,0.31445673 0 0 0 -0.314192,0.314709 0.31445673,0.31445673 0 0 0 0.314192,0.31419 0.31445673,0.31445673 0 0 0 0.31471,-0.31419 0.31445673,0.31445673 0 0 0 -0.31471,-0.314709 z" />
    </ns0:g>
    <use id="use1162" xlink:href="#element-earth" width="100%" height="100%" x="25.0" y="17.75" /><rect id="rect1163" x="32.5" y="17.75" width="6" height="6" style="fill:none;stroke:#000000;stroke-width:0.5;stroke-linecap:round;stroke-miterlimit:2" /><rect id="rect1164" x="25.0" y="25.25" width="6" height="6" style="fill:none;stroke:#000000;stroke-width:0.5;stroke-linecap:round;stroke-miterlimit:2" /><circle id="circle1165" cx="35.5" cy="28.25" r="0.9" style="fill:#c0c0c0;stroke:none;stroke-width:0" /></g></svg>