<?xml version='1.0' encoding='UTF-8'?>
<svg xmlns:ns0="http://www.w3.org/2000/svg" xmlns:ns1="http://www.inkscape.org/namespaces/inkscape" xmlns:ns2="http://sodipodi.sourceforge.net/DTD/sodipodi-0.dtd" xmlns:ns3="http://www.w3.org/1999/xlink" version="1.1" id="svg_root" xmlns="http://www.w3.org/2000/svg" xmlns:sodipodi="http://sodipodi.sourceforge.net/DTD/sodipodi-0.dtd" xmlns:inkscape="http://www.inkscape.org/namespaces/inkscape" xmlns:xlink="http://www.w3.org/1999/xlink" width="63.5mm" height="88.9mm" viewBox="0 0 63.5 88.9"><defs /><g id="card00" inkscape:label="Card 0" inkscape:groupmode="layer"><rect id="rect2982" x="0" y="0" width="63.5" height="88.9" rx="3" ry="3" style="fill:#ffffff;stroke:none;stroke-width:0" /><g id="masters" style="display:none"><ns0:path style="color:#000000;font-style:normal;font-variant:normal;font-weight:normal;font-stretch:normal;font-size:medium;line-height:normal;font-family:sans-serif;text-indent:0;text-align:start;text-decoration:none;text-decoration-line:none;text-decoration-style:solid;text-decoration-color:#000000;letter-spacing:normal;word-spacing:normal;text-transform:none;writing-mode:lr-tb;direction:ltr;baseline-shift:baseline;text-anchor:start;white-space:normal;clip-rule:nonzero;display:inline;overflow:visible;visibility:visible;opacity:1;isolation:auto;mix-blend-mode:normal;color-interpolation:sRGB;color-interpolation-filters:linearRGB;solid-color:#000000;solid-opacity:1;fill:#303030;fill-opacity:1;fill-rule:evenodd;stroke:none;stroke-width:0.584184;stroke-linecap:round;stroke-linejoin:miter;stroke-miterlimit:4;stroke-dasharray:none;stroke-dashoffset:0;stroke-opacity:1;filter:url(#filter9446);color-rendering:auto;image-rendering:auto;shape-rendering:auto;text-rendering:auto;enable-background:accumulate" d="M 4.4018694,0.44733079 C 4.1111618,0.34342204 3.8709836,0.32209579 3.6132946,0.35930329 3.1610804,0.42479454 2.5321261,0.56111616 2.0288947,0.78791559 1.4856084,1.0327893 1.360006,1.2192049 0.91442678,1.4659088 0.49931379,1.6957483 0.07899787,1.8554381 -0.25139435,2.2050524 c -0.164537,0.1741039 -0.01952,0.3081417 0.0790645,0.2769842 C 0.37082509,2.3103376 0.62854221,2.0959104 0.95856486,1.8981359 1.262212,1.7161822 1.1598418,1.9181009 1.7121544,1.5528322 2.1958518,1.2329384 2.2914002,1.1809992 2.5444882,1.1323118 2.6841434,1.0734755 2.8289707,1.0128243 3.0006478,0.95903982 3.4033104,0.85634107 3.4549494,0.88522982 3.9564233,0.92455482 4.3673831,0.95677107 4.7913971,1.1083084 4.9743959,1.2811418 5.1808156,1.476103 5.6174197,1.5085462 6.0159943,2.3042422 6.1798827,2.6314262 6.2303438,2.9682297 6.1967727,3.3024771 6.2325213,3.5603129 6.3895343,3.6570978 6.1951639,4.4371848 6.0508518,4.9246938 5.6466168,5.3825427 5.1278146,5.5961379 4.5214394,5.8458063 3.8220294,5.8892302 3.2203374,5.7463292 2.6407406,5.6086917 2.0124041,5.1184299 1.8913921,4.5946814 1.7734074,4.0840312 1.6812892,3.6403847 1.6591814,3.2345809 1.7064223,2.7336409 2.2265558,2.7443494 2.6852342,2.3975332 2.9992158,2.2716932 3.2215473,2.0634522 3.6528467,2.0634522 4.0221989,2.1136672 4.4173026,2.3337359 4.5604534,2.5752973 4.8672422,2.8659998 5.0069996,3.2420829 4.9111058,3.7211068 4.9257166,3.9624111 4.4870731,4.3651444 4.2336641,4.4090523 3.9173679,4.4638048 3.5199349,4.2179933 3.3234418,4.1257762 3.1358927,4.0728387 3.1483216,3.9999362 3.2259323,3.7275803 3.3194406,3.5952366 3.4958179,3.5120944 3.6026424,3.4456957 3.7318347,3.3653819 3.7419013,3.2023647 3.7060204,3.0707772 3.6274213,2.9614234 3.5495758,2.8847094 3.3595563,2.9428197 3.2297976,2.9825984 2.9895457,3.0071009 2.9337743,3.0585259 2.8430986,3.1409572 2.5940028,3.2754184 2.5252211,3.3698287 2.4600488,3.5899126 2.5926579,3.8315496 2.6173474,4.0206121 2.6492199,4.2447343 2.7794946,4.5031752 3.0531563,4.6307243 3.4657639,4.8230236 3.9778656,4.9196269 4.2958972,4.9049708 4.6842932,4.8644358 5.4455064,4.5413204 5.4534029,3.7748308 5.4327809,3.4136307 5.2278632,2.6897179 4.9498826,2.2138098 4.6672366,1.7299006 4.2670967,1.5235502 3.6992981,1.5274524 3.4101943,1.5522574 2.9910606,1.5859862 2.3822069,1.9341788 1.6789669,2.1971421 1.5704497,2.3065714 1.0852007,2.8345549 0.76896232,3.1786487 1.0449848,3.8067899 1.0449848,3.8067899 1.2684368,4.2782362 1.160378,4.3337601 1.38157,4.8816178 1.6709584,5.5983916 2.3167519,6.1328939 3.0602554,6.2917367 3.6612877,6.4201479 5.0777198,6.1872229 5.3849157,6.1170278 6.2570066,5.9177106 6.5451054,5.5368026 6.7996509,4.5429993 6.9688708,3.8823242 6.8402891,3.3104631 6.8101009,3.0812891 6.7718301,2.7906773 6.6639571,2.3095057 6.5781752,2.0954567 6.3807352,1.6486188 5.7416249,1.2083603 5.2267504,0.76746659 4.7474433,0.36744054 4.8551816,0.60934984 4.4018629,0.44728541 Z" id="element-air" ns1:connector-curvature="0" ns2:nodetypes="csssssssccsssccssscccccsccscscccsccsccsssssssccsc" />
  <ns0:path id="element-earth" style="color:#000000;font-style:normal;font-variant:normal;font-weight:normal;font-stretch:normal;font-size:medium;line-height:normal;font-family:sans-serif;text-indent:0;text-align:start;text-decoration:none;text-decoration-line:none;text-decoration-style:solid;text-decoration-color:#000000;letter-spacing:normal;word-spacing:normal;text-transform:none;writing-mode:lr-tb;direction:ltr;baseline-shift:baseline;text-anchor:start;white-space:normal;clip-rule:nonzero;display:inline;overflow:visible;visibility:visible;opacity:1;isolation:auto;mix-blend-mode:normal;color-interpolation:sRGB;color-interpolation-filters:linearRGB;solid-color:#000000;solid-opacity:1;fill:#004c00;fill-opacity:1;fill-rule:nonzero;stroke:none;stroke-width:0.584184;stroke-linecap:round;stroke-linejoin:round;stroke-miterlimit:4;stroke-dasharray:none;stroke-dashoffset:0;stroke-opacity:1;color-rendering:auto;image-rendering:auto;shape-rendering:auto;text-rendering:auto;enable-background:accumulate" d="m 4.4266827,0.69279902 c -0.067578,0.003161 -0.132066,0.0274065 -0.1831401,0.0688505 C 3.9175246,1.0260001 3.6608108,1.4509021 3.3933757,1.8542124 3.1266726,2.2564187 2.6198948,2.9179187 2.5486828,3.0179065 1.8329118,3.768386 1.5525791,4.4849268 0.70148519,5.327872 0.43805866,5.6127528 0.98209482,5.6453693 1.2455213,5.3604877 2.0908521,4.4458288 2.3061336,4.1424714 2.9654255,3.4605178 2.9752718,3.4502782 3.3157008,3.0895492 3.4535236,2.9031634 3.5760163,2.7317969 3.607279,2.5387999 3.8641471,2.1514257 4.0388535,1.8879547 4.2424222,1.5636755 4.403331,1.4841626 4.61149,1.6986584 4.9357778,1.9897792 5.2273237,2.5995439 5.4720828,2.9253272 5.9076633,3.4113229 5.9796773,3.5120963 6.2033025,3.8331387 6.6940028,4.4175282 6.7399057,4.5023538 6.9216137,4.8384543 7.0003808,4.3550697 6.8761782,3.9517513 6.7804741,3.7748988 6.7108028,3.5266124 6.4863261,3.2043455 6.2618491,2.8820799 5.9780342,2.6327737 5.9198142,2.5353022 L 5.6869346,2.1676337 C 5.486152,1.7192434 5.1431456,1.5505864 4.7040037,0.83442212 4.6474586,0.74224356 4.540286,0.68751496 4.426672,0.69279902 Z M 1.6305737,1.5376047 C 1.5317953,1.5397647 1.0657677,1.950196 1.0111558,2.0270919 0.70139929,2.4633173 0.4966148,2.7089853 0.15466441,3.1873877 -0.06894344,3.5005065 0.34744721,3.5716092 0.57118921,3.2585737 0.83195057,2.8937583 1.4351566,2.2521589 1.6262481,2.188897 c 0,0 0.6280597,0.4534612 0.8362336,0.5647023 C 2.8129503,2.9435929 3.2166757,2.7462493 2.864024,2.559818 2.9113365,2.58516 2.5592351,2.3230997 2.4178603,2.1508775 2.219035,1.919321 1.872853,1.6234668 1.6305737,1.5376047 Z m 3.5896099,2.351701 c -0.2292083,0.010812 -0.2327466,0.1122725 -0.11276,0.2949708 0,0 0.4572866,0.7737372 0.61578,1.2581372 C 5.9259828,5.776497 6.5638007,5.7179208 6.35824,5.2888202 6.1132953,4.7775092 5.4975155,4.0304395 5.4975155,4.0304395 5.44083,3.9384508 5.3336876,3.8839237 5.2201836,3.8893057 Z M 4.465459,4.0597528 C 4.2986287,4.0620528 4.1653423,4.2170535 4.167661,4.3728515 L 4.08121,5.8017605 C 4.0754318,6.183478 4.6626895,5.8874558 4.6569076,5.5057384 4.6172861,5.1971558 4.7390757,4.5385375 4.465459,4.0597528 Z M 3.4375215,3.869779 C 3.2002638,4.0206358 2.9136493,4.5317619 2.7330402,5.0850982 2.5930175,5.4380593 3.1598875,5.6342805 3.3000371,5.2813633 3.3720788,4.8238738 3.6210566,4.2402759 3.6210566,4.2402759 3.6958841,4.0596924 3.6447066,3.8774217 3.4375215,3.869779 Z" ns1:connector-curvature="0" />
    <ns0:path style="color:#000000;font-style:normal;font-variant:normal;font-weight:normal;font-stretch:normal;font-size:medium;line-height:normal;font-family:sans-serif;text-indent:0;text-align:start;text-decoration:none;text-decoration-line:none;text-decoration-style:solid;text-decoration-color:#000000;letter-spacing:normal;word-spacing:normal;text-transform:none;writing-mode:lr-tb;direction:ltr;baseline-shift:baseline;text-anchor:start;white-space:normal;clip-rule:nonzero;display:inline;overflow:visible;visibility:visible;opacity:1;isolation:auto;mix-blend-mode:normal;color-interpolation:sRGB;color-interpolation-filters:linearRGB;solid-color:#000000;solid-opacity:1;fill:#860000;fill-opacity:0.97451;fill-rule:evenodd;stroke:none;stroke-width:0.584184;stroke-linecap:round;stroke-linejoin:miter;stroke-miterlimit:4;stroke-dasharray:none;stroke-dashoffset:0;stroke-opacity:1;filter:url(#filter9446);color-rendering:auto;image-rendering:auto;shape-rendering:auto;text-rendering:auto;enable-background:accumulate" d="m 2.5709298,-0.17940482 c -0.086451,0.0874225 0.00959,0.26942163 0.00959,0.26942163 0,0 0.074134,0.2975995 0.101885,0.57033319 0.027749,0.27273401 -0.00509,0.5003048 -0.022872,0.6612802 -0.028647,0.259182 -0.2619939,0.7485514 -0.4414894,1.0210887 -0.1794955,0.2725223 -0.2946637,0.5494913 -0.3093011,0.8869149 -0.003,0.069121 0.022896,0.2023725 0.034064,0.2675159 -0.2020922,0.22143 -0.421346,0.3304207 -0.6281307,0.3881226 -0.2784173,0.077742 -0.71212148,0.2895379 -1.0865867,0.635129 -0.29856235,0.2755473 -0.4180013,0.5312203 -0.51841545,0.8862645 -0.1004148,0.3550443 -0.1629587,0.6466391 -0.1257311,0.9073639 0,0 0.00389,0.3052981 0.1047392,0.3927509 0.13687969,0.026923 0.3432346,-0.1200925 0.3432346,-0.1200925 0.42552588,-0.3019707 0.81717954,-0.586729 1.15110245,-0.6884295 0.3637882,-0.1108663 0.7482522,-0.075171 0.997501,3.781e-4 0.3274555,0.09922 0.6819945,0.054753 1.0251055,-0.019662 0.236374,-0.051122 0.3946,-0.1687345 0.5684947,-0.3190619 0.2315378,0.1773406 0.3729475,0.2112963 0.5384504,0.3363044 0.2032544,0.1535036 0.4375821,0.2972819 0.7984339,0.3912081 0.376862,0.098161 0.8079863,0.1060263 1.2079825,0.053694 0.3999947,-0.052333 0.7660208,-0.15004 1.0261551,-0.37268 0,0 0.2234597,-0.1553187 0.2018464,-0.2427714 -0.050463,-0.080163 -0.2719463,-0.1656946 -0.2719463,-0.1656946 0,0 -0.24587,-0.094834 -0.5225649,-0.2474752 C 6.4757883,5.1598258 6.2621428,4.8925217 6.0767702,4.7287331 5.8573577,4.5348608 5.7989199,4.2745747 5.7029322,4.0106888 5.6074496,3.7481944 5.4878773,3.4108464 5.1186193,3.1705102 4.9417082,3.0554089 4.7696831,2.9571569 4.5854696,2.8897146 4.5414966,2.7015142 4.5436626,2.5259129 4.5673256,2.3328574 4.6398167,1.9795677 4.5287221,1.5063518 4.3962784,1.1665233 4.2565537,0.80801537 3.9678108,0.62261317 3.7805872,0.42736481 3.5810887,0.21930531 3.3016962,-0.00794782 3.0192557,-0.11345982 c 0,0 -0.1745654,-0.0726 -0.4483259,-0.065945 z m 0.6014461,0.73451537 c 0.066943,0.0515762 0.2700709,0.1809552 0.3710479,0.28109782 0.2361065,0.23415013 0.4344079,0.56835213 0.4756173,0.81693153 0.04013,0.2420605 -0.0068,0.4557163 -0.034655,0.6828182 -0.017912,0.1461075 0.0024,0.3078391 0.062375,0.4623863 -0.047798,0.00302 -0.1673424,0.00605 -0.2166748,0.013612 -0.1646219,0.022234 -0.3385342,0.067155 -0.5260644,0.1327975 -0.3883505,0.1273525 -0.088504,0.2048228 0.3039588,0.1669649 0.3063564,-0.01573 0.5941395,0.1365788 0.7832735,0.220825 0.154564,0.068819 0.4072316,0.2421513 0.4836976,0.3680669 0.1489661,0.2452821 0.3482158,0.544016 0.3771641,0.6778117 0.052422,0.2422723 0.148399,0.4752427 0.4231693,0.7974657 0.2477589,0.2905663 0.5645144,0.3894838 0.868645,0.5579763 C 6.5167657,5.8175062 6.2711269,5.8864913 6.1942779,5.8965494 5.8664451,5.9395044 5.5129051,5.8675094 5.2734206,5.7441499 5.0117873,5.6095374 4.8359416,5.6098399 4.6161959,5.4710227 4.4718989,5.3799702 4.2759906,5.3162032 4.1752099,5.1255677 4.3081312,4.8348652 4.4524073,4.5696483 4.5051813,4.2862663 4.5891347,3.9060238 4.1925729,4.2802163 4.0219208,4.5700567 3.8406319,4.9536267 3.5470616,5.2484129 3.1052222,5.3950347 2.8191384,5.4900197 2.5736297,5.4010847 2.3080392,5.3472397 2.0424518,5.2936972 1.6710588,5.2342559 1.1892663,5.3811197 0.85793757,5.4820034 0.42349497,5.5977702 0.10850984,5.9446016 0.07408534,5.7653703 0.16643103,5.5824939 0.19535608,5.4952681 0.29046964,5.2084829 0.56367675,4.9184006 0.7448409,4.7512088 1.020636,4.4966702 1.3654023,4.4208032 1.6508654,4.3411247 1.8618563,4.2822884 1.9522476,4.2866747 2.1718667,4.1045394 2.3327581,4.3645684 2.5600721,4.5793132 2.8296459,4.7523886 3.1618004,4.9656511 3.0842128,4.6058273 2.7647762,4.2585422 2.5564583,4.0320302 2.4811262,3.8341952 2.4513464,3.3409689 2.4361624,3.0894856 2.5612749,2.8137719 2.7328319,2.5533043 2.9553314,2.2452534 3.1429086,1.9737446 3.1895852,1.5514394 3.2175937,1.2172223 3.2444224,0.78602362 3.1723759,0.55557942 Z" id="element-fire" ns1:connector-curvature="0" ns2:nodetypes="ccssssccsscccssscssscccssssccssccccsscsccsssscssscccscscssscccssccc" />
    <ns0:path id="element-water" style="color:#000000;font-style:normal;font-variant:normal;font-weight:normal;font-stretch:normal;font-size:medium;line-height:normal;font-family:sans-serif;text-indent:0;text-align:start;text-decoration:none;text-decoration-line:none;text-decoration-style:solid;text-decoration-color:#000000;letter-spacing:normal;word-spacing:normal;text-transform:none;writing-mode:lr-tb;direction:ltr;baseline-shift:baseline;text-anchor:start;white-space:normal;clip-rule:nonzero;display:inline;overflow:visible;visibility:visible;opacity:1;isolation:auto;mix-blend-mode:normal;color-interpolation:sRGB;color-interpolation-filters:linearRGB;solid-color:#000000;solid-opacity:1;fill:#00007e;fill-opacity:1;fill-rule:evenodd;stroke:none;stroke-width:0.584184;stroke-linecap:round;stroke-linejoin:miter;stroke-miterlimit:4;stroke-dasharray:none;stroke-dashoffset:0;stroke-opacity:1;color-rendering:auto;image-rendering:auto;shape-rendering:auto;text-rendering:auto;enable-background:accumulate" d="M 7.0068077,4.1839499 C 6.6969369,4.2155552 6.2612354,4.5287359 5.9443201,4.5458023 5.3535668,4.6264467 4.6055268,4.4337834 4.0151487,4.4166982 3.0154754,4.3918978 2.4582636,4.8390978 1.530865,5.1420834 1.2963183,5.2582152 1.5375818,5.4156053 1.8002912,5.4512563 2.0151723,5.4685563 2.3587401,5.3384723 2.5627441,5.2919764 3.1167481,5.1077649 3.6067899,4.9616567 4.1988731,5.0381509 4.9813543,5.1746852 5.4846354,5.2423369 6.2518506,5.1208184 6.5022129,5.0487274 6.7424004,4.8008237 6.9676094,4.6836562 7.1713663,4.5182493 7.2768718,4.1764389 7.0068077,4.1839499 Z M 6.5059272,2.8014629 C 6.0864322,2.7908986 6.0343646,3.0377642 5.4467471,3.0469656 4.7300894,3.1026783 4.2538156,2.9246783 3.5409153,2.8863194 2.5979389,2.8013877 1.5645984,3.3338792 0.70531265,3.5649764 0.47834503,3.6935738 0.72180949,3.9703669 0.9862916,3.9917777 1.221506,3.9909872 1.2985308,4.0435386 1.5279634,4.0015333 2.2385623,3.7893897 2.6945447,3.2520377 3.4307241,3.3376674 4.1734162,3.4059223 5.1740566,3.7238123 5.9172914,3.5722148 6.1525031,3.4783702 6.3657212,3.3412057 6.5342293,3.1684366 6.6539988,2.9873433 6.7339736,2.7948681 6.5059272,2.8014627 Z M 5.4269564,1.2204272 C 5.2238794,1.2512423 5.0014444,1.4086475 4.8052671,1.4657114 4.2010534,1.7072217 3.5892067,1.6758193 2.9503006,1.5335588 2.6651331,1.4864795 2.2343147,1.3840608 1.9513891,1.3339032 1.1649864,1.2703398 0.54005942,1.6582122 -0.06285107,2.0884413 -0.25608125,2.2584422 -0.06607527,2.4525022 0.19737547,2.4218947 0.50160017,2.3383813 0.87816789,2.2946734 1.1780105,2.1212221 1.5565771,1.9458344 2.1135619,1.8594646 2.5256334,2.0170066 3.2270372,2.2127401 3.8663854,2.2923498 4.5865719,2.1182241 5.0091796,2.0280674 5.2772596,1.8554993 5.6138446,1.5954262 5.7819604,1.4176778 5.6801332,1.2005338 5.4269564,1.2204272 Z" ns1:connector-curvature="0" />
    <ns0:g id="a-master" style="display:inline">
      <ns0:path ns2:type="star" style="display:inline;fill:#08e0b8;fill-opacity:1;fill-rule:evenodd;stroke-width:0.264583" id="path32-4" ns1:flatsided="true" ns2:sides="6" ns2:cx="-308.26138" ns2:cy="75.390007" ns2:r1="18.711763" ns2:r2="16.204863" ns2:arg1="0.52359878" ns2:arg2="1.0471976" ns1:rounded="0" ns1:randomized="0" d="m -292.05652,84.745889 -16.20486,9.355881 -16.20487,-9.355881 0,-18.711764 16.20487,-9.355881 16.20486,9.355881 z" transform="matrix(0,0.3175,-0.3175,0,55.686324,158.64052)" />
      <ns0:path id="path12743x" style="fill:#d1fdf5;fill-opacity:1;stroke:none;stroke-width:1.57802;stroke-linecap:round;stroke-linejoin:round;stroke-dasharray:none;stroke-dashoffset:0;stroke-opacity:0.791086" d="m 28.473672,57.348289 -0.113076,1.066939 0.694404,-0.114276 1.561134,0.03478 -1.892673,4.856492 -0.405096,0.518314 1.520191,0.137086 0.11244,-0.437931 0.477408,-0.952786 2.523165,-0.0308 0.440735,0.838378 -0.06851,0.507759 1.852024,-0.06717 -0.291575,-0.45511 -1.887089,-4.908026 1.35276,0.06888 0.607111,0.237365 0.321656,-1.393074 -0.659134,0.149854 -5.519372,-0.03242 z m 3.314838,1.575629 0.889584,2.336528 -1.835203,0.01485 z" ns1:label="a" ns2:nodetypes="ccccccccccccccccccccccccc" />
    </ns0:g>
  <ns0:g id="c-master" style="display:inline">
      <ns0:circle style="fill:#c9bb04;fill-opacity:1;stroke:none;stroke-width:0.3;stroke-dasharray:0.3, 0.3" id="path33" cx="31.750002" cy="60.767532" r="5.4727788" />
      <ns0:path id="path12967x" style="fill:#fef9b7;fill-opacity:1;stroke:none;stroke-width:1.5552;stroke-linecap:round;stroke-linejoin:round;stroke-dasharray:none;stroke-dashoffset:0;stroke-opacity:0.791086" d="m 32.626798,57.049891 c -0.383986,-0.03569 -1.079434,-0.03559 -1.390544,0.0874 -0.280193,0.110772 -1.134216,0.528406 -1.376701,0.71346 -0.279714,0.213466 -0.791391,0.807896 -0.892258,1.005595 -0.243174,0.476625 -0.529707,1.485897 -0.559561,1.89787 -0.03884,0.535956 0.356429,1.769843 0.580867,1.959753 0.311813,0.263841 1.397387,0.968519 1.741942,1.016044 0.452387,0.0624 2.04917,0.121388 2.793177,-0.133409 0.258963,-0.08868 1.087552,-1.065468 1.087552,-1.065468 0,0 -1.702433,0.33636 -2.25469,0.295146 -0.369896,-0.02761 -1.189174,-0.204654 -1.409439,-0.299768 -0.384209,-0.165909 -0.884879,-0.802471 -0.931643,-1.256741 -0.04942,-0.480055 -0.122036,-1.400513 0.05342,-1.690927 0.227442,-0.376456 0.806317,-1.19623 1.290824,-1.377016 0.275091,-0.102648 1.206563,-0.47279 2.066652,-0.623846 0.432624,-0.07598 0.789272,-0.380417 0.789272,-0.380417 z m 0.539888,1.568966 -1.649523,2.492387 3.221713,0.178017 z m -0.07453,1.354592 0.444825,0.600541 -0.835494,-0.03725 z" ns1:label="c" ns2:nodetypes="sssssssscsssssscscccccccc" />
    </ns0:g>
    <ns0:g id="e-master" style="display:inline">
      <ns0:ellipse style="fill:#14c604;fill-opacity:1;stroke:none;stroke-width:0.3;stroke-dasharray:0.3, 0.3" id="path43" cx="31.749992" cy="60.767536" rx="4.5344615" ry="5.6322784" />
      <ns0:path style="fill:#c9fec5;fill-opacity:1;stroke:none;stroke-width:1.69488;stroke-linecap:round;stroke-linejoin:round;stroke-dasharray:none;stroke-dashoffset:0;stroke-opacity:0.791086" d="m 30.223865,57.491509 3.728695,-0.03698 0.486175,1.552976 -0.806753,-0.363563 -1.840591,-0.05581 0.09788,1.417728 1.415951,-0.018 0.51677,-0.18186 0.397028,1.630082 -0.724979,-0.172454 -1.693873,-0.0329 0.04615,1.629429 1.733673,-0.03581 0.970943,-0.341095 -0.598375,1.405072 -3.579079,0.09677 0.26795,-0.509872 -0.166958,-2.258634 -1.296932,0.0847 -0.610348,0.183637 0.224359,-1.552964 0.572934,0.214465 1.145058,-0.100368 -0.01746,-1.977656 z" id="path12741x" ns1:label="e" ns2:nodetypes="ccccccccccccccccccccccccc" />
    </ns0:g>
    <ns0:g id="f-master" style="display:inline">
      <ns0:use x="0" y="0" ns3:href="#g41" id="use41" transform="matrix(1.2,0,0,1.2,102.09323,-15.027832)" style="display:inline" />
      <ns0:path id="path12748x" style="fill:#fed4c9;fill-opacity:1;stroke:none;stroke-width:1.4988;stroke-linecap:round;stroke-linejoin:round;stroke-dasharray:none;stroke-dashoffset:0;stroke-opacity:0.791086" d="m 34.000318,57.495416 -3.69954,0.03341 0.323226,0.3693 0.12585,1.777051 -1.019003,0.09552 -0.448967,-0.191137 -0.203124,1.218717 0.629945,-0.231382 1.143105,-0.072 0.06252,1.079246 c 0,0 -0.28944,0.04564 -0.585696,0.337676 -0.230262,0.226982 -0.408437,0.449629 -0.473363,0.694473 -0.09454,0.35649 -0.03008,0.650874 0.06229,0.853006 0.152435,0.333607 0.229079,0.487596 0.395765,0.607357 0.228662,0.164291 0.506707,0.375394 0.923402,0.398435 0.254516,0.01408 0.588901,0.0158 0.941908,-0.153774 0.243086,-0.116772 0.451489,-0.333547 0.601846,-0.603643 0.13194,-0.237017 0.132603,-0.560997 0.12992,-0.951756 -0.0022,-0.328136 -0.201287,-0.605897 -0.444743,-0.837429 -0.169507,-0.161204 -0.620671,-0.33372 -0.620671,-0.33372 l -0.01546,-1.142795 1.159446,-0.04837 0.570002,0.145386 0.156617,-1.22537 -0.626461,0.273864 -1.264076,0.05791 -0.07562,-1.219986 1.818455,-0.05263 0.703782,0.341024 z m -2.122525,5.103078 c 0.132781,0.176134 0.231077,0.435007 0.04988,0.657863 -0.171677,0.211138 -0.393828,0.305666 -0.63975,0.249434 -0.236899,-0.05417 -0.431112,-0.108792 -0.48708,-0.34527 -0.05382,-0.22739 -0.04945,-0.383432 0.06571,-0.586762 0.121871,-0.215192 0.338235,-0.207603 0.515256,-0.212889 0.228115,-0.0068 0.343173,0.03491 0.495987,0.237624 z" ns1:label="f" ns2:nodetypes="ccccccccccssssssssscccccccccccssssssss" />
    </ns0:g>
    <ns0:g id="g-master" style="display:inline">
      <ns0:path id="rect33-87" style="display:inline;fill:#04b1ab;fill-opacity:1;stroke:none;stroke-width:0.3;stroke-dasharray:0.3, 0.3" d="m 29.145822,55.308025 -1.585641,1.58564 v 7.747744 l 1.585641,1.585639 h 5.207742 l 1.586259,-1.585639 v -7.747744 l -1.586259,-1.58564 z" ns2:nodetypes="ccccccccc" />
      <ns0:path style="fill:#d2fefc;fill-opacity:1;stroke:none;stroke-width:1.5552;stroke-linecap:round;stroke-linejoin:round;stroke-dasharray:none;stroke-dashoffset:0;stroke-opacity:0.791086" d="m 33.389529,58.422254 -0.174355,-1.285351 c 0,0 -1.453873,-0.179776 -2.117854,0.09977 -0.577171,0.242996 -1.109877,0.632246 -1.517371,1.107772 -0.434639,0.507204 -0.628159,0.739722 -0.729504,1.399946 -0.07445,0.48502 -0.130226,1.106533 0.08922,1.545427 0.219445,0.438887 0.484512,0.76641 0.886624,1.04763 0.393541,0.275226 0.998771,0.231567 1.478471,0.254193 0.28826,0.0136 1.00508,-0.151134 1.00508,-0.151134 l -0.0425,0.653073 -1.287383,0.101772 -0.150342,0.889704 1.398019,-0.08742 -0.122272,0.839067 1.223196,-0.0088 0.122272,-0.893398 1.275749,-0.08255 0.124097,-0.837896 -1.390129,0.06583 c 0,0 0.07331,-0.82534 0.09098,-1.24701 0.01577,-0.376095 0.0026,-1.237911 0.0026,-1.237911 l 1.038807,-0.01733 0.09674,-0.748047 -1.147364,0.03512 -0.0043,-0.60932 -0.913954,0.04691 -0.04466,0.521824 -0.782145,0.07459 -0.149206,0.782678 0.87483,-0.04735 -0.08222,0.89 c 0,0 -0.819903,0.107904 -1.219482,0.08807 -0.523278,-0.02599 -1.161555,-0.404057 -1.2719,-1.138113 -0.08784,-0.58434 0.415839,-1.359318 0.852767,-1.757139 0.447568,-0.407511 1.172397,-0.660058 1.776493,-0.548716 0.266509,0.04913 0.810895,0.254015 0.810895,0.254015 z" id="path12894x" ns1:label="g" ns2:nodetypes="ccsssssscccccccccccscccccccccccsssscc" />
    </ns0:g>
    <ns0:g id="w-master" style="display:inline">
      <ns0:path id="path42" style="fill:#2000c1;fill-opacity:1;fill-rule:evenodd;stroke-width:0.133492" ns1:transform-center-y="1.6222393" d="m 26.762355,55.647892 -0.823954,1.427829 5.095581,8.825021 h 1.647907 l 5.095575,-8.825021 -0.824545,-1.427829 z" />
      <ns0:path style="fill:#d3cbff;fill-opacity:1;stroke:none;stroke-width:1.5846;stroke-linecap:round;stroke-linejoin:round;stroke-dasharray:none;stroke-dashoffset:0;stroke-opacity:0.791086" d="m 27.805102,57.03773 0.353537,0.399802 3.134311,6.028083 1.555472,-0.01873 2.264216,-5.759217 0.386323,-0.655304 -1.734721,-0.0508 0.0839,0.492857 -1.732028,4.453079 -0.658742,-1.121104 1.002287,-3.27481 0.464849,-0.493874 -1.906287,0.03895 0.0823,0.429578 -0.484677,2.201162 -1.082242,-2.227271 0.05534,-0.432709 z" id="path12957x" ns1:label="w" ns2:nodetypes="cccccccccccccccccc" />
    </ns0:g>
    <ns0:g id="y-master" style="display:inline">
      <ns0:path ns2:type="star" style="display:inline;fill:#b500a6;fill-opacity:1;fill-rule:evenodd;stroke-width:0.264583" id="path36-4" ns1:flatsided="true" ns2:sides="5" ns2:cx="-148.95346" ns2:cy="104.07106" ns2:r1="20.20487" ns2:r2="16.346085" ns2:arg1="-1.5707963" ns2:arg2="-0.9424778" ns1:rounded="0" ns1:randomized="0" d="m -148.95346,83.86619 19.21597,13.961222 -7.33985,22.589728 -23.75225,0 -7.33984,-22.589729 z" transform="matrix(-0.29226838,0,0,-0.29226838,-11.784385,90.76079)" ns1:transform-center-y="0.46991868" />
      <ns0:path style="fill:#ffc8fa;fill-opacity:1;stroke:none;stroke-width:1.59856;stroke-linecap:round;stroke-linejoin:round;stroke-dasharray:none;stroke-dashoffset:0;stroke-opacity:0.791086" d="m 28.445771,57.406315 1.484373,0.01585 1.39247,1.760054 -0.10536,-1.283221 -0.290037,-0.552633 1.721054,0.0532 -0.338222,0.605 -0.007,1.217606 1.531047,-1.110356 -0.349023,-0.511248 1.871294,-0.131802 -0.62379,1.977074 -0.317528,-0.479286 -2.07913,1.742746 -0.0077,2.395123 0.215524,0.648378 -1.553766,-0.04526 0.233979,-0.775698 -0.0059,-2.120022 -2.238764,-2.907123 z" id="path12896x" ns1:label="y" ns2:nodetypes="ccccccccccccccccccccc" />
    </ns0:g>
    <ns0:g id="sym-master-extra">
      <ns0:g id="g41" ns1:label="f-diamond-shape" style="display:inline" transform="translate(15.55363,13.712856)">
        <ns0:use x="0" y="0" ns3:href="#rect35-7" id="use38" transform="matrix(-1,0,0,1,-148.34598,2.0666667e-7)" />
        <ns0:use x="0" y="0" ns3:href="#rect35-7" id="use39" transform="rotate(180,-74.17299,49.449953)" />
        <ns0:path id="rect35-7" style="display:inline;fill:#e33505;fill-opacity:1;stroke-width:0.223172;stroke-dasharray:0.223172, 0.223172" d="m -74.172725,44.212282 v 5.237406 h 4.173905 c -1.042014,-1.895497 -2.318716,-3.690413 -4.173905,-5.237406 z" ns2:nodetypes="cccc" />
        <ns0:use x="0" y="0" ns3:href="#rect35-7" id="use40" transform="matrix(1,0,0,-1,-3e-8,98.899906)" />
      </ns0:g>
    </ns0:g>
    </g><ns0:rect id="card-border" x="0" y="0" width="63.5" height="88.900002" rx="3" ry="3" style="display:inline;fill:none;fill-opacity:1;stroke:#000000;stroke-width:0.2;stroke-miterlimit:4;stroke-dasharray:none;stroke-opacity:1" />
  <ns0:text id="spell-title" xml:space="preserve" style="font-style:normal;font-variant:normal;font-weight:bold;font-stretch:normal;font-size:3.175px;line-height:125%;font-family:Lato;-inkscape-font-specification:'Lato Bold';text-align:center;letter-spacing:0px;word-spacing:0px;text-anchor:middle;display:inline;fill:#000000;fill-opacity:1;stroke:none;stroke-width:0.264583" x="31.784822" y="8.0544901"><ns0:tspan x="31.784822" y="8.0544901" style="font-style:normal;font-variant:normal;font-weight:bold;font-stretch:normal;font-size:4.7625px;font-family:CCTreasureTrove;-inkscape-font-specification:'CCTreasureTrove Bold';fill:#000000;fill-opacity:1;stroke-width:0.264583" id="tspan64-5">E2-28 Water</ns0:tspan></ns0:text>
    <ns0:text id="rev-id" xml:space="preserve" style="font-style:normal;font-weight:normal;font-size:1.76389px;line-height:125%;font-family:Georgia;text-align:end;letter-spacing:0px;word-spacing:0px;text-anchor:end;display:inline;fill:#000000;fill-opacity:1;stroke:none;stroke-width:0.264583" x="57.137505" y="86.014236"><ns0:tspan x="56.011604" y="86.014236" style="font-style:italic;font-variant:normal;font-weight:normal;font-stretch:normal;font-size:1.76389px;font-family:Georgia;text-align:end;text-anchor:end;fill:#000000;fill-opacity:1;stroke-width:0.264583" id="tspan71">20</ns0:tspan></ns0:text>
    <ns0:text xml:space="preserve" style="font-size:2.82222px;line-height:1.25;font-family:'Fira Sans';-inkscape-font-specification:'Fira Sans';display:inline;stroke-width:0.264583" x="59.0014" y="86.389885" id="spell-id"><ns0:tspan ns2:role="line" id="tspan3892" style="font-style:normal;font-variant:normal;font-weight:bold;font-stretch:condensed;font-size:2.82222px;font-family:'Arial Narrow';-inkscape-font-specification:'Arial Narrow Bold Condensed';text-align:center;text-anchor:middle;stroke-width:0.264583" x="59.0014" y="86.389885">163</ns0:tspan></ns0:text>
    <ns0:rect style="display:inline;fill:none;fill-opacity:0.458078;stroke:#000000;stroke-width:0.2;stroke-linecap:round;stroke-linejoin:round;stroke-dasharray:none;stroke-opacity:1" id="spell-id-border" width="4.4975996" height="2.8854792" x="56.713383" y="83.953461" ry="0.66162157" />
    <ns0:path id="spell-pattern-border" style="display:inline;fill:none;stroke:#000000;stroke-width:0.5;stroke-linecap:round;stroke-linejoin:round" d="M 7.8400799,11.164503 H 55.65992 V 40.892807 H 7.8400799 Z" ns2:nodetypes="ccccc" />
    <ns0:flowRoot transform="matrix(0.26458333,0,0,0.26458333,1.7941927,3.9407114)" xml:space="preserve" id="spell-description" style="font-style:normal;font-weight:normal;font-size:10.6667px;line-height:125%;font-family:sans-serif;letter-spacing:0px;word-spacing:0px;display:none;fill:#000000;fill-opacity:1;stroke:none;stroke-width:1px;stroke-linecap:butt;stroke-linejoin:miter;stroke-opacity:1"><ns0:flowRegion id="flowRegion4270"><ns0:rect x="28.799999" y="146" width="171.75475" height="163.49103" id="rect88" /></ns0:flowRegion><ns0:flowPara id="flowPara91" style="font-style:normal;font-variant:normal;font-weight:normal;font-stretch:normal;font-size:10.6667px;font-family:'Slabo 27px';-inkscape-font-specification:'Slabo 27px, '">Spell Description</ns0:flowPara></ns0:flowRoot>
    <rect id="rect2983" x="19.0" y="13.25" width="7.5" height="7.5" style="fill:none;stroke:#000000;stroke-width:0.5;stroke-linecap:round;stroke-miterlimit:2" /><circle id="circle2984" cx="31.75" cy="17.0" r="0.9" style="fill:#c0c0c0;stroke:none;stroke-width:0" /><circle id="circle2985" cx="40.75" cy="17.0" r="0.9" style="fill:#c0c0c0;stroke:none;stroke-width:0" /><circle id="circle2986" cx="22.75" cy="26.0" r="0.9" style="fill:#c0c0c0;stroke:none;stroke-width:0" /><use id="use2987" xlink:href="#element-water" width="100%" height="100%" x="28.0" y="22.25" /><circle id="circle2988" cx="40.75" cy="26.0" r="0.9" style="fill:#c0c0c0;stroke:none;stroke-width:0" /><circle id="circle2989" cx="22.75" cy="35.0" r="0.9" style="fill:#c0c0c0;stroke:none;stroke-width:0" /><circle id="circle2990" cx="31.75" cy="35.0" r="0.9" style="fill:#c0c0c0;stroke:none;stroke-width:0" /><rect id="rect2991" x="37.0" y="31.25" width="7.5" height="7.5" style="fill:none;stroke:#000000;stroke-width:0.5;stroke-linecap:round;stroke-miterlimit:2" /></g></svg>