<?xml version="1.0" encoding="UTF-8" standalone="no"?>
<!-- Created with Inkscape (http://www.inkscape.org/) -->

<svg
   width="210mm"
   height="297mm"
   viewBox="0 0 210 297"
   version="1.1"
   id="svg22777"
   xml:space="preserve"
   inkscape:version="1.2.1 (9c6d41e, 2022-07-14)"
   sodipodi:docname="hexmap.svg"
   xmlns:inkscape="http://www.inkscape.org/namespaces/inkscape"
   xmlns:sodipodi="http://sodipodi.sourceforge.net/DTD/sodipodi-0.dtd"
   xmlns:xlink="http://www.w3.org/1999/xlink"
   xmlns="http://www.w3.org/2000/svg"
   xmlns:svg="http://www.w3.org/2000/svg"><sodipodi:namedview
     id="namedview22779"
     pagecolor="#ffffff"
     bordercolor="#666666"
     borderopacity="1.0"
     inkscape:showpageshadow="2"
     inkscape:pageopacity="0.0"
     inkscape:pagecheckerboard="0"
     inkscape:deskcolor="#d1d1d1"
     inkscape:document-units="mm"
     showgrid="false"
     inkscape:zoom="0.64700302"
     inkscape:cx="268.15949"
     inkscape:cy="438.94694"
     inkscape:window-width="1414"
     inkscape:window-height="748"
     inkscape:window-x="94"
     inkscape:window-y="102"
     inkscape:window-maximized="0"
     inkscape:current-layer="layer4" /><defs
     id="defs22774" /><g
     inkscape:label="Map"
     inkscape:groupmode="layer"
     id="layer1"><image
       width="146.84375"
       height="159.80833"
       preserveAspectRatio="none"
       xlink:href="hex-101.png"
       id="image23447"
       x="24.858162"
       y="51.880428"
       inkscape:export-filename="image23447.png"
       inkscape:export-xdpi="300"
       inkscape:export-ydpi="300" /><image
       width="146.84375"
       height="159.80833"
       preserveAspectRatio="none"
       xlink:href="hex-341.png"
       id="image23459"
       x="-306.02969"
       y="59.255447"
       transform="rotate(-120)" /><image
       width="146.84375"
       height="159.80833"
       preserveAspectRatio="none"
       xlink:href="hex-342.png"
       id="image23471"
       x="20.532751"
       y="20.861439"
       transform="rotate(60)" /><image
       width="146.84375"
       height="159.80833"
       preserveAspectRatio="none"
       xlink:href="hex-343.png"
       id="image23657"
       x="-77.727196"
       y="-110.8494"
       transform="rotate(120)" /><image
       width="146.84375"
       height="159.80833"
       preserveAspectRatio="none"
       xlink:href="hex-344.png"
       id="image23669"
       x="-207.62416"
       y="191.07318"
       transform="rotate(-60)" /><image
       width="146.84375"
       height="159.80833"
       preserveAspectRatio="none"
       xlink:href="hex-345.png"
       id="image23681"
       x="-44.370304"
       y="171.82378" /><image
       width="146.84375"
       height="159.80833"
       preserveAspectRatio="none"
       xlink:href="hex-346.png"
       id="image23693"
       x="-240.95436"
       y="-91.798874"
       transform="scale(-1)" /></g><g
     inkscape:groupmode="layer"
     id="layer2"
     inkscape:label="Mage"><path
       style="color:#000000;clip-rule:nonzero;display:inline;overflow:visible;visibility:visible;isolation:auto;mix-blend-mode:normal;color-interpolation:sRGB;color-interpolation-filters:linearRGB;solid-color:#000000;solid-opacity:1;fill:#3b3bff;fill-opacity:1;fill-rule:evenodd;stroke:#000000;stroke-width:0.9;stroke-linecap:butt;stroke-linejoin:miter;stroke-miterlimit:4;stroke-dasharray:none;stroke-dashoffset:0;stroke-opacity:1;color-rendering:auto;image-rendering:auto;shape-rendering:auto;text-rendering:auto;enable-background:accumulate"
       d="m 52.852847,97.461642 c -1.658423,0.05918 -2.4787,1.282912 -2.650434,2.102573 -0.173907,0.830015 0.236826,2.428265 0.236826,2.428265 0,0 -2.307745,0.8519 -3.287168,1.5696 -0.83518,0.61201 -2.017662,1.50867 -2.161892,2.63578 -0.08972,0.70097 0.562695,1.26315 1.243906,1.45119 0.892846,0.24646 2.587195,-0.83403 3.079891,-0.0888 0.484963,0.58134 -0.450148,2.21013 -1.066178,3.16875 -0.967447,1.50549 -2.326904,4.5721 -1.510282,4.59017 0.845827,0.0187 3.067392,-0.0156 4.412661,-0.059 0.516839,-0.0167 1.051149,-2.60623 1.70267,-2.60623 0.651521,0 1.186061,2.58953 1.702899,2.60623 1.34527,0.0435 3.566835,0.0778 4.412661,0.059 0.816623,-0.0181 -0.543064,-3.08468 -1.510511,-4.59017 -0.616029,-0.95862 -1.550912,-2.58741 -1.065948,-3.16875 0.492695,-0.74516 2.187044,0.33533 3.079891,0.0888 0.681211,-0.18804 1.333371,-0.75022 1.243676,-1.45119 -0.14423,-1.12711 -1.326712,-2.02377 -2.161893,-2.63578 -0.979435,-0.7177 -3.287167,-1.5696 -3.287167,-1.5696 0,0 0.410963,-1.59825 0.237056,-2.428265 -0.171734,-0.819661 -0.992241,-2.043348 -2.650664,-2.102573 z"
       id="path5268"
       inkscape:connector-curvature="0" /></g><g
     inkscape:groupmode="layer"
     id="layer3"
     inkscape:label="Mana"
     style="display:none"><circle
       r="8.3328934"
       cy="81.021088"
       cx="90.585426"
       id="circle4689"
       style="fill:#3b3bff;fill-opacity:1;fill-rule:nonzero;stroke:#000000;stroke-width:0.9;stroke-linecap:round;stroke-linejoin:round;stroke-miterlimit:4;stroke-dasharray:none;stroke-dashoffset:0;stroke-opacity:1" /><circle
       r="8.3328934"
       cy="130.23361"
       cx="166.25626"
       id="circle26878"
       style="fill:#3b3bff;fill-opacity:1;fill-rule:nonzero;stroke:#000000;stroke-width:0.9;stroke-linecap:round;stroke-linejoin:round;stroke-miterlimit:4;stroke-dasharray:none;stroke-dashoffset:0;stroke-opacity:1" /><circle
       r="8.3328934"
       cy="151.40007"
       cx="88.468773"
       id="circle26880"
       style="fill:#3b3bff;fill-opacity:1;fill-rule:nonzero;stroke:#000000;stroke-width:0.9;stroke-linecap:round;stroke-linejoin:round;stroke-miterlimit:4;stroke-dasharray:none;stroke-dashoffset:0;stroke-opacity:1" /></g><g
     inkscape:groupmode="layer"
     id="layer4"
     inkscape:label="Clip Rect"
     style="display:none"><rect
       style="fill:none;fill-opacity:1;stroke:#795cf3;stroke-width:0.899999;stroke-linecap:round;stroke-linejoin:round;stroke-dasharray:none;stroke-opacity:1"
       id="rect26935"
       width="170.11771"
       height="120.22741"
       x="14.312787"
       y="55.206463"
       rx="0"
       ry="0"
       inkscape:export-filename="hexmap-player.png"
       inkscape:export-xdpi="300"
       inkscape:export-ydpi="300" /></g></svg>
