<?xml version="1.0" encoding="UTF-8" standalone="no"?>
<!-- Created with Inkscape (http://www.inkscape.org/) -->

<svg
   xmlns:dc="http://purl.org/dc/elements/1.1/"
   xmlns:cc="http://creativecommons.org/ns#"
   xmlns:rdf="http://www.w3.org/1999/02/22-rdf-syntax-ns#"
   xmlns:svg="http://www.w3.org/2000/svg"
   xmlns="http://www.w3.org/2000/svg"
   xmlns:xlink="http://www.w3.org/1999/xlink"
   xmlns:sodipodi="http://sodipodi.sourceforge.net/DTD/sodipodi-0.dtd"
   xmlns:inkscape="http://www.inkscape.org/namespaces/inkscape"
   width="279.13513mm"
   height="116.1291mm"
   viewBox="0 0 279.13513 116.1291"
   version="1.1"
   id="svg1401"
   inkscape:version="0.92.5 (2060ec1f9f, 2020-04-08)"
   sodipodi:docname="monster-mat.svg"
   inkscape:export-filename="/home/garykac/projects/github/woven/tts/monster-mat/monster-mat.png"
   inkscape:export-xdpi="300"
   inkscape:export-ydpi="300">
  <defs
     id="defs1395" />
  <sodipodi:namedview
     id="base"
     pagecolor="#ffffff"
     bordercolor="#666666"
     borderopacity="1.0"
     inkscape:pageopacity="0.0"
     inkscape:pageshadow="2"
     inkscape:zoom="0.49497475"
     inkscape:cx="636.13624"
     inkscape:cy="-106.93111"
     inkscape:document-units="mm"
     inkscape:current-layer="layer1"
     showgrid="false"
     inkscape:snap-global="true"
     fit-margin-top="0"
     fit-margin-left="0"
     fit-margin-right="0"
     fit-margin-bottom="0"
     inkscape:window-width="1317"
     inkscape:window-height="1035"
     inkscape:window-x="2069"
     inkscape:window-y="704"
     inkscape:window-maximized="0" />
  <metadata
     id="metadata1398">
    <rdf:RDF>
      <cc:Work
         rdf:about="">
        <dc:format>image/svg+xml</dc:format>
        <dc:type
           rdf:resource="http://purl.org/dc/dcmitype/StillImage" />
        <dc:title></dc:title>
      </cc:Work>
    </rdf:RDF>
  </metadata>
  <g
     inkscape:label="Layer 1"
     inkscape:groupmode="layer"
     id="layer1"
     transform="translate(0.21573603,-181.6013)">
    <rect
       style="fill:#ffffff;fill-opacity:1;stroke:#000000;stroke-width:0.40000001;stroke-linecap:round;stroke-linejoin:round;stroke-miterlimit:4;stroke-dasharray:none;stroke-dashoffset:0;stroke-opacity:1;paint-order:markers fill stroke"
       id="rect1970"
       width="278.73514"
       height="115.7291"
       x="-0.015736023"
       y="181.8013"
       rx="0"
       ry="0" />
    <rect
       style="display:inline;fill:#ffffff;stroke:#000000;stroke-width:0.40000001;stroke-miterlimit:4;stroke-dasharray:none;stroke-opacity:1"
       ry="3"
       rx="3"
       height="88.900002"
       width="63.5"
       y="202.48318"
       x="73.867462"
       id="rect1952" />
    <rect
       id="rect853"
       x="141.3362"
       y="202.48318"
       width="63.5"
       height="88.900002"
       rx="3"
       ry="3"
       style="display:inline;fill:#ffffff;stroke:#000000;stroke-width:0.40000001;stroke-miterlimit:4;stroke-dasharray:none;stroke-opacity:1" />
    <rect
       style="display:inline;fill:#ffffff;stroke:#000000;stroke-width:0.40000001;stroke-miterlimit:4;stroke-dasharray:none;stroke-opacity:1"
       ry="3"
       rx="3"
       height="88.900002"
       width="63.5"
       y="202.48318"
       x="208.80495"
       id="rect1956" />
    <g
       id="g1080"
       style="opacity:0.316">
      <g
         style="display:inline"
         id="g1714"
         transform="translate(141.3362,202.48318)">
        <path
           inkscape:connector-curvature="0"
           id="path1694"
           d="m 31.055705,16.332982 c -3.122394,0.111508 -4.66678,2.415398 -4.990122,3.958634 -0.327417,1.562706 0.445888,4.571832 0.445888,4.571832 0,0 -4.344911,1.603911 -6.188927,2.955182 -1.572447,1.152266 -3.798775,2.840454 -4.070317,4.962522 -0.168873,1.319767 1.059409,2.378196 2.341969,2.732233 1.681006,0.464027 4.871052,-1.570264 5.798673,-0.167309 0.913067,1.094515 -0.847508,4.161106 -2.007346,5.965981 -1.821467,2.834465 -4.380998,8.608148 -2.843491,8.642159 1.592481,0.03521 5.775139,-0.02941 8.307959,-0.111267 0.973089,-0.03145 1.979059,-4.906895 3.205714,-4.906895 1.226655,0 2.233055,4.875443 3.206149,4.906895 2.532809,0.08186 6.715473,0.146495 8.307957,0.111267 1.537507,-0.03401 -1.02246,-5.807694 -2.843924,-8.642159 -1.159837,-1.804875 -2.919979,-4.871466 -2.006915,-5.965981 0.927621,-1.402947 4.117661,0.631343 5.798665,0.167309 1.282569,-0.354037 2.510434,-1.412466 2.341553,-2.732233 -0.271549,-2.122068 -2.497877,-3.810256 -4.070326,-4.962522 -1.844017,-1.351271 -6.18892,-2.955182 -6.18892,-2.955182 0,0 0.773738,-3.009126 0.446314,-4.571832 C 35.722915,18.74838 34.1781,16.444494 31.055705,16.332982 Z"
           style="color:#000000;clip-rule:nonzero;display:inline;overflow:visible;visibility:visible;opacity:1;isolation:auto;mix-blend-mode:normal;color-interpolation:sRGB;color-interpolation-filters:linearRGB;solid-color:#000000;solid-opacity:1;fill:#000000;fill-opacity:1;fill-rule:evenodd;stroke:none;stroke-width:3.18332338;stroke-linecap:butt;stroke-linejoin:miter;stroke-miterlimit:4;stroke-dasharray:none;stroke-dashoffset:0;stroke-opacity:1;color-rendering:auto;image-rendering:auto;shape-rendering:auto;text-rendering:auto;enable-background:accumulate" />
        <g
           id="g1700"
           style="">
          <path
             inkscape:connector-curvature="0"
             id="path1696"
             d="m 17.181641,19.613281 a 1.0001,1.0001 0 0 0 -0.978516,1.115235 l 2.833984,28.347656 a 1.0001,1.0001 0 1 0 1.990235,-0.199219 L 18.193359,20.529297 a 1.0001,1.0001 0 0 0 -1.011718,-0.916016 z"
             style="color:#000000;font-style:normal;font-variant:normal;font-weight:normal;font-stretch:normal;font-size:medium;line-height:normal;font-family:sans-serif;font-variant-ligatures:normal;font-variant-position:normal;font-variant-caps:normal;font-variant-numeric:normal;font-variant-alternates:normal;font-feature-settings:normal;text-indent:0;text-align:start;text-decoration:none;text-decoration-line:none;text-decoration-style:solid;text-decoration-color:#000000;letter-spacing:normal;word-spacing:normal;text-transform:none;writing-mode:lr-tb;direction:ltr;text-orientation:mixed;dominant-baseline:auto;baseline-shift:baseline;text-anchor:start;white-space:normal;shape-padding:0;clip-rule:nonzero;display:inline;overflow:visible;visibility:visible;opacity:1;isolation:auto;mix-blend-mode:normal;color-interpolation:sRGB;color-interpolation-filters:linearRGB;solid-color:#000000;solid-opacity:1;vector-effect:none;fill:#000000;fill-opacity:1;fill-rule:nonzero;stroke:none;stroke-width:2;stroke-linecap:round;stroke-linejoin:miter;stroke-miterlimit:4;stroke-dasharray:none;stroke-dashoffset:0;stroke-opacity:1;color-rendering:auto;image-rendering:auto;shape-rendering:auto;text-rendering:auto;enable-background:accumulate" />
          <path
             sodipodi:nodetypes="ccccc"
             inkscape:connector-curvature="0"
             id="path1698"
             d="m 17.578466,24.717034 2.576508,-0.0043 -3.215768,-6.671759 -1.822715,7.258762 z"
             style="fill:#000000;fill-opacity:1;fill-rule:evenodd;stroke:#000000;stroke-width:0.40000002pt;stroke-opacity:1" />
        </g>
        <g
           transform="translate(-0.24548647)"
           id="g1706"
           style="">
          <path
             style="fill:#000000;fill-opacity:1;stroke:none;stroke-width:0.26458332px;stroke-linecap:butt;stroke-linejoin:miter;stroke-opacity:1"
             d="m 28.206472,18.59643 c -0.992187,0 -3.071056,-1.866258 -3.449032,-2.527716 -0.377976,-0.661458 -0.783203,-0.958009 -0.921317,-0.165364 -0.206382,1.184441 0.968564,3.921503 2.574962,4.535714"
             id="path1702"
             inkscape:connector-curvature="0"
             sodipodi:nodetypes="cssc" />
          <path
             sodipodi:nodetypes="cssc"
             inkscape:connector-curvature="0"
             id="path1704"
             d="m 34.395924,18.59643 c 0.992187,0 3.071056,-1.866258 3.449032,-2.527716 0.377976,-0.661458 0.783203,-0.958009 0.921317,-0.165364 0.206382,1.184441 -0.968564,3.921503 -2.574962,4.535714"
             style="fill:#000000;fill-opacity:1;stroke:none;stroke-width:0.26458332px;stroke-linecap:butt;stroke-linejoin:miter;stroke-opacity:1" />
        </g>
        <g
           transform="translate(-0.01849597)"
           id="g1712"
           style="">
          <path
             style="fill:#ffffff;fill-opacity:1;stroke:none;stroke-width:0.26458332px;stroke-linecap:butt;stroke-linejoin:miter;stroke-opacity:1"
             d="m 28.153045,20.537714 2.138156,0.601356 -0.200451,0.734991 z"
             id="path1708"
             inkscape:connector-curvature="0" />
          <path
             inkscape:connector-curvature="0"
             id="path1710"
             d="m 33.99537,20.537714 -2.138156,0.601356 0.200451,0.734991 z"
             style="fill:#ffffff;fill-opacity:1;stroke:none;stroke-width:0.26458332px;stroke-linecap:butt;stroke-linejoin:miter;stroke-opacity:1" />
        </g>
      </g>
      <g
         style="display:inline"
         id="g1568"
         transform="translate(72.809128,202.48318)">
        <path
           inkscape:connector-curvature="0"
           id="path1566"
           d="m 46.182098,10.084493 c -0.03397,-0.004 -0.0725,-0.0019 -0.115755,0.0066 -5.034476,2.607096 -8.845075,4.227594 -14.616025,5.764058 -0.03871,-0.04912 -0.07901,-0.09637 -0.120716,-0.141111 -0.698191,-0.749134 -1.789642,-1.470892 -3.068065,-0.838399 0.890899,0.605811 1.339986,0.748623 1.695538,1.672388 0.04976,0.129273 0.0886,0.295506 0.120717,0.47184 -0.282297,3.089349 -1.394773,5.432787 -3.903707,6.858221 -0.583276,-0.685762 -1.161481,-1.200364 -1.31079,-2.098477 -0.114519,-0.688849 -0.303154,-1.171577 -0.581532,-1.479462 0.122865,-0.675029 0.168399,-1.375347 -0.0055,-1.880195 -0.470479,-1.365749 -1.443712,-2.509211 -2.955617,-2.610005 0.604762,1.007937 1.296169,2.374447 1.140465,3.634714 -0.02265,0.183328 -0.104057,0.390849 -0.207809,0.601376 -0.115205,0.03385 -0.233777,0.07175 -0.357738,0.115204 -0.701847,0.246034 -1.081982,0.08546 -1.914371,0.951397 -0.319672,0.332555 -0.1078,1.157565 -0.512079,1.379692 -0.753629,0.414075 -1.776255,0.575255 -2.258329,0.749102 -0.380831,0.137336 0.296582,2.209528 0.725951,2.293607 1.420881,0.278236 2.635617,0.0565 4.048676,0.558932 0.299209,0.106387 0.571926,0.470691 0.751306,0.751858 0.139674,0.817453 0.458,2.50377 0.910608,3.797873 -0.188991,0.867477 -0.563545,1.585432 -1.091958,1.627739 -0.617973,0.04948 -1.750663,-1.932068 -3.716293,-2.045009 -1.049238,-0.06029 -1.876045,0.202938 -2.940734,1.010378 -0.909816,0.689987 -1.413871,2.017369 -1.378038,3.582899 0.03135,1.369864 0.584682,2.197144 1.441428,2.549921 -0.06348,-1.92193 0.100643,-4.006038 1.91437,-4.715095 0,0 0.896197,1.105187 0.08985,2.869076 1.17914,0.02164 2.234215,-0.956969 2.500864,-2.15911 1.347003,0.571658 2.055202,2.170588 2.72135,2.059891 0.475663,-0.07904 1.298814,-1.088663 1.935868,-1.964531 0.426675,0.630241 0.902747,1.224175 1.425994,1.740187 0.472346,0.465814 1.146589,1.022054 1.817909,1.546157 -0.74186,0.951585 -1.647484,2.238682 -1.936971,3.208626 -0.330778,1.10829 -0.222817,2.340727 0.02756,3.4699 0.267538,1.206563 0.614054,2.445742 0.614054,2.445744 -1.713493,1.71349 -2.134421,0.771443 -3.38777,1.170229 -0.03152,0.01003 -0.06035,0.02143 -0.09095,0.03197 -0.476819,-0.176374 -0.985183,-0.296 -1.347721,-0.185208 -0.979336,0.299289 -1.661075,0.988608 -1.93201,2.388965 0,0 0.761363,-0.230518 1.488282,-0.323561 -0.0664,0.240183 -0.116428,0.493326 -0.146624,0.765087 1.567982,-0.285086 2.291461,-0.405931 3.349735,-0.42609 0.987908,-0.01881 1.985399,0.274902 2.942939,0.42609 1.043499,-1.375518 2.405446,-2.15165 3.514549,-2.590162 0.113948,-0.04505 0.151714,-0.194014 0.07276,-0.316947 -0.490972,-0.764455 -1.044479,-1.162542 -1.184562,-2.579688 -0.09021,-0.912598 0.241701,-1.897374 0.783828,-2.637014 0.245733,-0.335259 0.721412,-0.678691 1.187318,-0.96683 0.439605,0.483018 0.85995,0.946311 1.368116,1.499854 0.934378,1.017812 2.010836,3.744523 3.028377,5.078346 0.63484,0.83217 2.149661,2.436844 3.812757,2.512441 h 2.985379 c 1.663097,0 2.940336,-1.13412 3.265951,-1.935869 0.630706,-1.552964 0.724975,-2.949334 0.673584,-4.624697 -0.03772,-1.229704 0.486857,-3.191256 1.611754,-3.990247 0.739352,-0.525145 1.930123,-0.56216 3.038851,-0.461365 0.115816,0.04301 0.0398,-0.187653 -0.06449,-0.335139 -0.841195,-1.189607 -2.725809,-1.244172 -3.743304,-0.962422 -1.648815,0.456565 -2.645526,2.139534 -3.118776,3.665029 -0.407482,1.313506 -0.246962,2.68959 -0.72209,4.069623 -0.636794,1.849598 -2.334329,1.385255 -3.345326,0.227652 -1.740293,-1.992646 -2.169251,-4.836308 -3.4925,-7.127216 -0.3035,-0.525441 -0.755159,-1.208937 -1.207712,-1.877437 0.686529,-0.558733 1.635083,-0.991823 3.111059,-1.28819 0.14758,-0.02963 0.225631,-0.0825 0.234818,-0.184106 -0.769413,-3.941956 0.789743,-7.557667 5.222213,-9.848564 0.160107,-0.08275 0.261226,-0.226636 0.265686,-0.343407 -2.462656,-3.942505 -1.780595,-7.928316 1.041231,-13.960626 0.146902,-0.314037 0.131977,-0.628468 -0.105833,-0.656497 z"
           style="color:#000000;clip-rule:nonzero;display:inline;overflow:visible;visibility:visible;opacity:1;isolation:auto;mix-blend-mode:normal;color-interpolation:sRGB;color-interpolation-filters:linearRGB;solid-color:#000000;solid-opacity:1;fill:#000000;fill-opacity:1;fill-rule:evenodd;stroke:none;stroke-width:1.41111112;stroke-linecap:butt;stroke-linejoin:miter;stroke-miterlimit:4;stroke-dasharray:none;stroke-dashoffset:0;stroke-opacity:1;color-rendering:auto;image-rendering:auto;shape-rendering:auto;text-rendering:auto;enable-background:accumulate" />
      </g>
      <flowRoot
         transform="matrix(0.26458333,0,0,0.26458333,208.83013,206.23182)"
         style="font-style:normal;font-variant:normal;font-weight:normal;font-stretch:normal;font-size:192px;line-height:1.25;font-family:Lato;-inkscape-font-specification:Lato;text-align:center;letter-spacing:0px;word-spacing:0px;text-anchor:middle;display:inline;fill:#000000;fill-opacity:1;stroke:none"
         id="flowRoot1390"
         xml:space="preserve"><flowRegion
           id="flowRegion1392"
           style=""><rect
             y="5.1750498"
             x="-28.284271"
             height="394.46457"
             width="300.52039"
             id="rect1394"
             style="" /></flowRegion><flowPara
           style="font-style:normal;font-variant:normal;font-weight:normal;font-stretch:normal;font-family:CCTreasureTrove;-inkscape-font-specification:CCTreasureTrove"
           id="flowPara1396">$</flowPara></flowRoot>      <image
         width="63.499996"
         height="88.899994"
         preserveAspectRatio="none"
         xlink:href="file:///home/garykac/projects/github/woven/tts/spells/card-back.png"
         id="image1059"
         x="6.3987212"
         y="202.48318"
         sodipodi:absref="/home/garykac/projects/github/woven/tts/spells/card-back.png"
         style="" />
    </g>
    <rect
       id="rect1011"
       x="6.3987212"
       y="202.48318"
       width="63.5"
       height="88.900002"
       rx="3"
       ry="3"
       style="display:inline;fill:none;stroke:#000000;stroke-width:0.40000001;stroke-miterlimit:4;stroke-dasharray:none;stroke-opacity:1" />
    <text
       id="text1978"
       y="196.65578"
       x="38.415703"
       style="font-style:normal;font-variant:normal;font-weight:normal;font-stretch:normal;font-size:9.87777805px;line-height:1.25;font-family:Lato;-inkscape-font-specification:Lato;text-align:center;letter-spacing:0px;word-spacing:0px;text-anchor:middle;fill:#d4d4d4;fill-opacity:1;stroke:none;stroke-width:0.26458332"
       xml:space="preserve"><tspan
         style="font-style:normal;font-variant:normal;font-weight:normal;font-stretch:normal;font-family:CCTreasureTrove;-inkscape-font-specification:CCTreasureTrove;fill:#4f4f4f;fill-opacity:1;stroke-width:0.26458332"
         y="196.65578"
         x="38.415703"
         sodipodi:role="line"
         id="tspan1980">Artifacts</tspan></text>
    <text
       xml:space="preserve"
       style="font-style:normal;font-variant:normal;font-weight:normal;font-stretch:normal;font-size:9.87777805px;line-height:1.25;font-family:Lato;-inkscape-font-specification:Lato;text-align:center;letter-spacing:0px;word-spacing:0px;text-anchor:middle;fill:#d4d4d4;fill-opacity:1;stroke:none;stroke-width:0.26458332"
       x="105.77172"
       y="196.65578"
       id="text857"><tspan
         id="tspan855"
         sodipodi:role="line"
         x="105.77172"
         y="196.65578"
         style="font-style:normal;font-variant:normal;font-weight:normal;font-stretch:normal;font-family:CCTreasureTrove;-inkscape-font-specification:CCTreasureTrove;fill:#4f4f4f;fill-opacity:1;stroke-width:0.26458332">Watchers</tspan></text>
    <text
       id="text861"
       y="196.65578"
       x="173.18512"
       style="font-style:normal;font-variant:normal;font-weight:normal;font-stretch:normal;font-size:9.87777805px;line-height:1.25;font-family:Lato;-inkscape-font-specification:Lato;text-align:center;letter-spacing:0px;word-spacing:0px;text-anchor:middle;fill:#d4d4d4;fill-opacity:1;stroke:none;stroke-width:0.26458332"
       xml:space="preserve"><tspan
         style="font-style:normal;font-variant:normal;font-weight:normal;font-stretch:normal;font-family:CCTreasureTrove;-inkscape-font-specification:CCTreasureTrove;fill:#4f4f4f;fill-opacity:1;stroke-width:0.26458332"
         y="196.65578"
         x="173.18512"
         sodipodi:role="line"
         id="tspan859">Sentries</tspan></text>
    <text
       xml:space="preserve"
       style="font-style:normal;font-variant:normal;font-weight:normal;font-stretch:normal;font-size:9.87777805px;line-height:1.25;font-family:Lato;-inkscape-font-specification:Lato;text-align:center;letter-spacing:0px;word-spacing:0px;text-anchor:middle;fill:#d4d4d4;fill-opacity:1;stroke:none;stroke-width:0.26458332"
       x="240.67545"
       y="196.65578"
       id="text865"><tspan
         id="tspan863"
         sodipodi:role="line"
         x="240.67545"
         y="196.65578"
         style="font-style:normal;font-variant:normal;font-weight:normal;font-stretch:normal;font-family:CCTreasureTrove;-inkscape-font-specification:CCTreasureTrove;fill:#4f4f4f;fill-opacity:1;stroke-width:0.26458332">Treasure</tspan></text>
  </g>
</svg>
